<?xml version="1.0" encoding="UTF-8"?><svg id="b" xmlns="http://www.w3.org/2000/svg" viewBox="0 0 1920 1080"><g id="c"><g id="e"><path d="M288.56,263.74c1.28-.63,2.7-1.85,4.22-1.86,1.51.08,3.61.93,3.41,2.53-.08.83-1.04,1.5-1.32,2.26-.51,1.45,1.42,1.36,2.41,1.43,1.69.14,3.47,0,4.82-1.08,1.12-.64,2.24-1.61,3.54-1.46,1.28.34,1.99,1.72,1.82,3.03-.16,1.8-1.82,3-3.41,3.58-1.93,1.01-3.87,2.28-6.13,2.66-1.87.6-4.08.51-5.52-1.05-.64-.73-1.05-1.79-2.02-2.16-1.67-.72-4.13-1.02-4.9-2.86-1.43-2.34,1.23-3.85,2.93-4.92l.15-.09ZM320.15,257.74c-.4.54-.49,1.26-.91,2.02-.81,1.41-2.22,2.81-1.55,4.57.46,1.68,3.2,2.8,4.77,2.38,1.59-.36,3.16-1.36,4.79-1.51,1.97-.35,3.91.5,5.79.32.86-.12,1.61-.57,2.37-.95.95-.52,2.11-.46,3.21-.38,1.4-.04,3.3.06,3.99-1.34.86-1.45-.74-2.77-1.82-3.52-1.1-.76-2.48.09-3.68-.05-1.89-.29-1.12-2.65-.49-3.82,1.4-3.17-3.95-4.19-5.75-2.53-1.45,1.23-3.11,1.79-5,1.55-1.61,0-1.92.97-3.63,1.86-.69.37-1.52.72-2.01,1.3l-.1.12ZM485.71,270.28c-1.3.65-1.22,2.52-1.35,3.81-.12,2.94-2.67,4.37-4.52,6.26-1.06,1.18-2.08,2.79-1.13,4.09.85,1.18,3.33,2.75,2.05,4.32-.26.26-.65.43-1.03.53-2.3.47-4.36.64-6.37-.38-3.11-1.82-7.36-4.23-11.1-3.74-2.7.72-6.14,1.35-8.42,2.56-2.89,1.15-3.22,2.75-2.38,5.68,1.12,2.66,3.36,4.64,4.32,7.41.77,1.42.48,4.11,1.46,5.06.69.51,2.04.53,2.72.19.89-.75.06-2.31-.09-3.37-2.09-5.04-1.12-7.01,3.89-8.77,1.85-.43,3.8,1.12,5.71,1.73,2.01.9,4.04,2.32,5.58,3.87.93,1.19,1.21,2.82,2.32,3.9.58.6,1.21,1.15,1.53,1.95.53,1.09.25,2.63.87,3.52.66.95,1.94,1.42,3.36,1.44,2.82.19,5.51-1.13,6.84-3.48,1.06-2.79.77-5.78,1.31-8.65.62-1.84,2.41-1.2,3.95-.41,1.81,1.07,3.63,1.62,5.66,2.31,1.98.87,4.86.58,6.39-.87.58-.68.78-1.56,1.26-2.33.48-.84,1.1-1.61,1.46-2.51.7-1.57-.29-3.36-1.98-3.73-2.31-.72-4.7.17-6.94.76-1.56.29-3.43.98-4.41-.44-.93-1.66-1.07-4.91.66-6.2,2.28-2.01,5.8-2.22,7.9-4.47,1.79-2.28,3.15-4.83,5.21-6.85.94-1.04,2.34-1.86,3.1-3.05.86-1.43-.28-3.16-1.8-3.27-3.33-.43-6.8,1.87-10.07,1.17-2.85-.37-5.74-1.66-8.59-.6-1.18.53-2.07,1.67-3.34,2.01-1.14.36-2.84-.01-3.89.46l-.14.06ZM475.15,317.41c-1.33-.64-3.05-.42-4.55-.78-1.11-.16-2.48-.24-3.43.06-4.8,2.52-1.53,7.98,2.02,10.2,1.41,1.38,3.2.89,5,.78,1.43.01,2.57.6,3.69,1.45,1.86,1.66,3.77,3.77,6.42,4.28,2.19.4,3.38,2.22,4.84,3.82,1.32,1.51,2.85,2.47,4.79,2.42.54-.05.94-.35,1.28-.91.93-1.37,1.48-3.37,2.51-4.5,2.51-1.88,5.73-2.89,8.09-4.88,1.98-1.32,3.21-3.09,3.77-5.51.5-1.55-1.06-2.04-2.43-2.02-2.66.29-5.28,1.82-7.68,3.06-4.39,2-9.12,3.37-13.96,2.28-3.01-.89-6.56-2.93-8.12-5.64-.6-1.35-.94-3.06-2.11-4.02l-.14-.09ZM452.15,328.34c-2.48.63-4.15,3.36-6.76,3.64-1.44.35-2.95.89-4.37,1.34-1.5.56-2.72.63-3.08,2.02-.3,1.21.11,2.9,1.13,3.62.84.62,1.43,1.51,2.02,2.37.88,1.2,2.27,1.07,3.48,2,2.61,2.96,4.18-.03,6.86-.98,1.25-.46,2.36-.31,3.12.72.58.81.83,1.92,1.73,2.38,1.48.75,3.25.94,4.77,1.45,1.65.52,3.76.58,4.61,2.4,2.1,4.85,3.91,4.81,8.89,5.41,2.45.46,5.54.02,7.77.87.74.27,1.53.58,2.32.41.98-.19,1.99-1.05,2.42-1.87.66-1.95-2.94-3.19-4.3-4.01-1.8-.75-3.4-2.29-5-3.67-1.45-1.41-3.05-2.14-5-2.17-2.51-.37-4.56-2.08-7.11-2.56-3.33-.47-5.73-2.58-8.76-3.74-.73-.36-2.51-.86-.92-1.56,1.27-.72,3.21-.7,4.35-1.71,1.1-1.03.05-2.37-1.21-2.74-.97-.36-2-.59-2.76-1.33-.96-1.28-2.22-2.61-4.04-2.31l-.18.03ZM430.85,285.36c-.78,2.08-1.07,4.78-2.77,6.48-.78.78-2.19.72-3.39.79-2.32.17-5.03.04-6.78,1.84-.98,1.19-2.02,2.73-1.96,4.31.19,1.42,1.57,2.17,2.46,3.22,1.73,1.63,2.61,4.36,3.98,6.37,2.42,2.05,5.8,1.67,6.66-1.64.41-1.56-.99-2.76-1.48-4.18-.8-1.73-1.46-3.97-.68-5.86.88-1.57,3.23-1.69,4.39-2.98.82-1.2.55-3.08,1.16-4.47.35-1.39,1.61-2.51,1.46-3.99-.48-2.17-2.25-1.85-2.98-.05l-.08.17ZM429.28,356.13c-.19,2.21.85,4.74,1.58,6.73.16.4.28.88.19,1.27-.69,1.99-3.96,1.54-5.7,2.14-.87.26-.59.61.36.83.73.15,2.39.77,1.08,1.45-.31.2-.53.35-.36.62,2.15,1.98,5.47,2.06,8.18,3.1,1.57.7,3.52.11,4.94,1.13.77.62.92,1.64,1.18,2.54.39,1.5,1.83,2.68,1.25,4.11-.24.62-.65,1.22-.71,1.9-.15,1.85,2.11,2.98,3.7,3.08,1.98.11,3.66-1.08,5.58-1.52,1.74-.22,4.13-.73,3.99-2.91-.32-1.54-1.49-2.68-2.31-4.04-1-1.51-2.04-3.12-4.07-3.34-1.36-.39-3.33.61-4.49-.16-.2-.3.13-.63.38-.87,1.02-.95,3.06-1.41,4.07-2.24.87-1.11-.69-2.4-.9-3.53-.37-.95.61-2.3.17-3.14-.15-.27-.4-.34-.74-.31-1.92.16-3.47,2.64-5.29,2.79-.79-.06-.8-1.11-1.16-1.64-.23-.42-.76-.62-1.25-.73-3.87-.73-6.3-.81-7.65-5.08-.29-.66-1.25-4.37-2.02-2.34l-.04.14ZM521.18,223.01c-.89,2.32.57,5.27,2.6,6.57,1.58,1,2.7,2.25,4.33,2.87.84.25,1.84-.22,2.64-.1,1,.08,1.43,1.48,2.33,1.53,1.51-.23,2.95-1.34,4.41-1.59,1.4-.51,3.27-1.14,3.65-2.76.17-1.3-.97-2.74-.89-4.07,0-.36,0-.76-.02-1.12-.13-1.24-.91-2.46-2.08-2.57-1.44.15-3.62.73-5.2,1.01-3.48.65-7.13,1.05-10.65.17-.33-.08-.74-.19-1.02-.03l-.09.07ZM539.34,289.69c-1.01.51-2.97,1.51-3.9,2.15-1.29.87-2.59,1.9-3.88,2.59-.46.26-1.02.57-1.49.84-1.02.55-1.13,1.05-1.72,1.68-.55.54-1.27,1.1-1.47,1.88-.37,1.07.84,1.79,1.77,1.44.69-.28,1.49-.87,2.1-1.2.98-.56,2.28-.84,3.33-1.02,1.22-.19,3.24.49,3.9-1.11.6-.94,1.03-1.68,2.02-2.13.8-.39,1.83-.61,2.08-1.57.49-1.27.58-2.97-.45-3.79-.55-.49-1.51-.1-2.13.19l-.15.07ZM553.61,294.05c-1.07.52-2.79,1.09-3.06,2.38.05,1.56,1.83,1.5,3.22,1.21,2.46-.56,3.31.1,2.09,2.22-.4.69-.52,1.53-1.15,2.04-1.49.85-4.13.58-5.88,1.28-1.27.51-4.19.53-3.1,2.19.34.4,1,.65,1.64.86,1.17.28,1.68,1.39,2.01,2.44.57,2.01,2.14.92,3.28.1,1.73-1.3,4.11-1.35,6.05-2.2,2.63-.99-.22-4.38,1.67-5.71,1.91-.93,3.55-2.34,5.6-2.94,2.35-.52,4.63-1.76,6.69-2.89,1.74-1.99-1.91-2.78-3.45-2.94-1.76-.36-3.82.08-5.71.38-1.17.23-2.07.96-3.22,1.14-2.13,0-4.48-.58-6.5.39l-.17.07ZM588.8,287.34c-3.11-.57-4.79.11-3.41,3.41.73,3.09,3.07,4.19,6.3,4.23,2.01.36,3.65-.35,5.64-.88,1.73-.24,3.52.13,5.13-.75,2.03-.91,4.15-.77,6.25-1.31,1.7-.34,2.97-.69,4.3-.85,1.59-.22,3.25.39,4.87.22,3-.86,6.44-1.41,9.56-1.39,1.02-.13,2.56.33,3.27-.43.21-.33.06-.98-.13-1.72-.27-.95-.35-1.7-.97-2.24-2.13-1.27-4.85-1.33-7.31-1.42-1.6-.07-3.22-.41-4.94-.6-1.01-.1-1.96-.02-2.96-.18-1.32-.16-2.48-.89-3.78-.89-1.35-.03-2.58.37-3.94.52-2.4.37-5.23.58-6.88,2.56-1.44,1.57-3.34,2.76-5.48,3-1.93.26-3.55-.8-5.32-1.24l-.18-.04ZM704.91,291.02c-.74,1.53-.98,2.94.61,3.91,1.02.76,1.95,1.85,3.13,2.31.56.26,1.1.49,1.52.95,1.14,2.1,2.41,4.02,3.75,5.99.79,1.32,2.57,1.5,3.75.6,1.19-1.05,1.22-3,.81-4.43-.73-2.53-2.81-4.09-.36-6.51,2.5-2.4,3.5-4.99-.16-6.82-2.45-.78-4.74.66-7.13,1.11-3.13.45-4.21-.85-5.84,2.72l-.08.17ZM727.12,298.03c-.41,1.1-.47,2.7.34,3.59.74.85,1.97,1.67,3.11,1.8,1.44.33,2.65-.66,4.03-.83,2.78-.08,5.99.78,8.33-.95.97-1.35.85-3.67-.45-4.67-.91-.59-3.9-1.38-5.28-.42-.6.28-1.11-.13-1.49-.58-1.15-1.29-3.19-1.79-4.71-1.14-1.39.76-3,1.71-3.81,3.04l-.07.15ZM761.01,300.4c-.35.65-1.01,2.06-1.17,2.57-.07.59.06,1.48.33,2,.63.28,1.63-.02,2.46.01,2.33-.12,5.09-.08,7.23-.24.22-.04.39-.16.63-.37.35-.37.95-.69.85-1.25-.25-.74-.48-1.69-.97-2.28-.59-.56-1.14-1.05-1.97-1.32-.47-.18-.97-.37-1.44-.54-1.22-.39-1.51-.86-2.51-.3-.95.48-2.53,1.12-3.38,1.63l-.06.07ZM831.15,250.31c-1.61.54-2.1,2.12-2.76,3.64-1,1.65-2,4.11.1,5.28.76.43,1.75.43,2.53.8,2.4,1.04,1.93,5.29,5.4,4.75,3.25-.83,3.66,3.15.23,2.98-2.42-.22-4.64,1.1-6.88,1.82-1.56.36-3.01-.58-4.51-.85-2.65-.55-5.18,1.2-7.69,1.84-1.12.17-2.3-.19-3.41-.23-3.67.32,3.25,6.47,4.86,6.46,5.52,1.08,3.25-3.84,10.6-1.57.77.19,1.68.32,2.5.23,1.72-.16,2.81-1.81,4.44-1.89,1.16-.03,2.53.3,3.74.14,1.42-.14,2.92-.65,4.37-.63,1.56.08,3.27,1.06,3.96,2.56.61,1.62,1.44,3.68,1.59,5.51-.03,1.66.17,3.31.74,5.15.6,1.95,1.03,4.33,2.02,6.08,2.87,2.05,7.31.33,10.27-.87,3.02-1.21,3.69-3.2,3.06-6.11-.18-.8-.98-1.12-2.05-1.5-.93-.37-1.88-.81-2.35-1.72-.59-.94-.42-2.23-.92-3.27-.88-1.67-2.56-2.86-3.57-4.46-.97-1.48-1.44-2.89-2.38-3.98-1.13-1.25-2.65-3.16-3.84-4.28-1.6-1.59-4-3.96-2.16-6.24.7-.98,1.86-1.56,2.7-2.42,1.19-1.12.84-2.74.3-4.35-.43-1.41-1.62-2.1-2.99-1.26-.85.5-1.88,1.2-2.99,1.21-.72.02-1.48-.12-2.19-.21-1.32-.25-2.66.27-3.98.24-2.94-.25-5.4-4.06-8.59-2.91l-.15.06ZM625.42,301.08c-1.75.25-3.25-.29-4.87-.91-3.78-1.63-7.2.48-9.85,3.07-2.73,1.98-3.44,3.5-1.91,6.48.69,1.33.64,2.87.71,4.29.63,3.6,4.55.77,6.46-.09,1.22-.57,2.77-.93,4.21-1,2.42-.11,5.47.07,5.5,3.02.04,1.32-.38,2.54.07,3.71.42,1.55,2.54,2.7,2.8,4.11.27.96-.34,1.66-1.34,1.91-2.09.51-4.22-.2-6.24-.71-3.17-.87-6.21-2.15-9.29-3.63-2.14-.99-4.43-1.58-6.79-1.46-1.68.18-3.52-.16-4.62,1.02-1.48,1.48-1.39,3.82-.29,5.54,1.14,2.31,2.09,5.95,5.28,5.56,2.11-.42,4.27-1.34,6.43-1.29,1.99.1,3.81,1.44,5.6,1.92,2.43.76,5.03,1.17,6.84,2.97,3.66,3.03,6.19,4.72,7.97,8.72,1.51,2.64-1.12,6.82,2.83,7.97,2.22.84,2.89-1.89,3.38-3.83.55-1.69-.48-3.91,1.19-5.1.95-.66,2.3-1.09,2.95-2.06,1.03-1.52,1.2-3.66,2.08-5.2,1.46-3.27,5.36-4.18,8.58-3.43,1.38.25,3.78,1.78,2.16,3.1-.92.72-2.54.62-3.57,1.23-2.01.95-.93,2.63.39,3.59.87.75,1.6,1.66,2.51,2.36,1.16.95,3,.82,3.65-.63.23-.42.44-1.01.68-1.34,1-1.23,2.71.21,3.77.81,1.45,1.04,3.25,2.05,4.71,3.08,1.36,1.1,2.94.79,4.57.27,1.37-.38,3.89-.44,2.88,1.67-4.46,6.36-3.9,8.91,4.16,7.39.76-.05,1.33.15,1.73.68.9,1.27-.8,3.31.26,4.54,1.58,1.44,3.76,3.15,5.82,3.85,1.97.51,4.16,1.11,6.21.79,4.22-.62,9.18-1.34,11.67-5.19,1.16-2.65-3.03-4.16-4.85-5.35-.33-.17-.68-.32-.99-.49-.96-.49-1.02-1.2-.94-1.84.07-.9-.89-1.41-1.64-1.8-2.11-1.19-3.97-1.78-6.28-1.71-1.66-.04-3.59.43-4.86-.91-1.21-1.06-2.42-4.81-.91-4.83,1.04.08,2.28,1.83,3.13,1.8.15-.54-.67-1.67-.42-2.68.08-.58.63-.92,1.19-.81,1.08.18,1.5,1.75,2.54,2.05.88.35,2.04.23,3,.3,2.45.04,4.85,1.85,7.19,2.13,1.1.11,2.19-.08,3.27-.29.8-.12,1.95-.37,2.62-.19.13.05.23.12.23.26.08.38-1.76,1.53-2.09,2.41-.52,1.74,1.95,2.26,3.18,2.7,3.69,1.4,7.39-2.22,10.96-1.23.08.09.04.22-.09.37-.5.57-2.08,1.09-3.39,1.55-4.86,1.24-6.93,2.85-3.63,7.38,1.65,2.29,5.31,2.89,5.91,5.86.22,1.17.54,4.49-1.36,4.17-1.61-.53-3.39-1.94-5.04-2.01-1.08-.13-2.22-.04-3.51.21-1.17.23-2.32.67-3.52.7-1.76.06-3.5-.82-5.22-.67-2.6.02-4.92,1.26-6.83,2.82-2.24.86-4.82-1.87-6.85-2.31-2.02-.7-3.88-1.82-5.95-2.37-2.12-.56-4.34-.5-6.42-.98-2.73-.67-6.16-1.12-8.57.78-1.26.83-2.21,2.04-3.77,1.37-2.87-1.43-5-3.73-7.08-6.09-.93-1.21-.86-2.8-2.18-3.45-1.9-.83-6.43.13-4.97,2.84.71,1.33,2.56,2.23,4.2,2.74,1.61.46,3.78,1.54,2.86,3.11-1.27,1.57-3.96,1.06-5.74,1.72-1.2.48-2.21.59-3.14.86-2.37,1.1-2.93,4.22-3.78,6.43-1.13,3.57,3.76,2.68,5.71,1.83,3.36-.81,10.47-2.77,12.38.89.8,1.75,1.84,3.74-.19,5.14-1.95,1.31-1.05,4.52-3.36,5.46-1.06.48-2.08.58-3.26,1.06-1.28.53-2.6,1.48-3.85,1.89-1.82.48-4.89,1.16-6.28-.27-1.01-1.06-1.92-2.55-1.76-3.91.08-.97.07-2-.39-2.91-1.08-2.37-3.12-4.41-3.15-7.06-.02-.65.09-1.31-.03-1.95-.39-2.27-4-3.61-6.15-2.74-8.8,2.68-4.11,8.44-8.86,11.9-3.66,2.95-3.9.1-6.33-2.16-1.85-2.1-4.49-1.57-6.9-1.11-1.9.08-4-.31-5.56,1.03-1.51,1.19-3.84,3.2-3.69,5.02,1,4.49,7.11,6.89,6.03,12.07-.2.93-.29,2.01.18,2.79.42.84,1.38,1.13,2.42.77,1.56-.62,2.95-1.92,4.34-2.82,2.48-1.61,5-1.96,8.15-2.49,1.78-.36,3.48-.05,5.1.73,1.96.9,4.11,1.69,5.89,2.98,5.21,4.1.45,4.18,2.39,8.07,1.66,4.15,4.01,5.28,8.12,4.05,5.22-1.27,11.45-.88,16.82-1.75,1.8-.31,3.45-1.32,4.01-3.17.72-1.97-.61-4.34-.76-6.34-.12-1.72,1.42-3.26,3.07-2.53.58.25,1.14.66,1.7.94,2.88,1.55,5.05-.91,6.46-3.08,1.53-1.91,3.53-3.44,5.98-3.59,1-.09,2.07-.2,3.09-.18,1.66.07,2.06.92,3.52,1.24,1.02.24,2.2.11,3.24.26,2.32.24,4.56,2.54,6.5,3.62,1.56.92,3.66.93,5,2.2,1.21,1.26.67,3.32,1.01,4.88.53,2.01,2.64,3.73,2.93,6,.52,2.41,3.29,2.67,5.34,2.38,2.04-.25,3.38-1.86,4.51-3.45,1.77-2.86,5.67-3.64,7.88-6,1.77-2.69-.1-4.37-2.93-4.38-2.04-.08-3.6-1.08-5.15-2.23-1.52-1.06-2.88-2.15-3.99-3.74-1.02-1.67-2.44-3.07-4.26-3.84-3.23-1.64-5.9-1.3-5.61-5.89.01-2.33.8-4.84-.69-6.98-.37-.58-.8-1.19-.96-1.83-.4-2.53,3.21-1.23,4.81-1.61.96-.15,1.93-.35,2.9-.13,2.46.76,3.57,1.86,1.65,4.37-2.07,3.13,2.33,6,5.19,5.61,2.51-.14,4.92-2.98,4.94-5.46.03-.62-.05-1.39.08-1.95.43-1.77,1.92-.49,2.58.83.8,1.5.24,3.46.96,4.97.55.99,2.1,1.81,3.11,2.42.7.4,1.32.54,2.11.54,1.83-.02,6.32-.13,8.42-.19.85-.02,1.44-.18,2.04-.59,1.04-.77,2.12-1.86,3.3-2.52,1.85-1.17,4.61-1.01,6.69-1.27,1.41-.16,3.16-.39,4.53-.58,2.4-.36,4.77-2.24,6.4-3.94,1.36-1.54.47-4.53.07-6.88-.24-1.36-1.05-2.21-2.5-2.28-2.64-.05-4.8-1.82-4.94-4.51-.11-1.34.89-2.31,1.87-3.04,1.07-.75,1.95-1.91,2.8-2.95,1.3-1.59,3.46-2.96,4.26-4.82,1-2.19,2.26-4.87,3.17-7.08.77-1.8,1.66-3.83,3.36-4.77,1.96-.98,4.21-1.3,6.29-1.93,1.92-.58,3.71-1.25,4.87-2.9,1.03-1.52,1.14-4.1,3.46-4.21,1.2-.01,2.2.57,3.43.6,2.79-.06,7.76-1.42,8.38,2.42.11,1.46-1.23,2.75-2.21,4.03-2.06,1.98-1.56,4.23.02,6.31,1.11,1.57,3.01,2.44,4.08,4.03.98,1.63.15,4.21.77,5.91.47,1.94,2.65,2.88,4.49,2.38,1.41-.35,2.23-1.27,3.45-2.01.91-.55,1.82-1.07,2.57-1.85,1.08-1,1.68-2.55,1.92-3.95.54-3.93,4.83-5.41,8.1-6.13,2.37-.71,5.68-1.22,7.48-2.51,1.22-.89,2.68-1.25,4.15-.77,4.07,1.18,8.2,2,12.36,1.17,3.69-.62,7.15-1.46,9.96-3.88.84-.92.98-1.92.74-3.08-.41-3.03-2.92-5.01-5.96-5.16-5.01-.64-11.74.79-15.1-4.02-.47-.9-.38-2.05-.49-3.11-.08-1.04-.39-2.04-.42-3.08.11-3.8,5.32-4.18,7.62-5.79.7-.6,1.32-1.58,1.85-2.39,1.85-2.57,2.72-4.57.93-6.72-1.35-1.36-3.4-1.75-5.22-2.01-3.13-.43-6.64-.22-9.78.61-3.19.44-7.3-.19-9.26,3.03-1.23,1.78-2.26,3.74-4.17,4.77-.87.62-1.41,1.55-1.06,2.58.45,1.43.99,2.91.51,4.41-1.21,4.59-5.6,3.24-8.53,1.4-3.11-1.75-3.77-5.51-5.86-8.39-.88-.83-3.07-1.28-4.48-1.57-1.29-.21-2.26.5-3.44,1.3-3.42,2.72-7.86,1.28-11.5.42-2.98-.7-6.05-1.36-9.15-1.19-2.89-.12-4.33,3.79-7.19,3-1.09-.32-1.63-1.5-2.55-2.03-.63-.39-1.38-.55-2.11-.42-3.11.62-3.26,3.38-6.66.96-1.17-.76-2.95-.63-4.68-.62-4.96-.27-10.24,2.09-15.19,2.46-4.88.18-10.18.41-14.95.7-4.38-.11-8.41-3.23-13.17-3.42-1.82-.1-2.94,1.03-4.57,1.15-1.64.07-3.45-.27-5.08-.4-2.39-.26-5.01-.59-7.51-.95-2.54-.31-4.3-1.79-6.69-1.57-2.61.22-5.65,0-8.11.7-3.72.8-6.84,2.97-10.49,3.71-1.69.11-5.44,1.65-5.28-1.16.1-7.12,6.01-6.97,10.22-10.25,1.43-2.09.78-5.95-2.02-6.83-3.08-.76-8.15-3.8-10.32-.19-1.13,1.67-2.4,3.9-4.7,3.7-1.22-.13-2.38-.63-3.63-.38-1.84.24-3.28,1.82-4.67,2.91-1.98,1.29-4.65,2.84-7.12,2.75-1.7-.03-3.55-.09-5.19.18l-.18.02ZM600.69,345.26c-.87.35-1.66,1.29-2.13,2.05-.32.5.06.9.61,1.37.51.47.94.79,1.69.69.89-.02,2.1-.35,2.96-.12,1.84,1.1,3.14,2.6,5.05,3.74.83.35,2.75.91,3.86,1.28.36.1.61.08.86-.1,1.19-.81.54-1.94-.3-2.81-.82-.87-1.69-1.97-2.73-2.66-2.79-1.87-6.12-4.37-9.7-3.51l-.17.06ZM597.07,350.17c-.01.39.05,1.33.06,1.7,0,.3.05.3.33.53.52.35,1.05,1.12,1.68,1.08l1.26.1c.37.03.41.06.61-.18.2-.24.58-.67.68-.81.12-.15-.06-.22-.36-.52-.59-.49-.88-1-1.48-1.24-.28-.1-.85-.31-1.13-.42-.36-.16-1.38-.23-1.61-.26l-.04.03ZM562.2,353.12c-1.15.95-2.06,2.22-3.48,2.93-1.58.97-2.99,1.47-4.46,2.45-2.39,1.7-5.26,4.07-6.24,6.97-.14,1.07.13,2.58.63,3.65,1.16,1.92,3.25,1.14,4.75.12,1.05-.53,2.01-.45,3.06.18,1.36.72,2.41,2.11,3.49,3.17,1.02.99,2.29.97,2.97,2.24.58,1.02.91,2.58.6,3.67-.22.84.03,1.67.29,2.46.4,2.08-1.29,3.17,1.54,4.27,1.34.63,3.22.31,4.26,1.49.8,1.01,1.16,2.56,1.46,3.87.19,1.24.68,2.55,2.04,2.87,2.46.74,10.19.21,10.07-3.36.04-1.01.34-2.11,1.27-2.65,3.05-1.47,9.45-1.13,9.25-5.91-.1-2.56-.16-4.57-1.55-6.46-1.35-2.24-4.18-1.91-6.56-1.65-1.18.11-2.09,1.02-3.08,1.68-1.03.72-2.27.73-3.46.35-1.29-.34-2.29-2.01-3.72-1.44-1.62,1.03-3.46,2.51-5.48,1.62-1.01-.46-.97-1.82-1.05-2.78-.02-1.37-.25-2.73.03-3.91.35-1.68,1.44-3.06,3-3.74,1.29-.56,2.85-1.14,3.08-2.7.24-2.06-1.49-3.8-2.7-5.37-2.45-2.51-6.17-5.88-9.87-4.1l-.15.09ZM507.83,411.91c-1.57,1.8-2.23,4.39-3.65,6.2-.91.82-1.89,2.42.15,2.31,2.48-.31,4.85-1.34,7.11-2.36,2.26-.74,5.12-1.36,7.72-.78,1.12.51,1.91,2.11,2.78,3.2,1.2,1.41,1.67,3.42,3.56,4.03,2.01.63,4.27.18,6.62-.06,2.28-.25,4.58-.78,6.9-1.14,1.78-.41,4.48-.31,5.87-1.68.47-.52.34-1.43-.04-2.35-1.13-2.32-.81-4.36.86-6.19,1.71-2.22,4.9-2.7,6.71-4.67.46-.7.12-1.83-.23-2.6-1.17-3.56-3.73-5.58-7.35-4.6-3.3.84-6.45,2.09-9.95,2.07-2.63-.08-5.59-1.62-8.1-.28-2.29,1.62-4.72,3.3-6.76,5.12-1.27.82-2.99.57-4.43.79-2.69.26-5.55,1.07-7.65,2.88l-.12.12ZM576.48,397.25c-.85.82-1.68,1.95-2.47,2.83-.44.5-.86,1.1-1.42,1.43-.77.35-1.38,1.34-1.57,2.12-.09.4.29.84.58,1.27.22.31.42.47.79.59.69.19,1.66.65,2.4.57.35-.04.78-.09,1.06-.22.52-.3.52-1.1.82-1.58.88-1.6,2.6-2.32,4.28-2.7.38-.13.5-.32.3-.67-.37-.53-.93-1.06-1.05-1.56-.14-.45-.2-1.07-.43-1.42-.23-.35-.7-.74-1.08-.95-.44-.24-1.55.08-2.1.23l-.1.06ZM573.83,415.95c-.52,1.54.24,3.88,1.04,5.45.62,1.24,1.14,2.25,1.02,3.61-.25,4.08-3.6,3.56-6.25,5.35-1.41.93-3.06,2.35-2.21,4.19.57,1.99,2.98,3.52,3.09,5.6-.23,2.94-4.18,3.68-6.43,4.64-1.52.85-2.27,2.17-2.36,3.88-.06.87.02,1.92-.29,2.71-.45,1.17-1.7,1.91-2.24,3.05-.57,1.17-.49,2.16-.6,3.54-.06,1.55.03,3.49-.1,4.96,0,1.22-.66,2.74-.11,3.94,1.62,2.37,4.77,2.4,7.24,3.46.59.3,1.03.75,1.44,1.23.94,1.25,2.81,2.35,4.44,2.83,1.25.38,2.43.07,3.67.02.84-.02,1.52.12,2.28.01,1.11-.04,2.19-1.03,3.29-1.39,1.02-.36,2.56-.37,3.4-.95.4-.34.24-.81.1-1.26-1.12-2.09,1.16-2.71,2.63-4.08,1.61-2.04-.96-4.66-.7-6.98.02-.48.16-1.2.67-1.2.48.02,1.28.5,1.72.13,1.55-2.64-6.78-6.07-3.66-8.7,2.12-1.07,4.18-2.31,5.68-4.17,1.79-2.02,3.15-3.24,4.35-5.29.88-1.53-.32-3.11-1-4.46-.65-1.21-.03-2.42.46-3.56,1.32-3.65-1.76-7.03-1.07-10.83,0-2.95-3.19-2.16-4.84-3.43-1.29-1.11-1.65-3.38-3.11-4.17-3.72-1.53-8.59-1.14-11.5,1.74l-.07.13ZM604.68,432.6c-.24.68-.55,1.81-.55,2.55.56,1.45,1.9,3.39,3.66,3.68,1.51.3,2.33-1.2,3.53-1.78.97-.27,2.28.05,3.27-.49.53-.16.66-.67.8-1.35.53-1.57-3.19-2-4.38-2.46-1.13-.29-1.85-.59-3.01-.88-.64-.06-2.74.47-3.24.66l-.07.07ZM598.31,410.42c-.42.4-.63.91-.82,1.46-.54,1.75-1.29,3.52-.56,5.25.94,1.48,1.49,4.05,3.22,4.71,1.71.44,2.87-1.33,4.27-2.02,1.33-.63,2.8-1.12,3.9-2.07.62-.45,1.48-1.04,2.24-1,.67,0,.59.89.21,1.99-.28,1.67-1.66,2.65-2.59,3.91-.67,1.16.34,2.26,1.52,2.64,3.06.73,8.49-3.39,9.79-6.08.5-1.08.82-2.31.71-3.55-.04-1.01-.66-2.18-.36-3.16.18-.7.84-1.17,1.57-1.7,1.18-.83,2.18-2.03,2.37-3.51.88-4.89-3.53-4.3-7-4.05-1.15.18-2.07.83-3.21,1.12-.94.24-1.92.18-2.86.53-2.01.61-2.37,3.14-3.56,4.59-1.15,1.24-3.13.85-4.48.25-1.3-.55-3.1-.33-4.22.56l-.13.11ZM716.41,416.16c-.93,1.84-1.58,3.5-1.44,5.61.15,1.6-.93,4.06.76,4.98.86.43,1.91.62,2.64,1.29,1.22,1,1.68,3.16,3.75,2.53,1.96-.53,3.28-2.71,4.89-3.97.65-.56,1.49-.85,2.35-.82.34-.03.9.03.99-.32.05-.51-.46-1.29-.67-1.83-.57-1.21-.99-2.3-1.6-3.02-1.14-1.55-2.27-2.71-3.67-3.93-1.22-1.19-1.85-1.01-3.58-1.38-1.03-.11-2.59-.65-3.39-.6-.51.12-.78.67-.97,1.31l-.06.16ZM775.08,401.43c-.57.37-.99.87-1.5,1.31-2.51,1.76-4.86,3.59-5.86,6.57-.82,1.68.39,2.43,1.52,3.47,1.75,1.38,2.29,2.87,3.45,4.58.56.75,1.31,1.36,1.96,2.05,1.05,1.05,1.29,2.34,2.34,3.28.77.6,1.73.28,2.62-.11,1.66-.59,2.35-1.65,3.42-3.02,1.68-1.81,3.1-3.32,4.6-5.36.5-.65,1-1.28,1.54-1.82.69-.72,1.73-1.45,1.7-2.53-.26-2.85-4.22-1.81-6.11-1.12-1.3.4-2.17.79-3.4.79-1.1-.06-2.68-1.06-2.74-2.35-.02-.76.35-1.5.46-2.25.47-2.86-.79-5.21-3.85-3.57l-.16.1ZM821.91,360.09c-.18,1.46,1.04,2.56,1.11,4.05.26,1.46-.61,3-.77,4.46,0,1.52.42,3.02.01,4.53-.27,1.22-1.04,2.08-1.32,3.31-.15.95-.51,2.13-.87,2.93-.26,1.1,1.33,1.18,2.09,1.38,1.52.29,2.78.62,3.95.26,1.11-.34,2.64-.89,3.73-1.26,1.26-.31,1.94-1,2.41-2.15.76-1.59,1.5-3.18,1.17-4.88-.6-2.12-1.61-4.45-1.96-6.57-.3-1.09-2.28-2.21-2.94-3.08-1.19-1.59-2.01-3.6-4.01-4.27-1.05-.61-2.32-.19-2.58,1.1l-.03.17ZM822.2,407.56c-.36.29-.67.84-.89,1.35-.47.98.59,3.18,1.04,3.97.57.68,2.13.17,2.92.58.69.34.84,1.23,1.36,1.76,1.34,1.01,3.18,1.04,4.98.84,1.8-.13,2.71-.4,4.35-.81.91-.24,1.42-.29,1.84-1,.82-1.95,3.13-5.57.39-6.83-2.52-.74-5.63-2.02-8.36-1.53-.66.17-1.24.62-1.87.89-1.57.75-3.92.08-5.63.69l-.12.08ZM897.97,459.84c-.7-.03-1.46.32-2.21.23-.56-.03-1.1-.16-1.57.21-1.46,1.44-1.19,4.81-3.46,5.51-.74.27-1.81.34-1.79,1.35.04.8.5,1.86,1.04,2.45.98.97,2.85,1.53,3.87,2.35,1.22,1.02,2.08,2.57,2.97,3.9.77,1.11,1.57,2.95,2.66,3.87.81.59,1.47.99,2.15,1.95,1.92,2.27,3.04,7.59,6.88,5.84,1.88-1.24,4.53-2.22,5.11-4.58,1.04-2.64,1.79-4.62,3.83-6.38.47-.44,1.06-.93,1.05-1.57-1.14-5.34-3.55-5.28-5.55-.22-2.38,5-4.97-1.73-6.78-3.59-.83-.92-1.89-1.63-2.27-2.88-.61-1.64-1-3.52-.31-5.16.37-1.46-.04-2.86-1.85-2.26-1.45.53-2.37-.67-3.62-1l-.15-.02ZM1208.83,458.71c-1.44,2.4-4.98.97-7.02,2.18-.52.44-.65,1.18-.49,1.83.43,2.3,3.18,3.02,5.34,2.86,1.61.07,2.66,1.56,3.71,2.7.96,1.29,2.79,1.68,4.2,2.35,1.61.76,3.45,1.96,5.38,1.48,1.13-.24,2.24-.22,3.36.11,2.84.66,3.02-.94,1.83-3.04-.57-1.14-1.8-1.83-2.68-2.81-.4-.4-.83-.81-1.39-.94-1.59-.18-3,.24-4.64-.32-1.51-.39-3.3-.96-4.09-2.46-.64-1.2-.44-2.88-1.42-3.87-.53-.61-1.42-.94-1.98-.17l-.1.11ZM1352.88,489.76c1.01.18,2.34-.75,2.64-1.69.25-.64.45-1.44,1.19-1.62.7-.2,1.44,0,2.14.17,1.37.41,2.73.07,4.04.02,1.93.26,3.86.11,5.83.1,2.23.21,4.94,1.33,7.18.54,1.83-.97,1.28-3.64,1.72-5.34.24-.61.78-.91,1.19-1.36.81-.76.41-1.62-.25-3.04-1.55-3.1-1.61-4.79-5.17-2.95-1.8,1.08-4.45.9-5.76,2.54-.42.58-.79,1.26-1.44,1.59-1.43.69-4.29-.05-5.17,1.7-.32.53-.55,1.18-1.18,1.4-1.61.42-3.62-.43-5.23.2-2.86.81-3.17,5.59-1.82,7.69l.11.06ZM1579.33,371.71c.15,1.42-.11,3.45.53,4.78.69,1.26,2.15,2.28,1.9,3.88-.24,2.43-.75,4.58-1.15,7.12-.27,1.27.46,2.2,1.12,3.19,1.49,2.25,2.97,4.45,4.26,6.64.34.56.73,1.17,1.37,1.39,1.23.29,3.43.39,4.64.3.88-.16,1.28-.92,1.81-1.58,1.84-2.33,5.37-2.94,7.82-4.14.9-.55,1.91-1.35,2.68-1.99.96-.82,1.09-1.8,1.44-3.03.59-1.68.26-2.4-1.18-3.34-1.14-.84-2.13-1.62-3.19-2-2.18-1.11-4.58-1.07-6.81-1.87-.79-.47-1.44-1.35-2.09-2.03-1.78-1.97-3.12-3.42-4.61-5.35-.93-1.11-1.4-3.03-2.89-3.6-1.53-.42-4.01-1.38-5.34-1.41-.75.39-.27,2.09-.32,2.88v.17ZM1620.99,423.71c1.36,1.61,1.75,3.69,3.54,5.07,3.31,3.67,8.68,2.67,13.25,3.25,1.3.27,2.86,1.26,4,2.46.84,1.17,2.14,1.72,3.53,1.17,3.54-.93,6.71,1.28,10.23,2.05,1.56.49,3.13.49,4.73.74,1.65.19,3.59,1.05,5.16.64,1.1-.28,2.11-.87,3.29-.69,1.32.18,2.75.83,4.02.99,1.92.34,4.71-.39,5.67,1.96,3.05,6.31,9.12,9.99,16.06,10.29,1.37.22,2.36.72,3.59,1,2.34.52,5.18.07,6.87-1.54,1.22-1.34-.21-3.58-1.65-4.36-1.99-1.01-4.7-.36-6.34-2.04-4.09-3.95-9.29-6.75-14.05-9.69-3.28-1.95-3.01-5.29-3.34-8.49-.71-2.38-1.56-4.15-2.82-6.39-.56-.96-1.07-2.24-2.36-2.2-1.19.04-2.51.36-3.71.53-2.21.33-6.37.75-5.85,3.87,1.75,3.33,7.07,3,8.62,6.54.75,1.34-.67,2.26-1.93,2.37-1.11.16-2.01-.26-3.12-.15-.88.06-1.62.42-2.48.58-2.8.29-5.56-.29-8.37-.38-1.92-.28-4.12-.91-5.94-1.6-1.08-.48-2.17-1.59-3.18-2.32-1.71-1.17-4-1.78-5.97-2.64-4.04-1.57-8.48-2.61-12.86-2.73-2.8-.27-6.58.43-9.11.64-.92.19-.32.29.41.95l.12.11Z" style="fill:#85b66f; fill-rule:evenodd; opacity:.7; stroke-width:0px;"/></g></g></svg>