<?xml version="1.0" encoding="UTF-8"?><svg id="b" xmlns="http://www.w3.org/2000/svg" viewBox="0 0 1920 1080"><g id="c"><g id="i"><path d="M589.34,478.69c.03-.14.04-.62.06-1.11.03-.49,0-.68.32-.63.42.07,1.61.22,2.02.35.53.26,1.62.56,2.04.92.27.6,1.09,2.17,1.23,2.8-.23.39-.68.79-1.08,1.26-.45.52-.45.5-.88.41-.66-.17-3.04-.5-3.61-.76-.23-.39-.66-1.18-.74-1.62,0-.28.46-1.08.61-1.52l.02-.09ZM597.05,444.97c-.49.21-1.79.84-2.25,1.19-.25.33-1.18,1.15-1.27,1.55.08.27.93,1.87,1.3,2.63.26.64.43.43,1.41.61.96.1,1.8.33,2.58.31.2-.18,1.33-2.23,1.44-2.49.02-.36-.53-.91-.72-1.26-.32-.55-.82-.63-1.36-.95-.5-.18-.87-1.35-1.08-1.56l-.06-.03ZM777.23,424.2c.1.13-.41,2.73.11,2.51.32-.01,1.21-.14,1.84-.21,1.14-.08,1.47-.48,2.47-.94.89-.37,1.28-.98,1.83-1.61.14-.18.17-.3.1-.46-.14-.29-.62-1.01-.98-1.6-.44-.73-.49-.96-1.43-.95-1.43-.17-3.39-.04-4.82.06-.43.11.05.62.27,1.44.18.52.49,1.27.6,1.67v.09ZM754.51,453.9c-.02.12-1.41,1.97-1.1,2.16.13.27.48.93.75,1.44.35.63.3.75.72.69l2.48-.19c.56-.04.51,0,.7-.47.28-.68.94-2.3,1.25-3.08.16-.51.43-1.86.45-2.23-.06-.29-.97-.53-1.19-.65-.31-.19-3.28,1.89-4.01,2.28l-.04.05ZM805.05,448.87c-.58.79-1.33,2.56-1.92,3.61-.36.82-1.03,1.53-.61,2.16.39.67.6,1.77,1.31,2.1.63.14,1.95.48,2.75.39.57-.22,1.67-1.26,2.13-1.71.93-1.16.94-1.41,2.27-.27.62.48,1.01.81.99.68-.13-.39-1.82-3.97-2.7-5.91-.45-.95-.51-1.26-.95-1.65-.77-.71-2.33.26-3.18.52l-.08.06ZM867.91,426.78c-.27.65-.64,2.14-.27,2.63.14.22.47.41.7.56,1.51,1.06,2.95,1.19,4.56,1.95.75.64,1.87,1.71,1.5,2.85-.36,1.74-1.24,3.56-1.37,5.25.46,1.64,2,2.2,3.22.99.57-.69.22-2.25.24-3.18,0-1.15-.67-3.13.22-4.08.57-.87,1.88-1.95,1.49-3.09-1.01-1.84-3.29-3.35-5.02-4.45-.77-.21-1.9.07-3.28.16-.62.1-1.56.04-1.93.34l-.07.08ZM920.24,435.05c-.38.27-.66.64-1.02,1.04-.48.55-.5.85-.01,1.31.86.81,1.58,1.62,2.63,2.13,1.45.62,2.24,1.48,3.51,2.36.49.22.93-.18,1.34-.42.76-.5,1.47.07,1.98.65.56.56.88,1.67,1.65,2.03.69.18,1.91.36,2.29-.06.53-.86.96-1.89-.03-2.45-1.49-1.24-3.51-2.42-4.79-3.76-.45-.6-.32-1.78-.93-2.36-1.99-1.39-4.21-.96-6.51-.54l-.12.07ZM945.26,474.1c-.21.22-1.53.83-1.51,1.39l-.29,1.45c-.11.61-.22.76.04.95.28.22,1.09.81,1.48,1.1.4.31.37.21.95-.03.77-.36,2.22-.99,2.98-1.36.37-.73.59-2.54.8-3.21.16-.47-.43-.77-.68-1.07-.22-.28-3.06.64-3.69.75l-.07.04ZM955.05,507.82c-.4.26-1.1.79-1.56,1.12-.17.17-.55.3-.6.54.22.16,2.12,1.14,2.88,1.56.38.2.43.13,1.18.15.63,0,1.4.02,1.6-.01.17-.03.16-.16.21-.49.08-.6.23-1.65.3-2.22.17-.62-.2-.57-.62-.73-.4-.11-.92-.36-1.28-.35-.34.05-1.53.28-2.05.4l-.07.03ZM1093.83,580c.09.3.42,1.28.54,1.65.13.37.11.43.37.44l1.2.1c.55.03.63.14.79-.2.15-.27.45-.81.59-1.08.27-.48.13-1.11.2-1.7,0-.45.08-.6-.09-.74-.16-.13-.64-.49-.81-.61-.15-.1-.18-.04-.34.09-.55.46-1.96,1.58-2.45,2v.04ZM1162.11,546.1c-.62.72-1.66,2.17-2.28,2.97-.19.29.74.8.97,1.09.53.42.43.47-.21.58-.24.05-.12.04.16.04h3.74c.34,0,.39.03.61-.24.29-.44.92-.97,1-1.44-.04-.34-.31-1.46-.47-2.02-.25-.38-1.38-.72-1.8-.98-.46-.31-1.26-.07-1.65-.02l-.08.03ZM972.94,394.3c-.64-.53-2.12-2.04-3.1-2.11-.8-.03-2.17-.05-2.59.61-.46.98-1.33,3.06-1.55,4.29.57,1.58,2.81,5.08,4.14,7.63.38.62.54,1.13,1.01,1.61,1.22.99,3.77,1.55,5.26,2.1.92.23,2.01.87,2.9.74.58-.25.85-.81,1.43-1.52.64-.97,1.34-1.31.78-2.08-1.15-1.48-4-4.77-5.27-6.51-.72-1.08-2.12-3.64-2.91-4.65l-.09-.1ZM956.64,330.43c-.56.72-1.53,2.03-2.09,2.77-.18.26-.28.33-.2.38.39.2,2.72,1.62,3.43,1.94.41-.64,1-1.87,1.41-2.6.19-.44.26-1.11.31-1.6-.56-.3-2.18-.68-2.82-.9h-.03Z" style="fill:#987db7; fill-rule:evenodd; opacity:.7; stroke-width:0px;"/></g></g></svg>