<?xml version="1.0" encoding="UTF-8"?><svg id="b" xmlns="http://www.w3.org/2000/svg" viewBox="0 0 1920 1080"><g id="c"><g id="j"><path d="M1093.54,524.73c.37-.22.97-.22,1.39-.51.46-.31.6-.81,1.12-1.03,2.01-.99,2.95,0,4.1,1.67.31.58-.28,1.14-.47,1.72-.19.43-.11.78.02,1.16.3.8.44,1.77.64,2.66.17.67-.25.73-.85.88-1.01.35-2.08-.21-3.06-.43-.9-.23-1.4-.63-2.25-1.07-.47-.25-.69-.39-.93-.76-.61-.93-.8-1.6-.55-2.73.07-.57.29-1.17.7-1.49l.13-.09ZM1107.13,583.43c-1.38,1-4.14,1.89-3.73,4.07.05.78.35,1.63.93,1.93,1.16.76,2.75,1.31,3.62,2.36.39.31,1.07.14,1.96.05.43-.06.93-.05,1.24-.27.5-.51.77-1.58,1.11-2.23.3-.78,1.23-2.08,1.29-2.98.04-.63.17-1.47.04-1.93-.11-.43-.49-1.02-.77-1.41-.59-.65-1.48-.38-2.4-.56-.48-.04-.79-.09-1.2-.08-.63.04-1.44.69-1.95.96l-.13.08ZM1160.69,546.06c-.09.32-.49,1.29-.18,1.69.3.45.81,2.11,1.31,2.26.27.1.89.32,1.26.46.38.14.45.14.79,0,.5-.21,1.6-.65,1.96-.81.21-.1.26-.23.35-.6.06-.57.54-1.15,0-1.42-.8-.44-1.84-1.22-2.64-1.53-.88-.31-1.87-.17-2.79-.09l-.06.05Z" style="fill:#e15989; fill-rule:evenodd; opacity:.7; stroke-width:0px;"/></g></g></svg>