<?xml version="1.0" encoding="UTF-8"?><svg id="b" xmlns="http://www.w3.org/2000/svg" viewBox="0 0 1920 1080"><g id="c"><g id="g"><path d="M1083.74,438.98c3.42-1.94,4.55,1.68,4.68,4.55.11,1.47,1.56,2.03,2.7,2.75,1.15.73,2.68,1.69,3.7,2.42.96.69.82,1.52.99,2.68.08,1.25.45,2.61.26,3.83-.31,1.34-1.91,2.25-3.53,2.77-.69.24-1.51.65-2.2.62-2.24-.31-2.78-3.09-4.1-4.57-1.73-1.83-4.21-2.36-6.57-2.69-3.3-.33-6.66-2.51-4.06-5.98,1.47-1.11,3.83-1.02,5.24-2.39,1.11-.81,1.74-2.99,2.74-3.91l.13-.1ZM1124.9,398.77c-2.83,2.79-1.2,5.51.24,8.36.39.95.78,2.2,1.34,3.02.42.62,1.01.92,1.54,1.39,1.25,1.07,1.52,3.23,2.28,4.52.76,1.2,2.1.04,3.17-.11,1.85-.51,4.44-.06,6.17.33,2.33-.47,6.16-8.74,4.06-10.53-.33-.33-.83-.41-1.31-.3-.73.12-1.2.83-1.79.11-1.31-1.89-2.12-4.55-3.53-6.33-1.61-1.35-3.41-1.53-5.56-1.99-2.29-.56-4.79-.14-6.48,1.41l-.14.13ZM1210.09,458.26c-1.75.4-3.52,1.83-5.36,1.99-1.33.02-2.7.35-3.59,1.41-.99.98.3,2.47,1.04,3.18,1.67,1.1,3.97-.05,5.73.64,1.64.91,2.57,2.93,4.15,3.98,1.37.86,3.18.71,4.68,1.25,1.91.81,4.38.56,6.42.97,2.07.4,2.91-1.62,1.6-3.11-1.31-1.06-2.83-2.91-4.62-3.07-1.41,0-2.84.13-4.19-.43-1.42-.6-3.9-.73-4.36-2.57-.41-.8,0-4.61-1.38-4.28l-.14.03ZM1371.32,475.45c-1.58.18-2.72,1.59-3.67,2.77-1.01,1.51-2.83,1.56-4.5,1.5-1.04-.05-1.66.03-2.23.7-.36.46-.61,1-1.2,1.25-1.2.49-2.59.64-3.82.65-.84-.05-1.75-.02-2.29.46-.79.91-.76,2.38-.95,3.53-.16,1.54-.66,3.31,1.06,4.02,2.32,1.17,1.22-2.67,2.05-3.64,1.01-1.26,2.79.26,4.01.2.85.07,1.56-.19,2.41-.35,1.63-.36,3.41-.11,5.03-.03,2.27-.08,4.37.02,6.58.77,3.12.66,3.33-3.15,4.01-5.19.26-.65.87-1.03,1.34-1.5,1.05-1.23.14-3.66-.89-4.88-.57-.73-.93-1.78-1.47-2.16-.61-.43-1.34-.01-2.14.55-1.18.87-1.92,1.43-3.19,1.36h-.13ZM1436.12,451.74c-.82.09-2.35.75-2.77,1.25-.26.5-.49,1.94-.18,2.64.61.99,2.16.88,3.22.88.73.04,1.17.53,1.78.83.7.43,1.32,0,1.85-.51.39-.41.89-.31,1.42,0,.56.38,1.2.58,1.86.35.63-.21,1.19-.09,1.69.43.6.63,1.42.27,1.71-.42.27-.53-.33-1.11-.32-1.74,0-.35.15-.66.23-.99.15-.43-.49-1.11-.99-1.69-1.29-1.31-3.2-2.41-5.05-2.52-.58,0-.9.52-1.24.92-.7,1-2.17.79-3.08.56h-.14ZM1091.42,462.26c-3.93,1.16,0,4.44-1.05,7.17-.28.97-.76,2.16-1.23,3-.41.62-.97,1.03-1.49,1.47-1.47,1.16-2.38,3.71-2.26,5.66.38,2.73,3,4.68,3.65,7.3,1.99,7.46,1.3,11.16,10.58,12.43,4.59.83,6.85,8.47,8.85,12.32,2.23,4.99,4.66,9.96,6.53,15.2.23,1.2.19,2.54.13,3.77-.2,3.2-2.64,6.1-3,9.31.11,3.13,1.26,6.07,1.56,9.21.34,5.89-3.51,2.31-6.66,2.27-1.37.18-1.99,1.73-3.43,1.89-3.24.6-6.35-1.47-9.23-2.55-2.1-.9-4.09-.61-6.27-.51-2.91-.1-4.75,1.4-7.38,2.01-3.47.46-7.51.22-10.82.18-1.38-.03-2.19,1-3.03,2.17-1.47,1.59-3.53,2.75-5.57,3.39-2.27.81-5.04-1.55-6.99.32-1.24,1.25-1.58,3.28-1.72,5,.55,2.99,2.96,5.24,5.35,6.97,3.03,2.36,8.08,2.16,6.63,7.64-.5,1.34-3.93,6.52-5.41,5.63-.75-.36-1.36-1.42-2.11-1.85-1.78-1.01-3.99,1.02-5.65,2.04-1.54,1-1.79,2.78-1.39,4.51.58,2.55-.22,5.44-2.5,6.81-2.04.76-5.08.12-6.65-1.58-1.38-1.24-2.41-3.08-4.31-3.53-3.51-.77-7.32.82-10.83,1.17-.65.14-1.26.31-1.79.61-1.76,1.13-2.51,2.99-4.82,2.96-3.12.33-9.82,7.57-4.9,9.74,2.33,1.01,5.14-.37,7.01,1.96,1.83,1.56,2.28,3.17,3.43,4.97.69,1.18,2.16,2.79,2.38,4.12.17.83-.06,1.65-.09,2.49-.1,1.76,1.58,3.41,3.36,3.19,1.79-.31,3.51-1.68,5.41-1.11,2.49.58,4.37,2.81,7.09,2.49,4.39.29,5.23,1.52,7.95-2.68,1.17-1.89,3.53-.61,4.35.89.45.75.08,1.64-.37,2.35-1.32,1.72-2.73,3.3-4.24,4.84-1.09,1.19-3.02,1.77-4.37,2.78-1.3,1.01-1.84,2.89-3.31,3.7-1.54.88-3.49.91-5.08,1.73-2.2,1.19-3.41,4.28-2.57,6.69.37,1.25.36,2.81,1.1,3.53,1.53,1.39,4.04.19,5.58-.8,1.71-.93,3.69-.5,5.58-.73,3.74-.15,6.99,1.87,9.51,4.54,1.53,1.69,3.83.91,5.8.75,1.97-.1,4.09.73,6.03,1.2,1.6.48,3.81,1.03,5.43,1.68,2.75,1.56,5.87,4.33,9.4,4.28,2.68.29,5.38,2.24,8.11,1.75,1.22-.33,2.44-1.44,3.54-2.25,1.39-1.15,1.72-2.72,2.16-4.6.16-.74.28-1.47.04-2.2-1.19-2.48-3.68-3.18-6.14-4.36-1.05-.37-1.99-1.16-2.36-2.15-.44-1.31-2.14-1.12-2.6-2.39-.13-.26-.23-.62-.34-.91-.39-1.39-1.94-1.71-1.73-2.56.08-.49.44-.9.5-1.41.1-.82-.46-1.59-.9-2.28-1.39-1.79-2.03-3.86-3.65-5.44-1.25-1.06-3.11-.82-4.65-.9-2.25-.1-5.05-.98-7.07-.82-1.59.12-2.97,1.22-4.58,1.2-2.2-.13-4.17-1.67-4.96-3.74-1.92-3.52-.94-10.32-6.3-10-1.12,0-2.15-.39-2.75-1.38-1.14-1.84-1.27-3.96-1.35-5.92-.34-1.31-1.95-1.6-3.12-2.22-2.1-.92-2.17-3.75-.28-4.77,1.49-.78,2.82-.05,4.58.4,2.53.63,4.43,1.75,6.97,1.72,5.89-1.17,11.94-7.51,18.02-4.01,1.36.82,2.69,1.57,4.33,1.62,1.38.11,2.77-.32,4.15-.1,1.46.2,2.84,1.25,4.14.65,1.94-.92,2.36-2.86,4.17-4.11,1.06-.8,2.2-1.64,3.26-2.44,1.22-.92,2.25-1.66,3.39-2.59.93-.78,2.15-1.71,3.47-1.7,2.11.07,4.42-.24,4.66-2.77,1.26-8.93.37-8.88,9.34-11.42,3.31-1.1,6.24-3.54,9.08-5.59,2.48-1.11,5.26-3.18,8.03-3.09,2.53.88-.35,3.45-1.37,4.58-2.8,2.93-4.3,4.5-7.49,7.33-1.91,1.79-4.25,3.44-6.38,4.96-1.15.83-2.42,1.08-3.17,2.19-2.17,3.72,2.93,3.52,5.14,4.04,4.29.93,8.58.98,12.71,1.87,1.28.24,2.32,1.14,3.3,1.68,1.24.63,2.8.39,4.15.38,4.03,0,8.42.9,11.85-1.89,1.59-.95,3.86-.49,5.68-.11,1.35.26,2.74-.02,4.08-.2,1.95-.18,3.81,1.16,5.73,1.72,2.03.68,3.89,2.34,6.07,2.36,1.99.13,3.56-1.47,5.33-2.1,3.81-1.21,7.71,1.3,11.36,2.18,1.44.23,3.31.58,4.49-.47.78-.78.91-2.11,1.08-3.46.1-.85.09-1.69-.29-2.47-1.87-3.51-7.04-2.07-7.48-7.42-.18-1.12-.07-2.3-.1-3.41-.04-1.25-.72-2.37-1.48-3.6-1.52-2.13-2.23-4.22-3.83-6.12-3.02-2.49-7.73-3.76-8.24-8.18-.51-3.39-.17-6.38-4-7.66-1.88-.98-3.21-1.35-5.22-1.83-1.92-.49-2.98-.73-5.22-.53-3.23.09-6.28.35-9.41,1.44-3,.64-5.6,3.58-8.79,2.91-4.59-1.53-3.62-2.72-1.75-6.48.75-1.88,1.96-3.59,1.77-5.75-.27-2.17-1.04-4.43-1.61-6.59-.4-1.53-2.19-3.25-.79-4.65,1.78-1.6,4.49-1.98,6.38-3.11.65-.35,1.25-.75,1.95-.97,1.58-.4,3.23-.35,4.41-1.67,1.25-1.27,2.47-2.18.55-3.59-2.61-1.91-3.21-5.7-4.39-8.58-.95-3.48-4.11-5.31-7.33-6.24-2.55-.46-5.02.7-7.45,1.23-1.22.35-2.21-.23-2.91-1.21-.59-.83-1.21-1.83-1.81-2.59-.69-1.01-1.9-1.75-2.27-2.95-.44-1.45.63-3.11,1.45-4.32.49-.71,1.08-1.46,1.46-2.23,1.14-2.8-5.2-5.36-7.02-6.66-1.33-.77-2.46.33-3.68.85-1.35.46-2.18-1.15-2.86-2.08-1.95-2.32-1.47-5.09-3.78-6.92-1.12-.89-2.05-1.85-3.61-1.88-1.44-.05-3.29.42-4.26-.93-2.36-2.81-2.25-6.95-3.48-10.36-1.36-2.99-5.24-6.61-8.66-4.78l-.17.07ZM1252.31,542.08c1.15-.79.69-2.7,1.04-3.91.13-1.07.5-2.25,1.71-2.3,3.81-.19.79-4.82-1.46-5.11-1.48-.17-4.06-1.18-5.63-.73-.47.17-1.21.48-1.97.67-.78.15-1.56.46-1.74,1.31-.8,2.37.02,4.92-.33,7.23-.09,1.23-1.56,2.54-1.03,3.77.36.56,1.14.57,1.8.65,1.38.2,2.58-.15,4.02-.62,1.07-.51,2.36-.5,3.44-.86l.14-.08ZM1252.78,555.98c-.42.58-.82,1.41-1.76,1.65-1.33.37-2.92.49-3.91,1.38-.7,1.52.54,3.52,2.04,4.01,1.38.46,2.76.41,4.31.54,1.65.19,3.48-.47,5.09.23.88.33,1.73.12,2.59-.21.84-.24,1.38-.54,1.86-1.24.74-1.24,2.13-2.65,1.25-4-1.19-1.48-2.86-1.7-4.55-2.4-.48-.27-.86-.84-1.3-1.44-.64-.82-1.37-1.49-2.35-1.41-.83.24-2.61,2.2-3.17,2.76l-.1.12ZM1270.91,565.52c-1.08.43-2.66.65-3.91.68-.49,0-.82.03-1.12.33-1.04,1.31-1.42,3.29-1.18,4.96.3,1.81,2.45,2.07,3.44,3.39.84,1.36,2.42,1.79,3.93,1.93,1.01.09,1.99.58,2.84-.11.6-.59,1.41-1.27,1.62-1.96.13-.87-.72-2.44-.66-3.34,0-.68.31-1.44.5-2.05.33-1.29-.28-3.03-1.3-3.87-.66-.45-1.26-1.26-1.8-1.87-.75-.55-1.65,1.66-2.21,1.84l-.13.08ZM1280.46,576.93c-.71.34-1.6.5-1.53,1.15.54,1.88,2.55,3.22,3.52,4.84.64,1.14.57,2.49,1.35,3.59.91,1.39,2.16,3.54,4.07,2.36.73-.41,1.59-.33,2.2.24.88.79,4.4,1.67,4.94.18.81-2.2.06-5.34-2.11-6.38-.81-.3-1.33-1.2-.65-1.89.49-.45,1.49-.56,1.5-1.14-.44-2.09-2.18-2.84-4.18-3.43-1.65-.64-3.17-.7-4.98-.81-1.35-.1-2.77.72-3.98,1.24l-.15.07ZM1496.16,397.01c-.41.17-2.1.7-2.13,1.27-.04.56.11,1.36.15,1.98.07.67.08,1.07.26,1.21,2.2.6,4.55.96,7.05,1.35.73.08,1.49.29,2.09.2.74-.2,1.56-.58,2.47-.9,1.06-.35,1.1-.51.67-1.21-.35-.51-.55-1.28-1.22-1.38-.85-.13-3.82-.45-4.94-.62-.49-.08-.46-.58-.71-.91-.21-.33-.82-.39-1.63-.6-.68-.14-1.37-.39-1.94-.4l-.12.02ZM1504.1,413.42c-.02.17-1.02.38-1.92.61-.92.23-1.68.47-2.48.88-1.04.59-2.81,1.33-3.01,2.12-.17.82.46,1.87.9,2.64.86,1.57,2.24,2.01,4.02,2.28,2.31.54,5.37-.72,7.4.77.92,1.05,1.42,3.25.66,4.61-.37.71-1.04,1.32-1.27,2.1-.26.92.05,1.81.58,2.64,1.55,2.68,4.04,4.33,6.9,5.62,1.74.7,1.73,2.72,3.41,3.48,3.57,1.67,7.79,1.64,11.11-.64,1.44-.85,3.11-1.04,4.62-.31.98.42,1.81,1.12,2.83,1.44,1.93.47,4.88.16,6.88-.79,1.63-.64,4.18-2.72,6.32-2.57,2.05.87,3.61,2.54,5.61,3.44.86.46,1.71.96,2.65,1.21,1.42.38,3.64.19,5.19.71,3.5,1.4,6.62,3.69,10.62,4.58,2.61.36,4.49,2.19,6.86,3.23.96.25,2.28-.06,3.34-.18,2.49-.21,3.64-.83,5.58-.56,1.95.55,3.42,2.31,5.55,2.34,2.45-.03,4.44,1.84,6.1,3.46,1.44,1.17,3.2,1.05,4.25,2.84,2.93,3.49,3.91,8.47,7.77,10.89,1.37.8,3.53-.43,4.96-.23,2.22.42,4.62,2.23,6.9,2.89,4.66,1.79,9.83,2.22,14.42,3.6,2.74.85,5.47,1.76,8.19,2.63.86.26,1.4.37,2.15.14,1.92-.63,3.63-2.02,4.77-3.6.82-.67,1.83.18,2.61.65,2.02,1.43,4.11,1.74,6.45,1.57,1.3-.2,2.82-.97,3.95-1.23,2.07-.46,4.42-.46,6.49-.85,1.72-.31,3.11-.76,1.96-2.49-1.15-2.01-2.37-3.54-2.63-5.8-.21-1.17-.42-2.51-.64-3.71-.57-2.2.05-3.1,1.35-4.51,1.12-1.68,2.98-2.1,4.82-2.56,1.56-.45,2.39-1.02,3.44-.01,1.31,1.23,2.02,3.44,3.86,3.92,1.65.26,3.99.87,5.28-.02.75-.57,2.53-1.32,1.68-2.38-1.1-1.47-5.63-3.59-4.24-5.63.66-.81,2.16-.57,3.2-.57,1.28.11,2.76.2,4.02.42,1.52.22,3.23,1.38,4.71.92,1.08-.37,2.29-.92,3.14-1.66,1.3-1.4.2-2.79-1.23-4.16-.57-.52-1.15-1.17-1.9-1.36-2.3-.3-4.75,2.39-6.13-.79-1.19-1.79-2.5-4.73-4.11-6.62-2.63-2.12-7.45-2.03-9.86-4.31-1.11-1.02-1.65-2.61-1.72-4.12-.18-1.74-.65-2.51-1.46-4.26-1.85-3.95-4.01-7.48-1.1-11.57,1.93-4.1.13-4.79-3.63-4.51-2.73.1-6.78,1.04-9.29,1.47-1.19.24-2.18,1-3.17,1.68-.4.32-.9.6-.98,1.11-.05.4.35.86.91,1.4,1.24,1.2,2.3,2.19,3.53,3.36,1.36,1.15.89,2.25-.06,3.25-.74.82-1.37,1.78-2.3,2.1-1.68.58-3.48-.75-5.08-.94-.97-.18-1.9-.13-2.87-.23-3.46-.99-7.55-1.7-9.8-4.72-1.77-2.53,3.02-3.96,4.57-4.7,2.69-.84,2.38-3.44,2.64-5.74.14-.85.56-1.63.79-2.45.38-2.35-1.28-5.16-3.25-6.62-.94-.79-1.56-1.33-2.68-1.35-2.17.06-5.7.17-8.05.39-2.54.28-3.99.48-6.82.18-4.11.02-7.89-1.99-12.12-1.95-1.67-.05-3.88.36-5.02,1.74-.36.62.16,1.3.65,2.11.64,1.13,1.05,2.21.82,3.4-.67,3.92-4.11,3.03-7,3.87-1.17.41-1.72,1.39-2.97,1.64-2.71.15-5.12-.67-7.88-.89-1.92-.46-4.68-.1-6.32-1.54-1.04-1.2-1.87-2.91-1.4-4.45.14-.86.82-2.12.15-2.82-.93-.85-2.62-.72-3.75-1.26-1.94-.71-3.13-3.44-4.76-4.38-2.25-1.18-5.54.97-8.15.86-1.22-.2-2.78-.64-3.94-1-.7-.25-1.02-.61-1.04-1.27.1-1.8,1.31-4.55,3.62-3.92,1.09.22,2.7.58,3.88.83.92.16,1.89.55,2.68.02.57-.48.96-2.41.02-2.77-.75-.31-1.64.1-2.4.17-.7.09-1.05-.11-.97-.86.03-.71.52-1.62.18-2.3-.36-.64-2.6-.03-4.05-.11-1.3.02-2.48-.61-3.54-1.27-2.42-1.31,2.71-.39,3.59-.41,1.64.12,2.56.83,4.02.97,1.41.11,3.2-.38,3.79-1.76.51-2.77-2.61-5.94-1.33-8.8,1.16-1.97-.23-3.16-2.11-3.67-1.41-.34-4.86-1.05-6.86-1.49-3.92-.94-8.16.5-12.2.35-2.22-.63-4.04-2.2-6.33-2.89-2.24-1-4.61-.94-6.94-1.48-2.07-.53-3.96-2.11-6.09-2.67-1.73-.27-3.71-1.09-5.29-.27-.84.44-2.13,1.25-3.04,1.83-.64.41-.99.72-.86,1.06,2.21,2.39,5.14,3.04,8.23,4.2,2.31.7,4.72,1.95,6.5,3.47,1,1.17-.02,2.79-.28,4.31-.41,2.03-1.9,4.11-2.23,6.05-.07.78.21,1.48.18,2.27,0,.64-.22,1.24-.31,1.72-.23.7.52,1.52,1.21,1.93,2.87,1.41,3.58,5.46,1.82,7.97-.59,1.01-1.53,1.63-2.43,2.29-1.02.75-1.46,1.96-2.17,2.97-1.02,1.79-3.42.98-4.52,2.14-.72.81-.86,2.2-1.19,3.24-.5,1.4-1.73,2.42-2.99,2.88-2,.42-4.23.76-6.27.59-1.18-.16-3.23-.76-4.43-.84-2.31.07-4.48.86-6.35,2.3-1.04.74-2.04,1.69-3.36,1.71-2.13.13-6.97.33-9.58.47-.14.02-.24.03-.09.1.51.23,2.89.52,2.94.77v.04ZM1716.94,455.63c-.33.6-.39,1.4-.49,2.09-.17,1.7-.4,2.76,1.06,3.49,2.12,1.05,3.79,2.32,6.34,2.04.9,0,1.68-.03,2.26.14,1.78.71,3.22,2.57,5.14,3.09,1.64.22,3.61.52,5.18-.08.9-.51,2.43-1.06,3.07-2,.3-.53.38-1.42.49-2.11.1-.75.35-1.89.03-2.35-.41-.64-1.89-1.35-2.67-1.89-.75-.46-1.37-.89-1.86-1.54-.49-.66-.93-1.39-1.82-1.43-1.94-.21-6.14-.52-8.61-.81-1.09-.15-2.71-.98-3.92-.56-1.1.46-3.31.99-4.12,1.8l-.08.12ZM1753.93,462.15c-.29.96-.7,2.57-.54,3.51.3.69,1.37.83,2.03,1.13,1.5.49,2.24,1,3.39,1.85,1.93,1.55,3.79,2.23,5.73,3.7.83.65,1.99,1.63,2.98,2.03.36.12.68.03.98-.23.58-.57,1.36-1.51,1.42-2.24.05-1.9-.29-5.06-.24-7.05-.06-.89,1.04-2.63-.09-3.25-1.12-.49-3.51-1.56-4.82-1.85-.88-.11-2.92-.18-4.08-.25-3.19-.09-5.05-.92-6.69,2.49l-.06.14ZM1715.72,479.59c-.64.43-1.04.91-1.84,1.63-.99.99-1.85,1.43-1.48,2.69.24.93.86,1.94.53,2.9-.34.9-.98,1.96-1.51,3.03-.59,1.41-1.46,1.94-1.23,3.07.35.84,1.35,1.46,2.01,2.11,1.44,1.36,2.83,1.19,4.3,2.25,1.25.81,2.38,2.54,3.58,3.27.59.35,1.81.52,2.7.7.82.17,1.6.29,2.37-.06,1.12-.63,3.09-1.3,4.01-2.29.66-1.16,1.09-3.2,1.54-4.47.17-.59.22-.97.14-1.47-.16-.92-.65-2.83-.92-3.98-.43-2.35-2.31-3.86-3.35-6-.67-1.15-1.48-3.29-2.34-4.26-1.04-.94-2.57-1.23-3.91-.72-1.28.45-3.39.98-4.49,1.52l-.11.07Z" style="fill:#31d59e; fill-rule:evenodd; opacity:.7; stroke-width:0px;"/></g></g></svg>