<?xml version="1.0" encoding="UTF-8"?><svg id="b" xmlns="http://www.w3.org/2000/svg" viewBox="0 0 1920 1080"><g id="c"><g id="d"><path d="M327.05,342.67c.93-.96,2.49-1.12,3.72-1.56,2.13-.66,4.58-1.97,6.43-.27,1.7,1.67,3.3,4.07,6.08,3.68,2.7-.27,6.35-1.9,7.1-4.48.16-.77.29-1.59.66-2.29.43-.9,1.43-1.58,1.76-2.38.32-.82-.16-1.58-.66-2.26-.69-.92-1.33-1.94-1.42-3.11-.13-1.61.67-3.23,1.44-4.87.98-1.77,1.88-3.69,3.73-4.69,1.95-1.08,3.68-1.22,6-1.36,7.07-1.23,2,7.19,6.84,8.73,1.34.37,3.09,0,3.82-1.23.46-.73.7-1.87,1.41-2.36,1.07-.72,2.5-.37,3.63-1.26,2.04-1.2,4.94-2.56,7.34-2.16,1.06.17,2.04.83,3.04,1.14,1.45.58,2.71-.12,4-.97,1-.66,1.78-1.24,2.48-.64.96.99.3,2.61-.03,3.77-.69,2.49,1.92,4.95.79,7.45-.6,1.68-2.79,2.19-3.89,3.54-1.2,1.3-1.59,3.15-2.69,4.52-1.62,1.99-3.9,3.86-3.43,6.69.98,4.58,6.88,5.86,10.92,5.58.86,0,1.91-.04,2.72.22,1.64.59,2.77,2.06,4.4,2.92,2.68,1.27,3.86,3.98,5.14,6.5.39,1.13,1.56,1.39,2.64,1.37.85.06,1.55.43,2.13,1.12.78,1.21,2.5,1.84,3.11,3.08.2.52.19,1.15.19,1.72-.07,1.4.37,2.96.12,4.37-.15.95-.52,1.87-.55,2.83-.2,3.4,3.48,2.71,5.53,4,2.37,2.07-2.1,4-3.53,5.02-1.34.78-2.72,2.16-4.37,1.89-1.47-.32-2.46-1.77-3.79-2.38-3.02-1.6-6.77-2.33-9.96-1.07-1.93.75-4.02,2.3-2.89,4.41.5.98,1.29,1.93,1.38,2.93,0,2.21-2.06,4.12-4.4,3.82-3.15-.13-5.86-1.68-8.75-2.64-1.84-.35-4.81.88-5.46-1.71-.4-2-.16-4.52-2.24-5.64-2.95-1.78-6.24-3.65-8.49-6.41-.75-1.02-1.82-1.99-1.86-3.26,0-.91,1.01-1.6,1.4-2.51,1.19-3.32-5.55-4.36-7.41-6.07-.49-.31-1.41-.88-1.27.11.56,2.47-.32,5.28-1.89,7.24-1.5,1.63-3.66,2.75-5.64,3.79-1.55.82-4.07.99-4.87-.87-.93-2.48,3.36-5.73.66-7.82-1.92-.97-4.35-2.59-6.38-2.59-1.72.04-3.7,1-5.29.03-1.59-1.09-1.65-3.63-2.95-4.96-.79-.9-2.05-1.38-2.86-2.26-1.47-1.55-1.01-3.83,0-5.69.53-1.09,1.45-2.42,1.08-3.62-.51-1.79-3.29-1.76-4.2-3.43-.61-.98-1.18-2.49-.61-3.56l.08-.11ZM301.68,358.83c-.43.09-1.01.74-1.46,1.11-.59.56-1.89,1.54-2.02,1.9-.22.35.66,2.06.91,2.79.17.44.37.78.76,1.03,1.92,1.18,4.43,2.61,6.69,3.44,1.13.56,1.49.48,2.49.12,1.02-.36,2.01-.46,2.37-1.59.31-.83,1.02-1.76.99-2.66-.19-.65-.71-1.89-1.2-2.46-.75-.58-3.13-1.69-4.1-2.24-1.44-.6-3.83-1.34-5.31-1.46l-.12.02ZM294.2,267.24c.01-.27.27-.54.5-.74,1.42-.96,2.54-2.69.87-3.81-1.98-1.17-4.52-.53-6.33.65-2.38,1.74-6.48,4.46-2.15,6.83,1.45.92,3.41.91,4.45,2.39.53.66.78,1.37,1.44,1.79,2.64,1.3,5.82.75,8.3-.82,1.92-1.28,5.36-1.63,6.01-4.37.57-1.64-1.01-3.36-2.65-3.24-1.29.07-2.37,1.08-3.41,1.76-1.3.79-3.48.54-4.93.44-.7-.12-1.84-.1-2.09-.8v-.09ZM320.26,257.54c-.5.73-.57,1.73-.98,2.65-.54,1.5-2.22,2.71-1.75,4.4,1.22,3.15,5.02,2.2,7.49,1.15,3.88-1.99,9.7,2.16,12.36-2.31,1.25-2.4-2.1-4.18-1.41-6.66.14-.98,1.36-1.78,1.03-2.81-1.21-2.21-4.28-1.77-6.19-.64-.71.35-1.4.72-2.18.86-1.14.26-2.47-.11-3.52.29-.73.28-1.17.99-1.77,1.45-.82.69-2.31.58-2.97,1.48l-.09.13ZM388.66,287.19c.21-.33.09-.92.09-1.47-.06-1.81,2.36-2.54,2.85-4.21.53-1.16,2.14-5.39-.44-4.92-1.07.45-2,1.37-3.16,1.58-1.1.28-2.29.27-3.42.5-1.24.3-3.35.27-3.87,1.85-.72,1.91-2.64,3.28-2.54,5.42.22,1.45,2.06,2.07,3.45,2.15.92.05,1.96-.67,2.91-.65,1.31.1,2.93,1.09,4.05-.13l.08-.11ZM398.15,274.81c-.58,1.33-1.36,2.75-2.06,4.04-.29.77-.97,1.85-.85,2.75.06.6.12,1.27.32,1.79.71,2.33,2.86,1.68,4.41.58.46-.3.58-.69.76-1.33.4-.99.12-1.94.73-2.81,1.28-1.38,3.34-1.88,3.25-4.16.52-2.26-2.31-2.02-3.81-2.17-.91-.23-2.06.63-2.65,1.18l-.09.12ZM429.72,257.38c-2.04,1.42.05,3.25.67,4.68.11.4.02.77-.3,1.08-.77.63-1.65,1.28-1.95,2.3-.14.53-.01,1.06-.04,1.42,0,.78-1.47,1.18-1.04,2.13.33.85,1.3.86,2.19.79.95-.02,1.59-.23,1.87-.87.25-.5.43-1.15,1.09-1.21.98-.04,2.22.27,3.09.35.99.11,2.22.47,2.99-.35.48-.6.85-1.4,1.43-1.89.58-.57,1.13-.94.91-1.76-.17-.71-.57-1.35-.73-2.08-.22-1.25-.2-2.59-.75-3.71-.48-1.16-2.3-1.42-3.36-1.77-1.87-.21-4.46-.55-5.92.77l-.14.12ZM410.37,352.97c.93-.26,2.91-.93,2.9-2.08-.01-.45.02-.97.29-1.41,1.03-1.39-.47-2.8-.6-4.32-1.43-4.27,4.35-1.27,5.42.34,1.28,1.02,1.02-1.91.22-2.43-1.61-1.68-4.14-1.71-6.38-1.97-1.86-.15-4.06-2.05-5.72-.48-1.34,1.57,1.43,2.99,1.06,4.62-.07.65-.33,1.53-.5,2.25-.63,2.18.67,5.34,3.2,5.48h.13ZM424.87,366.98c.22.56,3.35-.02,2.79,1.13-.11.11-.25.23-.38.31-1.69.84.17,1.58,1.08,1.93,2.44.65,4.41,2.12,6.82,2.72.99.23,2.09.36,3.03.71,1.1.4,1.86,1.24,2.36,2.26.56,1.07,1.55,2.16,1.61,3.11.04.42-.1.83-.25,1.22-1.29,2.98,1.76,4.27,4.36,4.13,1.64-.04,3.6-.98,5.23-1.41,1.47-.33,2.56-1.82,2.37-3.33-.59-2.08-2.35-4.15-3.69-5.75-1.11-1.36-3.38-1.42-5.1-1.22-.97.09-3.64,1.29-2.07-.59,1.2-1.56,4.63-1.19,4.88-3.49-.02-1.17-.71-2.55-.57-3.66.06-1.26-.82-2.46-2.07-1.45-1.1,1.04-3.14,3.56-4.51,1.89-.25-.39-.44-.85-.71-1.25-1.54-2.33-4.91-1.58-6.55-3.78-.79-1-1.32-2.39-2.2-3.25-.49-.47-1.03-.32-1.31.23-.71,1.61.53,3.43,1.24,4.98.85,1.34.63,2.76-.86,3.36-1.65.8-3.8.28-5.49,1.14l-.02.04ZM454.73,273.61c1.23-.03,5.65-.87,4.1-2.75-1.8-1.14-4.47-.28-6.31.59-1.8,1.04-3.97,1.55-5.13,3.37-.62.73-1.12,1.79-.3,2.56,1.72,1.17,3.55-.8,5.01-1.73,1.07-.62,1.23-1.93,2.47-2l.17-.02ZM461.32,273.48c-1.09.82-2.55,1.58-3.26,2.71-.5.77-.95,1.67-1.61,2.32-1.16,1.09-2.89,2.17-3.1,3.79-.17.99.66,1.88,1.67,1.82,3.67-.64,7.17-3.2,10.95-3.68,1.59-.13,2.35,1.86,3.83,2.3,4.1,1.7,5.93-3.31,2.86-5.81-1.87-1.74-4.33-2.66-6.54-3.57-1.73-.78-3.15-1.57-4.68,0l-.14.11ZM500.18,251.48c-.35,1.16-2.2,1.37-2.72,2.34-.39,1.01-.54,2.35-.38,3.44.13.65.67,1.36,1.07,1.99,1.15,1.84,3.42,2.7,5.07,3.92.7.57,1.67,1.38,2.53,1.5,1.63.2,2.19-1.05,1.71-2.42-.26-1.22.41-2.57-.02-3.81-.35-1.17-2.05-2.71-1.09-3.88.67-.7,1.77-1,2.44-1.72.86-.78.54-1.56-.45-2.06-2.08-.72-4.09-1.84-6.12-2.48-1.98-.33-1.89,1.67-2.03,3.03l-.04.15ZM511.27,250.24c-.08.2-.16.76-.07,1.04.12.28.54.5.78.69,1.03.74,1.9,1.29,3.25,1.12.41-.07,1.1,0,1.43-.21.16-.15.33-.95.38-1.29.02-.29-.32-.53-.55-.74-1.09-.6-2.3-.71-3.54-.78-.63-.05-1.1-.11-1.6.1l-.08.08ZM513.38,269.83c-.22.17-.23.93-.38,1.32-.8,2.08-2.46,3.2-3.94,5.23-.7.9-1.45,1.57-2.36,2.2-1.44,1.16-2.47,2.94-4.32,3.5-1.05.51-1.4,1.47-2.12,2.34-.98.97-2.57,1.86-3.7,2.76-1.34.99-.64,2.26.07,3.48.82,1.38,2.09,1.33,3.65,1.22,1.94,0,3.37-.45,5.34-.96,1.69-.44,4.36.48,3.28,2.62-.67,1.78-3.59,3.55-2.01,5.54,2.55,2.46,6.5.81,9.57.55,2.47-.49,4.35-.4,6.37-1.43,2.51-2.11-.53-6.12-2.61-7.41-2.5-1.74-2.94-4.04-1.34-6.59.94-1.66,2.81-2.74,3.89-4.32.52-1.02.68-2.41.95-3.55.13-.67.15-1.1-.14-1.38-.27-.28-.87-.47-1.66-.75-1-.35-2.27-.79-3.21-1.1-1.26-.46-2.56-.55-3.69-1.36-.78-.56-1.31-1.96-1.59-1.92h-.05ZM522.85,284.3c-.15.27-.5,1.31-.67,1.72-.25.6-.21.61.04,1.22.21.4.24.89.57,1.08.23.06,1.17.09,1.8.14,1.01.1,1.72-.12,2.74-.21.61-.09.75-.02.94-.36.15-.32.7-1.13.75-1.47-.05-.35-.69-1.28-.83-1.52-.27-.31-1.9-.58-2.24-.71-.8-.19-2.35-.05-3.03.06l-.06.04ZM534,281.36c-.24.43-1,1.28-.72,1.93.15.46.26,1.14.47,1.19.29.13,1.14-.62,1.6-.52,1.08.57,1.89,1.75,2.99,1.96.84.25,1.07.16,1.48-.57.23-.36.51-.75.62-.97.22-.53-.66-.77-.93-1.12-.31-.31-.22-.69-.04-1.06.12-.22.3-.38.45-.53.38-.39.24-1.14-.33-1.27-.73-.14-1.95-.59-2.73-.55-1.05.08-2.01.72-2.77,1.42l-.08.09ZM533.67,276.15c-.2.51-1.08,2.36-.98,2.4.05.06.8.15,1.21.23.38.07.36.03.85-.08.82-.19,1.58-.37,2.42-.56.66-.15.83-.1.84-.65-.02-.31.25-1.07,0-1.23-.22-.09-1.16-.37-1.55-.5-.33-.11-.69-.12-1.03-.15-.3-.06-1.52.45-1.72.5l-.04.03ZM537.55,273.15c.8,1.56,2.49,2.2,4.12,2.63,1.24.35,2.47,1.22,3.8,1.16.9-.06,1.43-.3,1.94-1.13.12-.16.18-.3.16-.43-.12-.4-.6-.71-1.01-.8-.71-.15-1.94-.41-2.74-.55-1.25-.2-2.76-.22-3.92-.78-.91-.27-1.76-1.61-2.35-.21v.11ZM538.61,290.16c-3.56,2.15-8.35,3.73-10.04,7.89-.37.74-1.47,1.64-.81,2.35.2.13.57.13.95.04,1.48-.51,2.75-1.41,4.26-1.93,1.11-.28,2.38-.19,3.52-.57.7-.24,1.87-.05,2.56-.34.21-.15-.09-.52-.43-.92-.77-.83-.27-1.62.65-1.92,2.19-.39,3.28-2.09,2.95-4.28-.09-.8-.77-1.36-1.48-1.62-.73-.23-1.44.79-2.01,1.21l-.12.09ZM546.62,281.38c-.23.39-.84.86-.63,1.11,1.12.59,2.41.76,3.68.7,3.14.35,4.56-2.19,7-3.58.37-.26.88-.26,1.03-.67-.04-1.04-2.75-2.19-3.56-1.78-.34.17-.86.63-1.28.93-.8.54-1.53,1.36-2.43,1.63-.89.2-2.06,0-2.9.39-.4.23-.59.78-.82,1.14l-.09.13ZM556.02,270.3c-.22.29-.38,1.09-.75,1.45-.46.56-1.84.65-2.15,1.13.19.47.84.8,1.14,1.12.34.27.94.86,1.3,1.08.42.23,1.03.21,1.49.19.86-.09,2.2-.58,3.1-.13,1.03.17,2.88.46,2.29-.96-.38-1.58-.64-2.82-2.21-3.47-1.35-.63-2.75-1.42-4.1-.5l-.09.09ZM549.72,303.04c-1.08.25-2.14.62-3.28.78-.98.19-1.89.57-1.2,1.41.75,1.01,2.54,1.39,3.18,2.52,2.5,5.02,3.16.64,6.4-.04,1.42-.2,2.69-.87,3.89-1.59,1.46-.59,1.34-1.91.89-3.22-.77-2.06.8-2.73,2.43-3.33,2.23-1.21,4.25-1.76,6.78-2.38,1.22-.55,1.93-1.49,3.19-2,.48-.23,1.22-.51,1.25-1.08-.1-.61-1.04-1.09-1.62-1.45-3.21-2.05-6.74-.56-10.07.31-1.19.44-2.58.35-3.8.25-1.45-.03-3.13.42-4.48.74-1.64.38-2.84,2.11-1.55,3.46,1.04,1.02,2.85.61,4.14,1.09,1,.37.32,1.17-.25,2.12-.95,2.56-3.57,2.09-5.73,2.36l-.17.03ZM587.01,287.64c-2.48,1.06-2.09,3.89-.63,5.77,1.93,2.21,4.85.9,7.43.96,3.9.07,7.21-.31,10.82-1.48,2.98-.17,5.88-.66,8.78-1.51,1.41-.46,2.66.29,4.01.27,2.18-.27,4.09-1.76,6.38-1.59,2.07-.18,5.76.88,6.71-1.5.3-1.31-.62-2.43-1.7-3.12-2.34-1.47-6.17-1.17-8.48-1.77-.99-.15-1.94-.37-2.86-.35-1.33-.06-2.57.54-3.85.56-1.41-.04-2.45-1.28-3.83-1.48-1.17-.24-2.44.57-3.54.91-.91.31-1.91.21-2.86.37-2.85.58-4.57,3.53-7.25,4.59-1.78.65-3.83.65-5.58-.07-1.2-.44-2.37-.99-3.4-.61l-.16.06ZM480.08,311.23c-1.74,1.09-3.56,2.33-3.5,4.61-.19,1.18-.27,2.34-.88,2.57-1.01.26-2.41-.85-3.38-1.27-1.29-.72-2.91-.78-4.54-.48-1.71.21-3.73,1.79-3.75,3.68.11,1.12,1.53,1.82,1.88,2.92.1.26.16.56.2.84-.01,2.03,1.77,3.27,3.7,3.21,2.5-.06,5.22.14,7.43,1.31,1.22.56,2.29.88,3.12,1.87.61.72,1.03,1.62,1.85,2.13,1.93,1.13,4.75.97,5.87,3.27,1.29,2.11,3.37,5.23,6.11,4.84,1.08-.39,1.29-1.84,1.6-2.86.45-1.82.96-3.62,2.68-4.7,2.4-1.43,5.11-2.49,7.74-3.46,1.7-.73,2.18-2.54,2.95-4.06.58-1.35,1.72-2.27,3.01-2.91,2.27-1.29,5.58-2.48,5.65-5.43-.1-.64-.94-1.03-1.75-1.3-1.72-.32-2.71-1.86-2.96-3.52-.43-1.97.68-4.72-1.07-6.12-2.41-1.3-4.73,1.12-7.25,1.25-5.23.74-10.71-1.1-15.8.87-2.85,1.34-6.31.64-8.79,2.64l-.15.1ZM522.51,326.84c.73-.01,1.49.76,2.31,1.15,1.43.6,3.47-.1,1.75-1.69-1.25-.87-3.29-1.07-3.7-2.85-.22-.45-.44-1.06-.88-1.28-.47-.22-1.29-.13-1.75.18-.54.27-.62,1.11-1.04,1.41-.58.35-1.65-.06-1.44.99.29.94,1.44,1.47,2.4,2.05.66.49,1.59.25,2.23.05h.13ZM529.01,319.31c-.33.19-.72.28-.86.71-.11.31-.24.64-.05.73.17.1.68.17.97.23.35.08.61-.03,1.04-.18.59-.27,1.39-.32,1.89-.54.88-.94,1.89-1.94,2.29-3.15.17-.78-.62-1.39-1.23-1.75-.99-.64-2.23.09-2.67,1.04-.31.94-.82,1.98-1.29,2.82l-.1.09ZM541.67,316.84c-1.05.92-2.71,1.26-3.24,2.68-.36.66-.84,1.18-1.66,1.34-1.29.17-2.4.54-3.18,1.68-4.12,4.5,1.18,7.86,5.68,6.54,1.6-.38,3.13-.6,4.42-1.51,1.19-.92,1.47-2.59,2.58-3.56,1.31-1.19,1.75-3.33,3.42-4.07.75-.39,1.7-.77,2.4-1.22.84-.52.83-1.27.04-1.72-.79-.55-2.3-.17-3.09-.62-.48-.26-.7-.81-.98-1.25-.62-.94-1.66-.61-2.93-.27-1.42.34-2.46.97-3.33,1.86l-.13.12ZM553.74,325c-1.06,1.23-2.01,2.87-1.44,4.53.35,1.85.25,4.14-1.79,4.87-2.28.53-3.71,2.14-3.54,4.54.03.98.52,2.02,1.37,2.47,1.31.45,2.59-.67,3.8-1.21,1.24-.86,3.34-.49,4.31-1.84.18-.23.37-.54.53-.8,1.33-2.38,3.91-3.4,4.68-6.12.5-1.06.49-2.48.71-3.7.18-1.12.71-2.05,0-2.92-1.11-1.44-3.14-1.51-4.87-1.52-1.31-.06-2.72.73-3.66,1.59l-.12.12ZM476.13,407.97c-.9.52-1.78,1.36-2.08,2.45-.17.68.04,1.38.09,2.06.15.89-.38,1.82.23,2.57,1.49,1.54,3.68.3,5.24-.66.92-.49,1.91-.72,2.62-1.39.92-.97,1.15-2.4,2.18-3.27,1.12-1.07,2.76-1.34,3.98-2.29,1.57-1.31,2.95-2.74,4.61-3.95,1.38-.92,3.06-1,4.65-1.36,1.85-.38,3.47-4.28,1.35-5.21-.96-.37-2,.6-2.95,1.38-.79.68-1.56,1.27-2.54,1.69-1.61.75-3.33.24-5.01.85-1.38.48-3.03.56-4.19,1.54-.73.64-1.24,1.52-2.05,2.07-.65.5-1.48.73-2.26.89-1.76.23-2.38,1.69-3.73,2.54l-.14.09ZM513.23,405.9c.9.09,2.1,1.22,2.89.83.7-.7.51-2.04,1.1-2.96,1.1-1.82,2.85-3.08,4.4-4.42,1.78-1.16,3.56-2.31,5.38-3.34,1.09-.54,2.54-.79,3.6-1.55,1.26-.74,1.49-2.38,2.48-3.17,2.54-1.58,8.36-3.05,6.23-7.04-1.34-1.51-3.44-.61-5.21-.45-1.91.2-3.94.38-5.66,1.27-1.43.84-1.76,2.67-3.16,3.59-1.24.89-1.57,2.43-2.84,3.25-1.99,1.11-3.94,2.57-6.03,3.43-.72.19-1.5.14-2.22.36-1,.26-1.65,1.32-1.17,2.06,1.18,1.6.44,1.85-.98,2.76-2.61,1.66-1.51,4.52,1.04,5.31l.14.05ZM503.71,432.08c-1.02,3-6.14,3.89-4.77,7.87.57,3.05,2.83,5.86,5.74,6.82,3.08,1.09,5.26-1.62,7.55-3.22,2.25-1.43,4.51-4.7,7.53-3.71,2.09.58,2.54,3.19,2.72,5.16.19,2.61,1.14,5.9,3.46,7.27,1.83,1.16,3.02-.59,4.59-1.56.72-.47,1.57-.81,2.27-1.31,1.71-1.23.18-3.48.64-5.06,1.71-3.16.4-8.28,4.42-9.78,3.83-1.69,7.41-1,11.22-.41,3.38-.21,7.77-1.82,10.79.66,4.95,4.91-.81,16.5-1.4,22.74-.15,1.64.47,3.5.45,5.12-.02,1.77-.67,3.14.74,4.27,6.93,5.28,13.71,9.59,22.27,5.7,2.22-.12,2.54-1.37,2.44-3.32.14-1.24,1.76-2.26,2.1-3.71.86-2.12-1.44-4.41-.27-6.28.54-.74,1.7-.37,2.3-.94,1.37-2.75-7.7-5.85-3.18-7.95,7.58-4.06,7.06,4.87,13.29.28,2.73-2.64,7.66-4.9,11.06-2.3,2.87,3.8,8.19,8.12,6.04,13.3-.53.55-1.37.39-2.39.1-1.45-.41-3.02-.46-4.39.22-2.68,1.36-4.63,3.82-6.39,6.45-.91,1.38-2.23,2.62-2.04,4.08.06,1.92,1.92,3.02,3.71,3.1,4.52.42,9.24-.81,13.81-.61,2.29.11,5.45-.38,6.34-2.86.36-.95.64-2.09,1.53-2.68,1.69-1.13,4.31-.98,6.08-1.65,1.79-.6.77-1.95.08-2.95-.92-1.17-.07-3.01,1.39-2.7.55.07,1.05.51,1.51,1.12.85,1.33,2.09,2.22,3.62,1.98,6.28-.04,3.33-9.27,9.65-6.83,2.76.93,6.99,2.28,5.57,6.04-.14,1.43-.63,2.7-.46,3.88.06.22.17.37.36.46,1.51.34,2.91-1.13,4.47-1.23,2-.22,4.46.69,6.54-.09,2.38-.84,3.47-3.12,5.09-5.08,2.9-3.49.43-4.87-3.37-4.81-2.76.09-1.61-3-2.42-5.15-.66-1.95-2.18-3.7-2.57-5.72-.35-2.84,3.2-2.17,4.11-.31,1.23,2.83,4.25,3.97,7.11,4.38,1.62.13,3.62-.43,5.25.26,2.25,1.2,4.41,3.13,7.01,3.51,2.04.58,4.59-1.24,2.71-3.12-.58-1.61-7.27-1.22-5.44-3.28,4.33-3.63.68-6.79,4.87-8.66,2.13-1.15,3.95.46,6.02.23,1.45-.5,2.22-2.39,3.85-2.53,2.72-.37,4.43,3.27,6.74,3.12,1.77-.18,2.53-2.2,3.8-3.19,2.31-1.73,6.54,3.65,7.6-.57.63-2.28-.75-4.67-.74-6.91-.13-1.15.66-2.21,1.85-2,2.12.25,3.23,2.58,4.84,3.82,7.3,2.78,10.1,9.34,13.35,15.78.71,1.73,3.18,3.23,1.18,5.04-1.9,1.96.98,3.56,2.91,4.26,1.96.48,3.67,1.45,2.65,3.79-1.95,4.13-1.36,7.17,2.93,9.06,3.86,2.19,8.64,1.26,12.25-1.07,4.6-2.13,9.54-3.71,14.61-4.26,6.71-.83,5.74,6.35,4.84,10.75-.18,2.25,1.93,4.61,4.26,4.12,1.49-.4,2.77-1.47,4.35-1.62,6.7.69,10.07,2.63,12.8-5.29,5.66-6.98-2.36-5.44.34-10.81,2.41-2.81,6.63-2.8,9.45-5.15.92-.72,1.65-1.73,2.89-1.83,2.94.45,5.65,1.25,8.78,1.16,4.12.11,8.38,2.5,12.14.02,3.75-1.1,8.23-13.04,11.88-8.69.78,1.7.8,4.11,2.94,4.71,3.21,2.12,8.59-2.23,9.23.28-.55,2.67-7.53,3.55-8.96,5.49-1.11,1.19-1.52,3.17-3.33,4.08-.37.23-.79.46-1.07.75-2.13,3.75,8.42,3.32,3.31,12.31-2.81,5.68,3.32,5.73,7.04,4.48,3.02-1.42.87-5.44,1.28-7.89.19-2.49-.98-4.7-1.87-6.92-1.42-4.37,3.76-5.81,7.1-5.41,4.58,2.15,3.53,7.44,11.3,5.39,2.29-.93,4.36-2.69,5.75-4.92,1.05-2.03,2.4-2.45,4.34-1.17,4.9,3.62,4.13-.81,8.01-.82,6.1.78,4.36-3.98,7.76-3.48,5.33,1.15-4.24,4.19,7.32,7.69,1.18.34,1.61,1.55,2.21,2.52.99,1.67,2.86,2.9,4.43,4.02,3.12,1.82,6.47,3.37,9.06,5.68,1.45,2.27,2.14,5.98.82,8.31-1.81,3.02-5.41,2-8.25,1.8-8.1.96-13.72-2.93-19.1-8.33-1.58-.87-3.86-1.02-5.3-1.97-.87-.67-3.01-2.13-3.07-.07-.06,1.5,1.04,2.83.98,4.25-.52,2.62-2.21,5.19-3.6,7.52-1.2,1.53-3.76,1.99-4.95,3.67-3.65,5.4,3.57,4.73,6.89,4.4,6.41-1.21,14.36,2.24,19.64-2.95,1.38-2.13,9.19-3.74,9.82-.83-.72,2.32-4.64,3.9-3.75,6.69.85,2.3-2.92,3.27-2.58,5.77.07,5.14-2.97,8.75.05,13.6.48,1.14.66,2.48,1.54,3.23.66.59,1.62.76,2.5,1.1,1.4.53,2.64,1.34,4.13,1,2.07-.25,4.02-.67,5.52-2.17.87-.71,1.99-.98,3.06-1.24,1.8-.42,2.76-1.34,4.39-1.76,3.39-.62,8.98-.6,9.8,3.65.22.5.49.46.9.09,1.91-2.31,5.47-2.17,8.42-1.54,1.99.52,6.07,3.37,6.62-.1,0-1.3-2.22-2.37-2.28-3.48.72-3.06,6.15-1.31,6.35,1.31.49,1.15-.92,3.27.55,3.77,3.75.08,8.43-.01,12.07,1.32,8.51,3.47,9.22,17.78-1.71,17.94-4.08,1.14-8.14-.47-12.12-1.06-6.23.84-5.05-.62-6.63-4.52-.85-.83-2.17.02-3.22-.27-1.21-.04-2.55-1.93-3.71-1.18-1.38,1.02-.78,3.18-.96,4.66.03,2.27-.73,4.68.37,6.68,1.45,2.65,5.48,4.52,8.32,3.07.85-.33,2.55-1.8,3.05-.63.19,1.38,1.29,3.29,2.35,4.5,1.18,1.61,2.48,4.8,4.87,4.1,3.52.95,3.46-.37,4.32-3.06,1.26-4.3,5.62-3.13,4.54,1.36-.1.49-.63.97-.37,1.42.73.61,2.35,1.11,2.36,2.35-.09.9-2.31-.12-4.09.09-1.4-.03-2.72,1.1-.79,1.82,1.45.54,3.39.14,5.13.18.83,0,1.68-.21,2.29-.78,1.58-1.68,1.29-4.89,3.51-6.01,3.59-1.51,4.14,2.43,4.75,4.92.56,1.23,1.93,2.34,1.59,3.22-1.46,1.72-4.6,1.48-6.67,1.47-2.2-.29-7.91-2.28-9.16.27.94,1.95,4.51.64,5.91,1.73.59.55.65,2.01,1.89,2.53,3.83,1,5.02.02,4.67,4.94-.1,2.4,2.45,3.96,3.58,5.4.52.88.18,1.98-.12,2.91-1.41,2.94,1.39,4.64,3.2,6.56,3.41,5.69,7.65-4.01,10.09-6.35,1.49-2.1-1.25-5.48,1.05-6.97,1.19-.41,3.56,1.02,4.98,1.62,1.88,1.31,2.15,4.07,4.22,5.21,12.05,7.56,3.74-5.94,1.73-10.51-.98-2.6-4.98-4.17-3.44-7.39.62-5.58,3.42-3.56,5.72-6.92,1.97-5.16,12.3-7.64,15.31-2.26,1.67,3.92-1.89,8.96.79,12.49,1.64,1.25,4.23.95,6.11,1.83,1.42.39,3.19.97,3.76-.36.27-.9-.91-2.46-1.2-3.66-.53-2.34-.05-5.06-1.49-7-2.24-4.12-6.28-8.2-5.54-13.15.46-2.56,3.32-2.71,5.03-1.08,2.6,2.05,3.23,5.38,5.06,8.02,1.28,1.9,2.97,3.52,4.49,5.2,1.28,1.47,1.62,3.74,3.32,3.96.71.11,1.46.13,2.17.26,1.6.02,2.94,2.3,3.77,2.67,4.15-1.67,4.24-11.93-.95-13.16-2.87-.66-5.89.05-8.56-1.6-2.12-1.4-3.92-3.5-4.89-5.98-1.08-2.72.22-5.98-.65-8.73-1.29-3.01-4.54-5.07-4.7-8.64-.34-4.6,3.76-8.93,7.49-11.23,2.53-.97,4.56,1.2,6.04,2.95,1.78,2.27,4.75,2.12,7.36,2.64,3.3,2.02,8.37,4.93,8.6,9.26.03,2.23-2.92,3.64-3.21,5.53-.18,1.52.97,2.53,1.89,3.75,1.61,2.22,3.13,4.51,4.78,6.61,4.21,6.34-2.55,10.08,8.78,10.33,7.25,1.85,14.59-5.28,21.35-.68,1.44.89,2.73,1.92,4.5,2.18,3.34.77,6.01-2.33,9.42-1.61,2.61.63,4.63-.75,6.84-1.82,2.66-.68,5.45-1.53,6.36-4.49,1.01-3.44-1.93-7.14.2-10.49.56-1.13.69-2.37.72-3.63.12-1.98.78-3.46,2.82-2.16,1.6,1.13,3.4,2.55,4.87,3.63,2.37,1.66,5.19-1.55,7.35-2.28,2.13-1.06,6.2-2.16,5.34-5.35-.79-2.87-3.82-4.27-6-5.89-2.49-2.57-5.37-4.5-8.77-5.54-3.54-1.42-5.95-10.29-3.84-13.26,1.22-2.03,3.08-4.05,3.09-6.6.19-3.48-3.87-6.17-7.04-5.32-2.48,1.27-5.12,2.82-7.63,4.34-1.57,1.26-2.38,2.86-4.47,2.72-3.19-.06-5.91-1.28-8.88-2-2.18-1.62-4.89-2.36-6.97-4.07-3.85-5.09-8.25-12.59-4.47-18.87,1.53-2.41.34-6.2,2.12-8.31,2.52-2.22,6.48,2.22,7.88,3.91.83.88,1.99,3.72,3.43,2.4,5.27-6.77,3.86-12.79-1.64-18.51-1.79-2.82-1.97-6.19-4.23-8.91-2.54-3.44-7-5.59-11.31-4.91-3.05.22-6.51.51-9.28.7-3.2.2-6.74-1.61-10.04-.36-.78.22-1.59.53-2.18,1.07-1.01.81-1.01,2.41-1.98,3.16-1.35.96-4.56,1.02-5.25-.89-.39-1.34.74-3.21.66-4.64-.25-1.94-2.49-2.85-4.26-3.24-2.48-.07-4.9,2.1-6.4,3.63-1,1.16-2.17,2.19-3.3,3.22-1.36,1.44-2.89,3.25-4.91,2.57-1.46-.51-1.99-2.52-3.42-3.12-2.09-.57-1.72-1.95-2.84-3.71-2.05-2.2-5.22-2.93-7.49-4.88-1.09-1.32-2.94-1.44-4.33-1.82-.46-.1-1.08-.57-1.5-.27-.35.67.17,1.86.36,2.55.07.33-.02.45-.19.34-.73-.74-1.42-2.13-2.67-2.08-1.1,0-1.73.97-2.58,1.36-.64.43-1.71.59-1.66,1.02.2.87,1.45,1.08,1.96,1.63-.4.49-2.05-.07-2.53.56-.38,2.87,5.57-.07,3.77,6.08-1.57,2.44-3.89,4.92-5.88,6.9-3.8,2.81-8.29.65-9.6-3.6-2.1-3.66-4.69-6.55-2.85-10.97-.26-2.37-2.42-4.49-3.97-6.24-3.04-2.08-6.5-3.67-7.66-7.52-2.22-3.25-.98-7.67-2.16-11.17-.7-1.37-2.84-2.34-2.83-3.89-.08-1.94,2.01-4.48-.41-5.72-9.68-2.07-5.21-13.43-7.51-20.26-.61-3.11,2.45-5.98.49-8.99-5.02-6.04-.76-6-2.47-12.03-.6-1.79-1.23-3.74-1.96-5.45-.66-1.58-2.1-2.69-2.35-4.53-.21-1.32-.02-2.73-.46-4.01-.14-1.05-1.88-2.25-1.6-3.2,1.61-.76,4.01.98,5.81,1.3,2.45.71,5.11-.38,7.54-.07,4.99.34,10.78,1.8,14.87-1.7,1.9-1.45,2.05-4.9.02-6.32-3.6-1.28-6.65-3.07-9.37-5.85-3.04-2.59-6.75-4.37-9.39-7.26-7.59-11.39-10.6-13.07-22.26-19.72-4.72-2.16-9.08-6.17-14.4-6.28-8.42.06-8.03,10.43-14.77,9.97-.98,0-1.65.77-1.96,1.61-.19.41-.46,1.03-1,.84-.95-.38-2.32-2.37-3.83-2.62-4.3-1.51-6.31.27-6.36,4.37-.19,1.03-.96,1.24-1.77.4-.97-1.01-2.14-1.92-3.61-1.98-1.87,0-3.78.53-5.48-.6-1.85-1.31-4.33-2.33-5.13-4.63-.95-3.35-.59-6.43,2.96-7.94,2.61-1.34,6.32-1.42,9.04-2.39,6.01-1.87-2.12-10.42-2.59-14.34-.72-3.31-4.42-2.82-7.17-3.55-3.98-.54-8.19-1.89-12.36-1.47-3.13.19-5.32,3.38-8.09,4.17-1.17,0-1.79-1.29-2.79-1.72-2.1-1.21-6.42,1.45-6.93-2.19-.2-1.9.59-3.67.43-5.7-.03-.97-.23-1.99.12-2.89.49-1.41,2.27-2.14,2.58-3.63.27-1.76-1.62-3.17-2.26-4.93-1.74-3.76,2.68-5.69,5.54-6.43,2.08-.99,3.22-4.58,4.19-6.49-.47-1.58-3.87-.79-5.28-1.23-3.27-.23-2.81-4.46-3.78-6.79-.25-1.6-.1-3.37-1.21-4.39-.78-.78-1.8-1.34-2.75-1.89-1.65-.84-3.13-3.09-4.78-3.45-2.66.75-4.06,3.86-5.39,6.16-2.34,4.7,3.3,8.14,6.44,10.63,2.72,3.1-1.04,4.92-3.91,4.46-1.93,0-3.44,1.28-4.67,2.84-1.01,1.27-1.99,2.47-1.11,3.32.99.96,3.63,1.66,2.91,3.43-1.15,2.15-4.31,3.6-4.48,6.22-.14,4.31,8.42,8.55,10.05,13.26,1.7,2.42,2.67,5.21,3.93,7.86.84,1.33,3.01,1.71,3.6,3.1.91,2.25-1.38,4.38-2.8,5.97-1.43,1.79-3.53,2.44-5.74,2.23-1.79-.03-2.8,1.4-4.14,2.32-2.6,1.81-6.63.27-9.28,2.12-2.89,2.51-6.51,3.06-10.1,2.01-3.18,0-6.58.19-9.71.04-8.8-.04-8.37,3.9-13.09,9.24-1.42,2.6.62,7.89-3.18,9.05-2.75.74-5.23-.34-7.45-1.81-4.92-4.08-22.4,7.06-19.56-3.78.43-4.73-4.3-5.24-7.84-4.78-2.38.18-5.29-.19-7.39,1.08-1.3.87-2.46,2.13-4.15,2.13-2.1.27-3.37-2.09-5.39-2.31-3.66-.42-9.62,3.11-9.63,6.84,2.47,1.68,6.17.47,7.89,3.67,3.09,3.93,2.37,3.71-1,7.1-1.9,2.85.72,6.53-3.21,8.85-2.57,1.44-5.37,2.75-7.74,4.59-2.15,1.32-4.9,1.54-7.13,2.68-1.95.87-2.95,2.79-4.35,4.25-2.38,2.17-5.74,3.03-9.06,2.65-1.5-.58-1.54-2.31-3.44-1.62-4.05,1.66-12.52,4.26-12.71-2.51-.24-1.28-2.51-.45-3.39-.43-1.27.17-2.39-.18-3.5-.69-2.3-1.21-4.71-1.31-7.23-1.2-2.71.38-2.24-3.56-3.88-2.78-.85.37-.64,1.61-.44,2.61.2.8.25,1.34-.3,1.09-.68-.34-1.23-1.13-1.85-1.6-1.34-1.17-2.92.92-2.16,2.16.44.81,2.42.95,2.69.98-.46.14-1.86.41-2.67.46-2.59.47-4.23-.38-6.43.46-1.62.62-1.3,2.78.33,3.15,4.73-.01,9.58-1.73,14,.78,4.35,2.6,11.59,1.74,14.39,6.48-.08,4.81-10.11,7.78-14.13,7.49-3.99.43-9.84-.8-9.58-5.81.99-4.47-2.61-3.11-5.59-3.26-2.59.26-4.53-1.39-6.89-1.94-5.39-.39-10.38-.15-14.63-4.4-2.21-1.63-4.77-4.03-7.66-4.51-4.65-.35-9.57-.54-14.18.15-3.98.33-5.9,5.27-9.68,5.45-5.1.23-8.24-3.55-12.7-5.32-2.67-1.02-6.16-1.83-9.14-2.76-1.6-.48-2.16-.48-4.11-.22-4.23.61-8.92,1.13-12.49,3.63-2.44,6.9,4.01,8.65,8.78,10.88,2.35,1.61,5.93,2.49,6.04,5.75-.11,1.42-.65,3.33.14,4.55.63.89,1.79,1.16,2.59,1.89,2.48,1.87,1.72,6.34-1.26,7.29-4.82,1.21-9.65-1.52-14.35-1.99-2.4-.26-4.59,1.84-6.79,2.31-1.28.21-2.14-1.19-3.26-1.45-1.02-.17-1.7.32-2.76.92-2.94,2.06-4.48.05-4.78-2.93-1.32-6.22,6.68-5.27,6.43-10.61-1.06-4.93-8.44-8.58-13.02-7.59-6.05,2.61-15.13,7.98-12.36,15.79.54,1.27,2.02.86,3.05.45,1.44-.53,2.99-.29,4.37.28,8.65,3.15,4.6,6.73,6.13,13.42.78,2.57,5,.69,6.05,3.14.74,1.34.15,3.66.93,5.13.12.43.52.84.3,1.27-.19.45-1.25.7-1.77.9-5.52,2.07-11.3,2.05-16.9,2.36-5.28,2.3-9.94,6.49-15.9,7.29-2.01.21-4.11-.74-6.06-1.09-2.16-.32-4.86.58-6.62,1.88-2.28,1.88-3.89,4.24-7.34,4.36-3.25.26-6.65.69-8.36,3.8-1.7,2.37-4.11,4.06-4.93,6.99-1.14,3.9,1.71,8.37,1.26,12.2l-.03.14ZM713.96,273.15c-.5.72-1.42,1.51-2.1,1.98-.76.36-.53,1.36-.44,2.15.2,1.03.08,1.83-.35,2.78-.24.63.05,1.45.19,2.16.1.95.72,1.56,1.55,1.95.74.24,2,.59,2.75.47.29-.19.36-.66.51-1.04.21-.68.61-1.58.67-2.19.04-.87-.48-2.04-.32-2.91.55-1.1,1.01-2.29,1.03-3.59-.05-.68-.08-1.8-.64-2.26-.36-.29-1.04-.64-1.5-.9-1.31-.85-1.06.49-1.31,1.28l-.06.13ZM712.21,288.14c-1.73.75-3.7.57-5.47,1.24-3.74,1.47-3.26,5.29.31,6.8,1.28.8,2.96.36,3.78,1.73.57,1.14,1.07,2.37,1.97,3.28.85.83.68,1.89.92,2.89.4,1.23,2.3,1.56,3.38,1.37,1.2-.27,1.22-1.78,1.44-2.78.4-2.27-1.45-4.69-.88-6.9.43-1.44,2.06-2.37,2.71-3.73.76-1.16.15-2.77-.67-4.01-.61-.88-1.8-1.32-2.78-1.63-1.66-.42-3.07,1.18-4.53,1.67l-.17.07ZM736.22,282.88c-.72.31-3.15,1.6-4.27,2.16-.78.39-1.12.54-1.57,1.13-.46.69-1.51,2.21-.42,2.84.75.44,1.83.85,2.6,1.38.75.48,1.16,1.55,1.87,1.55,1.18-.18,2.56-.54,3.6-1.05.73-.44,1.49-.87,1.95-1.47.9-1.19,1.44-2.72,3.22-3.04.9-.25,1.25-.7,1.54-1.49.22-.57.6-1.26.18-1.8-1.09-1.32-1.95-.71-3.67-.67-1.36.12-3.93.28-4.95.42l-.07.02ZM729.64,296.02c-.82.76-2.11,1.46-2.67,2.44-.8,2.2,1.48,4.41,3.59,4.65,1.57-.02,3.1-.59,4.56-.86,1.22-.19,2.54.75,3.77.57.33-.02.77-.05,1.12-.07,2.2-.04,3.51-.55,3.18-2.69-.1-.94.16-2.47-.73-2.76-.77-.34-2.02-.96-2.69-1.03-.81-.11-1.89.79-2.79.56-.51-.14-1.15-.68-1.71-1.1-.81-.55-1.06-1.38-1.83-1.73-1.36-.17-2.81.99-3.67,1.9l-.13.12ZM722.35,320.61c-.15.86.5,2.08.58,2.76.11.49.26,1.33.41,2.1.09.38.13.8.49.94,2.01.23,3.8-.49,5.78-1.03.72-.28,1.65-.94,2.44-1.34.71-.38,1.52-.45,2.21-.9,1.27-.86,2.53-2.38,2.37-4.03-.08-.22-.38-.14-.57-.13-.58.13-1.4.38-1.75.39-2.61.16-6.18-.02-8.69.31-.78.21-2.86.39-3.22.82l-.05.1ZM771.14,276.46c-1.37,2.02,1.3,5.12,3.4,5.29.87.05,2.04-.35,1.71-1.44-.66-1.65-1.81-3.08.88-3.23.76-.19,1.67-.3,2.28-.75,1.07-.84.82-2.2-.46-2.6-.7-.1-1.18.51-1.58,1-.32.46-.7.67-1.42.79-1.67.42-3.21.41-4.7.84l-.11.09ZM931.52,258.59c-.61.74.07,1.61.61,2.24.37.34.49,1.04.84,1.35.66.38,1.48.42,2.05.94.59.39,1.56,1.13,2.28.79.66-.53.46-1.61.66-2.35.18-.53.42-1.38.26-1.92-.23-.49-.85-1.01-1.46-1.09-.65-.23-1.26.39-1.84.34-.58-.15-1.42-.69-1.78-.7-.34-.02-1.22.16-1.52.32l-.09.08ZM1152.88,396.75c-.3.94-.3,2.24-.74,3.16-.56.98-.57,1.95-.42,3.01.03.69.38,1.09.82,1.56.63.75,1.18,1.18,1.82,1.82.56.53,1.02,1.92,1.8,2.17,1.01.35,3.18.8,2.65-1.05-.52-1.18-1.21-2.55-1.77-3.71-.62-1.16.33-2.44.25-3.72,0-.48-.28-.93-.58-1.42-.64-.86-.35-1.79-.36-2.75-.02-.63-.49-.73-1.06-.97-.42-.17-.8-.28-1.06-.17-.52.27-1,1.44-1.3,1.93l-.06.14ZM1144.11,421.82c-.27.49-1.12,1.47-1.17,2,.03.31.58.89.83,1.27.29.37.77,1.25,1.08,1.54.87.35,2.39.35,3.28.53.5.07.64.12.91-.16.28-.37.99-.91,1-1.42,0-.43-.09-1.74-.13-2.32-.04-.42-.18-.52-.67-.78-1.23-.63-2.5-1.45-3.75-2.01-.38,0-1.1,1.09-1.29,1.26l-.07.09ZM1141.36,426.86c-.24.58.12,1.28-.04,1.91-.1.69-.5,1.18-1.01,1.77-.45.51-1.06,1.03-1.32,1.55-.4.96.6,1.92,1.54,2.07.75.19,1.8.11,2.27.81.53.79.77,1.98,1,2.91.15,1.34,1.36,1.99,2.56,2.47,2.29,1.03,5.57.52,5.49-2.53-.05-1.48-1.78-2.26-2.59-3.18-.48-.62-1.16-1.84-1.6-2.69-.4-.78-.41-1.77-1-2.59-.6-.98-1.94-1.32-2.87-1.87-.64-.51-1.57-1.68-2.36-.76l-.07.12ZM1163.12,432.02c-.93,1.23-1.59,2.92-2,4.42-.05.62.33,1.11.56,1.66.18.45.46.82.91,1.03.94.45,1.87.78,2.69,1.04.91.4,2,.8,2.9.47.14-.08.15-.23.08-.46-.3-.88-.62-1.48-1.16-2.24-.36-.51-.59-1-.83-1.56-.53-.98-.28-1.62-.57-2.46-.43-.88-1.34-3.35-2.48-2.04l-.09.13ZM1220.97,434.74c-.57.37-.91.81-1.21,1.52-.2.53-.42,1.09-.29,1.4.58.71,2.3.98,3.03,1.18.76.19,1.8-.2,2.64-.37.78-.1,1.22.18,1.89.66,1.26.94,2.46,2.11,3.8,2.95,1.1.82,2.57-.79,2.74-1.77.21-2.03-1.03-4.04-2.4-5.49-.9-.92-2.3-1.15-3.51-1.53-1.04-.32-2.07.07-3.14.19-1.11.17-2.41.67-3.39,1.17l-.14.09ZM1237.53,428.48s-.14,1.44-.16,1.74c.09.35.53.77.76,1.17.23.3.23.42.38.37.37-.08.86-.19,1.2-.27.49-.09.44-.33.41-.8l-.05-.91c0-.14-.1-.12-.42-.28-.66-.28-1.55-.71-2.08-1.02h-.02ZM1212.97,448.57c-1.23,1.47,2.25,3.12,2.94,4.31.84.95,1.53,2.32-.12,2.41-1.38.16-3.24.25-4.6.38-.67.06-1.04.21-1.12.63.04,1.62.85,3.83,1.42,5.43,1.06,2.55,4.16,3.53,6.63,4.23.8.19,1.58.23,2.32.51.73.22,1.13.89,1.76.9.48-.06.72-.96,1.38-1.23.39-.17.9-.11,1.43-.14.8,0,1.47-.45,1.6-1.22.18-.85-.64-1.71-1.27-2.45-.79-.93-1.01-1.93-.03-2.55,1.26-.59,3.44-.14,3.68-2.02.16-.7.28-1.45.7-2.06.84-1.2,2.57-3.32,3.31-2.31.57.73.91,2.02,1.91,2.25,1.92.04,1.47-2.06.81-3.21-1.1-2.89-3.35-4.32-6.39-4.43-3.69-.92-3.63-1.04-6.12,1.81-1.98,1.91-2.11-.87-3.26-1.88-.47-.39-1.23-.41-2.09-.37-1.64.26-3.42,0-4.82.9l-.11.09ZM1045.19,600.24c-1.14.75-1.38,2.64-.26,3.52.9.85,2.52.91,3.33,1.7.55.49.73,1.18.74,1.94-1,8.12,7.34,3.65,8.47,12.26.16,2.09-2.2,2.45-3.74,3.44-.85.53-1.28,1.43-1.76,2.25-1.34,2.86-4.57,4.54-6.69,6.7-1.25,1.35-2.27,3.25-4.26,3.51-1.32.18-2.69.04-3.97.49-1.73.52-2.51,2.32-2.69,3.99-.78,2.85.91,6.68,4.02,6.78,1.24-.05,2.11-.95,3.36-1.31,1.91-.45,3.95-.15,5.87-.68,2.34-.3,5.15.27,6.93,1.63,1.53,1.13,2.5,2.91,4.41,3.48,2.47.86,5.32.51,7.86.84,4.27.19,8.02,2.91,11.6,4.37,5.36,1.53,11.47,5.78,16.7,1.72,1.51-1.1,1.98-2.84,2.48-4.72.63-1.7-.07-3.56-1.63-4.51-1.38-.99-3.03-.58-4.37-1.52-1.22-.73-1.72-2.2-2.52-3.27-.5-.63-1.29-.86-1.97-1.24-.89-.43-1.36-1.57-2.07-2.45-.83-.9-.7-1.95-.46-3.05.22-1.3-.99-3.23-1.51-4.79-.5-1.32-.69-2.94-1.82-3.87-4.14-1.91-9.07.27-13.21-1.79-2.05-1.11-2.51-3.67-4.53-4.93-4-2.8-4.27-4.98-1.02-8.45,3.31-3.22,4.67-.34,7.98.65,1.46.49,3.18.32,4.75.49,1.37.16,2.41,1,3.43,1.88,2.15,2.03,5.27,2.64,7.96,3.8,3.67,1.51,8.13,1.2,10.98,4.4,1.81,2.13,4.24,3.8,5.5,6.5.79,1.55,1.46,3.32,3.01,4.22,2.32,1.35,5.15.73,7.7,1.17,2.51.27,5.22,1.77,7.74.95,2.39-1.01,4.98-3.54,4.48-6.32-.82-2.68-2.49-5.55-4.38-7.5-2.06-1.68-4.17-2.69-6.67-3.28-1.92-.54-3.51-.95-4.88-1.69-1.79-1.12-4.13-1.7-5.09-3.53-.58-1.32.31-3,.1-4.39-.65-3.06,3.02-3.63,5.31-3.8,8.37-.15,6.08-5.61,11.77-7.91,1.41-.65.92-2.28.45-3.42-.64-1.69-.05-3.07-1.17-4.25-2-1.93-5.19-2.31-7.84-2.51-4.19-.33-9.08,1.05-12.91,1.9-2.91.95-5.37,4.21-7.5,6.53-1.28,1.27-3.21,1.79-4.3,3.21-2.95,4.15-8.02,4.88-12.96,5.06-2.3-.13-4.09.19-6.07,1.09-1.62.38-3.23-.68-4.66-1.35-2.04-1.28-3.78-1.84-6.15-1.71-1.27-.02-2.44.17-3.63-.18-1.36-.36-2.41-1.12-3.74-1.47-1.98-.32-4.47-1.56-6.37-.69l-.12.08ZM544.49,491.63c-.8.84-.99,1.83-.29,2.92.59,1.4,2.05,2.25,1.46,3.81-1.17,2.81-1.34,5.49,2.53,5.45.99-.12,3.88.48,3.58-1.16-.1-.38-.57-.69-1.05-.86-.48-.17-.82-.2-.86-.41-.11-.65,1.76-1.86,2.12-2.63.49-1.07-.38-2.24-.17-3.35.07-.79.71-1.37.75-2.17,0-1.82-1.28-4.41-3.43-4.29-.78-.05-1.38.47-2.07.9-.78.53-1.88,1.12-2.46,1.67l-.1.11ZM538.82,509.45c-.4.25-1.3.59-1.59.93-.1.22-.17.92-.05,1.14.66.58,2.1.81,2.98.9.52.04,1.8.05,2.1-.13.23-.39.51-1.1.47-1.45-.22-.62-.8-1.27-1.03-1.88-.19-.35-.1-1.07-.56-.86-.71.46-1.49.96-2.21,1.29l-.11.05ZM550.41,521.46c-.53.51-.52,1.42-.76,2.05-.27.56-.7.97-1,1.39-.24.4-.68.89-.38,1.32.92.94,2.41,1.14,3.48,1.88.76.65,2.03.86,2.95.71.59-.02.45.56.7,1.04,1.34,1.34,3.48.43,3.4-1.51-.1-1.05-.63-1.95-1.49-2.58-.77-.69-1.39-1.09-2.51-1.04-1.42.07-1.81-1.07-2.5-2.01-.53-.69-.78-2.12-1.77-1.35l-.12.11ZM585.79,476.93c-.39.14-.77.64-1.04.96-.32.44-.23,1.27,0,1.7.4.51,1.74.68,2.33,1.02.45.24.87.75,1.27,1.09.36.36.81.45,1.29.54.86.2,1.49.31,2.3-.02.97-.23,1.51-.6,2.3-1.04.42-.19.94-.23,1.34-.49,2.44-2.52-2.45-2.58-4.06-2.42-1.42-.01-3.46.25-4.6-.78-.37-.28-.72-.56-1-.57h-.12ZM590.83,475.43c.19.67.31,1.87.63,1.73.39.03,1.57.11,2.1.15.19.01.24,0,.45-.17.5-.43,1.19-.71.95-1.41-.27-.3-.87-.41-1.31-.65-.67-.26-.61-.41-1.26-.33-.67.14-1.45-.13-1.54.58v.1ZM602.36,456.36c-.07.28-.66,1.64-.52,1.93.17.35.36,1.23.83,1.33.74.15,1.34.54,2.06.35.62-.22,1.58-.18,2.05-.66.38-.52,1.13-.98,1.17-1.69,0-.56.35-1.33.04-1.82-.25-.36-.6-.96-.9-1.28-.45-.2-1.46-.27-2.06-.41-.46-.06-.66-.15-.98-.12-.21.13-1.58,2.18-1.66,2.29l-.04.07ZM607.74,480.8c.22.28.47.59.73.91.25.32.27.37.56.4.29.03.86.09,1.15.12.71.03,1.66-.48,2.37-.65.36-.08.63-.32.72-.62-.21-.23-.57-.35-.84-.5-.54-.29-1.03.05-1.79.12-.46.07-.5.1-1.06.46-.39.22-.69.48-.82.45-.15-.01-.92-.66-1.01-.7h-.01ZM647.02,478.95c-2.94,3.2-1.69,5.64,2.07,7.16,2.12.66,3.33,2.95,5.55,3.32.97.18,1.63-.43,2.28-1.03.91-.88,2.36-1.01,3.55-.77,3.9,1.06,7.78,3.97,11-.19,1.8-2.35,3.24-5.05,4.28-7.75.32-.7-.11-1.34-.55-1.88-.86-.98-.77-2.58-1.82-3.45-1.18-.94-2.89-1.44-4.33-1.76-1.85-.31-3.71.76-5.38,1.6-1.6.95-3.89.91-5.13,2.16-.5.52-1.01,1.02-1.69,1.33-1.43.75-2.97.27-4.53.31-1.51.18-3.62.19-5.17.86l-.13.09ZM698.42,466.73c-.39,1.48,1.64,2.53,3.28,2.33,1.56-.21,2.77,0,3.98.89,1.21.6,2.17,1.92,3.43,2.35.92.14,1.71-.74,2.49-1.13.76-.46,1.68-.39,2.62-.11,1.55.41,3.17,1.42,4.7.59.68-.4,1.83-.82,1.98-1.63-.54-2.34-3.44-3.27-5.4-4.09-1.29-.43-2.64-1.34-4.04-1.19-1.23.22-2.85.95-4.22.76-1.22-.2-2.41-.25-3.53.38-.73.33-1.55.55-2.32.48-.86,0-2.22-.44-2.91.27l-.06.11ZM695.65,466.77c-.12.2-.48.8-.64,1.07-.17.31-.28.37-.17.46l.65.59c.35.29.28.37.55.19,1.16-.71,1.99-.89,1.37-1.95-.02-.07-1.42-.29-1.74-.37h-.03ZM701.3,472.76c-.04.38-.14,2.19-.06,2.19.12.06,1.45.04,1.94.01.17-.06,1.07-.94,1.38-1.2.2-.18.27-.22.27-.4-.05-.31.03-1.18-.2-1.14-.34.01-1.3.02-1.74.11-.25.06-1.32.42-1.55.4l-.05.03ZM978.81,384.65c.13.25.86,2.26,1.28,2.64.23.19.83.65,1.33,1.04.54.39.77.69.93.55.41-.38,1.17-1.21,1.5-1.56.55-.94-.01-2.44-.03-3.5-.03-.42-.08-.52-.37-.69-.32-.15-.89-.49-1.21-.54-.29-.04-1.28-.06-1.7-.08-.42.02-.41.22-.78.71-.32.48-.71.96-.93,1.35v.07ZM974.97,351.75c-.3.82-1.01,2.23-2,2.3-.78-.23-1.28-1.05-.82.45.55.96.07,2.3,1.17,2.84.32.19.73.03,1.32-.12.77-.21,1.81-.5,2.05-1.37.02-.62-.09-1.47,0-2.09,0-.59.38-1.56.27-2.09-.14-.37-.97-.87-1.34-1.11-.57-.29-.5.76-.6,1.05l-.04.14ZM983.21,354.48c-.14.09-1.81.25-1.98.5-.36.31-1.51,1.25-1.69,1.43-.15.03.6,1.66.64,1.62.4,0,1.43-.38,1.87-.47.39-.19.8.05,1.04-.31.05-.09.16-.27.21-.36.32-.69.79-.97.66-1.53l-.22-.93c-.05-.35-.28-.12-.44,0l-.09.05ZM1513.61,369.5c-.97,3.28,9.48,2.11,11.23,3.76.61.71-.23,2.16-.34,3.05-.11,1.3-1.19,3.94.74,4.23.92.21,2.07.52,2.99.49,1.49-.11,2.62-1.36,4.08-1.65,1.58-.46,4.05.26,5.51-.67,2.82-1.58,2.02-4.67-.13-6.49-3.82-3.44-9.89-4.13-14.66-4.07-3.08-.23-6.98-1.27-9.33,1.22l-.08.12ZM1530.38,360.37c-3.91,4.28,3.76,5.93,6.59,7.63,1.49.7,2.9,1.17,4.5,1.6,1.1.2,1.82,1.07,1.95,2.17.77,2.77-1.69,4.82-2.16,7.29-.14,1.04-.14,2.52.6,2.78.96.34,1.97-.29,2.99-.58,4.57-1.58,9.1,1.13,13.79.26,2.1-.16,4.2-1.32,6.29-1.17.76.1,1.47.47,2.12.88,1.31.89,2.9,1.16,4.24,1.88,3.18,1.77,7.25.84,10.42-.47.65-.26,1.67-1.03.91.16-1.62,2.5-4.2,5.73-2.18,8.53,1.43,1.55,3.7,2.57,4.83,4.38.83,1.1.97,2.79,2.47,3.25,2.89.91,5.08-1.06,7.66-2.04,3.86-1.3,8.51-3.77,10.23-7.79.79-2.08.4-4.48-1.61-5.7-1.78-1.03-3.59-1.35-5.52-1.47-2.38-.12-4.25.06-5.66-2.03-1.9-2.25-4.03-4.48-5.99-6.79-1.09-1.14-2.18-3.31-3.87-3.82-2.24-.23-4.83-.88-7.11-1.33-1.62-.24-4.14-.54-5.9-.79-1.78-.21-3.53-.92-5.28-.74-2.1.19-5.25.79-6.97.73-1.99.08-3.68-1.91-5.17-2.7-3.38-1.52-6.83-2.65-10.29-3.72-2.69-.84-5.32-1.64-7.9-2.35-1.49-.41-2.54.67-3.83,1.82l-.13.13ZM1610.43,379.33c-.07.65.11,2.17.24,2.63.15.47,1.19.87,1.48,1.41.19.41.36,2.24.51,2.92.05.25.12.36.31.43.94.19,2.24.59,3.15.58.55-.2,1.42-.8,1.91-1.17.25-.3.21-.51.27-1.04.05-.8.22-1.88.21-2.67-.14-.42-.46-.52-1.03-1.03-.77-.56-1.26-1.24-2.07-1.55-.64-.09-2.12-.05-2.76-.15-.4-.04-1.82-.45-2.17-.4l-.05.04Z" style="fill:#ff9e17; fill-rule:evenodd; opacity:.7; stroke-width:0px;"/></g></g></svg>