<?xml version="1.0" encoding="UTF-8"?><svg id="b" xmlns="http://www.w3.org/2000/svg" viewBox="0 0 1920 1080"><g id="c"><g id="h"><path d="M945.73,367.12c.75-.97,2.14-1.98,3.3-2.45,1.1-.37,2.13.03,3.24.09,2.91.15,6.11.09,8.95.76,2.18.32,3.23.68,4.47,1.99,1.05,1.02-.09,2.27-.75,3.16-.96,1.37-2.64,1.62-4.3,2.11-1.75.45-3.62.95-5.45,1.1-1.03.13-2.26-.05-3.18.44-1.05.83-1.29,2.64-1.87,3.84-1.14,2.8-3.55,4.42-5.27,6.87-.78.93-.38,1.93.08,2.93,1.72,4.24,7.19,4.52,10.16,7.62,2.08,1.61,5.2.4,7.33,1.68,1.59,1.45-.65,3.9.19,5.57.78,1.21,3.01,1.36,4.31,1.9,2.84.72,1.33,3.94,1.98,6.02.19,1.14.37,2.2,1.09,2.91.59.65,1.49,1.17,2.04,1.82.85,1.05-1.23,1.99-2.12,2.24-.89.14-1.69-.43-2.45-.85-1.49-.86-2.34-1.31-3.86-1.96-1.24-.53-2.5-1.04-3.43-2.05-1.37-1.52-2.21-2.46-4.41-3.22-2.06-.84-3.34-1.76-5.75-.94-2.32.63-5.3,1.33-7.11-.63-1.62-2.27-1.59-5.02-1.01-7.61.25-1.28,1.32-2.35,1.81-3.41.66-2.03.07-5.52.16-7.33-.16-1.6-.5-3.65-1.6-4.79-.92-.8-2.17-1.28-3.17-1.97-2.98-2.17,2.59-4.14,3.1-6.27.46-1.75.45-3.89,1.84-5.21,1.04-1.02.97-2.96,1.6-4.24l.08-.14ZM917.46,476.6c-.77.95-2.33,2.02-2.96,3.08-.23.71-.66,2.06-.81,2.61-.27.96.22.99.98,1.05.56.04,1.58.26,1.84.15.31-.1,1.19-.85,1.64-1.15.51-.4,1.43-.67,1.8-1.19.23-.45.89-1.59,1.11-2.22-.03-.47-.66-.91-.96-1.35-.54-.68-1.79-1.61-2.56-1.05l-.07.07ZM950.67,512.27c-.17,2.07,2.92,4.04,2.53,6.08-.12.69-.82.81-1.39.61-2.05-.83-4.5-2.14-6.78-2.33-1.04,0-1.84.28-2.98.49-1.72.32-3.87.64-4.27,2.34-.79,1.84-.44,3.88-.27,5.66.11,1.19-.54,2.34.22,3.26,2.27,1.67,4.93,2.48,7.58,3.15,1.61.36,2.61.61,3.24-.75.91-1.92.85-4.61,2.38-6.07,2.19-1.57,4.86.05,6.55,1.59,2.24,2.72,1.44,6.55,1.37,9.85.31,1.61,2.38,1.46,3.78,1.98,2.22.55,4.54,1.58,6.53.6,4.27-1.11,5.13-4.07,5.6-7.89.04-2.95-1.55-6.07-3.18-8.59-.4-.54-.85-.76-1.62-.96-1.06-.26-2.84-.65-3.84-.87-1.39-.38-3.35-.07-5.14.02-2,.04-3.49.7-3.86-1.17-.17-1.66.78-3.2-.23-4.78-.66-1.2-1.37-3.07-2.57-3.57-1.1-.61-3.23-.19-3.63,1.21l-.03.15ZM994.9,506.71c.17.07.91-.05,1.42-.07.9-.1,2.14.77,2.89,1.06,1.11.49,2.41,2.01,3.64,2.2.47-.02,1.26.19,1.42-.39.14-.57.31-1.5.44-2.11.21-.84.2-1.06-.42-1.94-.4-.63-.57-.94-1.06-1.19-1.21-.68-2.21-1.18-3.44-1.74-1.53-.81-1.45-.61-3.11.07-.48.24-1.02.28-1.27.76-.08.47-.62,2.62-.58,3.32l.06.04ZM1017.33,506.41c-.52.39-.94.82-1.68,1.48-.88.85-1.51,1.15-1.48,2.2.19,1.71.14,4.19.8,5.64.47,1.04.92,2.08,2.03,2.6.81.39,1.77,1.02,2.69.77,1.24-.32,2.48-2.09,3.41-3.41.86-1.51,2.72-1.25,4.19-1.04.82.08,1.87.5,2.36-.31.31-.53.66-1.65.97-2.43.96-2.63,1.77-6.52-.52-8.64-1.23-.99-2.72-.69-4.14-.36-2.83.45-5.81,2.18-8.53,3.44l-.1.07ZM1038.18,513.53c-.94.35-1.43,1.01-2.32,1.77-1.62,1.3-2.36,2.45-2.93,4.37-.33.98-.76,1.88-.9,2.85-.11,1.14.56,2.63,1.26,3.73.75,1.04,2.19,2.12,3.35,2.99,1.02.63,1.41,1.62,1.41,2.78.03,2.05-.03,3.28-.19,5.36-.05.99-.24,2.04.47,2.81,1.04,1.23,4.08,4.67,5.61,6.43.78.93,1.14,1.08,2.63,1.13,2.38.28,5.24-.34,7.34.86,4.34,3.51-.28,5.88,5.95,8.41,1.41.44,3.44,2.03,5.04,1.24,1.14-.71,2.26-1.65,2.51-2.96.23-1.34.66-2.91.17-4.19-.5-1.51-2.29-3.25-1.52-5.03,1.31-2.7,1.02-3.35-.54-5.95-.81-1.55-2.72-2.5-3.89-3.7-.92-1.04-1.27-2.55-1.64-3.93-.38-1.96,2.72-2.76,2.94-4.42.27-1.6-.25-4.33-.7-5.86-.82-1.29-2.57-3.22-4.04-3.87-3.46-.69-7.95-1.4-11.68-1.21-1.87.09-2.85-.58-4-1.87-.92-1.33-2.63-2.22-4.17-1.78l-.15.04ZM1085.07,527.55c-.04.22,0,.59.03,1.12.12.85-.16,1.41.71,1.58.47.11.99.22,1.46.33,1.28.19,1.37.61,2.16,1.42.69.73,1.43,1.57,1.72,1.81.32.2.5.14,1.03.12,2.23-.1,1.86.05,2.01-2.24.1-.86-.08-1.14-.43-1.79-.67-1.11-.92-2.18-1.74-2.91-.63-.3-1.51-.38-2.17-.56-1.02-.2-2.03-.61-2.98-.9-.6-.17-.66.21-1.08.79-.32.5-.61.88-.69,1.12l-.03.12ZM1086.05,540.66c-.36.62-.84,2.05-1.14,2.75-.19.46-.25.65-.08.97.39.6.85,1.42,1.33,1.89.48.38,1.49,1.01,2,1.36.93.63,2.1.56,3.21.81.48.04.7-.07,1.34-.26.7-.25,1.28-.31,1.68-.64.29-.44.39-1.6.52-2.1.15-.86-.68-1.74-1-2.52-.35-.71-.79-.9-1.45-1.38-1.02-.71-2.1-1.27-3.17-1.85-.16-.06-.34-.07-.51-.05-.44.13-2.25.74-2.64.95l-.07.06ZM1028.3,540.8c-.04,1.96-.52,4.53.55,6.12.99,1.37,2.93,3.33,3.93,4.87,1.08,1.68,2.11,3.99,3.12,6.27.75,1.81,1.36,3.47,1.54,5.48.05.64.02,1.35-.41,1.81-.69.72-2.14.6-3.24.54-2.98-.66-7.17-.76-8.02-4.49-.48-2.78-.06-5.67-.27-8.48-.49-2.34-2.19-5.02-4.81-4.96-3.16.62-6.17,1.74-8.61,3.75-1.95,1.6-2.38,5.01-5.13,5.44-.61.12-1.24.36-1.64.83-.88,1.19-1.53,3.41-2.34,4.78-1.3,2.2-3.19,4.21-4.09,6.53-2.04,3.79-2.42,7.54-5.17,10.66-.81.82-1.59,1.67-2.12,2.71-.48.98-1.23,2.12-1.86,2.84-.33.41-.6.78-.6,1.09,0,.37.43.64,1.11,1.07,1.79,1.14,5.11,3.26,6.99,4.46,3.67,1.96,4.97,4.07,3.44,8.21-.52,3.25,4.53,3.29,6.03,5.55,1.41,1.51,1.63,3.65,2.98,4.74,1.93,1.57,4.84,1.05,6.88,2.24,2.04,1.44,2.6,5.35,5.4,5.5,1.72.02,4.88-.02,4.24-2.55-.35-2.22-1.16-3.91-3.24-5.1-2.92-1.56-1.14-4.07,1.04-5.32,3.36-1.61,5.38-3.71,8.56-5.01.58-.24,1.21-.5,1.8-.74,2.2-.64,2.65-2.15,3.8-3.73,2.46-2.63,6.8.95,9.67-1,.99-.94,2.2-2.49,2.63-3.86.2-1.1,0-2.34-.02-3.5-.19-2.71-.21-5.16,1.81-6.88,1.83-1,3.94-.39,5.26,1.26,1.2,1.15,2.59,2.7,3.68,1.19,1.03-1.51,2.3-3.24,2.95-4.87.66-1.72-.43-2.49-1.76-3.47-.94-.71-2.15-1.63-3.05-2.31-1.55-1.13-2.29-1.93-3.42-3.28-1.05-1.14-1.6-2.19-1.89-3.78-.39-1.78-.69-3.19-1.18-5.07-.21-.85-.49-1.79-1.18-2.34-1.33-1.06-3.95-.46-5.51-1.33-1.36-1.16-1.8-3.32-3.03-4.51-1.76-2.32-4.13-4.16-5.82-6.26-.87-1.26-1.94-2.98-2.77-4.25-.93-1.34-1.41-2.38-3.12-2.84-1.43-.51-3.04.22-3.08,1.77l-.02.17ZM1101.77,558.12c-2.07.39-3.42,1.96-4.83,3.47-.71.79-1.19,1.13-1.42,1.87-.13,1.43-.02,3.74.37,5.02.39.76,1.74,1.45,2.54,1.98,1.44.89,3.43.4,5.17.54,1.21,0,2.23.53,3.36.89,1.93.62,4.08-.95,6-.38,1.78.6,1.32-1.82,2.58-2.13.8-.15,1.71.3,2.5.1,1.7-.5,7.15-4.81,4.25-6.4-1.82-.68-3.76.31-5.35-1.01-1.29-1.26-2.71-2.03-4.31-2.77-1.73-1.02-3.46-1.8-5.56-1.28-.78.14-1.48.6-2.2.72-1.01.28-1.94-.63-2.93-.63h-.16ZM1107.59,577.56c-.33,1.25-.17,3.06.25,4.34.17,1.33,4.87,4.84,2.26,5.33-4.16,1.09-9.78,1.22-13.54,4-1.04,1.05-2.96,2.72-4.57,3.97-1.29,1.16-2.51,1.28-3.65,2.27-1.23,1.34-2.1,2.98-3.96,3.61-4.13,2.47-9.83.55-13.38,4.21-.97.63-1.9.4-2.87-.19-2.24-1.24-4.4-3.3-7.01-3.17-1.17,0-2.32.22-2.92,1.36-.63,1.16-1.28,2.47-.98,3.81.29,1.24.72,2.68,1.74,3.18,1.04.48,2.51.81,3.41-.08,1.18-1.02,2.16-3.6,3.74-4.09,1.5,0,2.85,1.2,4.5,2.03,1.28.71,1.76,1.73,2.58,2.7,2.09,2.2,4.63,3.9,7.19,5.39,2.22,1.3,4.06,2.13,6.79,3.08.87.32,1.86.62,2.5,1.27,2.26,2.48,3.43,5.81,2.29,9.1-.9,2.65-1.38,3.5-4.41,2.74-1.4-.22-2.48-.54-2.75.3-.2.84.16,1.82.31,2.67.35,1.51.46,2.72,1.2,3.94,2.54,3.35,6.12,5.91,10.11,6.87,1.77,0,4.4.03,6.27-.38,1.26-.38,2.19-2.11,3.42-2.51,1.38-.4,3.11-.3,4.59-.47,2.85-.06,4.6-.98,6.99-2.06,1.24-.63,1.91-2.17,3-3.28.96-.98,2.14-1.51,3.21-2.33,2.46-2.19,6.86-3.99,7.81-7.45.14-1.13-.11-2.22-.19-3.42-.18-1.22-.07-2.26-.59-3.25-1.08-1.41-4-4.25-5.67-6.06-1.64-1.84-4.35-3.23-6.47-4.74-1.33-.99-3.14-2.03-3.09-3.91.12-.95.61-2.32,1.16-2.68.53-.33,1.2.21,1.79.35,1.53.58,3.04-.72,3.77-2.01,1.14-2.3-.11-5.15-.2-7.62-.15-1.57-.67-2.62.4-3,2.91-.37,6,.03,8.81.31,1.24.25,2.75.29,3.82,1.04,1.14.89,1.95,2.24,2.7,3.51,1.02,2.03,1.9,3.7,3.76,4.91,2.97,2.3,5.82,3.93,8.51,6.53,2.7,2.21,10.02-4.71,10.93-7.2.53-1.36-.1-2.37-.98-3.76-.38-.6-.74-1.2-1.3-1.63-1.02-.75-3.02-.87-4.51-1.2-.93-.16-2.79-.35-2.14-1.55.99-1.18,2.92-.8,4.33-.87,3.2-.21,5.08.1,7.99.38,1.59.21,3.58.6,4.73,1.74.71,2-3.2,3.32-3.11,5.47-.12,1.51-.27,3.52-.33,5.01,0,1.56.69,1.63,2.18,1.46,1.46-.16,3.61-.46,5.11-.65,1.52-.21,2.1-.24,3.08.57,2.1,1.79,4.05,3.52,6.28,5.24,1.54,1.22,3.46,1.69,4.92.39.62-.65,1.27-1.88,1.81-2.69.91-1.62,2.68-2.49,4.5-2.85,2.33-.07,5.61,1.1,7.48,1.39,1.45.39,1.84-.36,1.87-1.7.03-1.68.17-3.24.16-4.82-.1-1.04-.15-2.46-1.2-2.99-1.24-.67-4,.49-4.83-.16-.38-.28-.45-.7-.54-1.2-.19-2.15-.4-4.49-.68-6.54-.13-1.31,1.4-1.95,1.89-2.99.68-1.95-1.44-3.42-2.94-4.35-1.95-1.27-3.36-2.26-5.13-3.6-2.23-1.48-2.84-4.03-3.96-6.32-.46-.79-1.17-1.42-1.75-2.13-1.11-1.33-1.19-2.95-2.12-4.34-1.43-1.77-4.39-2.07-5.97-3.61-1.57-1.3-1.76-3.46-3.02-5-1.9-2.53-3.67-4.98-5.95-6.77-1.67-.66-4.2-.17-6.11-.32-4.07.06-8.01.37-11.99,1.64-1.84.32-2.89,1.15-4.12,2.74-1.61,2.05-3.3,2.6-1.28,5.23.8,1.41,1.69,2.3,3.33,2.29,3.19.51,6.64-.5,8.38-3.39,1.57-2.42,4.43-.42,6.39.65,6.36,3.53,4.33,7.52-2.19,8.23-5.43.72-6.23,5.61-12.06,2.17-2.86-1.21-5.01-3.51-8.21-3.94-1.89-.14-3.98-.47-5.8-.4-1.42.08-2.63.85-3.86,1.51-2.83,1.86-6.63,1.18-9.32,3.25-.75.64-.86,1.73-1.28,2.7-.95,2.25-3.56,3.19-5.85,3.41-1.97.42-4.51-.55-5.41,1.21l-.05.14ZM1183.94,447.6c-1.46,1.73-3.65,4.18-2.81,6.63.5,1.18,1.53,2.68,2.6,3,.71.2,1.59.27,2.31.26,1.56.52,3.46-5.39,4.38-3.3.69,1.33.95,3.32,2.31,4.21,1.8,1.08,3.52,2.27,5.56,2.49.81-.05.84-.79,1.03-1.65.13-.73.23-1.38,0-1.75-.93-.97-3.07-1.08-4.12-1.61-.77-.27-1.82-.6-1.19-1.51.56-.66.78-1.32.04-1.97-1.14-1.27-2.67-1.82-4.16-2.54-1.14-.6-1.59-1.95-2.6-2.7-.94-.8-2.46-.41-3.23.33l-.12.11ZM1204.65,450.07c-.26.47-.87,1.64-1.2,2.26-.27.58-.57.91-.45,1.06.13.14.85.58,1.09.59.48-.14,1.35-1.09,1.8-1.49.93-.82,1.73-1.96,2.27-3.01.05-.28.24-1.49.12-1.65-.15-.15-1.63-.09-1.82-.04-.25.11-1.67,2.11-1.78,2.21l-.03.05ZM1289.57,467.65c-.69.61-1.24,1.28-1.89,2.02-.46.54-.76.96-.63,1.33.18.52.95.98,1.43,1.35,2.77,2.54,6.62,1.51,9.53,3.62,1.03.85,2.15,1.84,3.59,1.65.71-.04,1.35-.28,2.05-.27,1.5.05,3.12,2.21,4.73,2.02,1.39.14,2.6-1.94,3.53-.99.27.32.48.75.77,1.09,1.13,1.3,3.36,1.17,4.5-.19,1.12-1.19,1.95-2.31,1.83-3.96.04-2.36-.13-4.32-2.05-6.09-1.55-1.72-2.03-1.9-4.34-1.11-1.52.34-3.13,1.1-4.56,1.01-.87-.09-1.9-.48-2.91-.96-1.48-.91-3.07-.43-4.63-.9-1.95-1.07-3.98-2.05-6.3-1.96-1.71.08-3.16,1.24-4.5,2.23l-.13.11ZM1243.65,480.64c.19.58,1.19,1.78,1.57,2.57.22.47.64.87.45,1.24-.17.17-.88.05-1.62-.01-1.95-.08-3.44-.54-5.3-.34-.41.11-1.61,2.05-1.06,2.36,2.12.77,5.29,2.01,7.56,1.78.57-.05.71-.55.8-1.23.06-.32.08-.94.42-.96.45.05,1.06.69,1.5.93.79.5,1.69.08,2.41-.53,1.63-1.7.86-2.74-.26-4.4-.69-.96-2.17-.96-3.26-1.2-.59-.01-2.83-.53-3.21-.27v.07ZM1254.22,488.11c-.31.55-1.18,2.41-1.3,2.8-.01.13.11.13.37.09.94-.11,3.03-.61,3.76-.56.44.17,1.93,1.45,2.57,1.9.49.39.65.22,1.19-.03.4-.2.95-.47,1.34-.67.69-.29.7-.51.53-1.02-.35-.99-.53-1.96-1.24-2.8-.33-.44-.52-.78-.86-1.07-.79-.33-2.87-.42-3.72-.56-.26,0-.52.05-.71.23-.33.36-1.58,1.33-1.86,1.62l-.07.09ZM1272.95,490.2c.03.1-.16,2.41.15,2.45.38.18,1.29.7,1.77.65.75-.03,2.1.07,2.75-.05.37-.64.91-2.11,1.19-2.83.03-.21-.5-.43-.68-.57-.71-.4-1.11-.82-1.76-1.04-.45.11-2.76,1.06-3.4,1.35l-.03.05ZM1330.08,492.3c-.1.89,0,2.26-.31,3.12-.11.4-.68.94-.52,1.35.15.16.8.2,1.1.27.97.09,1.54.47,2.37.04,1.16-.76,2.65-.99,3.36-2.23.34-.54.69-1.14.92-1.43.27-.46,1.24-.89,1.37-1.56.02-.46-.14-1.31-.32-1.62-.51-.54-1.79-.9-2.43-1.27-.64-.31-.76-.13-1.44.14-.63.26-1.48.69-2.09.88-.5.09-.95-.43-1.39-.68-.66-.47-.63-.27-.62.85,0,.65,0,1.49,0,2.02v.11ZM1337.97,516.37c-.06.68,1.14,2.57.62,3.39-.12.32-.35.72-.45,1.03-.21.66.62.47,1.03.45,1.42.05,2.31-1.62,3.69-1.78,2.27-.7,4.17,2.08,6.33.46.56-.28,1.03-.53,1.3-1.12.28-.63.94-1.91,1.13-2.63.01-.71-1.4-.95-2.03-1.35-.88-.47-1.66-.26-2.59-.18-.28.03-.61.07-.89.11-.89.12-1.13.73-1.86.75-.88-.02-2.36-.74-3-.72-.6.04-2.58.9-3.24,1.47l-.03.09ZM1370.52,457.55c-.87,1.84-1.27,1.54.85,2.46.81.44,2.25.4,3.2.55.88.14,1.54-.28,2.42-.49.67-.18.99-.69,1.5-1.16.25-.25.37-.43.45-.73.08-.54.44-1.23-.1-1.56-.57-.23-1.34-1.01-1.84-1.05-.32-.02-1.01-.03-1.79-.06-1.18.09-2.71-.4-3.72.16-.42.26-.67,1.24-.93,1.77l-.05.11ZM1400.34,450.26s-.65,1.58-.41,1.54c.41.06,1.8.13,2.34.23.42.05.69.17,1.08.04.39-.13,1.08-.27,1.16-.39.09-.32.15-1,.09-1.17-.05-.13-.48-.36-.75-.56-.96-.59-2.46.13-3.47.27l-.04.04ZM1400.8,454.57c.31.83.63,1.53,1.18,2.17.22.33.28.26.81.37.48.09,1.15.22,1.45.28.47.07.75-.36,1.26-.6.68-.41,1.08-.63.97-1.3-.11-.18-.48-.6-.61-.76-.15-.18-.25-.11-.71-.18-.73-.08-2.07-.24-2.81-.32-.36-.04-.43-.06-.71-.1-.23-.05-.67.28-.8.38l-.03.06ZM1432.81,455.82c.25.29.74.4,1.09.54,1.11.53,2.1.2,3.26.25.64.02,1.33.67,1.89.67.53-.08.61-.81,1.36-.77,1.02-.09,1.75.95,2.72.8.46-.13.9-.34,1.39-.28.96.13,2.61.78,1.52-1.01-.32-.51-.03-.76.53-.96.27-.1.64-.24.53-.56-.75-1.14-2.72-2.06-3.82-2.96-.36-.26-.77-.57-1.17-.78-.73-.36-1.29-.08-2.1.12-1.12.27-2.18.51-3.3.58-1.05.11-2.38.11-2.92.5-1.07.61-1.29,2.5-1.06,3.75l.07.11ZM1535.01,401.46c-1.19,1.71-1.81,4.15-.69,6.03.19.49.24.95-.31,1.19-.94.36-3.18.64-4.21.84-1.86.33-4.33.21-6.08.61-1.01.28-2.58,1.19-3.69,1.75-2.4,1.34-4.37,4.18-6.54,6.13-1.17,1.17-3.26,3.22-4.18,4.17-.91.91-.81,1.74-.88,3.17.06,1.9-.41,3.46-.33,5.26.14.76.84,1.29,1.49,1.8.94.72,2.27,1.83,3.09,2.31,1.13.73,3.36,1.16,4.58,2.05.63.52.71,1.38.9,2.13.28,1.28,1.4,2.34,2.35,2.89,1.16.6,2.08.19,3.54.1,1.57-.2,3.24-.27,4.74-.56,1.36-.25,3.33-1.94,4.73-1.96,1.84.13,4.03,1.75,5.88,1.76,1.16.02,2.49-.05,3.69-.07,1.6-.03,2.48.04,3.53-1.13.69-.72,1.56-1.73-.03-1.87-.46-.07-.95-.08-1.37-.24-.56-.25.69-.72,1.66-1.37,1.54-1.11,2.93-2.63.95-3.64-2.22-1.32-3.91-3.02-6.49-2.39-.87.26-1.61.8-2.54.87-2,0-3.73-.67-5.78.04-1.22.1-2.56,1.18-3.57,1.07-.77-.26-1.24-1.21-1.18-2,.08-1.07,1.57-1.63.9-2.22-1.38-.9-3.67-1.28-4.59-2.45-1.36-1.36-.78-2.02,1.07-2.36,2.02-.57,4.39-.63,6.35-1.43,1.23-.63,2.99-1.64,4.21-2.51,1.11-.89,2.53-2.47,3.47-3.53,1.04-1.39,2.57-3.01,2.87-4.64.22-1.48.49-3.21-.3-4.53-1.37-2.5-3.66-8.08-7.13-5.42l-.11.12ZM1543.85,418.04c.06.53.88,2.85,1.1,3.43.39,1.07.91,2.31,1.97,2.66.83.25,2.02.4,2.65.95.43.27.79-.15,1.07-.46,1.08-1.12,1.56-1.84,2.52-2.93,1.16-.88,2.76-1.19,3.13-2.9.03-.47-.17-1.25-.34-1.74-.35-.72-1.34-.45-2.1-.62-1.39-.37-3.02.49-4.34.72-1.07.17-4.66.49-5.64.82l-.02.06ZM1606.43,457.51c-.87,2.58,1.49,5.25,2.92,7.15,1.04,1.66,2.35,3.03,4.31,3.53,2.28.95,4.37,1.77,6.9,1.71,1.65-.06,3.27,1.36,4.83,1.17.86-.17,1.81-.58,2.26-1.36,1.69-3.62-2.63-5.84-4.35-8.38-.74-1.08-1.11-2.89-2.69-2.89-3.2.09-6.28-.44-9.47-.92-1.65-.29-3.05-1.56-4.61-.12l-.09.12Z" style="fill:#91522d; fill-rule:evenodd; opacity:.7; stroke-width:0px;"/></g></g></svg>