<?xml version="1.0" encoding="UTF-8"?><svg id="b" xmlns="http://www.w3.org/2000/svg" viewBox="0 0 1920 1080"><g id="c"><g id="f"><path d="M823.36,444.94c.49.07,2,.53,2.67.7.69.2.9.19,1.3.47.36.28.84.63.89.94.05.63.34,2.4.27,3.22-.52.93-1.89,1.6-2.91,1.98-.61.19-.77.18-1.11-.26-.67-.75-1.75-1.96-2.37-2.66-.3-.35-.09-.41.08-1.05.25-.71,1.02-3.17,1.14-3.32l.05-.02ZM800.09,464.32c-1.58.52-.3,2.21-1.26,3.31-1.47,1.73-1.47,4.41-1.81,6.45-.28,1.42.5,2.04,1.86,1.97,1.04.03,2.15.16,3.08.64.78.37,1.48,1.01,2.33,1.17,1.61.24,3.22-1.2,4.83-.25,2.06.89,3.61,1.74,5.34,2.66,1.42.72,2.61,1.51,4.11,1.44,1.27-.06,2.66-.36,3.91-.32.71.01,1.49.25,2.16.48,2.78,1.21,5.13-2.02,7.83-2.24,2.07-.18,3.86,2.54,5.85,1.89,1.03-.33,2.03-.95,3.06-1.43,1.08-.62,2.41-.96,3.07-1.87.57-1.06.79-2.59,1.22-4,.44-1.82.7-4.03.07-5.82-.67-1.33-2.74-2.44-2.86-4.09-.27-1.83,2.33-3.59.64-5.28-1.24-1.03-3.24-.78-4.71-1.29-1.74-.47-3.54.48-5.25.55-1.11-.16-1.68-1.53-2.65-2-2.66-1.24-6.74,3.44-7.09,5.98-.37,2.71-3.08,4.65-5.52,5.2-.84.12-1.7.03-2.54.02-1.14-.03-2.1.28-3.1,0-1.13-.27-2.12-1.32-3.33-1.23-.59.02-1.23.1-1.79-.08-.81-.2-1.28-.95-2.05-1.26-1.51-.42-3.71-.91-5.24-.67l-.14.04ZM859.8,430.97c.22.32.81,1.05,1.03,1.34.14.24.39.2.68.22.26,0,.3.16.57.52l.89,1.23c.09.13.13.16.17.09.18-.43.46-1.18.64-1.66.13-.39.25-.48.11-.65-.25-.23-.81-1.19-1.24-1.15-.93-.14-1.97-.16-2.83.03l-.03.03ZM900.58,437.73c-.6.37-2.07,1.9-2.74,2.49-.91.8-1.02,1.12-1.63,2.08-.29.45-.47.79-.38,1.16.13.47.45,1.05.86,1.28.71.3,2.02.34,2.89.47.7.05,2.48.26,3.03.26.46-.04.66-.21,1.18-.55.77-.56,1.59-.87,2.04-1.66.38-.67,1.02-1.63,1.37-2.38.19-.57.38-1.76.34-2.28-.05-.15-.19-.22-.33-.27-.54-.09-2.01-.2-2.69-.27-.93-.06-2.93-.36-3.85-.35l-.09.03ZM900.86,455.09c.27.86.82,1.55,1.24,2.49.2.39.37.74.61.82.26.12.71-.11,1.16-.29.51-.26.98-.22,1.31.26.67,1.02,1.3,1.61,2.37,2.21.63.38,1.46,1.01,2.02,1.24.56.13,1.49-.08,2.19-.19.71-.18.46-.91.5-1.59.01-.6-.19-1.03-.51-1.5-.55-.84-.92-1.42-1.66-2.02-.8-.67-2.3-2.2-3.07-2.66-1.27-.39-2.97-1.63-4.22-.93-.5.44-1.61,1.34-1.94,2.03v.12ZM1060.8,600.06c-.2.48.14,1.06.51,1.46,1.08,1.03,2.76,1.64,3.98,2.62,1.23.83,2.63,1.51,4.02,2.08,1.13.46,2.13-.45,3.29-1.08,1.01-.54,2.24-1.34,3.29-1.6,1-.19,1.79-.05,2.98-.04,2.05.16,3.34,0,5.09-.85,1.06-.38,2.22-1.31,2.2-2.19-.06-1.98-3.96-.62-5.24-.91-2.3.09-4.21-.99-6.2-2.1-1.77-.93-3.4-.85-5.29-.62-2.47.17-4.12.43-6.24,1.49-.79.45-1.87.82-2.32,1.62l-.05.13ZM576.49,465.52c-.09.16-.23.56-.34.88-.13.4.13.51.27.77.16.38.03.99.22,1.26.52.56,1.35.58,2.12.73.45.08.93.25,1.16.17.26-.09.62-.42.85-.63.38-.49.93-1.08,1.11-1.66.15-.66.17-1.46-.09-2.08-.17-.41-.07-1.13-.55-1.02-1.14.55-1.69.81-2.91.89-.63.03-1.36.03-1.74.58l-.07.11ZM578.76,459.38c.1.19.68,1.15.81,1.31.22.28.35.58.69.58.37,0,.86.27,1.13-.06.32-.36.77-.63.94-1.11.13-.34.29-.6.24-.84-.06-.29-.07-.69-.28-.71-.21-.04-.78-.07-.99-.08-.35.01-.85.42-1.12.53-.2.13-1.22.27-1.38.33l-.02.04ZM583.33,458.86c.11.47-.09,1.39.4,1.78.37.25.74.91,1.19.67.38-.16.72-.39.98-.72.19-.33.22-1.09.44-1.47.12-.34.41-.7.36-1.06-.04-.23-.07-.62-.19-.71-.15-.11-.64,0-.85.03-.6.31-1.72,1.02-2.3,1.39l-.03.09ZM1641.75,450.93c.4,1.37,1.8,3.45,2.44,5.16.41.81.54,1.64,1.12,2.26.64.52,1.67.84,2.4,1.21,1.36.52,2.42,1.41,3.88,1.85.69-.03,1.44-.52,1.86-1.11.32-.64.64-1.64.56-2.21-.3-.92-1.59-2.01-2-2.67-.81-.87-1.78-2.96-3.06-3.63-1.5-.69-3.09-1.68-4.37-2.69-.68-.39-.97.22-1.75.75-.52.44-.96.73-1.05.98l-.02.1Z" style="fill:#c43c39; fill-rule:evenodd; opacity:.7; stroke-width:0px;"/></g></g></svg>