<?xml version="1.0" encoding="UTF-8"?><svg id="a" xmlns="http://www.w3.org/2000/svg" width="1920" height="1080" viewBox="0 0 1920 1080"><path d="M292.43,251.74l-.03-.08-.03-.08-.03-.08-.03-.08-.02-.08-.02-.08-.02-.08-.02-.08-.02-.09-.02-.09-.02-.09v-.09s-.03-.09-.03-.09v-.09s-.02-.09-.02-.09v-.09s-.01-.09-.01-.09v-.09s0-.09,0-.09v-.09s0-.09,0-.09v-.09s0-.09,0-.09v-.09s.01-.09.01-.09v-.09s.02-.09.02-.09v-.09s.02-.09.02-.09v-.09s.03-.09.03-.09l.02-.09.02-.09.02-.08.02-.08.02-.08.02-.08.03-.08.03-.08.03-.08.03-.08.03-.08.03-.08.03-.08.04-.08.04-.08.04-.08.04-.08.04-.08.04-.08.04-.08.04-.07.05-.07.05-.07.05-.07.05-.07.05-.07.05-.07.05-.07.05-.07.06-.07.06-.07.06-.06.06-.06.06-.06.06-.06.06-.06.06-.06.06-.06.07-.06.07-.06.07-.06.07-.05.07-.05.07-.05.07-.05.07-.05.07-.05.07-.05.07-.05.08-.04.08-.04.08-.04.08-.04.08-.04.08-.04.08-.04.08-.03.08-.03.08-.03.08-.03.08-.03.08-.03.08-.03.15-.02.15-.02.15-.02.15-.02.15-.03.15-.03.15-.03.15-.03.15-.04.15-.04.15-.04.15-.04.15-.05.15-.05.15-.05.15-.06.14-.06.14-.06.14-.06.14-.07.14-.07.14-.07.14-.07.14-.07.14-.08.13-.08.13-.08.13-.08.13-.09.13-.09.13-.09.12-.09.12-.1.12-.1.12-.1.12-.1.12-.1.11-.11.11-.11.11-.11.11-.11.11-.11.11-.12.1-.12.47.07.47.07.47.08.47.09.47.1.46.1.46.11.46.12.46.13.46.13.45.14.45.15.45.16.45.16.44.17h.09s.09.02.09.02h.09s.09.02.09.02h.09s.09.03.09.03l.09.02.09.02.09.02.09.02.09.02.09.02.09.03.09.03.09.03.09.03.08.03.08.03.08.03.08.04.08.04.08.04.08.04.08.04.08.04.08.04.08.05.08.05.08.05.08.05.07.05.07.05.07.05.07.06.07.06.07.06.07.06.07.06.07.06.07.06.06.06.06.06.06.07.06.07.06.07.06.07.06.07.06.07.06.07.05.07.05.07.05.07.05.08.05.08.05.08.05.08.04.08.04.08.04.08.04.08.04.08.04.08.04.08.03.08.03.08.03.08.03.09.03.09.03.09-.29.25-.3.24-.3.24-.31.23-.31.23-.31.22-.32.22-.32.21-.32.21-.33.2-.33.2-.33.19-.34.19-.34.18-.34.17-.35.17-.35.16-.35.16-.35.15-.42.12-.42.11-.42.1-.42.1-.42.09-.43.08-.43.08-.43.07-.43.06-.43.05-.43.05-.43.04-.43.03-.43.02-.43.02h-.43s-.43.01-.43.01h-.43s-.43-.02-.43-.02l-.43-.02-.43-.03-.43-.03-5.01-.59ZM311.29,277.65l.09.09.09.09.09.09.09.09.09.09.09.09.1.08.1.08.1.08.1.08.1.08.1.08.1.07.1.07.11.07.11.07.11.07.11.06.11.06.11.06.11.06.11.06.11.05.12.05.12.05.12.05.12.05.12.04.12.04.12.04.12.04.12.04.12.03.12.03.12.03.12.03.12.03.12.02.13.02.13.02.13.02.13.02h.13s.13.02.13.02h.13s.13.01.13.01h.13s.13,0,.13,0h.13s.13,0,.13,0h.13s.13-.01.13-.01h.13s.13-.02.13-.02h.13s.13-.03.13-.03l.13-.02.13-.02.13-.02,2.62-.84,2.61-.88,2.59-.91h.08s.08-.02.08-.02h.08s.08-.02.08-.02h.08s.08-.03.08-.03l.08-.02.08-.02.08-.02.08-.02.08-.02.08-.02.08-.03.08-.03.08-.03.08-.03.08-.03.08-.03.08-.03.08-.03.07-.04.07-.04.07-.04.07-.04.07-.04.07-.04.07-.04.07-.04.07-.05.07-.05.07-.05.07-.05.07-.05.06-.05.06-.05.06-.05.06-.06.06-.06.06-.06.06-.06.06-.06.06-.06.06-.06.05-.06.05-.06.05-.06.05-.07.05-.07.05-.07.05-.07.05-.07.05-.07.04-.07.04-.07.04-.07.04-.07.04-.07.04-.07.04-.07.04-.07.03-.08.03-.08.03-.08.03-.08.03-.08.03-.08.03-.08.03-.08.02-.08.02-.08.02-.08.02-.08.02-.08.02-.08.02-.08v-.08s.03-.08.03-.08v-.08s.02-.08.02-.08v-.08s.01-.08.01-.08v-.08s.08-.13.08-.13l.07-.13.07-.14.06-.14.06-.14.06-.14.06-.14.05-.14.05-.14.05-.14.05-.14.04-.14.04-.14.04-.15.04-.15.03-.15.03-.15.03-.15.03-.15.02-.15.02-.15.02-.15.02-.15v-.15s.02-.15.02-.15v-.15s.01-.15.01-.15v-.15s0-.15,0-.15v-.15s0-.15,0-.15v-.15s-.02-.15-.02-.15v-.15s-.03-.15-.03-.15l-.02-.15-.02-.15-.02-.15-.03-.15-.03-.15-.03-.15-.03-.15-.04-.15-.04-.15-.04-.14-.04-.14-.05-.14-.05-.14-.05-.14-.05-.14-.06-.14-.06-.14-.04-.13-.04-.13-.05-.13-.05-.13-.05-.13-.05-.13-.06-.13-.06-.13-.06-.13-.06-.12-.06-.12-.07-.12-.07-.12-.07-.12-.07-.12-.07-.12-.08-.12-.08-.11-.08-.11-.08-.11-.08-.11-.09-.11-.09-.11-.09-.11-.09-.1-.09-.1-.09-.1-.1-.1-.1-.1-.1-.1-.1-.09-.1-.09-.1-.09-.11-.09-.11-.09-.11-.09-.11-.08-.11-.08-.11-.08-.11-.08-.12-.08-.12-.07-.31.03-.31.03-.31.04-.31.04-.31.05-.31.05-.31.06-.31.06-.3.07-.3.07-.3.08-.3.08-.3.09-.3.09-.3.1-.29.11-.29.11-.29.12-.29.12-.29.13-.28.13-.28.13-.28.14-.28.14-.27.15-.27.15-.27.16-.27.16-.26.17-.26.17-.26.18-.25.18-.66.37-.66.38-.65.39-.64.4-.64.41-.63.42-.62.43-.61.44-.61.45-.6.46-.59.47-.58.48-.58.49.05.08.04.09.04.09.04.09.04.09.04.09.04.09.04.09.03.09.03.09.03.09.03.09.03.09.03.09.02.09.02.09.02.09.02.09.02.09.02.1v.1s.03.1.03.1v.1s.02.1.02.1v.1s.01.1.01.1v.1s0,.1,0,.1v.1s0,.1,0,.1v.1s0,.1,0,.1v.1s-.01.1-.01.1v.1s-.02.1-.02.1v.1s-.03.1-.03.1l-.02.1-.02.09-.02.09-.02.09-.02.09-.02.09-.03.09-.03.09-.03.09-.03.09-.03.09-.03.09-.03.09-.04.09,1.27,3.06ZM431.68,357.24l4.95.73.15,2.62,2.48,2.77,1.75,3.06.44,3.06,1.31,2.91,8.59-.15,3.2-1.89-4.81-6.85-3.64-1.75-1.75-1.17,2.18-1.75,2.04-2.48-4.66-3.64-5.53-1.17-3.5-2.33-3.35-4.81-4.66-.87-4.81.44-3.93,3.35-.29,2.62,2.62.44,3.5-.15,2.18,1.75,1.31,3.64,1.17,3.35,3.06-1.75ZM469.84,353.17l2.04,2.33,4.22-.15,2.04-1.17,4.22-2.18.58-4.81-3.5-3.35-2.62-1.6-7.57.73-2.04,2.62-.44,3.93,3.06,3.64ZM587.26,291.64l2.39,2.39.08.77-1.93,1.47-.08,1.7,1.54,1.78,4.94.08,3.63-1.39,2.01-1.47,2.47-1.24,2.47.08,1.47,1.62,2.7,2.47,2.93,1.54,2.63,1.78,3.55,1.08,3.63-.08h5.41l2.16-1.31,1.62-.62,2.47-2.47.23-2.32-1.47-2.09-3.48-.62-3.71,1.24-3.09.31-3.4-.54-3.71-.85-3.86-1.16-2.55-.93-3.24-1.47-1.62-2.32-4.09-.93-4.87-.31-.85.93-4.4.93-2.01,1.93ZM818.31,341.47l-.8,4.18-10.36,2.99-7.76,1.99-.8,2.39-6.17-1.99-2.99,2.39-.6,3.18-1.19,2.39-4.78,3.99-5.18,3.38-1.39,4.98-1.2,5.18-2.39,5.57-2.79,4.58-3.38-1.99.4-4.18-6.58-.8-2.58,1.8h-4.39l-3.38,2.98-2.19-.39,2.59-3.39.59-2.19-6.77-2.39-3.98,2.59-3.98,3.58-5.18-.59-1.99-3.39-6.18.6,1.8,3.18,4.58,3.19-2.59,5.38-7.17,3.18-4.98-2.58-1.59-6.38-5.18-1.19-2.19,5.18-1,2.19-2.39-5.18-1.59-3.59-4.78.2-2.36.44.25-.69,2.97-7.92,2.8-.84,4.98-1.79-1-4.78-1.79-3.19,3.78-3.38,1.8-2.99-9.36-.6-2.59-3.78-1.59-1-1.34.51-6.04-3.62h-.01l-.41-.25-.37-.22-11.75-1-8.76.2h-3.59l-.31.89-.48-.29.99-4.58-.4-3.39-4.18-2.98,3.79-1.99,2.78-.2,2.59-2.99,1.4-1.27,4.18-.72,4.58-2.39,2.36-1.97h0l1.21-.22,3.19.99,5.97,1.2,7.57-1.4,4.98.6,2.99,5.38,2.39-5.58,4.98.8,2.19,6.57,5.18,1.99,2.38-5.37,4.19-2.79,7.17,1.59,3.38-3.19,1.2-4.58,5.77-1.99,1.4.4,5.17,1.99,2.59-.6,4.18-1.99-2.39-1.99-2.19-7.77,6.78,1.2,8.16,8.56,1.32,1.76v1.68l-3.78,3.98-10.96,4.18-6.97,4.38-1.79,4.98,4.38,3.79,6.37-5.18,2.99-1.59,3.19-.6-1.4,6.37-2.39,1.99,7.17-2.19,4.58-4.78,5.58-6.57,3.19-1.39,6.17.79h3.58l-4.97,6.57-8.97,5.78-3.58,4.38-.6,2.79,3.79,2.79,2.19-1,1.39,3.79,1.39,3.78,5.58-1.2,2.99-2.58-2.39-5.38-.2-3.19,6.97-2.59,5.18-2.59,7.56-1.99h8.57l4.98,1ZM788.71,305.97l3.58,2.79,3.58-2.39.6-4.18-.8-.6-2.79.4-4.18,3.98ZM662.8,302.59l-8.57,3.78-2.8,2.67,4.05,1.71,3.78,2.19,1.6.8v2.61l4.13-1.22.79-4.98-2.98-7.56ZM658.22,322.5l-3.77.8-.56,1.79-2,5.97.15.55,3.39,3.24,6.57-2.59,1-4.58-4.78-5.18ZM921.76,481.84l-3.86.38-4.78-.8-2.58-7.97-.08-1.74h-1.74l-2.39-1.79-1.2-3.39-1.89-.81-1.11-.14-2.17,2.35h-.08s.7,1.34.7,1.34l2.59,9.96.95,6.13,5.42,1.44,11.75-.2.6-4.58-.13-.18ZM970.55,461.67l-.69-1.31-5.38-2.59-3.98,3.39-1.11,2.58-.69,1.6.82,1.86,1.6-.12,8.64-2.52,1.42-1.7-.63-1.19ZM668.17,391.16l-6.17.19-1.59-1.99-1-1.39-3.38-1.2-2.99,1.2-1,2.79,7.37,4.78,5.98,1.79,2.98-1.2,2-3.58-2.2-1.39ZM707.41,405.69l-8.97-1.99-3.78-6.17-.2-3.39-9.36-.4-6.37-.39h-2.79l3.79,6.37,2.98,2.59,1.2,2.59,5.57-1.4,1.99,1.8,2.2,5.77-.8,5.58,5.77,4.38,3.99-1.4,3.78-4.97,3.59-3.79-2.59-5.18ZM816.05,380.17l-.31-1.56.6-4.38-.8-3.39-3.98-1.59-3.58-.2-1.4,2.99.4,6.57-3.95,8.07-.63,1.29-.8,5.97,8.57-.2,3.58-3.18,3.19-5.98-.89-4.41ZM885.24,412.27l-6.57-.2-7.57.59-4.38,3.19,5.38,3.78,3.19-1.39,2.19-.4,4.58,2.59,5.57-1.59,2.39-3.19-4.78-3.38ZM819.92,415.45l-7.56-.6-3.59,1.8-2.79,1.59-2.39,1.39,1.6,3.39,6.37.2,6.57-1.4,2.99-2.39.4-2.98-1.6-1Z" style="fill:#f0f; fill-rule:evenodd; stroke-width:0px;"/></svg>