<?xml version="1.0" encoding="UTF-8"?><svg id="a" xmlns="http://www.w3.org/2000/svg" width="1920" height="1080" viewBox="0 0 1920 1080"><path d="M971.76,463.98l-2,.58,1.42-1.7.58,1.12ZM1169.23,539.37l-.4,5.18-3.59,1.39-6.37,1.99-4.98,3.59-1.39,5.38-.4,5.97-3.33,3.66h-.01s-1.82,2.02-1.82,2.02l-.81.89-1.8.8-.28-.71-2.11-5.27-4.38-6.37-2.59-1.39-.17-.38-.82-1.81-.53-3.44-.27-1.74-4.78-7.37-11.75-1.39-3.38,3.98,1.39,3.38,3.98,4.78,2.19,8.97.32,4.11h0s-.12.14-.12.14l.16.3h0s.44,5.6.44,5.6l-6.57,5.18-6.77,2.19-2.95-2.06-.15-.58-.58.08h-.01l-.89-.63,1.19-6.77-7.96-5.17-9.16,1.39-1.8,6.77-2.39,2.39-4.38-3.78-6.37-4.19-4.18-1.39-5.98-3.98,1.8-6.57-2.59-4.19-5.18-5.37-3.39-5.58,4.98-2.99-.79-4.58-3.19-1.79-3.78-3.38-5.58.59-5.97-3.98-5.98-2.59-2.39,6.17.8,3.79,4.58,3.98.2,6.77-.4,4.78-2.59,5.38.8,3.98,4.18,1,6.97,1.39,2.39,4.78,2.39,6.57-6.57.2-1.4-2.79-3.78-5.77-1.4,1.79-1.59,3.78,2.99,5.78-1.2,6.17-3.58-1.79-7.37-1.59-2.79-2.19-4.78-2.39-4.98-3.19-5.97-1.99-4.18.8-.4,3.18-1.79,6.97-1.64-1.49-.55-.5-5.18-4.78-2.39,1-1.59,5.37-1,6.97-2.79,2.59-9.16-2.78-12.35-9.17-10.55-18.72,3.78-2.34,1.99-1.24,7.77,4.58,8.17.4,1.99-4.98-4.18-11.15-4.78-5.38-4.58-5.58-9.56-4.18-4.86-2.52-.52-.27-1.33.95-2.85,2.04-4.78.4-6.27-3.37-1.5-.81-3.18-3.79-6.58-1.79-1.19,6.77-5.38,4.19-6.97-2.59-5.57-4.58-1.6-6.18,1.6-8.76,2.39-4.58,3.18-7.97-4.18.8-4.38-.6-2.19-6.37,4.38-.8,1.35.36,5.42,1.44,11.75-.2.6-4.58-.13-.18-.87-1.22-.1-1.74h2.07l4.76-2.38-.56,3.87,2.49,4.78,2.79,2.79,9.46-.2,7.67-4.08,2.09-3.09-2.29-4.78-3.26-1.86,2.54-.43,4.78-3.58,6.77-1.4-.58-1.32,1.6-.12,8.64-2.52-3.26,3.91,7.6-3.43,2.55-1.15,3.39-3.98,7.96-5.18,13.35-6.17h2.19l11.75,1.99,4.38-3.38,8.16-5.98,6.57-2.39,9.56-1.19,4.19,3.98,11.15,3.58,7.19,2.21h.01l.56.18,2.2,6.97,9.95,3.99,4.78-5.58,3.98-.4,7.77-.79,6.37,5.37,3.39,9.56-.4,16.33,8.57,9.76,12.72,19.49.02.03,6.37,5.77,9.56,11.95,11.75,9.76h3.59l11.55-.4ZM998.76,514.33l-.8-2.59-4.98-2.19-3.18,4.98,1.99,4.58,3.18.59,3.79-5.37ZM1015.49,552.36l1.59-5.97-2.39-1.99-4.78-.2-1.99,3.39-2.39,2.98-1.59,3.99,1.59,5.97,3.38-2.39,2.99-6.17,3.59.39ZM1030.42,556.15l-.03-.02-4.15-3.17-7.57.6h-1.39l-.6,4.18,3.59,5.58,4.97,2.59,4.19-5.18.95-4.38.04-.2ZM1086.98,543.6l2.19,2.19,3.19-2.79.99-8.96-2.79-3.38-7.96,1.99v5.77l4.38,5.18ZM1094.55,550.17l-5.38-.39-4.18,2.58,3.18,5.78,3.59,1.39,1.99-1.39.8-7.97ZM1030.39,556.13v.22s.03-.2.03-.2l-.03-.02ZM1105.19,576.36l-.58.08.73.5-.15-.58ZM1121.15,565.6l-.12.13.16.3-.04-.43ZM1030.39,556.13v.22s.03-.2.03-.2l-.03-.02ZM1105.19,576.36l-.58.08.73.5-.15-.58ZM1030.39,556.13v.22s.03-.2.03-.2l-.03-.02ZM1121.15,565.6l-.12.13.16.3-.04-.43ZM1105.19,576.36l-.58.08.73.5-.15-.58ZM1121.15,565.6l-.12.13.16.3-.04-.43ZM1074.53,612.31l-1.79-6.57,2.59-5.38-3.78-6.77-2-1-6.97,1.99-8.76,5.78,2.19,5.77,3.79,3.19-.4,6.57,5.77,3.59.15,1.18,1.74-.19,4.59-1.99,3.1-1.07-.81-.72.59-4.38ZM1023.55,607.73l-3.68-5.08-3.29-5.48-2.99-5.87-5.27-2.29-7.97,1.49-.1,7.97-3.88,5.18-5.88-2.99-8.46,1.69-7.07.4-.71-4.21-7.55.82-2,7.17,8.37,1.4,6.17-1.8,5.98.4,6.97,1.99,4.58-2.39,3.18-.39,3.99,3.38,4.77,1.4,2.79,2.39,1,2.78.87.82,4.61-.42,6.37-1.59-.8-6.77ZM1049.44,628.44l-3.58-5.98-1.2-1.59-9.17,7.15,6.62,8.55,4.14-1.96,3.39-2.19-.2-3.98ZM1146.72,675.44l-7.17-4.38-10.35-3.99-1.4-6.57,1.4-3.38.2-3.19-10.36-9.96-2.59-2.99-2.36-1.45-2.52,2.65-5.37-1.79-5.98-1.99-3.58-3.59-5.9-5.31-1.77.53-2.39,4.58-2.99,1.79-5.97-2.78-2.88,1.5,2.38.89,5.98,4.38,8.56,5.77,7.17,2.39,8.96,2.59.6,6.57-2.59,4.19-5.78,1.79-7.36-.8-7.97-4.38-3.59-4.18-3.38-4.78-5.78-8.96-2.37.33-1.31,1.86.16,1.1v.03s1.14,7.67,1.14,7.67l.29,1.95,5.78,8.17,1.79,6.17,1.79,6.77,6.38,4.38,2.98,1.79,8.37.8,3.78-3.38,5.97-.6,2.59-4.58-.39-2.99,3.98,2.99,5.77,4.58,5.98,2.39,8.76,2.39,1.39,4.18,8.97,1.79,5.77-7.17-2.79-5.77ZM1254.76,473l-6.17-3.98-2.56-2.06-.43-.13-6.37-3.58-6.18-1.4-.34-.4h-5.03l-7.37.2-5.3-.36-.48-.03,1.4,3.98,4.18,1.79,3.09.99,1.89.6,8.96,1.6,8.76,7.56,14.94,3.19.4-3.38-3.39-4.59ZM1231.46,604.84l3.39,4.38,8.56,4.58,2.39-5.18-2.19-6.97-4.58-6.17-4.18-3.39-8.16-1.99-1.39,7.17,6.17,7.57Z" style="fill:#f0f; fill-rule:evenodd; stroke-width:0px;"/></svg>