<?xml version="1.0" encoding="UTF-8"?><svg id="a" xmlns="http://www.w3.org/2000/svg" width="1920" height="1080" viewBox="0 0 1920 1080"><path d="M350.51,293.25l-2.27-2.51,1.55-2.39,4.78-.6,4.18-.24,4.78.48,4.18,1.91v2.51l-7.89,2.15-6.81,1.2-2.51-2.51ZM388.89,263.96h7.41l8.49-2.15,1.43-5.86-3.47-2.15-4.9-.36-3.83,2.27-2.15,2.27-2.63-3.83-4.42.72-4.9,4.66-2.99,1.67-2.03,3.71,1.08,2.03,6.34.84,6.57-3.83ZM419.25,255.83l4.54-2.27,4.3-3.83-1.79-6.69-7.65-2.39-2.99,2.75-4.66,9.8,4.06,4.54,4.18-1.91ZM413.63,290.02l5.62-5.02,3.83-3.11,1.32-2.99,2.63-2.15,1.31-1.67.12-3.83-2.15-4.54-3.95-1.43-3.59,1.43-4.06,5.86-1.08,2.27-5.38,1.08-2.03,1.55-1.08,4.06,3.35,5.62,5.14,2.87ZM326.36,378.12l1.55,2.75,3.05-1.2,1.2-2.27.78-2.75-1.67-1.67-2.15-1.32-2.39-1.14-3.94,1.91-.3,1.49,2.27.66,1.61,3.53ZM325.6,359.57l3.83-.9h4.85l1.69,6.09,4.73,3.49,4.62-.45,4.4.34,7.33,2.71,4.28-3.04,11.05,3.04-2.14,4.17.79,9.02,6.09,3.94,9.58.79,6.42-4.73,4.62-3.94-.23-5.07-.68-3.16,1.24-2.37v-4.51l-1.92-2.37-2.14-2.37-2.25-3.16-2.82-3.61.68-2.82,3.49-2.7,2.82-.11,2.14,6.42,2.59-1.13,5.52-2.71.79-5.52-3.16,1.35-.68-.23-.9.34-1.69-.56-1.58-.9-.68-3.61,1.01-2.59.11-3.83-1.01-1.92.34-6.76,1.01-2.14.68-5.52-.45-2.48,2.93-6.88-3.38-2.14-3.38,1.58-3.04.68-3.49.68-3.94,1.01h-10.93l-2.25,3.72-3.61,3.61-2.03,1.58-1.92,2.14-1.92.68-4.4,1.69-1.24-2.03-3.27-.79-4.17.79-2.48,1.69-1.69,2.48-5.97,4.62.34-2.82v-5.07l-5.18-.9-1.8,2.37-3.16.34-3.04-1.13-3.61,2.03,1.58,3.61,7.44,3.83-2.14.9-1.8,1.8-.23,5.18-3.04,2.37-.34,2.59-1.47,3.72-2.48,2.82,1.47,3.16,1.8,1.69,1.47,1.92ZM409.39,335.98l1.31,1.31,4.81,3.2,2.62,1.31,4.81-1.02,1.02-4.66-3.79-5.53-6.99-1.31-7.14,2.62.58,3.79,2.77.29ZM410.56,377.63l.73,4.08,1.89,2.77,4.22.15,3.06-.15,2.33,1.46,5.39-.58,3.06-1.31-6.55-8.74-1.46-4.81-1.02-1.6-2.33,2.04-3.35-2.91-1.31-1.17-3.2,2.48-1.17,1.17.58.29-.87,6.85ZM473.65,228.62l1.24,5.56,5.87,1.85,6.8-4.33h4.33l.93,3.4,5.87,1.54,6.49-4.33-1.54-4.63-4.63-1.24-4.63.31-7.11-3.09-2.16-.62-3.09,1.85-8.34,3.71ZM460.36,250.55l4.63,4.02,3.71-.62,4.94-5.56-3.09-2.47-1.85-1.24-2.47.93-5.87,4.94ZM450.79,266.62l-.93,9.27,4.02,2.47,9.89-1.54h4.94l7.41-5.25-4.63-4.33-4.63-6.8-2.16-1.24-3.71.31-10.2,7.11ZM449.55,293.8l10.81,2.47,3.09-4.02,5.87-2.16,1.54,1.54,2.78,2.47-3.09,2.47h-7.41l-2.47,2.78,8.65,3.71,3.09-1.54,2.16-3.09,2.16-1.54,4.33-1.85,2.78.31.62,4.02.31,4.94v3.4l-4.02,2.16-4.94.31-4.63,1.54-3.4,3.09.93,4.94,4.33,4.02,4.63-1.54,4.33.62,3.09,4.33,3.4,3.09,5.25,3.09,5.25-1.85,5.25-3.4,3.71-3.4,2.47-4.02,4.63-2.78,4.33-4.94,1.24-4.94-3.09-7.41-9.89,1.54-12.98,2.16.31-5.56,2.47-3.71h4.33l4.33,1.85,2.47-3.4,4.33,2.47,5.56-.31,2.78-5.87-.93-6.49-5.25-4.02-.31-5.56,3.09-4.63-3.09-6.49-7.72-4.02-8.03-1.24-6.49.62-8.34,1.54-4.63,3.71.31,6.18,3.09,2.47-1.54,3.4,4.94,1.54.62,3.71-3.71,1.85h-4.94l-4.02-.62-1.54,2.16-3.71,2.16h-7.11l-4.63-1.54-1.24.62-5.56.62-.93,8.03ZM503.92,247.77l-.31,2.78,1.24,3.09,4.63,3.71h2.78l6.18-4.02.31-3.09,1.24-1.54,1.24-2.16-3.09-3.4-4.33-1.54-2.16-.62-4.63.93-3.09,5.87ZM519.37,265.38l2.78,3.71,4.02-6.49-1.54-2.78-.93-.93-2.16,1.85-2.16,4.63ZM535.13,273.41l-.31,3.4,3.4,3.4,5.87.93,1.54-6.8-.31-2.16,3.4-1.85-3.09-4.63-3.71.31-3.4,3.71-3.4,3.71ZM523.7,281.75l3.4,2.47,4.02-5.56-.93-1.24-.93-.31-4.33.93-1.24,3.71ZM559.22,274.65l3.71.31,3.71-3.09-.93-3.71-5.56-1.85-1.85,1.24-.31,1.24,1.24,5.87ZM548.1,278.05l3.09,4.48,4.94-1.08,1.24-2.32.93-2.78-2.16-2.16-1.24-.46-4.02.31-2.78,4.02ZM531.27,289.63l.62,1.24-2.01,1.08-2.78.62-1.85,1.54.15,1.39,1.54,1.85,4.94-1.08,2.63-1.54,3.24-1.24,2.47-.46,3.09-1.54,1.7-1.7.77-3.55-4.02-1.08-3.4.62-1.85.62-2.01-2.16h-1.7l-.31.15-1.39,1.24.15,4.02ZM550.73,289.32l-3.4.46-2.63,1.7,2.16,3.24,2.16.15-1.7,2.32-1.39,2.47,1.08,2.47,2.78,1.39,2.93.77h6.02l2.16-1.7,2.78-3.86.62-1.54,4.02-2.93,4.48-.46,3.86-2.01-.46-3.24-4.48-3.71-8.96-1.08-3.86,1.54h-.46l-4.79,1.39-2.93,2.63ZM531.11,313.42l1.39.46h1.39l1.85-.62,2.16-.15,1.54-.46.93-3.55-2.47-1.08-3.55-.15-1.54.77-.93,2.93-.77,1.85ZM518.6,318.98l.93,3.24,2.47,1.54.93.46,2.47,2.16.93-.31,1.08-4.63-1.85-2.63-.31-3.55v-.77l-3.71,2.16-2.93,2.32ZM537.75,316.51l-3.09,4.48-1.08,2.47.46,1.7,3.71,1.24,5.56-.62,3.24-1.85,4.33-.77,2.01-4.33.46-3.55-2.01-4.94-4.63-.31h-.62l-2.63,2.93-5.72,3.55ZM579,304.31l2.01,1.85,1.54,1.85-1.08,1.54-2.16,1.24-.15,2.93,2.32,3.86,2.16.77,3.4.15,4.33-.46,3.71-.62,2.78-1.39,2.16-1.39,1.08-2.47-.46-4.94-4.94-2.47-3.09,1.24-2.93-1.08-2.16-2.78-1.08-1.7-1.85-1.08-2.32-.93-2.16,2.01-1.08,3.86ZM481.37,406.8l2.63,3.55,3.17,1.47,2.78,1.24,4.79-1.54,3.32-.77,3.32-1.78,2.01-3.09.15-2.93-.54-4.33-1.78-2.7-6.8-.93-2.93,4.09-1.62,3.17-1.24.62-3.94-.46-1.78,1.47-1.54,2.93ZM520.68,407.88l4.02-2.16,2.32-1.62,2.32-.46,2.63-2.24,2.78-.62,1.47-4.25,3.71-1.54,2.78-.31.39-4.25-3.55-2.24-4.63,1.54-2.7,1.54-3.86-.46-4.71,3.09-2.32,2.16-1.78,2.16-2.47,4.09-.7,1,.15,4.02,4.17.54ZM552.27,430.51l-.38-4.01-1.62-3.56-3.02-2.39-2.78.93-.29.08-2.8,1.61-6.79.39-5.02-1.39-2.86-2.01-3.71-1.08-4.55,1.55-2.98-.81-3.05-.2-3.47,2.16-2.63,4.56,1.62,6.33,4.4,2.48,3.4,1,4.02,1.54,3.78,3.09,2.55,3.17,2.78,2.16,2.32.31,4.71-2.93,4.48-.39,4.94-.23,4.71-2.55,2.4-4.09-.16-5.72ZM583.16,388.95l-.25-1.08-1.39-4.18-3.78-1.4-3.99,1.2-2.98-2.39-.6-3.59-3.78-2.39-5.18.6-1.01-4.72-.39-1.85.49-2.56.51-2.62-2.19-3.38-.15-.04-5.83-1.56-1.39,1.4-2.59,2.59-.99,5.97,1.99,5.78,4.38.39.6,2.79,4.18,1.79.99,1,.4,3.39,4.18,3.38,2.19,2.39.2,3.59,1.6,3.78,6.57.8,5.77-2.19,2.99-4.58-.55-2.31ZM568.38,403.4l.8,1,4.78,1.39,2.79-2.79.6-2.59-7.17-1.39-.4.8-1.39,3.58ZM569.77,420.13l2.39,3.39-1.99,1.79.2,2.59,2.79,1.59-2.59,1.59-1.79,1.79,5.97,2.79v3.39l-6.97,2.99-2.59,1.19h-4.98l-1.39,4.38,4.98,6.97-.2,6.37,1,4.18,2.39,3.78,3.58,2.99,6.77,1.79,4.78.8.8-1.39,3.98-.2,3.98-1.39-3.39-4.38,1.19-4.58,4.18-3.39,4.78-3.58,1.99-6.37-3.39-6.57-1-4.18.6-5.38-2.79-5.38-5.38-2.79-1.79-3.78-3.58-4.58-5.78-3.39-5.38,1.79-1.39,5.18ZM567.58,483.86l-2.79.6-4.98-1-2.59,1-1.39,1.59-3.58-.4-.4,4.38,5.38,2.39,2.99.4,2.99,2.59,2.39.2,2.99,4.38.2,2.99,8.16,2.79,2.79-2.99-1.39-4.78-5.18-5.58,1.19-1.39,3.58-6.57,1-2.59,2.99-5.97-3.39-1-4.38,1.19-3.98,3.58-2.59,4.18ZM547.86,461.95l-4.38,1.99-4.58,1.59-2.79,2.99,9.56,1.79,3.98-2.39,5.38-3.39.4-6.17-.8-1-4.18.2-2.59,4.38ZM597.85,471.31l-1.59,2.79,2.99,1.59,3.78-1.79,2.19-2.19,1.59-4.18-2.79-4.18-1.59-.6-1.59,2.59-2.99,5.97ZM630.71,361.38l-.3.39,2.17.36.38-.15-2.25-.6ZM632.38,373.68l-3.19,1.39.33.85,7.42-2.86-4.56.62ZM997.94,437.26l4.78,8.56-.5,2.74h-.87l-13.35,6.17-7.96,5.18-3.39,3.98-2.55,1.15-2.25-.9-.09-.16-.58-1.12-.63-1.19-.69-1.31-5.38-2.59-3.98,3.39-1.11,2.58-.69,1.6.82,1.86.58,1.32-6.77,1.4-4.78,3.58-2.54.43-1.62-.93-8.16-.19-7.47,1.79-1.1,1.59-.04.31-4.76,2.38h-3.79l-2.19-.6-.99-1.39-3.19-7.17-1.99,1.99h-1.99l-2.39-1.79-1.2-3.39-1.89-.81-.89-.38-.22.24-2.17,2.35h-.08s-3.11.59-3.11.59l-1.39-1.79,4.78-3.38,5.37-.8,1.79-4.98-4.18-.6-6.57,3.19-4.78,1.79-5.18.6-4.58-1-1.19-2.19-1-6.77-5.18,2.99-.19,2.59,3.38,5.77-1.19,3.39-6.18.8-3.98-1.4-2.59-2.19.6-2.39-3.19-1.79-1.59-2.39-1-3.39,6.77-1.19,2.59-2.99-2.79-.4-5.97,1-5.38,1.39-5.17,1.4-4.78,1.39-4.19-1.99-4.58.6-5.57,2.39-3.79,2.59-1.79,3.18,2.19,2.59,2.79,2.59h3.98l4.78-1.39,8.37,1.79,4.58,1.19,8.96-.59,4.18,1.99,1.79,3.58-.4,3.98-4.58,1.8-5.97-.6-3.39.8-5.77-.6-1.99,1.59.2,4.58-7.57-.99-6.57-1.99-6.38-1.4-2.58-.8-5.78.6-4.98.2-4.78.2-6.57,1.99-6.17-.4-4.78,3.19-3.79.2-7.17-2.99-8.16-5.97,7.77-4.38-4.39-2.19-4.38.99-2.98,3.19-3.79,6.17-4.98,1-8.16-1-3.59-2.59-2.98-4.98-4.58-3.58-5.78-2.19-2.19-2.99-2.99-7.96-.2-5.98,1.4-5.38.2-2.19-1.4-.99-1.19-1.99-4.38-7.97-4.98-.6-2.79,3.39-3.98,2.59-3.39-4.18-6.97-.6-.4,2.98-1.79,1.8-2.99-.6-2.98-2.19,1.99,5.58-3.19.59-5.57-2.59-2.79-4.58-3.59-.79-3.18-3.59-3.99-2.59-.99,3.19,2.59,5.77,3.78,4.78-.2,1-1.79,1.79.4,1.99-4.58,1.8-4.18-2.19-2.19-3.19-5.78-4.18-3.19,1.39-1.19,1.79.99,4.58,4.98,2.19,3.79,5.58,3.58,5.98-3.18,3.18-1.6,4.18-2.99,2.19-5.37,1.2-2.39-1.79-.4-1.99-.2-3.79-1.39-3.38-1.2-2.19-2.79-1.4-1.99,1.4.2,4.38-1.99,5.17-4.18,1.8-3.59,1.79-.99,3.98-3.79,3.19-2.59-3.39-4.38.2-4.38,2.19-6.17-4.58-1.4-7.17-.39-5.17-1.8-4.98,1.2-5.18,2.79-3.59-.8-2.98-2.99-2.99-4.98-3.59.2-5.57,3.99-.2,3.58,2.19,4.78,2.79,2.79,5.97,4.58,5.78,3.19,3.18,9.16-.79-.6-4.98-4.58-1-5.18-1.79-4.78-4.78-4.38-6.37,4.58-3.19,7.57-2.79,4.18-1.39,7.77-3.19,2.39-3.98-2.19-1.99,1.19-3.78,1.2-5.18v-5.98l-3.79-1.99-3.38-1.99-7.37-3.58-5.58-3.19-.84-1.21-2.74-3.97,3.18-5.77,2.79-1.6,3.59-1.99,3.18-1.99-2.39-6.17,2.69-3.4,2.17.36.38-.15.74.2-.8,2.99,1.99,3.58,2.39,4.18-.34.13-4.56.62-3.19,1.39.33.85-3.79,2.99.4,4.38,3.39,2.99,2.39.99,11.15,4.38,4.98-3.58,5.77-2.39,4.78-3.19,8.36-4.18-1.59-5.77-3.18-1.8-2.81-.83-4.56-1.36,1.39-6.97,6.77-2.79,4.22,1.74.16.06.4,10.35h2.79l3.78,1.4-.2,8.16.8,7.37,11.55,1.99,3.76-6.02.22-.35,3.02-.56,2.36-.44,4.78-.2,1.59,3.59,2.39,5.18,1-2.19,2.19-5.18,5.18,1.19,1.59,6.38,4.98,2.58,7.17-3.18,2.59-5.38-4.58-3.19-1.8-3.18,6.18-.6,1.99,3.39,5.18.59,3.98-3.58,3.98-2.59,6.77,2.39-.59,2.19-2.59,3.39,2.19.39,3.38-2.98h4.39l2.58-1.8,6.58.8-.4,4.18,3.38,1.99,2.79-4.58,2.39-5.57,1.2-5.18,1.39-4.98,5.18-3.38,4.78-3.99,1.19-2.39.6-3.18,2.99-2.39,6.17,1.99.8-2.39,7.76-1.99,10.36-2.99.8-4.18-4.98-1h-8.57l-7.56,1.99-5.18,2.59-6.97,2.59.2,3.19,2.39,5.38-2.99,2.58-5.58,1.2-1.39-3.78-1.39-3.79-2.19,1-3.79-2.79.6-2.79,3.58-4.38,8.97-5.78,4.97-6.57h-3.58l-6.17-.79-3.19,1.39-5.58,6.57-4.58,4.78-7.17,2.19,2.39-1.99,1.4-6.37-3.19.6-2.99,1.59-6.37,5.18-4.38-3.79,1.79-4.98,6.97-4.38,10.96-4.18,3.78-3.98v-2.79l2.19-2.79,5.78-1.59,7.96-2.19,6.77-.2,2.59,2.19,7.77,1,4.78.39,5.97-.99,1.79-2.99-.39-4.38,3.58-1.59,5.78-2.19,2.58-6.78.8-1.79,2.59-3.38-.4-4.19-2.19-5.77,3.98-1.2,8.17,3.99.99-6.37,2.2-1.4,9.16,4.18,7.17.2.39,2.79-1.59,3.19,1.39,4.18,5.38-1.59,7.77-3.99,2.19-3.98,6.37-7.97.6-6.57-8.56-1.39-2.2-1.99-4.18-1.4-2.19-.4-2.19-3.58-.79,2.99h-5.18l-7.17-1.2-5.58,2.39-5.57,2.59-8.97,1.99-6.17-4.18,2.99-3.19,5.37-2.39,3.39-5.37,4.58-1.4,8.36-1.19,2.59-1.79,2.39-2.79,7.37-2.99,8.17-.2.4-1.99-4.39-3.58.8-4.98h5.58l2.39,2.19,5.37-1.99,1.2-3.59.6-4.78,3.38,1.79,3.98,3.79,1.4,2.19v3.58l-3.19,2.39-3.78,4.38.4,3.19,4.98,2.59,5.57,6.57,1.4,2.99,3.18,4.98,2.59.99,2.19-.4,7.37-.79,5.97,3.58-3.78,6.18-1.19,4.78,4.77,6.17,3.19,1.99v2.19l-2.39,2.19-4.78.8-7.17-1-3.98,1.99,1.79,4.98.6-.79,9.76,1.99v2.79l.79,3.98,6.58,1.99.39-2.19,3.39-3.78,2.59-.4,5.97-.6-.4-1.99,4.39-3.79h3.38l5.78-.39,4.38.39,6.77,1.2,11.75,2.99,8.36,4.58,9.96,7.56,2.79,2,3.98,9.55.8,7.97,6.77,4.38,6.37,6.77-3.58,3.99-3.39-1.6-4.18-2.19-7.77,1.2-3.98-2.99-6.17,1.59.59,5.58,6.97,4.18,7.97,4.58,2.79,5.18-9.16,1.19.39,1.8-.59,7.96-2.99,3.59-1.79,3.98,2.79,2.19,1.19,1.99-2.19,1.79-1,1.2-1.59,3.98v5.58l-.6,6.37,2.39,6.77,3.39,4.78,7.17,14.34,2.59,4.58,2.59,5.18ZM670.37,392.55l-2.2-1.39-6.17.19-1.59-1.99-1-1.39-3.38-1.2-2.99,1.2-1,2.79,7.37,4.78,5.98,1.79,2.98-1.2,2-3.58ZM710,410.87l-2.59-5.18-8.97-1.99-3.78-6.17-.2-3.39-9.36-.4-6.37-.39h-2.79l3.79,6.37,2.98,2.59,1.2,2.59,5.57-1.4,1.99,1.8,2.2,5.77-.8,5.58,5.77,4.38,3.99-1.4,3.78-4.97,3.59-3.79ZM752.81,409.28l1.79-4.18-2.39-2.19-3.18-2.59-4.78-3.19-3.39-2.59-6.17,1-4.78,4.98-1.59,3.98,1.59,3.98,3.78,1.59,6.58,1.6,2.98-1,.4-3.38,3.78,1.19,5.38.8ZM780.49,426.8l-2.39-5.37-3.98-2-11.55,1-4.58,1.59-4.38.2-3.19,2.19-1.19,7.17.4,5.78,5.17-1.79,6.97-2.2,1.8-.39,8.16-1,4.98-1.19,3.78-3.99ZM803.79,365.47l5.78-1,3.98-6.77-2.79-1.99-7.76.6-2.79.99-2.39.8.4,6.17,5.57,1.2ZM801.6,393.94l8.57-.2,3.58-3.18,3.19-5.98-.89-4.41-.31-1.56.6-4.38-.8-3.39-3.98-1.59-3.58-.2-1.4,2.99.4,6.57-3.95,8.07-.63,1.29-.8,5.97ZM821.52,416.45l-1.6-1-7.56-.6-3.59,1.8-2.79,1.59-2.39,1.39,1.6,3.39,6.37.2,6.57-1.4,2.99-2.39.4-2.98ZM838.44,370.84l-8.96-.59-3.78-.22-2.99-.18h-.79l.39,3.38,1.54,1.85,1.45,1.74,2.79.99,3.98,1.6,4.58-3.99,1.2-2.98.59-1.6ZM862.34,312.29l3.19,6.97,8.56-1.19,6.77-.8,7.97,1,10.35-3.19,5.58-.99,3.78-4.19-.79-3.78-10.16-1.19-11.75-1.4-8.76-.4-10.95,1.99-2.19,1.4-1.6,5.77ZM867.92,355.51l5.77-1.59,1.8-3.79-5.78-2.99-17.33,3.59-.59.4-5.58,2.79v6.97l7.97-2.99,7.17-1.99,6.57-.4ZM890.02,415.65l-4.78-3.38-6.57-.2-7.57.59-4.38,3.19,5.38,3.78,3.19-1.39,2.19-.4,4.58,2.59,5.57-1.59,2.39-3.19ZM905.96,447.61l-2.79-2.59-4.98.2-4.18,1.2,4.38,4.98,4.58.79,2.99-4.58ZM910.93,369.25l-2.19-5.78-4.58-1.79-8.76,1.2,2.99,1.99,1.79,2.19-4.58,3.58-6.17,2.79,3.98.6,6.17,2.59,7.37-3.39,3.98-3.98ZM921.89,344.95l-1.4-5.97-7.37-3.59-5.17-.39-7.17.39-4.38,2.79.39,4.78,3.79-.79,3.78-.6,8.17,1.19-1.8,2.39-6.37,2.79,1.4,2.99,9.16-2.19,6.97-3.79ZM585.6,518.06l-.85,2.84-3.98,2.74-1.05,3.93,3.04,1.19-.2,3.63,3.19,1.1,2.24-2.49,2.59-3.73,2.44-3.24-1.49-5.87-2.49-2.89-.95-1.39-2.94.4.45,3.78ZM654.21,487.69l8.76,4.78,4.98-7.17-6.97-6.77-6.57-3.19-3.58,3.19,3.39,9.16ZM696.83,476.14l5.38,2.79,6.77-1.99,2.79,3.58,6.37-2.79-1-5.38-6.77-3.58-5.38-1.99-5.18,3.58-2.99,5.78ZM844.42,463.05l3.39.6h4.98l1.79-1.99v-2.39l-2.59-1.39-2.59.4-3.58.2-3.19,1.39,1.79,3.19ZM873.1,482.96l6.97,1,4.78-1.79,7.97,2.19,2.39-3.19-5.58-3.39-1.59-3.19-6.77-.6-5.38,1.59-2.79,7.37ZM591.75,355.56l5.18,1.89,3.29,1.1,4.03.7,4.33-1.19-1.94-4.18-4.88-2.54-4.53-.8-3.29,1.69-2.19,3.34ZM659.26,312.94l-3.78-2.19-4.05-1.71-1.13-.48-.99,1.39-4.19,4.58-4.18,2.39-1.79,4.58-4.38-.59-8.37-3.39-5.57,1.59-.6,8.77,5.78,2.39,6.17,2.78,3.19,4.39,5.37,3.38,2.39-2.79h5.38l4.58-2.59-1.05-3.83-.15-.55,2-5.97.56-1.79.43-1.4,5.98-4.78v-3.38l-1.6-.8ZM674.4,322.5l-.4-1-3.78-.59-3.19,1.79-1.79,4.98,1.99,3.18.4-.07,4.18-.72,4.58-2.39,2.36-1.97h0l.02-.02-4.38-3.19ZM647.11,342.81v3.78l5.38,2.39,2.79-.6,2.79-5.97-.4-.6-4.78-.6-5.78,1.59ZM686.15,348.59l-.23.02.41.25-.18-.27ZM716.02,287.25l-2.19,4.38-2.99,1.59-5.78,2.99-6.17,5.97,1.19,5.58,3.39,5.18,2.39,4.98,5.78,2.79,5.78,2.39,1.19-4.18-1.59-3.58-2.59-8.36,2.39-3.58,3.58-2.99v-4.38l2.19-3.78,4.18-2.99,2.79-5.18-9.36-2.19-1.59,1-2.59,4.38ZM731.35,298l-5.78,3.98-4.18,4.18-.4,7.57,3.98,3.98,3.98-.2,4.98,1.79,5.97-1.39,1.99-5.78-3.98-6.17.6-4.58,4.78-5.58-.2-4.18-4.78-3.58-5.38,3.78-1.59,6.17ZM772.98,277.49l3.78,5.78-3.39,5.78,1.79,5.18,9.96-3.78,2.39-3.19,5.78-3.78,2.19-4.98-3.78-7.37-4.78-.4-4.38-3.19-4.98.2-1.79,3.19-2.79,6.57ZM801.05,275.9l1.99,7.57,7.37-1.39,2.59-5.78-5.58-4.18-1-.8-.8,1.59-4.58,2.99ZM861,223.52l4.78,2.19,6.37-2.39,5.18-2.19.2-3.58-1.79-2.79-4.38-2.19-5.18,1.19-2.39,1.19-5.38,3.19,2.59,5.38ZM788.71,305.97l3.58,2.79,3.58-2.39.6-4.18-.8-.6-2.79.4-4.18,3.98ZM707.26,357.35l-9.36-.6-2.59-3.78-1.59-1-1.34.51-6.04-3.62h-.01l-.41-.25-.37-.22-11.75-1-8.76.2h-3.59l-.31.89,4.89,2.9,4.58.59,4.19.8,3.38,1.39,2.59-1.19,2.37-1.13,5.6,3.92,4.18,3.58-1.99,3.19,3.38.99-2.79,5.58-2.58,4.38.59,2.99.73-.22-2.72,1.81-1.39,2.99.59,1.59,3.49,1.2.22-.35,3.02-.56.25-.69,2.97-7.92,2.8-.84,4.98-1.79-1-4.78-1.79-3.19,3.78-3.38,1.8-2.99ZM588.17,329.07l3.78,3.39,6.57,5.38,5.18,4.58,8.36,1.39,8.56,1.99,7.37-7.37-5.58-4.38-7.97-2.99-9.56-1.39-7.77-3.19-5.78-1.19-3.19,3.78ZM989.8,394.39l4.78-3.78v-3.19l-5.97-1.59-1.19,1.79-1.79.2,4.18,6.57ZM971.18,462.86l-1.42,1.7,2-.58-.58-1.12ZM903.17,445.02l-4.98.2-4.18,1.2,4.38,4.98,4.58.79,2.99-4.58-2.79-2.59ZM1254.16,460.46l-2.98-3.59.59-5.57-3.98-7.17-8.16-4.18-4.39-2.39-7.36,2.39,7.96,7.76,1.79,4.58-10.95-3.38-3.38-4.18-7.37,1.39,1.39,3.19,5.18,5.17,7.37,3.59,2.84,3.38.34.4,6.18,1.4,6.37,3.58.43.13,4.35,1.27,4.78-2.79-1-4.98ZM1208.36,436.36l2.39-4.58,4.38-1.19,3.39-2.59-.8-2.79-4.18-2.19h-10.55l-3.19,3.58,1.39,2.39,7.17,7.37ZM1142.64,423.22l-3.78,6.57,6.77,2.99,2.79-2.19,7.97,1.99,10.16.6,2.59-3.98-5.97-5.78-9.36,2.19-3.39-1.79,2.59-3.98-6.17-3.19.8,1.39-4.98,5.18ZM1137.26,399.32l1.59,6.37,3.98,6.17,5.38.8.4-7.77,1.19-4.78,2.19-7.37-2.99-4.98-5.38-4.18-6.77-1-2.39,3.98-.6,5.78,3.39,6.97ZM1330.63,510.64l8.56,4.38,7.57-1.39-.6-4.18-9.56-3.98-2.59-.4-2.59-1.19-.8,6.77ZM1312.91,470.62l-5.37,1.56-5.58,1.62h-.02l-.38.2-2.93-.34-1.45-.06-5.18-.6-3.98,1.2-1.6,5.18,10.16,2.59,8.56-2.79,8.77-.4,2.82-4.23.76-1.15-4.58-2.78ZM1354.93,499.89l.4,7.77,5.38-.6,3.78-5.78,3.98-6.37-3.19-7.57-5.38,2.59-2.59,2.59-2.39,7.37ZM1358.52,471.41l7.37,4.78,5.58-4.58,9.36-.4,6.97-5.38,2.59-6.17-7.57-.8-9.76,5.18-4.38-1.39-3.58-.4-6.57,9.16ZM1402.13,447.71l5.58-1.99,2.99-2.99,2.39-3.98-3.58-2.39-9.16,1.99,2.59,3.98-.8,5.38ZM1697.66,458.59l-13.34-6.67-25.69-5.38-16.73-8.16-22.9-14.54-21.51-3.78-17.13-8.96-10.35-4.19-6.09-3.13.02-.92,8.66-4.51,8.36,2.79,8.76-1.6.71-1.03,3.68-5.34,6.57-2.99,2.79-6.57-2.19-5.17-27.09-6.78-16.73-3.18-13.14-4.78-24.1-13.74-17.72-.8,1.19,6.57,15.34,6.57,9.76,2.99v6.37l-16.33-.59-5.78,2.19-24.89-4.18-22.71-4.58-12.54-5.78-20.12-1.2-7.16,2.2,3.58,7.76,28.68,7.37,19.71,1.99,5.78,4.38-17.33,1.2-16.93-1.4-8.36-.79,4.58,2.19,9.34.6h.02l9.16.59h18.92l7.37.8,4.58.2,6.97-3.19,2.65-.24,1.73-.16,4.1.37.68.03.28.06,1.51.14,4.98.2,5.98.8,1.48.53-2.68-1.53-3.78-2.39-2.39-5.18,6.97-2.78,8.76.59,3.78.2h2.79l10.16,1,7.17,4.38,9.56,3.39,2.39,6.37-2.39,2.79-5.78,1.39h-14.94l-5.77.4-14.34.4-9.56.2-6.57,8.16,11.15,1.59,8.76,2.19,5.58,1.8-.6,3.98h-.06l6.64,1,11.15.59,16.92,3.79,5.38,7.17,22.11,4.97,5.57,2-4.78,5.77,9.96,4.58,13.54,2.79,4.58,3.98,4.38,2.59,11.16,4.38,4.98,4.98,3.18,2.79-1.39,4.38,8.16,5.38,14.34,2.39,14.34.59,12.94-.19,6.78-3.79,2.19-10.95-1.4-.7ZM1504.49,381.42l-.68-.03.96.09-.28-.06ZM1504.49,381.42l-.68-.03.96.09-.28-.06ZM1728.69,472.39l-3.35-4.14-5.97-3.58-6.37-2.59-3.59-8.77-3.18-5.37-3.99-4.58-4.98-4.78,1.81-3.25-5.89-1.72-.1.39-5.66.39-.13.03-2.77,2.56-5.58-2.19-3.58-5.97.15-1.22-.15-.17-6.57-2.2-3.39-4.18,1.59-5.18-2.78-7.16-5.38-3.19-11.15-3.78-8.37.39-4.78-4.78-5.37-3.18-6.18-.6-3.58-.4-4.38-2.19.2,1.79-8.17,6.38-1.62,2.85-2.56,4.51,3.58,5.98,7.17,1.99,11.55,2.79,7.37,1.99,6.37.2,4.19,2.99,4.97,4.18,11.36,4.78,3.18,4.58,4.78,1.79,7.17,2.19,5.78,1.4,5.37,1.79,4.39.18h.03l.56.02,3.79.59.48,1.49,7.08,3.09.3,4.32,1.89,1.26.6,8.37,9.56,6.57,8.76,4.58,5.98,4.18-.44-5.42ZM1699.45,424.84l-2.19-4.78-5.31-4.28h0s-.86-.7-.86-.7l-1.59,8.16.2,3.99,4.09,2.99,1.08.79,1,2.99,1.39-1.6,5.38-2.58-3.19-4.98ZM1723.95,456.3l7.77,4.58,6.37-.8,3.78-8.56-3.98-4.38-6.37-1.59-3.98,1.79-3.58,8.96Z" style="fill:#f0f; fill-rule:evenodd; stroke-width:0px;"/></svg>