<?xml version="1.0" encoding="UTF-8"?><svg id="a" xmlns="http://www.w3.org/2000/svg" width="1920" height="1080" viewBox="0 0 1920 1080"><path d="M459.64,345.01l-6.26-2.62-1.31-.73-3.35-2.33-2.33.44-5.97.87-3.93-2.91-.15-5.39,2.18-5.1,4.66-3.5,2.62.73,4.22,3.35,3.35,3.5,4.95-.29,3.5.29,4.51,2.18-.29,4.81-2.91,3.5-3.5,3.2ZM554.36,411.2l-.62-3.94-1.93-2.24-5.1-.77-7.64-.54-6.03,3.86-4.25,3.56-8.57,2.7-5.48,2.78-.54,2.86,1.27.35,2.98.81,4.55-1.55,3.71,1.08,2.86,2.01,5.02,1.39,6.79-.39,2.8-1.61,1.76-1.01,5.56-1.78,3.01-6.18-.15-1.39ZM630.41,361.77l-1.42-.24-8.56-1.39-6.97,2.39-5.18,4.58-6.37.99-8.37-.79-.99,5.18-3.79,1.99-6.57,2.19-3.98,3.18-7.57-6.97-2.79-7.36,1.4-7.37-1.2-6.18-2.59-3.18-6.37-2.19-2.99,6.77,1.6,5.97.77,1.21.15.04,2.19,3.38-.51,2.62-.21,3.31.11,1.1,1.01,4.72,5.18-.6,3.78,2.39.6,3.59,2.98,2.39,3.99-1.2,3.78,1.4,1.39,4.18.25,1.08.23.06,5.37,4.39,4.78-2.59,2-1,7.17.2,5.17-.6,4.38-.99,3.59-.4,4.26-1.36-2.74-3.97,3.18-5.77,2.79-1.6,3.59-1.99,3.18-1.99-2.39-6.17,2.69-3.4ZM645.92,361.33l-6.17-1.99-6.79,2.64.74.2-.8,2.99,1.99,3.58,2.39,4.18-.34.13,4.2-.57,4.98-4.39-.2-6.77ZM665.36,372.54l-3.18-1.8-2.81-.83-4.69,1.98-5.77,1.19-6.77,4.78-9.56,1.8h-1.6l-1.46-3.74-3.79,2.99.4,4.38,3.39,2.99,2.39.99,11.15,4.38,4.98-3.58,5.77-2.39,4.78-3.19,8.36-4.18-1.59-5.77ZM694.31,363.52l-3.38-.99,1.99-3.19-4.18-3.58-5.6-3.92-2.37,1.13-2.59,1.19-3.38-1.39-4.19-.8-4.58-.59-4.89-2.9-1.08,3.1,6.17,3.18,3.39,1.99-1.59,2.79-.6.8-.24.19.16.06.4,10.35h2.79l3.78,1.4-.2,8.16.8,7.37,11.55,1.99,3.76-6.02-3.49-1.2-.59-1.59,1.39-2.99,2.72-1.81-.73.22-.59-2.99,2.58-4.38,2.79-5.58ZM588.17,329.07l3.78,3.39,6.57,5.38,5.18,4.58,8.36,1.39,8.56,1.99,7.37-7.37-5.58-4.38-7.97-2.99-9.56-1.39-7.77-3.19-5.78-1.19-3.19,3.78ZM603.9,411.72l6.57-4.18,1.19,4.18,1,1.99,10.36-.2,1.39-5.38,4.18-4.58,2.79-5.38-10.95-5.78-5.78,2.59-11.35,2.79-9.16.8-2.19,3.98-2.59,7.57,5.78,3.78,8.76-2.19ZM954.3,550.21l-1.45-.93-3.98-3.89-1.09-3.08.69-7.77-1.09-7.87.46-3.68-2.85,2.04-4.78.4-6.27-3.37-7.57,5.31-.3,6.27,9.86,9.07,1.99,2.39,6.27,7.07h7.47l2.89-1.7-.25-.26ZM778.1,421.43l-3.98-2-11.55,1-4.58,1.59-4.38.2-3.19,2.19-1.19,7.17.4,5.78,5.17-1.79,6.97-2.2,1.8-.39,8.16-1,4.98-1.19,3.78-3.99-2.39-5.37ZM752.21,402.91l-3.18-2.59-4.78-3.19-3.39-2.59-6.17,1-4.78,4.98-1.59,3.98,1.59,3.98,3.78,1.59,6.58,1.6,2.98-1,.4-3.38,3.78,1.19,5.38.8,1.79-4.18-2.39-2.19ZM810.76,355.71l-7.76.6-2.79.99-2.39.8.4,6.17,5.57,1.2,5.78-1,3.98-6.77-2.79-1.99ZM829.48,370.25l-3.78-.22-2.99-.18h-.79l.39,3.38,1.54,1.85,1.45,1.74,2.79.99,3.98,1.6,4.58-3.99,1.2-2.98.59-1.6-8.96-.59ZM869.71,347.14l-17.33,3.59-.59.4-5.58,2.79v6.97l7.97-2.99,7.17-1.99,6.57-.4,5.77-1.59,1.8-3.79-5.78-2.99ZM920.49,338.98l-7.37-3.59-5.17-.39-7.17.39-4.38,2.79.39,4.78,3.79-.79,3.78-.6,8.17,1.19-1.8,2.39-6.37,2.79,1.4,2.99,9.16-2.19,6.97-3.79-1.4-5.97ZM908.74,363.47l-4.58-1.79-8.76,1.2,2.99,1.99,1.79,2.19-4.58,3.58-6.17,2.79,3.98.6,6.17,2.59,7.37-3.39,3.98-3.98-2.19-5.78ZM907.75,306.12l-10.16-1.19-11.75-1.4-8.76-.4-10.95,1.99-2.19,1.4-1.6,5.77,3.19,6.97,8.56-1.19,6.77-.8,7.97,1,10.35-3.19,5.58-.99,3.78-4.19-.79-3.78ZM949.27,475.79l-3.26-1.86-1.62-.93-8.16-.19-7.47,1.79-1.1,1.59-.04.31-.56,3.87,2.49,4.78,2.79,2.79,9.46-.2,7.67-4.08,2.09-3.09-2.29-4.78ZM1141.94,564.26l-4.38-6.37-2.59-1.39-.17-.38-2.02,2.42-7.56,6.17-3.99,1.4-.04-.07.44,5.59-6.57,5.18-6.77,2.19-2.95-2.06.66,2.51.2,1.39-2.79,2.19-1.39.8-8.37-.8-7.77-.59-7.36-.6-5.18,4.38,1.79,4.78,4.38,5.18,7.77-1.4,6.37-1.79,7.37-1.79,10.16-1.59,5.17-2.99,6.38,2.19,1.99-.8,3.98-2.39-.2-3.98-.2-4.18,2.59-4.18,6.77-2,5.38-1.19,1.01-.56-2.11-5.27ZM1204.58,555.65l10.36,2.39,4.38.2,1.79-6.17-2.19-5.18-5.38-4.18-7.57-1-4.38,1.19-3.39,3.39,1.99,2.59,4.38,6.77ZM1559.06,380.83l-9.56-3.39-7.17-4.38-10.16-1h-2.79l-3.78-.2-8.76-.59-6.97,2.78,2.39,5.18,3.78,2.39,2.68,1.53.11.06-2.59.8-11.47-2.53-.96-.09-5.83-.21-2.65.24-6.97,3.19-4.58-.2-7.37-.8h-18.92l-9.16-.59h-7.77l-7.76-1-7.57,3.58,8.76,8.97,19.12,4.38,16.13.99,22.11,3.39,4.58-.6,4.64,1.27,8.5,2.32,7.95,2.29,9.91,1.49h.06l.6-3.98-5.58-1.8-8.76-2.19-11.15-1.59,6.57-8.16,9.56-.2,14.34-.4,5.77-.4h14.94l5.78-1.39,2.39-2.79-2.39-6.37ZM1702.34,452.85l-.3-4.32-7.08-3.09-4.83-2.1h-.03l-4.39-.18-5.37-1.79-5.78-1.4-7.17-2.19-4.78-1.79-3.18-4.58-11.36-4.78-4.97-4.18-4.19-2.99-6.37-.2-7.37-1.99-11.55-2.79-7.17-1.99-3.58-5.98,2.56-4.51-11.13-3.05-3.87-.44-.71,1.03-8.76,1.6-8.36-2.79-8.66,4.51-.02.92,6.09,3.13,10.35,4.19,17.13,8.96,21.51,3.78,22.9,14.54,16.73,8.16,25.69,5.38,13.34,6.67,4.78-4.28-.1-1.46Z" style="fill:#f0f; fill-rule:evenodd; stroke-width:0px;"/></svg>