<?xml version="1.0" encoding="UTF-8"?><svg id="a" xmlns="http://www.w3.org/2000/svg" width="1920" height="1080" viewBox="0 0 1920 1080"><path d="M1203.78,623.06l-4.18,2.39-6.58.4-7.56-1.59-7.37-.8-9.16-.6-3.98,3.19.39,3.58-4.18,4.78-3.78-2.78-2.59-.8-7.77-1-2.79-4.18-6.17-5.58-.6-6.57-3.58-5.57-3.39-7.57-7.17.2-4.78,3.58-6.97.6-5.77,5.58,2.79,3.18,6.57,3.59,7.57,7.17,1.19,1.99,3.78,9.16-5.77.99-6.17-.59-.4,2.39-1.27,1.33-2.52,2.65-5.37-1.79-5.98-1.99-3.58-3.59-5.9-5.31-.08-.07-3.98-.19-4.18-2.39-.8-4.58-3.98-2.2-2.97-2.66-.81-.72.59-4.38-1.79-6.57,2.59-5.38-3.78-6.77-2-1-6.97,1.99-8.76,5.78,2.19,5.77,3.79,3.19-.4,6.57,5.77,3.59.15,1.18.65,5.19,2.59,6.97,6.18,2.3,2.38.89,5.98,4.38,8.56,5.77,7.17,2.39,8.96,2.59.6,6.57-2.59,4.19-5.78,1.79-7.36-.8-7.97-4.38-3.59-4.18-3.38-4.78-5.78-8.96-2.37.33-1.81.26.66,2.7v.03s1.14,7.67,1.14,7.67l-8.77-1.83-7.57-1.6-7.76-.39-7.97-3.79,1.59-5.97,3.03-1.43,4.14-1.96,3.39-2.19-.2-3.98-3.58-5.98-1.2-1.59-9.17,7.15-2.58,2.01-3.38,1.6-7.77-.8-.6-4.78v-2.19l-11.15-2.59-.8-4.38,4.16-.38,4.61-.42,6.37-1.59-.8-6.77-3.68-5.08-3.29-5.48-2.99-5.87-5.27-2.29-7.97,1.49-.1,7.97-3.88,5.18-5.88-2.99-8.46,1.69-7.07.4-.71-4.21-.49-2.96,4.88-4.28,9.16.3,4.88-1.6-.59-8.06,7.36-6.87.06-.35,1.64,1.49,1.79-6.97.4-3.18,4.18-.8,5.97,1.99,4.98,3.19,4.78,2.39,2.79,2.19,7.37,1.59,3.58,1.79,1.2-6.17-2.99-5.78,1.59-3.78,1.4-1.79,3.78,5.77,1.4,2.79,6.57-.2-2.39-6.57-2.39-4.78-6.97-1.39-4.18-1-.8-3.98,2.59-5.38.4-4.78-.2-6.77-4.58-3.98-.8-3.79,2.39-6.17,5.98,2.59,5.97,3.98,5.58-.59,3.78,3.38,3.19,1.79.79,4.58-4.98,2.99,3.39,5.58,5.18,5.37,2.59,4.19-1.8,6.57,5.98,3.98,4.18,1.39,6.37,4.19,4.38,3.78,2.39-2.39,1.8-6.77,9.16-1.39,7.96,5.17-1.19,6.77.89.63h.01l.73.5.66,2.51.2,1.39-2.79,2.19-1.39.8-8.37-.8-7.77-.59-7.36-.6-5.18,4.38,1.79,4.78,4.38,5.18,7.77-1.4,6.37-1.79,7.37-1.79,10.16-1.59,5.17-2.99,6.38,2.19,1.99-.8,3.98-2.39-.2-3.98-.2-4.18,2.59-4.18,6.77-2,5.38-1.19,1.01-.56.28.71,1.8-.8.81-.89,1.82-2.01h.01s4.03-2.62,4.03-2.62l2.19-4.39,1.79-1.59,4.18.6,12.95,1.19,14.93.4,2.79,5.58.8,6.57,1.39,8.36,1.79,6.97,2.39,6.58,3.79,4.78,1.19,3.98-.79,5.18.59,6.37.8,4.58.2,3.98ZM973.47,539.97l-4.78-5.38-4.58-5.58-9.56-4.18-4.86-2.52-.52-.27-1.33.95-.46,3.68,1.09,7.87-.69,7.77,1.09,3.08,3.98,3.89,1.45.93,3.23,2.06.2.09,1.99-1.24,7.77,4.58,8.17.4,1.99-4.98-4.18-11.15ZM997.96,511.74l-4.98-2.19-3.18,4.98,1.99,4.58,3.18.59,3.79-5.37-.8-2.59ZM903.17,445.02l-4.98.2-4.18,1.2,4.38,4.98,4.58.79,2.99-4.58-2.79-2.59ZM1014.69,544.4l-4.78-.2-1.99,3.39-2.39,2.98-1.59,3.99,1.59,5.97,3.38-2.39,2.99-6.17,3.59.39,1.59-5.97-2.39-1.99ZM1026.24,552.96l-7.57.6h-1.39l-.6,4.18,3.59,5.58,4.97,2.59,4.19-5.18.95-4.38v-.22s-4.14-3.17-4.14-3.17ZM1133.98,554.31l-.53-3.44-.27-1.74-4.78-7.37-11.75-1.39-3.38,3.98,1.39,3.38,3.98,4.78,2.19,8.97.32,4.11h0s.04.44.04.44h0s.04.08.04.08l3.99-1.4,7.56-6.17,2.02-2.42-.82-1.81ZM1084.19,443.83l-6.77-.6-6.13,3.56.55-.07-1.79.79,1.24-.72-4.79.59.56.18,2.2,6.97,9.95,3.99,4.78-5.58,3.98-.4.1-1.04-3.88-7.67ZM1120.93,483.76l4.78,3.19,7.77,5.18,3.39-5.58-2.99-10.55-5.78-6.77-4.38-1.59-3.98,5.58,1.19,10.55ZM1157.38,523.59l-4.78-11.75-14.94-1.2-9.96,1.4-1.31.22.02.03,6.37,5.77,9.56,11.95,11.75,9.76h.94l2.75-4.03-.4-12.15ZM1187.45,483.96l8.96,3.98,4.78-5.58-3.78-4.58-7.37-3.78-2.59-3.19-4.78-.4-.6,2.99,5.38,10.55ZM1199,542.9l4.58,2.39,4.18-5.78-2.59-9.36-7.77-2.39h-1.19l.2,4.98,2.59,10.16ZM1214.93,467.03l4.58,2.19,3.98-.99-.29-.21-3.09-.99-4.18-1.79-1.4-3.98.48.03-1.07-3.22-5.18-6.97.2-5.58-7.57,1.2-3.59,8.16-3.38.8-6.57-5.18-5.78.6-.99,2.39,13.14,8.96,9.76,2.59,7.17.8-7.37,4.97-.8,5.98,8.17,5.77,9.95,2.19,2.2-4.18-3.99-8.96-4.38-4.58ZM1345.97,599.26l6.77,4.78,7.97.8,1-2.59-.2-2.39,2.39-3.39-.6-7.17-8.56-2.19-6.17,2.19-4.98,1.99,2.39,7.97ZM1265.12,481.37l-1.59,6.97,8.17-.8v-5.58l-1-.6h-5.58ZM1340.99,461.26l-11.35.59-8.36,3.99-7.97-2.99-7.57-1.59-7.37,2.39-2.39,2.38-3.58-1.19-5.58,1.59,1.2,6.18,8.36.79,2.25.26,2.93.34.38-.2,3.8-1.99,1.8.37,5.37-1.56,4.58,2.78-.76,1.15.16.05,9.16-1.2,4.78-1.19,4.58-1.79,6.38-3.99-.8-5.17ZM1374.25,453.88l4.78-1.59,7.77-5.38,1.19-4.38-2.99-1.79-11.15,3.58-3.78,4.38-.2,1.99,4.38,3.19ZM1693.79,430.22l-4.09-2.99-.2-3.99,1.59-8.16.86.69-.06-.69-3.59-2.79-5.57,1.79-6.38,6.97-.84,6.55-.15,1.22,3.58,5.97,5.58,2.19,2.77-2.56.02-.02h.11s5.66-.4,5.66-.4l.1-.39.7-2.8-.09-.59ZM1752.03,473.03l-10.16-5.78-8.76-5.97-7.37-1.99-3.18-3.79,2.38-4.58,1-2.19-6.77-7.76-5.58-4.18-12.34-5.38-2.18,3.92-1.81,3.25,4.98,4.78,3.99,4.58,3.18,5.37,3.59,8.77,6.37,2.59,5.97,3.58,3.35,4.14.84,1.04.59,4.18,7.37,3.78,11.55-.99,4.58-1.79-1.59-5.58Z" style="fill:#f0f; fill-rule:evenodd; stroke-width:0px;"/></svg>