<?xml version="1.0" encoding="UTF-8"?>
<svg id="a" data-name="Ebene 1" xmlns="http://www.w3.org/2000/svg" width="1920" height="1080" viewBox="0 0 1920 1080">
  <path d="M1170.23,783.15c-18.36-40.5-37.06-13.76-51.07-50.32-2.26-4.33-1.27-16.15,2.25-19.52-7.43-5.51-18.35-9.21-23.28-16.9-4.59-9.59-5.46-14.78-3.38-25.16-1.09-2.17-4.69-13.45-6.76-14.65-4.84-7.12-14.99-10.2-21.02-15.39-6-14.05-22.42-15.83-34.55-21.78-19.35-10.31-34.36-32.22-51.07-44.69-14.99-17.72-6.54-42.42,6.38-58.58,0,0,11.64-9.38,11.64-9.38,0,0-.75-12.39-.75-12.39-27.4-31.58,2.1-17.42-3.75-37.93-24.04-41.03-56.06,4.38-69.85-72.1-11.44-6.99-22.41-5.17-27.03-19.52.95-25.13,27.35-9.77,16.52-30.05-2.7-4.47-2.45-12.04-7.51-15.02-6.28-1.12-7.34.45-9.01-5.25-4.71-13.72-14.9-27.63-20.66-40.93-5.36.57-12.76,2.03-17.64,3.38-7.27-11.84-4.37-14.96,6.38-21.41-2.28-14.62-4.47-17,6.01-29.29.91-5.2,2.16-13.87-4.51-7.52-5.4,13.72-27.38-6.11-35.51,5.32-12.9-1.99-12.85-7.09-23.4,3.15-30.01,12.35-62.85,31.97-94.83,13.66-3.65-.68-7.51,4.28-11.26,1.86-3.87-1.58-7.83,2.43-12.03,1.16-14.4,4.65-46.17,10.76-58.79-2.18-7.74-7.67-2.47,9.71-25.89-3.09-3.19-.33-10.06.78-10.84-3.62-1.98-6.32-18.94-10.89-22.43-4.02-6.52,7.13-19.44-3.46-21.95-10.07.44-18.69-18.93-5.24-29.51-6.29-9.02-2.5-22.87-7.81-20.56-18.76-4.37-1.96-6-6.91-9.66-.45-21.9,9.45-51.85.52-76.24.49-16.31,6.05-34.58,7.44-50.01,14.57-13.76,7.27-29.68,14.34-45.23,19.88-.36,4.41-2.07,9.55-7.74,10.24-16.21,3.78-32.12-.69-47.71-4.76-15.07,7.38-33.5.61-49.47-1.23-4.67-.69-9.71,1.78-8.81,6.21-.33,2.3-4.98,3.51-3.46,5.83,5.44,4.18,12.53,5.59,16.39,10.76,1.98-.29,32.18-.72,26.27,2.06-5.85-2.13-13.28,3.91-18.11.23-3.34-1.23-2.44,1.89-7.56,1.1-6.36,3.88-15.19.08-21.24,4.18-14.69,3.61-2.74,8.05,4.91,6.66,20.56,8.68-49.29,1.72-55.13,5.19-.77-3.08,4.28-2.18,5.21-4.55-4.11-5.17-28.26-3.8-8.76,3.69,1.11,3.25-5.27,3.91-7.81,3.61-25.25,1.95-13.63-10.57-23.14-6.46-7.95.66-14.15,3.58-22.56,2.07-5.66,2.69-9.32,9.38-15.71,10.05-.95-.06-1.39.92-1.41,1.75-6.21-.32,4.97-5.32,6.56-6.74,12.43-14.79,38.78-12.22,46.79-31.79,2.23-2.68,7-1.62,10.15-2.8,20.48,4.23,9.59-4.12,27.28-3.11,5.31-.56,10.66,4.14,15.18,2.74,1.89-.98,1.12,2.12,2.54,2.36,6.39-.77,14.62,1.45,18.37-3.86,1.3-.73,3.58-2.69,2.71-4.96,6.29-7.92-3.11-4.23-9.22-6.85-13.97-5.72-32.49-7.6-39.82-22.06-1.32-2.35-6.03-7.18-.76-7.71,3.9-5.3-5.12-4.01-7.93-5.29-2-.69-2.42,3.38-4.51,1.76-9.46-1.29-12.14,5.77-20.64-4.75-10.45-6.01-19.73,5.04-31.31,4.61-10.39-2.68-4.15,9.66-16.25,6.95-9.11,6.67,8.75,7.19,10.08,12.17,2.66,15.96,3.28,7.41-8.88,15.32-7.56-.43-4.26,8.76-3.07,12.85-.11,3.96-4.74,4.03-6.72,7-29.64,26.65,36.36,2.47,29.99,13.72-9.18,4.08-19.67,6.71-28.46,12.26,3.18,6.17-.86,8.03-3.03,13.42,2.93,1.22,6.09-3.7,9.11-1.73-2.99,6.96-11.4,1.28-10.89,11.35,3.61,11.03-5.67,15.63-2.69,19.23,4.04,2.58,56.72-13.6,37.53.41-3.3,2.83-5.99,8.44-11.27,3.38-3.14-.07.9,3.47-.73,4.92.76,2.62,6.29-.44,6.24,3.96,1.31,2.82,5.23,2.54,6.62,5.43,1.04,2.35-3.2,2.23-3.6,4.17-1.19,6.71,8.28,3.29,11.82,4.42.3.66,1.1,2.45-.08,2.73-2.12-.42-3.11,2.48-4.88,2.14-2.87-.56-.15,2.43-1.62,3.32-2.45,1.67-7-1.39-8.61,2.14-.9,4.79,5.79,4.57,4.71,8.68,2.59.96,4.18,3.77,6.71,4.41,1.56-.91,11.74-1.97,7.65,1.33-5.45.05-12.03,3.37-17.29,2.12-2.76-1.35.97-8.14-3.19-7.62-2.6,3.07,4.03,2.9-.36,5.48-1.55,1.27-.07,3.27-.39,4.75-2.42.47-2.39-3.94-4.21-5.14,6.09-7.67-17.76-20.49-10.57-4.62,3.63,4.48-4.33,2.72-1.99,4.63,10.02-6.9,8.49,5.46.19,5.21-4.99-4.28-.76.76-5.79,1.84,3.66,2.89,9.53,2.27,13.66,5.44,1.8,3.56,5.68,3.57,6.16-.77,3.08-2.78,6.67-.54,9.01,1.76,2.53,5.65,1.77,4.91,7.68,3.83,4.27,1.01,7.11,5.32,11.81,4.13,5.18.96.78,5.6,1.83,8.1,2.53,6.37-7.22,6.87-11.3,7.07-1.34,2.99,7.02,1.75,8.63,3.89.43,3.59.54,8.83,1.08,12.33,4.99,2.81,12.22-8.91,8.43,1.09,2.61,3.46,6.32-3.95,4.17,2.77,3.61-.12.54,2.94,4.9-.5,6.05-1.49-2.44,4.33-1.89,5.98,1.4,2.51-4.38,4.33-5.69,1.74-3.3-2.17-8.56-.2-9.15,3.71,2.36,10.36,6.79-4.81,11.98,3.68,13.47-2.21,27.33-2.38,41.19-3.61-1.81,2.15-5.01,3.08-7.32,4.85-2.28,1.28-6.33-1.3-6.67,2.5-.64,5.22-1.39,5.19-6.49,4.22-6.33-.09-12.09.89-18.69,2.61-1.8.27-3.94-.71-5.05,1.16-6.4,6.25,8.24,1.83,11.29,3.44,2.73-1.27,3.05-6.04,7.48-4.38,4.25,1.8,17.15-3.48,8.96,3.56,9.19,4.33-.01,2.22-.84,4.37,4.87,5.53,10.1-6.02,15.22-6.62,2.48-.82-3.4-2.93-.63-3.57,1.97-.77,8.38,2.01,7.53-1.9.61-2.54,3.04,2.43,4.83,2.03,3.11-1.94,5.64-.49,5.07,3.27,4.42,2.78,8.47-.27,11.15,6.35,2.47.21-.61-10.23,8.62-5.1,11.93,4.13-7.26,4.29,4.39,8-.41,11.16,2.67,8.72,11.69,14.75,3.14-2.1,5.19,2.56,9.27,1.65,6.28-.04,3.56,1.92,7.4,3.11,11.06.12,22.88-11.99,33.76-6.46,3.83,4.23,3.74-.23,6.45-2.94.07-1.75-2.4-3.27-.54-4.99,5.98-5.94,1.32-12.34,4.92-18.91,19.98-7.56,44.15,4.99,63.74,12.24,16.98,4.27,19.44,23.79,40.54,26.41,5.22,1.89,8.38-4.24,13.66-2.99,3.53,1.55,5.09-1.39,7.88-1.97,6.37,1.25,12.67-2.31,18.58.04,2.04.39,3.15-4.01,5.58-2.12,1.75,2.58,5.49-2.44,7.81-3.69,3.47-7.77,10.06,6.93,13.63-7.82,22.52-22.72,34.47-22.42,61.53-6.68,6.12-3.34,13.93,1.18,16.26-7.49-10.56-2.33,9.92-2.87,11.01-7.2,7.15-9.23,17.16,2.32,14.85,10.66-11.53,9.6-28.57,11.16-12.5,27.3,3.69,4.64-4.28,8.54-6.18,12.47,2.95,4.94-4.03,8.1-3.7,12.8,1.77,4.18,9.04,3.93,8.38,9.74-.33,4.42,3.12,7.8-.67,11.52-6,14.1,7.05,33.41,21.17,21.11.77,3.32,4.18,2.64,6.24,3.91-3.05-.2-2.66,2.69-4.65,4.03-.64,2.1,3.54.86,4.62,2.47,1.84,2.1,4.98,2.47,4.18,6.11,10.87,13.38-9.58,21.85-15.23,30.86-7.88,4.16,1.7-10.58-8.59-3.84-13.54,10.35,5.9,9.99-3.44,13.17-3.06,4.67-13.73,10.48-7.68,16.79-1.09,4.49,2.91,8.92,2.27,12.94-.67,3.38-8.17,9.17-2.57,9.96,7.85-.5,9.21,8.07,14.47,10.19,7.62-.78,10.79,7.84,18.05,7.56,7.74,1.13,17.92,6.23,22.58-2.73,7.48,1.36,10.17-7.59,17.29-6.83-2.45-26.51-15.95-66.36,16.81-79.55,58.36-3.39,120.4,7,166.06,44.12,73.95,15.96,78.05,67.83,131.43,111.9,46.32,36.25,116.21,26.15,166.17,53.19,8.33-14.48,29.91-8.17,42.33-4.73,8.62-4.24,16.29,2.78,24.66,3.94,13.45.86,4.91-7.11,16.21-4.64l-1.91-.82Z" style="fill: none; stroke: #000; stroke-miterlimit: 10;"/>
</svg>