<?xml version="1.0" encoding="UTF-8"?>
<svg id="a" data-name="Ebene 1" xmlns="http://www.w3.org/2000/svg" width="1920" height="1080" viewBox="0 0 1920 1080">
  <path d="M889.63,518.23c-10.46,19.28-32.15-.16-45.43-6.76-84.32,7.56-77.54-46.1-128.05,73.6-70.6-3.36-131.35-30.89-107.68,74.67-4.81-1.32-6.79,3.07-10.13,5.3-3.8,2.37-8.58.22-10.8,5.92-7.48,1.67-21.12-.29-27.27-5.49-4.17-4.42-11.12-1.86-13.98-7.4-1.17-5.95-10.27-4.88-12.73-8.35,12.85-10.44-7.92-26.24,8.08-34.43.49-2.87,2.16-3.65,4.89-4.04,1.42-3.44-5.07-3.11-4.46-5.78,17.02-23.06,5.03,9.31,17.04-7.11,1.86-1.18,5.15-.04,4.09-3.5,1.68-3.66,7.95-4.35,8.88-9.27,1.47-4.18,4.83-5.61,1.42-9.66.47-2.53-3.77-3.61-2.1-6.62-2.79-4.99-15.2-4.92-4.23-10.25-2.17-1.3-5.3-.54-6.24-3.91-17.65,13.84-27.89-12.1-19.12-26.12-1.63-20.2-16.96-8.55-5.26-25.28.7-1.97-1.85-3.78.26-5.54,2.86-1.09,3.01-4.63,5.54-6.41-2.18-19.09-22.38-10.77,10.35-29.83,5.74-4.83-1.52-18.18-9.09-15.63-3.85,2.04-6.27,7.11-11.07,7.13-2.44.22-4.99-.32-6.75,1.7-1.75,1.76,1.85,1.2,2.77,1.58-1.68,3.49-4.45,8.08-9.58,5.65-31.8-.36-36.47-27.18-68.79,9.91,1.73,2.51-5.65,7.22-6.47,5.88-4.15-7.97-10.45,8.42-14.39,4.25-2.47-1.9-3.52,2.53-5.58,2.12-5.91-2.35-12.22,1.2-18.58-.04-2.76.61-4.38,3.48-7.88,1.97-5.27-1.24-8.44,4.88-13.66,2.99-14.96-2.44-23.14-13.58-32.8-23.81-13.97-4.04-80.72-35.97-72.36-2.67-1.36,3.51-6.64,7.18-3.57,10.9-2.47,11.55-13.15-3.98-20.24,5.02-7.72-.87-17.6,10.22-22.84,2.38-10.35-.67-26.93-3.33-25.42-16.68-11.59-3.67,7.48-3.91-4.39-8-9.78-5.87-5.74,7.93-9.36,4.58-.47-5.99-7.75-3.19-10.41-5.83.87-6.77-3.99-2.36-6.95-4.06-1.33-.27-1.05-2.33-2.54-1.94-.72,4.94-3.73,1.77-7.84,2.62-2.97.46,3.04,2.78.53,3.55-5.87,1.33-7.85,9.07-14.52,7.91-3.09-3.75,5.34-.74,3.72-4.07-1.06-.92-2.74-.44-3.58-1.59,8.43-7.02-6.54-1.75-11.02-3.68-3.26-.68-2.81,4.23-5.42,4.5-4.38-2.11-9.35,2.46-13.31-1.18,7.06-6.87,20.86-5.62,30.84-5.61,2.05-11.4,8.05-3.76,15.4-11.99-13.86,1.23-27.72,1.4-41.19,3.61-2.34-4.57-6.48-2.07-9.52.37-2.23-.57-3.44-5.48-.91-6.75,2.96-3.21,6.71-2.07,9.58.56,1.06-.03,5.52-1.81,3.71-3.31-1.21-.91,8.4-7.89,1.89-5.98-4.38,3.33-1.13.61-4.9.5-.5-1.07,1.07-1.37.72-2.48-.74-1.68-3.11,2.54-4.89-.29,3.7-9.71-2.99,1.05-8.06-.88-2.1-.96.1-3.7-.41-5.45-.32-2.14-2.26-4.24-.5-6.23-1.08-3.36-10.28-1.49-9.17-4.75,4.01-.12,13.86-.74,11.3-7.07-1.03-2.45,3.25-7.12-1.83-8.1-5.2,1.45-8.3-4.52-13.34-4.14-5.17,3.03-3.97-1.72-6.92-4.45-8.72-7.74-7.74,4.57-12.38,1.89-2.62-3.03-4.42-3.42-7.89-5.13-3.18.17-9.44-2.31-7.04-3.08,2.66.46,1.22-2.53,2.7-3.18,4.65,6.77,15.04-7.21,5.07-5.12-.41,1.21-5.13,2.68-2.74.55,4.92.89,1.22-3.96.66-6.24-2.53-12.13,17.1,1.68,11.91,6-1.15,2.22,5.52,10.44,3.71,4.19-1.11-2.65,4.67-3.5,1.1-5.19-2.25-4.64,3.38-2.25,2.27,1.32-1.61,7.23,8.56,3.04,12.24,2.1,13.45-.81,4.27-3.95-3-2.21-1.42-1.92-3.65-2.84-5.47-4.16,1.14-2.65-1.43-3.22-3.23-4.35-4.87-7.31,3.19-5.35,7.17-6.4,2.09-2.4-2.86-2.8,3-3.6,10.42-6.29-1.71-4.16-6.62-5.13-6.89-4.57,8.99-7.29-2.48-11.36-2.67-.61-1.83-4.67-4.6-5.04-1.3.29-3.84.48-3.8-1.04,1.52-1.49-2.52-5.29.99-4.9,5.42,6.12,8.17-2.71,12.62-4.35,11.99-9.97-23.08-1.62-27.44-.27-19.94,2.63-10.26,1.12-8.55-11.48-1.7-20.87,3.37-8.41,10.43-18.29-3.02-1.98-6.17,2.95-9.11,1.73,2.49-5.8,6.02-6.82,3.03-13.42,2.63-4.31,38.74-11.84,26.05-16.02-14.42,2.86-54.75,9.01-23.92-12.34,1.59-2.86,2.36-.55,3.06-4.62.81-1.09-.95-1.95-1.34-2.96-.75-1.44.58-3.38-.21-4.89-1.47-6.29,5.92-3.82,8.86-7.94,2.18-1.75,8.01,1.25,6.19-4.33-2.26-3.31.24-7.51-2.96-9.86-3.5-2.2-7.32-3.28-10.78-5.5-2.65-7.45,8.45-2.79,10.69-6.76,1.2-10.73,17.2-1.52,22.83-9.68,1.35-3.85,6.4,1.35,8.7-1.05,5.62-3.4,12.04,5.75,16.41,8.18,7.95-2.81,17.36-5.8,24.66-1.92-9.34,18.67,25.09,27.66,40.04,32.86,18.34,4.19,10.21-.85,9.26,9.12-14.1,18.87-38.09-9.66-53.7,6.2-7.17-.65-16.01-3.74-22.57,1.16-11.25,20.25-38.94,20.94-54.91,36.65-1.16,1.99,1.47,3.08,1.82.8,6.37-1.5,10.79-6.76,16.31-10.49,4.17-1.14,8.58.6,12.75.43,2.87-.23,4.63-4.2,7.9-2.82,2.49,1.35,5.6-2.78,7.44.32-3.17,9.88,37.97,6.59,22.68,1.55-10.25-7.11,1.89-5.77,7.61-4.79,11.6,2.29-1.45,2.9-.77,6.72,18.94-2.97,37.35-.22,56.01.15.31-2.62,6.63-3.18,2.54-4.61-47.13-5.09,30.18-13.31,40.01-13.76-1.28-1.99-4.27.46-6.19-.4-3.49-.38-7.17-2.61-10.93-1.05-3.54-1.17-9.47,2.48-11.32-1.1-4.65-3.56-10.37-5.82-15.65-9.41,5.06-24.69,35.49-.74,65.25-9.97,14.07,2.7,47.78,14.6,51.38-5.55,30.56-14.35,60.81-26.6,93.76-35.01,21.64-1.56,67.63,11.61,81.6-4.01,2.42.3,8.4,4.41,5.85,7.05,6.34,19.74,29.42,14.67,44.06,11.46,11.79,5.27,1.57,14.21,17.16,20.49,5.26,7.34,11.49-1.89,15.87-3.8,21.98,1.69,11.72,10.78,31.04,12.19,10.56,2.27,8.71,9.24,19.48.36,1.53.71,4.07-.61,4.06,1.86,3.97,7.13,15.59,5.09,22.9,7.01,16.5,4.6,31.47-6.82,47.92-5.99,3.69,2.42,7.6-2.53,11.26-1.86,5.58,4.69,12.76,3.98,19.07,6.24,14.46,5.78,27.16-2.91,40.89-4.51-1.25,10.36-20.3,12.49-28.16,15.21-6.7.79-12.23.49-15.21,7.13-1.43,1.1-5.16,2.16-3.76,4.32,12.06,9.19,26.37,21.42,38.3,30.79,20.31,17.17,14.63,35.09,46.19,41.68,25.1,17.09,12.15,46.17,49.94,55.58,0,0,13.15,8.63,13.15,8.63.34,6.94.26,20.89-4.13,27.04-11.77,2.83-21.22-7.92-31.17-2.25,12.75,31.16,51.15,50.63,50.69,87.49Z" style="fill: none; stroke: #000; stroke-miterlimit: 10;"/>
</svg>