<?xml version="1.0" encoding="UTF-8"?>
<svg id="a" data-name="Ebene 1" xmlns="http://www.w3.org/2000/svg" width="1920" height="1080" viewBox="0 0 1920 1080">
  <path d="M773.79,242.61c-3.53,13.04-27.93,14.54-39.24,16.71-8.45,15.22-15.54,2.61-21.78,13.7-.2,5.26,7.17,11.19,10.89,13.9,1.17,5.78,1.89,14.35-6.01,15.02-20.51-11.25-7.93,2.28-25.72,1.87-12.1-7.03-21.42,4.84-33.11-9.58.3.61-13.57,5.27-13.64,5.55-8.85,23.25-25.61,18.61-43,30.79-13.06,16.62-13.03,17.71-33.61,10.89-25.15-4-41.36-6.89-61.39,11.37-52.26,25.37-25.1,42.89-64.78,76.41,1.78,13.75,21.1,16.28,29.53,26.02-7.29,5.44-20.17,10.1-21.87,19.63-.99,2.2-4.01,1.68-5.21,3.68-6.52-8.09-9.88,7.12-15.51,3.87-2.62-2.05-3.42,2.64-5.58,2.12-10.92-1.72-22.51.94-33.34,3.58-19.19,7.39-29.66-17.6-44.01-24.21-9.12-2.96-70.85-28.98-68.4-7.23-.1,6.95.54,7.35-4.05,13.8-1.31,1.49,2.17,3.29.68,4.56-2.3,3.02-2.65,6.43-6.11,2.61-11.24-5.47-22.86,6.71-33.76,6.46-3.42-.78-1.42-3.3-7.4-3.11-3.59.97-5.91-3.31-8.35-1.94-22.21-7.53-5.54-13.09-16.27-16.01,2.46-5.98,8.32-2.15-4.01-7.9-6.34.02-2.56,6.89-5.34,6.55-4.2-9.47-10.12-.46-11.81-9.71-4.03-2.82-2.9,2.85-8.83-2.64-.54,4.91-3.96,1.78-7.84,2.62-3.06.36,3.1,2.84.53,3.55-4.8.98-6.12,5.76-10.2,7.1-1.5,1.65-7.34.92-3.98-1.45,4.17.62,4.66-2.34.5-2.8-1.77-.96.24-2.1,1.39-2.46,3.41-3.81-10.44-.34-13.11-1.82-3.35-.78-2.74,4.29-5.42,4.5-4.36-2.08-9.37,2.45-13.31-1.18,1.34-4.06,7.74-3.56,11.79-4.14,5.23-3.03,13.13-1.22,19.56-1.61.37-9.05,3.41-4.98,9.37-7.95,8.91-5.33,4.22-3.87-3.03-3.04-11.05,0-22.45,1.59-33.11,2.6-2.11-6.2-7.03.7-9.98.27-4.77-6.66,5.06-11.43,9.6-5.94,2.65-.69,4.58-1.57,3.76-4.24.59-1.67,6-3.75,3.09-5.59-1.91-.36-3.9,4.5-4.52.81-3.69,1.34.21-1.85-1.25-2.98-3.41,3.03-6.6.43-2.84-3.36-3.56-.81-7.36,6.08-10.75,1.86,2.04-3.75-1.92-7.35.07-10.62-6.49-5.44-18.4-2.29-.1-6.34,4.62-2.04,1.03-6.74,3.01-10.29.02-5.31-7.2-1.77-9.79-5.21-10.75-6.92-5.69,5.71-14.73-8.41-8.34-4.06-6.6,9.34-12.54,1.72-3.56-3.57-10.13-2.73-13.87-5.78,4.23-1.39,1.47-1.57,3.45-3.7,7.12,7.01,16.01-10.83,1.72-3.58,8.57-2.18-5.06-10.02,4.18-11.98,2.98-1.15,11.55,7.51,9.74,10.06-3.44,1.63,5.09,11.53,2.97,4.88-1.05-2.32,3.53-3.16,1.92-4.6-3.61-2.17.76-5.51,1.4-.75-1.79,11.02,10.31,2.09,15.81,3.62,10.03-3.49-3.57-2.59-6.52-2.25-1.37-2.02-3.94-2.78-5.53-4.33,1.38-2.5-1.61-3.12-3.17-4.18-4.83-7.24,3.16-5.39,7.17-6.4,1.59-.94-.48-1.93.22-2.98.79-.99,2,.31,2.78-.62.76-1.97,3.36-1.13,4.09-2.51.36-2.12-1.1-2.57-2.74-1.87-3.18-1.98-9.43,1.98-9.73-3.61,2.04-4.51,7.56-4.72-.72-8.5-3.41-2.71-2.41-5.55-8.07-5.27.14-1.7-2.36-7.93,1.74-5.12,2.54,4.34,6.68-.9,8.42-2.83,25.27-19.09-45.75,8.27-35.94-5.62,7.61-5.64-3.19-22.88,9.19-22.47,1.82.13,6.39-4.74,2.66-4.48-16.42,6.02.05-.9-4.17-11.71,8.75-5.78,21.76-6.92,28.65-13.2-3.78-6.14-13.58,1.98-19.26-.21-27.09,3.82-21.03-4.85-4.9-17.22,1.18-4.97-5.64-14.9,3.51-14.77,11.21-8.27,12.01,2.38,8.88-15.32-1.31-5.3-16.76-4.2-11.36-11.37,16.35-1.36,5.17-3.96,13.92-8.12,5.35.52,11.04-.12,16.02-1.94,3.57-4.92,6.11-2.9,11.05-3.05,6.33-4.87,12.37,7.21,17.82,7.67,10.06-5.87,7.86.47,15.18-3.93,2.46,1.49,4.93.27,7.5,1.11,4.5,4.23-3.23,3.54-1.85,7.19,9.02,21.55,37.37,23.03,54.99,30.14-10.52,25.51-32.37,1.83-52.84,8.59-2.68,1.68-4.45,5.27-8.24,3-5.06-3.38-11.08-.14-16.56.17-3.28,3.02-3.53,7.85-8.27,9.93-7.08,9.98-21.7,9.42-31.61,15.61-4.22,4.79-9.19,9.08-15.42,11.79-3.15,1.86-.12,4.23,1.39.86,6.73-.45,10.45-7.5,16.36-10.18,4.74-.9,10.12,2.27,14.37-.21,2.93-3.66,7.29-.56,10.91-2.83,3.5.04.99,3.59,3.11,4.76,5.54,4.17,36.76,5.04,19.02-4.3-6-5.81,11.3-2.31,14.24-1.58,2.54,3.45-6.07,2.55-4.77,5.86,9.17-4.71,63.41,5.11,58.55-4.46-3.42-2.06-7.38,1.19-10.87-.92-9.79-3.73-.86-4.03,3.69-7.34,16.13-3.29,31.39-3.09,47.19-5.5-1.28-1.99-4.27.46-6.19-.4-6.76-2.52-14.51-.59-21.51-.8-3.86-5.19-10.95-6.58-16.39-10.76-1.76-3.35,5.17-2.88,3.32-8.75,16.39-9.81,40.77,9.14,58.42-2.06,15.06,2.42,50.33,16.59,54.89-4.71,30.74-14.43,60.45-26.51,93.76-35.01,20.93,1.77,42.51,2.02,63.04,3.36,16.45,3.36,15.15-14.52,25.3-2.75-3.23,10.43,12.27,15.54,20.16,17.89,8.75,1.78,16.21-6.24,23.94-3.53,5.86,1.76,5.4,7.64,6.23,12.21,10.08,9.48,15.01,14.4,25.87,4,23.6,2.55,10.09,10.34,35.95,13.63,7.94,6.28,8.04,2.79,14.57-1.08,1.52.7,4.07-.6,4.06,1.86,13.55,11.19,38.66,8.92,54.8,2.9,8.2-2.64,17.15.24,24.77-3.53,4.07-1.66,6.95,3.37,10.63,4.15,3.68,1.1,7.73-.66,10.95,1.88,4.04,2.13,9.06-.87,12.72,2.68,9.5-.02,18.39-7.63,28.17-7.19Z" style="fill: none; stroke: #000; stroke-miterlimit: 10;"/>
</svg>