<?xml version="1.0" encoding="UTF-8"?>
<svg id="a" data-name="Ebene 1" xmlns="http://www.w3.org/2000/svg" width="1920" height="1080" viewBox="0 0 1920 1080">
  <path d="M1170.23,783.15l-5.63-9.76-6.39-8.64-6.75-5.63-7.51-4.13-12.02-.38-7.14-11.26-5.63-10.52-1.5-5.63,1.88-12.02,1.87-1.87-11.26-7.14-7.89-4.5-4.13-5.26-4.88-12.39,1.5-12.77-4.88-12.39-1.88-2.26-8.26-8.26-7.13-2.63-5.63-4.5-4.89-7.51-8.26-6.39-9.38-2.62-12.02-5.26-18.78-13.52-16.89-15.77-3.76-7.14-11.64-8.26-6.01-10.51-2.63-9.01,1.88-14.65,5.26-12.76,7.88-11.65,11.64-9.38-.75-12.39-8.26-10.14-4.13-8.64,3.01-5.26,6.76-5.25-1.13-8.64-4.51-8.26-9.39-6.39-9.38-5.63-14.27-1.88-9.01-1.5-10.89-12.01-3.01-8.27-6.38-11.26-3.01-16.9-8.26-4.13-13.52-5.26-5.25-10.13,2.25-10.89,7.14-4.89,9.01-3.38,1.12-3.75-3-7.14-1.88-3.75-1.5-7.14-4.13-4.13-7.51-1.12-1.5-4.13-4.88-12.39-6.01-9.02-4.13-8.26-5.64-11.26-10.13,1.5-7.51,1.88-4.89-10.52,3.38-5.63,7.89-5.26-.38-6.76-2.62-7.88,4.88-9.01,4.13-5.64,1.04-9.67c-1.24,0-2.47.23-3.65.53-.86.23-1.62.75-1.9,1.62-.37,1.21-.97,2.21-1.94,2.99-.56.43-.91,1.02-1.22,1.64-.26.52-.74.73-1.24.81-1.04.18-2.08.11-3.03-.37-.95-.47-1.92-.76-2.98-.76-.87,0-1.74-.07-2.54-.45-.79-.36-1.62-.57-2.49-.68-1.2-.13-2.4-.26-3.56-.64-.66-.22-1.35-.29-2.04-.28-1.04.02-2.1-.11-3.11.05-1.74.3-3.43-.01-5.15-.09l-.09-.06c-.05-.35-.21-.57-.52-.66-.64-.15-1.15,0-1.47.62-.82.14-1.5.57-2.08,1.16-.69.68-1.37,1.37-2.05,2.04-1.05.11-2.1.17-3.15-.01-.12-.13-.22-.26-.34-.39-.91-.88-2.27-.76-3.28-1.43-.28-.19-.63-.32-.96-.37-.32-.06-.67,0-1.01.04-1.23.09-2.41-.03-3.46-.76-2.43-.91-2.41-1.33-4.54.66-.62.57-1.42.95-2.1,1.48-.26.19-.4.53-.59.82-.73.48-1.23,1.19-1.8,1.85-.58.65-1.26,1.09-2.17,1.26-2.4.43-4.64,1.27-6.66,2.68-.71.48-1.43,1.06-2.23,1.29-1.87.55-3.44,1.61-4.96,2.73-1.27.94-2.69,1.54-4.2,1.95-.66.18-1.33.35-1.98.55-1.5.49-2.99.74-4.57.44-.49-.11-1.08-.08-1.54.1-1.44.58-2.89,1.16-4.03,2.28-.5.49-.96,1-1.47,1.47-.39.33-.81.7-1.27.85-.72.24-1.44.48-2.16.72-.03,0-.05.02-.08.02-1.02.35-2.05.68-3.07,1.01-1.02.33-2.04.66-3.06.99-.09.03-.17.05-.25.06-.25.02-.48-.04-.75-.15-.65-.29-1.34-.37-2.03-.2-.76.2-1.52.34-2.28.45-.38.06-.77.11-1.15.16s-.77.09-1.16.14c-.24.03-.49.1-.74.2-.12.05-.24.1-.35.16-.11.06-.23.12-.33.19-.14.09-.28.21-.41.32-.41.32-.8.66-1.21.98-.34.27-.69.52-1.05.76-.72.48-1.47.9-2.24,1.28-.39.19-.78.37-1.18.54-.27.12-.53.22-.8.31-.54.18-1.08.32-1.63.41-.55.09-1.1.13-1.66.14-.83,0-1.67-.08-2.52-.25-.48-.08-.98-.38-1.34-.74-.23-.23-.48-.42-.73-.57-.38-.23-.79-.4-1.22-.5-.43-.1-.88-.15-1.34-.17-.69-.01-1.38-.03-2.07-.01-.66.03-1.31.07-1.96.1h-.02c-.37.03-.75.06-1.13.07-1.05.01-2.07-.08-2.9-.86-.25-.22-.59-.37-.89-.53-1.44-.79-4.26-1.33-6.01-.99-1.41.27-2.7.14-4.05-.36-1.3-.49-2.61-.87-3.65-1.86-.49-.47-1.07-.87-1.64-1.27-.85-.62-1.81-1.01-2.83-1.23-.84-.17-1.71-.28-2.51.21-1.79,1.08-3.77,1.71-5.78,2.22-.67.18-1.36.17-2.02-.15-.31-.16-.64-.28-.95-.42-1.31-.63-2.64-.82-3.96-.07-1.07.62-2.22.88-3.43,1.12-1.55.27-3.08.22-4.64.11-1.38-.11-2.72-.04-3.99.72-1.05.62-2.3.75-3.49.95-.86.15-1.66.43-2.39.92-.72.49-1.46.95-2.24,1.31-.96.45-1.99.58-3.02.18-.32-.12-.64-.26-.94-.43-.5-.27-1.01-.19-1.48.02-.47.21-.94.46-1.35.77-1.74,1.31-3.71,1.71-5.85,1.64-1.73-.06-3.46.01-5.18.05-.89.02-1.72-.15-2.48-.61-1.07-.67-2.22-.87-3.48-.69-1.38.19-2.71.03-4.08-.38-3.31-1.01-6.73-1.51-10.2-1.66-.87-.02-1.73-.1-2.59-.14-.38-.01-.66-.14-.91-.42-.72-.78-1.63-1.17-2.67-1.46-1.43-.38-2.33-1.38-2.45-2.95-.09-1.23-.37-1.54-1.51-1.57-.86-.04-1.71.02-2.55-.29-.93-.35-1.65.06-2.24.8-.63.82-1.28,1.63-1.94,2.43-.81.98-1.9,1.45-3.16,1.57-.71.06-1.39-.07-1.97-.48-.71-.5-1.3-1.17-2.03-1.58-1.05-.6-2.22-.97-3.23-1.66-.58-.39-1.31-.37-2-.45-1.04-.13-2.09-.33-2.91-.99-.72-.57-1.45-.85-2.35-.87-1.38-.01-2.76-.06-4.15-.07-1.94-.01-3.74-.62-5.47-1.41-.43-.21-.75-.71-1.02-1.14-.17-.27-.15-.65-.2-1-.08-.51-.11-1.03-.23-1.53-.12-.51-.43-.99-.89-1.23-1.55-.76-3.14-1.41-4.68-2.2-1.09-.55-2.25-.86-3.4-1.21-1.51-.48-3.05-.65-4.6-.77-1.38-.1-2.73-.26-4.05-.76-.64-.25-1.4-.03-1.9.51-.92,1.04-1.82,2.09-2.68,3.17-1.13,1.43-2.67,2.13-4.41,2.48-.5.09-1.02.14-1.54.18-2.25.15-4-.78-5.34-2.54-.1-.14-.19-.3-.28-.44-.28-.46-.72-.74-1.21-.92-.65-.22-1.34-.35-1.98-.62-.47-.19-.95-.44-1.32-.77-1.76-1.65-3.49-3.35-5.21-5.05-.51-.5-.72-1.15-.68-1.89,0-.17-.03-.36.02-.5.51-1.56.18-3.1-.18-4.62-.11-.49-.34-.96-.63-1.38-1.2-1.75-2.71-3.12-4.76-3.82-.33-.11-.63-.3-.93-.48-1.1-.62-2.22-.91-3.41-.21-5.88,2.06-5.89,2.01-12.4,3.7-2.39.62-4.78.71-7.2.52-.85-.07-1.69-.33-2.5-.62-.65-.21-1.28-.54-1.85-.92-.88-.59-1.87-.91-2.87-1.17-.83-.23-1.69-.35-2.54-.5-1.03-.21-1.96-.62-2.8-1.27-.68-.54-1.4-1.03-2.1-1.52-.58-.4-1.02-.92-1.3-1.58-.28-.63-.66-1.19-1.23-1.63-.68-.52-1.39-1.06-1.94-1.7-.66-.8-1.19-1.69-1.75-2.56-.4-.62-.36-1.35-.17-2,.23-.82.63-1.61.89-2.42.09-.32-.09-.7-.4-.87-.61-.31-1.26-.55-1.91-.78-.53-.19-.83-.59-1.05-1.06-.06-.14-.13-.27-.2-.39-.04-.07-.09-.13-.13-.19-.05-.08-.1-.15-.16-.21-.05-.06-.11-.12-.17-.18-.06-.07-.12-.12-.18-.17s-.12-.1-.19-.14c-.12-.09-.24-.16-.37-.22-.58-.29-1.26-.4-1.98-.42-.52,0-1.12.17-1.35.63-.03.06-.06.12-.1.18-.12.23-.24.44-.37.65-.13.21-.27.42-.42.61,0,.01-.01.01-.01.01-.22.3-.45.57-.69.84-.12.13-.25.26-.38.39-.25.26-.52.5-.8.73-1.1.92-2.36,1.68-3.67,2.38-.45.23-.96.44-1.46.48-3.09.31-6.18.75-9.31.48-.16-.07-.32-.14-.49-.18-1.52-.2-3.1-.15-4.5-.99-.26-.15-.68-.15-1.01-.1-1.19.14-2.38.34-3.56.59-2.53.55-5.1.8-7.69.34-1.53-.29-3.11-.25-4.56-.87-2.9-.56-5.83-.67-8.77-.44-1.55.12-3.1.17-4.65.19-6.23.03-12.42-.5-18.56-1.46-2.4-.36-4.8-.52-7.21-.66-.68-.05-1.44-.05-2.04.21-2.06.91-4.25,1.43-6.33,2.25-.97.39-1.94.66-2.96.85-2.54.46-5.04,1.13-7.28,2.52-.43.26-.94.41-1.41.62-1.6.7-3.32.96-5.03,1.08-2.25.17-4.42.72-6.65.98-1.47.59-3,.74-4.57.7-.7-.01-1.37.17-2,.48-.62.31-1.27.5-1.96.58-.51.07-1.09.14-1.47.43-1.26.94-2.89,1.17-4.07,2.24-.55.51-1.27.4-1.95.46-.88.09-1.69.34-2.2,1.13l-.09.05c-.34.55-.78.95-1.46,1-.77.06-1.54.08-2.32.12l-.32.17c-.17.6-.43.81-.91.81-1.18,1-2.5,1.82-3.6,2.92-.47.48-1.14.83-1.78,1.02-.98.29-2.03.39-3.03.62-1.2.28-2.07,1.25-3.2,1.65-1.13.43-2.3.7-3.46,1.05-1.66.47-3.29,1.07-4.72,2.05-1.87,1.27-3.94,2.15-5.94,3.15-2.46,1.2-5.03,2.25-7.74,2.82-.51.12-1.02.19-1.52.35-.49.14-1.02.27-1.43.54-1.17.8-2.5,1.16-3.8,1.61-.33.12-.65.48-.56.76.41,1.21.11,2.41.04,3.59-.03.49-.23,1.04-.55,1.41-.89,1.04-1.87,2.02-2.85,2.98-.24.24-.58.38-.89.51-.94.43-1.89.84-2.93.99-2.56.39-5.15.65-7.7,1.06-4.13.64-8.24.75-12.38.21-.85-.1-1.72-.14-2.58-.19-1.22-.04-2.36-.32-3.5-.79-1.9-.8-3.83-1.49-5.96-1.55-1.55-.05-3.07-.48-4.61-.68-2.59-.31-5.09-.91-7.47-1.98-1.12-.5-2.32-.68-3.51-.84-.31-.05-.68.07-.98.21-.61.31-1.28.59-1.77,1.05-1.36,1.24-2.96,1.6-4.74,1.71-2.24.17-4.48.39-6.72.27-2.41-.13-4.81-.38-7.24-.33-.2.01-.41,0-.61-.03-.15-.01-.3-.04-.45-.07-.33-.05-.65-.12-.98-.17-.85-.13-1.7-.39-2.55-.42-1.9-.02-3.76-.46-5.64-.64-.51-.03-1.03-.18-1.53-.13-1.4.16-2.74-.06-4.09-.44-1.65-.46-3.4-.56-5.04-1.15-.63-.23-1.36-.29-2.04-.29-1.75,0-3.43-.27-5.09-.8-.49-.14-1.04-.18-1.54-.13-1.02.12-2.04.29-3.06.49-.67.13-1.32.33-1.99.51-.5,1.07-1.53,1.66-2.36,2.42-.25.21-.26.53-.09.88.54,1.11,1.12,1.44.23,2.04-.25.17-.74,1.32-1,1.47.14,1.03-1.03,1.25-1.92,1.89-.53.4-.82,1.02-1.08,1.62.18.3.29.66.54.85.54.4,1.11.85,1.74,1.07,1.01.32,1.87.82,2.58,1.61.23.25.49.46.76.69.53.44,1.1.82,1.77,1.02,1.14.37,2.24.83,3.42,1.12,1,.24,1.86.79,2.09,1.99.1.5.55.83,1.12.87.17,0,.34.02.51.03.75.01,1.29.41,1.66,1.01.26.44.42.97.74,1.35.19.21.63.38.92.36,1.35-.18,2.7-.43,4.04-.67.85-.15,1.69-.24,2.55,0,1.01.27,2.05.06,3.07.06,1.65-.75,3.38-.37,5.08-.31,1.55.05,3.03.4,4.35,1.33.42.3.99.11,1.5.03.67.14,1.35.19,2.03.08.83-.13,1.66-.31,2.5-.44.33-.05.68,0,1.01.07.07.02.14.04.21.09.09.05.17.12.23.2.02.03.04.06.06.09.07.09.11.19.15.31.08.25-.09.54-.47.69-.3.12-.66.23-.96.17-2.72-.48-5.4-.56-8.05.36-.48.15-.99.22-1.5.29-2.01.3-4.03.61-6.05.85-.49.06-1.01-.07-1.52-.12-.15-.21-.29-.42-.45-.61-.06-.07-.12-.14-.18-.2-.06-.07-.12-.13-.18-.19t-.02-.01c-.04-.05-.1-.1-.16-.14-.03-.03-.06-.06-.1-.08-.02-.02-.04-.04-.06-.05-.09-.06-.18-.11-.27-.16-.33-.19-.62-.24-.99-.14-.69.18-1.21.63-1.76,1.02-.08.06-.17.12-.25.16-.1.07-.2.13-.3.17-.04.02-.08.04-.11.05-.09.05-.19.08-.28.1-.07.03-.15.05-.22.06-.18.05-.35.08-.53.08-.39.01-.79-.08-1.21-.25-.03-.01-.07-.03-.1-.04-.04-.01-.08-.03-.13-.04-.04-.01-.07-.02-.11-.02-.09-.02-.17-.03-.26-.03-.08,0-.17.01-.25.03-.02-.01-.03,0-.05,0-.09.02-.18.05-.26.08-.12.04-.22.09-.32.16-1.77,1.24-3.78,1.61-5.86,1.68-1.21.06-2.41.06-3.61.11-.52.01-1.07-.01-1.53.16-1.66.66-3.37.53-5.08.48-.86-.01-1.72.1-2.57.22-.32.03-.61.28-.92.44-.1.02-.18.05-.27.09-.09.04-.17.08-.25.13-.06.03-.12.07-.17.11-.13.09-.26.2-.39.31-.02.02-.04.04-.06.05-.17.15-.34.29-.53.4-1.19.66-2.38,1.32-3.74,1.57-1.01.19-1.96.55-2.88,1-.49.24-.74.65-.91,1.15-.15.42-.08.69.36.8,1.63.43,3.3.79,4.63,1.95,1.61.55,3.2,1.13,4.96.66.82-.2,1.65-.4,2.49-.47,1.2-.1,2.37.03,3.42.73.41.28.94.36,1.41.54.08.29.14.58.2.88-.76.23-1.51.48-2.28.68-.13.03-.24.08-.34.14-.06.03-.11.06-.16.1-.05.04-.1.08-.14.12-.08.09-.15.19-.19.29-.02.04-.04.08-.05.12-.01.03-.02.06-.03.09-.01.04-.02.09-.03.14-.01.05-.02.1-.02.15-.01.08-.02.16-.02.25-.29.37-.59.74-.89,1.11-2.4.06-4.79.26-7.19.22-.86-.56-1.69-1.08-2.79-1.18-4.21-.43-4.22-.53-8.09.59-1.37.39-2.69.43-4.05.2-.67-.1-1.33-.31-1.98-.52-.65-.21-1.31-.38-2-.39-.48-.17-.95-.45-1.43-.49-1.53-.06-3.09.13-4.59-.08-1.88-.27-3.74-.12-5.61-.23-2.23-.12-4.42.04-6.62.35-2.52.36-5.07.65-7.54,1.3-1.36.35-2.69.33-4.05.08h-.07c-.02-.17-.06-.35-.05-.52.03-.47-.19-1.02.48-1.29,1.26-.54,2.52-1.06,3.75-1.66.44-.21.83-.57,1.03-1.08.19-.48-.06-1.19-.44-1.31-1.31-.42-2.72-.3-4-.86-.15-.07-.31-.12-.48-.16-.2-.05-.41-.09-.62-.12-.3-.05-.61-.08-.91-.12-2.21-.31-4.46.07-6.66-.4-.32-.06-.68,0-1.02.04-.51.05-1.02.08-1.5.32-.46.24-.87.76-.82,1.19.04.32.16.62.44.87.14.1.27.2.42.29.2.12.41.23.61.35.1.06.2.11.3.18.3.18.58.37.85.59.07.04.14.1.2.16h.01s.01.02.01.02c.12.1.24.21.34.33,0,0,.01,0,.01.01.05.04.08.08.11.13.02.02.04.04.05.06.1.11.2.23.28.37.19.27.53.44.77.68.64.65,1.4.88,2.31.82.32-.04.66.14.98.25.43.13.53.78.2,1.2-.21.28-.42.55-.64.81l-.27.12c-.62-.11-1,.18-1.18.75-.37.06-.69.24-.92.55-1.65.59-3.34-.05-5,.18-.72.09-1.29-.31-1.94-.48-1.58-.42-3-.15-4.24.94l-.25.05c-1.71-.14-3.4-.42-5.03-.98-.31-.09-.68-.02-1.02-.03-1.43-.99-3.18-1.33-4.65-2.23-.46-.29-.75-.68-1.02-1.12-.08-.13-.12-.25-.12-.37,0-.06,0-.12.03-.18.01-.05.03-.1.05-.15.03-.07.07-.15.11-.23.24-.44.23-.96-.08-1.45-.38-.61-.94-.99-1.57-1.25-.15-.07-.36-.06-.51-.01-.97.32-1.96.63-2.9,1.03-.87.38-1.61.16-2.46-.09-1.58-.48-3.07-.14-4.38.88-.41.32-.81.65-1.17,1.01-.66.67-1.48.86-2.35.93-1.37.11-2.75.25-4.03-.49-.28-.15-.68-.21-1.01-.19-1.89.2-3.78.12-5.66-.13-.28-.04-.56-.04-.82,0-.05,0-.11.01-.16.02-.12.02-.25.05-.38.09-.05.01-.09.02-.14.04-.13.04-.27.1-.4.16-.05.02-.1.05-.15.07-.14.07-.27.15-.4.24-.58.37-1.17.74-1.69,1.18-1.31,1.12-2.58,2.27-3.88,3.4-.25.23-.54.5-.85.55-1.52.25-2.34,1.31-3.19,2.43-.3.38-.75.69-1.19.94-1.21.7-2.5,1.12-3.94,1.08h-.02c-.11,0-.22.01-.31.03-.06,0-.11.02-.16.04-.16.04-.29.12-.39.21-.03.03-.06.06-.09.1-.03.02-.05.05-.06.07-.02.02-.04.04-.05.07-.04.05-.06.1-.09.15-.09.2-.15.41-.2.64,0,.09-.02.17-.04.26,0,.06-.01.12-.02.18-.54.1-1.08.17-1.63.25-.06-.33-.12-.66-.19-1.01-.03-.14-.04-.3-.02-.45.01-.09.03-.17.06-.25,0,0,.01-.02.01-.03.02-.08.05-.16.1-.23.03-.06.07-.11.11-.16.01-.02.03-.04.06-.06.04-.05.09-.1.15-.13.3-.15.58-.38.9-.47,1.85-.56,3.48-1.47,4.83-2.87.61-.65,1.35-1.1,2.18-1.33,1.03-.28,1.87-.88,2.72-1.46.87-.57,1.54-1.31,1.8-2.42.16-.7.74-1.21,1.43-1.35.11-.02.22-.05.32-.09.06-.02.11-.04.16-.06.26-.11.48-.25.66-.42.08-.07.14-.14.2-.22.01-.01.02-.02.02-.03.03-.03.06-.07.07-.1.07-.09.12-.19.17-.29.05-.09.09-.19.13-.29.02-.03.04-.07.05-.11.11-.3.43-.52.68-.75.91-.86,2.04-1.31,3.2-1.64.46-.13.91-.27,1.36-.41.45-.14.9-.29,1.34-.45.29-.1.59-.22.88-.33.21-.08.41-.16.62-.25.38-.15.75-.32,1.12-.49,1.24-.59,2.59-.98,3.93-1.26,1.07-.23,1.91-.72,2.7-1.42.52-.45,1.12-.79,1.82-.91.68-.11,1.36-.21,2.04-.34,1.88-.33,3.66-.88,5.28-1.96.86-.56,1.82-.97,2.74-1.43,1.58-.79,2.96-1.77,3.65-3.49.18-.47.56-.88.93-1.23.76-.69,1.59-1.32,2.38-1.96,2.01-.75,2.83-2.36,3.28-4.31.18-.82.71-1.56,1.11-2.32.16-.3.39-.57.65-.8.25-.23.54-.49.85-.54,1.36-.22,2.76-.27,4.09-.6,1.51-.4,3.06-.52,4.56-.86,1.92-.43,3.73-.39,5.59.19.84.26,1.59.63,2.32,1.1,1.43.9,2.99.52,4.51.35.3-.02.62-.32.84-.57.33-.38.57-.83.87-1.25.52-.69,1.17-1.28,2.02-1.53,1.64-.49,3.24-1.17,4.99-1.25.86-.04,1.71-.28,2.57-.3,1.19-.04,2.35-.16,3.57.15,1.82.49,3.76.38,5.63.76,2.04.42,4.03.91,5.82,1.99.15.1.3.18.45.26,1.16.66,2.23.71,3.28-.27.39-.38,1.13-.15,1.29.27.18.48.34.98.5,1.47.12.34.37.52.75.62.86.2,1.77.31,2.56.03,1.34-.44,2.72-.43,4.07-.69.69-.13,1.37.05,1.97.42.97.61,1.9.55,2.94.09.93-.4,2-.48,2.95-.86.26-.11.52-.21.78-.31.26-.11.53-.21.79-.3.45-.17.89-.31,1.35-.43-.05-.23-.09-.43-.12-.6,0-.05-.02-.1-.02-.15-.02-.16-.03-.29,0-.39,0-.03.01-.05.03-.08,0-.04.03-.08.06-.11.02-.02.04-.05.07-.07.17-.14.46-.25.94-.41,1.01-.33.78-.33,1.45-1.16.18-.22.27-.09,1.3-1.53-.09-.96.39-1.38-.04-2.27-.23-.49-.17-1.02.21-1.31.88-.73,1.52-1.73,2.65-2.13.02-.02.03-.02.05-.03.14-.09.06-.65-.18-1.07-.81,0-1.49-.34-2.08-.88-1.9.25-3.77.23-5.58-.51-.63-.25-1.32-.47-1.99-.51-.19-.01-.38-.03-.56-.06-.23-.02-.46-.06-.68-.11-.15-.02-.29-.05-.43-.08-.21-.04-.42-.1-.63-.16-.21-.05-.42-.12-.62-.19-.22-.06-.44-.14-.65-.22-.6-.22-1.18-.48-1.75-.76-.18-.09-.36-.18-.54-.27-.62-.32-1.25-.56-1.93-.7-1.01-.23-1.99-.55-3-.75-2.04-.43-3.98-1.11-5.86-1.97-.94-.42-1.94-.71-2.9-1.08-3.35-1.34-6.69-2.73-10.05-4.05-1.45-.57-2.83-1.28-4.04-2.25-.44-.34-.87-.68-1.29-1.04-.03-.02-.06-.05-.09-.07-.21-.17-.42-.35-.62-.53-1.18-.99-2.33-2.02-3.48-3.04-.37-.33-.62-.77-.61-1.35.02-.69-.13-1.36-.7-1.86-.39-.33-.75-.7-1.1-1.08-.23-.27-.51-.54-.59-.85-.27-1.07-1.1-1.69-1.73-2.51-.52-.67-.95-1.43-1.31-2.19-.31-.64-.27-1.38.09-1.99.36-.59.87-1.07,1.67-.98.17.02.35-.02.52-.04.62-.11.86-.42.8-1.05-.07-.68-.13-1.37-.26-2.04-.09-.53-.46-.89-.97-1.09-1.16-.48-2.35-.43-3.56-.24-1.04.17-2.04.02-2.95-.58-.27-.18-.65-.23-.99-.29-.99-.18-1.81.33-2.33,1.44-.19.42-.9.82-1.22.7-.33-.11-.65-.22-.96-.38-1.64-.81-3.29-.84-5-.19-.96.37-1.99.55-2.94.94-.94.4-1.81.97-2.73,1.42-.3.13-.67.13-1.01.19-.22-.88-.67-1.57-1.57-1.88-.17-.06-.33-.1-.5-.14-2.41-.66-4.37-1.94-5.79-4.02-.3-.42-.62-.8-1.1-1.07-.91-.48-1.76-1.08-2.7-1.52-1.64-.77-3.29-1.01-4.75.45-.12.12-.27.2-.4.32-.43.37-.95.36-1.46.34-1.23-.05-2.32-.67-3.5-.9-.86-.15-1.72-.21-2.55.12-.51.21-.8.61-.79,1.17-.89.82-2.04,1.31-2.75,2.32-.18.26-.55.49-.86.54-1.86.32-3.76.4-5.53,1.22-.63.3-1.36-.02-2.04-.1-.51-.06-1.02-.1-1.5.19-.77.44-1.57.6-2.48.46-1.19-.2-2.41-.27-3.61-.37-.34-.01-.73-.01-1.02.14-.91.48-1.87.92-2.44,1.85-.19.3-.2.59-.1.96.23.9-.03,1.72-.5,2.47-.18.28-.4.56-.61.82-.45.57-1.02.93-1.76.94-2.07.06-4.14.1-6.21.14-.58.01-.96.41-1.28.8-.43.52-.79,1.12-1.13,1.71-.48.85-.33,1.8.3,2.35,1.33,1.14,2.73,2.12,4.59,2.14.34.01.68.13,1,.24.67.19,1.3.44,1.73,1.04.87,1.16,2.05,1.77,3.46,2.08,1.07.24,1.33.65,1.41,1.81.29,4.13.35,4.42,1.55,8.05.27.83.32,1.68.08,2.53-.24.81-1.61,1.73-2.44,1.55-.17-.04-.32-.13-.47-.2-1.22-.55-2.38-.49-3.36.45-1.27,1.2-2.73,2.1-4.24,2.94-.63.35-1.3.43-2,.41-.35-.02-.69-.02-1.04-.05-.76-.09-1.26.13-1.29,1.14-.02.7-.12,1.37-.39,2.01-.21.51-.1,1.01.1,1.49.21.49.46.98.21,1.47-.33.67.09,1.4-.15,2.01-.22.56-.12,1,.15,1.41.47.73,1.01,1.38,1.52,2.08.25.34.08.54-.18.88-.56.71-.56.76-.44,1.92.04.43,0,.67-.41.81-.99.34-1.96.69-2.21,1.89-.31.11-.61.32-.93.34-1.33.13-2.25.83-2.73,2.04-.26.66-.51,1.31-1.17,1.63-1.43.7-2.61,1.64-3.17,3.2-.19.52-.7.76-1.17.98-.47.21-.97.35-1.45.53-.53.2-.93.73-.85,1.12.04.22.08.44.12.67.07.37.14.74.21,1.1.06.3.12.6.18.89.06.3.12.59.19.89s.34.59.58.82c.52.46,1.09.86,1.81.94.68.1,1.38.25,2.05.2,1.73-.12,3.46-.38,5.17-.08,1.94.32,3.78-.35,5.67-.39.51-.02,1.03.08,1.55.07.52-.01.99-.2,1.46-.43.46-.23.99-.3,1.51-.08.32.13.64.23.96.36,1,.43,1.99.5,2.98-.07.59-.34,1.21-.66,1.81-1.01.62-.33,1.27-.51,1.98-.55,2.4-.08,4.83.02,7.16-.83.67-.24,1.35.1,1.88.61.51.49.86,1.08.98,1.77.1.51-.03.99-.45,1.38-.13.13-.27.24-.41.35-.1.09-.21.16-.31.23-.08.06-.16.11-.25.16-.08.05-.16.1-.25.14-.13.07-.27.13-.41.19-.11.05-.24.09-.36.13-.25.08-.52.14-.79.17-.15.02-.31.04-.46.04-.75.01-1.43.22-1.86.75-.74.89-1.65,1.21-2.73,1.14-1.42-.07-2.73.32-4.01.88-.95.42-1.87.89-2.8,1.33-.63.29-1.24.66-1.9.83-1.19.31-2.23.88-3.29,1.46-2.56,1.44-5.09,2.93-7.92,3.79-.16.04-.33.11-.45.23-.12.11-.2.29-.26.44-.26.67-.31,1.35.09,1.98.18.29.41.56.66.8,1.04.96,1.03,2.07.5,3.28-.28.65-.62,1.22-1.03,1.79-1.11,1.52-2.16,3.11-3.23,4.67-.09.14-.14.32-.15.48-.01.15.04.31.13.42.1.12.27.26.41.25.51-.02,1.07,0,1.52-.19,1.42-.63,2.81-1.33,4.21-2,.44-.07.89-.12,1.32-.21.64-.17,1.15.1,1.65.42-.33.61-.64,1.23-.99,1.83-.76,1.25-1.89,2-3.32,2.23-.68.11-1.37.12-2.06.15-.51.01-1.04-.09-1.55-.04-.51.05-.97.24-1.25.75-.5.93-.91,1.87-1.09,2.89-.2,1.18-.11,2.42-.63,3.54-.11.25.01.69.15.98.39.79.61,1.65.32,2.48-.42,1.19-.5,2.29-.01,3.48.03.08.06.16.08.24.03.08.05.17.06.25.02.09.03.17.04.25.01.07.02.14.02.21.02.15.03.3.03.45.01.22.01.44.02.65.02,1.07-.3,2.05-.97,2.89-.22.25-.45.52-.72.74-.14.1-.27.22-.39.34-.03.02-.06.05-.07.08-.04.03-.08.07-.11.11-.07.06-.12.13-.18.21,0,.01-.02.03-.03.04-.09.11-.17.23-.25.35,0,.01-.01.02-.02.03-.03.05-.06.1-.09.16-.07.13-.13.26-.19.39-.03.08-.07.15-.1.23-.08.2-.14.4-.2.62-.23.82-.61,1.61-.91,2.42-.24.61.15,1.29.83,1.63.64.29,1.3.51,1.99.48,1.03-.02,2.1-.02,3.08-.29,2.18-.6,4.36-1.04,6.63-1,.87,0,1.67-.42,2.51-.57,1.37-.25,2.57-1,3.93-1.24,1.53-.29,3.07-.51,4.59-.8,1.19-.21,2.39-.42,3.55-.74,1.34-.38,2.76-.15,4.07-.68.37.11.73.07,1.07-.14,1.39.29,2.78-.06,4.17,0,.67.35,1.33.4,1.96-.11.22-.05.44-.13.65-.21.1-.05.21-.09.31-.13.11-.04.22-.09.33-.12.11-.04.21-.07.32-.09.11-.03.22-.04.34-.05,1.78-.12,2.65.83,2.17,2.46-.19.64-.44,1.29-.76,1.88-.14.27-.48.49-.77.62-.3.13-.66.13-1,.19-.33.07-.66.14-.99.21-.38.1-.48.4-.62.74-.36.86-.39.9-1.51,1.16-.55.13-1.03.39-1.09.89-.14,1.14-.73,1.83-1.76,2.29-.62.27-1.19.65-1.79,1-.17,0-.35-.04-.51.01-1.45.4-2.67.33-3.27-1.36-.09-.25-.49-.44-.79-.52-.09-.03-.19-.06-.28-.07h-.01c-.09-.01-.18-.02-.26-.02h-.1c-.12,0-.23.01-.35.03-.31.02-.6.15-.9.25.06.15.13.32.17.47.15.65.15,1.4.49,1.91.56.82.56,1.47-.04,2.26-.24.3-.01.63.33.81.16.08.32.14.48.2.02.01.04.02.07.02.1.03.19.06.3.08l.12.03c.82.17,1.65.08,2.5-.1.16.04.32.1.49.16.67.24,1.24.6,1.48,1.31.16.49.24,1.01.47,1.45.49.93,1.12,1.86,2.16,2.12,1.97.5,3.3,1.78,4.46,3.31.1.13.2.32.18.48-.03.32-.02.8-.22.93-.99.68-2.05,1.25-3.05,1.91-.25.17-.41.54-.51.85-.11.32-.11.69-.14,1.02-.11,1.38.56,2.35,1.76,2.86.92.42,1.87.79,2.97.32,1.13-.47,2.36-.51,3.55-.09.49.16.96.5,1.45.52s.99-.26,1.49-.38c.06-.02.13-.02.19-.02s.13.01.19.02c.07.01.13.04.19.07.01,0,.02.01.03.01.05.03.1.06.14.09h.01c.05.05.1.1.14.15.05.05.08.11.11.17.04.07.06.14.07.22.07.52.14,1.03.18,1.54.03.31-.19.63-.59.65-1.44.14-2.7.54-3.5,1.86-.07.12-.28.17-.42.26-.32.25-.6.17-.96.02-.5-.23-1.02-.04-1.4.34-.15.14-.21.28-.21.42,0,.05.01.09.02.14.01.03.02.05.03.08.03.08.06.15.11.22.08.14.18.29.23.44.34.97.33.94-.4,1.68-.52.52-1.05.84-1.8.64-.33-.1-.67-.18-.99-.3-.67-.26-1.33-.4-1.99-.22-.17.04-.33.11-.5.19-.77.41-1.65.45-2.48.66-.44.12-.85.73-.85,1.17-.01,1.05.3,2.04.55,3.02.13.54.5.91.89,1.24.25.22.56.41.87.51.16.05.31.12.45.19.07.03.14.07.21.11.14.07.27.16.4.24.12.08.24.16.36.24.26.18.52.37.79.55.34.21.52.9.38,1.38-.1.33-.36.67-.29.96.01.06.03.12.06.17.01.02.02.05.04.07.1.19.26.33.46.45.05.03.11.06.17.09.11.06.23.1.35.15.21.08.41.16.61.25.19.09.39.19.57.3.19.1.37.21.55.33.17.11.34.24.51.37.33.25.65.54.95.85.12.12.24.26.36.4.17.19.33.4.48.61.09.13.26.21.42.29.4.2.82.38,1.28.32.06-.01.13-.02.19-.04.82-.26,1.63-.57,2.46-.76.84-.19,1.73-.4,2.56-.11,1.18.39,2.35.4,3.55.26.02,0,.13.29.09.43-.11.44-.72,1.23-1.2,1.55-.73.47-1.5.83-2.41.6-.17-.03-.33-.1-.5-.15-.24-.07-.47-.12-.71-.15-.11-.02-.23-.04-.35-.05-.25-.02-.5-.02-.75,0-.14.02-.28.04-.42.07-.26.04-.53.12-.79.23-2.09.83-4.26,1.39-6.52,1.46-.88.04-1.67.39-2.48.69-.9.31-1.7.05-2.36-.59-.37-.36-.69-.78-1.04-1.16-.07-.83-.19-1.64.16-2.5.18-.42.09-1.01-.05-1.48-.25-.8-.63-1.58-.97-2.35-.17-.42-.87-.49-1.29-.13-.13.1-.29.22-.35.37-.45,1.09-.36,1.67.39,2.27.26.2.54.39.82.59.75.54.74.85-.07,1.3-.45.24-.87.5-1.15.95-.62.67-.94,1.42-.7,2.35.16.68.32,1.35.45,2.02.03.11-.05.3-.14.38-.31.3-.61.25-.91-.02-.39-.33-.84-.63-.99-1.15-.2-.66-.35-1.33-.79-1.87-.26-.34-.52-.69-.77-1.04s-.5-.71-.75-1.06c-.17-.24-.08-1.13.19-1.45.22-.25.48-.48.74-.69.62-.49.75-1.73.25-2.26-.34-.38-.69-.79-1.11-1.06-.88-.6-1.57-1.28-1.98-2.3-.33-.83-1.93-2.75-2.53-3.2-.69-.53-1.41-1.01-2.31-1.1-.69-.06-1.39-.2-2.06-.14-.68.06-1.35.26-1.99.5-.87.32-1.38,1.2-1.31,2,.03.27.06.53.09.8.04.25.09.5.14.74.04.24.1.48.16.71.04.18.1.36.16.54.08.26.17.53.27.79.1.25.21.51.33.76s.25.5.39.74c.05.08.09.16.14.24.1.16.21.33.32.48.45.63.27,1.29.16,1.96-.03.18-.04.35-.06.51-.3.12-.59.34-.89.35-.49.01-.98-.12-1.48-.13-.15-.01-.36.07-.46.18-.26.28-.32.59-.15.81.09.11.28.23.43.23,1.14.05,1.67-1.01,2.56-1.41l.36-.36c.56-.49,1.2-.6,1.89-.37.97.32,1.92.64,2.64,1.44.3.33.4.54.1.87-.45.49-.87,1-1.3,1.5-.33,1.51-1.44,2.21-2.76,2.73-.79.29-1.54.69-2.33.96-.28.08-.67-.03-.97-.15-.31-.12-.59-.35-.83-.58-.15-.14-.29-.29-.43-.45-.2-.22-.4-.44-.61-.65-.11-.11-.31-.18-.47-.18-.33.01-.61.23-.63.58,0,.19-.02.39-.04.58h0c-.01.13-.02.24-.04.35l-.03.21c-.02.12-.05.23-.09.35-.02.07-.04.14-.08.2-.02.06-.06.13-.1.19-.03.06-.07.12-.12.17-.07.11-.16.21-.27.3-.11.1-.24.19-.39.27-.16-.01-.31-.06-.47-.06-.05,0-.1,0-.15.01-.04,0-.09,0-.14.01-.06,0-.1.01-.15.02s-.1.02-.15.04c-.04.01-.08.02-.12.04-.1.04-.2.1-.28.18-.03.02-.06.05-.08.08-.05.05-.09.11-.12.18-.14.3.42.82.9.87.63.06,1.26.08,1.89.12.13.12.27.21.38.34,1,1.22,2.23,1.56,3.7,1.02.33-.12.6-.05.92.21.38.31.68.79,1.26.82,1.44.09,2.52,1.1,3.85,1.49.04.01.08.02.12.04.04.01.08.02.11.04.03.01.05.02.08.04.03.01.05.02.07.05.04.03.08.05.12.09.02.01.03.02.04.04.07.07.15.16.22.27.06.09.13.21.21.34.1.16.21.36.33.59.35.64.82,1.26,1.48,1.32.71.06,1.32.11,1.88.6.18.15.61-.03.84-.31.75-.99,1.02-2.17,1.42-3.31.16-.48.58-.86,1.15-.91,1.55-.09,3.1-.2,4.65-.23.27,0,.71.28.79.53.29.86.63,1.56,1.65,1.74.29.05.58.36.77.63.73.98,1.28,2.04,1.48,3.26.08.5.22,1.03.47,1.47.13.22.56.29.85.44,1.03-.67,2.17-1.1,3.35-1.35.49-.11,1.04-.08,1.53.01.5.11.95.43,1.45.56,1.17.34,2.31.75,3.18,1.65.5.52,1.22.61,1.76,1.03,1.31,1.01,2.76,1.38,4.39.87.31-.09.69-.04,1.03.02,1.65.35,2.89,1.73,2.61,3.29-.19,1.01-.24,2.07-.87,2.95-.46.66-.41,1.25.09,1.86.62.75.54,1.57.35,2.44-.33,1.49-1.26,2.43-2.58,3.04-.31.15-.63.29-.96.39-.83.21-1.71.32-2.51.63-.11.04-.23.09-.34.12-.13.05-.26.08-.39.11-.05.02-.1.03-.15.04h-.02c-.15.04-.31.07-.47.09-.05,0-.1.02-.15.02-.2.03-.4.05-.6.06-.48.03-.96.02-1.44,0-.69-.05-1.38-.19-2.04.13-.14.06-.31.14-.38.27-.22.37-.13.7.23.87.46.23.93.59,1.4.61.2,0,.4.03.6.05.15.02.3.03.45.05.25.04.51.09.76.14.15.03.29.06.44.1.31.08.62.16.92.25.31.09.61.18.92.28.19.06.38.12.58.19.2.07.4.13.6.2.2.07.4.13.6.2.18.06.36.12.54.17.19.07.39.12.58.18.15.05.29.2.39.33.2.29.41.56.54.86.04.11-.13.3-.22.43-.29.44-.52.88-.54,1.43-.03.68.2,1.74.66,2.44.39.59.6,1.2.6,1.93,0,1.38-.1,2.74-.56,4.07-.02.06-.03.12-.03.18,0,.05.01.09.02.14.01.04.02.07.03.11,0,.02.01.04.02.06,0,.02.02.04.03.06.03.09.09.18.16.26.03.05.08.1.13.15l.07.07c.05.05.11.1.17.14.12.09.24.16.37.21.07.03.15.06.22.07.51.1,1.01.2,1.52,0,.16-.06.32-.11.48-.15.15-.04.3-.08.45-.09.02-.01.04-.01.06-.01.09-.02.19-.03.28-.03.11-.01.23-.02.34-.01.07,0,.13,0,.2.01.07-.01.15,0,.23,0,.39.05.63-.1.92-.33.51-.46,1.15-.75,1.65-1.21.51-.45.84-1.09,1.45-1.46.65.08,1.31.19,1.97.27-.13.3-.19.67-.39.91-.44.51-.95.96-1.42,1.45-.29.31-.25,1.11.1,1.44.36.33.76.68,1.2.91.46.25,1,.27,1.47-.02.43-.26.81-.59,1.22-.9.08-.37.32-.55.66-.43.32.1.41.39.34.73-.01.34-.03.7-.04,1.04-.33.09-.55.29-.68.59-.13.29-.16.58,0,.85.15.24.41.22.76.05.27-.13.58-.2.87-.28h.02c.06.31.09.63.19.9.21.62.53.75.97.44.51-.37.95-.77,1.18-1.38.33.06.64-.01.91-.23.3-.45.71-.71,1.25-.54.66.19,1,.95.77,1.63-.17.5-.49.84-.97,1.07-.76.69-1.54,1.38-2.28,2.09-.24.23-.42.53-.61.8-.23.35-.23.66-.05.93.19.26.51.54.52.81.03.62-.6.8-1,1.05-.87.55-1.8.99-2.72,1.45-.14.06-.38.08-.51,0-.29-.15-.53-.39-.79-.61-.4-.33-.79-.64-1.19-.96-1.22-.1-2.11-1.16-3.37-1.14-.52,0-1.04-.05-1.48.27-.42.3-.77.76-1.24.9-.16.05-.3.11-.44.18-.11.05-.21.11-.31.18-.01,0-.03.01-.04.02-.26.17-.5.38-.72.6-.11.1-.21.2-.3.3-.1.11-.2.22-.31.34-.1.11-.2.22-.3.32-.1.11-.2.21-.31.31-.38.36-.52.91-.33,1.43.38,1.15,1.05,2.17,1.22,3.4.02.14.19.28.31.4.23.21.57.35.93.25,1.04-.31,1.82-.93,2.36-1.88.16-.29.47-.67.73-.68,1.38-.07,2.72-.5,4.11-.31.16.04.31.17.45.26.59.42.88,1.04,1.17,1.66.09.19.16.33.23.43.04.05.07.08.1.11.04.03.07.05.11.06h.01s.05.02.07.02h.02s.08-.01.12-.03c.01-.01.02-.01.03-.01,0-.01.01,0,.01,0h0s.02-.01.02-.01c.07-.02.15-.05.24-.1.31-.14.58-.46.88-.48,1.2-.11,2.4-.1,3.59-.19.35-.04.67-.1,1.01.02.84.3,1.69.33,2.5-.11.79-.44,1.64-.52,2.5-.51.87.01,1.73.07,2.59.14,1.05.09,2.06-.12,3.06-.4.33-.11.66-.23.97-.37,1.14-.48,2.34-.57,3.56-.56.86.02,1.71.11,2.57.1.33-.02.66-.21.98-.31.34,0,.67-.02,1.01-.03,1.03.38,2.09.35,3.15.11.16.05.33.07.49.13,1.19.33,2.33-.33,3.52-.18.68.1,1.33-.12,1.99-.3.65-.16,1.32-.27,1.99-.33,1.52-.11,3.04-.15,4.57-.23-.02.52-.23.94-.74,1.04-.95.19-1.88.37-2.5,1.2-.1.55-.46.85-.98.93-.32.06-.65,0-.98,0-.24.18-.35.42-.32.72-.6.32-1.22.6-1.8.95-.61.36-1.24.51-1.94.44-.68-.07-1.35-.15-2.03-.19-.33-.01-.67.07-1.01.11-1,.14-1.72,1-1.69,2.14.02.34.09.64-.12.96-.26.43-.48.88-.71,1.34-.17.33-.04.62.12.95.03.06.05.11.07.17.03.07.04.14.05.2.03.18.02.36-.04.51-.03.11-.09.2-.16.27-.03.03-.07.07-.11.1-.08.06-.17.1-.28.12-.07.02-.15.02-.23.02-1.18-.02-2.41.07-3.55-.18-.23-.05-.46-.1-.69-.13-.15-.03-.29-.05-.43-.06-.13-.02-.27-.04-.41-.05h-.01c-.29-.03-.58-.05-.87-.07-.38-.02-.76-.03-1.14-.04-.67-.02-1.34-.03-2.01-.06-.71-.05-1.3.31-1.79.82.14.14-3.29.21-4.94.27-.29-.16-.58-.35-.89-.5-.51-.22-.99-.12-1.43.22-.43.33-.65.78-.89,1.25-1.2.04-2.42,0-3.56.44-.1.03-.2.07-.29.09-.05.02-.09.03-.14.04-.08.03-.16.04-.25.06-.16.05-.32.07-.48.09-.14.02-.28.04-.41.04-.17.01-.35.02-.52.02h-.02c-.35,0-.7-.02-1.06-.05l-.39-.03c-.27-.03-.53-.03-.79.01-.2,0-.4.06-.59.12-.08.02-.16.05-.23.09-.05.02-.1.04-.14.07-.08.04-.16.09-.23.14-.09.06-.17.13-.25.2-.16.15-.3.34-.42.55-.47.84-1.18,1.15-1.98,1.47-.31.12-.38.52-.04.79.51.44,1.09.9,1.71,1.07,1.14.31,2.3.56,3.51.48.69-.06,1.17-.47,1.5-.51,1.03-.16,2.05-.35,3.06-.54,1.27-.25,2.32.61,3.53.68.46.01,1.17-.22,1.35-.57.39-.78.8-1.54,1.16-2.31.58-1.25,1.58-1.73,2.91-1.62.69.06,1.38.03,2.06.12.85.09,1.69.29,2.54.38.32.03.66-.12.99-.2,1.53.15,3.05.27,4.59-.08.99-.22,2.01-.35,3.03-.45.26-.01.66.25.78.49.12.25.05.68-.09.93-.17.26-.49.47-.79.63-.45.24-.95.38-1.41.61-.42.2-.85.97-.68,1.25.17.25.43.47.7.6.3.15.66.17.99.24.66.17,1.32.32,1.89.75.29.23.35,1.06.02,1.31-.26.2-.56.48-.85.49-.7.06-1.38.04-2.07.02-.16-.01-.32-.01-.48-.01-.41-.01-1.09.62-1.04.97.08.51.32.95.7,1.29.11.11.31.16.47.17.85.07,1.7.08,2.49-.31.45-.23.88-.53,1.36-.67.08-.03.17-.05.25-.06.09-.02.17-.03.26-.03,1.13-.06,1.85-.75,2.48-1.61.5-.69,1.04-1.36.98-2.28l.03-.04c.44-.24.87-.58,1.34-.67,1.56-.28,2.76-1.14,3.9-2.18.22-.19.63-.2.96-.23.39-.06.65-.23.68-.59.01-.13-.05-.32-.15-.39-.51-.43-.89-1.02-1.58-1.21-.13-.36-.26-.73-.38-1.09.26-.08.58-.29.8-.29.03,0,.07.01.1.02.84.38,1.58.08,2.32-.22.5-.2.99-.14,1.43,0,.61.22,1.21.43,1.87.43.17.04.34.09.51.07.77-.04,1.33-.53,1.39-1.2.03-.32.01-.69-.09-1-.12-.37-.04-.63.41-.7.32-.05.66,0,.96.07.11.04.17.29.23.44.26.67.66,1.18,1.35,1.43.63.25,1.23.69,1.88.79.68.08,1.21-.54,1.76-.91.32-.2.58-.25.96-.09.31.1.67.09,1.01.15.22.25.44.51.68.76.11.13.29.23.36.37.15.3.34.62.36.93.03.69-.08,1.37-.06,2.06.01.37.24.69.53.75.67.18,1.4.18,2.01.44.87.37,1.69.01,2.53.06.35.04.71.02,1.02.14,1.14.42,2.29.8,3.13,1.74.47.87.97,1.73,1.19,2.7.06.3.38.54.74.52.47-.03.96-.06,1.21-.64.28-.63.45-1.2-.05-1.81-.21-.25-.33-.57-.49-.85.33-.61.63-1.24,1.26-1.59.62-.33,1.12-.77,1.56-1.32.1-.13.27-.21.42-.28.46-.21.87-.36,1.43-.06,1.06.56,2.29.82,3.28,1.45,1.03.68,2.16,1,3.26,1.44.48.19.8.62,1.04,1.1.23.45.05.89-.46.96-1.02.17-1.94.56-2.81,1.08-.31.18-.46.53-.45.9.01.33.04.66.15.97.28.8.41.87,1,.85.68-.05,1.37-.07,2.06-.11.2.27.39.56.6.81.34.42.48.88.38,1.4-.03.16-.05.35-.13.48-.46.81-.36,1.58.04,2.38.32.63.33,1.3-.08,1.91-.28.41-.54.83-.09,1.27,1.2,1.19,2.46,2.31,4.08,2.88.46.17.98.13,1.48.19,1.11,1,2.2,2.04,3.34,2.99.51.44,1.11.75,1.7,1.06.29.13.65.13.97.19.36.07.68,0,.92-.29.66-.76,1.44-.66,2.25-.33-.01.55.15,1.06.66,1.23,1.76.58,3.53,1.15,5.44,1.04.85-.03,1.65.31,2.47.48.68.16,1.34-.03,1.99-.2.46.31.57.75.65,1.28.14.92,1.49,1.78,2.29,1.55.33-.07.67-.18.96-.32.84-.44,1.65-.32,2.46.05.15.07.3.18.46.21.51.15,1.01.17,1.44-.19.53-.41,1.05-.87,1.57-1.31.55-.45,1.14-.59,1.88-.46.49.08,1.08-.14,1.33-.6.7-1.27,1.72-1.52,3.02-1.14.16.05.34.06.51.05.5-.07,1.03-.09,1.5-.25.63-.24,1.25-.55,1.83-.92.94-.57,1.88-.5,2.94-.33,1.07.15,1.91-.48,2.28-1.57.83-.97,1.83-1.54,3.14-1.54.86,0,1.73-.06,2.59-.02,1.22.04,2.4.28,3.46.94.74.45,1.52.83,2.39.94,1.07.12,1.35.89,1.64,1.71.03.07.05.14.09.19.01.02.02.03.04.05.02.03.05.06.07.08.04.04.08.06.12.08s.09.03.13.03c.1,0,.2-.04.3-.12.41-.32.77-.69,1.2-.97.12-.08.24-.17.35-.25.08-.07.15-.13.22-.19.03-.03.05-.05.07-.07.08-.09.16-.17.23-.26.08-.1.16-.2.22-.3.07-.11.13-.21.18-.33.06-.12.11-.26.15-.4.04-.1.07-.21.09-.32.03-.13.05-.27.06-.42.04-.51.52-.81.95-1.12.16-.11.27-.22.34-.33.06-.1.09-.2.09-.31,0-.04,0-.08-.01-.12s-.02-.08-.03-.12c-.02-.05-.03-.09-.05-.13-.02-.05-.04-.09-.07-.14h0c-.01-.05-.03-.09-.06-.14-.34-.59-.67-1.2-1.01-1.8-.29-.52-.15-1.04.12-1.47.16-.25.32-.51.48-.76.16-.26.32-.52.47-.78.55-.92,1.07-1.85,1.62-2.77h0s0-.02.01-.02c.07-.11.13-.22.2-.33.15-.26.31-.52.47-.77.16-.26.32-.51.49-.76.28-.43.63-.83.78-1.31.15-.46.16-.98-.33-1.38-.06-.05-.11-.09-.16-.15-.05-.05-.1-.11-.14-.17,0,0-.01-.02-.02-.04-.01,0-.02-.02-.02-.03l-.09-.15c-.2-.41-.24-.89-.21-1.35.02-.51.2-1.01.31-1.51.12-.5.34-.97.19-1.52-.39-1.39.04-2.73.36-4.08.16-.69.52-1.25.99-1.79.81-.9,1.69-1.72,2.75-2.33.95-.52,2-.73,2.94-.06,1.04.74,2.15,1.06,3.4,1.01,1.2-.04,2.41-.04,3.62-.08,2.08-.06,4.15-.15,6.22-.19,1.56-.01,3.11.07,4.6.61.64.22,1.35.35,2.03.39,3.11.19,6.16.86,9.26,1.13,1.24.11,2.33.62,3.33,1.31.28.19.53.45.79.67.55.44,1.15.78,1.84.91,3.26.61,6.25,1.92,9.12,3.55.76.42,1.49.87,2.26,1.26.46.24.96.46,1.46.49,1.61.08,3.01.62,4.25,1.67.37.31.92.45,1.41.59,1.49.44,3.07.67,4.46,1.31.15.07.31.13.46.18.12.04.24.08.36.11.33.09.67.16,1.01.22.14.02.28.05.42.08.1.02.19.03.28.06.19.04.38.08.56.14.07.02.15.04.22.07.25.09.49.2.72.34.12.07.24.15.36.25.23.2.65.18.98.21.89.07,1.62.45,2.37.94,1.93,1.22,3.16,3.15,4.87,4.6.23.2.44.41.64.64.19.21.36.43.52.66.1.15.2.31.3.46.02.03.04.06.05.09.06.09.12.18.17.27.16.26.31.53.46.79.61,1.07,1.43,1.94,2.43,2.65.73.52,1.22,1.18,1.52,2.04.37,1,1.01,1.81,2.01,2.25.97.44,1.79,1.05,2.52,1.8.61.62,1.3,1.1,2.08,1.51,1.38.69,2.73,1.46,4.07,2.25.92.54,1.87.82,2.95.82.49,0,1.01.23,1.47.43,1.1.49,2.17,1.05,3.27,1.55,1.11.5,2.26.87,3.47,1,1.03.12,2.06.27,3.1.34.69.05,1.37-.13,1.97-.51.58-.37,1.12-.81,1.71-1.17,2.11-1.27,4.32-2.12,6.88-1.65,1.18.21,2.4.24,3.6.34.55.05.99-.17,1.36-.57.24-.26.5-.49.69-.77.55-.81,1.32-1.12,2.23-.97,2.07.35,4.14.1,6.21.08.7-.02,1.38-.19,1.99-.53.33-.19.63-.26.99-.13.32.12.66.19.99.31,1.03.36,2,.26,2.97-.27,1.31-.73,2.67-.57,4.01-.05.48.19.95.42,1.42.63.48.19,1.01.06,1.39-.38.79-.88,1.42-1.93,2.79-2.12.57-.08,1.01.04,1.4.38.26.24.46.53.69.79.52.58.88.7,1.11.21.32-.64.81-1.12,1.37-1.5.85-.58,1.74-1.13,2.67-1.57.8-.39,1.44-.93,1.97-1.62.53-.69,1.05-1.38,1.62-2.01.22-.25.55-.41.84-.61.3-.2.62-.27.98-.25,1.28.13,2.27.73,2.94,1.84.09.15.13.33.2.47.27.55.73.7,1.12.38.26-.21.53-.44.77-.68,1.12-1.07,1.13-1.06,3.11-1.56.62-.15,1.28-.85,1.33-1.44.06-.85.08-1.72.14-2.58.04-.51.15-1.01.58-1.38.91-.79,1.61-1.82,2.77-2.31.31-.13.63-.31.87-.56,1.24-1.19,2.53-2.34,3.66-3.63.92-1.06,1.91-2,3.19-2.58.14-.06.27-.13.4-.21.09-.06.19-.12.28-.18.32-.22.62-.46.93-.69.31-.23.63-.45.98-.63.92-.46,1.86-.89,2.79-1.35.31-.16.65-.29.88-.54.3-.31.62-.61.95-.88.03-.03.06-.05.1-.08.23-.19.46-.36.7-.53.02-.02.05-.04.08-.05.26-.19.52-.36.8-.52.19-.12.38-.23.58-.33.07-.04.14-.08.21-.12.08-.04.17-.09.26-.13l.12-.06c.2-.11.4-.2.6-.29.1-.05.2-.1.3-.14.46-.21.83-.62,1.21-.98,1.31-1.23,3.18-1.28,4.65-2.17.42-.27.98-.36,1.49-.41,1.2-.08,2.41-.13,3.62-.14.51,0,1.04.08,1.53.22,1.99.61,3.95,1.31,5.41,2.92.48.52,1.07.89,1.77.96,2.29.23,4.34,1.1,6.37,2.08,4.35,2.09,8.7,4.2,13.06,6.29.31.16.65.23.97.36.36.13.67.08.99-.11.45-.26,1-.39,1.36-.73,1.26-1.21,2.72-1.36,4.33-1,1.18.26,2.36.52,3.55.73.31.05.7-.06.98-.21.76-.41,1.5-.87,2.22-1.33.28-.18.6-.43.71-.73.23-.63.2-1.43.55-1.96.45-.72,1.18-1.23,1.77-1.85.02-.02-.1-.25-.2-.3-.81-.39-1.71.01-2.53-.26-.3-.11-.56-.32-.82-.5,0-.05.15-.31.24-.44.1-.13.21-.27.34-.38,1.19-1.06,2.44-1.86,4.18-1.57.83.14,1.72-.17,2.57-.13,1.66.06,3.04-.56,4.29-1.55.95-.75,1.98-1.45,2.74-2.37,1.14-1.37,2.66-2.19,4.04-3.21.89-.67,1.94-.65,2.96-.23,1.74.67,3.37,1.51,4.71,2.73.55.5,1.05,1.06,1.5,1.71.39.57.86,1.1,1.24,1.68.28.43.4.92.21,1.45-.5,1.39-.2,2.73.32,4.04.35.84.25,1.66-.13,2.49-.37.78-.83,1.39-1.72,1.76-1.91.81-3.73,1.79-5.59,2.71-.2.1-.39.22-.57.35-.38.27-.71.6-1.03.95-1.07,1.15-2.32,2.03-3.82,2.57-.83.3-1.52.8-2.08,1.5-.64.8-1.58,1.31-2.1,2.25-.23.42-.79.63-1.2.94-.71.49-1.42.99-1.75,1.83-.21.27-.49.49-.59.79-.18.51.06,1,.3,1.46.09.16.2.29.31.42,2.23,2.41,4.18,5.05,6.13,7.67.09.12.26.17.4.24,0,.01.03.01.04.02.08.69.49,1.24.77,1.84.48,1.08,1.28,1.99,1.51,3.17-.36.38-.68.8-1.08,1.12-1.23.99-1.9,2.42-2.94,3.56-.35.38-.43.93-.43,1.44-.7.53-1.33,1.11-2.17,1.41l-1.07,1.77c.34.92.68,1.84.97,2.78.09.29-.03.7-.16.99-.21.48-.45.96-.79,1.32-.69.77-1.47,1.44-2.2,2.17-.28.29-.26.61-.12.97.25.69.19,1.34-.32,1.92-.34.4-.71.77-.99,1.19-.28.44-.39.97-.09,1.46.34.58.91,1.02,1.05,1.75.1.56.49.83,1.04.96.5.11,1.02.23,1.46.48,1.35.77,2.62,1.64,3.76,2.72.54.52.8,1.12.88,1.81.07.69.16,1.35.19,2.02h0c.02.37.02.72,0,1.08-.12,1.97.43,3.74,1.38,5.43.09.14.17.32.17.47.01.35.09.79-.08.99-.89,1.08-1.33,2.43-2.14,3.55-.56.75-.67,1.57-.68,2.43-.01.69.06,1.38.13,2.06.07.71-.06,1.37-.36,2.01-.15.3-.37.62-.39.94-.1,1.19-.2,2.4-.17,3.61.02,1.06.75,1.9,1.13,2.87.17.43.39.86.62,1.29.18.34.35.68.51,1.03.21.46.47.96.49,1.46.04,1.8.95,3.29,1.64,4.86.13.27.45.52.74.69,1.24.65,2.55,1.07,3.97.95,2.93-.21,5.87-.13,8.8-.06.69.03,1.39.01,2.07-.08.29-.05.66-.31.8-.59.49-.9.81-1.91,1.87-2.36.35.57.73,1.11,1.05,1.7.44.78,1.11,1.22,1.98,1.36.82.11,1.66.15,2.48.26.32.03.56.27.73.59-.5.11-1,.22-1.51.31-.16.05-.36.05-.49.14-.27.2-.68.41-.73.66-.22,1.27-.94,2.17-1.92,2.92-.11.08-.13.31-.19.46-.13.35.03.57.48.64.51.1,1.03.24,1.53.22,1.13-.05,1.91.68,2.8,1.15.13.65.52.93,1.17.92.36.32.69.68,1.08.94.54.38,1.15.64,1.65,1.05.22.16.38.58.36.84-.07.8-.56,1.55-.08,2.36.02.98.59,1.58,1.38,2.01.51.28.75.68.81,1.22.04.34-.01.69-.01,1.03.02.72.22,1.35.8,1.82.26.22.54.42.77.67.48.51.53,1.34.14,1.88-.31.43-.61.85-.95,1.24-1.02,1.19-1.76,2.51-2.18,4.05-.36,1.33-1.14,2.48-2.16,3.46-.62.61-1.22,1.23-1.84,1.82-.75.74-1.59,1.31-2.65,1.53-.33.07-.66.21-.95.39-.76.46-1.3,1.12-1.28,2.07,0,.51.09,1.02.14,1.54.05.44-.41,1.09-.8,1.15-.85.12-1.72.18-2.56.32-.31.05-.62.26-.87.49-.26.21-.42.54-.64.8-.91,1.03-1.65,2.2-2.38,3.37-.42.68-1.55,1.08-2.28.66-.29-.16-.61-.29-.92-.45-.64-.32-.99-1.13-.75-1.71.14-.32.33-.61.46-.93.18-.48.36-.97.5-1.45.16-.56-.17-.98-.47-1.4-.24-.33-.51-.39-.91-.26-1.14.36-2.3.7-3.45,1.06-.34.11-.57.35-.77.64-.68,1-1.52,1.85-2.48,2.61-1.07.87-1.87,2-2.38,3.31-.12.31-.4.56-.57.86-.32.53-.23,1.04.24,1.29.76.41,1.54.79,2.29,1.2.3.15.58.35.86.54.91.66,1.43,1.49,1.21,2.65l-.14.1c-.82.21-1.64.42-2.47.61-1.13.23-1.8.81-1.86,2.05-.02.46-.23,1.05-.56,1.38-1.19,1.2-2.29,2.57-3.86,3.3-1.18.53-1.85,1.4-2.28,2.58-.35.94-.5,1.98-1.13,2.82-.17.24-.21.7-.09.97.43.91.97,1.78,1.24,2.78.04.14.16.27.28.39.12.12.27.21.41.3l.17.22c.17,1.09-.31,2.1-.3,3.17.01.17-.03.36.04.5.32.58.74,1.1,1,1.71.26.62.41,1.28.55,1.96.22.99.36,2,.56,2.99.11.51.44.89.89,1.17-.15.48-.17,1.09-.47,1.44-1.03,1.21-1.72,2.53-1.96,4.12-.08.46-.41.95-.73,1.34-.77.92-1.59,1.79-2.4,2.67-.33.35-.25.58.18.81.76.39,1.48.97,2.34,1.02,1.39.06,2.67.64,4.04.68.59.01.98.32,1.26.75.68,1.02,1.42,1.88,2.8,1.96,1.01.06,1.39.81,1.49,1.77.05.5.18,1.03.62,1.36,1.13.86,1.81,2.04,2.36,3.31.05.12.23.23.37.29.5.2,1.02.06,1.53.07,1.03.05,2.06.11,3.08.18.17,0,.33.08.49.15.16.06.35.11.45.23.73.83,1.9.69,2.76,1.26.85.57,1.81.99,2.71,1.47.08.14.12.33.23.44q3.6,3.39,8.33,3.83c.17.01.34.02.5.04.4.33.83.63,1.36.66,1.38.13,2.76.25,4.14.35,1.22.07,2.42.26,3.52.81,1.14.55,2.3.58,3.53.39,1.04-.14,2.05.17,3.07.38,1.12.24,2.01-.3,2.82-.97.25-.22.45-.53.66-.79.64-.82,1.25-1.66,1.91-2.46.32-.41.69-.78,1.07-1.14.38-.36.87-.54,1.41-.48,1.2.1,2.39.34,3.61.19.89-.12,1.66-.43,2.14-1.24.5-.17.91-.49,1.25-.87,1.15-1.31,2.45-2.44,3.73-3.6.69-.6,1.51-.86,2.37-.89.93-.01,1.85.04,2.78.06l-2.72-23.6-3.38-18.78,4.13-20.27,8.26-10.89,10.52-6.01,16.52-.75,15.77.37,43.18,3.76,12.39,4.13,1.49-1.31,4.24,3,11.27,1.88,24.03,9.38,11.64,5.26,14.64,11.64,10.89,6.76,24.41,8.64,18.78,6.38,10.14,8.26,9.01,10.14,12.01,15.4,16.9,18.4,17.28,21.4,8.63,12.02,14.27,11.26,16.52,11.27,29.29,10.89,25.91,7.13,29.67,3.01,36.8,10.13,24.78,7.89,3.2,2.87c.27-.6.56-1.2.86-1.79.73-1.39,1.81-2.54,3.25-3.25.62-.31,1.22-.68,1.86-.93,1.61-.62,3.23-1.19,4.86-1.76,2.14-.75,4.33-1.19,6.61-1.18h9.34c2.28,0,4.45.5,6.53,1.43,2.21.99,4.44,1.9,6.67,2.87.8.34,1.6.65,2.35-.12,1.39,0,2.73-.19,3.95-.94.28-.18.64-.25.98-.31,2.44-.33,4.84-.26,7.13.74,2.05.89,4.09,1.84,6.13,2.77,2.05.95,4.17,1.66,6.47,1.68.69,0,1.38.06,2.07.11,1.07.07,2.04-.15,2.92-.82.56-.44,1.27-.43,1.97-.47.51-.01,1.02-.13,1.51-.27.77-.24,1.31-1.19,1.19-2.07-.05-.35-.17-.67-.21-1.02-.05-.44.51-.9.95-.79,1.91.47,3.86.61,5.81.69l-1.91-.82Z" style="fill: none; stroke: #000; stroke-miterlimit: 10;"/>
</svg>