<?xml version="1.0" encoding="UTF-8"?>
<svg id="a" data-name="Ebene 1" xmlns="http://www.w3.org/2000/svg" width="1920" height="1080" viewBox="0 0 1920 1080">
  <path d="M660.95,289.26l-2.25,5.26-13.52,5.26-5.64,10.7-9.01,8.07-15.58,4.7-12.77,7.32-5.82,6.95-6.76,7.88-9.01-.37-12.02-3.57-17.27-2.07-13.71-1.31-16.52.75-9.2-.37-17.65-1.69-12.01-2.07-5.26-3.75,2.82-8.08,1.5-10.32-2.63-5.07-6.57-2.26-1.88-2.25.56-6.76-11.82-3.75-13.15-4.32-21.03-.94-18.77,2.44-6.95,7.51-9.39,7.89-14.27,1.5-15.2.94-9.95,2.25-7.33,9.2-15.77,1.69-19.34-.38-8.26,1.51-12.76,4.69-7.33,6.38-6.76,10.71,2.26,12.01,7.88,8.26,9.95.57,17.46.56,8.08,3.38.56,10.14-2.44,6.94,9.39,4.89,12.77,6.19,4.88,3.01,1.69,4.88-6.57,2.63-5.45,5.63,1.88,6.01,4.32,4.88,5.82,6.01.18,6.94-4.31,15.59.75,4.5-6.01,2.07-16.34-5.63-1.49-.04c-.13-.12-.27-.24-.42-.34-1-.69-2.09-1.2-3.33-1.31-3.1-.27-6.15-.94-9.26-1.13-.68-.03-1.39-.17-2.03-.39-1.49-.54-3.04-.62-4.6-.61-2.07.04-4.14.13-6.22.19-1.21.04-2.42.04-3.62.08-1.25.05-2.36-.27-3.4-1.01-.94-.66-1.99-.46-2.94.06-1.06.61-1.94,1.43-2.75,2.34-.47.53-.83,1.09-.99,1.78-.32,1.35-.75,2.69-.36,4.08.15.55-.07,1.02-.19,1.52-.11.5-.29,1-.31,1.51-.04.61.04,1.26.47,1.73.05.06.11.11.17.16.49.41.48.92.33,1.38-.15.48-.5.88-.78,1.31-.17.25-.33.5-.49.76-.16.25-.32.51-.47.77-.07.11-.13.22-.2.33,0,0,0,0,0,0h0c-.55.93-1.07,1.86-1.62,2.78-.15.26-.31.52-.47.78-.16.25-.32.51-.48.76-.27.43-.41.95-.12,1.47.34.6.67,1.21,1.01,1.81.03.05.05.09.06.13l-.23,1.12s-.03.02-.04.03c-.43.31-.91.61-.95,1.12-.01.15-.03.29-.06.42-.02.11-.05.22-.09.32-.04.14-.09.28-.15.4-.05.12-.11.22-.18.33-.06.1-.14.2-.22.3-.07.09-.15.17-.23.26-.19.18-.4.35-.64.51-.43.28-.79.65-1.2.97-.1.08-.2.12-.3.12-.04,0-.09,0-.13-.03-.04-.01-.08-.04-.12-.08-.02-.02-.05-.05-.07-.08-.02-.02-.03-.03-.04-.05-.04-.05-.06-.12-.09-.19-.29-.82-.57-1.59-1.64-1.71-.87-.11-1.65-.49-2.39-.94-1.06-.66-2.24-.89-3.46-.94-.86-.04-1.73.02-2.59.02-1.31,0-2.31.57-3.14,1.54-.37,1.09-1.21,1.72-2.28,1.57-1.06-.17-2-.24-2.94.33-.58.37-1.2.68-1.83.92-.47.17-1,.18-1.5.25-.17,0-.35,0-.51-.05-1.3-.38-2.32-.13-3.02,1.14-.25.46-.84.68-1.33.6-.74-.13-1.33,0-1.88.46-.52.44-1.04.9-1.57,1.31-.43.36-.93.34-1.44.19-.16-.03-.31-.14-.46-.21-.81-.37-1.62-.49-2.46-.05-.29.14-.63.25-.96.32-.8.23-2.15-.63-2.29-1.54-.08-.54-.19-.98-.65-1.29-.65.17-1.31.36-1.99.2-.82-.16-1.62-.51-2.47-.47-1.91.1-3.68-.47-5.44-1.05-.51-.17-.67-.68-.66-1.23-.81-.33-1.59-.43-2.25.34-.24.28-.56.35-.92.28-.32-.06-.68-.06-.97-.19-.59-.31-1.19-.62-1.7-1.06-1.14-.95-2.23-1.99-3.34-2.99-.5-.06-1.02-.02-1.48-.19-1.62-.57-2.88-1.69-4.08-2.88-.45-.44-.19-.86.09-1.27.41-.61.4-1.28.08-1.91-.4-.79-.5-1.57-.04-2.38.08-.13.1-.32.13-.47.1-.53-.04-.99-.38-1.41-.21-.25-.4-.53-.6-.81-.69.04-1.38.06-2.06.11-.59.02-.72-.05-1-.85-.11-.31-.14-.64-.15-.97-.01-.37.14-.72.45-.9.87-.52,1.79-.91,2.81-1.08.51-.07.69-.51.46-.96-.24-.48-.56-.91-1.04-1.1-1.1-.44-2.23-.76-3.26-1.44-.99-.63-2.22-.89-3.28-1.45-.56-.3-.97-.14-1.43.06-.15.07-.32.15-.42.28-.44.55-.94.99-1.56,1.33-.63.34-.93.97-1.26,1.58.16.28.28.61.49.86.5.6.33,1.17.05,1.81-.25.57-.74.6-1.21.63-.36.02-.68-.22-.74-.52-.22-.97-.72-1.83-1.19-2.7-.84-.94-1.99-1.32-3.13-1.74-.31-.11-.67-.1-1.02-.14-.84-.05-1.66.31-2.53-.06-.61-.26-1.34-.26-2.01-.44-.29-.06-.52-.38-.53-.75-.02-.69.09-1.37.06-2.06-.02-.31-.21-.63-.36-.93-.07-.14-.25-.23-.36-.37-.24-.25-.46-.51-.68-.76-.34-.06-.7-.05-1.01-.15-.38-.16-.64-.11-.96.09-.55.37-1.08.99-1.76.91-.65-.1-1.25-.54-1.88-.79-.69-.25-1.09-.76-1.35-1.43-.06-.15-.12-.4-.23-.44-.3-.07-.64-.12-.96-.07-.45.07-.53.33-.41.7.1.31.12.68.09,1-.06.67-.62,1.16-1.39,1.21-.17.01-.34-.04-.51-.08-.66,0-1.26-.21-1.87-.42-.44-.15-.93-.21-1.43,0-.74.29-1.48.59-2.32.21-.03-.01-.07-.02-.1-.02-.22,0-.54.21-.8.29.12.36.25.73.38,1.09.69.19,1.07.78,1.58,1.21.1.07.16.26.15.39-.03.36-.29.53-.68.59-.33.03-.74.05-.96.24-1.14,1.03-2.34,1.89-3.9,2.17-.47.09-.9.43-1.34.67l-.03.04c.06.93-.48,1.59-.98,2.28-.63.86-1.35,1.55-2.48,1.61-.09,0-.17,0-.26.03-.08.01-.17.03-.25.06-.3.09-.58.24-.86.4l-2.96-1.85h.13c.76.02,1.5.06,2.26-.01.29,0,.59-.28.85-.49.33-.25.27-1.08-.02-1.31-.57-.43-1.23-.58-1.89-.75-.33-.07-.69-.09-.99-.23-.27-.14-.53-.36-.7-.61-.17-.28.26-1.05.68-1.25.46-.23.96-.37,1.41-.61.3-.15.62-.37.79-.63.14-.25.21-.68.09-.93-.12-.24-.52-.5-.78-.49-1.02.1-2.04.23-3.03.46-1.54.34-3.06.22-4.59.07-.33.08-.67.24-.99.2-.85-.08-1.69-.29-2.54-.38-.68-.08-1.37-.06-2.06-.12-1.33-.11-2.33.37-2.91,1.62-.36.77-.77,1.53-1.16,2.31-.18.36-.89.58-1.35.57-1.21-.07-2.26-.93-3.53-.68-1.01.19-2.03.38-3.06.54-.33.04-.81.45-1.5.51-1.21.08-2.37-.17-3.51-.48-.62-.16-1.2-.63-1.71-1.07-.34-.27-.27-.67.04-.78.8-.33,1.51-.64,1.98-1.48.12-.21.26-.4.42-.55.24-.23.53-.4.85-.5.19-.06.39-.11.59-.12.26-.04.52-.04.79,0,.13,0,.26.02.39.03.36.03.71.05,1.06.05h.02c.17,0,.35-.01.52-.02.13,0,.27-.02.41-.04.16-.02.32-.04.48-.09.17-.03.33-.07.5-.14.06-.01.12-.03.18-.05,1.14-.44,2.36-.39,3.56-.44.24-.47.46-.92.89-1.25.44-.34.92-.44,1.43-.22.31.15.6.34.89.5,1.65-.06,5.08-.13,4.94-.27.49-.51,1.08-.87,1.79-.82.33.02.67.03,1,.03.13.01.26.01.39.01.42.01.83.02,1.25.04.15,0,.29.01.44.02.28.01.55.03.83.06.55.05,1.1.13,1.65.26,1.14.25,2.37.15,3.55.17.08,0,.16,0,.23-.02.11-.02.2-.06.28-.12.04-.03.08-.07.11-.1.07-.07.13-.16.16-.26.06-.15.07-.33.04-.52-.01-.06-.02-.13-.05-.2-.02-.05-.04-.11-.07-.17-.16-.33-.29-.62-.12-.95.23-.45.45-.91.71-1.33.21-.33.14-.62.12-.97-.03-1.14.69-2,1.69-2.14.34-.04.68-.12,1.01-.11.68.04,1.35.12,2.03.19.7.07,1.33-.08,1.94-.44.29-.17.59-.33.89-.48.31-.16.61-.31.91-.47-.03-.3.08-.54.32-.72.33,0,.66.05.98-.01.52-.08.88-.38.98-.93.62-.83,1.55-1.01,2.5-1.2.51-.09.72-.52.74-1.03-1.53.07-3.05.11-4.57.22-.67.06-1.34.17-1.99.34-.66.17-1.31.39-1.99.29-1.19-.15-2.33.51-3.52.18-.16-.06-.33-.08-.49-.13-1.06.24-2.12.27-3.15-.11-.34.02-.67.03-1.01.03-.32.1-.65.29-.98.31-.86.01-1.71-.07-2.57-.1-1.22,0-2.42.08-3.56.56-.31.14-.64.26-.97.37-1,.29-2.01.49-3.06.4-.86-.07-1.72-.13-2.59-.14-.86,0-1.71.07-2.5.51-.81.44-1.66.41-2.5.11-.34-.12-.66-.06-1.01-.02-1.19.09-2.39.08-3.59.19-.3.02-.57.34-.88.49-.09.04-.16.08-.23.09h-.17s-.11.03-.11.03h0s-.07-.03-.11-.06c-.11-.09-.2-.26-.33-.54-.29-.62-.58-1.24-1.17-1.66-.14-.09-.29-.22-.45-.26-1.39-.19-2.73.24-4.11.31-.26.01-.57.4-.73.68-.54.95-1.32,1.57-2.36,1.88-.36.1-.7-.03-.93-.25-.12-.12-.29-.26-.31-.4-.17-1.23-.84-2.25-1.22-3.4-.19-.52-.05-1.07.33-1.42.55-.51,1-1.14,1.59-1.62.09-.08.19-.15.29-.22,0,0,.02,0,.03-.02.08-.05.17-.11.26-.15.17-.1.36-.18.56-.24.47-.15.82-.61,1.24-.91.44-.32.96-.27,1.48-.27,1.26-.01,2.15,1.04,3.37,1.14.4.32.79.63,1.19.96.26.22.5.46.79.61.13.08.37.06.51,0,.92-.46,1.85-.9,2.72-1.45.4-.25,1.03-.43,1-1.05-.01-.27-.33-.55-.52-.81-.18-.27-.18-.58.05-.93.19-.27.37-.57.61-.79.74-.72,1.52-1.41,2.28-2.1.48-.23.8-.57.97-1.07.23-.68-.11-1.44-.77-1.63-.54-.17-.95.09-1.25.55-.27.21-.58.28-.91.22-.23.61-.67,1.01-1.18,1.38-.44.31-.76.18-.97-.44-.1-.27-.13-.59-.19-.89h-.02c-.29.07-.6.14-.87.27-.35.17-.61.19-.76-.04-.16-.28-.13-.56,0-.86.13-.3.35-.5.68-.58,0-.35.03-.71.04-1.05.07-.34-.02-.63-.34-.73-.34-.12-.58.06-.66.43-.41.31-.79.64-1.22.9-.47.29-1.01.27-1.47.02-.44-.23-.84-.57-1.2-.91-.35-.33-.39-1.13-.1-1.44.47-.49.98-.94,1.42-1.45.2-.24.26-.61.39-.91-.66-.08-1.32-.19-1.97-.27-.61.37-.94,1.01-1.45,1.46-.5.46-1.14.75-1.65,1.21-.29.24-.53.38-.92.33-.08-.01-.16-.02-.23-.01-.18-.02-.36-.02-.54,0-.09,0-.19.01-.28.03-.02,0-.04,0-.06.01-.15.01-.3.05-.45.09-.16.04-.32.09-.48.15-.51.19-1.01.09-1.52-.01-.07,0-.15-.04-.22-.07-.23-.09-.44-.24-.61-.42-.05-.05-.1-.1-.13-.15-.07-.08-.13-.17-.16-.26-.03-.04-.04-.08-.05-.12,0-.04-.02-.07-.03-.11-.03-.11-.03-.22.01-.32.46-1.33.56-2.69.56-4.07,0-.73-.21-1.33-.6-1.93-.46-.7-.69-1.76-.66-2.44.02-.55.25-.99.54-1.43.09-.13.26-.32.22-.43-.13-.3-.34-.57-.54-.85-.1-.14-.24-.29-.39-.34-.19-.06-.39-.11-.58-.18-.2-.06-.39-.12-.58-.18-1.72-.56-3.41-1.21-5.23-1.4-.2-.02-.4-.04-.6-.05-.47-.02-.94-.38-1.4-.6-.36-.18-.45-.5-.23-.87.07-.13.24-.22.38-.28.66-.32,1.35-.18,2.04-.13.48.02.96.03,1.43,0,.18,0,.35-.02.52-.04.09-.01.17-.02.26-.04.45-.06.9-.18,1.35-.36.8-.31,1.68-.42,2.51-.63.33-.1.65-.24.96-.39,1.32-.61,2.25-1.55,2.58-3.04.19-.87.27-1.69-.35-2.44-.5-.61-.55-1.2-.09-1.86.63-.88.68-1.94.87-2.95.28-1.56-.96-2.94-2.61-3.28-.34-.06-.72-.12-1.03-.03-1.63.51-3.08.14-4.39-.87-.54-.41-1.26-.51-1.76-1.03-.87-.9-2.01-1.31-3.18-1.65-.5-.13-.95-.45-1.45-.56-.49-.09-1.04-.11-1.53-.01-1.18.25-2.32.68-3.35,1.35-.29-.14-.72-.22-.85-.44-.25-.44-.39-.97-.47-1.47-.2-1.22-.75-2.28-1.48-3.26-.19-.27-.48-.58-.77-.63-1.02-.18-1.36-.88-1.65-1.74-.08-.25-.52-.53-.79-.53-1.55.03-3.1.14-4.65.23-.57.05-.99.43-1.15.91-.4,1.14-.67,2.32-1.42,3.31-.23.28-.66.46-.84.31-.56-.49-1.17-.54-1.88-.6-.66-.06-1.13-.68-1.48-1.32-.12-.23-.23-.43-.33-.59-.08-.13-.15-.25-.21-.34-.07-.11-.15-.2-.22-.27-.05-.06-.1-.1-.16-.13-.05-.04-.09-.07-.15-.09-.07-.03-.14-.06-.23-.08-1.33-.39-2.41-1.4-3.85-1.49-.58-.03-.88-.51-1.26-.82-.32-.26-.59-.33-.92-.21-1.47.55-2.7.2-3.7-1.01-.11-.13-.25-.23-.38-.35-.31-.02-.63-.03-.95-.05-.31-.02-.62-.04-.94-.07-.48-.05-1.04-.57-.9-.87.03-.07.07-.13.12-.18.02-.03.05-.06.08-.08.15-.15.34-.22.55-.26.06-.01.12-.02.19-.03.08-.01.17-.01.25-.01.16,0,.31.05.47.06.29-.16.51-.35.66-.57.05-.05.09-.11.12-.17.08-.13.14-.25.18-.39.06-.18.1-.37.12-.56l1.36-1.14c.14.15.28.31.43.47.14.15.28.31.43.45.24.22.52.45.83.57.3.12.69.24.97.15.79-.27,1.54-.66,2.33-.96,1.32-.51,2.43-1.22,2.76-2.73.43-.5.85-1.01,1.3-1.5.3-.33.2-.53-.1-.87-.72-.79-1.67-1.12-2.64-1.44-.69-.22-1.33-.12-1.89.37-.12.12-.24.24-.36.36-.89.4-1.42,1.46-2.56,1.42-.15,0-.34-.12-.43-.24-.17-.22-.11-.53.15-.81.1-.11.31-.19.46-.18.5,0,.99.14,1.48.13.3-.01.59-.23.89-.35.02-.16.03-.33.06-.51.11-.66.29-1.33-.16-1.96-.17-.23-.32-.47-.46-.72-.14-.24-.27-.49-.39-.74s-.23-.51-.33-.76c-.1-.26-.19-.53-.27-.79-.07-.19-.12-.38-.17-.58-.06-.22-.11-.44-.15-.66-.05-.25-.1-.49-.13-.74-.04-.27-.07-.54-.1-.81-.07-.8.44-1.68,1.31-2,.64-.24,1.31-.44,1.99-.5.67-.06,1.37.08,2.06.14.9.09,1.62.58,2.31,1.1.6.45,2.2,2.37,2.53,3.2.41,1.03,1.1,1.7,1.98,2.3.42.27.77.68,1.11,1.06.5.53.37,1.77-.25,2.26-.26.21-.52.44-.74.69-.27.32-.36,1.22-.19,1.45.25.35.5.71.75,1.06.25.35.51.7.77,1.04.44.55.59,1.21.79,1.87.15.52.6.82.99,1.15.3.28.6.32.91.03.09-.09.17-.28.14-.38-.13-.68-.29-1.35-.45-2.03-.24-.93.08-1.68.7-2.34.28-.46.7-.72,1.15-.96.81-.45.82-.76.07-1.29-.28-.21-.56-.4-.82-.6-.75-.59-.84-1.18-.39-2.27.06-.15.22-.26.35-.37.42-.36,1.12-.29,1.29.13.34.77.72,1.55.97,2.36.14.46.23,1.06.05,1.47-.35.86-.23,1.67-.16,2.5.35.38.67.8,1.04,1.16.66.64,1.46.9,2.36.59.81-.3,1.6-.65,2.48-.69,2.26-.07,4.43-.63,6.52-1.46.26-.11.53-.19.79-.23.14-.03.28-.05.42-.07.6-.06,1.2.02,1.81.19.17.05.33.12.5.16.91.22,1.68-.14,2.41-.61.48-.32,1.09-1.11,1.2-1.55.04-.14-.07-.43-.09-.43-1.2.14-2.37.13-3.55-.26-.83-.29-1.72-.08-2.56.11-.83.19-1.64.5-2.46.76-.06.02-.13.03-.19.04-.18.02-.35.01-.52-.03-.17-.03-.33-.09-.5-.16-.09-.04-.17-.08-.26-.12-.16-.09-.33-.17-.42-.3-.15-.21-.31-.42-.48-.61-.12-.14-.24-.28-.36-.4-.45-.47-.93-.87-1.46-1.22-.18-.12-.36-.23-.55-.33-.18-.11-.38-.21-.57-.3-.2-.09-.4-.17-.61-.25-.12-.05-.24-.09-.35-.15-.06-.03-.12-.06-.17-.09-.27-.16-.49-.37-.56-.69-.07-.28.19-.63.29-.96.14-.48-.04-1.17-.38-1.38-.71-.47-1.37-1.04-2.21-1.32-.31-.11-.62-.3-.87-.52-.39-.33-.76-.7-.89-1.23-.25-.99-.56-1.98-.55-3.03,0-.44.41-1.05.85-1.17.83-.21,1.71-.25,2.48-.66.17-.08.33-.15.5-.19.66-.18,1.32-.04,1.99.22.32.12.66.21.99.3.75.2,1.28-.12,1.8-.64.73-.74.74-.7.4-1.68-.09-.25-.3-.49-.37-.74-.01-.05-.02-.09-.02-.14,0-.14.06-.28.21-.42.38-.38.9-.57,1.4-.34.06.03.12.05.18.07.07.03.13.05.19.06.2.04.39.02.59-.14.14-.1.35-.15.42-.27.8-1.32,2.06-1.72,3.5-1.85.4-.03.62-.35.59-.66-.04-.51-.11-1.02-.18-1.53,0-.08-.03-.15-.07-.22-.02-.07-.07-.14-.12-.2-.04-.05-.09-.09-.14-.13-.05-.04-.11-.07-.17-.1-.06-.03-.12-.06-.19-.07-.06,0-.13-.02-.19-.02s-.13,0-.19.02c-.5.12-1,.41-1.49.38-.49-.02-.96-.35-1.45-.52-1.19-.42-2.42-.38-3.55.09-1.1.47-2.05.1-2.97-.32-1.2-.51-1.87-1.47-1.76-2.85.03-.34.03-.71.14-1.03.1-.31.26-.68.51-.84,1-.67,2.06-1.24,3.05-1.92.2-.13.19-.61.22-.93.02-.15-.08-.34-.18-.48-1.16-1.53-2.49-2.8-4.46-3.3-1.04-.27-1.67-1.2-2.16-2.12-.23-.44-.31-.97-.47-1.46-.24-.71-.81-1.07-1.48-1.31-.17-.06-.33-.11-.49-.16-.85.18-1.68.27-2.5.1-.16-.03-.33-.07-.49-.13-.16-.06-.32-.12-.48-.2-.34-.18-.57-.51-.33-.81.6-.78.6-1.44.04-2.26-.34-.51-.34-1.26-.49-1.9-.04-.16-.11-.33-.17-.48.3-.1.59-.23.9-.25.23-.04.48-.05.71-.01h0c.09.01.19.04.28.07.3.08.7.27.79.52.6,1.69,1.82,1.76,3.27,1.36.16-.05.34-.01.51-.01.6-.35,1.17-.73,1.79-1,1.03-.45,1.62-1.15,1.76-2.29.06-.5.54-.76,1.09-.89,1.12-.26,1.15-.3,1.51-1.16.14-.34.24-.64.62-.73.33-.08.66-.15.99-.22.34-.06.7-.06,1-.19.29-.13.63-.34.77-.62.32-.59.57-1.24.76-1.88.48-1.63-.39-2.58-2.17-2.46-.12.01-.23.02-.34.05-.09.02-.18.04-.27.08-.45.13-.87.37-1.34.47-.63.52-1.29.46-1.96.11-1.39-.06-2.78.29-4.17,0-.34.22-.7.25-1.07.14-1.31.53-2.73.3-4.07.68-1.16.32-2.36.53-3.55.74-1.52.29-3.06.51-4.59.8-1.36.24-2.56.99-3.93,1.24-.84.15-1.64.58-2.51.57-2.27-.04-4.45.4-6.63,1-.98.27-2.05.27-3.08.3-.69.02-1.35-.19-1.99-.49-.68-.34-1.07-1.01-.83-1.63.3-.81.68-1.6.91-2.42.06-.22.12-.42.2-.62.03-.08.07-.15.1-.23.07-.16.14-.31.22-.45,0-.02.02-.03.03-.05.09-.15.19-.29.3-.43.08-.11.18-.23.29-.33.05-.06.1-.11.15-.15.1-.11.22-.21.34-.3.27-.21.5-.49.72-.74.67-.84.99-1.82.97-2.89,0-.21,0-.43-.02-.65,0-.15-.01-.3-.03-.45,0-.07-.01-.14-.02-.21-.01-.08-.02-.16-.04-.25-.01-.08-.03-.17-.06-.25-.02-.08-.05-.16-.08-.24-.49-1.19-.41-2.28,0-3.47.29-.84.07-1.69-.32-2.49-.14-.29-.26-.73-.15-.98.52-1.12.43-2.36.63-3.53.18-1.03.59-1.97,1.09-2.9.28-.51.74-.7,1.25-.75.51-.04,1.04.05,1.55.04.69-.03,1.38-.04,2.06-.14,1.43-.24,2.56-.99,3.32-2.24.35-.6.66-1.22.99-1.82-.5-.33-1.01-.6-1.65-.43-.43.09-.88.14-1.32.21-1.4.67-2.79,1.37-4.21,2-.45.19-1.01.17-1.52.19-.14.01-.31-.13-.41-.25-.09-.1-.14-.27-.13-.41.01-.17.06-.35.15-.49,1.07-1.56,2.12-3.15,3.23-4.67.41-.57.75-1.14,1.03-1.78.53-1.22.54-2.33-.5-3.29-.25-.24-.48-.51-.66-.8-.4-.63-.35-1.31-.09-1.97.06-.16.14-.34.26-.44.12-.12.29-.2.45-.24,2.83-.86,5.36-2.35,7.92-3.79,1.06-.58,2.1-1.15,3.29-1.46.66-.17,1.27-.54,1.9-.82.93-.44,1.85-.92,2.8-1.34,1.28-.56,2.59-.95,4.01-.88,1.08.07,1.99-.25,2.73-1.14.43-.53,1.11-.74,1.86-.75.16-.01.31-.02.46-.04.27-.03.54-.09.79-.17.12-.04.25-.08.36-.13.14-.06.28-.12.41-.19.09-.04.17-.09.25-.14.09-.05.17-.1.25-.16.1-.07.21-.14.31-.23.14-.11.28-.22.41-.35.42-.39.55-.87.45-1.38-.12-.69-.47-1.28-.98-1.77-.53-.51-1.21-.85-1.88-.61-2.33.85-4.76.75-7.16.84-.71.03-1.36.21-1.98.54-.6.35-1.22.67-1.81,1.01-.99.58-1.98.5-2.98.08-.32-.13-.64-.24-.96-.37-.52-.22-1.05-.15-1.51.08-.47.23-.94.42-1.46.43-.52,0-1.04-.08-1.55-.07-1.89.05-3.73.71-5.67.39-1.71-.3-3.44-.04-5.17.08-.67.05-1.37-.1-2.05-.2-.72-.08-1.29-.47-1.81-.94-.24-.23-.51-.52-.58-.82-.07-.3-.13-.59-.19-.89-.06-.29-.12-.59-.18-.89-.11-.59-.22-1.18-.33-1.77-.08-.39.32-.91.85-1.12.48-.18.98-.32,1.45-.53.47-.22.98-.46,1.17-.98.56-1.56,1.74-2.5,3.17-3.2.66-.32.91-.97,1.17-1.63.48-1.2,1.4-1.91,2.73-2.04.32-.02.62-.22.93-.34.25-1.19,1.22-1.55,2.21-1.88.41-.15.45-.39.41-.81-.12-1.17-.12-1.22.44-1.93.26-.34.43-.54.18-.88-.51-.69-1.05-1.35-1.52-2.07-.27-.42-.37-.86-.15-1.42.24-.61-.18-1.33.15-2.01.25-.49,0-.98-.21-1.47-.2-.47-.31-.97-.1-1.49.27-.64.37-1.31.39-2.01.03-1.01.53-1.22,1.29-1.14.35.04.69.04,1.04.05.7.02,1.37-.06,2-.41,1.51-.84,2.97-1.74,4.24-2.94.98-.94,2.14-1,3.36-.45.15.07.3.17.47.2.83.18,2.2-.74,2.44-1.55.24-.85.19-1.7-.08-2.53-1.2-3.63-1.26-3.92-1.55-8.05-.08-1.15-.34-1.57-1.41-1.81-1.41-.31-2.59-.92-3.46-2.08-.43-.6-1.06-.85-1.73-1.04-.32-.1-.66-.22-1-.24-1.86-.02-3.26-1-4.59-2.14-.63-.55-.78-1.5-.3-2.34.34-.6.7-1.19,1.13-1.72.32-.39.7-.78,1.28-.8,2.07-.04,4.14-.08,6.21-.14.74,0,1.31-.37,1.76-.94.21-.26.43-.53.61-.82.47-.75.73-1.57.5-2.46-.1-.37-.09-.67.1-.97.57-.93,1.53-1.37,2.44-1.84.29-.16.68-.16,1.02-.15,1.2.1,2.42.17,3.61.37.91.14,1.71-.02,2.48-.46.48-.29.99-.25,1.5-.19.68.08,1.41.4,2.04.1,1.77-.82,3.67-.9,5.53-1.22.31-.05.68-.28.86-.54.71-1.01,1.86-1.5,2.75-2.32,0-.56.28-.96.79-1.17.83-.33,1.69-.27,2.55-.11,1.18.22,2.27.84,3.5.89.51.02,1.03.03,1.46-.34.13-.11.28-.2.4-.32,1.46-1.46,3.11-1.22,4.75-.45.94.44,1.79,1.04,2.7,1.52.48.27.8.65,1.1,1.08,1.42,2.07,3.38,3.35,5.79,4.01.17.05.33.08.5.14.9.31,1.35,1,1.57,1.88.34-.06.71-.06,1.01-.19.92-.45,1.79-1.02,2.73-1.42.95-.39,1.98-.57,2.94-.94,1.71-.65,3.36-.61,5,.19.31.16.63.27.96.39.32.11,1.03-.29,1.22-.71.52-1.1,1.34-1.62,2.33-1.44.34.06.72.11.99.29.91.61,1.91.75,2.95.58,1.21-.19,2.4-.24,3.56.24.51.2.88.56.97,1.1.13.66.19,1.35.26,2.03.06.63-.18.94-.8,1.05-.17.02-.35.06-.52.05-.8-.1-1.31.38-1.67.97-.36.61-.4,1.35-.09,1.99.36.76.79,1.52,1.31,2.19.63.82,1.46,1.44,1.73,2.51.08.31.36.59.59.85.35.38.71.75,1.1,1.08.57.5.72,1.17.7,1.86-.01.58.24,1.02.61,1.36.71.63,1.43,1.27,2.15,1.89.44.39.88.77,1.33,1.14.2.18.41.36.62.53.45.38.91.75,1.38,1.11,1.21.97,2.59,1.68,4.04,2.25,3.36,1.33,6.7,2.71,10.05,4.05.37.14.74.27,1.12.4l.79,2.55-2.44,8.44-4.13,6.01-.36.25c-.1-.02-.19-.05-.29-.07-.46-.11-.93-.21-1.39-.3-1.87-.39-3.81-.28-5.63-.77-1.22-.31-2.38-.19-3.57-.15-.86.02-1.71.26-2.57.3-1.75.08-3.35.76-4.99,1.25-.85.25-1.5.84-2.02,1.53-.3.42-.54.87-.87,1.25-.22.25-.54.55-.84.57-1.52.17-3.08.55-4.51-.35-.73-.47-1.48-.84-2.32-1.1-1.86-.58-3.67-.62-5.59-.19-1.5.35-3.05.47-4.56.86-1.33.33-2.73.38-4.09.61-.31.04-.6.3-.85.53-.26.23-.49.5-.65.8-.4.76-.93,1.5-1.11,2.32-.45,1.95-1.27,3.56-3.28,4.31-.79.64-1.62,1.27-2.38,1.96-.37.35-.75.77-.93,1.23-.69,1.73-2.07,2.7-3.65,3.49-.92.46-1.88.87-2.74,1.43-1.62,1.08-3.4,1.63-5.28,1.96-.68.13-1.36.23-2.04.35-.7.12-1.3.45-1.82.9-.79.7-1.63,1.19-2.7,1.42-1.34.28-2.69.68-3.93,1.26-.32.15-.64.29-.96.42-.25.11-.51.22-.77.31-.29.12-.59.24-.89.34-.42.15-.84.3-1.27.44-.47.14-.95.29-1.43.42-1.16.33-2.29.78-3.2,1.64-.25.23-.57.45-.68.75-.01.04-.03.07-.05.11-.3.81-.82,1.31-1.73,1.5-.69.14-1.27.65-1.43,1.36-.26,1.1-.93,1.84-1.8,2.41-.85.59-1.69,1.18-2.72,1.47-.83.22-1.57.67-2.18,1.32-1.35,1.4-2.98,2.31-4.83,2.87-.32.09-.6.32-.9.47-.13.08-.25.21-.33.36-.04.07-.07.14-.09.22-.04.09-.06.18-.07.28-.02.15-.01.31.02.45.07.35.13.68.19,1.01.55-.08,1.09-.15,1.63-.25.01-.06.02-.12.02-.18.02-.09.03-.17.04-.26.05-.23.11-.44.2-.64.04-.08.08-.16.14-.22.01-.02.03-.05.06-.07.03-.04.06-.07.09-.1.1-.09.23-.17.39-.21.05-.02.1-.03.16-.04.09-.02.2-.03.31-.03h.02c1.44.04,2.73-.38,3.94-1.08.44-.25.89-.56,1.19-.94.85-1.12,1.67-2.18,3.19-2.43.31-.05.6-.32.85-.55,1.3-1.13,2.57-2.28,3.88-3.4.52-.44,1.11-.81,1.69-1.18.3-.2.62-.36.95-.47.06-.02.12-.04.18-.06.42-.12.86-.16,1.32-.09,1.88.25,3.77.34,5.66.13.33-.02.73.04,1.01.19,1.28.74,2.66.6,4.03.49.87-.07,1.69-.26,2.35-.93.36-.35.76-.69,1.17-1.01,1.31-1.02,2.8-1.36,4.38-.88.85.25,1.59.48,2.46.1.94-.41,1.93-.72,2.9-1.04.15-.05.36-.06.51,0,.63.26,1.19.64,1.57,1.25.31.49.32,1.01.08,1.45-.04.08-.08.16-.11.23-.02.05-.04.1-.05.15-.02.06-.03.12-.03.18,0,.12.04.24.12.37.27.44.56.84,1.02,1.12,1.47.91,3.22,1.24,4.65,2.23.34.01.71-.06,1.02.03,1.63.56,3.32.84,5.03.98l.25-.05c1.24-1.09,2.66-1.36,4.24-.94.65.17,1.22.57,1.94.48,1.66-.23,3.35.41,5-.18.23-.31.55-.49.92-.55.18-.57.56-.86,1.18-.75l.27-.12c.22-.26.43-.53.64-.81.33-.41.23-1.07-.2-1.2-.32-.11-.66-.29-.98-.25-.91.06-1.67-.17-2.31-.82-.24-.24-.58-.41-.77-.68-.23-.35-.5-.65-.8-.91-.07-.06-.14-.12-.21-.17-.27-.22-.55-.41-.85-.59-.1-.07-.2-.12-.3-.18-.2-.12-.41-.23-.61-.35-.15-.09-.28-.19-.42-.29-.28-.25-.4-.55-.44-.87-.05-.43.36-.95.82-1.19.48-.24.99-.27,1.5-.32.34-.03.7-.09,1.02-.03,2.2.46,4.45.08,6.66.39.3.04.61.07.91.12.21.03.42.07.62.12.17.04.33.09.48.16,1.28.56,2.69.44,4,.86.38.12.63.83.44,1.31-.2.51-.59.87-1.03,1.08-1.23.6-2.49,1.12-3.75,1.66-.67.27-.45.82-.48,1.3,0,.16.03.34.05.51h.07c1.36.25,2.69.27,4.05-.07,2.47-.66,5.02-.94,7.54-1.31,2.2-.31,4.39-.47,6.62-.35,1.87.11,3.73-.03,5.61.23,1.5.21,3.06.02,4.59.08.48.04.95.32,1.43.49.69,0,1.35.18,2,.39.65.22,1.31.42,1.98.53,1.36.22,2.68.19,4.05-.21,3.87-1.12,3.88-1.02,8.09-.59,1.1.11,1.93.62,2.79,1.18,2.4.04,4.79-.16,7.19-.22.3-.37.6-.74.89-1.1,0-.09,0-.17.02-.25,0-.06,0-.11.02-.16,0-.05.02-.1.03-.15.08-.25.2-.46.41-.61.05-.04.1-.07.16-.1.1-.06.21-.11.34-.14.77-.2,1.52-.45,2.28-.68-.06-.3-.12-.59-.2-.88-.47-.18-1-.26-1.41-.53-1.05-.71-2.22-.84-3.42-.74-.84.07-1.67.27-2.49.47-1.76.47-3.35-.1-4.96-.66-1.33-1.16-3-1.52-4.63-1.94-.44-.12-.51-.38-.36-.81.17-.5.42-.91.91-1.15.92-.45,1.87-.81,2.88-1,1.36-.25,2.55-.91,3.74-1.57.19-.11.36-.25.53-.4.02-.01.04-.03.06-.05.13-.11.26-.22.39-.31.03-.02.06-.04.08-.06.03-.02.06-.04.09-.05.16-.1.33-.18.52-.22.31-.16.6-.41.92-.44.85-.12,1.71-.23,2.57-.22,1.71.05,3.42.18,5.08-.47.46-.18,1.01-.16,1.53-.17,1.2-.05,2.4-.05,3.61-.11,2.08-.07,4.09-.44,5.86-1.68.1-.07.2-.12.32-.16l.92-.06h.01c.08.02.15.05.23.08.54.22,1.06.3,1.55.22.07-.01.13-.02.19-.05.07-.01.15-.03.22-.06.23-.06.46-.17.69-.32.08-.04.17-.1.25-.16.55-.39,1.07-.84,1.76-1.02.37-.1.66-.05.99.14.09.05.18.1.27.16.06.04.11.08.16.13.07.05.13.1.18.15.06.06.12.12.18.19.06.06.12.13.18.2.16.19.3.4.45.61.51.05,1.03.18,1.52.12,2.02-.24,4.04-.55,6.05-.84.19-.03.38-.06.56-.09.13-.02.26-.04.39-.07.19-.04.37-.08.55-.14,2.65-.92,5.33-.84,8.05-.36.3.06.66-.05.96-.17.38-.15.55-.44.47-.69-.03-.09-.07-.18-.12-.26-.02-.04-.05-.09-.08-.12-.03-.04-.06-.08-.09-.1-.1-.11-.23-.18-.36-.21-.33-.07-.68-.12-1.01-.07-.84.13-1.67.31-2.5.44-.68.11-1.36.06-2.03-.08-.51.08-1.08.27-1.5-.03-1.32-.92-2.8-1.28-4.35-1.33-1.7-.06-3.43-.44-5.08.31-1.02,0-2.06.22-3.07-.06-.86-.24-1.7-.15-2.55,0-1.34.24-2.69.49-4.04.67-.29.02-.73-.14-.92-.36-.32-.38-.48-.9-.74-1.34-.37-.61-.91-1-1.66-1.02-.17-.01-.34-.02-.51-.03-.57-.04-1.02-.37-1.12-.87-.23-1.2-1.09-1.75-2.09-1.99-1.18-.28-2.28-.75-3.42-1.12-.67-.2-1.24-.58-1.77-1.02-.27-.23-.53-.44-.76-.69-.71-.79-1.57-1.29-2.58-1.61-.63-.21-1.2-.67-1.74-1.07-.25-.19-.36-.55-.54-.85.26-.6.55-1.22,1.08-1.62.89-.64,2.05-.86,1.91-1.89.26-.15.75-1.3,1-1.47.89-.6.32-.93-.22-2.04-.17-.35-.16-.67.09-.88.83-.76,1.86-1.35,2.36-2.42.67-.18,1.32-.38,1.99-.51,1.02-.2,2.04-.37,3.06-.49.5-.05,1.05,0,1.54.13,1.66.53,3.34.8,5.09.8.68,0,1.41.06,2.04.29,1.64.59,3.39.69,5.04,1.15,1.35.38,2.69.6,4.09.44.5-.05,1.02.1,1.53.13,1.88.18,3.74.62,5.64.65.85.02,1.7.28,2.55.41.29.05.59.11.88.16.18.03.36.06.54.08.05,0,.1.02.15.02.11.01.23.02.34.02h.13c2.43-.06,4.83.19,7.24.32,2.24.12,4.48-.1,6.72-.26,1.78-.12,3.38-.48,4.74-1.72.49-.46,1.16-.74,1.77-1.05.3-.14.67-.26.98-.21,1.19.17,2.39.34,3.51.84,2.38,1.08,4.88,1.67,7.47,1.98,1.54.2,3.06.63,4.61.68,2.13.06,4.06.75,5.96,1.55,1.14.47,2.28.75,3.5.79.21.01.43.02.65.04.21,0,.43.02.64.04.06,0,.12.01.17.01.25.02.49.04.73.07.13,0,.26.02.39.04,4.14.53,8.25.42,12.38-.22.62-.1,1.24-.19,1.87-.27.66-.09,1.32-.18,1.98-.26.65-.08,1.29-.17,1.93-.26.64-.08,1.28-.17,1.92-.27,1.04-.15,1.99-.56,2.93-.99.31-.13.65-.27.89-.51.98-.96,1.96-1.94,2.85-2.97.32-.37.52-.93.55-1.42.07-1.18.37-2.38-.04-3.58-.09-.29.23-.65.56-.77,1.3-.45,2.63-.81,3.8-1.6.41-.28.94-.41,1.43-.55.5-.16,1.01-.23,1.52-.35,2.71-.57,5.28-1.62,7.74-2.82,2-1,4.07-1.88,5.94-3.15,1.43-.98,3.06-1.57,4.72-2.05,1.16-.35,2.33-.62,3.46-1.05,1.13-.4,2-1.37,3.2-1.65,1-.23,2.05-.32,3.03-.62.64-.19,1.31-.54,1.78-1.01,1.1-1.11,2.42-1.93,3.6-2.93.48,0,.74-.2.91-.81l.32-.17c.78-.03,1.55-.06,2.32-.12.68-.05,1.12-.45,1.46-1l.09-.05c.51-.79,1.32-1.04,2.2-1.13.68-.06,1.4.05,1.95-.46,1.18-1.07,2.81-1.3,4.07-2.24.38-.28.96-.36,1.47-.43.69-.08,1.34-.27,1.96-.58.63-.31,1.3-.49,2-.48,1.57.04,3.1-.1,4.57-.7,2.23-.26,4.4-.81,6.65-.98,1.71-.11,3.43-.38,5.03-1.08.47-.21.98-.36,1.41-.62,2.24-1.39,4.74-2.06,7.28-2.52,1.02-.19,1.99-.45,2.96-.85,2.08-.82,4.27-1.34,6.33-2.25.6-.26,1.36-.26,2.04-.21,2.41.14,4.81.3,7.21.67,6.14.95,12.33,1.48,18.56,1.45,1.55-.01,3.1-.07,4.65-.19,2.94-.23,5.87-.12,8.77.44,1.45.62,3.03.58,4.56.87,2.59.46,5.16.21,7.69-.34,1.18-.25,2.37-.45,3.56-.59.33-.05.75-.05,1.01.11,1.4.83,2.98.78,4.5.98.17.04.33.11.49.18,3.13.28,6.22-.16,9.31-.47.5-.05,1.01-.25,1.46-.49,1.8-.96,3.5-2.02,4.85-3.49.57-.63,1.08-1.33,1.49-2.12.04-.05.07-.11.1-.17l4.68,1.17s.03.07.05.11c.22.47.52.87,1.05,1.06.65.24,1.3.47,1.91.78.31.17.49.55.4.87-.26.81-.66,1.6-.89,2.42-.19.65-.23,1.38.17,2,.56.87,1.09,1.76,1.75,2.56.55.64,1.26,1.18,1.94,1.7.57.44.95,1,1.23,1.63.28.66.72,1.18,1.3,1.59.7.48,1.42.97,2.1,1.51.84.65,1.77,1.06,2.8,1.27.85.16,1.71.27,2.54.5,1,.26,1.99.58,2.87,1.17.57.38,1.2.71,1.85.93.81.28,1.65.54,2.5.62,2.42.19,4.81.09,7.2-.53,6.51-1.69,6.52-1.64,12.4-3.7,1.19-.7,2.31-.41,3.41.21.3.18.6.37.93.48,2.05.7,3.56,2.07,4.76,3.82.29.42.52.89.63,1.38.36,1.53.69,3.06.18,4.62-.05.14,0,.33-.02.5-.04.74.17,1.39.68,1.89,1.72,1.71,3.45,3.4,5.21,5.05.37.33.85.58,1.32.78.64.26,1.33.39,1.98.61.49.18.93.46,1.21.92.09.14.18.3.28.44,1.34,1.76,3.09,2.69,5.34,2.54.52-.04,1.04-.09,1.54-.18,1.74-.35,3.28-1.05,4.41-2.48.86-1.08,1.76-2.13,2.68-3.16.5-.55,1.26-.77,1.9-.52,1.32.5,2.67.66,4.05.77,1.55.11,3.09.28,4.6.76,1.15.35,2.31.66,3.4,1.21.38.2.77.39,1.16.57.85.4,1.71.78,2.56,1.18l-3.9,12.03,5.63,8.26,16.15,6.19,6.76,5.45,9.95,3.57,11.45,9.2,13.71,8.07,8.26,4.69Z" style="fill: none; stroke: #000; stroke-miterlimit: 10;"/>
</svg>