<?xml version="1.0" encoding="UTF-8"?>
<svg id="a" data-name="Ebene 1" xmlns="http://www.w3.org/2000/svg" width="1920" height="1080" viewBox="0 0 1920 1080">
  <polygon points="205.27 324.19 194.19 315.93 189.68 307.29 199.07 297.72 212.59 286.26 219.54 273.12 228.74 269.55 238.88 268.05 248.08 267.11 257.65 261.48 264.03 255.47 276.05 251.34 287.88 250.21 298.58 250.03 308.34 250.4 310.97 252.66 308.53 257.16 300.27 260.92 292.39 261.86 287.13 262.04 280.75 264.86 272.3 271.81 269.29 280.63 275.11 288.14 284.12 292.65 286.19 295.84 283.94 304.48 275.49 307.85 264.79 313.49 257.84 314.8 244.13 315.37 224.23 315.55 214.28 317.62 211.46 320.62 205.27 324.19" style="fill: none; stroke: #000; stroke-miterlimit: 10;"/>
</svg>