<?xml version="1.0" encoding="UTF-8"?>
<svg id="a" data-name="Ebene 1" xmlns="http://www.w3.org/2000/svg" width="1920" height="1080" viewBox="0 0 1920 1080">
  <path d="M889.63,518.23l-6.76,8.26-10.89-.37-8.26-3.38-9.76-5.64-9.76-5.63-16.9,1.5-12.02-.37-15.77-1.88-13.52-4.51-19.9-1.5-11.26,8.64-9.39,14.64-13.52,17.28-8.64,21.02-7.13,18.78-3.01,2.63-12.39-4.13-43.18-3.76-15.77-.37-16.52.75-10.52,6.01-8.26,10.89-4.13,20.27,3.38,18.78,2.72,23.6c-.93-.02-1.85-.07-2.78-.06-.86.03-1.68.29-2.37.89-1.28,1.16-2.58,2.29-3.73,3.6-.34.38-.75.7-1.25.87-.48.81-1.25,1.12-2.14,1.24-1.22.15-2.41-.09-3.61-.19-.54-.06-1.03.12-1.41.48-.38.36-.75.73-1.07,1.14-.66.8-1.27,1.64-1.91,2.46-.21.26-.41.57-.66.79-.81.67-1.7,1.21-2.82.97-1.02-.21-2.03-.52-3.07-.38-1.23.19-2.39.16-3.53-.39-1.1-.55-2.3-.74-3.52-.81-1.38-.1-2.76-.22-4.14-.35-.53-.03-.96-.33-1.36-.66-.16-.02-.33-.03-.5-.04q-4.73-.44-8.33-3.83c-.11-.11-.15-.3-.23-.44-.9-.48-1.86-.9-2.71-1.47-.86-.57-2.03-.43-2.76-1.26-.1-.12-.29-.17-.45-.23-.16-.07-.32-.15-.49-.15-1.02-.07-2.05-.13-3.08-.18-.51-.01-1.03.13-1.53-.07-.14-.06-.32-.17-.37-.29-.55-1.27-1.23-2.45-2.36-3.31-.44-.33-.57-.86-.62-1.36-.1-.96-.48-1.71-1.49-1.77-1.38-.08-2.12-.94-2.8-1.96-.28-.43-.67-.74-1.26-.75-1.37-.04-2.65-.62-4.04-.68-.86-.05-1.58-.63-2.34-1.02-.43-.23-.51-.46-.18-.81.81-.88,1.63-1.75,2.4-2.67.32-.39.65-.88.73-1.34.24-1.59.93-2.91,1.96-4.12.3-.35.32-.96.47-1.44-.45-.28-.78-.66-.89-1.17-.2-.99-.34-2-.56-2.99-.14-.68-.29-1.34-.55-1.96-.26-.61-.68-1.13-1-1.71-.07-.14-.03-.33-.04-.5-.01-1.07.47-2.08.3-3.17l-.17-.22c-.14-.09-.29-.18-.41-.3-.12-.12-.24-.25-.28-.39-.27-1-.81-1.87-1.24-2.78-.12-.27-.08-.73.09-.97.63-.84.78-1.88,1.13-2.82.43-1.18,1.1-2.05,2.28-2.58,1.57-.73,2.67-2.1,3.86-3.3.33-.33.54-.92.56-1.38.06-1.24.73-1.82,1.86-2.05.83-.19,1.65-.4,2.47-.61l.14-.1c.22-1.16-.3-1.99-1.21-2.65-.28-.19-.56-.39-.86-.54-.75-.41-1.53-.79-2.29-1.2-.47-.25-.56-.76-.24-1.29.17-.3.45-.55.57-.86.51-1.31,1.31-2.44,2.38-3.31.96-.76,1.8-1.61,2.48-2.61.2-.29.43-.53.77-.64,1.15-.36,2.31-.7,3.45-1.06.4-.13.67-.07.91.26.3.42.63.84.47,1.4-.14.48-.32.97-.5,1.45-.13.32-.32.61-.46.93-.24.58.11,1.39.75,1.71.31.16.63.29.92.45.73.42,1.86.02,2.28-.66.73-1.17,1.47-2.34,2.38-3.37.22-.26.38-.59.64-.8.25-.23.56-.44.87-.49.84-.14,1.71-.2,2.56-.32.39-.06.85-.71.8-1.15-.05-.52-.14-1.03-.14-1.54-.02-.95.52-1.61,1.28-2.07.29-.18.62-.32.95-.39,1.06-.22,1.9-.79,2.65-1.53.62-.59,1.22-1.21,1.84-1.82,1.02-.98,1.8-2.13,2.16-3.46.42-1.54,1.16-2.86,2.18-4.05.34-.39.64-.81.95-1.24.39-.54.34-1.37-.14-1.88-.23-.25-.51-.45-.77-.67-.58-.47-.78-1.1-.8-1.82,0-.34.05-.69.01-1.03-.06-.54-.3-.94-.81-1.22-.79-.43-1.36-1.03-1.38-2.01-.48-.81.01-1.56.08-2.36.02-.26-.14-.68-.36-.84-.5-.41-1.11-.67-1.65-1.05-.39-.26-.72-.62-1.08-.94-.65.01-1.04-.27-1.17-.92-.89-.47-1.67-1.2-2.8-1.15-.5.02-1.02-.12-1.53-.22-.45-.07-.61-.29-.48-.64.06-.15.08-.38.19-.46.98-.75,1.7-1.65,1.92-2.92.05-.25.46-.46.73-.66.13-.09.33-.09.49-.14.51-.09,1.01-.2,1.51-.31-.17-.32-.41-.56-.73-.59-.82-.11-1.66-.15-2.48-.26-.87-.14-1.54-.58-1.98-1.36-.32-.59-.7-1.13-1.05-1.7-1.06.45-1.38,1.46-1.87,2.36-.14.28-.51.54-.8.59-.68.09-1.38.11-2.07.08-2.93-.07-5.87-.15-8.8.06-1.42.12-2.73-.3-3.97-.95-.29-.17-.61-.42-.74-.69-.69-1.57-1.6-3.06-1.64-4.86-.02-.5-.28-1-.49-1.46-.16-.35-.33-.69-.51-1.03-.23-.43-.45-.86-.62-1.29-.38-.97-1.11-1.81-1.13-2.87-.03-1.21.07-2.42.17-3.61.02-.32.24-.64.39-.94.3-.64.43-1.3.36-2.01-.07-.68-.14-1.37-.13-2.06.01-.86.12-1.68.68-2.43.81-1.12,1.25-2.47,2.14-3.55.17-.2.09-.64.08-.99,0-.15-.08-.33-.17-.47-.95-1.69-1.5-3.46-1.38-5.43.02-.36.02-.71,0-1.07h0c-.03-.68-.12-1.34-.19-2.03-.08-.69-.34-1.29-.88-1.81-1.14-1.08-2.41-1.95-3.76-2.72-.44-.25-.96-.37-1.46-.48-.55-.13-.94-.4-1.04-.96-.14-.73-.71-1.17-1.05-1.75-.3-.49-.19-1.02.09-1.46.28-.42.65-.79.99-1.19.51-.58.57-1.23.32-1.92-.14-.36-.16-.68.12-.97.73-.73,1.51-1.4,2.2-2.17.34-.36.58-.84.79-1.32.13-.29.25-.7.16-.99-.29-.94-.63-1.86-.97-2.78l1.07-1.77c.84-.3,1.47-.88,2.17-1.41,0-.51.08-1.06.43-1.44,1.04-1.14,1.71-2.57,2.94-3.56.4-.32.72-.74,1.08-1.12-.23-1.18-1.03-2.09-1.51-3.17-.28-.6-.69-1.15-.77-1.84-.01-.01-.03-.01-.04-.02-.14-.07-.31-.12-.4-.24-1.95-2.62-3.9-5.26-6.13-7.67-.11-.13-.22-.26-.31-.42-.24-.46-.48-.95-.3-1.46.1-.3.38-.52.59-.79.33-.84,1.04-1.34,1.75-1.83.41-.31.97-.52,1.2-.94.52-.94,1.46-1.45,2.1-2.25.56-.7,1.25-1.2,2.08-1.5,1.5-.54,2.75-1.42,3.82-2.57.32-.35.65-.68,1.03-.95.18-.13.37-.25.57-.35,1.86-.92,3.68-1.9,5.59-2.71.89-.37,1.35-.98,1.72-1.76.38-.83.48-1.65.13-2.49-.52-1.31-.82-2.65-.32-4.04.19-.53.07-1.02-.21-1.45-.38-.58-.85-1.11-1.24-1.68-.45-.65-.95-1.21-1.5-1.71-1.34-1.22-2.97-2.06-4.71-2.73-1.02-.42-2.07-.44-2.96.23-1.38,1.02-2.9,1.84-4.04,3.21-.76.92-1.79,1.62-2.74,2.37-1.25.99-2.63,1.61-4.29,1.55-.85-.04-1.74.27-2.57.13-1.74-.29-2.99.51-4.18,1.57-.13.11-.24.25-.34.38-.09.13-.24.39-.24.44.26.18.52.39.82.5.82.27,1.72-.13,2.53.26.1.05.22.28.2.3-.59.62-1.32,1.13-1.77,1.85-.35.53-.32,1.33-.55,1.96-.11.3-.43.55-.71.73-.72.46-1.46.92-2.22,1.33-.28.15-.67.26-.98.21-1.19-.21-2.37-.47-3.55-.73-1.61-.36-3.07-.21-4.33,1-.36.34-.91.47-1.36.73-.32.19-.63.24-.99.11-.32-.13-.66-.2-.97-.36-4.36-2.09-8.71-4.2-13.06-6.29-2.03-.98-4.08-1.85-6.37-2.08-.7-.07-1.29-.44-1.77-.96-1.46-1.61-3.42-2.31-5.41-2.92-.49-.14-1.02-.22-1.53-.22-1.21.01-2.42.06-3.62.14-.51.05-1.07.14-1.49.41-1.47.89-3.34.94-4.65,2.17-.38.36-.75.77-1.21.98-.1.04-.2.09-.3.14-.2.09-.4.18-.6.29l-.12.06c-.09.04-.18.09-.26.13-.07.04-.14.08-.21.12-.2.1-.39.21-.58.33-.28.16-.54.33-.8.52-.03.01-.06.03-.08.05-.24.17-.47.34-.7.53-.04.03-.07.05-.1.08-.33.27-.65.57-.95.88-.23.25-.57.38-.88.54-.93.46-1.87.89-2.79,1.35-.35.18-.67.4-.98.63-.31.23-.61.47-.93.69-.09.06-.19.12-.28.18-.13.08-.26.15-.4.21-1.28.58-2.27,1.52-3.19,2.58-1.13,1.29-2.42,2.44-3.66,3.63-.24.25-.56.43-.87.56-1.16.49-1.86,1.52-2.77,2.31-.43.37-.54.87-.58,1.38-.06.86-.08,1.73-.14,2.58-.05.59-.71,1.29-1.33,1.44-1.98.5-1.99.49-3.11,1.56-.24.24-.51.47-.77.68-.39.32-.85.17-1.12-.38-.07-.14-.11-.32-.2-.47-.67-1.11-1.66-1.71-2.94-1.84-.36-.02-.68.05-.98.25-.29.2-.62.36-.84.61-.57.63-1.09,1.32-1.62,2.01-.53.69-1.17,1.23-1.97,1.62-.93.44-1.82.99-2.67,1.57-.56.38-1.05.86-1.37,1.5-.23.49-.59.37-1.11-.21-.23-.26-.43-.55-.69-.79-.39-.34-.83-.46-1.4-.38-1.37.19-2,1.24-2.79,2.12-.38.44-.91.57-1.39.38-.47-.21-.94-.44-1.42-.63-1.34-.52-2.7-.68-4.01.05-.97.53-1.94.63-2.97.27-.33-.12-.67-.19-.99-.31-.36-.13-.66-.06-.99.13-.61.34-1.29.51-1.99.53-2.07.02-4.14.27-6.21-.08-.91-.15-1.68.16-2.23.97-.19.28-.45.51-.69.77-.37.4-.81.62-1.36.57-1.2-.1-2.42-.13-3.6-.34-2.56-.47-4.77.38-6.88,1.65-.59.36-1.13.8-1.71,1.17-.6.38-1.28.56-1.97.51-1.04-.07-2.07-.22-3.1-.34-1.21-.13-2.36-.5-3.47-1-1.1-.5-2.17-1.06-3.27-1.55-.46-.2-.98-.43-1.47-.43-1.08,0-2.03-.28-2.95-.82-1.34-.79-2.69-1.56-4.07-2.25-.78-.41-1.47-.89-2.08-1.51-.73-.75-1.55-1.36-2.52-1.8-1-.44-1.64-1.25-2.01-2.25-.3-.86-.79-1.52-1.52-2.04-1-.71-1.82-1.58-2.43-2.65-.15-.26-.3-.53-.46-.79-.05-.09-.11-.18-.17-.27-.01-.03-.03-.06-.05-.09-.1-.15-.2-.31-.3-.46-.16-.23-.33-.45-.52-.66-.2-.23-.41-.44-.64-.64-1.71-1.45-2.94-3.38-4.87-4.6-.75-.49-1.48-.87-2.37-.94-.33-.03-.75-.01-.98-.21-.12-.1-.24-.18-.36-.25-.23-.14-.47-.25-.72-.34-.07-.03-.15-.05-.22-.07-.18-.06-.37-.1-.56-.14-.09-.03-.18-.04-.28-.06-.14-.03-.28-.06-.42-.08-.34-.06-.68-.13-1.01-.22-.12-.03-.24-.07-.36-.11-.15-.05-.31-.11-.46-.18-1.39-.64-2.97-.87-4.46-1.31-.49-.14-1.04-.28-1.41-.59-1.24-1.05-2.64-1.59-4.25-1.67-.5-.03-1-.25-1.46-.49-.77-.39-1.5-.84-2.26-1.26-2.87-1.63-5.86-2.94-9.12-3.55-.69-.13-1.29-.47-1.84-.91-.26-.22-.51-.48-.79-.67-1-.69-2.09-1.2-3.33-1.31-3.1-.27-6.15-.94-9.26-1.13-.68-.04-1.39-.17-2.03-.39-1.49-.54-3.04-.62-4.6-.61-2.07.04-4.14.13-6.22.19-1.21.04-2.42.04-3.62.08-1.25.05-2.36-.27-3.4-1.01-.94-.67-1.99-.46-2.94.06-1.06.61-1.94,1.43-2.75,2.33-.47.54-.83,1.1-.99,1.79-.32,1.35-.75,2.69-.36,4.08.15.55-.07,1.02-.19,1.52-.11.5-.29,1-.31,1.51-.03.46.01.94.21,1.35l.09.15s.01.02.02.03c.01.02.02.03.02.04.04.06.09.12.14.17.05.06.1.1.16.15.49.4.48.92.33,1.38-.15.48-.5.88-.78,1.31-.17.25-.33.5-.49.76-.16.25-.32.51-.47.77-.07.11-.13.22-.2.33-.01,0-.01.01-.01.01h0c-.55.93-1.07,1.86-1.62,2.78-.15.26-.31.52-.47.78-.16.25-.32.51-.48.76-.27.43-.41.95-.12,1.47.34.6.67,1.21,1.01,1.8.03.05.05.09.06.13h0c.03.06.05.1.07.15.02.04.03.08.05.13.01.04.02.08.03.12s.01.08.01.12c0,.11-.03.21-.09.31-.07.11-.18.22-.34.33-.43.31-.91.61-.95,1.12-.01.15-.03.29-.06.42-.02.11-.05.22-.09.32-.04.14-.09.28-.15.4-.05.12-.11.22-.18.33-.06.1-.14.2-.22.3-.07.09-.15.17-.23.26-.02.02-.04.04-.07.07-.07.06-.14.12-.22.19-.11.08-.23.17-.35.25-.43.28-.79.65-1.2.97-.1.08-.2.12-.3.12-.04,0-.09-.01-.13-.03s-.08-.04-.12-.08c-.02-.02-.05-.05-.07-.08-.02-.02-.03-.03-.04-.05-.04-.05-.06-.12-.09-.19-.29-.82-.57-1.59-1.64-1.71-.87-.11-1.65-.49-2.39-.94-1.06-.66-2.24-.9-3.46-.94-.86-.04-1.73.02-2.59.02-1.31,0-2.31.57-3.14,1.54-.37,1.09-1.21,1.72-2.28,1.57-1.06-.17-2-.24-2.94.33-.58.37-1.2.68-1.83.92-.47.16-1,.18-1.5.25-.17.01-.35,0-.51-.05-1.3-.38-2.32-.13-3.02,1.14-.25.46-.84.68-1.33.6-.74-.13-1.33.01-1.88.46-.52.44-1.04.9-1.57,1.31-.43.36-.93.34-1.44.19-.16-.03-.31-.14-.46-.21-.81-.37-1.62-.49-2.46-.05-.29.14-.63.25-.96.32-.8.23-2.15-.63-2.29-1.55-.08-.53-.19-.97-.65-1.28-.65.17-1.31.36-1.99.2-.82-.17-1.62-.51-2.47-.48-1.91.11-3.68-.46-5.44-1.04-.51-.17-.67-.68-.66-1.23-.81-.33-1.59-.43-2.25.33-.24.29-.56.36-.92.29-.32-.06-.68-.06-.97-.19-.59-.31-1.19-.62-1.7-1.06-1.14-.95-2.23-1.99-3.34-2.99-.5-.06-1.02-.02-1.48-.19-1.62-.57-2.88-1.69-4.08-2.88-.45-.44-.19-.86.09-1.27.41-.61.4-1.28.08-1.91-.4-.8-.5-1.57-.04-2.38.08-.13.1-.32.13-.48.1-.52-.04-.98-.38-1.4-.21-.25-.4-.54-.6-.81-.69.04-1.38.06-2.06.11-.59.02-.72-.05-1-.85-.11-.31-.14-.64-.15-.97-.01-.37.14-.72.45-.9.87-.52,1.79-.91,2.81-1.08.51-.07.69-.51.46-.96-.24-.48-.56-.91-1.04-1.1-1.1-.44-2.23-.76-3.26-1.44-.99-.63-2.22-.89-3.28-1.45-.56-.3-.97-.15-1.43.06-.15.07-.32.15-.42.28-.44.55-.94.99-1.56,1.32-.63.35-.93.98-1.26,1.59.16.28.28.6.49.85.5.61.33,1.18.05,1.81-.25.58-.74.61-1.21.64-.36.02-.68-.22-.74-.52-.22-.97-.72-1.83-1.19-2.7-.84-.94-1.99-1.32-3.13-1.74-.31-.12-.67-.1-1.02-.14-.84-.05-1.66.31-2.53-.06-.61-.26-1.34-.26-2.01-.44-.29-.06-.52-.38-.53-.75-.02-.69.09-1.37.06-2.06-.02-.31-.21-.63-.36-.93-.07-.14-.25-.24-.36-.37-.24-.25-.46-.51-.68-.76-.34-.06-.7-.05-1.01-.15-.38-.16-.64-.11-.96.09-.55.37-1.08.99-1.76.91-.65-.1-1.25-.54-1.88-.79-.69-.25-1.09-.76-1.35-1.43-.06-.15-.12-.4-.23-.44-.3-.07-.64-.12-.96-.07-.45.07-.53.33-.41.7.1.31.12.68.09,1-.06.67-.62,1.16-1.39,1.2-.17.02-.34-.03-.51-.07-.66,0-1.26-.21-1.87-.43-.44-.14-.93-.2-1.43,0-.74.3-1.48.6-2.32.22-.03,0-.07-.02-.1-.02-.22,0-.54.21-.8.29.12.36.25.73.38,1.09.69.19,1.07.78,1.58,1.21.1.07.16.26.15.39-.03.36-.29.53-.68.59-.33.03-.74.04-.96.23-1.14,1.04-2.34,1.9-3.9,2.18-.47.09-.9.43-1.34.67l-.03.04c.06.92-.48,1.59-.98,2.28-.63.86-1.35,1.55-2.48,1.61-.09,0-.17.01-.26.03-.08.01-.17.03-.25.06-.48.14-.91.44-1.36.67-.79.39-1.64.38-2.49.31-.16-.01-.36-.06-.47-.17-.38-.34-.62-.78-.7-1.29-.05-.35.63-.98,1.04-.97.16,0,.32,0,.48.01.69.02,1.37.04,2.07-.02.29-.01.59-.29.85-.49.33-.25.27-1.08-.02-1.31-.57-.43-1.23-.58-1.89-.75-.33-.07-.69-.09-.99-.24-.27-.13-.53-.35-.7-.6-.17-.28.26-1.05.68-1.25.46-.23.96-.37,1.41-.61.3-.16.62-.37.79-.63.14-.25.21-.68.09-.93-.12-.24-.52-.5-.78-.49-1.02.1-2.04.23-3.03.45-1.54.35-3.06.23-4.59.08-.33.08-.67.23-.99.2-.85-.09-1.69-.29-2.54-.38-.68-.09-1.37-.06-2.06-.12-1.33-.11-2.33.37-2.91,1.62-.36.77-.77,1.53-1.16,2.31-.18.35-.89.58-1.35.57-1.21-.07-2.26-.93-3.53-.68-1.01.19-2.03.38-3.06.54-.33.04-.81.45-1.5.51-1.21.08-2.37-.17-3.51-.48-.62-.17-1.2-.63-1.71-1.07-.34-.27-.27-.67.04-.79.8-.32,1.51-.63,1.98-1.47.12-.21.26-.4.42-.55.08-.07.16-.14.25-.2.07-.05.15-.1.23-.14.04-.03.09-.05.14-.07.07-.04.15-.07.23-.09.19-.06.39-.11.59-.12.26-.04.52-.04.79-.01l.39.03c.36.03.71.05,1.06.05h.02c.17,0,.35-.01.52-.02.13,0,.27-.02.41-.04.16-.02.32-.04.48-.09.09-.02.17-.03.25-.06.05-.01.09-.02.14-.04.09-.02.19-.06.29-.09,1.14-.44,2.36-.4,3.56-.44.24-.47.46-.92.89-1.25.44-.34.92-.44,1.43-.22.31.15.6.34.89.5,1.65-.06,5.08-.13,4.94-.27.49-.51,1.08-.87,1.79-.82.67.03,1.34.04,2.01.06.38,0,.76.02,1.14.04.29.02.58.04.87.07h.01c.14.01.28.03.41.05.14.01.28.03.43.06.23.03.46.08.69.13,1.14.25,2.37.16,3.55.18.08,0,.16,0,.23-.02.11-.02.2-.06.28-.12.04-.03.08-.07.11-.1.07-.07.13-.16.16-.27.06-.15.07-.33.04-.51-.01-.06-.02-.13-.05-.2-.02-.06-.04-.11-.07-.17-.16-.33-.29-.62-.12-.95.23-.46.45-.91.71-1.34.21-.32.14-.62.12-.96-.03-1.14.69-2,1.69-2.14.34-.04.68-.12,1.01-.11.68.04,1.35.12,2.03.19.7.07,1.33-.08,1.94-.44.58-.35,1.2-.63,1.8-.95-.03-.3.08-.54.32-.72.33,0,.66.05.98,0,.52-.08.88-.38.98-.93.62-.83,1.55-1.01,2.5-1.2.51-.1.72-.52.74-1.04-1.53.08-3.05.12-4.57.23-.67.06-1.34.17-1.99.33-.66.18-1.31.4-1.99.3-1.19-.15-2.33.51-3.52.18-.16-.06-.33-.08-.49-.13-1.06.24-2.12.27-3.15-.11-.34.01-.67.03-1.01.03-.32.1-.65.29-.98.31-.86.01-1.71-.08-2.57-.1-1.22-.01-2.42.08-3.56.56-.31.14-.64.26-.97.37-1,.28-2.01.49-3.06.4-.86-.07-1.72-.13-2.59-.14-.86-.01-1.71.07-2.5.51-.81.44-1.66.41-2.5.11-.34-.12-.66-.06-1.01-.02-1.19.09-2.39.08-3.59.19-.3.02-.57.34-.88.48-.09.05-.17.08-.24.1h-.02s-.01,0-.01.01c-.01,0-.02,0-.03.01-.04.02-.09.03-.12.03h-.02s-.05-.01-.07-.02h-.01s-.07-.03-.11-.06c-.03-.03-.06-.06-.1-.11-.07-.1-.14-.24-.23-.43-.29-.62-.58-1.24-1.17-1.66-.14-.09-.29-.22-.45-.26-1.39-.19-2.73.24-4.11.31-.26,0-.57.39-.73.68-.54.95-1.32,1.57-2.36,1.88-.36.1-.7-.04-.93-.25-.12-.12-.29-.26-.31-.4-.17-1.23-.84-2.25-1.22-3.4-.19-.52-.05-1.07.33-1.43.11-.1.21-.2.31-.31.1-.1.2-.21.3-.32.11-.12.21-.23.31-.34.09-.1.19-.2.3-.3.22-.22.46-.43.72-.6,0-.01.03-.02.04-.02.1-.07.2-.13.31-.18.14-.07.28-.13.44-.18.47-.14.82-.6,1.24-.9.44-.32.96-.27,1.48-.27,1.26-.02,2.15,1.04,3.37,1.14.4.32.79.63,1.19.96.26.22.5.46.79.61.13.08.37.06.51,0,.92-.46,1.85-.9,2.72-1.45.4-.25,1.03-.43,1-1.05-.01-.27-.33-.55-.52-.81-.18-.27-.18-.58.05-.93.19-.27.37-.57.61-.8.74-.71,1.52-1.4,2.28-2.09.48-.23.8-.57.97-1.07.23-.68-.11-1.44-.77-1.63-.54-.17-.95.09-1.25.54-.27.22-.58.29-.91.23-.23.61-.67,1.01-1.18,1.38-.44.31-.76.18-.97-.44-.1-.27-.13-.59-.19-.89h-.02c-.29.07-.6.14-.87.27-.35.17-.61.19-.76-.05-.16-.27-.13-.56,0-.85.13-.3.35-.5.68-.59.01-.34.03-.7.04-1.04.07-.34-.02-.63-.34-.73-.34-.12-.58.06-.66.43-.41.31-.79.64-1.22.9-.47.29-1.01.27-1.47.02-.44-.23-.84-.58-1.2-.91-.35-.33-.39-1.13-.1-1.44.47-.49.98-.94,1.42-1.45.2-.24.26-.61.39-.91-.66-.08-1.32-.19-1.97-.27-.61.37-.94,1.01-1.45,1.46-.5.46-1.14.75-1.65,1.21-.29.23-.53.38-.92.33-.08,0-.16-.02-.23,0-.07-.01-.13-.01-.2-.01-.11-.01-.23,0-.34.01-.09,0-.19,0-.28.03-.02,0-.04,0-.06.01-.15,0-.3.05-.45.09-.16.04-.32.09-.48.15-.51.19-1.01.09-1.52,0-.07-.01-.15-.04-.22-.07-.13-.05-.25-.12-.37-.21-.06-.04-.12-.09-.17-.14l-.07-.07s-.1-.1-.13-.15c-.07-.08-.13-.17-.16-.26-.01-.02-.03-.04-.03-.06-.01-.02-.02-.04-.02-.06-.01-.04-.02-.07-.03-.11-.01-.05-.02-.09-.02-.14,0-.06.01-.12.03-.18.46-1.33.56-2.69.56-4.07,0-.73-.21-1.34-.6-1.93-.46-.7-.69-1.76-.66-2.44.02-.55.25-.99.54-1.43.09-.13.26-.32.22-.43-.13-.3-.34-.57-.54-.86-.1-.13-.24-.28-.39-.33-.19-.06-.39-.11-.58-.18-.18-.05-.36-.11-.54-.17-.2-.07-.4-.13-.6-.2-.2-.07-.4-.13-.6-.2-.2-.07-.39-.13-.58-.19-.31-.1-.61-.19-.92-.28-.3-.09-.61-.17-.92-.25-.15-.04-.29-.07-.44-.1-.25-.05-.51-.1-.76-.14-.15-.02-.3-.03-.45-.05-.2-.02-.4-.04-.6-.05-.47-.02-.94-.38-1.4-.61-.36-.17-.45-.5-.23-.87.07-.13.24-.21.38-.27.66-.32,1.35-.18,2.04-.13.48.02.96.03,1.44,0,.2-.01.4-.03.6-.06.05,0,.1-.01.15-.02.16-.02.32-.05.47-.09h.02c.05-.01.1-.02.15-.04.13-.03.26-.06.39-.11.11-.03.23-.08.34-.12.8-.31,1.68-.42,2.51-.63.33-.1.65-.24.96-.39,1.32-.61,2.25-1.55,2.58-3.04.19-.87.27-1.69-.35-2.44-.5-.61-.55-1.2-.09-1.86.63-.88.68-1.94.87-2.95.28-1.56-.96-2.94-2.61-3.29-.34-.06-.72-.11-1.03-.02-1.63.51-3.08.14-4.39-.87-.54-.42-1.26-.51-1.76-1.03-.87-.9-2.01-1.31-3.18-1.65-.5-.13-.95-.45-1.45-.56-.49-.09-1.04-.12-1.53-.01-1.18.25-2.32.68-3.35,1.35-.29-.15-.72-.22-.85-.44-.25-.44-.39-.97-.47-1.47-.2-1.22-.75-2.28-1.48-3.26-.19-.27-.48-.58-.77-.63-1.02-.18-1.36-.88-1.65-1.74-.08-.25-.52-.53-.79-.53-1.55.03-3.1.14-4.65.23-.57.05-.99.43-1.15.91-.4,1.14-.67,2.32-1.42,3.31-.23.28-.66.46-.84.31-.56-.49-1.17-.54-1.88-.6-.66-.06-1.13-.68-1.48-1.32-.12-.23-.23-.43-.33-.59-.08-.13-.15-.25-.21-.34-.07-.11-.15-.2-.22-.27-.01-.02-.02-.03-.04-.04-.04-.04-.08-.06-.12-.09-.02-.03-.04-.04-.07-.05-.03-.02-.05-.03-.08-.04-.03-.02-.07-.03-.11-.04-.04-.02-.08-.03-.12-.04-1.33-.39-2.41-1.4-3.85-1.49-.58-.03-.88-.51-1.26-.82-.32-.26-.59-.33-.92-.21-1.47.54-2.7.2-3.7-1.02-.11-.13-.25-.22-.38-.34-.63-.04-1.26-.06-1.89-.12-.48-.05-1.04-.57-.9-.87.03-.07.07-.13.12-.18.02-.03.05-.06.08-.08.08-.08.18-.14.28-.18.04-.02.08-.03.12-.04.05-.02.1-.03.15-.04s.09-.02.15-.02c.05-.01.1-.01.14-.01.05-.01.1-.01.15-.01.16,0,.31.05.47.06.15-.08.28-.17.39-.27.11-.09.2-.19.27-.3.05-.05.09-.11.12-.17.04-.06.08-.13.1-.19.04-.06.06-.13.08-.2.04-.12.07-.23.09-.35l.03-.21c.02-.11.03-.22.04-.34h0c.02-.2.03-.4.04-.59.02-.35.3-.57.63-.58.16,0,.36.07.47.18.21.21.41.43.61.65.14.16.28.31.43.45.24.23.52.46.83.58.3.12.69.23.97.15.79-.27,1.54-.67,2.33-.96,1.32-.52,2.43-1.22,2.76-2.73.43-.5.85-1.01,1.3-1.5.3-.33.2-.54-.1-.87-.72-.8-1.67-1.12-2.64-1.44-.69-.23-1.33-.12-1.89.37l-.36.36c-.89.4-1.42,1.46-2.56,1.41-.15,0-.34-.12-.43-.23-.17-.22-.11-.53.15-.81.1-.11.31-.19.46-.18.5.01.99.14,1.48.13.3,0,.59-.23.89-.35.02-.16.03-.33.06-.51.11-.67.29-1.33-.16-1.96-.11-.15-.22-.32-.32-.48-.05-.08-.09-.16-.14-.24-.14-.24-.27-.49-.39-.74s-.23-.51-.33-.76c-.1-.26-.19-.53-.27-.79-.06-.18-.12-.36-.16-.54-.06-.23-.12-.47-.16-.71-.05-.24-.1-.49-.14-.74-.03-.27-.06-.53-.09-.8-.07-.8.44-1.68,1.31-2,.64-.24,1.31-.44,1.99-.5.67-.06,1.37.08,2.06.14.9.09,1.62.57,2.31,1.1.6.45,2.2,2.37,2.53,3.2.41,1.02,1.1,1.7,1.98,2.3.42.27.77.68,1.11,1.06.5.53.37,1.77-.25,2.26-.26.21-.52.44-.74.69-.27.32-.36,1.21-.19,1.45.25.35.5.71.75,1.06s.51.7.77,1.04c.44.54.59,1.21.79,1.87.15.52.6.82.99,1.15.3.27.6.32.91.02.09-.08.17-.27.14-.38-.13-.67-.29-1.34-.45-2.02-.24-.93.08-1.68.7-2.35.28-.45.7-.71,1.15-.95.81-.45.82-.76.07-1.3-.28-.2-.56-.39-.82-.59-.75-.6-.84-1.18-.39-2.27.06-.15.22-.27.35-.37.42-.36,1.12-.29,1.29.13.34.77.72,1.55.97,2.35.14.47.23,1.06.05,1.48-.35.86-.23,1.67-.16,2.5.35.38.67.8,1.04,1.16.66.64,1.46.9,2.36.59.81-.3,1.6-.65,2.48-.69,2.26-.07,4.43-.63,6.52-1.46.26-.11.53-.19.79-.23.14-.03.28-.05.42-.07.25-.03.5-.03.75,0,.12,0,.24.03.35.05.24.03.47.08.71.15.17.05.33.12.5.15.91.23,1.68-.13,2.41-.6.48-.32,1.09-1.11,1.2-1.55.04-.14-.07-.43-.09-.43-1.2.14-2.37.13-3.55-.26-.83-.29-1.72-.08-2.56.11-.83.19-1.64.5-2.46.76-.06.02-.13.03-.19.04-.46.06-.88-.12-1.28-.32-.16-.08-.33-.16-.42-.29-.15-.21-.31-.42-.48-.61-.12-.14-.24-.28-.36-.4-.3-.31-.62-.6-.95-.85-.17-.13-.34-.26-.51-.37-.18-.12-.36-.23-.55-.33-.18-.11-.38-.21-.57-.3-.2-.09-.4-.17-.61-.25-.12-.05-.24-.09-.35-.15-.06-.03-.12-.06-.17-.09-.2-.12-.36-.26-.46-.45-.02-.02-.03-.05-.04-.07-.03-.05-.05-.11-.06-.17-.07-.29.19-.63.29-.96.14-.48-.04-1.17-.38-1.38-.27-.18-.53-.37-.79-.55-.12-.08-.24-.16-.36-.24-.13-.08-.26-.17-.4-.24-.07-.04-.14-.08-.21-.11-.14-.07-.29-.14-.45-.19-.31-.1-.62-.29-.87-.51-.39-.33-.76-.7-.89-1.24-.25-.98-.56-1.97-.55-3.02,0-.44.41-1.05.85-1.17.83-.21,1.71-.25,2.48-.66.17-.08.33-.15.5-.19.66-.18,1.32-.04,1.99.22.32.12.66.2.99.3.75.2,1.28-.12,1.8-.64.73-.74.74-.71.4-1.68-.05-.15-.15-.3-.23-.44-.05-.07-.08-.14-.11-.22-.01-.03-.02-.05-.03-.08-.01-.05-.02-.09-.02-.14,0-.14.06-.28.21-.42.38-.38.9-.57,1.4-.34.36.15.64.23.96-.02.14-.09.35-.14.42-.26.8-1.32,2.06-1.72,3.5-1.86.4-.02.62-.34.59-.65-.04-.51-.11-1.02-.18-1.54-.01-.08-.03-.15-.07-.22-.03-.06-.06-.12-.11-.17-.04-.05-.09-.1-.14-.14h-.01s-.09-.07-.14-.1c-.01,0-.02-.01-.03-.01-.06-.03-.12-.06-.19-.07-.06-.01-.13-.02-.19-.02s-.13,0-.19.02c-.5.12-1,.4-1.49.38s-.96-.36-1.45-.52c-1.19-.42-2.42-.38-3.55.09-1.1.47-2.05.1-2.97-.32-1.2-.51-1.87-1.48-1.76-2.86.03-.33.03-.7.14-1.02.1-.31.26-.68.51-.85,1-.66,2.06-1.23,3.05-1.91.2-.13.19-.61.22-.93.02-.16-.08-.35-.18-.48-1.16-1.53-2.49-2.81-4.46-3.31-1.04-.26-1.67-1.19-2.16-2.12-.23-.44-.31-.96-.47-1.45-.24-.71-.81-1.07-1.48-1.31-.17-.06-.33-.12-.49-.16-.85.18-1.68.27-2.5.1l-.12-.03c-.11-.02-.2-.05-.3-.08-.03,0-.05-.01-.07-.02-.16-.06-.32-.12-.48-.2-.34-.18-.57-.51-.33-.81.6-.79.6-1.44.04-2.26-.34-.51-.34-1.26-.49-1.91-.04-.15-.11-.32-.17-.47.3-.1.59-.23.9-.25.12-.02.23-.03.35-.03h.1c.08,0,.17.01.26.02h.01c.09.01.19.04.28.07.3.08.7.27.79.52.6,1.69,1.82,1.76,3.27,1.36.16-.05.34-.01.51-.01.6-.35,1.17-.73,1.79-1,1.03-.46,1.62-1.15,1.76-2.29.06-.5.54-.76,1.09-.89,1.12-.26,1.15-.3,1.51-1.16.14-.34.24-.64.62-.74.33-.07.66-.14.99-.21.34-.06.7-.06,1-.19.29-.13.63-.35.77-.62.32-.59.57-1.24.76-1.88.48-1.63-.39-2.58-2.17-2.46-.12.01-.23.02-.34.05-.11.02-.21.05-.32.09-.11.03-.22.08-.33.12-.1.04-.21.08-.31.13-.21.08-.43.16-.65.21-.63.51-1.29.46-1.96.11-1.39-.06-2.78.29-4.17,0-.34.21-.7.25-1.07.14-1.31.53-2.73.3-4.07.68-1.16.32-2.36.53-3.55.74-1.52.29-3.06.51-4.59.8-1.36.24-2.56.99-3.93,1.24-.84.15-1.64.58-2.51.57-2.27-.04-4.45.4-6.63,1-.98.27-2.05.27-3.08.29-.69.03-1.35-.19-1.99-.48-.68-.34-1.07-1.02-.83-1.63.3-.81.68-1.6.91-2.42.06-.22.12-.42.2-.62.03-.08.07-.15.1-.23.06-.13.12-.26.19-.39.03-.06.06-.11.09-.16.01-.01.02-.02.02-.03.08-.12.16-.24.25-.35.01-.01.02-.03.03-.04.06-.08.11-.15.18-.21.03-.04.07-.08.11-.11.01-.03.04-.06.07-.08.12-.12.25-.24.39-.34.27-.22.5-.49.72-.74.67-.84.99-1.82.97-2.89-.01-.21-.01-.43-.02-.65,0-.15-.01-.3-.03-.45,0-.07-.01-.14-.02-.21-.01-.08-.02-.16-.04-.25-.01-.08-.03-.17-.06-.25-.02-.08-.05-.16-.08-.24-.49-1.19-.41-2.29.01-3.48.29-.83.07-1.69-.32-2.48-.14-.29-.26-.73-.15-.98.52-1.12.43-2.36.63-3.54.18-1.02.59-1.96,1.09-2.89.28-.51.74-.7,1.25-.75.51-.05,1.04.05,1.55.04.69-.03,1.38-.04,2.06-.15,1.43-.23,2.56-.98,3.32-2.23.35-.6.66-1.22.99-1.83-.5-.32-1.01-.59-1.65-.42-.43.09-.88.14-1.32.21-1.4.67-2.79,1.37-4.21,2-.45.19-1.01.17-1.52.19-.14.01-.31-.13-.41-.25-.09-.11-.14-.27-.13-.42.01-.16.06-.34.15-.48,1.07-1.56,2.12-3.15,3.23-4.67.41-.57.75-1.14,1.03-1.79.53-1.21.54-2.32-.5-3.28-.25-.24-.48-.51-.66-.8-.4-.63-.35-1.31-.09-1.98.06-.15.14-.33.26-.44.12-.12.29-.19.45-.23,2.83-.86,5.36-2.35,7.92-3.79,1.06-.58,2.1-1.15,3.29-1.46.66-.17,1.27-.54,1.9-.83.93-.44,1.85-.91,2.8-1.33,1.28-.56,2.59-.95,4.01-.88,1.08.07,1.99-.25,2.73-1.14.43-.53,1.11-.74,1.86-.75.15,0,.31-.02.46-.04.27-.03.54-.09.79-.17.12-.04.25-.08.36-.13.14-.06.28-.12.41-.19.09-.04.17-.09.25-.14.09-.05.17-.1.25-.16.1-.07.21-.14.31-.23.14-.11.28-.22.41-.35.42-.39.55-.87.45-1.38-.12-.69-.47-1.28-.98-1.77-.53-.51-1.21-.85-1.88-.61-2.33.85-4.76.75-7.16.83-.71.04-1.36.22-1.98.55-.6.35-1.22.67-1.81,1.01-.99.57-1.98.5-2.98.07-.32-.13-.64-.23-.96-.36-.52-.22-1.05-.15-1.51.08-.47.23-.94.42-1.46.43-.52.01-1.04-.09-1.55-.07-1.89.04-3.73.71-5.67.39-1.71-.3-3.44-.04-5.17.08-.67.05-1.37-.1-2.05-.2-.72-.08-1.29-.48-1.81-.94-.24-.23-.51-.52-.58-.82s-.13-.59-.19-.89c-.06-.29-.12-.59-.18-.89-.07-.36-.14-.73-.21-1.1-.04-.23-.08-.45-.12-.67-.08-.39.32-.92.85-1.12.48-.18.98-.32,1.45-.53.47-.22.98-.46,1.17-.98.56-1.56,1.74-2.5,3.17-3.2.66-.32.91-.97,1.17-1.63.48-1.21,1.4-1.91,2.73-2.04.32-.02.62-.23.93-.34.25-1.2,1.22-1.55,2.21-1.89.41-.14.45-.38.41-.81-.12-1.16-.12-1.21.44-1.92.26-.34.43-.54.18-.88-.51-.7-1.05-1.35-1.52-2.08-.27-.41-.37-.85-.15-1.41.24-.61-.18-1.34.15-2.01.25-.49,0-.98-.21-1.47-.2-.48-.31-.98-.1-1.49.27-.64.37-1.31.39-2.01.03-1.01.53-1.23,1.29-1.14.35.03.69.03,1.04.05.7.02,1.37-.06,2-.41,1.51-.84,2.97-1.74,4.24-2.94.98-.94,2.14-1,3.36-.45.15.07.3.16.47.2.83.18,2.2-.74,2.44-1.55.24-.85.19-1.7-.08-2.53-1.2-3.63-1.26-3.92-1.55-8.05-.08-1.16-.34-1.57-1.41-1.81-1.41-.31-2.59-.92-3.46-2.08-.43-.6-1.06-.85-1.73-1.04-.32-.11-.66-.23-1-.24-1.86-.02-3.26-1-4.59-2.14-.63-.55-.78-1.5-.3-2.35.34-.59.7-1.19,1.13-1.71.32-.39.7-.79,1.28-.8,2.07-.04,4.14-.08,6.21-.14.74-.01,1.31-.37,1.76-.94.21-.26.43-.54.61-.82.47-.75.73-1.57.5-2.47-.1-.37-.09-.66.1-.96.57-.93,1.53-1.37,2.44-1.85.29-.15.68-.15,1.02-.14,1.2.1,2.42.17,3.61.37.91.14,1.71-.02,2.48-.46.48-.29.99-.25,1.5-.19.68.08,1.41.4,2.04.1,1.77-.82,3.67-.9,5.53-1.22.31-.05.68-.28.86-.54.71-1.01,1.86-1.5,2.75-2.32-.01-.56.28-.96.79-1.17.83-.33,1.69-.27,2.55-.12,1.18.23,2.27.85,3.5.9.51.02,1.03.03,1.46-.34.13-.12.28-.2.4-.32,1.46-1.46,3.11-1.22,4.75-.45.94.44,1.79,1.04,2.7,1.52.48.27.8.65,1.1,1.07,1.42,2.08,3.38,3.36,5.79,4.02.17.04.33.08.5.14.9.31,1.35,1,1.57,1.88.34-.06.71-.06,1.01-.19.92-.45,1.79-1.02,2.73-1.42.95-.39,1.98-.57,2.94-.94,1.71-.65,3.36-.62,5,.19.31.16.63.27.96.38.32.12,1.03-.28,1.22-.7.52-1.11,1.34-1.62,2.33-1.44.34.06.72.11.99.29.91.6,1.91.75,2.95.58,1.21-.19,2.4-.24,3.56.24.51.2.88.56.97,1.09.13.67.19,1.36.26,2.04.06.63-.18.94-.8,1.05-.17.02-.35.06-.52.04-.8-.09-1.31.39-1.67.98-.36.61-.4,1.35-.09,1.99.36.76.79,1.52,1.31,2.19.63.82,1.46,1.44,1.73,2.51.08.31.36.58.59.85.35.38.71.75,1.1,1.08.57.5.72,1.17.7,1.86-.01.58.24,1.02.61,1.35,1.15,1.02,2.3,2.05,3.48,3.04.2.18.41.36.62.53.03.02.06.05.09.07.42.36.85.7,1.29,1.04,1.21.97,2.59,1.68,4.04,2.25,3.36,1.32,6.7,2.71,10.05,4.05.96.37,1.96.66,2.9,1.08,1.88.86,3.82,1.54,5.86,1.97,1.01.2,1.99.52,3,.75.68.14,1.31.38,1.93.7.18.09.36.18.54.27.57.28,1.15.54,1.75.76.21.08.43.16.65.22.2.07.41.14.62.19.21.06.42.12.63.16.14.03.28.06.43.08.22.05.45.09.68.11.18.03.37.05.56.06.67.04,1.36.26,1.99.51,1.81.74,3.68.76,5.58.51.59.54,1.27.88,2.08.88.24.42.32.98.18,1.07-.02.01-.03.01-.05.03-1.13.4-1.77,1.4-2.65,2.13-.38.29-.44.82-.21,1.31.43.89-.05,1.31.04,2.27-1.03,1.44-1.12,1.31-1.3,1.53-.67.83-.44.83-1.45,1.16-.48.16-.77.27-.94.41-.03.02-.05.05-.07.07-.03.03-.05.07-.06.11-.02.03-.03.05-.03.08-.03.1-.02.23,0,.39,0,.05.01.1.02.15.03.17.07.37.12.6-.46.12-.9.26-1.35.43-.26.09-.53.19-.79.3-.26.1-.52.2-.78.31-.95.38-2.02.46-2.95.86-1.04.46-1.97.52-2.94-.09-.6-.37-1.28-.55-1.97-.42-1.35.26-2.73.25-4.07.69-.79.28-1.7.17-2.56-.03-.38-.1-.63-.28-.75-.62-.16-.49-.32-.99-.5-1.47-.16-.42-.9-.65-1.29-.27-1.05.98-2.12.93-3.28.27-.15-.08-.3-.16-.45-.26-1.79-1.08-3.78-1.57-5.82-1.99-1.87-.38-3.81-.27-5.63-.76-1.22-.31-2.38-.19-3.57-.15-.86.02-1.71.26-2.57.3-1.75.08-3.35.76-4.99,1.25-.85.25-1.5.84-2.02,1.53-.3.42-.54.87-.87,1.25-.22.25-.54.55-.84.57-1.52.17-3.08.55-4.51-.35-.73-.47-1.48-.84-2.32-1.1-1.86-.58-3.67-.62-5.59-.19-1.5.34-3.05.46-4.56.86-1.33.33-2.73.38-4.09.6-.31.05-.6.31-.85.54-.26.23-.49.5-.65.8-.4.76-.93,1.5-1.11,2.32-.45,1.95-1.27,3.56-3.28,4.31-.79.64-1.62,1.27-2.38,1.96-.37.35-.75.76-.93,1.23-.69,1.72-2.07,2.7-3.65,3.49-.92.46-1.88.87-2.74,1.43-1.62,1.08-3.4,1.63-5.28,1.96-.68.13-1.36.23-2.04.34-.7.12-1.3.46-1.82.91-.79.7-1.63,1.19-2.7,1.42-1.34.28-2.69.67-3.93,1.26-.37.17-.74.34-1.12.49-.21.09-.41.17-.62.25-.29.11-.59.23-.88.33-.44.16-.89.31-1.34.45-.45.14-.9.28-1.36.41-1.16.33-2.29.78-3.2,1.64-.25.23-.57.45-.68.75,0,.04-.03.08-.05.11-.04.1-.08.2-.13.29-.05.1-.1.2-.17.29-.01.03-.04.07-.07.1,0,0-.01.02-.02.03-.06.08-.12.15-.2.22-.18.17-.4.31-.66.42-.05.02-.1.04-.16.06-.1.04-.21.07-.32.09-.69.14-1.27.65-1.43,1.35-.26,1.11-.93,1.85-1.8,2.42-.85.58-1.69,1.18-2.72,1.46-.83.23-1.57.68-2.18,1.33-1.35,1.4-2.98,2.31-4.83,2.87-.32.09-.6.32-.9.47-.06.03-.11.08-.15.13-.03.02-.05.04-.06.06-.04.05-.08.1-.11.16-.05.07-.08.15-.1.23,0,.01-.01.02-.01.03-.03.08-.05.16-.06.25-.02.15-.01.31.02.45.07.35.13.68.19,1.01.55-.08,1.09-.15,1.63-.25.01-.06.02-.12.02-.18.02-.09.03-.17.04-.26.05-.23.11-.44.2-.64.03-.05.05-.1.09-.15.01-.03.03-.05.05-.07.01-.02.03-.05.06-.07.03-.04.06-.07.09-.1.1-.09.23-.17.39-.21.05-.02.1-.03.16-.04.09-.02.2-.03.31-.03h.02c1.44.04,2.73-.38,3.94-1.08.44-.25.89-.56,1.19-.94.85-1.12,1.67-2.18,3.19-2.43.31-.05.6-.32.85-.55,1.3-1.13,2.57-2.28,3.88-3.4.52-.44,1.11-.81,1.69-1.18.13-.09.26-.17.4-.24.05-.02.1-.05.15-.07.13-.06.27-.12.4-.16.05-.02.09-.03.14-.04.13-.04.26-.07.38-.09.05-.01.11-.02.16-.02.26-.04.54-.04.82,0,1.88.25,3.77.33,5.66.13.33-.02.73.04,1.01.19,1.28.74,2.66.6,4.03.49.87-.07,1.69-.26,2.35-.93.36-.36.76-.69,1.17-1.01,1.31-1.02,2.8-1.36,4.38-.88.85.25,1.59.47,2.46.09.94-.4,1.93-.71,2.9-1.03.15-.05.36-.06.51.01.63.26,1.19.64,1.57,1.25.31.49.32,1.01.08,1.45-.04.08-.08.16-.11.23-.02.05-.04.1-.05.15-.02.06-.03.12-.03.18,0,.12.04.24.12.37.27.44.56.83,1.02,1.12,1.47.9,3.22,1.24,4.65,2.23.34.01.71-.06,1.02.03,1.63.56,3.32.84,5.03.98l.25-.05c1.24-1.09,2.66-1.36,4.24-.94.65.17,1.22.57,1.94.48,1.66-.23,3.35.41,5-.18.23-.31.55-.49.92-.55.18-.57.56-.86,1.18-.75l.27-.12c.22-.26.43-.53.64-.81.33-.42.23-1.07-.2-1.2-.32-.11-.66-.29-.98-.25-.91.06-1.67-.17-2.31-.82-.24-.24-.58-.41-.77-.68-.08-.14-.18-.26-.28-.37,0-.02-.03-.04-.05-.06-.03-.05-.06-.09-.11-.13,0-.01-.01-.01-.01-.01-.1-.12-.22-.23-.34-.33h-.01s-.01-.02-.01-.02c-.06-.06-.13-.12-.2-.16-.27-.22-.55-.41-.85-.59-.1-.07-.2-.12-.3-.18-.2-.12-.41-.23-.61-.35-.15-.09-.28-.19-.42-.29-.28-.25-.4-.55-.44-.87-.05-.43.36-.95.82-1.19.48-.24.99-.27,1.5-.32.34-.04.7-.1,1.02-.04,2.2.47,4.45.09,6.66.4.3.04.61.07.91.12.21.03.42.07.62.12.17.04.33.09.48.16,1.28.56,2.69.44,4,.86.38.12.63.83.44,1.31-.2.51-.59.87-1.03,1.08-1.23.6-2.49,1.12-3.75,1.66-.67.27-.45.82-.48,1.29-.01.17.03.35.05.52h.07c1.36.25,2.69.27,4.05-.08,2.47-.65,5.02-.94,7.54-1.3,2.2-.31,4.39-.47,6.62-.35,1.87.11,3.73-.04,5.61.23,1.5.21,3.06.02,4.59.08.48.04.95.32,1.43.49.69.01,1.35.18,2,.39.65.21,1.31.42,1.98.52,1.36.23,2.68.19,4.05-.2,3.87-1.12,3.88-1.02,8.09-.59,1.1.1,1.93.62,2.79,1.18,2.4.04,4.79-.16,7.19-.22.3-.37.6-.74.89-1.11,0-.09.01-.17.02-.25,0-.05.01-.1.02-.15.01-.05.02-.1.03-.14.01-.03.02-.06.03-.09.01-.04.03-.08.05-.12.04-.1.11-.2.19-.29.04-.04.09-.08.14-.12.05-.04.1-.07.16-.1.1-.06.21-.11.34-.14.77-.2,1.52-.45,2.28-.68-.06-.3-.12-.59-.2-.88-.47-.18-1-.26-1.41-.54-1.05-.7-2.22-.83-3.42-.73-.84.07-1.67.27-2.49.47-1.76.47-3.35-.11-4.96-.66-1.33-1.16-3-1.52-4.63-1.95-.44-.11-.51-.38-.36-.8.17-.5.42-.91.91-1.15.92-.45,1.87-.81,2.88-1,1.36-.25,2.55-.91,3.74-1.57.19-.11.36-.25.53-.4.02-.01.04-.03.06-.05.13-.11.26-.22.39-.31.05-.04.11-.08.17-.11.08-.05.16-.09.25-.13.09-.04.17-.07.27-.09.31-.16.6-.41.92-.44.85-.12,1.71-.23,2.57-.22,1.71.05,3.42.18,5.08-.48.46-.17,1.01-.15,1.53-.16,1.2-.05,2.4-.05,3.61-.11,2.08-.07,4.09-.44,5.86-1.68.1-.07.2-.12.32-.16.08-.03.17-.06.26-.08.02,0,.03-.01.05,0,.08-.02.17-.03.25-.03.09,0,.17.01.26.03.04,0,.07.01.11.02.05.01.09.03.13.04.03.01.07.03.1.04.42.17.82.26,1.21.25.18,0,.35-.03.53-.08.07-.01.15-.03.22-.06.09-.02.19-.05.28-.1.03-.01.07-.03.11-.05.1-.04.2-.1.3-.17.08-.04.17-.1.25-.16.55-.39,1.07-.84,1.76-1.02.37-.1.66-.05.99.14.09.05.18.1.27.16.02.01.04.03.06.05.04.02.07.05.1.08.06.04.12.09.16.14t.02.01c.06.06.12.12.18.19.06.06.12.13.18.2.16.19.3.4.45.61.51.05,1.03.18,1.52.12,2.02-.24,4.04-.55,6.05-.85.51-.07,1.02-.14,1.5-.29,2.65-.92,5.33-.84,8.05-.36.3.06.66-.05.96-.17.38-.15.55-.44.47-.69-.04-.12-.08-.22-.15-.31-.02-.03-.04-.06-.06-.09-.06-.08-.14-.15-.23-.2-.07-.05-.14-.07-.21-.09-.33-.07-.68-.12-1.01-.07-.84.13-1.67.31-2.5.44-.68.11-1.36.06-2.03-.08-.51.08-1.08.27-1.5-.03-1.32-.93-2.8-1.28-4.35-1.33-1.7-.06-3.43-.44-5.08.31-1.02,0-2.06.21-3.07-.06-.86-.24-1.7-.15-2.55,0-1.34.24-2.69.49-4.04.67-.29.02-.73-.15-.92-.36-.32-.38-.48-.91-.74-1.35-.37-.6-.91-1-1.66-1.01-.17-.01-.34-.02-.51-.03-.57-.04-1.02-.37-1.12-.87-.23-1.2-1.09-1.75-2.09-1.99-1.18-.29-2.28-.75-3.42-1.12-.67-.2-1.24-.58-1.77-1.02-.27-.23-.53-.44-.76-.69-.71-.79-1.57-1.29-2.58-1.61-.63-.22-1.2-.67-1.74-1.07-.25-.19-.36-.55-.54-.85.26-.6.55-1.22,1.08-1.62.89-.64,2.06-.86,1.92-1.89.26-.15.75-1.3,1-1.47.89-.6.31-.93-.23-2.04-.17-.35-.16-.67.09-.88.83-.76,1.86-1.35,2.36-2.42.67-.18,1.32-.38,1.99-.51,1.02-.2,2.04-.37,3.06-.49.5-.05,1.05-.01,1.54.13,1.66.53,3.34.8,5.09.8.68,0,1.41.06,2.04.29,1.64.59,3.39.69,5.04,1.15,1.35.38,2.69.6,4.09.44.5-.05,1.02.1,1.53.13,1.88.18,3.74.62,5.64.64.85.03,1.7.29,2.55.42.33.05.65.12.98.17.15.03.3.06.45.07.2.03.41.04.61.03,2.43-.05,4.83.2,7.24.33,2.24.12,4.48-.1,6.72-.27,1.78-.11,3.38-.47,4.74-1.71.49-.46,1.16-.74,1.77-1.05.3-.14.67-.26.98-.21,1.19.16,2.39.34,3.51.84,2.38,1.07,4.88,1.67,7.47,1.98,1.54.2,3.06.63,4.61.68,2.13.06,4.06.75,5.96,1.55,1.14.47,2.28.75,3.5.79.86.05,1.73.09,2.58.19,4.14.54,8.25.43,12.38-.21,2.55-.41,5.14-.67,7.7-1.06,1.04-.15,1.99-.56,2.93-.99.31-.13.65-.27.89-.51.98-.96,1.96-1.94,2.85-2.98.32-.37.52-.92.55-1.41.07-1.18.37-2.38-.04-3.59-.09-.28.23-.64.56-.76,1.3-.45,2.63-.81,3.8-1.61.41-.27.94-.4,1.43-.54.5-.16,1.01-.23,1.52-.35,2.71-.57,5.28-1.62,7.74-2.82,2-1,4.07-1.88,5.94-3.15,1.43-.98,3.06-1.58,4.72-2.05,1.16-.35,2.33-.62,3.46-1.05,1.13-.4,2-1.37,3.2-1.65,1-.23,2.05-.33,3.03-.62.64-.19,1.31-.54,1.78-1.02,1.1-1.1,2.42-1.92,3.6-2.92.48,0,.74-.21.91-.81l.32-.17c.78-.04,1.55-.06,2.32-.12.68-.05,1.12-.45,1.46-1l.09-.05c.51-.79,1.32-1.04,2.2-1.13.68-.06,1.4.05,1.95-.46,1.18-1.07,2.81-1.3,4.07-2.24.38-.29.96-.36,1.47-.43.69-.08,1.34-.27,1.96-.58.63-.31,1.3-.49,2-.48,1.57.04,3.1-.11,4.57-.7,2.23-.26,4.4-.81,6.65-.98,1.71-.12,3.43-.38,5.03-1.08.47-.21.98-.36,1.41-.62,2.24-1.39,4.74-2.06,7.28-2.52,1.02-.19,1.99-.46,2.96-.85,2.08-.82,4.27-1.34,6.33-2.25.6-.26,1.36-.26,2.04-.21,2.41.14,4.81.3,7.21.66,6.14.96,12.33,1.49,18.56,1.46,1.55-.02,3.1-.07,4.65-.19,2.94-.23,5.87-.12,8.77.44,1.45.62,3.03.58,4.56.87,2.59.46,5.16.21,7.69-.34,1.18-.25,2.37-.45,3.56-.59.33-.05.75-.05,1.01.1,1.4.84,2.98.79,4.5.99.17.04.33.11.49.18,3.13.27,6.22-.17,9.31-.48.5-.04,1.01-.25,1.46-.48,1.31-.7,2.57-1.46,3.67-2.38.28-.23.55-.47.8-.73.13-.13.26-.26.38-.39.24-.27.47-.54.69-.84,0,0,.01,0,.01-.01.15-.19.29-.4.42-.61.13-.21.25-.42.37-.65.04-.06.07-.12.1-.18.23-.46.83-.63,1.35-.63.72.02,1.4.13,1.98.42.13.06.25.13.37.22.07.04.13.09.19.14s.12.1.18.17c.06.06.12.12.17.18.06.06.11.13.16.21.04.06.09.12.13.19.07.12.14.25.2.39.22.47.52.87,1.05,1.06.65.23,1.3.47,1.91.78.31.17.49.55.4.87-.26.81-.66,1.6-.89,2.42-.19.65-.23,1.38.17,2,.56.87,1.09,1.76,1.75,2.56.55.64,1.26,1.18,1.94,1.7.57.44.95,1,1.23,1.63.28.66.72,1.18,1.3,1.58.7.49,1.42.98,2.1,1.52.84.65,1.77,1.06,2.8,1.27.85.15,1.71.27,2.54.5,1,.26,1.99.58,2.87,1.17.57.38,1.2.71,1.85.92.81.29,1.65.55,2.5.62,2.42.19,4.81.1,7.2-.52,6.51-1.69,6.52-1.64,12.4-3.7,1.19-.7,2.31-.41,3.41.21.3.18.6.37.93.48,2.05.7,3.56,2.07,4.76,3.82.29.42.52.89.63,1.38.36,1.52.69,3.06.18,4.62-.05.14-.01.33-.02.5-.04.74.17,1.39.68,1.89,1.72,1.7,3.45,3.4,5.21,5.05.37.33.85.58,1.32.77.64.27,1.33.4,1.98.62.49.18.93.46,1.21.92.09.14.18.3.28.44,1.34,1.76,3.09,2.69,5.34,2.54.52-.04,1.04-.09,1.54-.18,1.74-.35,3.28-1.05,4.41-2.48.86-1.08,1.76-2.13,2.68-3.17.5-.54,1.26-.76,1.9-.51,1.32.5,2.67.66,4.05.76,1.55.12,3.09.29,4.6.77,1.15.35,2.31.66,3.4,1.21,1.54.79,3.13,1.44,4.68,2.2.46.24.77.72.89,1.23.12.5.15,1.02.23,1.53.05.35.03.73.2,1,.27.43.59.93,1.02,1.14,1.73.79,3.53,1.4,5.47,1.41,1.39.01,2.77.06,4.15.07.9.02,1.63.3,2.35.87.82.66,1.87.86,2.91.99.69.08,1.42.06,2,.45,1.01.69,2.18,1.06,3.23,1.66.73.41,1.32,1.08,2.03,1.58.58.41,1.26.54,1.97.48,1.26-.12,2.35-.59,3.16-1.57.66-.8,1.31-1.61,1.94-2.43.59-.74,1.31-1.15,2.24-.8.84.31,1.69.25,2.55.29,1.14.03,1.42.34,1.51,1.57.12,1.57,1.02,2.57,2.45,2.95,1.04.29,1.95.68,2.67,1.46.25.28.53.41.91.42.86.04,1.72.12,2.59.14,3.47.15,6.89.65,10.2,1.66,1.37.41,2.7.57,4.08.38,1.26-.18,2.41.02,3.48.69.76.46,1.59.63,2.48.61,1.72-.04,3.45-.11,5.18-.05,2.14.07,4.11-.33,5.85-1.64.41-.31.88-.56,1.35-.77.47-.21.98-.29,1.48-.02.3.17.62.31.94.43,1.03.4,2.06.27,3.02-.18.78-.36,1.52-.82,2.24-1.31.73-.49,1.53-.77,2.39-.92,1.19-.2,2.44-.33,3.49-.95,1.27-.76,2.61-.83,3.99-.72,1.56.11,3.09.16,4.64-.11,1.21-.24,2.36-.5,3.43-1.12,1.32-.75,2.65-.56,3.96.07.31.14.64.26.95.42.66.32,1.35.33,2.02.15,2.01-.51,3.99-1.14,5.78-2.22.8-.49,1.67-.38,2.51-.21,1.02.22,1.98.61,2.83,1.23.57.4,1.15.8,1.64,1.27,1.04.99,2.35,1.37,3.65,1.86,1.35.5,2.64.63,4.05.36,1.75-.34,4.57.2,6.01.99.3.16.64.31.89.53.83.78,1.85.87,2.9.86,1.04-.04,2.07-.13,3.11-.17.69-.02,1.38,0,2.07.01,1.24.03,2.37.33,3.3,1.24.36.36.86.66,1.34.74,2.25.44,4.48.32,6.61-.61,1.6-.69,3.11-1.5,4.48-2.58.54-.43,1.04-.92,1.62-1.3.42-.26.93-.49,1.42-.55,1.55-.19,3.09-.35,4.6-.75.69-.17,1.38-.09,2.03.2.35.14.65.21,1,.09,1.02-.33,2.04-.66,3.06-.99,1.02-.33,2.05-.66,3.07-1.01.08-.02.16-.04.23-.07l.05.38-1.5,4.88-10.14,5.82-16.52,4.51-11.08,1.5-4.13,5.63-4.17,2.61.41,1.71,9.01,7.13,6.76,5.26,13.52,11.27,9.01,7.13,10.89,10.51,6.01,12.77,10.89,12.02,18.4,6.38,12.77,10.52,2.25,7.88,6.39,18.4,13.14,12.39,15.39,6.39,13.15,8.63v16.9l-4.13,10.14h-12.4l-10.89-4.88-7.88,2.63,6.38,11.26,13.15,20.28,12.76,11.26,11.27,14.65,4.5,13.89,2.63,16.15Z" style="fill: none; stroke: #000; stroke-miterlimit: 10;"/>
</svg>