<?xml version="1.0" encoding="UTF-8"?>
<svg id="a" data-name="Ebene 1" xmlns="http://www.w3.org/2000/svg" width="1920" height="1080" viewBox="0 0 1920 1080">
  <path d="M660.95,289.26c-3.68,12.41-14.74,2.06-21.41,21.22-10.85,12.94-34.22,11.7-43.18,27.04-7,12.36-16.9,7.07-27.79,3.94-28-5.04-58.57-.59-86.36-6.76,0,0-5.26-3.75-5.26-3.75,2.07-4.34,3.91-13.63,4.32-18.4-3.17-10.44-13.51-2.31-10.52-16.34-20.79-6.84-54.73-17.98-71.72.94-14.08,18.27-44.95.1-56.14,21.78-20.39,3.62-47.87-3.49-63.46,13.89-9.34,9.79-7.3,22.91,3.38,30.98,10.12,1.27,26.35-.98,35.49,4.51,3.25,17.67-9.06,14.44,7.51,21.97,5.35,3.49,18.81,6.28,19.34,14.08-6.63,2.35-14.66,6.32-10.14,14.27,17.71,13.67,5.88,21.37,6.76,37.92-14,6.45-61.28-24.27-63.95,1.66,1.88,7.52-5.38,9.73-3.18,16.84-5.28,7.65-1.96,3.9-8.5,1.67-8.32-2.65-16.28,4.45-24.48,5.84-1.91,2.8-4.4.17-6.89,1.56-2.7.17-1.9-3.71-4.93-2.63-9.11-1.44-15.56-3.15-23.31-9.44,1.17-13.39-1.92-4.65-3.93-9.96-.02-2.11,4.09-1.09,3.72-2.94-2.21-1.87-6.09-4.01-9.01-3.93-4.87,2.05-.86,5.75-3.91,6.49-1.68-1.48-1.95-4.69-5.06-4.96-7.14.08-4.58-.69-7.43-5.51-1.48-.73-2.45.61-3.73.85-1.99.37-3.98-4.53-4.83-2.03.48,4.27-5.95.63-8.33,2.19,3.7,3.92.58,3.56-3.43,5.69-2.72,2.46-4.6,7.49-9.16,3.24,1.1-.06,2.37.36,3.24-.5,1.42-2.36-7.81-2.44-1.51-4.76,3.43-3.76-5.67-.64-7.52-1.52-3.93.15-8.43-1.73-9.66,3.63-2.55.33-19.99,2.45-12.64-2.87,9.44-3.42,19.51-3.73,29.44-3.59-.04-8.97,3.71-4.9,9.26-7.85,17.19-8.07-31.14-.24-36.04-.33-2.26-6.34-6.98.54-10.08.16-1.33-2.62-2.47-5.28.68-7.06,3.67-4.8,13.07,5.88,12.68-3.12.69-1.64,5.93-3.78,3.09-5.59-1.83-.34-3.95,4.47-4.52.81-3.77,1.31.27-1.82-1.25-2.98-3.57,3.04-6.52.42-2.84-3.36-12.09,4.8-10.29,4.78-10.9-8.33.18-4-8.78-1.68-9.33-4.9,3.73-1.2,10.55.2,12.03-4.91.1-14.91,1.71-6.88-9.36-12.46-7.66-5.99-8.23,3.86-13.08-6.67-2.08-2.24-3.82-2.64-7.09-2.04-2.18.35-1.15,4.45-3.41,4.53-5.07-4.12-11.77-5.55-17.56-8.29,3.7-.76,2.35-4.9,5.79-1.84,5.19,1.22,11.07-9.12,2.73-6.98-1.01.63-2.08,2.33-3.35,1.54,8.56-2.19-5.06-10.02,4.18-11.98,3.17-1.03,11.44,7.43,9.74,10.06-3.4,1.65,5.07,11.52,2.97,4.88-1.11-2.34,3.57-3.16,1.92-4.59-3.68-2.21.82-5.5,1.4-.75-1.83,11.01,10.35,2.07,15.81,3.62,9.97-3.45-3.51-2.64-6.52-2.25-1.39-2.05-3.92-2.77-5.53-4.34,1.33-2.53-1.57-3.09-3.17-4.18-4.93-7.28,3.25-5.36,7.17-6.4,2.1-2.39-2.88-2.77,3-3.6.73-1.99,3.39-1.11,4.09-2.51.04-4.52-7.89-1.12-10.71-2.62-6.86-4.58,8.97-7.29-2.48-11.35-2.69-.63-1.82-4.67-4.6-5.05-1.21.26-3.9.5-3.8-1.04-.92-12.59,2.68,4.27,10.49-7.14,25.69-20.32-51.32,11.44-34.31-8.18,4.12-5.31-1.17-13.17,2.7-19.05,3.07-1.62,7.99.05,9.17-4.91-3.02-2-6.16,2.95-9.11,1.72.17-3.78,7.71-7.58,3.12-11.44-2.28-7.41,39.32-12.2,25.96-18-17.84,3.41-55,8.78-21.71-14.22.99-.62-.17-2.13.85-2.74.81-1.08-.94-1.94-1.34-2.95.13-4.63-2.19-10.24,4.41-9.9,2.78-1.03,4.85-5.12,8.07-3.19,4.54,1.26,1.1-12.93-.6-13.94-3.08-2.95-11.59-2.89-11.08-7.84,1.6-4.82,7.5-.89,10.38-3.6,2-7.65,4.01-5.57,10.76-6.33,13.22-.19,8.96-6.25,21.38-5.22,6.36-3.92,12.01,7.5,17.42,7.99,3.99-3.29,9-1.99,12.85-2.49,1.98-3.08,6.67.15,9.83-.33,5.25,5.95-8.56,2.23,2.88,13.82,6.61,16.61,34.9,7.17,16.22,31.59-7.41-.51-17.25-3.25-22.53,3.86-7.1-.38-19.65-5.06-23.68,3.48-7.55,16.29-29.89,14.23-41.16,25.6-2.46,4.74-9.57,5.73-12.92,9.4.2,3.04,1.82.6,2.78-.47,6.25-.48,10.05-6.55,15.23-9.65,9.27-.24,17.32-.88,26.41-3.57,3.42,0,1.04,3.62,3.11,4.76,6.5,4.36,38.01,5.05,17.69-5.12-3.03-4.78,20.61-2.01,14.98,1.63-13.7,7.05,15.16.03,19.71,1.97,9.71-.39,26.98,4.9,33.99-.86,7.93-3.25-12.44-2.07-14.83-4.96,4.62-8.27,21.13-5.27,29.89-8.85,2.43,1.42,4.38-3.13,6.44-.62,1.28,1.71,24.66-1.22,17.52-2.19-5.34,1.89-10.11-2.66-15.46-.69-3.53-1.16-9.46,2.48-11.32-1.09-4.52-5.23-22.01-6.98-12.2-15.25.95-13.48,26.88-.92,36.71-2.06,16.53-.13,30.45-3.37,46.63,2.93,10.48.29,30.31,2.98,30.4-11.32,31.26-13.15,59.64-26.13,93.2-34.25,18.86.32,38.29,4.21,57.04,2.1,20.73,6.96,19.69-10.68,30.9-2.35,2.41,32.85,43.28,7.12,49.26,19.05,1.14,5.93,1.65,11.16,8,14.22,17.74,13.22,11.97-10.68,35.11,2.66-3.58,9.73-5.27,12.21,1.73,20.29,23.77,7.67,44.31,25.52,66.28,37.17Z" style="fill: none; stroke: #000; stroke-miterlimit: 10;"/>
</svg>