<?xml version="1.0" encoding="UTF-8"?>
<svg id="a" data-name="Ebene 1" xmlns="http://www.w3.org/2000/svg" width="1920" height="1080" viewBox="0 0 1920 1080">
  <path d="M318.3,278.75l-8.83,6.2-6.38,4.69-7.14,3.57-4.5,1.87-5.46,1.52-2.05,7.87-8.45,3.38-10.7,5.63-6.95,1.32-13.71.56-19.9.19-9.95,2.06-2.81,3.01-6.2,3.57-.63-.47-1.62,2.16-5.26,7.32-6.38,2.06-9.95-.75-12.77-2.44-12.96,3.38-13.52,5.82-14.45,2.26-15.21.37h-11.83l-6.04-2.13c.63-.38,1.26-.75,1.87-1.17.2-.13.19-.61.22-.93.02-.15-.08-.34-.18-.48-1.16-1.53-2.49-2.8-4.46-3.3-1.04-.27-1.67-1.2-2.16-2.12-.23-.44-.31-.97-.47-1.46-.24-.71-.81-1.07-1.48-1.31-.17-.06-.33-.11-.49-.16-.85.18-1.68.27-2.5.1-.16-.03-.33-.07-.49-.13-.16-.06-.32-.12-.48-.2-.34-.18-.57-.51-.33-.81.6-.78.6-1.44.04-2.26-.34-.51-.34-1.26-.49-1.9-.04-.16-.11-.33-.17-.48.3-.1.59-.23.9-.25.23-.04.48-.05.71-.01h.01c.09.01.19.04.28.07.3.08.7.27.79.52.6,1.69,1.82,1.76,3.27,1.36.16-.05.34-.01.51-.01.6-.35,1.17-.73,1.79-1,1.03-.45,1.62-1.15,1.76-2.29.06-.5.54-.76,1.09-.89,1.12-.26,1.15-.3,1.51-1.16.14-.34.24-.64.62-.73.33-.08.66-.15.99-.22.34-.06.7-.06,1-.19.29-.13.63-.34.77-.62.32-.59.57-1.24.76-1.88.48-1.63-.39-2.58-2.17-2.46-.12.01-.23.02-.34.05-.09.02-.18.04-.27.08-.45.13-.87.37-1.34.47-.63.52-1.29.46-1.96.11-1.39-.06-2.78.29-4.17,0-.34.22-.7.25-1.07.14-1.31.53-2.73.3-4.07.68-1.16.32-2.36.53-3.55.74-1.52.29-3.06.51-4.59.8-1.36.24-2.56.99-3.93,1.24-.84.15-1.64.58-2.51.57-2.27-.04-4.45.4-6.63,1-.98.27-2.05.27-3.08.3-.69.02-1.35-.19-1.99-.49-.68-.34-1.07-1.01-.83-1.63.3-.81.68-1.6.91-2.42.06-.22.12-.42.2-.62.03-.08.07-.15.1-.23.07-.16.14-.31.22-.45,0-.02.02-.03.03-.05.09-.15.19-.29.3-.43.08-.11.18-.23.29-.33.05-.06.1-.11.15-.15.1-.11.22-.21.34-.3.27-.21.5-.49.72-.74.67-.84.99-1.82.97-2.89,0-.21,0-.43-.02-.65,0-.15,0-.3-.03-.45,0,0,0,0,0-.01l.31-.57,7.13-9.95,11.45-11.27,6.95-2.25,10.51-1.69,4.14-5.07,11.26-3.57,4.96-.36s0,.02-.01.03c-.02.05-.04.1-.05.15-.02.06-.03.12-.03.18,0,.12.04.24.12.37.27.44.56.84,1.02,1.12,1.47.91,3.22,1.24,4.65,2.23.34.01.71-.06,1.02.03,1.63.56,3.32.84,5.03.98l.25-.05c1.24-1.09,2.66-1.36,4.24-.94.65.17,1.22.57,1.94.48,1.66-.23,3.35.41,5-.18.23-.31.55-.49.92-.55.18-.57.56-.86,1.18-.75l.27-.12c.22-.26.43-.53.64-.81.33-.41.23-1.07-.2-1.2-.32-.11-.66-.29-.98-.25-.91.06-1.67-.17-2.31-.82-.24-.24-.58-.41-.77-.68-.23-.35-.5-.65-.8-.91-.07-.06-.14-.12-.21-.17-.27-.22-.55-.41-.85-.59-.1-.07-.2-.12-.3-.18-.2-.12-.41-.23-.61-.35-.15-.09-.28-.19-.42-.29-.28-.25-.4-.55-.44-.87-.05-.43.36-.95.82-1.19.48-.24.99-.27,1.5-.32.34-.03.7-.09,1.02-.03,2.2.46,4.45.08,6.66.39.3.04.61.07.91.12.21.03.42.07.62.12.17.04.33.09.48.16,1.28.56,2.69.44,4,.86.38.12.63.83.44,1.31-.2.51-.59.87-1.03,1.08-1.23.6-2.49,1.12-3.75,1.66-.67.27-.45.82-.48,1.3,0,.16.03.34.05.51h.07c1.36.25,2.69.27,4.05-.07,2.47-.66,5.02-.94,7.54-1.31,2.2-.31,4.39-.47,6.62-.35,1.87.11,3.73-.03,5.61.23,1.5.21,3.06.02,4.59.08.48.04.95.32,1.43.49.69,0,1.35.18,2,.39.65.22,1.31.42,1.98.53,1.36.22,2.68.19,4.05-.21,3.87-1.12,3.88-1.02,8.09-.59,1.1.11,1.93.62,2.79,1.18,2.4.04,4.79-.16,7.19-.22.3-.37.6-.74.89-1.1,0-.09,0-.17.02-.25,0-.06.01-.11.02-.16,0-.05.02-.1.03-.15.08-.25.2-.46.41-.61.05-.04.1-.07.16-.1.1-.06.21-.11.34-.14.77-.2,1.52-.45,2.28-.68-.06-.3-.12-.59-.2-.88-.47-.18-1-.26-1.41-.53-1.05-.71-2.22-.84-3.42-.74-.84.07-1.67.27-2.49.47-1.76.47-3.35-.1-4.96-.66-1.33-1.16-3-1.52-4.63-1.94-.44-.12-.51-.38-.36-.81.17-.5.42-.91.91-1.15.92-.45,1.87-.81,2.88-1,1.36-.25,2.55-.91,3.74-1.57.19-.11.36-.25.53-.4.02-.01.04-.03.06-.05.13-.11.26-.22.39-.31.05-.04.1-.07.14-.09.06-.04.12-.08.18-.1.11-.07.24-.11.37-.14.31-.16.6-.41.92-.44.85-.12,1.71-.23,2.57-.22,1.71.05,3.42.18,5.08-.47.46-.18,1.01-.16,1.53-.17,1.2-.05,2.4-.05,3.61-.11,2.08-.07,4.09-.44,5.86-1.68.1-.07.2-.12.32-.16.08-.03.17-.06.26-.08.1-.02.2-.03.3-.03.09,0,.17,0,.26.03.12.02.23.05.34.1.58.24,1.13.31,1.66.2.12-.02.25-.06.37-.1.1-.04.21-.08.31-.14.1-.04.21-.1.31-.17.08-.04.17-.1.25-.16.55-.39,1.07-.84,1.76-1.02.37-.1.66-.05.99.14.09.05.18.1.27.16.06.04.11.08.16.13.07.05.13.1.18.15.06.06.12.12.18.19.06.06.12.13.18.2.16.19.3.4.45.61.51.05,1.03.18,1.52.12,2.02-.24,4.04-.55,6.05-.84.19-.03.38-.06.56-.09.13-.02.26-.04.39-.07.19-.04.37-.08.55-.14,2.65-.92,5.33-.84,8.05-.36.3.06.66-.05.96-.17.38-.15.55-.44.47-.69-.01-.03-.02-.06-.04-.09-.11-.31-.34-.54-.61-.6-.33-.07-.68-.12-1.01-.07-.84.13-1.67.31-2.5.44-.68.11-1.36.06-2.03-.08-.51.08-1.08.27-1.5-.03-1.32-.92-2.8-1.28-4.35-1.33-1.7-.06-3.43-.44-5.08.31-1.02,0-2.06.22-3.07-.06-.86-.24-1.7-.15-2.55,0-1.34.24-2.69.49-4.04.67-.29.02-.73-.14-.92-.36-.32-.38-.48-.9-.74-1.34-.37-.61-.91-1-1.66-1.02-.17-.01-.34-.02-.51-.03-.57-.04-1.02-.37-1.12-.87-.23-1.2-1.09-1.75-2.09-1.99-1.18-.28-2.28-.75-3.42-1.12-.67-.2-1.24-.58-1.77-1.02-.27-.23-.53-.44-.76-.69-.71-.79-1.57-1.29-2.58-1.61-.63-.21-1.2-.67-1.74-1.07-.25-.19-.36-.55-.54-.85.26-.6.55-1.22,1.08-1.62.89-.64,2.05-.86,1.91-1.89.26-.15.75-1.3,1-1.47.89-.6.32-.93-.22-2.04-.17-.35-.16-.67.09-.88.83-.76,1.86-1.35,2.36-2.42.67-.18,1.32-.38,1.99-.51,1.02-.2,2.04-.37,3.06-.49.5-.05,1.05,0,1.54.13,1.66.53,3.34.8,5.09.8.68,0,1.41.06,2.04.29,1.64.59,3.39.69,5.04,1.15,1.35.38,2.69.6,4.09.44.5-.05,1.02.1,1.53.13,1.88.18,3.74.62,5.64.65.85.02,1.7.28,2.55.41.29.04.58.11.87.16h.01c.18.03.36.06.54.08.05,0,.1.02.15.02.11.01.23.02.34.02h.13c2.43-.06,4.83.19,7.24.32,2.24.12,4.48-.1,6.72-.26,1.78-.12,3.38-.48,4.74-1.72.49-.46,1.16-.74,1.77-1.05.3-.14.67-.26.98-.21,1.19.17,2.39.34,3.51.84,2.38,1.08,4.88,1.67,7.47,1.98,1.54.2,3.06.63,4.61.68,2.13.06,4.06.75,5.96,1.55,1.14.47,2.28.75,3.5.79.86.05,1.73.09,2.58.2,4.14.53,8.25.42,12.38-.22.62-.1,1.24-.19,1.87-.27.35-.05.71-.1,1.07-.14l.85,6.7.47,2.44h.1l2.63,2.25-1.6,2.95,2.91.24-4.51,6.2-5.07,4.51.19,5.25,3.57,3.76,5.44.94,6.39,2.25Z" style="fill: none; stroke: #000; stroke-miterlimit: 10;"/>
</svg>