<?xml version="1.0" encoding="UTF-8"?>
<svg id="a" data-name="Pfade" xmlns="http://www.w3.org/2000/svg" width="1920" height="1080" viewBox="0 0 1920 1080">
  <path d="M531.94,511.68s.01.01.02.01h-.02ZM531.95,511.62s.02,0,0,0h0ZM532.53,512.73h-.02.02ZM532.52,512.99h.01s-.01,0-.01,0h0ZM533.7,515.39v-.02s-.01.02,0,.02ZM534.33,506.24s-.01-.02-.02-.02v.02h.02ZM535.56,505.01h-.01v.02h.02v-.02ZM535.78,497.76s.02.02.02.03c.03-.01.01-.03-.02-.03ZM537.7,544.21s.08-.06.12-.09c-.04.02-.08.05-.12.08h0ZM537.92,544.11v-.05s0,.05,0,.05h0ZM537.94,544.06s.02,0,.03-.02c-.01,0-.03,0-.04.02h.01ZM538,544.04l-.03.04h.01l.02-.04ZM538.3,541.3c-.01.06.02.1.05.12-.03-.03-.02-.09-.03-.12h-.02ZM538.4,541.32s-.03,0-.03.02h0s.01-.02.02-.02ZM601.94,628.29h-3.16c.02-.6.08-1.11.2-1.5.15-.44.35-.77.6-.97.25-.21.53-.31.85-.31.49,0,.86.24,1.12.72.26.49.39,1.17.39,2.06ZM601.94,628.29h-3.16c.02-.6.08-1.11.2-1.5.15-.44.35-.77.6-.97.25-.21.53-.31.85-.31.49,0,.86.24,1.12.72.26.49.39,1.17.39,2.06ZM857.22,438.87c-1.65.26-2.86,2.26-4.22,3.19-1.76,1.56-3.58,3.18-5.35,4.74-1.64,1.46-3.34,2.95-4.97,4.42-1.47,1.43-3.71,2.9-4.63,4.77-.01,0-.13-.06-.14-.06l-.04.06c-.17-.05-.2.18-.23.3-.18.12-.56.27-.74.38-1.81.96-3.26,2.91-5.07,3.95-1.82,1.81-4.93,1.54-7.27,2.09-3.14.45-7.66,1.14-10.76,1.61-1.28.21-2.77.43-4.05.64-.73.75-1.28,1.84-1.9,2.69-.95,1.4-1.88,2.86-2.83,4.25-.16.26-.38.56-.53.8-.12.13.02.19.07.28.01,0,0,.02,0,.03-.05.02.02.07.02.11.06.05.18.02.17.13.03.19-.02.47-.27.45-.09.01-.13.15-.18.22-.06.03-.13.13-.1.2-.31.48-.26,1.4-.22,2.01-.28,2.45-.46,4.94-.82,7.38-.14.99-.27,2.07-.42,3.05-.06.34-.13.83-.17,1.17l.63,1.21c1.24,2.41,3.75,7.04,4.95,9.41.11,1.4.21,3.54.32,4.95.13,1.8.21,3.97.3,5.77-.82,1.01-2.03,2.51-2.85,3.5.72.38-1.96,2.99-2.03,3.33.12.24-.91,1.29-1.01,1.48-.41,1.41-.27,2.3.63,3.49-.68,2.15-1.57,4.51-2.04,6.71-.39,2.1-.83,4.68-.68,6.81.09,1.46.27,3.21-.04,4.67.16.85.64,2.03.12,2.84.25.6.18,1.81.09,2.42,0,.56.07,1.54.4,2.01.09.41-.07.63-.18.98.01.35.26.85.4,1.15-.05.53-.26,1.67-.36,2.18-1.66,1.89-3.57,4.2-5.2,6.11-1.65,3.3-3.65,6.92-5.23,10.25l-.08-.05c-.17.15-.42.32-.56.5v.02c-.45.55-1.05,1.12-1.21,1.84-.02-.02-.04,0-.05.02-5.32,1.16-11.14,2.82-16.54,4.04-10.58,5.26-21.75,10.85-32.27,16.21-15.71,7.79-31.27,15.95-46.88,23.92-3.79,2.05-7.72,3.99-11.52,6.04l.02.05c-3.11,1.74-8.37,4.78-11.7,6.33-2.08.91-6.84,3.88-9.15,3.88-.27-.03-.77,1.01-.88,1.18-1.1.64-3.11,1.77-4.25,2.36-2.16.95-4.37,2.35-6.48,3.44-3.69,2.06-7.64,4.01-11.3,6.13-.5.38-1.19-.06-1.67-.26-1.55-.16-3.77-.15-4.82,1.22.64.75.19,1.76.07,2.59-.28,1.13-.43,2.42-1.47,3.15-1.5.02-2.58.84-4.07.89-1.32-.07-3.15.56-4.47.51-.19.8-1.68.4-2.27.77-.32.63-1.01,1.25-1.72,1.37-.34.9-1.19,1.82-2.02,2.29-.18.48-.64,1.38-.97,1.77-1.37.38-2.72.72-3.17,2.29-.34-.12-1.06-.32-1.43-.21-.24.14-.51.38-.82.32-.54-.56-1.59-.22-2.26-.34-.78-.72-2.1.35-3.01.37-.63.77-1.33,1.55-2.21,2.04-1.39,1.57-2.86,3.43-4.76,4.29-.94-.11-2.21.35-3.11.09-.3-.06-.53-.4-.63-.66-.25-.11-.44.03-.61.22l-.68-.22-3.46,4.2c-.32,1.11-1.6,1.82-2.63,2.12-1.1-.27-2.67-.57-3.81-.46-.98-.37-1.87.68-2.74.09-.04-.16-.44-.3-.55-.35-.03-.1-.08-.37-.2-.42-1.54-.32-3.81-.74-5.39-.72-1.07-.29-2.66-.34-3.73-.49-.4-.13-.61-.34-1.13-.51-.62-.23-1.57-.07-2.14-.17-.53-.24-1.64.05-1.91-.56-1.24-.37-2.02-1.73-3.14-2.36-1.29-1.46-3.19-2.24-4.76-3.31-.25.27-.85.33-1.24.25-.03-.17-.21-.49-.31-.63.01-.33.21-1-.27-1.09v.14c-.14-.09-.39.16-.49.22-.38.18-.95.17-1.31.39-.13-.11-.26-.31-.35-.45-1.27-.13-2.58.15-3.8.51.02-.38-.27-.9.01-1.21.11-.33-.27-.42-.33-.74.04-1.36-1.55-1.62-2.29-2.41-.22-.84.39-1.97-.09-2.74l-.07-.03c-.24.13-.71-.12-.98-.13-.51.07-1.22.05-1.73-.05v-.09c-.27.04-.43-.38-.58-.57-.15-.14-.4-.25-.46-.47-.03-.11.1-.2.08-.31-.01-.25-.2-.23-.38-.24v-.11s-.11.01-.15-.06c.09-.1.04-.32.13-.41-.23-.1-.07-.51-.28-.61-.1.12-.27-.08-.42-.08-.09.12-.13.11-.28.03-.03.11.11.19-.11.17-.14-.02-.16-.18-.27-.24-.09.08-.24.16-.35.2-.06-.07.03-.14.04-.22-.16-.02-.16.23-.27.3-.28-.01-.53.12-.78.18-.33-.1-.26-.61-.43-.82-.25-.11-.51-.13-.77-.03-.1.03-.24-.03-.29.1.12.07.25.25.01.2-.17-.06-.37-.46-.56-.26-.29.5-.7-.21-1.06-.22-.2-.02-.75.05-.54-.29-.18-.13-.23.45-.45.19-.05-.07,0-.19-.08-.24-.11,0-.23-.03-.26-.16.15-.22.52-.06.22-.46-.21-.18-.39.27-.59.33-.48.1-.98.03-1.46.13.46-.44,1.41-1.88,2.15-1.83.34-.54,1.12-1.58,1.59-2.01.51-.45.7-1.66.58-2.3.3-1.51,1.52-2.6,2.48-3.67-.33-.73-1.22-1.44-1.21-2.28-.27-1.75-.69-3.69-.98-5.44-.5-.07-1.18-.33-1.64-.53-.09-1.01.88-1.86,1.35-2.68-.22-1-.3-1.39-1.34-1.74-.21-.83.29-2.2-.71-2.59-.38-.17-1.13-.58-1.24-1.02.39-.64,1.26-1.42,1.75-1.98-.44-.22-1.5-.75-1.95-.91.53-.39,1.22-1.01,1.82-1.24.55-.59.19-1.8.95-2.28.85-.48,1.81-.72,2.69-1.12.67-.42,1.28-1.08,2.02-1.52,3.54-2.44-.86-2.59,1.28-3.57.2-.1.48-.13.69-.2.1-.1.25-.22.4-.23.36-.02.71.3,1.07.22.33-.09.62-.37.95-.44.27-.02.59,0,.81-.2.32-.24.53-.62.81-.9.3-.22.61-.51.63-.9-.4-.23-.79.2-1.28-.1v-.17c-.67.02-.43-.9-.95-1.09-.16-.15-.49-.13-.71-.16-.21-.09-.41-.13-.6.04-.39-.15-.99-.69-.77-1.16-.46-.12-.88.35-1.35.2-1.08-.51-.42-1.29.31-1.73.05-.04.34-.32.4-.33.1,0,.27,0,.33-.1.53-.57-.31-1.5.34-1.96.43-.18.9-.41,1.08-.88h-.02c.18-.6.69-1.02,1.07-1.49.54-.34.81.32,1.22-.6.38-.48.78-1.02.96-1.62.43-.91.67-.72,1.35-.23.28-.05.6-.16.8-.36.16-.18.28-.49.55-.52.34-.06.77,0,1.09-.12.26-.19.39-.56.67-.75.55-.27.74.54,1.07.81.33.14.73.2,1.08.25.24.08.55-.1.95-.13.12-.33.54-.26.81-.33.37-.19.36-1.22,1.09-.65.24.2.54-.08.82.04.37.11.54.71.92.71.18-.05.36-.16.55-.14.55.14,1,.68,1.62.55.62.17,1.24.22,1.85,0,.48.07.76.37,1.2-.05-.06-.16-.27-.41-.32-.57.14-.39-.03-.82-.47-.92-.25-.03-.45-.24-.53-.48-.36-.64-1.19-.26-1.76-.2-.62.1-.79-.61-1.2-.92-.39-.32-1.03-.3-1.35-.7.11-.6.78-.94,1.04-1.48.21-.51.57-.95.96-1.33.25-.48.7-.83,1.1-1.19.49-.49,1.21-.71,1.76-1.13.33-.18.43-.65.69-.86.99-.03.06-.88.74-.89.39.12.69-.13.95-.38.51-.24.82.3,1.22.49.4.02.87.07,1.21-.19.14-.21.44-.3.68-.33.08-.17.22-.27.41-.17.75-.22.15-1.43.5-1.91.34-.43,1.04-.44,1.25-1.01.25-.67,1.02-.42,1.49-.71.23-.21.13-.95.41-1.09.85-.1.65-1.16,1.11-1.59.19.02.32-.09.41-.25.33.07.8.01.92-.37-.19-.18-.49-.36-.66-.56-.23-.25-.4-.63-.81-.57-.29-.21-.3-.91-.39-1.23-.15-.38-.34-.83-.32-1.25.36-.51,1.42-.79.98-1.57-.22-.44-.7-.27-1.09-.27-.21-.26-.57-.06-.8-.26-.26-.15-.08-.78-.35-.9-.51-.13-.57-.86-.8-1.24-1.23-1.21,2.06-1.58.62-3.05-.22-.19-.57-.12-.81-.24-.04-.1-.11-.39-.27-.36l-.03.31c-.27.08-.49-.68-.6-.12-.05.07-.08,0-.09-.06-.02,0-.08.02-.08-.02h.06s.01-.06.01-.07c-.03-.04-.08-.07-.12-.09,0-.03.03-.06.05-.06-.02-.03-.08-.03-.11,0h0s-.02.07-.06.06c0-.02,0-.06.02-.07v-.02s.01,0,.02,0c.04-.07.15-.04.18-.13-.09-.07-.22-.17-.28-.27-.2-.04-.42.11-.61-.03-.18-.14-.37-.44-.62-.4h.01s-.03-.03-.04-.02c-.01-.03-.07-.04-.08-.08-.06,0-.21.05-.24-.02-.15-.05-.14.03-.25.01-.03-.04-.04-.08-.08-.03-.04,0-.02-.1-.06-.1-.15.06-.24-.06-.25-.18-.1-.04-.06-.18-.11-.24-.04-.04.05-.11-.01-.15-.12-.81-.83.47-.7-1.51-.27-.12-.94.25-1.2.27-.31-.19-.62-.04-.96-.05-.39-.02-.72-.23-1.08-.34-.99.55-1.63.69-2.03-.59h.02c-.01-.5.59-.62.95-.79.72-.36,1.6-.63,2.2-1.17.14-.36-.04-.72-.17-1.04.05-.1.19-.26.29-.31-.02-.37.17-.84.19-1.2.59-.2,1.07.36,1.36.8.27.14.65.29.82-.05.06-.57.34-1.34.29-1.91-.39-.08-.74.28-1.09.39-.31.18-.68.06-1,.07-.26-.16-.61-.26-.91-.31-.2.03-.43.09-.61-.03-.22.03-.59-.32-.77-.46-.27.07-.33-.32-.55-.27.04-.13-.12-.29-.21-.37.04-.13-.1-.18-.19-.22-.18-.24.03-.22,0-.46,0-.03-.04-.07-.06-.09.06-.06.14-.13.22-.14.01-.09.07-.18-.03-.24h0s-.01-.04-.01-.04c.01,0,.04.01.05,0-.03-.03.01-.04.03-.04,0-.01-.02-.04-.02-.04.04-.02.01-.06.04-.08-.01-.02-.03-.04-.06-.03-.03-.08-.11-.03-.16-.03-.06-.03-.13-.06-.19-.11-.04,0-.05-.04-.06-.07-.09-.08-.16-.11-.27-.04l-.05-.06.02-.02-.02-.09c-.08,0-.19.01-.27,0v.03c-.08.04-.24,0-.25.11-.04.02-.1-.02-.14,0-.05-.02-.1,0-.15,0-.08-.05-.16-.02-.19.07.01.01,0,.04,0,.05-.04,0-.12.03-.15.07.04.02.02.08-.01.1-.07-.04-.16,0-.24,0-.06.03-.01.12-.07.15-.01.04-.12.06-.06.11-.11.05-.07.17-.11.25,0,.1-.12.14-.17.22v-.03h-.01c-.01.26.18.45.28.67-.02.05-.13.06-.17.13-.01.11-.02.22-.06.32-.12.18-.12.29-.28.34-.04.08.01.21-.11.24-.19-.05-.25.13-.39.2-.1-.07-.18-.19-.31-.08-.08.11-.22.26-.3.09-.19-.03-.32.07-.46.15-.12.02-.1-.14-.19-.17-.13-.04-.21.05-.31-.11-.19-.04-.48.05-.57-.18-.1-.03-.08.2-.19.23-.33-.12-.13-.01-.15.18-.16.11-.62-.33-.52.1-.18.02-.24-.27-.44-.24-.09-.03-.23.03-.33-.02-.12-.07-.23-.23-.38-.25-.12-.05-.27-.07-.38,0-.2-.14-.37,0-.56.03-.13.03-.29.06-.39.15.01.07-.01.11-.06.17-.28.11-.48-.21-.72-.24-.17,0-.56.11-.64-.07-.1-.02-.25-.05-.33.04-.09-.04-.2-.1-.26-.2-.14-.07-.38.03-.39-.19-.27,0-.36.09-.55.27-.04.03-.06.16-.12.17-.05-.02-.12-.01-.18,0-.14.03-.31-.19-.44-.05-.05.01-.07-.05-.06-.09-.05-.02-.09-.01-.13,0-.04.05,0,.08.02.12.05.12-.29.02-.13.13-.04.04-.1.1-.15.1.04-.06-.04-.12-.05-.05-.02.03-.09-.01-.06.05-.16-.1-.16-.18-.37-.12v.04c-.07.03-.08,0-.04-.06-.02-.04-.06-.06-.05-.11-.14-.05-.17.19-.21.27-.21.07-.09-.04-.14-.15-.07-.08-.22-.11-.32-.1-.06,0-.02.15-.08.1-.07-.09.07-.27-.17-.19-.05.02-.06.12-.12.14-.08-.05-.16,0-.24.03-.12.12.02.29-.23.16-.07-.02-.14-.08-.21-.04-.05.04-.06.04-.1-.01-.11-.02-.23.1-.31.04-.05.01-.06.06-.09.08-.05,0-.11,0-.12-.06.03-.04.14-.05.09-.12-.11-.02-.19.09-.3.06-.06-.02-.08-.1-.15-.09-.05-.04-.04-.13-.08-.17-.05-.01-.11-.07-.15-.01-.1-.03-.19-.09-.29-.12-.14-.04-.24-.22-.38-.19-.16-.05.02-.1.05-.16-.01-.08-.17.03-.24,0-.06.05-.14.06-.22.08-.06.02-.16.07-.21,0-.12-.2-.03.08-.14.02-.1-.01-.1-.12-.09-.2.07-.04.13-.17.02-.18-.05.02-.09.05-.14.06-.02.03-.01.08-.07.05-.04-.02-.24-.12-.26-.04,0,.07.07.13.04.21-.05.09-.18-.01-.25.05-.05.07.04.16.03.24.05.12.13.24-.06.26-.45-1.25-1.06-2.51-1.53-3.75-.31-.57-.6-1.19-.72-1.84.1-.01.1-.14.08-.22h-.01c-.02-.07-.04-.19-.11-.21.09-.11.16-.1.1-.27-.02-.23-.04-.49-.09-.71-.26-.8-.73-1.62-1.15-2.37-.33-.57-.5-1.24-.88-1.8-.09-.07-.13-.39-.26-.31h0s.03-.02.03-.02l-.02-.05c-.06,0-.11-.02-.11-.08.02-.02.03,0,.03.03.1.03.14-.14.05-.17v-.02s-.08,0-.12,0v-.04c.09-.01.06-.11-.02-.09h0c.12,0,.08-.08.03-.13.04-.02,0-.05-.01-.07.03-.03-.02-.05-.02-.07.03-.03-.02-.04-.03-.06.03-.03-.04-.06-.04-.13,0-.03-.11-.04-.07-.05.01-.02-.03-.07-.02-.09h-.01s.01-.02.01-.02v-.02s0,0,0,0c0,0,.01.02.02.02s.02-.01.02-.02c0-.02-.02-.02-.02-.03-.01-.03-.03.01-.04.01v-.06s-.05-.07-.08-.11c-.03.03-.11-.01-.11-.05.12,0,.06-.07-.03-.05,0-.02.01-.05.03-.06-.03-.04-.1-.07-.15-.08.04-.09.21.03.2-.09h0v-.03s-.1-.04-.1-.04l.03-.02v-.02s-.15.04-.15.04h0s.14-.05.14-.05l-.02-.03.16-.04-.02-.03-.41.1v-.08s.33-.08.38-.1l-.02-.06-.11.03h-.01s-.33.08-.33.08c-.03-.14.22-.13.32-.17v-.02s-.01-.05-.02-.04h-.01s-.29.07-.33.07c.02-.1.21-.12.29-.14l.19-.05-.02-.07h.03s-.01-.04-.01-.04c-.04,0-.1.03-.15.03.34-.09.63-.16.5-.69.06-.15.01-.36-.02-.52-.04-.19.07-.43,0-.61h0s-.02-.05-.02-.05h-.07s0,0,0,0h.06s-.04-.16-.1-.16h.05c-.01-.08-.01-.23-.1-.26-.01-.08-.02-.19-.1-.21,0,0,.04.01.04.01l.02-.02s-.07-.02-.1-.04c0,0,0,0,.03,0v-.05h.02v.05c.07.05.14,0,.13-.08h-.02s.02-.03.02-.05h-.01c.02-.19.1-.41.09-.59h.01c.05-.13-.02-.28,0-.42.05,0,.13-.09.09-.12.18-.04.37-.21.53-.34h-.01c.09.01.22-.12.21-.22.28-.11.14-.52.1-.75.02-.16-.02-.34-.1-.47.02-.02.06,0,.08,0v-.02s-.04,0-.04,0c-.02-.17-.1-.41-.13-.58-.04-.15-.21-.32-.19-.5-.12-.12-.18-.3-.15-.47-.03-.04-.04-.22.01-.25.12-.33.41-.59.25-.98.05-.27-.15-.31-.11-.48-.14-.11-.1-.36-.06-.54.02-.05.11-.07.18-.14.1.03.11-.12.1-.19.01-.06.07-.1.08-.15h.02s0-.02-.02-.02c.01-.02.01-.05-.01-.06.02-.02.05-.05.08-.06h-.01s.04-.01.05-.02c.06.04.17.1.22,0,.05,0,.12,0,.15-.05.09-.1.03-.29.14-.35v-.02h-.01c-.06-.12.07-.11.05-.23.05-.05.15-.06.12-.17.05-.01.01-.1.07-.12-.02-.07.04-.12.04-.17.02-.07.15-.06.1-.15.05-.01.13-.01.08-.08.04-.07-.03-.08-.04-.13h.01c.03.08.07-.02.01-.03.08-.03.16-.07.24,0,.09,0,.15-.13.13-.21.05,0,.06-.06.09-.08.07-.01.11-.13.06-.19-.03-.15-.06-.41-.13-.54.02-.04-.02-.06-.03-.1.03-.05.15,0,.11-.12.15-.23.43-.36.71-.43-.1-.1,0-.21.11-.22-.07.07-.2.1-.09.21l.04-.02s.09-.02.1-.04h-.06v-.02s.06.01.06.01v-.02h-.05v-.02c.11,0,.03-.04-.01-.06.06.02.1,0,.15-.02h0c.6-.07.36-.87.21-1.27h-.11s.08-.01.12-.01v-.08h-.04s.04-.02.05-.03c0-.07-.02-.16-.04-.23-.03,0-.11-.02-.14-.03,0-.02.07,0,.07,0v-.05s.01,0,.01,0c.01.03.02.07.06.06l-.03-.13h0s0-.11-.04-.14h.01c-.16-.26-.27-.64-.46-.9h0s0-.02,0-.02c0-.03-.11-.23-.14-.24.02-.05-.15-.08-.09-.15-.03-.05-.09-.09-.13-.09h0c.23-.09-.14-.48-.3-.36.02.03.01.07-.04.05,0,0,0-.02.01-.03-.04,0-.08-.09-.02-.08.08-.01.01-.05-.04-.06v-.07s.02,0,.03,0c.04-.08-.07,0-.05-.11-.04-.19-.14-.34-.17-.53.06-.04,0-.17.03-.24.06-.02.06-.13.02-.17.06-.03-.04-.09,0-.13.08.02.08-.08.05-.13.01,0,.02,0,.03,0,.02.03.04-.02.04-.04-.04-.01-.04,0-.06-.03l.03-.03c-.07-.05-.04-.21-.12-.24-.03-.06-.04-.15.03-.19.04.09.17-.04.05-.05,0,0,0-.02-.01-.02-.01.02-.02.02-.03.01h-.02s-.02-.06,0-.09c.11.01.2-.05.04-.09-.03.07-.05-.04-.09-.03-.05-.08-.01-.18-.01-.27.01-.02.05.01.04-.03-.01,0-.03-.01-.02-.02.04.02.08-.03.03-.05,0,0-.01,0-.02.02,0-.03.02-.09.07-.07h0c-.05.01-.06-.06-.1-.06.06-.18.02-.07,0-.22.02-.06-.04-.2.02-.21.06.04.18.11.25.08,0-.01.01-.01.01-.02-.05.03-.11-.03-.15-.02.04-.07.07-.18-.07-.16-.07-.02-.08-.19-.05-.24h-.03s.01-.15.03-.17c-.07-.03.02-.12-.01-.16h-.02s0-.01,0-.02h.03s-.01-.02-.01-.02c0,0-.02,0-.02,0v-.02h.03s.02-.06.03-.08h-.02s.1,0,.13-.03c0,0-.01-.03-.01-.03-.19.03-.09-.3-.18-.3.01-.03.06-.02.08-.02h0s-.04-.01-.04-.01c-.03-.04,0-.08.01-.12-.01,0-.03,0-.03,0v-.03s0-.1.04-.12c-.01,0-.03-.03-.02-.04-.05,0-.11-.03-.09-.09h.02c-.02.07.09.09.14.08v-.03h-.02s-.01.01-.01.01c-.03,0-.05-.03-.06-.05,0,0-.02.01-.03.01,0-.02.03-.03.04-.04.04-.37-.16-.43-.05-.68-.06-.03-.08-.2.02-.19.1.04.11-.04.12-.11-.04-.02-.02-.07-.06-.09h.02s-.08-.05-.08-.02c-.04-.05.03-.06.07-.07.04-.05-.03-.11-.08-.11-.01,0-.01-.04-.01-.05l.07-.02c-.14-.04-.14-.07-.17-.22l.02-.02c-.02-.06.05-.04.08-.05h0s-.06-.03-.09-.02c-.03-.04.01-.12-.02-.15.02-.05-.04-.09-.04-.14h.02l.02.03.03-.02-.03-.05s-.02.02-.02.03h-.01c-.02-.13-.09-.29-.14-.41-.06-.03-.12-.22-.03-.24.03.07.11.02.15,0-.09-.5-.68-.93-1.05-1.28-1.33-1.22-2.94-2.33-4.54-3.13h0s-.09-.04-.13-.05h-.03c-.15-.03-.34-.07-.51-.07h-.01c-.05.02-.19,0-.19.07-.02.03-.03.07-.04.11h-.01s.01.05.01.07c-.01,0-.03,0-.02.01-.01,0-.02,0-.02.02-.01,0-.03.02-.01.03,0,.01,0,.03.01.03,0,.02.02.05,0,.06h0s-.02,0-.02,0h0s-.03,0-.03,0c0,.02,0,.03-.02.05-.01,0-.01.03-.02.04t-.01-.01s-.03.04-.06.04v-.02h-.01s-.02-.02-.04-.02c0,0-.01-.02-.01-.02-.01.02-.03,0-.02-.02,0,0-.02-.03,0-.04h0s-.01-.02-.01-.02h0s-.04,0-.05-.03c0,0-.01,0-.01,0h0s-.02-.02-.03-.03c-.01,0-.04-.03-.04-.04-.01,0-.02,0-.03,0h0s-.01-.01-.01-.01c0,0,0-.02-.01-.02h-.01s-.01,0-.01-.02c-.06-.04-.13-.11-.21-.11h0s-.01.01-.01.01c0-.01-.03-.02-.04-.03h0s-.06-.04-.07-.02c0,.01,0-.02-.03,0-.01-.01-.02-.01-.02,0-.01,0-.04,0-.06,0,.01,0,.01-.01.01-.01,0-.02-.05-.04-.04-.06l-.06-.03s.05-.07.06-.08h-.01c.05-.07.13-.18.17-.25l.12.06s-.03.07-.03.08l.04.02.02-.06.09.02.05-.11c-.27.02-.24-.12-.14-.32h-.03c.03-.09.09-.24.12-.32-.01-.01-.03-.03-.05-.04-.04.03-.14.1-.18.13v-.02s-.02-.06-.04-.08c.28-.2.53-.35.13-.61-.11,0-.23.1-.31-.05,0-.06.06.04.08.05.04.05.1,0,.15,0,0,0-.06-.09-.06-.1.12-.12-.1-.1-.1.03h-.01s.04-.11.06-.13c-.09-.03-.19-.14-.29-.1,0,.07-.05.07-.07.12-.03-.01-.04-.05-.08-.05,0,0,.04-.02.05-.03,0-.05-.03-.1-.08-.06,0,.02,0,.05-.03.05h-.01v-.03s-.05.01-.05.01v.03h.02c.04.13-.15-.16-.01-.11h-.01c.03.06.14-.06.05-.05-.01-.05.08-.02.08,0,.11.06.04-.08.07-.07t.01-.02s-.06-.06-.09-.07h-.04s.01.03.01.03h-.01s-.01.01-.01.01v-.02s-.03.02-.03.02h0s-.01,0-.01,0c-.01-.01-.03,0-.03.02s0,0,.01.02h0s-.04-.03-.05-.03c-.06.03-.13-.08-.19-.12-.03-.05-.11-.02-.13-.05-.07-.02-.1-.15-.12-.06h-.02s.02-.04.02-.05c-.12-.12-.14.03-.26-.04v-.02c.21-.11-.07-.23-.14-.15.05.08-.08.02-.1,0h.01s-.01-.01-.01-.01c-.03-.19.33-.21.3-.34.06,0,.11-.05.09-.12-.02-.02-.12-.05-.05-.09h.01c-.06.08.08.08.11.02h.01s-.01-.04-.01-.05h.01s.16,0,.15-.07v-.04c0-.13-.12-.31-.24-.36-.02-.02-.07-.07-.09-.04h0s-.08-.06-.12-.04h0s-.09,0-.09.03c-.08,0-.15.07-.23.08h0s-.07.02-.09.03c-.16.03-.13,0-.21.11,0-.01,0-.04.01-.05-.07-.03-.18.18-.18-.01.07-.16-.08-.05-.13-.11.04-.02.06-.05.1-.08,0-.05-.09-.06-.06,0h-.02l-.07-.1.03-.02c.04.06.12.07.17.04l-.02-.03c.05-.02.3.13.26.02h0c.03.09.22.05.22-.04-.01,0-.04.03-.06.02h0c.11-.06.15-.09.26-.11.13-.09.24-.16.38-.22.04.04-.02.06-.01.1.05.1.18.12.28.1.08.02.31-.09.2-.17.01,0,.01-.01,0-.02,0-.02,0-.03,0-.03.03,0,.05-.02.08-.02.01.01.05.03.06.01.01.02.03.04.05.04.04.17.29-.1.12-.21.04,0,.14.06.14-.01-.07,0,0-.03-.04-.07-.01.02-.03.03-.05.02.07-.07.13-.36.24-.25,0,0-.03-.04-.03-.06-.01-.01-.03,0-.04-.01.02-.08.07-.17.08-.26.14.07.19-.06.31-.1-.04.03-.12.08-.16.13h.02s.05.02.06.03v.05h.04s0-.03,0-.05c.01,0,.04,0,.04.03.07.15.4-.02.24-.13.09-.02.03-.09-.01-.13h.01c-.15.02-.2-.28-.03-.23v.02s.09.03.14,0v-.03c.05-.02.13-.15.1-.21h.01s.03-.08-.01-.12c.03-.03.15-.04.12-.11.02,0,.06.01.07,0h-.02c.02-.08.01-.1-.05-.12.12,0,.25-.25.06-.19,0-.03-.02-.07-.04-.1.01-.06-.12-.02-.1-.17h-.02c.01-.06-.02-.14,0-.19h0c-.05-.03-.03-.09-.03-.13h-.01s0-.04.02-.06c-.02,0-.02-.01-.02-.02,0,0-.01-.01-.01-.02.02-.16-.15-.26-.25-.38-.09-.03-.16,0-.27-.07-.01-.08.19-.43.02-.38h-.03c-.02-.26.15-.49.35-.63.08-.06.16-.1.24-.14.08-.09.16-.02.26-.04v-.03c.06-.01.12,0,.16,0,0-.03-.03-.05-.05-.06.03,0,.09-.04.13-.02h-.02v.02h-.04c-.01.05.04.07.07.06.01-.04.05-.04.08-.02.03-.06.12-.01.14-.09h.02s-.01-.03-.01-.03c0,0,.03.01.02,0h-.01s-.02-.02,0-.02c.01-.04.03,0,.04.02.02,0,.04,0,.06-.01,0,.03.07,0,.08-.03h-.01s.02-.04.02-.04h.02s0-.01,0-.01h-.01s.06,0,.07-.05c0,0-.02,0-.02-.02h.01s-.02-.08-.05-.12c.02-.02.04-.05.05-.08.01,0,.04.02.04-.01h.04s.01,0,.01,0h0c.05-.03.06-.1.11-.12v-.02c.09,0,.17,0,.04-.11.02-.02.03-.05.04-.07l-.02-.02s-.03-.02-.03-.05v-.03h.02v.02s.03-.01.05,0c.01-.02.04-.01.04-.04,0,0,.03-.01.04-.01h-.01s-.02-.02-.02-.02c.02-.07.07,0,.11-.04,0,0-.02-.02-.01-.03.02.01.05.02.07,0,0,0-.02,0-.01-.02.04.01.01-.02,0-.03,0-.01.01-.02.02-.01.04.07.1,0,.16.01.05,0,.13-.17.08-.18h-.01s.01-.02.01-.02c-.07-.07.07-.13.13-.14-.01-.04.05-.03.06-.06.02,0,.06.03.08.03l-.02-.03c.59.07.52-.59.59-1-.08-.11.07-.08.09-.15-.07-.12-.06-.11.07-.18.12-.04.3.05.36-.1.12-.34.01-.77-.1-1.06,0,0-.02-.02-.03,0,.03-.04-.03-.05-.06-.06,0-.02.03-.05.05-.07h-.03s0-.03.01-.03c-.01-.01-.03-.01-.04-.01v-.04s.04-.02.01-.04c.01,0,.03-.02.04-.03-.1-.17-.07-.12-.01-.27-.01-.06,0-.14-.06-.2.03-.07-.03-.11-.07-.17.05-.07-.07-.14-.05-.19-.05-.07-.05-.22-.16-.2-.01-.02.03-.06,0-.07v-.02s-.01,0-.01,0c0-.01,0-.03.01-.03-.03-.08-.16-.03-.2-.09h-.01s-.01,0-.01,0c.03-.02.1-.03.07-.09.02-.02.03-.05.06-.05-.01-.05-.07-.11-.01-.16-.04-.04-.1-.05-.15-.08.01-.05.1-.14-.01-.14-.06-.04,0-.16-.11-.17l.02-.02c-.03-.06-.11.02-.11-.06-.08,0-.12-.1-.21-.13,0-.06.12-.06.1-.11.09-.05.07-.13-.03-.13.02,0,.03-.05.06-.05-.1-.04.02-.17-.07-.19,0-.02.04-.09.05-.11-.13.04-.02-.09-.12-.09.01,0,.03-.02.04-.02-.01-.02-.04-.02-.05-.04.08-.1-.1-.06-.15-.07,0-.06-.06-.06-.08-.02.01-.03-.04,0-.05-.02-.01-.04-.05,0-.08-.02,0,0,.02-.02.02-.03-.02-.01-.04-.02-.06-.03.05-.08,0-.07,0-.15-.08-.01-.16-.03-.24-.05-.01-.03.02-.03.03-.06-.04-.02.05-.08.06-.11h-.01s.04-.05.02-.07c.02.01.04,0,.03-.03h-.02s0-.05.01-.07c-.01,0-.02,0-.03,0,.01-.01.09-.05.04-.07,0,0,.03,0,.03-.02-.01,0-.02,0-.02-.01.05-.09.04-.05.12-.12-.02-.14-.1-.07-.2-.1h-.01s-.16,0-.15-.06c-.05,0-.1,0-.13-.03h0s0-.02,0-.02c0,.03-.08,0-.07-.02h-.01s-.01.01-.01.01c-.02-.01-.04-.02-.03-.04-.01,0-.01-.01-.01-.02.04,0,.03-.04.07-.05-.01,0,0-.03.02-.03.03-.02.13.05.19.02,0-.01.03-.03.04-.02,0,0,0,0,0,.02.06,0,.14.1.12-.03.05,0,.08-.06.13-.03.03-.03.07-.07.11-.09.03.02.05.06.05.1h.02s0,0,0,0h.03c.01.07.14.15.2.11v-.02h.01s.01.04.01.05c.04.01.09.04.13.04.01.01.03.02.04,0,.02-.03.02-.06.04-.07.04,0,.09.06.13.07-.04.14.24.09.33.1h0c.23-.02.49,0,.7-.11.1-.06.19-.14.28-.22.1-.03.19-.08.27-.16.11-.07.21-.18.28-.29.03-.04.06,0,.09,0,.02,0,.06-.03.07,0,.54.18.94-1.31.9-1.68.06.02.11-.12.06-.16.03-.02.1-.03.09-.09.11.05.14-.1.15-.18.05-.08.12-.18.09-.28-.01-.07.08-.08.13-.12-.01-.11.12-.2.21-.24h0s.05,0,.06,0h.01s-.02.02-.02.03h.03s.05-.06.06-.02h.02s.06-.07.09-.03h.03s-.01-.04-.02-.04c.06-.02.24.02.21-.09,0-.02-.01-.02-.01-.02.01-.02.04-.04.06-.05h0s-.01-.01-.01-.01c-.02-.04.03-.06.06-.06.03-.1.18.09.22-.04.13.05.18.29.28.36.43.1.88-.19,1.24-.4.34-.05.38.04.45,0,.07.11.13.08.23.02.12-.05.24-.24.36-.23.15-.08.14.04.23-.09.03-.21.25-.21.44-.24.16.04.44-.06.52.09.06-.01.21-.1.24,0,.11-.08.26-.05.37-.11.25.62.82.87.31,1.39-.12.09-.13.21-.13.33h0s0,.04.02.05c-.17.2-.68.94-.53,1.21.29-.02,1.16-.11,1.44-.12.18.31.64.27.92.12.14.07.42.15.57.21.24.19.47.39.78.23.25-.13.58.13.76.28.24.09.71.07.96.15.18,0,.33.12.35.3.44.18.89.75,1.1,1.11-.01.05-.06.15.02.17-.06.23-.14.63.06.8.2.08.56.45.75.24-.04-.11.21-.1.27-.15-.02-.16.32-.15.08-.22-.09-.06.04-.15.07-.21-.08-.09.03-.1-.12-.15,0-.07.17-.02.22-.06.02-.08.14-.08.16-.15-.02-.09.05-.15.09-.21-.03-.12.06-.14.03-.27-.12-.19.09-.4-.13-.62.09-.19.24-.53.13-.74.27.04-.02-.44-.08-.56-.04-.09-.1-.23-.11-.32.07-.04.14-.14.14-.22h-.05c.06-.08.14-.21.09-.32.06-.02.01-.08-.01-.11.02-.06.1-.11.03-.18.08-.1.04-.22.02-.34-.06-.86.69-1.53,1.28-2.06.32-.17.71-.28,1.07-.31.54-.16,1.11-.34,1.68-.36.27.04.45.28.61.48.36.25.78.2,1.13-.05.8-.52.03-.55,0-1.1-.24-.22-.29-.61-.26-.9.04-.27-.11-.69.23-.76.16.05.31,0,.47-.02.2.15.47.22.7.29.41.2.65.68,1.07.8.36.04.72-.21,1.02-.38.34-.2.74-.39.95-.74-.31-.2.44-.43-.32-.39v-.03s.11,0,.14-.03c.02-.11.12-.1-.05-.2.09-.11.63-.22.3-.33,0-.09.14-.07.17-.15,0-.06-.1-.12-.01-.17.63,0,.57-.36-.01-.29-.03-.14-.17-.23.05-.25.09-.16.17.04.24-.04.16-.26-.31-.18-.37-.35.01-.03.08-.03.1-.03.06-.14-.21-.26,0-.38-.02-.09-.15-.16-.04-.26-.01-.02-.05-.04-.07-.05,0-.08.15-.21.23-.16.08.11.28-.05.13-.14.46-.12-.02-.46-.21-.61-.06-.12-.47-.56-.05-.45.11.04.08.24.22.24.14-.13.03-.53-.2-.53-.11,0-.04.25-.2.12-.12.03-.16-.14-.05-.18.08-.05.24.05.28-.04-.01-.34-.26-.05-.35-.14.17-.17-.18-.28-.21-.32.09-.13.4-.16.39.06.02,0,.06,0,.08-.02.02-.09-.05-.11-.08-.18.04-.2-.14-.17-.27-.1-.2-.02.09-.19.25-.19-.12-.12-.24-.13,0-.19.07-.14.22-.03.31-.08-.04-.05-.15-.05-.07-.12-.1-.09.04-.16.08-.23-.08-.15.09-.1.17-.13.02-.07-.16-.11-.08-.18.02,0,.08.02.1.03.04-.15-.01-.13-.13-.17-.05-.03-.08-.12-.15-.11-.23.21-.24.05-.33-.16.08-.04.29.04.22-.13-.06-.03-.15-.03-.19-.09-.1-.03-.22.05-.3-.08-.38.03.13-.41-.2-.36-.07,0-.06-.09,0-.1.06.03.14,0,.16-.06-.01-.25.12.02.18-.03.18-.18-.33-.31-.28-.47.08-.05.19-.02.23.06.05,0,.06-.09.1-.12.1,0,.11-.12.17-.16.05.09.17.1.19,0-.02-.05-.09-.15-.03-.19.35-.11.43,0,.05.13.07.08.26.16.32.03-.09-.18.19-.18.3-.14.21.03.01-.25.16-.22.04.02,0,.06,0,.09.14.01.13-.17.04-.23-.1,0-.28-.11-.12-.19-.15-.13-.2.05-.08.19-.09,0-.25-.07-.18-.18.05-.01.08-.06.05-.1-.07-.06-.03-.18.06-.18.08.02.08.17.18.13-.04-.12-.15-.47-.32-.42.01.07-.03.22-.13.17.02-.05-.03-.11.01-.15.19,0,.19-.26.02-.29-.15-.05-.22.25-.33.07-.13-.27.4-.08.37-.24l.27-.29c1.01.48,1.86,1.16,3.05.85-.2.29.18.46.42.48l-.02.06c.1,0,.29-.06.23-.2l.17-.02c.05-.15-.15-.32.02-.43.13-.23.41-.3.63-.42,0-.04-.07-.04-.08-.08-.03-.09-.04-.18.07-.23.01-.07-.13-.31-.15-.38.11,0,.26.12.39.1.02.25.42.45.6.23-.11-.07-.1-.15-.16-.23.1-.02.05-.19.06-.26.07-.05.05-.23.05-.31.26.07.6-.05.88-.04.22.03.44,0,.67-.1.24.3.64.85.97,1.04.03-.03.33-.32.39-.32-.09-.11-.1-.23.02-.33.4.09.8.35,1.12.54.57-.04,1.33.56,1.95.59l.17-.47h-.13c-.09-.17.07-.34.18-.42-.15,0-.36-.02-.28-.23h-.08c.72-.36,1.45.63,2.22.38-.04-.08-.12-.2-.15-.29.33-.13.62.26.91.11-.12,0-.07-.23-.07-.3.95.02.68-.76.29-1.29-.42-.15-.43-.48-.2-.83.32.15.34-.38.62-.3-.01-.13.03-.39-.15-.37-.11.07-.29.04-.42.05-.08-.35-1.03-.07-1.36-.16l-.04-.46h.07c.02-.09-.05-.17-.11-.23h.15c-.03-.17,0-.38.21-.4-.03-.13.06-.22.18-.26-.03-.26-.38-.33-.41-.58-.18-.02-.57.04-.75.09-.17-.22-.47-.58-.77-.39-.02.09.2.46-.08.28-.03-.05-.13.12-.24.13-.12.07-.23-.05-.31-.12-.1.12-.28.02-.19.24-.06.12-.2-.12-.22.05.04.03.06.07.01.11.01.02.04.05.05.08l-.06.03c-.16-.31-.24-.75-.29-1.09.34.01.7-.16.95-.39-.33-.26-.86-.39-1.07-.76.2.04.36-.07.45-.24-.03-.22-.11-.47,0-.71-.28.05-.68-.05-.97.03l-.28-.76h-.02c-.13-.25-.3-.73-.67-.58-.25-.31.08-.7-.07-.99-.23.05-.53-.11-.49-.41.09-.05.18-.15.04-.22l.17-.07-.06-.02c.04-.08.06-.2-.01-.27.06-.04.17-.15.2-.22-.82-.06-.01-.53-.64-.81-.19.04-.26-.12-.31-.27.39-.16.22-.25.26-.57l-.13.04v-.17h.05v-.03l-.11-.05c.41-.46,1.01-.74,1.32-1.27.2-.28.28-1.22.47-1.53.07-.26.15-.66.34-.88.01-.16.05-.35.2-.43-.18-.28-.27-.71-.55-.9-.17-.19-.13-.59-.24-.81.26-.57-.18-1.35-.05-1.94.08-.04.13.07.19.05.13-.01.22-.12.33-.18.05-.02.14.08.16.01-.03-.09.02-.16.04-.25-.02-.07.03-.09.1-.09.06,0,.09-.07.14-.09.09.04.16-.04.24-.07.14.03.14-.16.21-.23.09-.03.16,0,.25,0,.08-.14-.05-.19.13-.28.16-.12-.04-.13.12-.25,0-.1-.11-.13.11-.27.05-.02.22,0,.19-.09.04-.09.13-.14.18-.24.02-.08.13-.09.14-.18.08-.02.18-.09.18-.19.05-.08.1-.19.09-.29-.08-.09-.03-.22-.05-.32-.04-.04-.07.02-.11.02-.07-.05-.15-.03-.17-.13-.09-.11-.17-.24-.3-.31.01-.06.06-.1.02-.17-.03-.14-.27-.18-.09-.28.02-.1-.21-.1-.05-.19-.01-.1-.2-.08-.16-.2.14-.12.26-.26.39-.39,0-.07.17-.33.24-.34-.08-.15.15-.02.16-.13-.04-.06-.11-.2.01-.2.1,0,.22,0,.3-.05.02-.07-.11-.19.04-.12.08-.04.26.2.18-.02-.03-.15-.04-.11.06-.19.01-.1.06-.07.13-.14.06-.12-.14-.09-.01-.23.04,0,.03-.04.02-.06.04-.04.07-.09.1-.13.18.03.11-.06.22-.02.11.03,0-.09.17-.1.13.03.11-.11.19-.18.03-.08.2.06.25-.07-.01-.09-.01-.08.08-.09-.04-.09.02-.15.11-.13.05-.02-.03-.09.05-.1.14-.05.09.01.19.05.07-.06-.08-.12-.1-.16-.02-.03.03-.03.03-.06,0-.04-.02-.07-.06-.07-.06-.07.1-.05.11-.11-.03-.07.03-.09.01-.14-.03-.01-.02-.04-.05-.04-.02-.02-.02-.06-.04-.08-.07-.01-.06.08-.12-.01-.01-.04.09-.03.03-.11-.05-.11.18-.14.18-.24.04-.13-.07-.01-.12-.06-.02-.04.02-.07.02-.11-.02-.08-.14-.08-.18-.14.02-.03.05.02.08-.01v-.02c.14-.06.41-.05.54.06l-.04-.08c.05-.02.04.06.07.07.1.02.11.03.18-.02.14.05.12.06.26.02.08.05.13-.04.2-.01.05-.1.21,0,.28-.05.06.06.19.1.26.04.05,0,.06.04.1.06,0-.07.14-.05.17-.01.04-.04.02-.04.08-.03.03,0,.03.04.06.03.02-.12.17-.03.21-.11.07,0,.08.1.16.08.11-.03.29.04.37.11-.08.09.17.17.25.15.28.07.45.12.73,0,.34.03.6.31.87.51.34.15.67.38,1.02.53,1.05.39,2.31.31,3.36.66.73.15,1.54.46,2.31.36.33,0,.71-.49,1.03-.31l.13-.06s.02.11.07.15c.13-.01.23.09.15.22.1.07.09-.09.17-.06.29-.03.03.13.05.25.04.12.21.02.28-.02.17.11.21.04.35-.08.55.35,1.22.68,1.86.74.23-.01.46-.15.69-.17,0,.08-.03.16-.05.23-.06.03-.23.02-.13.1.19.05.01.26.16.3.36.21-.22.3-.23.51.12.04.23.09.35.11.05.04.07-.04.12-.01.18.09.42.13.62.13,0,.06.06-.02.07.02.05.03.05-.06.1-.04.02.12.09-.03.1.04.14-.04.26.02.4.02.04,0,.08,0,.12-.02.05,0,.06.03.1.02.02.01.06,0,.08,0,.05.02.12.02.15.06-.01.07.29.03.28.16-.01.07.05.11.08.16.03.05,0,.13.07.14-.02.21.02.17.06.31-.02.08-.11.13-.05.21-.01.07-.11.05-.15.08.01.11-.01.18-.13.17-.02.05.01.1.01.15-.05.06-.02.16-.06.22-.21,0-.17.15-.36.18-.16.07-1.06-.09-.74.4-.18.18-.09.32.13.37.02.24.05.61.03.86.66-.05,1.2.37,1.8.55,0,.05-.03.44-.02.47.35.13,1.07.4,1.41.53.53-.41.88-1.18,1-1.82,1.05-.05.49.78,1.76-.28.14.32.46.5.63.79.14-.07.3.13.38.22.46-.14,1.08-.27,1.48-.54.43,0,1.01-.55,1.39-.26.04-.03.08.03.13.04.04.02.07-.07.11-.02-.01.11.22.04.29.01.65.13,1.5.1,2.12.43l.02-.05.12.02.02-.28c1.7.11,3.46.59,5.14.91.39.05.84.25,1.2.38.24.02.62-.03.87-.02l.93.56c.39.01,1.13-.21,1.47,0,.19-.29.54-.62.68-.93.06-.24-.08-.68.11-.87,1.58-1.04,3.52-1.49,5.26-2.24.74-.23,1.46-.57,2.07-1.05.37-.19.74-.64,1.16-.63.24,0,.36.29.61.28.62.14.81-.7,1.4-.68.62.16,1.44.36,2.08.34.27-.02,1.68.16,1.9.02.33-.2.5-.68.93-.69.83-.04,2.66-.79,3.45-1.09.34-.14,1.05-.14,1.4-.25.23-.1.92-.88,1.14-.98.51-.37,1.28-.4,1.88-.47.14.01,1.51-.72,1.54-.47l.16.04v.04s.07.02.07.02v-.07c.06.01.15.03.19.04v-.03c.23,0,.35.2.55.22.27-.05.64-.32.78-.56.05-.26-.26-.47-.14-.79.03-.11.15-.13.21-.21.07-.16.22-.2.37-.21.17-.12.34-.19.55-.17.17-.08.35-.06.5.06.36.12.36-.29.58-.43.22-.19.52-.25.8-.25.16.07.37.15.51,0,.14-.23.42-.05.61-.17.07-.06.1-.17.19-.21.14-.03.19-.15.28-.24.13-.08.33,0,.44-.16.17-.18.39.01.59,0,.29-.08.6-.2.9-.26.14-.06.15-.22.09-.34,0-.25.37-.28.55-.29.26.11.56.18.84.1.32.07.71.09,1.04.08.2,0,.32-.17.46-.27.27-.08.47-.33.71-.46.37-.14.86.12,1.18.31,1.25.43,2.83.68,4.14.82v.02h.17s.04,0,.06,0h0s.11,0,.12,0h0s.02,0,.02,0h0c.55-.01,1.13-.12,1.68-.13.57.07,4.15,1.44,4.76,1.62.94.37,2.68.87,3.59,1.31.22.17.32.69.55.85.34.26.7-.24,1.03,0,.2.15-.01.4.09.6.05.36.36.53.66.65.33.33.89.61,1.28.87,1.51,1.19,3.21,2.65,4.94,3.5,1.45.48,3.36.22,4.88.39,1.04.03,2.12.12,3.16.11.8-.09,1.61-.21,2.42-.2v.02h.45v-.03c1.77-.13,3.56-.4,5.32-.02,1.63.43,3.26.97,4.92,1.25.89.15,1.8.55,2.69.52,2.77-.2,5.47-1,8.24-1.18v.02c.12.02.25.02.36-.02v-.02c1.69-.15,3.45-.14,5.13-.37,2.07-.53,4.18-1.11,6.31-1.11h.16c.93,0,1.81-.48,2.7-.71.71-.31,1.44-.68,2.23-.62,1.32-.08,3.04-.16,4.37-.24.27-.04.48-.25.75-.29.29-.07.47-.35.7-.51h.02c1.08-.63,2.51-.77,3.73-1.14,1.09-.32,2.15-.78,3.22-1.16.61-.27,1.32-.21,1.97-.34.27-.1.49-.35.72-.52.3-.22.61-.43.7-.82.15-.21.47-.14.7-.2.47-.06.94-.24,1.39-.36.9-.29,1.92-.1,2.82-.37.46-.14,1.08-.1,1.44-.44.45-.46,1.13-.66,1.65-1.01.27-.19.51-.44.78-.63.32-.12.74-.15,1.07-.23,1.38-.46,2.68-1.17,3.92-1.92.22-.09.48-.05.7-.14.3-.12.58-.4.84-.58.32-.2.53-.45.56-.84.43-.54.94-1.09,1.64-1.25,1.26-.15,2.55-.27,3.82-.41.78-.12,1.69-.01,2.36-.47.55-.31,1.29-.61,1.78-1,.28-.19.56-.47.93-.43.3-.03.79.02,1.08-.07.28-.19.56-.39.89-.51.98-.37,1.98-.8,2.86-1.41.26-.1.59.02.86-.03.34-.2.69-.22,1.08-.27.13-.01.38-.11.51-.06.18.1.45.12.56-.1.16-.35.4-1.11.86-.53.19.1,1.02.21,1.25.21.17-.02.26-.26.42-.3.38-.17.43.44.59.62.11.15.53.27.71.3.13,0,.36-.12.43-.23.05-.13.06-.36.14-.47.51-.22,1.49-.51,2.04-.34.32,0,.77-.24,1.09-.2,1.06.15,2.55.56,3.59.79,1.35-.08,2.85.24,4.15.52h0s.37.08.37.08h0c.4.03.53.1.83.23l-.06-.12c.14,0,.62.16.76.2l-.07.11s.2-.05.24-.07c.11.02.39.14.51.1.22-.12.37-.19.6-.03.18.05.34-.09.51-.11.4.01.89.06,1.25.24l-.03.22c.09.04.19-.05.25-.1.74.49,1.47.07,1.25,1.29.25,0,.76.08,1,.09,0-.05.22-.26.22-.32-.03-.01-.08-.03-.08-.06.46-.22.97-.34,1.48-.4.34,0,.7-.15,1.03-.03,1.28-.2,2.77-.1,4.06.03.38.1.81.17,1.13-.06,2.26-.01,4.58-.11,6.83.06.14-.1.19-.31.4-.3.49-.06,1.02,0,1.49-.18.64-.21,1.28-.58,1.92-.75.46-.32,1.15-.45,1.72-.29.73-.76,2.02-.39,2.95-.27,2.98-.22,6.11-1.11,9.03-1.5.87-.28,1.84-.49,2.73-.68.37.03.8.14,1.16.02.24-.06.66-.05.65-.39.53-.21,1.28-.26,1.67-.71.52-.2,1.4.1,1.81-.15.33-.14.57-.48.86-.68.54-.23,1.07-.53,1.66-.5.23-.85,1.02-1.28,1.7-1.76.61-.28,1.1-.8,1.65-1.18.49-.41,1.19-.7,1.54-1.24.26-.23-.09-.45.29-.64,0-.09.06-.2.09-.28.09-.02.24-.02.21-.14.08-.11.29-.04.31-.19l.74.02c.62.39-.59.93-.73,1.33.09.2.14.4-.11.52,1.07.54,1.34-.71,2.51.42.71.3,1.22-1.05,1.59-.15-.1,1.03.73.42,1.15.97.13.93,2.05.59,1.38,1.66.58.27.42.43-.11.57-.47.44-1.05,1.17-.65,1.82.26.16.38.46.27.74l.38.63c1.2.92.64,1.09.7,2.33-.34.73.68.71,1.11.97.04.35-.41.7-.26,1.08ZM540.99,523.7h-.02s-.01.02-.01.02c.02,0,.02,0,.03-.02ZM567.28,629.75c0-.76-.16-1.41-.48-1.92-.32-.52-.74-.95-1.25-1.3s-1.05-.66-1.62-.92c-.58-.26-1.12-.52-1.63-.77s-.92-.54-1.25-.87c-.32-.33-.48-.74-.48-1.23s.17-.88.51-1.14c.35-.26.79-.39,1.33-.39.4,0,.74.08,1.04.23s.55.43.75.82c.21.4.37.97.49,1.71.26,0,.56-.03.9-.07.34-.05.61-.13.82-.25-.05-.33-.09-.76-.11-1.3-.02-.53-.03-1.04-.03-1.51-.23-.18-.55-.33-.95-.45-.39-.13-.83-.23-1.3-.31-.48-.08-.96-.12-1.45-.12-.83,0-1.58.14-2.25.42-.67.28-1.2.7-1.58,1.27-.39.57-.59,1.29-.59,2.16,0,.79.16,1.45.47,1.98.31.53.71.97,1.21,1.33.49.35,1.01.66,1.56.91.55.25,1.07.49,1.56.73.48.24.89.51,1.2.82.32.31.48.7.48,1.16s-.17.82-.52,1.16c-.34.34-.9.51-1.68.51-.59,0-1.07-.11-1.43-.32-.35-.21-.61-.55-.78-1.02-.16-.47-.27-1.08-.33-1.83-.29,0-.59.01-.91.04-.31.02-.6.07-.87.15,0,.45,0,.95-.04,1.49s-.09,1.08-.2,1.6c.69.37,1.39.67,2.11.88s1.51.31,2.37.31c1.11,0,2.03-.17,2.75-.51.73-.34,1.28-.82,1.64-1.42s.54-1.28.54-2.03ZM578.85,624.4c-.29.02-.59.03-.92.04-.32,0-.65.02-1,.02-.33,0-.66-.01-1.01-.02-.34-.01-.66-.02-.97-.04,0,.23.02.44.05.66.03.21.08.4.13.57.48.08.78.25.9.51.13.27.04.76-.27,1.49l-1.25,3.16c-.07-.21-.14-.41-.22-.62-.19-.49-.39-.97-.61-1.45-.21-.47-.41-.9-.59-1.27-.32-.64-.44-1.09-.37-1.32.08-.24.42-.41,1.02-.5.06-.15.1-.33.13-.55.03-.23.05-.45.05-.68-.41.02-.9.03-1.46.04-.57,0-1.09.02-1.57.02-.45,0-.91-.01-1.38-.02-.47-.01-.89-.02-1.27-.04,0,.21.01.43.03.66.03.22.07.41.12.57.2.03.38.09.54.2.16.1.32.28.49.51.18.24.37.61.6,1.11.3.61.63,1.31.99,2.09.36.79.72,1.6,1.1,2.43.35.77.67,1.51.97,2.21-.23.48-.4.8-.51.96-.22.37-.48.63-.78.77-.3.15-.66.22-1.08.22-.35,0-.69-.02-1-.07-.31-.05-.58-.1-.8-.17-.09.25-.15.56-.18.91-.03.36-.02.66.02.9.17.19.43.37.76.53.34.16.72.24,1.14.24.32,0,.62-.05.9-.16.29-.11.57-.3.86-.59.28-.3.58-.72.89-1.27.31-.56.65-1.28,1.02-2.18l2.91-6.94c.17-.41.32-.72.46-.95.13-.22.27-.39.42-.5.15-.11.34-.2.57-.25.08-.18.13-.39.15-.61.02-.23.02-.43.02-.62ZM588.17,624.9c-.43-.32-.89-.48-1.41-.48s-1,.15-1.43.46c-.42.3-.78.68-1.07,1.15-.09.15-.19.39-.29.69-.07.19-.14.38-.2.57.08-.35.15-.67.21-.94.07-.33.11-.67.11-1,0-.31-.05-.55-.15-.72-.1-.17-.24-.28-.43-.35-.3.16-.78.31-1.44.45-.65.14-1.33.21-2.03.21-.09.17-.15.35-.18.54-.04.19-.05.39-.05.59.43.02.75.09.96.2.2.12.33.28.39.5.06.22.09.52.09.9v2.73c0,.52-.03.92-.11,1.2-.07.29-.2.48-.4.59-.2.1-.48.17-.84.2-.03.14-.06.31-.08.5s-.03.43-.03.7c.37-.02.87-.04,1.5-.04.64,0,1.25,0,1.84,0,.37,0,.75,0,1.13,0,.39,0,.75,0,1.08,0,.34.01.62.02.85.03,0-.22-.01-.44-.02-.65-.02-.21-.06-.39-.12-.55-.49-.04-.88-.13-1.16-.27-.29-.14-.49-.37-.62-.69-.12-.31-.18-.75-.18-1.32v-1.03c0-.45.07-.86.22-1.23.15-.37.34-.67.57-.9.22-.23.43-.35.63-.35.27,0,.47.1.62.31.14.2.22.57.23,1.1.25,0,.54-.02.87-.06.32-.04.58-.1.78-.18-.01-.29-.02-.61-.01-.95,0-.34.02-.69.06-1.02.03-.34.07-.64.11-.9ZM594.86,633.59c0-.21,0-.42-.03-.64-.02-.22-.05-.4-.11-.56-.47-.02-.79-.14-.97-.38-.17-.24-.25-.69-.25-1.35v-5.33c0-.3-.06-.53-.16-.7-.11-.17-.25-.28-.42-.35-.18.11-.47.21-.86.31-.39.1-.82.18-1.29.25-.47.06-.92.1-1.35.1-.1.17-.16.35-.18.54-.03.19-.04.39-.04.59.42.02.74.09.95.18.21.1.35.25.41.45.07.2.1.46.1.77v3.19c0,.66-.09,1.11-.26,1.35-.18.24-.54.36-1.06.38-.06.16-.09.34-.11.54-.02.21-.03.43-.03.66.2-.01.45-.02.75-.03.3,0,.64,0,1.01,0,.37,0,.73,0,1.09,0s.71,0,1.07,0c.36,0,.69,0,.99,0,.3.01.56.02.75.03ZM598.84,629.55c.3,0,.58-.04.89-.05.56-.02,1.11-.03,1.66-.04.55,0,1.06-.01,1.54-.02.47,0,.88-.01,1.21-.01.23-.23.4-.54.49-.93-.04-.8-.2-1.53-.49-2.17-.29-.64-.74-1.14-1.34-1.5-.6-.37-1.38-.55-2.33-.55s-1.73.21-2.43.62c-.69.41-1.22.97-1.59,1.68-.37.71-.56,1.54-.56,2.48,0,.87.17,1.66.5,2.36.33.71.84,1.27,1.54,1.68.7.41,1.61.61,2.72.61.83,0,1.56-.11,2.2-.34.63-.23,1.19-.59,1.68-1.08,0-.2-.05-.4-.16-.6-.1-.2-.21-.33-.33-.39-.32.27-.7.5-1.15.67-.45.17-.9.26-1.35.26-.7,0-1.25-.17-1.65-.5-.41-.33-.69-.78-.87-1.35-.08-.26-.13-.54-.18-.83ZM617.73,633.59c0-.26-.01-.49-.03-.68s-.07-.36-.13-.52c-.36,0-.62-.13-.77-.37-.16-.24-.24-.7-.24-1.36v-3.05c0-.78-.15-1.41-.44-1.88-.29-.48-.67-.82-1.16-1.03-.48-.21-1-.32-1.55-.32-.62,0-1.17.13-1.65.39-.47.26-.84.54-1.11.84-.13.15-.23.3-.31.46-.08.15-.16.31-.24.47.07-.22.11-.44.15-.64.03-.21.05-.39.05-.55,0-.31-.05-.55-.15-.72-.1-.17-.24-.28-.43-.35-.3.16-.78.31-1.43.45-.66.14-1.33.21-2.03.21-.1.17-.16.35-.19.54-.04.19-.05.39-.05.59.43.02.75.09.96.2.2.12.34.28.4.5.05.22.08.52.08.9v2.99c0,.66-.08,1.12-.26,1.36-.18.24-.53.37-1.04.37-.06.13-.1.3-.12.51-.03.21-.04.44-.04.69.2-.01.47-.02.81-.03.34,0,.7,0,1.07,0,.37,0,.7,0,.99,0,.32,0,.64,0,.98,0,.34,0,.67,0,.98,0,.32.01.57.02.75.03,0-.25,0-.46-.01-.65-.02-.18-.06-.37-.14-.55-.4,0-.69-.12-.87-.36-.17-.24-.26-.69-.26-1.37v-1.31c0-.7.09-1.28.27-1.75.19-.47.43-.82.73-1.07.3-.24.6-.36.92-.36.49,0,.86.16,1.13.48.26.32.39.9.39,1.73v2.16c0,.7-.09,1.19-.29,1.45-.2.26-.48.4-.85.4-.07.17-.11.35-.12.55-.02.2-.02.42-.02.65.2-.01.46-.02.79-.03.33,0,.68,0,1.04,0,.36,0,.69,0,.98,0,.44,0,.88,0,1.34,0,.45.02.83.03,1.12.04ZM601.94,628.29h-3.16c.02-.6.08-1.11.2-1.5.15-.44.35-.77.6-.97.25-.21.53-.31.85-.31.49,0,.86.24,1.12.72.26.49.39,1.17.39,2.06ZM1005.9,802.35v.53c0,.56-.09,1.01-.26,1.37-.18.36-.41.63-.69.8-.28.18-.55.27-.81.27s-.47-.08-.66-.26c-.2-.17-.29-.45-.29-.85,0-.3.06-.56.2-.76.13-.21.32-.38.56-.52.25-.13.54-.25.87-.34.34-.09.7-.17,1.08-.24ZM1005.9,802.35v.53c0,.56-.09,1.01-.26,1.37-.18.36-.41.63-.69.8-.28.18-.55.27-.81.27s-.47-.08-.66-.26c-.2-.17-.29-.45-.29-.85,0-.3.06-.56.2-.76.13-.21.32-.38.56-.52.25-.13.54-.25.87-.34.34-.09.7-.17,1.08-.24ZM1161.02,787.78c-1.93,2.07-10.76-.1-12.75-1.86-1.15-.12-3.44-1.37-4.43-1.97-4.02-1.57-8.11-1.29-11.79,1.01-.61-1.59-.2-3.91-1.68-5.06.45.99.96,2.4.34,3.43-.11.34.06.74.33.96l-.02,1.16c-3.17-1.1-9.69-4.95-13.44-5.11-3.47.06-11.78-.22-15.51.29l-7.91,2.85c-4.16,1.1-6.82,9.56-8.42,12.86l-1.8,2.92-.25.7-.19,1.49-.12.49c-1.42,3-5.13,7.24-6.08,10.48l-.73.96-3.15,3.01-3.07,4.53c-1.61,1.2-7.16,7.52-8.81,8.62-2.72.51-5.87,1.09-8.59,1.6-8.15-.64-17-1.36-25.15-2-18.42-1.53-37.27-2.8-55.66-4.49-25.9-17.3-51.39-36.24-77.05-54.01-17.69-12.24-34.99-25.72-52.3-38.48-15.69-8-31.74-16.17-47.43-24.17-11.04-5.6-22.55-11.54-33.61-17.09-8.95-2.56-23.97-4.12-33.04-5.62-8.88-1.08-20.83-3.46-29.68-4.08.49-1.44,6.66-4.54,7.15-6.21-.33-1.07-1.14-3.89-1.75-4.81-.93-1.42-9.73,2.26-10.8,1.44-.25-.1-2.58-7.47-2.83-7.88-.14-.23,3.79-1.01,3.86-1.12-4.47-13.91-9.34-29.08-13.88-42.95,21.57-10.8,43.56-21.82,65.13-32.62,9.29-4.65,19.6-9.82,28.91-14.48l12.05-2.68c2.1-.63,3.33-3.58,4.32-5.32.68-1.51,9.77-14.3,8.95-15.95-.26-4.7-.58-13.11-.73-17.8.15-2.13,1.71-6.96,2.53-9.05-.01-.96.52-5.53.88-6.27h.01c1.63-2.33,4.84-4.87,5.02-7.9.12-8.25-.51-9.68-4.77-16.65-.26-.63-1.53-2.53-1.45-3.24v-.82s1.57-12.31,1.57-12.31c-.15-.86,4.29-7.34,4.74-8.15.93-1.77,3.91-1.82,5.62-2.07l15.22-2.61c2.24-.43,7.42-5.72,9.26-7.08,3.25-2.8,11.75-10.1,14.88-12.78.95-.75,3.62-2.81,4.66-3.34.23-.87-.62-1.62-.96-2.35,1.2.01,3.89-.58,5-.95.77-.12,4.33-.5,5.02-.85.31-1.9,6.7-7.68,7.17-9.5.05-.37.38-.79.72-.92.97-.22,2.96-1.34,3.88-.5.05.35.22,1.02.63,1.09,1.35.37,4.65,1.3,6.04,1.31.89-.18,2.64-.74,3.34-1.33,1.53-.59,3.74-1.15,5.38-1.17,1.18.07,6.85,3.06,8.04,3.11.28.02.73-.23.9-.44.24-.17,1.07-.23,1.34-.27,1.41.33,3.05,1.77,4.54,2.11,4.38,3.34,3.15.62,6.57,1.5,3.58,2.6,9.42-1,12.71,2.4.49.04,1.14-.56,1.5-.85l2.63-.38c2.05-1.79,3.85-4.84,6.97-4.58,2.35.15,6.3,1.39,8.4,2.48,1.4.9,1.99,2.75,2.1,4.33.05.83-.77,1.32-1.51,1.31-.4.11-1.25.8-1.45,1.15-1.45,2.2,1.27,5.23,2.21,7.15.56.44,2.4.76,3.09.67.44-.14.65-.89.93-1.18.32-.4.94-1.28.93-1.82.74-1.23,4.77-1.34,5.85-2.22,2.42-1.64,4.68-4.25,7.65-5.01,1.69.17,6.85-.12,7.65,1.79-.12.35-.84,1.48-.66,1.89.23.63.62,1.41,1.4,1.42.66.19.56,1.14,1.02,1.52.29.12,1.13-.03,1.42-.17.52-.16,1.05.31,1.38.63l1.07.45c.58.46.2,1.17-.3,1.52l-.27,1.31c.42,1.24,1.33,2.59.7,3.95-.73,1.39-3.78,2.85-2.56,4.66,1.47,1.29,3.72.11,5.1,1.21.7,1.01,2.05.72,2.99,1.25.96,1.16,2.69,2.91,2.37,4.53-.51.81-1.29,2.52-1.48,3.46-.05.11.06,1.15-.2,1.12-1.43.22-.95,1.37-.03,1.96.58.44,1.62.9,1.45,1.78.27.43.85.78,1.13,1.21.43,1.67.65,2.07,2.39,2.59,2.65.14,5.71-2.82,6.81,1.2.46,1.65-.06,3.98,1.63,5.06l-1.19.62c.2.81,1.38,1.19,1.91,1.75.6,2.63-.78,3.72,1.87,5.84,1.96,1.87-2.04,3.57-.75,5.58,1,1.27,2.83.82,3.99,0,1.14-.2,2.61-1.09,3.81-.89.65.19,2.33.7,2.98.89.95.78,2.47,1.97,3.78,1.89,1.06.56,3,2.78,3.74,3.71.58.96,1.26,3.49,2.74,3.38.41-.09,2.01-.59,2.4-.36.75.66,1.95.43,2.76,0,1.12-.9,1.32-.9,2.7-.64,1.47-.78,4.19-.03,5.69-.58.71-.37,1.72-.81,2.55-.68.37.19,1.83.44,2.1.7.28,3.12,4.19,2.17,6.21,1.54,1.05-.74,2.51-1.2,3.6-.27,1.27,1.7-1.32,2.97-2.58,3.57-.29.43-1.01,1.13-1.43,1.4-.61.15-2.34.03-2.96,0l-2.46,1.07c-2.23.61-6.47-1.06-6.63,2.59-.19.93.7,2.47.33,3.37-.33-.05-1.63-.51-1.96-.32.19.51.68,1.48.98,1.93.3.21.33.6,0,.81-2.52,1.5,2.35,5.47,3.03,6.94,1.37,1.19,5.29,2.95,3.88,5.23-.83.66-1.65,1.88-.23,2.39.65-.03,2.21-.14,2.65.49.07,1.49-1.47,2.82-1.91,4.17l1.01.97c-.23.6-.91.9-1.52.92l-1.25.34c-.32-.08-1.04-.25-1.37-.14-.89.29-1.88,1.29-2.82,1.37-.42-.16-1.64-.67-2.1-.49-.35-.07-1.22-.54-1.54-.72-.93-.48-1.29.14-1.75.83-.14.29.21.79-.01,1.06-.59.23-1.39.11-1.83.69-.88,1.71,1.15,3.23-.2,4.99-.78,3.79-2.74.62-5.04,1.04-.79,1.79.62,3.28-1.84,4.17-.79.06-2.08.04-2.5.89-.19.37-.1,1.19-.04,1.58-.09.95-1.73,1.68-1.89,2.65.49.62,1.43.93,1.94,1.51.22.5.33,1.14.82,1.46.39.53.35,1.57.38,2.2-.05.67.58,1.25.85,1.78-.02.46,0,1.41-.64,1.42-.71-.37-3.63-.49-4.45-.54-1.6-.18-3.52-1.27-5.12-1.5-.62,1.99,1.34,4.8-1.05,6.11-.58.17-2.93.26-3.05,1.13,3.35,10.47,3.18,1.79,6.89,6.49.58,1.5-.08,3.75-.72,5.13-.2.26-.83,1.03-.79,1.38.16.71,1.05,1.18.88,1.96-1.16,1.17-3.14,2.35-4.4,3.42-.61,1.06-1.03,2.67-1.72,3.71-.44.46-1.34.81-1.94,1.01.69,1.11,2.07,1.95,3.4,1.78.27.03,1.57-.37,1.77-.06.34.43,4.56,7.16,5.03,7.22.69.43,1.56,1.09,1.75,1.93.2,1.59,1.16,3.15,2.46,4.08.22.17,2.59,1.39,2.48,1.77.28.24.12,1.77.16,2.1.93,1.02,2.61-.89,3.42-1.43,1.1-.58,3.19-.15,4.34-.57-.17,1.02-.37,1.64.68,2.25,1.1.46,1.88,1.46.78,2.42-.71.35-2.73,1.28-3.1,2.03.88.89,2.65.98,3.79.73.43-.27,1.11-1.15,1.71-.81,1.8,1.11,3.45,3.35,3.27,5.57-.17.57,1.63,1.83,1.89,2.05.95,1.4,2.84,2.99,4.2,3.95,1.06,1.23-.3,2,.34,3.14,2.03.87-2.01,3.24-2.79,3.82-1.1.36-3.67-.43-3.73,1.23.28.54,2.38.72,2.84.7,2.66.69,2.16,2.43.04,3.56,0,0-.6.58-.6.6l1.04,1.97,2.87.29c5.02-1.25,11.38.61,15.89,2.78.73,1.01,4.85,2.86,5.96,3.39,1.34.95,4.14,2.61,5.66,3.27,3.22,3.03,15.87,12.65,19.88,14.48,1.19.33,2.99.34,4.15-.15.45-.2,2.44-1.28,2.93-1.01,1.61.48,4.23.91,5.01,2.64.48.81,1.87,1.4,2.41,2.1.31.77-.66,1.35-.81,2.07-.41.25-.07.77.12,1.1.2.28,1.34,1.2,1.69,1.46.43.51,1.07,1.42,1.6,1.84.42.08.64.43.74.83.42.22,1.17.71,1.21,1.25.01,1.13-1.2,2-.87,3.2.67.44,1.72.41,2.13,1.25.46.71,1.67.37,2.23.97,1.5,1.74,1.64,3.89,4.31,4.47.51,1.21,1.62,3.3,2.47,4.42.3.51,1.19.78,1.6,1.18.34.41.44,1.22.7,1.67.56.67,1.95,1.48,2.72,1.99.88.77.9,2.01.52,3.03l-7.48,17.38c-.02,4.95-.29,15.22-.29,20.28,23.99.59,15.15-5.72,16.72,26.05.85.21,5.61.42,6.25,1.08,2.98,2.01,1.06,5.99,4.03,6.07,1.23.05,3.03-.77,4.06.26,1.02,2.18,3.87,3.47,5.05,5.42.51,2.53-3.53,1.43.34,5.24,2.1,3.53.55,5.53,5.66,6.59,0,0,0,.24,0,.26l1.19-.02.21.49ZM987.91,803.7v-7.16c0-.51.04-.9.11-1.17.07-.28.21-.47.4-.58.19-.11.46-.18.82-.21.07-.18.11-.37.12-.57.01-.2.02-.41.02-.64-.26.02-.57.03-.9.03-.34,0-.68.02-1.02.02-.35,0-.67,0-.97,0s-.65,0-1.03,0c-.39,0-.75-.01-1.1-.02-.35,0-.65-.01-.88-.03,0,.22.01.43.03.66.03.22.07.41.12.55.36.04.63.12.83.22.19.11.32.29.38.57.07.27.1.66.1,1.17v7.16c0,.51-.03.91-.1,1.2-.06.28-.19.47-.38.58-.2.11-.47.17-.83.2-.04.14-.07.33-.11.55-.03.23-.04.45-.04.66.4-.03.89-.05,1.45-.05.56-.01,1.11-.01,1.66-.01s1.05,0,1.54.01c.49,0,.91.02,1.25.05,0-.23,0-.45-.03-.68-.02-.22-.06-.4-.11-.53-.34-.03-.61-.09-.81-.2-.2-.11-.34-.3-.41-.58-.07-.29-.11-.69-.11-1.2ZM999.27,798.19c-.43-.32-.9-.48-1.41-.48s-1.01.16-1.43.46c-.42.3-.78.69-1.07,1.15-.09.16-.19.39-.29.69-.07.19-.14.38-.2.57.08-.35.15-.67.21-.93.07-.34.1-.68.1-1.01,0-.31-.05-.55-.14-.72-.1-.16-.25-.28-.43-.35-.3.16-.78.31-1.44.45-.65.14-1.33.21-2.03.21-.09.17-.15.35-.19.54-.03.2-.05.39-.05.59.44.02.76.09.97.21.2.11.33.27.39.49.06.22.09.52.09.9v2.74c0,.51-.04.91-.11,1.2-.07.28-.21.47-.4.58-.2.11-.48.17-.84.2-.04.14-.07.31-.09.5-.02.2-.03.43-.03.71.37-.03.88-.05,1.51-.05.63-.01,1.25-.01,1.84-.01.37,0,.75,0,1.13.01.39,0,.75,0,1.08.02.34,0,.62,0,.84.03,0-.23,0-.45-.02-.66-.01-.21-.05-.39-.11-.55-.49-.04-.88-.13-1.16-.27-.29-.14-.49-.37-.62-.68-.12-.32-.19-.76-.19-1.33v-1.03c0-.45.08-.86.23-1.23.15-.37.34-.67.57-.9.22-.23.43-.35.63-.35.27,0,.47.11.61.31.15.2.23.57.24,1.1.25,0,.54-.02.86-.06.33-.04.59-.1.79-.18-.02-.29-.02-.61,0-.95,0-.34.02-.68.06-1.02.03-.34.07-.64.11-.9ZM1009.9,805.1c-.34,0-.59-.06-.76-.15-.16-.1-.27-.26-.32-.49-.06-.23-.08-.56-.08-.98v-1.72c0-.93-.08-1.64-.23-2.13-.15-.5-.37-.89-.65-1.18-.23-.24-.58-.45-1.05-.63-.46-.18-1.07-.27-1.82-.27-.63,0-1.31.08-2.03.22-.72.15-1.36.35-1.91.6.08.41.12.82.14,1.23.01.41,0,.79-.02,1.15.21.07.45.13.73.15.28.03.58.04.89.04.03-.35.09-.7.2-1.05.11-.34.27-.62.49-.84.21-.22.51-.33.88-.33.21,0,.41.04.6.11.19.08.36.2.51.39.13.13.22.29.28.46.06.18.1.4.12.66.02.26.03.58.03.96-.45.07-.93.15-1.43.24-.51.09-1.01.22-1.5.37-.49.16-.93.37-1.33.62-.39.25-.71.56-.94.92s-.34.8-.34,1.3c0,.71.24,1.26.73,1.64s1.17.58,2.06.58c.51,0,.96-.06,1.34-.18.37-.12.69-.3.96-.54.23-.18.44-.42.61-.7.11-.17.19-.36.27-.55-.03.09-.06.19-.07.29-.03.22-.04.41-.04.57,0,.31.05.56.14.74s.25.31.47.41c.44-.2.91-.36,1.42-.47.51-.11,1-.17,1.48-.19.09-.18.15-.38.17-.6.03-.22.03-.44,0-.65ZM1022.11,805.64c-.25-.03-.46-.07-.63-.13-.18-.06-.34-.16-.51-.31-.17-.14-.35-.35-.54-.61-.61-.81-1.2-1.52-1.76-2.14-.37-.41-.76-.8-1.15-1.17l1.28-1.17c.33-.3.62-.54.88-.7.26-.17.52-.29.78-.37.25-.08.54-.12.86-.14.06-.18.11-.37.14-.57.02-.2.04-.41.04-.62-.3.02-.6.03-.93.03-.32.01-.63.01-.94.01s-.62,0-.97-.01c-.34,0-.66,0-.97-.02-.3,0-.57,0-.79,0,0,.2.02.4.05.6.03.2.08.39.15.59.19,0,.33.03.41.08.08.05.12.13.12.24s-.07.25-.21.44c-.13.18-.39.44-.76.79l-1.39,1.25v-8.03c0-.3-.05-.54-.15-.7-.11-.17-.25-.28-.42-.35-.19.11-.47.21-.85.31-.39.1-.81.18-1.28.25-.47.06-.93.1-1.38.1-.08.17-.13.35-.17.54-.03.19-.05.39-.05.58.43.03.74.09.96.19.21.1.35.25.42.45.07.2.11.45.11.77v8.14c0,.67-.09,1.11-.27,1.35-.18.24-.53.37-1.06.38-.05.16-.09.34-.11.54-.02.21-.03.43-.03.67.19-.02.43-.03.74-.03.3-.01.63-.02.99-.02.35-.01.7-.01,1.05-.01.5,0,1,0,1.48.01.49,0,.88.02,1.17.05,0-.21,0-.43-.02-.65,0-.22-.04-.4-.1-.56-.39-.03-.66-.16-.81-.4-.14-.24-.22-.68-.22-1.33v-1.39c.2.22.41.45.62.7.37.44.73.88,1.09,1.34.35.45.69.89,1,1.31.31.41.56.78.76,1.1.29-.06.62-.09.99-.11s.74-.04,1.12-.05c.38-.02.73-.02,1.06-.02.08-.17.13-.36.16-.57.03-.2.04-.41.04-.62ZM1004.82,802.59c.34-.09.7-.17,1.08-.24v.53c0,.56-.09,1.01-.26,1.37-.18.36-.41.63-.69.8-.28.18-.55.27-.81.27s-.47-.08-.66-.26c-.2-.17-.29-.45-.29-.85,0-.3.06-.56.2-.76.13-.21.32-.38.56-.52.25-.13.54-.25.87-.34ZM1609.1,435.57v.54c0,.55-.09,1.01-.27,1.36-.18.36-.4.63-.68.81-.28.17-.55.26-.81.26s-.48-.08-.67-.25c-.19-.18-.29-.46-.29-.86,0-.3.07-.55.2-.76.13-.2.32-.38.57-.51.24-.14.53-.26.87-.35.34-.09.7-.17,1.08-.24ZM1609.1,435.57v.54c0,.55-.09,1.01-.27,1.36-.18.36-.4.63-.68.81-.28.17-.55.26-.81.26s-.48-.08-.67-.25c-.19-.18-.29-.46-.29-.86,0-.3.07-.55.2-.76.13-.2.32-.38.57-.51.24-.14.53-.26.87-.35.34-.09.7-.17,1.08-.24ZM1882.04,927.51c-.21.75-1.06,1.38-.98,2.23.02.77.13,5.96.69,6.46.32.36.84,1.15,1.02,1.59.2,1.54-1.85,1.69-2.88,1.79-1.97.01-1.23,7.18-1.56,8.28-.13.98-.67,2.44-1.62,2.92-.6.09-1.12-.41-1.65-.6-1.03.02-2.78.39-3.84.2-4.14-.57-9.37-.31-13.54-.52-.71,0-1.09.91-1.41,1.43-.3.23-.76.44-1.12.54-.29.05-1.67.4-1.94.28-.44-.21-1.07-.49-1.49-.1-.95,1.55-8.47,1.36-10.02,1.75-.98,0-1.08,1.37-2.04,1.38-.52-.02-1.45-.12-1.9.16-.53.41-1.35.77-2,.97-.71.26-1.07,1.05-.49,1.64.1.29-.25.9-.46,1.16-2.85,2.27-1.65,1.82-1.1,4.69-2.03,1.3-4.75-.74-6.94-.64-.48.52-1.06,1.67-1.01,2.4-.14.61-2.02.78-2.47.81-1.15.18-2.71,1.15-3.69,1.74-1.87.68-7.37,1.04-7.82,3.67-1.11,4.45-1.54,9.75-2.34,14.28-.88,8.77-2.56,2.81-5.41,6.79-.03,1.75,1.47,4.25.33,5.82-.56.41-1.14,1.1-1.18,1.83-.82,6.45.08,14.16-2.69,20.18-.22-.36-.41-1.12-.42-1.54l-.85-.56c-.16-.66-.84-.38-1.01.11-.02.24-.05.91-.22,1.09.32.24.7.75,1.03.98-1.51-.08-2.42-.98-3.72.33.63.18,1.67.41,2.04,1.01-.26.69-1.32,1.34-1.26,2.15-.38,1.02-2.94,1.24-3.82,1.59l.71.45-1.15,1.39c-1.99-.61-9.15-2.97-11.12-3.13.57-3.87-12.9-4.84-15.63-5.47-3.04-.97-9.51-1.48-12.25-2.38l.75-.63c-3.2-3.25.99-4.69-4.06-7.41-1.5-.23-5.65.58-6.41,2.01-1.31,1.37-1.29,1.2-.83,3.01.45.17,1.04.44,1.54.4.3.18.62.72.92.94l-.54-.07v.11s1.42.66,1.42.66l-.14.63c-1.59-.43-3.67-1.23-5.14-1.97-1.36.15-2.54.03-3.55-1.02.11-.18.48-.89.67-.98-1.2-.87-8.1-.32-4.31,1.62l-.34.91h-1.33c-.38-.22-1.07-.72-1.53-.77-.4-.07-1.76-.13-2.06-.48-.2-.4-.92-.89-1.32-1.02-1,.01-3.32.27-4.3.44l-2.63.1-1.82,1.23c-1.28-.13-3.29-1.48-4.12-2.42-1.41-.75-6.35-.31-7.88-.21-1.38.19-4.61-.47-5.95-.8-.88-.9-2.9-2.69-4.13-3.04-3.7.67-8.97,1.37-12.69,1.9-1.07.28-3.64,2.15-4.61,1.02-.21-.18-.52-.23-.78-.12-1.14.58-2.71.21-3.84-.25-1.32-.95-2.84-4.06-4.11-5.09l-1.92-.79c-1.02.04-2.44.28-2.64-1.12-.15-.33-.46-.5-.83-.55-2.86.35-10.19-.95-13.12-1.48-1.81.29-4.91.81-6.6-.11l.35-.79c-.76,0-2.27.2-3.01.37-.91.21-2.15,2.02-3.05,1.01-.41-.04-.84.61-1.2.75-.39.14-1,.28-1.12-.26-1.03.63-2.53,1.54-3.82,1.46-1.92-.42-4.3-.72-6.1-1.51-2.52-2.84-2.92-7.64-7.96-5.73-1.87.45-3.6,2.78-5.51,2.76.03-.75.22-2.51.56-3.16-.5-3.57-5.03-2.21-7.42-1.72-.41,0-1.26-.39-1.63-.56-.61-.22-1.49.01-2.1.17-1.22.29-3.9-.68-5.08-.98l.37-.31c-.47-.1-7.16-.19-7.28-.74-.4-.41-.59-2.64-.64-3.17-.85-1.45-1.57-3.87-2.21-5.41-.44-.27-1.25-1.42-1.66-1.77-.88-.06-1.11.36-1.26-.78-.21-.55-.79-2-.86-2.58-.51-.72-.72-1.76-.28-2.56.55-.5,1.85-1.74,2.06-2.48-.11-1.32-3.04-3.91-3.91-4.79l.26-1.31c-.54-.08-.54-2.16-.65-2.52-.19-1.06-.93-2.2-1.83-2.8-.39-.44-.45-1.37-.55-1.93,1.71-8.95-.31-11.92-2.54-20.26-.58-1.07-2.33-1.91-2.93-2.95.49-1.15-1.47-1.4-1.95-2.16.84.21,1.61-.4,2.35-.67-.73-.35-.47-1.21,0-1.68-1.84.74-2.22,1.1-3.71-.49-.74-.57-1.82,1.19-1.69-.85-.41.16-1.12.15-.95-.49.53-.09,1.2-.83,1.57-1.18.23-.14.52-.36.42-.67-1.75.06-3.5-1.24-3.72-3.02-1.04,1.15-3.35.97-4.08-.46-.1-.34-5.26-.22-5.56-.26-.39-.08-1.25-.55-1.45.05-1.93-1.29-5.03-.7-7.18-1.26-3.45-1.61-7.64-1.46-10.86.54-2.52.18-5.02-.42-6.24,2.24-1.17.43-3.71,2.24-4.95,2.74-.77.51-1.6,1.44-2.35,1.95-1.29.33-3.47.42-4.76.83-.67.12-2.04-.1-2.71.1-1.13.99-3.2.53-4.53.24-1.07-.2-2.31,1.15-3.07,1.73-1.05.27-3,2.62-3.82,3.32.44-.1,1.07-.3,1.37-.67.98,4.07-3.14,7.34-6.88,7.54-2.51.19-5.92-1.58-8.41-1.6-4.1,1.13-.97,3.48-5.34,3.6-.68.13-2.24.63-2.89.88l-3.2,2.57c-2.63,1.93-7.58,5.23-10.6,6.53-1.58,1.68-1.88.71-3.55.34-9.25.75-4.79.21-9.25-3.72-2.75-1.04-7.78,1.13-9.32-2.26-.59-1.49-1.61-3.39-3.1-4.13-1.77-.35-4.85.55-6.71.43-1.53-.1-4.28-1-5.78-1.25-.47-.33-1.23-1-1.86-.87-.76,0-3.51,1.23-4.24,1.54-1.09.08-3.22.45-4.25.78-1.31.24-3.16-.78-4.47-.69-1.55,1.38-3.09-.86-4.32-1.62-2.56-1.31-7.14-3.83-9.15-5.94-.75-2.88.28-4.59-3.2-6.06-1.61-.79-18.73-5.13-19.48-6.07-.96-2.37-3.28-1.25-4.51-2.6-.24-1.65-2.34-1.81-3.68-2.21l-3.96-3.16c-2.18-1.5-5.7-2.55-8.16-3.59-1.44-.96-1.5-2.43.19-2.91,1.13-.24,2.75.31,3.62-.64-.21-2.03-2.76-1.9-3.96-2.98-1.13-2.74-4.39-5.58-6.81-7.2-1-.7-9.24-2.11-10.54-2.39-4.41-1.79-8.48-8.05-13.8-7.71-.58.04-3.7.54-4.18.15-.57-.6-1.94-.49-2.68-.41-3.77,1.18-7.37.76-11.14-.15-1.8-.32.24-1.68-2.84-1.71-3.54-.4-2.94-2.68-5.44-3.9l-.38,1.37-1.01.07c-.31-1.04-1.03-3.44-1.93-4.16-.29-1.14-1.9-3.53-2.6-4.45-.77-.68-2.08-1.47-2.1-2.62.87-1.9,1.77-3.66,0-5.4-2.21-1.35-3.67-4.31-5.66-5.89-.87-1.32-3.52-7.07-3.78-8.57-.01-2.75.36-8.01-1.77-10.18-1.49-2.13-4.44-2.73-6.89-2.69-1.05-.03-1.51-.79-1.77-1.72-.45-.53-2.68-2.78-2.71-3.49-1.33-4.55,2.83-3.22,4.12-.39,1.04-.54.02-.89.3-1.7.42-.5,1.41-1.02,1.68-1.65.2-.9.27-2.21-.44-2.91l-.9.2c-.39-1.42-.71-2.94-2.5-1.99-.62-1.21.32-1.81-1.69-1.9-.65.04-4.16.18-4.72.34-.65.51-1.87.8-2.67.53-1.36-.67-1.83-2.59-1.48-3.99.7-.64.78-1.91,1.56-2.43l.75.7c.03-.25.19-2.17.33-2.35-.65-.01-1.07-.91-1.37-1.37l.35-1.2c.05-2.65-.21-6.48-3.01-7.67l-.02,1.47c-.64-1.58-2.86-3.37-4.26-4.24-.27-.32-.65-1.09-.76-1.48-.41-.64-1.8-1.87-2.38-2.35-1.14-.45-3.68-.83-3.66-2.5-.87-1.22-2.51-2.62-3.35-3.88-1.04-1.56-2.69-4.77-4.33-5.75-1.26-.53-3.24-1.93-4.11-3.01-.21-.58-.09-1.46-.36-2.02.25-.03.9,0,.95-.36-.13-.3-.67-.55-.95-.64,1.35-2.36-1.2-3.52-.31-5.73-.85-.45-1.64-1.55-2.11-2.36-.14-.71-.57-1.5-1.27-1.75-2.16-1.01-4.91-.83-7.08.03l-15.4,8.53c-.89.48-2.4.76-3.37.35-.35-.48-1.67-1.87-1.5-2.55.01-.96.12-2.83-.76-3.51-.99-1.65-3.45-.94-5.01-.75-.39.02-.96-.35-1.26-.56-.3-.17-1.09,0-1.43.04-2.29.79-5.25,2.16-4.52-1.67-.85-.63-1.21-.66-1.04-1.86.15-.74.65-.92-.33-1.34-.38,1.91-2.45,3.41-3.65,1.24-.26-.41-.92-.61-1.38-.57-.84-.1-3.6-1.6-4.39-1.98-.72-.25-.88-1.51-.99-2.13-.72-1.21-2.43-1.71-3.73-1.92.4-1.44,2.32-.84,3.35-.7.66.08,2.05-.31,2.67-.52,1.5-.48,3.21.88,4.6,1.22,1.27-.07,2.53.6,3.21,1.67.13-.46.94-1.67,1.22-2.09.6-.69,2.02-1.89,1.77-2.96-1.91.75-2.37-1.37-2.58-2.78-.76.19-1.41,1.11-2.11,1.44.02-.3.05-.82.33-1.01-.84-1.57-1.62,1.27-2.85-.85-.44-.36-.91.12-1.35.18-.82-.06-1.88-.42-2.7-.4-.54.53-1.94.29-2.6.18-.72.31-1.7.87-1.76,1.76,1.39.79,4.03.42,4.5,2.32-1.04,1.69-3.55.2-5.03.68-.85.77-3.35,2.34-3.56,3.58l.56.44c-1.5,1.59.19,2.61,1.53,3.47.85.58,1.33,1.78,1.53,2.74.04.46.39,2.41.18,2.83-.16.34-.52,1.2-.57,1.56.27,1.61.65,2.48-.63,3.86-1.4,1.7-4.46-.02-6.08.87-.63-.55-3.59-.38-4.39-.37-.5-.26-2.33-1.16-2.88-1.15-.34.84.25,1.74.77,2.36.67,3.13-4.19,2.34-5.96,2.17v-.33c-.06.07-.31.32-.32.42-5.13-1.08-3.56-3.06-5.67-6.6-3.86-3.8.17-2.71-.33-5.23-1.18-1.96-4.03-3.25-5.05-5.43-1.03-1.03-2.83-.21-4.07-.26-2.96-.08-1.05-4.06-4.02-6.07-.66-.65-5.34-.84-6.25-1.08-1.57-31.77,7.26-25.46-16.72-26.05.04-4.96.26-15.38.29-20.28l7.48-17.37c.45-.97.29-2.33-.52-3.03-.7-.46-2.17-1.33-2.72-1.99-.25-.45-.36-1.27-.7-1.68-.41-.4-1.3-.67-1.6-1.18-.88-1.11-1.89-3.15-2.47-4.42-2.68-.58-2.82-2.75-4.31-4.47-.55-.59-1.78-.27-2.23-.97-.4-.83-1.47-.81-2.13-1.25-.32-1.19.88-2.07.87-3.2.03-.49-.88-1.08-1.21-1.25-.06-.33-.39-.81-.74-.82-.54-.43-1.16-1.33-1.6-1.85-.29-.22-1.47-1.17-1.69-1.46-.1-.28-.59-.89-.12-1.09.17-.71,1.11-1.31.81-2.08-.54-.7-1.94-1.3-2.41-2.1-.77-1.72-3.43-2.17-5.01-2.64-.48-.26-2.53.78-2.94,1.01-1.15.49-2.95.48-4.14.15-4.02-1.84-16.65-11.45-19.88-14.48-1.53-.67-4.33-2.32-5.66-3.26-1.12-.55-5.25-2.4-5.96-3.4-4.53-2.17-10.85-4.01-15.89-2.78l-2.87-.29-1.04-1.97s.6-.6.6-.6c2.03-1.12,2.72-2.81-.04-3.56-.58-.05-2.5-.12-2.84-.7.08-1.64,2.6-.89,3.73-1.22.83-.57,4.78-2.99,2.79-3.83-.64-1.12.72-1.9-.34-3.14-1.38-.97-3.2-2.51-4.2-3.95-.39-.33-1.99-1.42-1.9-2.05.18-2.22-1.44-4.44-3.26-5.57-.67-.39-1.18.63-1.71.81-1.18.22-2.88.19-3.79-.73.38-.75,2.38-1.68,3.1-2.03,1.1-.96.32-1.96-.78-2.42-1.06-.62-.85-1.21-.68-2.25-1.15.42-3.24,0-4.34.57-.81.54-2.49,2.45-3.42,1.43-.03-.3.11-1.87-.16-2.1.1-.38-2.26-1.61-2.48-1.77-1.3-.93-2.26-2.49-2.46-4.08-.2-.84-1.06-1.5-1.75-1.93-.49-.08-4.67-6.75-5.03-7.22-.21-.31-1.47.12-1.77.06-1.35.16-2.7-.65-3.4-1.78.59-.2,1.5-.55,1.94-1.01.69-1.03,1.11-2.65,1.71-3.71,1.27-1.07,3.25-2.24,4.4-3.42.18-.78-.71-1.25-.87-1.95-.04-.36.58-1.13.79-1.39.64-1.38,1.3-3.63.72-5.13-3.72-4.71-3.53,4-6.89-6.49.12-.89,2.47-.92,3.05-1.13,2.39-1.31.43-4.11,1.05-6.1,1.6.22,3.52,1.31,5.11,1.49.81.06,3.76.17,4.46.54.62,0,.62-.96.64-1.42-.27-.53-.9-1.11-.85-1.78-.03-.63.01-1.67-.38-2.2-.49-.32-.61-.96-.82-1.46-.51-.58-1.45-.89-1.94-1.51.16-.96,1.8-1.7,1.89-2.65-.07-.38-.15-1.22.04-1.58.42-.84,1.71-.83,2.5-.89,2.47-.9,1.05-2.38,1.84-4.17,2.29-.42,4.27,2.75,5.04-1.04,1.35-1.76-.67-3.29.2-4.98.43-.59,1.24-.46,1.83-.7.22-.27-.14-.77.01-1.06.46-.7.82-1.31,1.75-.83.31.18,1.19.65,1.54.72.47-.18,1.66.34,2.1.49.94-.08,1.92-1.07,2.82-1.37.33-.11,1.03.07,1.37.14l1.25-.34c.62-.02,1.27-.31,1.52-.92l-1.01-.97c.44-1.34,1.98-2.69,1.91-4.17-.43-.62-2.01-.54-2.65-.49-1.42-.5-.61-1.73.23-2.39,1.41-2.28-2.51-4.04-3.88-5.23-.68-1.47-5.55-5.45-3.03-6.94.32-.22.31-.58,0-.81-.3-.46-.79-1.41-.98-1.93.33-.18,1.62.27,1.96.32.37-.9-.52-2.44-.33-3.37.16-3.64,4.39-1.98,6.63-2.59l2.46-1.07c.64.04,2.36.14,2.96,0,.44-.27,1.12-.99,1.43-1.41,1.28-.6,3.84-1.87,2.58-3.57-1.06-.92-2.57-.47-3.6.27-2.02.63-5.94,1.58-6.21-1.54-.29-.26-1.74-.51-2.1-.7-.82-.13-1.85.31-2.55.68-1.5.55-4.22-.2-5.69.59-1.37-.27-1.59-.27-2.7.63-.81.44-2.01.66-2.76,0-.4-.22-1.98.26-2.4.36-1.49.11-2.15-2.42-2.74-3.38-.75-.92-2.69-3.16-3.74-3.71-1.32.08-2.81-1.1-3.78-1.89-.66-.19-2.34-.7-2.98-.88-1.21-.21-2.67.68-3.81.88-1.18.81-2.96,1.28-3.99,0-1.29-2.01,2.72-3.71.75-5.58-2.64-2.09-1.27-3.22-1.88-5.84-.53-.57-1.7-.93-1.9-1.75l1.18-.62c-1.19-.71-1.46-2.7-1.38-3.92-.13-1.11-.71-2.57-1.63-3.24-2.11-.36-4.7,1.77-6.75.39-.45-.3-.83-.9-.83-1.45-.12-.54-.57-1.15-1.05-1.43-.25-.14-.42-.88-.36-1.1-.66-.63-1.72-1.23-2.29-1.95l.1-.78c.16-.04.61-.36.82-.31.32.09.1-1.11.2-1.13l.52-1.68c.3-.6,1.21-1.96,1.03-2.69-.5-1.13-1.56-2.75-2.44-3.62-.56-.38-1.41-.33-2.03-.52-.53-.23-1.07-.88-1.57-1.16-1.85-.11-6.17.18-4.35-2.85,5.2-4.65,1.07-3.86,1.99-7.85.51-.35.86-1.07.3-1.52-.94-.18-1.55-1.21-2.45-1.07-.32.06-1.1.34-1.42.16-.46-.38-.36-1.34-1.02-1.52-.91-.03-1.45-1.1-1.41-1.9.27-.56.85-1.75.98-2.36-.25-.81-.93-1.77-.93-2.65.14-.82.89-1.37,1.63-1.61.67-.29.67-1.62.73-2.19l-1.11-1.04-2.82-1.44c-.41-.52-.61-1.41-1.15-1.81-3.15.79-1.74-1.02-3.69-2.05-2.15-.02-3.55-.37-2.14-2.7-.46-1.34-.58-2.93-.05-4.27.31-.47.54-1.29.26-1.83-1.52-.82-2.91-1.76-1.47-3.47,2.86-1.67,2.62-1.83.28-3.93-1.18-1-3.09-1.82-4.55-.94-.65.22-1.57.45-1.84-.4-.01-.34.29-.98.19-1.32-.28-.29-.68-.2-1.02-.08-1.07-.16-1.15-1.57-1.68-2.28-1.74-1.21-4.07-1.14-6.06-.82l-1.71-.22c-.73-.84-1.23-1.25-.14-2.12,1.18-1.24-.77-1.7.95-3.7.4-.89,1.73-1.6,2.07-2.52.27-1.23,1.25-2.13,2.45-2.42.61-.37-.36-1.13-.06-1.66.2-.31,1.01-.38,1.28-.57,1.29-1.32,1.2-3.66.95-5.37,1.09-1.48,4.38-2.25,4.24-4.36-.38-1.04-1.36-1.93-2.44-2.13-.5-.17-1.78.84-2.25.84-.5.04-2.77-.5-3.17-.62-.94-.25-.39-1.27-.4-1.93-.52-1.48.47-3.21.53-4.65-.5-1.53-.33-3.91-.21-5.45-.26-1.34-1.55-1.37-2.59-1.8.06-.19.38-.56.58-.64.53-.68-.42-1.67-.37-2.44.03-.65,1.25-3.9,1.53-4.54-.05-3.25-3.42-.48-5.15-5.6.28-1.09-.61-1.1-1.12-1.78-.11-.44-.28-1.11-.63-1.43,0-.02.7-.92.7-.92,1.65-.76,1.16-1.63.81-3.04.06-.57.9-1.78,1.22-2.26-.43-2.41-4.11-2.52-5.75-3.91-.16-.33.19-.99.29-1.31.06-.57-.68-1.29-.8-1.82-.09-.36.14-.78.11-1.13-.35-.46-.78-1.44-.87-2.02-.2-.77-1.62-1.47-1.81-2.26.91-1.23,2.72-1.46,4.14-1.19.73.03,3.06-.51,3.79-.65,4.29.64,4.58,2.65,9.44.4,2.73-1.32,1.27-2.28,1.86-4.43,1.09-.81-.02-2.2.36-3.3.75-2.09,2.98-3.65,2.01-6.19-.28-.58,5.16-3.56,5.44-3.87.56-.2,1.49-.34,1.96.14,1.15,1.8,2.94,2.65,4.93,3.19.67.45,4.12,2.47,4.95,2.86.78.71,2.2.71,3.2.72-.06.12-.22.31-.34.37,2.91,1.07,1.84,6.86,4.73,8.04-1,.9.42,1.25,1.02,1.65.33.07.84,0,1.17.11.2.58,1.73,1.26,2.23,1.53.32.25.53.82.83,1.11.35.43,1.06.64,1.34,1.13.5.94,1.33,2.24,1.96,3.08.11.55.52,2.74.83,3.18,1.26-.99,5.69,1.48,6.86.74,1.26-.42.99.16.91,1.09.68.32,1.89.21,2.1,1.14l-.42.72.32.5c2.28.85,1.15,2.07,2.65,2.96.33.11,1.27.37,1.41.74-.08.63-.6,1.22-.37,1.86,1.37,1.43,3.61,1.54,5.33,2.28,1,.07,3.56.33,4.52.64,2.32-.19,5.88.23,8.02,1.15l10.34,1.7c1.69.59,4.76,1.78,6.58,1.65.72-.12,3.52-.2,4.12-.66,1.01-.54,2.99-1.85,4.16-1.92,1.03.07,2.62-.22,3.61-.41,3.26.58,7.04,3.61,10.17.83,3.15-3.1,1.78-4.29,7.02-5.9,1.02-.48,1.45-2.08,2.23-2.82.4-.31,1.17-.52,1.58-.83.24-.15,1.3-1.78,1.54-2.01,3.87-3.51,2.97,1.15,8.65-2.14,1.06-.29,1.47-2.01,1.93-2.85l1.77-2.2c1.04-2.11,5.86-2.67,7.89-3.51,2.32-.67,4.46-2.94,6.11-4.63,2.33-1.96,6.09-2.39,8.82-3.26.43-.37,2.98-2.39,3.48-2.42,2.2-.86,7.25-3.04,8.78-4.84,1.56-1.27,4.65-.42,6.45-.81.74-.36.83-1.29,1.78-.89,3.26,1.29,9.38,8.17,12.2,10.34,1.92,1.29,4.95,3.4,5.84,5.65-1.22.06-3.32,1.26-4.38,1.79-2.99.22-7.56,1.48-7.14,5.28,1.15,2.8,4.6,5,7.46,5.64,1.02.76,2.56,3.01,2.45,4.34-.62,4.29-9.99,2.81-12.32,4.39.02.19-.01.53-.14.69-2.09,1.09-3.48.95-2.91,3.82,1.6,3.08,7.74,4.63,10.67,5.91.26.15.76.45.74.81l.23.72c-.84,2.03,1,2.37,2.27,3.28,2.86,4.58,6.77-2.83,7.72,3.03,1.9,1.74,3.78,3.75,5.64,5.58,1.57,2.56,3.59,3.71,6.6,2.86,5-1.76,3.08-3.12,9.38-1.77.04,1.16.35,4.77-.41,5.75.37.62.47,2.95.44,3.64l.92,1.81.69,6.01c.13.73,2.62,6.06,1.64,6.66-.65,3.54,3.05,4.09,2.06,6.47,1.07,5.23,6.46,9.14,10.92,11.49,2.36.98,9.13,3.93,11.59,4.27l18.87,2.02c2.31-.02,4.87-1.8,7.03-.3-.59.19-1.3-.39-1.67.3,2.28.92,8.04,2.09,10.47,2.44,1.88.58,4.55,1.11,3.66,3.66.77,1.19,1.12,3.06,2.23,4.05.44,1.28,1.68,3.62,2.63,4.59.92.92,4.17,2.76,5.26,3.45.94.85,2.66,3,4.12,2.93l5.43,2.95c1.09-.02,2.47.91,3.15,1.69,4.05,2.07,11.73,5.32,15.53,7.91,2.65,1.65,14.68,3.09,17.82,3.68,4.39,1.22,13.3,2.87,17.83,3.36,6.72,2,10.87,2.21,17.82,1.06,10.23-3.5,23.02-4.97,33.63-6.76,9.26-2.37,23.2-5.51,32.8-6.95,5.61-1.41,22.92.75,27.43-3.47l-.11,1.86c-1.49.58-4.67,1.07-6.27,1.13-1.51.38-3.36,1.12-4.88.39-.84.03-2.02.57-2.85.64-1.33-.19-4.05-.38-5.39-.3.34,1.01,1.89.66,2.68.67-.26.07-1.1.32-1.36.3,1.45,2.81,8.31,2.11,10.82,2.53.38.21,1.18.49,1.6.58.4-.15,6.64-1.26,6.73-1.74.54-.43.28-5.24.36-5.89-.04-1.01-1.13-1.23-1.92-1.47-.08-.58.96-1.94,1.26-2.39-1.76-1.57-2.48-5.22-3.05-7.4-.21-.46-1.65-3.46-1.71-3.9l-.46-4.16c2.28-.28,14.55,2.18,16.16-.11,1.16-.91,2.86-.3,4.2-.4.98.08,9.1-3.9,10.05-4.3,1.36-.39,3.81.56,5.18.37.5-.02,1.63-1,1.95-1.31,1.04-.24,2.91-1.59,3.91-1.99.66-.39,1.71-1.03,1.63-1.94.7-1.13,1.62-3.41.02-4.19-.66-.75.22-2.15.58-2.82.06-1.61,1.4-2.95,2.6-3.84,2.43-1.54,9.29-4.26,10.3-7.23,1.36-.55,1.99-.15,2.71-1.78.97-.99,3.6-.71,4.81-1.24.16-.63.94-1.07,1.51-1.25,2.85-.44,6.05-2.39,8.47-3.95.81-.51,3.36-.41,4.31-.49,3.09-.44,11.23-2.39,14.2-1.08,1.37.86,3.53,1.29,5.14,1.09,1.14.19,2.41,1.08,3.6.97,1.51-.13,7.9-1.47,9.25-.73,1.6.96,4.76.25,6.52.03,2.17-1.1,1.58-3.07-.13-4.2.71-1.44,3.69-3.08,5.06-3.85,1-.69,5.19-.57,6.29-.65,1.27,0,2.29,1.45,3.59,1.01,1.69-.55,4.92-1.94,6.75-1.61.85.6,2.63,1.64,3.6,2,2.63.51,8.57,1.31,11.1,2.04.91-.38,2.27-1.27,3.16-1.7.54-.33,1.3-1.53,1.72-1.98,1.02-1.07,2.79-.8,3.95-.14.16.31.16.83.37,1.12.95,1,1.68,2.88,2.59,3.9.81.54,2.05,1.81,2.17,2.83,2.09,1.58.96,3.51.21,5.45.43,1.55,7.09,3.02,8.3,3.53.72-.04,1.66-.33,2.37-.38.56,0,2.76.52,3.33.66.98.05,2.92-.16,3.87-.18.7.23,1.39,1,2.14,1.08.36.04,1.02-.23,1.38-.06.3.13.64.74.79,1.01.83,1.02,2.37.26,3.46.3,1.19.03,8.11,2.83,9.39,3.29,1.82.53,4.8.49,6.51,1.18.42.23.44.62.27,1.03-.02.35.55,1.23.82,1.52.54,1.1-.1,2.53,1.38,3.05,1.75.6,5.09.35,6.57,1.68,1.03.23,5.05-.04,5.99-.53.6-.62,1.08-1.71,1.69-2.32,2.51-1.85,4.36,2.48,8.22,2.39.27-.04,1.37-.04,1.53-.3.34-.34.7-.63,1.22-.52.98.25,2.09.25,2.72-.66.02-.29.14-.88.39-1.07,1.52.91,5.01,1.85,6.75,2,1.45.47,3.15,1.46,4.71,1.44,1.39,1.03,7.05,4.5,8.69,5.31,3.22.2,4.03-2.6,6.87,1.11.25.37.22,1.33.08,1.73.5.65.46,1.26-.08,1.87-.36,1.4.57,4.55,1.49,5.63.98.67,3.59,2.24,4.29,3.19-.02.14-.1.33-.24.41-.13.22-.14.63-.28.86.06.6,1,.34,1.27.79,1.72,1.37,3.4-1.65,4.67,1.52.18.76.39,1.86,1.24,2.15,1,.02,1.24-1.63,2.37-1.26l7.06,1.84c2.6,2.1,5.65,3.5,9.05,3.6,3.72.72,4.81,5.83,7.41,8.12.76.79,5.87,5.54,6.24,6.43.41,1,1.73,3.66,2.43,4.44,4.08,1.65,11.91.14,16.29.51,7.84.09,18.05-.84,25.75.25.57,3.04,2.02,2.94.03,6.02,0,.34.22,1.01.37,1.32-.43,1.45-1.31,4.87-1.34,6.36l.7,1.41c-.16.16-.29.44-.36.67,1.46.28,1.77,1.9,1.67,3.17,1.16,1.7,1.59,4.19,1.82,6.21-.15.59-.93.98-1.01,1.63-.19,1.66-.11,1.33-1.48,2.09-.19.38-.06,1.18.03,1.58.01,1.05-1.69,1.39-2.19,2.22,3.5.49,5.88,2.73,5.99,6.39.3.77.2,1.88-.11,2.63.65.4.12,1.48,0,2.01-.03.92.14,1.5-.82,2.02-.79,1.66,1.29,3.43,2.16,4.69,1.44,4.26.04,3.92-2.01,7.03-.81,3.76-2.9,2.34-2.01,7.25-.61,2.56-4.36.21-4.55,3.02.05.45-.27,1.51.27,1.74.55.88.13.93-.57,1.37.16.57,1.84,2.13,2.14,2.63-.14.73-.46,1.41.37,1.84-.38.44-1.39,1.51-1.55,2.08-.05,1.02-.54,2.95-1.01,3.87-.08,2.05-1.76,2.13-.89,4.38.1,1.05-.32,2.77-.57,3.78l-1.51.41c-.28,1.34-1.6,2.65-2.78,3.23-1.97,1.06.09,3.75-1.5,5.03-.81.2-1.82-.06-2.56.48-4.43,6.03-7.38,2-9.6,5.49,1.54-.1,1.18,1.52,2.11,2.11,1.41.27,2.45,1.51,3.05,2.75.49.55,4.05,4.18,4.2,4.83-3.55.17-8.57.43-12.11.61,1.16,1.63-1.77,2.23-2.76,2.76-.9.7-2.53,2.29-3.27,3.15-3.52,4.4-.12,11.94.35,16.92.34,2.1-1.8,4.38-2.02,6.38.94,4.68,4.04,6.2,8.28,7.44,3.79.86,10.65-1.46,13.02,2.24-.81,1.88-5.46-.27-4.32,2.98.68,2.51-2.34,2.93-3.72,4.28-2.89,3.29-6.39,7.26-9.3,10.55-1.37,5.31,2.07,11.47,3.56,16.48,3.13,8.85,6.59,18.82,9.34,27.81,0,2.39-.21,6.47-1.06,8.72-.35.51-2.02,1.79-1.49,2.46.2.09.56.29.7.48l-.43,1.08c.04.49.41,1.06.54,1.52.12.65-.07,3.43-.28,4.09-.11,1.49.62,5.43.79,6.92-.06.86-.91,3.95-.51,4.78.62,1.45,1.23,5.37,1.32,6.97,3.71,1.31,10.97,1.55,14.89,2.24,8.43,1.28,19.27,1.97,27.57,3.72,5.26,3.71,1.54,3.9,3.21,7.56.93,1.13,2.02,2.88,1.81,4.41.47,1.43,1.63,3.1,1.82,4.65.24,1.21-.71,2.6-1.28,3.59.38.41.23,3.34.4,3.93-.59.16-.56,1.28-.3,1.68-15.58,15.89-31.36,32.72-47.01,48.54,6.96,7.13,14.43,14.97,21.34,22.16.73.7,2.06.98,2.85,1.58,1.05,1.58-.34,3.27-.22,4.88.33,1.24,2.04,2.29,2.66,3.36.25.63.15,1.74.54,2.33.31.42.89.74,1.42.71,1.07.28,1.14,1.7,1.66,2.49.36.12,1.05.38,1.32.65.67.99-1.29,1.32-.85,2.2.63.42,1.58.68,1.99,1.39.36.69,2.24,4.45,2.36,5.14-.14,1.13,1.03,2.3,1.78,2.95.94,3.19,5.43,6.33,7.9,8.28,1.03,1.44,3.73,3.81,5.15,4.87.48.49,1.75,1.9,2.46,2.01,1.42.23,4.08,1.12,5.28,1.92.97.46,3.67.55,4.75.65,1.16.06,4.52,1.44,5.65,1.91,1.53.42,7.52.8,8.41,2.37.38.68.95,1.42,1.72,1.66.61.13,1.41.39,1.67,1.02.6,1.94,3.43,4.43,5.13,5.43.83.01,8.67-2.1,9.12-.86.8,4.81-2.48,11.05-.36,15.74,1.46,4.21,1.81,9.68,2.23,14.06.78,6.75,1.49,8.11-2.14,14.29.28.3,1.14,1.15,1.21,1.58-.05,1.1-.49,2.64-1.88,2.41.7.44,2.32,2.22,3.25,2.04.22-.12.75-.43,1.02-.41,3.36,1.89,7.64.37,11.13-.47.79-.09,1.98.03,2.76,0,.32-.07,2.9-.9,3.18-.75.81.11,1.7,1.27,2.44,1.55,2.49.24,3.55,3.53,4.55,5.38-1.12-.56-2.89-.4-3.42.87ZM1591.11,436.92v-7.15c0-.52.04-.91.11-1.18s.2-.46.4-.58c.19-.11.46-.18.82-.21.06-.18.1-.37.12-.57.01-.2.02-.41.02-.63-.27.01-.57.02-.91.03-.33,0-.67,0-1.02.02-.34,0-.66,0-.97,0s-.64,0-1.03,0c-.38-.01-.75-.02-1.1-.02-.35-.01-.64-.02-.88-.03,0,.21.01.43.04.65.03.22.07.41.12.55.36.04.63.12.82.22.19.11.32.3.39.57.06.27.1.66.1,1.18v7.15c0,.51-.04.91-.1,1.2-.07.28-.2.48-.39.58-.19.11-.46.17-.82.2-.04.15-.08.33-.11.55-.03.23-.05.45-.05.66.41-.03.9-.04,1.46-.05.56,0,1.11,0,1.65,0s1.06,0,1.55,0c.49.01.9.02,1.25.05,0-.23-.01-.45-.03-.68-.02-.22-.06-.4-.11-.53-.35-.03-.62-.09-.82-.2-.19-.1-.33-.3-.4-.58-.07-.29-.11-.69-.11-1.2ZM1602.46,431.41c-.42-.32-.89-.48-1.4-.48s-1.01.16-1.43.46c-.42.3-.78.69-1.07,1.15-.09.16-.19.39-.3.69-.06.19-.13.38-.2.57.08-.35.15-.67.21-.93.07-.34.11-.67.11-1s-.05-.56-.15-.73c-.1-.16-.24-.28-.42-.34-.31.16-.79.3-1.44.44-.65.14-1.33.21-2.03.21-.09.17-.16.35-.19.55-.03.19-.05.38-.05.58.44.03.76.1.96.21.21.11.34.27.4.49s.09.52.09.9v2.74c0,.51-.04.91-.11,1.2-.07.28-.21.48-.41.58-.2.11-.47.17-.83.2-.04.15-.07.31-.09.51-.02.19-.03.42-.03.7.37-.03.87-.04,1.51-.05.63,0,1.24,0,1.84,0,.37,0,.75,0,1.13,0,.38.01.74.01,1.08.02.34.01.62.01.84.03,0-.23-.01-.44-.02-.66-.01-.21-.05-.39-.12-.55-.49-.04-.87-.13-1.16-.27-.28-.14-.49-.36-.61-.68-.13-.32-.19-.76-.19-1.33v-1.03c0-.45.08-.86.23-1.23.15-.37.34-.67.56-.9.23-.23.44-.35.64-.35.26,0,.47.11.61.31.15.21.23.57.24,1.1.25,0,.54-.02.86-.06s.59-.1.78-.18c-.01-.29-.01-.6-.01-.95.01-.34.03-.68.06-1.02.04-.33.07-.63.11-.9ZM1613.1,438.33c-.34-.02-.6-.07-.76-.16-.17-.1-.28-.26-.33-.49s-.08-.56-.08-.98v-1.72c0-.93-.07-1.64-.23-2.13-.15-.5-.36-.89-.64-1.18-.24-.24-.59-.45-1.05-.63-.46-.17-1.07-.26-1.82-.26-.64,0-1.31.07-2.03.21-.72.15-1.36.35-1.91.6.07.41.12.82.13,1.23.02.41.01.79-.02,1.15.22.08.46.13.74.16.27.02.57.03.89.03.02-.35.09-.7.2-1.05.1-.34.26-.62.48-.84.22-.22.51-.32.88-.32.21,0,.42.03.61.1.19.08.36.21.5.39.13.13.23.29.29.47.06.18.1.39.12.65.02.26.03.58.03.96-.45.07-.93.15-1.44.24-.51.09-1,.22-1.49.38-.49.15-.93.36-1.33.61-.4.25-.71.56-.94.92-.23.36-.35.8-.35,1.3,0,.71.25,1.26.73,1.64.49.39,1.18.58,2.07.58.51,0,.96-.06,1.33-.18.38-.12.7-.3.96-.54.24-.18.45-.42.62-.7.1-.17.19-.36.26-.55-.02.1-.05.19-.06.29-.03.22-.04.41-.04.57,0,.31.04.56.13.74.1.18.26.31.48.41.44-.2.91-.36,1.42-.47s1-.17,1.47-.19c.1-.18.15-.38.18-.6.03-.22.03-.43,0-.64ZM1626.04,440.11c0-.27-.01-.49-.03-.69-.02-.19-.06-.36-.13-.52-.36,0-.61-.12-.77-.37-.16-.24-.24-.69-.24-1.35v-3.05c0-.78-.15-1.41-.44-1.89-.29-.47-.67-.82-1.15-1.03-.49-.21-1.01-.31-1.56-.31-.62,0-1.17.12-1.64.38-.48.26-.85.54-1.11.84-.14.15-.24.3-.32.46-.08.16-.16.32-.24.47.07-.22.12-.43.15-.64.03-.2.05-.39.05-.54,0-.32-.05-.56-.15-.73-.1-.16-.24-.28-.43-.34-.3.16-.78.3-1.43.44-.66.14-1.33.21-2.03.21-.1.17-.16.35-.19.55-.03.19-.05.38-.05.58.44.03.76.1.96.21.21.11.34.27.4.49s.09.52.09.9v3c0,.66-.09,1.11-.27,1.35-.18.25-.53.37-1.04.37-.05.13-.09.3-.12.52-.03.21-.04.44-.04.69.2-.02.47-.02.81-.03.35,0,.7,0,1.07-.02.37,0,.7,0,.99,0,.32,0,.65,0,.98,0,.34.01.67.01.98.02.32.01.57.01.76.03,0-.25,0-.47-.02-.66-.02-.18-.06-.36-.14-.55-.4,0-.69-.12-.86-.36-.18-.23-.27-.69-.27-1.36v-1.31c0-.7.09-1.29.28-1.75.18-.47.42-.83.72-1.07.3-.25.6-.37.92-.37.49,0,.87.16,1.13.48.26.33.4.91.4,1.74v2.16c0,.7-.1,1.18-.3,1.44-.2.27-.48.4-.85.4-.07.17-.11.36-.12.55-.01.2-.02.42-.02.66.2-.02.46-.02.79-.03.33,0,.68,0,1.04-.02.36,0,.69,0,.98,0,.44,0,.88,0,1.34.02.46,0,.83.02,1.12.04ZM1608.02,435.81c.34-.09.7-.17,1.08-.24v.54c0,.55-.09,1.01-.27,1.36-.18.36-.4.63-.68.81-.28.17-.55.26-.81.26s-.48-.08-.67-.25c-.19-.18-.29-.46-.29-.86,0-.3.07-.55.2-.76.13-.2.32-.38.57-.51.24-.14.53-.26.87-.35ZM72.67,370.77c-.87.46-3.13-.6-2.7,1.03.96.66,1.89-.31,2.7-1.03ZM183.43,304.29h-3.16c.02-.6.08-1.11.21-1.5.14-.44.34-.76.59-.97.25-.2.54-.31.85-.31.49,0,.87.24,1.12.73.26.48.39,1.16.39,2.05ZM183.43,304.29h-3.16c.02-.6.08-1.11.21-1.5.14-.44.34-.76.59-.97.25-.2.54-.31.85-.31.49,0,.87.24,1.12.73.26.48.39,1.16.39,2.05ZM975.48,426.19l1.11,1.04c-.03.61-.07,1.87-.73,2.19-.75.24-1.5.79-1.63,1.61,0,1.24,1.37,2.37.62,3.6-.79-1.91-5.97-1.61-7.65-1.79-2.97.76-5.23,3.37-7.65,5.01-1.08.89-5.12.99-5.85,2.22.02.55-.62,1.42-.94,1.82-.27.29-.48,1.04-.92,1.18-.68.09-2.53-.22-3.09-.67-.93-1.92-3.68-4.95-2.21-7.15.21-.36,1.05-1.04,1.45-1.15.74.01,1.56-.48,1.51-1.31-.1-1.58-.71-3.43-2.1-4.33-2.1-1.1-6.05-2.33-8.4-2.48-3.11-.25-4.92,2.79-6.97,4.58l-2.63.38c-.36.29-1.01.89-1.51.85-3.28-3.39-9.12.19-12.7-2.4-3.4-.9-2.18,1.85-6.57-1.5-1.5-.34-3.13-1.78-4.54-2.11-.27.04-1.1.1-1.34.27-.17.21-.62.46-.9.44-1.19-.05-6.86-3.04-8.04-3.11-1.65,0-3.85.58-5.38,1.17-.7.59-2.45,1.15-3.34,1.33-1.39-.01-4.7-.94-6.04-1.31-.42-.06-.58-.75-.63-1.09-.92-.84-2.92.28-3.88.5-.34.14-.68.55-.72.92-.48,1.83-6.85,7.6-7.18,9.5-.67.35-4.25.74-5.01.85-1.12.37-3.8.95-5,.95.3.72,1.69,2.03.59,2.58-.12-.34.33-.67.27-.99-.43-.26-1.46-.24-1.11-.97-.06-1.23.49-1.42-.7-2.33l-.38-.63c.11-.28-.02-.58-.27-.74-.41-.65.18-1.38.65-1.82.52-.13.69-.29.11-.57.67-1.07-1.25-.73-1.38-1.66-.42-.56-1.26.07-1.15-.97-.36-.89-.91.45-1.59.15-1.16-1.11-1.44.11-2.51-.42.24-.12.2-.32.1-.52.55-.7,1.74-1.44-.01-1.35-.01.12-.1.1-.18.11-.15.08-.11.23-.33.22-.07.14-.07.37-.26.4-.08.15.04.3-.05.45-.3.45-.86.8-1.32,1.09-.71.52-1.38,1.1-2.13,1.54-.46.28-.88.64-1.27,1-.13.24-.11.76-.51.64-.55.01-1.15.36-1.61.65-.31.29-.7.71-1.17.61-.35-.06-.99-.06-1.31.09-.37.38-1.05.46-1.53.63-.15.01-.14.16-.17.27-.33.12-.77.24-1.12.2-1.12-.13-2.27.34-3.36.62-1.25.26-2.78.22-3.93.81-1.42.13-3.77.63-5.18.67-.86-.15-1.75-.26-2.6,0-.13.21-.38.35-.62.2-.27-.01-.57.04-.82.12-.1,0-.24.09-.32.14-.13-.05-.2.1-.29.15-.58.07-1.12.49-1.68.64-.52.25-1.12.18-1.68.25-.2,0-.25.2-.39.3-2.22-.18-4.6-.08-6.83-.06-.32.23-.76.16-1.13.06-1.3-.11-2.78-.24-4.07-.03-.79-.1-1.76.11-2.5.43,0,.04.05.05.08.06-.22.54-.74.22-1.23.23.08-.73.04-.93-.74-1.06-.16-.02-.36-.16-.5-.23-.05.05-.17.14-.25.1l.03-.22c-.37-.18-.88-.25-1.29-.23-.16,0-.33.18-.5.09-.19-.16-.38-.06-.57.04-.3.02-.42-.14-.75-.03l.07-.11c-.14-.04-.61-.2-.76-.2l.06.12c-.36-.16-.34-.18-.83-.24h0s-.37-.06-.37-.06h0c-1.32-.32-2.84-.58-4.2-.54-1.06-.23-2.57-.67-3.64-.78-.45.04-.95.3-1.41.14-.37,0-1.39.22-1.67.47-.01.37-.25.69-.65.61-.13-.06-.52-.16-.59-.28-.11-.24-.27-.84-.65-.59-.1.07-.24.27-.38.28-.21-.03-1.04-.11-1.23-.22-.46-.62-.71.26-.89.59-.12.15-.36.14-.52.04-.21-.04-.47.07-.68.09-.31,0-.61.06-.87.23-.25.06-.55-.03-.8.01-.35.12-.65.4-.96.59-.46.21-.95.4-1.41.61v.03c-.5.18-1.02.34-1.44.7-.37.13-.93.06-1.32.1-.35.06-.65.4-.95.58-.43.29-1.11.58-1.56.84-.68.46-1.58.35-2.36.47-1.31.17-2.65.23-3.95.44-.4.16-.77.35-1.04.69-.23.26-.54.48-.54.86-.24.41-.91.85-1.33,1.09-.2.09-.43.05-.64.12-.4.17-.81.49-1.2.69-.75.47-1.63.77-2.43,1.14-.44.19-.97.18-1.42.34-.31.21-.57.52-.9.71-.57.31-1.21.57-1.66,1.04-1.09.4-2.34.51-3.51.56-.59.09-1.17.32-1.75.46-.36.12-.94-.05-1.04.43-.21.45-.74.67-1.1,1.01-.47.32-1.15.19-1.69.31-.91.28-1.81.68-2.71.98-1.52.65-3.35.7-4.76,1.5-.22.08-.38.37-.61.46-.31.06-.56.27-.86.33-1.66.1-3.58.18-5.23.29-1.16.49-2.38.95-3.59,1.26-.85.08-1.73-.02-2.58.16-1.52.25-3.04.61-4.53,1.01-1.64.15-3.33.2-4.97.33v.02c-.13.04-.22.06-.36.02v-.02c-2.77.19-5.47.97-8.24,1.18-.89.03-1.81-.38-2.69-.52-1.61-.28-3.2-.77-4.77-1.22-1.72-.38-3.49-.2-5.22-.02h0s-.25,0-.25,0v.03c-.94-.06-1.92.07-2.87.18-2.41-.05-4.97-.19-7.38-.3-1.91-.59-3.73-2.18-5.24-3.47-.51-.37-1.19-.67-1.64-1.1-.3-.13-.64-.3-.67-.67-.06-.13.02-.29.01-.43-.04-.17-.26-.25-.42-.21-.9.47-.82-.38-1.29-.82-2.3-.88-5.71-2.03-8.05-2.86-.63-.13-1.3.11-1.94.08h0s-.02.01-.02.01h0s-.12,0-.12,0c0,.03-.04.02-.06.02h0s-.17-.01-.17-.01v-.02c-1.29-.09-2.82-.43-4.07-.77-.34-.22-.85-.51-1.26-.36-.24.13-.43.38-.7.46-.16.12-.31.3-.54.27-.5,0-.91-.08-1.41-.05-.23-.07-.49-.19-.73-.07-.1.03-.22.11-.21.23.06.12.05.28-.09.34-.41.04-.83.38-1.23.18-.17-.04-.26.12-.4.18-.13.02-.28.01-.37.13-.04.11-.15.14-.24.19-.1.06-.11.21-.24.22-.12.05-.26-.03-.38.02-.1.03-.14.13-.23.18-.15.09-.32-.02-.46-.06-.38.04-.85.15-.99.56-.22.35-.48-.04-.75.03-.11.07-.29.04-.41.06-.12.05-.22.17-.36.17-.15,0-.22.15-.31.24-.17.06-.18.25-.18.4-.02.14.14.32.18.45-.03.3-.4.45-.62.61-.27.17-.46-.17-.72-.17v.03c-.05,0-.15-.03-.19-.04v.07s-.09-.02-.09-.02v-.04s-.15-.04-.15-.04c.01-.01.01-.04,0-.05-.24-.07-1.39.53-1.64.55-.65.02-1.44.13-1.95.56-.14.08-.84.84-.97.86-.14.06-.95.14-1.12.17-.12,0-2.39.89-2.55.94-.37.12-1.15.17-1.5.33-.21.16-.39.45-.61.59-.78.14-2.09-.06-2.88-.09-.32-.02-1.06-.4-1.37-.22-.43.25-.7.83-1.29.6-.18-.13-.34-.29-.58-.26-1.02.52-1.92,1.42-3.1,1.69-1.74.75-3.68,1.21-5.27,2.24-.17.2-.06.63-.1.87-.15.31-.49.64-.68.93-.34-.2-1.09.03-1.48,0l-.92-.56c-.25,0-.63.04-.87.02-.36-.14-.81-.32-1.21-.38-1.68-.31-3.43-.81-5.14-.9v.27s-.13-.02-.13-.02l-.02.05c-.63-.34-1.75-.38-2.42-.41.03-.08-.06-.03-.09,0-.08-.05-.15-.05-.23-.11-.08-.11-.44.05-.54.07-.33.19-.88.24-1.18.49-.29.04-.77.24-1.06.3-.08-.09-.24-.29-.38-.22-.17-.29-.5-.48-.63-.79-1.28,1.07-.7.24-1.76.28-.12.64-.48,1.41-1,1.82-.35-.13-1.07-.4-1.41-.53-.01-.03.02-.43.02-.47-.6-.18-1.14-.59-1.8-.55-.02-.24.05-.72-.08-.88-.2-.02-.22-.24-.08-.35-.3-.43.43-.36.69-.38.06-.03.16-.04.21-.09.01-.06.03-.09.09-.09.06-.03.14,0,.13-.09.01-.08.06-.16.02-.24-.02-.1.09-.04.13-.1.02-.08-.01-.16.11-.16.11-.04-.03-.09.09-.23.05-.07-.08-.11-.04-.18-.06-.05.03-.14-.03-.17-.05-.02-.02-.13-.09-.19-.06-.06-.03-.2-.16-.19h0s-.05-.02-.07-.03c0,.02-.03,0-.05,0h0s-.03-.01-.03-.01c0-.07-.09-.07-.14-.08h-.14s-.15,0-.18,0c-.07,0-.14-.02-.21,0,0,0,0-.02-.02-.03-.05.03-.12-.02-.17.02v-.02s-.1.06-.09-.02c-.06-.02-.06.07-.11.04-.02-.04-.07.05-.07-.02-.21,0-.46-.04-.64-.14-.13.07-.3-.05-.45-.09.03-.23.64-.32.17-.53.02-.13-.01-.25-.14-.31.01-.06.11-.04.16-.07.03-.07.05-.15.06-.23-.19.02-.42.11-.61.17-.67-.02-1.37-.38-1.94-.74v.03c-.07,0-.14.1-.21.12-.06-.02-.13-.11-.19-.05-.06.06-.14.07-.22.04-.09-.12.22-.29-.02-.3-.13-.02-.1.13-.21.07.03-.04.02-.11.03-.16-.07-.06-.16-.04-.22-.1h.01s-.03-.08-.04-.11l-.13.06c-.31-.18-.7.3-1.03.31-.64.05-1.4-.07-1.99-.31-1.1-.3-2.35-.35-3.46-.63-.44-.12-.83-.43-1.25-.61-.24-.17-.48-.46-.79-.49-.15-.07-.31.1-.46.08-.17-.13-.48-.04-.61-.21.07-.1-.23-.14-.31-.16h0c-.09.04-.13-.06-.2-.07-.01.07-.13.03-.18.05-.02.03-.02.07-.06.06.01-.05-.11-.06-.1,0-.03.01-.02-.03-.05-.02h0s-.14-.04-.13.03c-.02,0-.02-.02-.04-.02,0-.08-.24.05-.31-.08-.1.03-.2-.02-.29.03v.02c-.05-.03-.08.01-.12.03-.07-.03-.16-.02-.22.02-.12-.13-.15,0-.21-.03-.12.03-.09-.07-.16-.08l.04.08c-.12-.11-.4-.11-.55-.06v.02s-.05,0-.08.01c.06.06.17.06.19.14,0,.04-.05.09-.01.12.09,0,.15-.03.1.09-.06.05-.15.09-.19.17.03.04.06.14-.02.12.05.09.06.08.11.02.05.02.04.1.09.1.05.07-.04.09.01.15-.01.05-.07.08-.12.08-.02.04.01.07.05.06.02.02.04.09-.01.09-.01.09.13.08.11.18-.04.03-.08-.03-.09-.06-.05,0-.1.03-.15.03,0,0,0,.02-.01.02.09.12-.22.03-.11.19,0,0-.02.02-.03.02-.1-.05-.01.11-.09.12-.06.06-.18-.04-.21.03-.06.04-.06.12-.1.17-.05.02-.24,0-.19.09-.02,0-.04.04-.07.03h0c-.06-.03-.08,0-.13.02-.03,0-.08-.05-.09,0-.04.05-.11.1-.09.17-.06,0-.07.07-.08.12,0,.02.04.03.06.03.06.12-.16.12-.11.21-.02.06-.11.04-.1.11,0,.04.08.21.02.19-.15-.07-.03-.07-.25-.09-.01.05.1.2-.05.15-.05.09-.28-.02-.29.1.18.36-.19.06-.1.27-.11,0-.25.39-.4.5-.04.12-.3.18-.21.32.06.02.12.05.14.11-.01.03-.06.03-.07.07.14.08.14.09.04.2.15.1.21.23.15.39.12,0,.29.29.35.38.05-.01.09.03.13.04.09-.06.1-.02.1.06.03.07-.04.18.05.24,0,.13-.07.25-.12.37-.02.07-.11.08-.16.12,0,.09-.13.1-.14.2-.04.03-.22.22-.16.25-.12.06-.34.04-.35.23.08.02,0,.14-.04.17.02.05.04.08,0,.13-.04.05-.13.07-.14.12-.01.06.01.14-.03.2-.09,0-.16-.03-.25,0-.07.06-.07.23-.18.23-.07-.01-.12.06-.19.08-.09-.03-.13.02-.19.07-.06.04-.16-.01-.13.1-.01.06-.08.13-.04.19,0,.15-.06.04-.16.05-.1.03-.19.19-.29.16-.09.07-.3-.16-.26.09.07.52.12,1.09.18,1.61-.18.26,0,.76.14,1.02.29.19.37.62.55.9-.25.25-.43.95-.54,1.31-.2.3-.27,1.25-.47,1.53-.32.52-.91.82-1.33,1.27l.12.05v.03h-.05v.17l.13-.04c-.05.32.15.41-.26.57.04.15.12.3.3.27.65.26-.19.74.65.81-.04.06-.14.17-.2.22.07.07.05.19.01.27l.05.02-.16.07c.13.07.06.17-.04.22-.03.29.25.47.49.41.16.29-.18.65.06.99.38-.14.55.33.67.59h.03s.28.75.28.75c.29-.08.69.03.97-.03-.12.23-.04.49,0,.71-.08.17-.26.27-.45.24.03.16.19.25.32.3.24.14.5.32.75.45-.23.24-.61.4-.95.4.04.34.14.78.29,1.09l.05-.03c-.02-.06-.06-.09,0-.14-.11-.09.01-.16.09-.07.12.03.05-.11.05-.17.06.01.23-.12.24-.08.13.18.36.13.48-.02.03-.08.12.08.18.03.08-.11-.17-.31.01-.34.28-.14.56.21.71.41.18-.05.57-.12.75-.09.03.24.38.32.41.58-.12.04-.21.13-.18.26-.21.02-.23.23-.21.4h-.15c.06.06.13.14.11.23h-.07l.04.46c.43.06.98-.11,1.37.08l-.02.08c.08.03.16,0,.23-.02.07.02.15.03.2-.03.19-.02.13.25.15.37-.29-.09-.29.46-.62.3-.22.35-.23.67.2.83.39.52.65,1.32-.3,1.29.01.07-.04.29.08.3-.3.16-.58-.24-.91-.11.03.09.11.21.15.29-.77.26-1.5-.75-2.22-.39h.08c-.07.22.13.23.28.24-.1.08-.27.25-.18.43h.13s-.17.46-.17.46c-.61-.03-1.38-.63-1.95-.59-.32-.19-.72-.45-1.12-.54-.12.1-.12.21-.02.33-.06,0-.36.29-.39.32-.34-.19-.73-.74-.97-1.04-.24.1-.48.13-.73.1-.26,0-.58.11-.82.04.01.11-.03.53-.11.57.07.07.04.16.15.23-.17.23-.58.01-.59-.24-.13.05-.29-.09-.4-.09.03.07.17.31.16.38-.17.08-.07.22.01.32-.25.1-.5.19-.63.41-.17.11.03.28-.02.43l-.17.02c.05.14-.13.19-.23.2l.02-.06c-.24-.02-.62-.19-.42-.48-.4.04-.93.1-1.33.03-.56-.27-1.15-.65-1.72-.88l-.27.29c.05.15-.61,0-.33.28.05.07.09-.02.12-.06.11-.09.3-.05.3.11-.05.15-.21.1-.16.28.09.03.15-.09.13-.17.17-.05.27.3.32.42-.1.05-.1-.11-.18-.13-.1,0-.12.12-.06.18.02.04,0,.09-.05.1-.07.11.1.17.18.18-.13-.11-.06-.32.08-.19-.28.14.48.24.08.42.04-.06-.02-.15-.07-.07.02.09.04.21-.09.2-.11-.04-.41-.04-.3.14-.06.13-.26.05-.32-.03.38-.14.29-.24-.06-.13-.06.04.02.15.04.19-.02.11-.15.11-.19,0-.06.04-.08.15-.18.16-.03.03-.03.12-.09.12-.04-.08-.2-.13-.24-.03.06.11.25.22.33.33-.01.16-.07.13-.16.04-.1-.02-.03.11-.09.15-.06.05-.16-.03-.19.07.03.08.14,0,.18.05,0,.1-.07.21-.08.31.16.02.26.18.42.1.07.06.15.08.23.11.09.17-.15.09-.22.13.08.2.11.38.32.16.11,0,.11.11.32.17-.02.02-.04.08-.03.11-.03,0-.08,0-.1-.03-.09.07.11.11.08.18-.08.02-.26,0-.17.13-.05.07-.17.15-.08.23-.08.07.03.07.07.12-.09.05-.24-.07-.31.08-.23.05-.14.08,0,.19-.17,0-.44.16-.25.19.36-.19.16.09.34.17.01.05.02.17-.07.13.01-.21-.31-.2-.39-.06.11.04.37.21.21.32.02.08.14-.02.18-.03.12-.05.22.13.14.22-.26-.11-.48.13-.13.21.14-.1.06-.27.32-.07.08.07.14.59-.09.39-.02-.09-.08-.19-.18-.21-.2-.03-.08.11-.08.22.04.09.18.14.19.25.2.15.66.49.21.61.16.13-.08.24-.17.12-.07.03-.19.1-.2.18.02.01.07.02.08.05-.11.1.02.17.04.26-.2.13.07.24,0,.38-.02,0-.09,0-.1.03.1.16.56.1.35.38-.05,0-.08-.06-.13-.07-.05.07-.14.1-.22.11.01.07.06.15.07.22.15-.02.56-.03.45.21-.13.08-.42,0-.48.16.19.12-.11.13-.11.24.33.12-.21.22-.3.33.07.06.16.1.04.17.04.09-.09.04-.13.06v.03c.76-.03.02.18.32.39-.23.35-.63.57-.99.75-.33.23-.76.47-1.16.33-.37-.35-.73-.78-1.26-.87-.22-.1-.39-.26-.63-.13-.64-.19-.34.93-.38,1.3.22.2.23.6.46.77.3.2.07.46-.14.61-.36.28-.81.37-1.2.1-.15-.21-.35-.43-.61-.48-.57.02-1.14.19-1.68.36-.32.05-.7.1-.98.28-.75.5-1.51,1.41-1.36,2.31,0,.03-.01.09-.03.12.07.07-.02.12-.03.18.02.03.07.09.01.11.06.11-.03.23-.09.32h.04c.01.09-.06.18-.13.22,0,.1.07.23.11.32.05.12.36.62.07.56.12.21-.03.54-.12.74.22.29.01.41.15.74-.09.06-.03.2-.15.26.07.15-.11.15-.15.25-.04.04-.28,0-.2.08.1-.01.04.09.1.13-.17.19-.09.14.02.28-.15,0-.13.1-.21.17-.19.05-.21.03-.25.17-.26.09-.51-.18-.73-.28-.21-.15-.12-.58-.06-.8-.08-.02-.04-.12-.02-.17-.08-.03-.15-.28-.2-.38-.11-.09-.58-.48-.63-.61-.28-.02-.28-.35-.51-.4-.3-.08-.78-.07-1.07-.17-.18-.15-.51-.4-.76-.28-.42.24-.68-.27-1.08-.33-.31-.2-.67.11-1.02-.04-.24-.4-1.23-.02-1.62-.07-.14-.2.22-.65.29-.83.03-.15.15-.29.25-.38-.04-.03,0-.09,0-.13-.08-.08.11-.22.13-.32.53-.34-.21-.9-.33-1.32-.11.06-.26.04-.37.11-.03-.11-.19-.01-.25,0l-.03-.07c-.32.01-.82-.12-.94.23-.03.12-.11,0-.17.07-.15,0-.26.16-.4.24-.08.04-.17.12-.21,0-.07.02-.09-.02-.15-.05-.32-.03-.89.36-1.17.47-.12-.03-.27-.08-.39-.04h0c-.11-.06-.14-.32-.28-.36-.05.08-.13.03-.2,0,0,0-.02.03-.02.04-.03,0-.08.02-.07.06h.02s-.07.05-.04.08h-.01c.02.07-.06.07-.11.08h0s-.08-.02-.1.01l.02.02-.04.02s-.09-.01-.08.03h-.02s-.04-.02-.05-.02v.04h-.04s.01-.02.02-.02h-.01s-.04,0-.06,0h0c7.16-5.64-2.06-11.92-5.76-17.29-1.97-3.31,10.44-10.24,12.84-12.64,8.49-3.88,7.85-3.2,6.91-12.46-9.97-13.75-11.64-.85-21.48,1.24-2.58.19-5.4-.28-7.09,2.09-.62,1.5,2.28.74,3.11,1.2.62.69-1.44,1.37-1.57,2.14-1.18,7.29-8.51,1.35-12.34,4.5-5.16,2.17-11.16-4.4-16.38-5.81-9.76-3.08-16.16-10.65-26.05-2.48-7.83,4.73-16.7,9.84-22.03,17.2.62,4.99-3.02,3.45-5.35,6.26-.39.32-.85.16-1.12-.38-1.44-3.56-5.18-2.33-6.58.55-1.54,2.11-4.73,2.31-6.01,4.7-.23.48-.59.37-1.11-.22-1.35-2.34-3.84-.68-4.88.96-2,1.32-4.52-2.04-6.82-.21-1.29.8-2.65.44-3.96-.03-2.91.68-6.09,1.05-9.19.58-3.49.51-2.64,3.5-7.88,1.96-4.21-1.15-6.9,2.76-10.56,3.34-6.49-.67-12.6-3.46-18.33-6.4-8.4-4.23-11.13-15.21-19.94-18.7-17.03-4.53-31.98-15.21-50.18-15.54-4.34-.35-9.29,1.43-13.24-.74-4.19-1.72-8.02,4.5-7.04,8.26-1.07,9.94,3.39,1.83-4.05,13.8-1.26,1.53,2.14,3.27.68,4.56-1.49,1.47-1.52,3.6-3.72,4.63-1.27.42-.77-2.19-2.39-2.03-3.56-1.3-8.4-3.64-11.58-.32-1.33,2.82-4.83.7-7.05,2.82-1.77.72-3.97-.91-5.03,1.35-1.63,1.03-3.37.48-4.78,2.37-1.43.96-2.83-1.13-4.36-.08-1.97,1.33-3.21-1.05-3.9-2.51-3.41.08-9.75.08-10.56-2.54-1.57-.99-2.54,1.32-4.14.42-3.36-2.97-7.3-4.2-10.6-7.11-.74-1.01,1.09-2.03.17-3.18-1.06-1.42.86-2.94-.29-4.26-.69-1.9-3.11.46-3.66-1.55-.86-2,1.62-2.63,3.11-2.95,2.12-2.35-5.61-3.73-7.12-4.96-1.41-.59-5.65,2.67-4.18,4.11,1.18,1.23-1,3.54-1.9,1.93-.65-4.02-4.48-4.68-7.87-4.65-.78-.47-2.41.06-2.54-1.19.52-2.13-.84-5.04-3.31-4.17-1.45,1.71-4.19.42-4.99-1.31-.09-.62-.7-.54-1.19-.51-1.1.52.53,2.92-1.71,2.9-1.33.08-2.48-.92-3.81-.5-1.03.73-2.18-.07-3.22.49,2.01,3.72,4.65,1.75-3.43,5.69-1.67.2-1.33,2-2.35,2.99-1.32,1.57-7.33,4.53-8.01,1.21.35-1.53,2.46-.75,3.59-.97,2.18-.67.54-2.55-1.06-2.55-5.01-1.4,1.94-2.24,1.28-4.26-2.34-1.27-5.68.94-8.4.03-2.67.8-6.85-2.02-8.5,1.32-1.21,4.03-2.91,2.49-6.04,2.21-2.68.35-5.33,1.67-8.07.57-3.42-1.56-1.19-1.55.31-3.34,1.75-1.99,7-1.17,9.77-1.88.51-1.46,1.99-2.06,3.21-.96,1.65-.06,5.08-.13,4.94-.28,2.24-2.92,11.52,2.34,11.6-1.62.78-9.09,4.07-3.1,9.18-6.7-.06-1.37,2.2-.11,2.28-1.65.71-1.42,3.14-.52,3.24-2.24-6.88.5-13.47,1.34-20.27,1.04-6.63,1.21-13.06,1.86-19.78,1.97-3.29,2.08-.35-3.56-7.57-1.59-3.33,3.94-4.1,3.05-5.55-1.49-.16-2.3,3.73-4.63,5.78-4.86,4.41.7,5.38,5.15,9.58.21-2.06-2.47,2.53-3.75,3.39-5.7.17-2.81-1.64-1.12-2.93-.85-.56,1.47-2.33,2.24-2.34.04-1.51.9-2.62-.29-.97-1.21.35-2.81-.82-1.53-2.18-.44-1.22.76-3.63-1-2.77-2.33.69-.74,1.57-1.33,1.81-2.36-3.47-.98-4.33,3.98-9.55,2.99-2.46-.84-.12-3.69-.63-5.53.04-1.48-1.48-2.91-1.26-4.37,2.5-4.83-5.86-3.75-8.56-5.46-1.91-2.54,11.47-.13,11.8-5.77.19-.87.27-1.7-.35-2.45-.98-2.55,3.28-6.94-1.83-8.09-6.11,1.56-10.62-7.48-16.69-2.8-1.98-.77-1.16-3.81-2.8-5.17-.84-.94-2.23-.88-2.42-2.37-.08-.24-.52-.53-.79-.53-8.24-.5-4.05,1.89-8.06,4.76-1.13-.88-2.75-.21-3.36-1.91-1.26-2.16-3.06-2.32-5.15-2.99-1.86-1.82-4.22.18-5.88-2.05-.68-.88-3.09.16-3.17-1.33,1.52-1.07,2.99-.33,2.82-3.12,1.25-2.14,2.35,3.5,6.27.46,1.57-.44,4.35-3.69,3.96-5.09-1.14-1.03-3.14-2.2-4.53-1.07-.14.08-.28.19-.43.32.09-.12.13-.28.12-.5.36-2.7-2.4-4.86-2.16-7.76.23-3.34,5.74-2.99,7.67-1.27,1.82,1.25,2.6,4.35,4.51,5.5,1.11.67,2.07,2.22.86,3.32-2,1.23-.44,2.98.59,4.24.74.94,1,3.81,2.69,3.05-1.73-6.22,3.45-5.16,1.61-7-1.08-.7-1.95-1.36-1.21-2.87,1.72-2.09,2.98,2.32,2.66,3.6-1.6,7.21,8.56,3.05,12.24,2.09,2-1.02,4.13,1,5.93-.56.55-.43,1.47-1.36,1.11-1.98-2.08.48-4.05-.86-6.11-.15-1.42.27-3.1,1.48-4.35.19-.76-2.47-5.8-2.43-4.82-5,.31-2.6-3.81-2.17-4.35-4.45-.22-1.29-1.31-3.41.3-4.19,4.11-1.92,5.95.69,7.76-.98,1.54-.94-.43-1.89.22-2.98.8-.98,2,.31,2.78-.61,1-2.38,5.12-.83,3.91-4.05-.3-1.34-1.74-.35-2.56-.34-2.59-1.7-5.45.49-7.97-.74-5.9-4.31,3.32-5.61,1.98-8.05-1.43-2.89-5.27-2.62-6.62-5.43-.38-1.34-.85-2.71-2.44-2.93-1.05.14-3.98.6-3.8-1.04,1.13-1.47-.52-2.98-.62-4.64,2.92-1.5,3.02,3.12,5.96,1.69,1.6-.45,3.86-1.35,4.06-3.3.06-.49.54-.76,1.09-.89,1.12-.26,1.15-.29,1.51-1.15.29-1.16,1.76-.79,2.61-1.15,1.87-1.09,2.69-5.42-.64-4.96-2.63,1.11-5.23.87-8.08.72-4.36.74-8.84,1.57-13.28,2.35-5.74,1.5-12.26,3.69-18.14,2.62-3.04-3.3,3.64-6.74,3.4-10.24-2.29-26.12,4.47-9.5,10.18-20.33-7.15-1.07-13.73,8.01-4.83-5.63,1.83-2.45-3.54-4.8-.54-6.74,8.13-3.81,16.26-7.61,24.51-10.18,2.46.07,5.17-2.47,2.71-4.56-2.55-1.47-6.06.84-9.04.23-2.43,0-4.28,2.97-6.77,1.63-1.83-1.16-3.53.57-5.48.07-5.47-.12-16.11,3.45-15.98-5.04-.09-1.07,1.52-1.27,2.3-1.65,1.79-1.01,2.07-3.55,4.34-4.18,1.49-1.1,1.47-3.7,3.9-3.66,1.35-.31,1.51-2.13,3.14-2.23.99-.61-.16-2.13.85-2.74.87-1.03-.98-1.98-1.34-2.95-.48-.98-.07-2.29,0-3.43.25-.49,0-.98-.21-1.46-.6-1.16.4-2.29.29-3.51.19-2.3,3.02-.34,4.33-1.5,2.79-1.01,4.84-5.11,8.07-3.19,2.12.19,3.13-2.34,2.36-4.08-1.86-2.74-.29-8.95-2.96-9.85-2.33-.15-3.16-2.53-5.19-3.13-3.44-.22-8.48-2.82-4.76-6.44,2.32-2.28,6.96.61,9.25-1.87,1.92-2.02.23-5.27,3.65-6.1,2.29-.65,4.95,1.04,7.11-.24,1.12-.68,2.42.36,3.54-.08,11.94-1.72,6.02-7.6,15.98-4.48.69.1,1.36-.14,1.86-.65,2.65-2.57,6.5.16,8.55,2.14,1.51,3.57,6.55,2.83,7.86,6.04,3.73-1,7.67-4.39,11.68-2.36.73.42,1.66.62,2.18-.32,1.43-3.19,4.02.01,6.27-.57,2.61-.62,5.14.34,4.79,3.37.13,1.78-2.55.5-2.99,2.06-1.2,3.59,5.25,7.75,5.95,11.84,13.19,11.66,32.35,15.57,48.77,19.23,1.05,1.98-3.66,2.25-2.73,4.53.43.89-.05,1.31.04,2.27-1.82,2.09-1,1.8-2.75,2.69-1.25.42-1.25.47-.96,1.82-3.72,1.35-7.01,2.8-10.78,1.39-2.27-.1-5.57,1.97-7.38.03-.24-.83-.6-2.52-1.79-1.74-1.18,1.15-2.5.82-3.73.02-4.51-2.39-10.05-2.71-15.02-2.91-4.49.16-8.58,1.35-11.29,4.91-6.31.2-9.61-3.64-16.98-.79-3.01.3-6.06.73-6.7,4.26-.36,3.33-3.53,4.22-5.66,6.28-1.66,3.08-4.18,4.74-7.32,6.14-7.02,2.73-13.91,5.25-21.09,7.82-2.75.21-3.55,3.06-5.66,4-1.86.45-1.47,3.08-3.23,3.78-3.5,1.5-6.12,4.39-9.73,5.65-1.31.31-1.65,1.58-1.18,2.8.55-.08,1.09-.16,1.63-.25.02-2.8,3.81-1.28,5.37-2.83,3.41-3.03,7.15-5.58,10.8-8.51,4.14-1.69,8.9.48,13.15.19,2.9-.22,4.61-4.19,7.9-2.82,2.04,1.01,3.88-.94,5.87-.93,1.94.58,1.74,2.19,1.58,3.64,2.93,3.05,7.86,3.98,11.97,4.3,3.23-2.66,7.45.75,11.18-.64.79-.42,1.13-1.39,2.1-1.3,1.3-.62,1.51-2.49-.27-2.38-1.29.16-2.25-.65-3.08-1.5-9.76-6.72,3.96-4.81,8.38-4.1,1.76.55,6.75.72,3.41,3.25-1.45,1.05-4.92,1.03-4.18,3.46,7.92.01,15.81-2.85,23.89-1.5,4.83-.58,9.27,2.4,14.05,1.29,11.18-3.36,10.9,5.01,22.22-2.82-2.36-4.44-8.71-.06-12.48-2.35-1.13-1.67-4.76-.99-4.99-2.75,2.02-2.79,6.66-2.25,9.2-4.81,2.62-1.43,5.81.08,8.57-1.13,4.37.04,8.52-.8,12.48-2.1,2.2,1.31,3.61-2.05,5.65-1.25,2.55,3.05,7.02.68,10.49.42,2.83-1.84,7.54.88,9.48-1.21-1.29-1.99-4.26.46-6.19-.41-2.05.41-3.68-1.7-5.85-1.36-5.16-.42-10.69,1-15.66.56-.66-1.18-1.25-2.59-2.91-2.39-1.63-.31-1.27-2.85-3.21-2.86-3.49-.4-5.6-3.02-8.53-4.44-5.06-2.28.01-3.19.71-5.43.26-.15.75-1.3,1-1.47.89-.6.32-.93-.22-2.04-.51-1.51,2.19-1.86,2.45-3.3,11.33-2.2,23.07,2.97,34.61,3.28,7.5.32,14.99,1.29,21.45-2.92,15.59,4.09,31.5,8.53,47.71,4.77,3.14-.55,6.23-2.87,7.22-5.9.63-1.35-.68-3.46.52-4.34,8.69-2.71,16.93-6.62,25.15-10.53,5.65-2,11.93-3.61,15.98-8.07,1.36-.53,3.33.26,4.19-1.33.91-1.6,2.88-.69,4.15-1.6,6.06-4.1,13.68-4.12,20.72-5.4,4.96-.03,8.84-3.75,13.72-4.23,11.99-5.9,24.39-.81,37.1-1.19,9.91-1.43,19.46,2.98,29.23.19,10.28,2.87,17.67,1.8,24.56-6.1,2.41-.32,2.89,1.8,4.43,2.97,2.9.51,2.28,1.99,1.42,4.07-.67,3.56,3.66,5.23,5.09,7.9,3.58,4.87,10.69,5.33,15.96,7.58,7.63.43,12.81-2.15,19.6-4.23,1.19-.7,2.31-.4,3.41.22,12.44,4.79.17,13.09,15.67,19.13,3.16,4.02,8.98,5.67,12.78,1.23,2.66-4.24,4.21-3.81,8.63-2.91,4.56.53,10.53,1.95,13.57,5.4.25,1.29.11,2.98,1.45,3.67,6.68,2.3,13.93,1.48,20.11,5.45,7.15,6.71,6.84-4.86,13.89-2.45,2.47.07.99,4.37,3.96,4.53,8.03,3.69,17.94,2.75,26.41,5.35,3.71-.32,7.85.78,11.03-1.69.82-.52,1.82-1.29,2.83-.79,4.07,1.95,7.87-2.61,12.08-2.92,2.71-1.57,5.74-.14,8.63-.84,2.59-.25,4.82-2.62,7.39-1.05,3.84,2.43,7.49-2.53,11.26-1.85,4.23,1.18,7.27,5.91,12.17,4.71,5.65-.38,8.9,3.57,14.98,2.23,8.32,4.1,11.47,1.59,18.77-3.06,5.57-.65,10.72-.86,16-3.2,2.3-1.45,3.95-3.93,6.77-4.61,4.22.05,8.68-.54,12.29-3.03,4.81-3.6,10.87-5.33,16.02-7.97,1.3-1.63,2.76-3.01,4.49-4.14,2.13-1.99,2.11-1.57,4.54-.67,2.81,1.39,6.1.41,8.71,2.53,3.52,2.59,5.83-3.47,9.09-3.42,2.17,1.9,6,.38,8.87.76,4.58.71,9.18,1.6,13.61,2.81,9.33,2.45,1.57-10.01,19.07-6.8,1.1.52.17,1.94-.21,2.69-1,1.86,1.25,2.91,2.61,2.04,2.01-.24,4.01,2.09,5.44,3.43,1.22,2.61,4.36,2.55,6.46,3.88,1.03,1.52,3.65.91,4.35,2.37.03.61-.63.76-1.06,1.02-.53.35-.51.5.1.97,1.06.61,1.65,1.72,2.41,2.65,2.31,2.17,5.72-1.11,8.4.62,3.69.64,2.3,4.8,3.14,7.25,2.41,3.02,8.7,1.76,10.22,6.1-.17,2.82,1.79,4.67,2.92,7.02,2.35,4.96-2.59,10.57-7.26,13.2-.7.42-1.58,1.13-.67,1.94,5.59,3.52-2.1,4.81,4.33,9.75,1.49.35.74,2.17,1.05,3.23,1.7.8.85,2.47-1.02,2.35-.08,4.31,6.19,2.64,8.66,4.85,6.91,3.48,15.74-.51,23.17.59,5.59,1.82,10.85,4.59,14.07,9.68,3.66,2.94,8.42,4.94,10.77,9.45-.8-.41-4.27-2.37-4.92-2.84-1.99-.54-3.78-1.4-4.93-3.19-1.44-1.52-5.9,2.71-7.18,3.17-.37.37-.02,1.73.04,2.16.04,1.08-1.53,3.06-2.05,3.94-.26.61-.39,1.5-.22,2.15.27.61.2,1.39-.36,1.8-.59,1.56.62,2.63-.92,3.89-3.44,2.01-5.68,1.96-9.2.25-1.37-.33-3.6.55-4.97.54-1.42-.27-3.22-.04-4.14,1.19.19.79,1.6,1.49,1.81,2.26.09.58.52,1.56.87,2.02.03.35-.21.77-.12,1.13.13.52.85,1.25.81,1.82-.1.31-.45.98-.29,1.31,1.63,1.39,5.32,1.49,5.75,3.91-.32.47-1.17,1.68-1.22,2.26.35,1.41.83,2.28-.82,3.04,0,0-.69.9-.69.92.35.32.52.99.63,1.43.52.68,1.39.69,1.12,1.78,1.72,5.11,5.09,2.35,5.15,5.6-.28.64-1.49,3.89-1.53,4.54-.06.77.89,1.76.37,2.44-.19.08-.52.44-.58.64,3.21.73,2.67,2.01,2.35,4.76.48,1.64.54,3.77-.23,5.32-.03.95.31,2.15-.05,3.07.28,1.2,2.83,1.06,3.77,1.3,1.16-.62,2.6-1.27,3.71-.15,3.02,2.66-1.8,4.06-3.26,5.8.24,1.69.35,4.07-.95,5.37-.46.19-1.43.31-1.35,1,1.16,1.84-1.27,1.08-1.92,2.62-.15.47-.56,1.37-.83,1.78-.96.72-1.88,1.91-2.36,3-.22.61.23,1.33.2,1.94-1.01,1.2-1.63,1.3-.29,2.65,1.38.47,4.1-.24,5.47.07,3.93,1.02,1.78,2.24,3.97,3.25.37-.15,1.07-.23,1.07.33-.19.51-.34,1.21.13,1.63.66.16,1.51-.14,2.1-.44,2.26-.63,4.3,1.52,5.74,2.96.49.97-1.55,1.73-2.09,2.19-.49.22-.56,1.48-.63,1.92.45.47,1.5,1.27,2.1,1.55.45.95-.48,2.08-.58,3.04-.22.93.13,2.17.37,3.06-1.41,2.34-.04,2.67,2.13,2.7,1.96,1,.53,2.85,3.7,2.05.54.41.74,1.29,1.14,1.81l2.83,1.44ZM150.11,297.79c0,.43.13.79.4,1.07.27.28.67.41,1.2.41s.91-.15,1.13-.45c.23-.31.34-.65.34-1.03s-.15-.68-.44-.93-.66-.38-1.11-.38-.83.12-1.11.35c-.27.23-.41.55-.41.96ZM145.65,297.95c0,.37.14.68.42.94.29.26.66.38,1.12.38.43,0,.78-.13,1.06-.39.29-.27.43-.59.43-.97,0-.4-.12-.74-.37-1.01-.24-.28-.63-.42-1.18-.42-.51,0-.89.15-1.12.46-.24.3-.36.64-.36,1.01ZM143.28,299.76c.26-.05.49-.11.68-.19-.09-.62-.16-1.23-.21-1.82-.06-.6-.08-1.15-.08-1.67-.45.02-.96.03-1.52.03-.56,0-1.18.02-1.85.02-.67,0-1.42,0-2.24,0h-2.33c-.67,0-1.27,0-1.81-.02-.54,0-1.04-.02-1.51-.04,0,.51-.03,1.08-.11,1.72-.07.64-.17,1.23-.3,1.77.2.11.43.17.71.2.28.03.55.04.81.04.12-.53.27-.97.44-1.34.17-.36.42-.64.74-.84.33-.2.76-.3,1.32-.3h.49v9.08c0,.51-.04.91-.14,1.2-.1.28-.29.47-.56.58-.27.11-.65.17-1.14.2-.05.14-.09.33-.13.55-.03.23-.05.45-.05.66.28-.02.62-.03,1.01-.03.4-.01.83-.02,1.29-.02.46,0,.91,0,1.33,0,.65,0,1.25,0,1.82,0,.57,0,1.05.02,1.45.05,0-.23-.01-.45-.04-.68-.03-.22-.07-.4-.12-.53-.49-.03-.86-.09-1.11-.2-.25-.11-.42-.3-.5-.58-.09-.29-.13-.69-.13-1.2v-9.08h.69c.73,0,1.26.21,1.59.62.34.41.56,1.03.65,1.86.32.01.6,0,.86-.05ZM155.06,307.81c-.34,0-.6-.04-.76-.13-.17-.1-.28-.26-.33-.49s-.08-.55-.08-.96v-4.88c0-.31-.05-.55-.15-.72-.1-.16-.24-.28-.42-.35-.31.15-.78.28-1.41.39-.63.11-1.33.17-2.08.17-.09.17-.15.35-.17.54-.02.2-.03.39-.03.59.62.04,1.01.17,1.18.41.16.23.25.63.25,1.19v1.27c0,1.07-.19,1.87-.58,2.39-.38.52-.84.78-1.36.78-.44,0-.75-.19-.95-.57-.19-.39-.28-1.02-.28-1.9v-4.19c0-.31-.05-.55-.15-.72-.1-.16-.24-.28-.43-.35-.3.16-.75.31-1.35.45-.61.14-1.26.21-1.96.21-.08.17-.13.35-.16.54-.04.2-.05.39-.05.59.58.04.93.17,1.07.4.13.24.19.63.19,1.2v2.34c0,1.36.27,2.31.8,2.84.52.54,1.26.81,2.2.81.6,0,1.13-.09,1.56-.26.44-.17.81-.4,1.11-.68.15-.14.28-.3.41-.49.12-.18.21-.38.29-.6,0,.07-.04.14-.05.21-.04.29-.06.54-.06.75,0,.34.05.59.15.75s.26.28.47.38c.44-.2.92-.36,1.45-.47.52-.11,1.03-.17,1.5-.19.09-.18.15-.38.18-.6.03-.22.03-.44,0-.65ZM164.63,300.9c-.42-.32-.89-.48-1.41-.48s-1,.16-1.42.46c-.43.3-.78.69-1.07,1.15-.1.16-.2.39-.3.69-.07.19-.13.38-.2.57.08-.35.15-.67.21-.93.07-.34.11-.68.11-1.01,0-.31-.05-.55-.15-.72-.1-.16-.24-.28-.43-.35-.3.16-.78.31-1.43.45-.66.14-1.33.21-2.03.21-.1.17-.16.35-.19.54-.04.2-.05.39-.05.59.43.02.75.09.96.21.2.11.34.27.39.49.06.22.09.52.09.9v2.74c0,.51-.03.91-.1,1.2-.08.28-.21.47-.41.58-.2.11-.48.17-.83.2-.04.14-.07.31-.09.5-.02.2-.03.43-.03.71.37-.03.87-.05,1.5-.05.64,0,1.25,0,1.85,0,.37,0,.74,0,1.13,0,.38,0,.74,0,1.08.02.33,0,.61,0,.84.03,0-.23,0-.45-.02-.66-.02-.21-.06-.39-.12-.55-.49-.04-.88-.13-1.16-.27-.28-.14-.49-.37-.61-.68-.13-.32-.19-.76-.19-1.33v-1.03c0-.45.07-.86.23-1.23.15-.37.34-.67.56-.9s.44-.35.63-.35c.27,0,.47.11.62.31.14.2.22.57.24,1.1.25,0,.53-.02.86-.06.32-.04.58-.1.78-.18-.01-.29-.02-.61-.01-.95s.03-.68.06-1.02.07-.64.11-.9ZM176.66,308.35c-.26-.03-.47-.07-.64-.13s-.34-.16-.5-.31c-.17-.14-.35-.35-.55-.61-.61-.81-1.19-1.52-1.75-2.14-.37-.41-.76-.8-1.16-1.17l1.29-1.17c.33-.3.62-.54.88-.7.26-.17.51-.29.77-.37.26-.08.55-.12.86-.14.07-.18.11-.37.14-.57.03-.2.04-.41.04-.62-.29.02-.6.03-.92.03-.32.01-.64.01-.94.01s-.63,0-.97-.01c-.35,0-.67,0-.97-.02-.31,0-.57,0-.8,0,0,.2.02.4.05.6.04.2.09.39.15.59.2,0,.34.03.42.08.08.05.12.13.12.24s-.07.25-.21.44c-.14.18-.39.44-.76.79l-1.39,1.25v-8.03c0-.3-.05-.54-.16-.7-.1-.17-.24-.28-.41-.35-.19.11-.47.21-.86.31-.38.1-.81.18-1.27.25-.47.06-.93.1-1.38.1-.08.17-.14.35-.17.54s-.05.39-.05.58c.42.03.74.09.95.19s.35.25.43.45c.07.2.11.45.11.77v8.14c0,.67-.09,1.11-.27,1.35s-.53.37-1.06.38c-.05.16-.09.34-.11.54-.02.21-.03.43-.03.67.18-.02.43-.03.73-.03.31-.01.64-.02.99-.02.36,0,.71,0,1.05,0,.51,0,1,0,1.49,0,.49,0,.88.02,1.17.05,0-.21-.01-.43-.02-.65-.01-.22-.05-.4-.1-.56-.4-.03-.67-.16-.81-.4-.15-.24-.22-.68-.22-1.33v-1.39c.2.22.4.45.61.7.37.44.74.88,1.09,1.34.36.45.69.89,1,1.31.31.41.57.78.77,1.1.29-.06.62-.09.99-.11s.74-.04,1.12-.05c.37-.02.73-.02,1.06-.02.08-.17.13-.36.16-.57.02-.2.04-.41.04-.62ZM188.52,297.33c0,.41.15.75.45,1,.3.26.68.39,1.16.39.54,0,.97-.14,1.29-.41.31-.27.47-.6.47-1,0-.46-.15-.82-.44-1.09-.29-.26-.7-.39-1.24-.39-.47,0-.86.13-1.19.39-.33.27-.5.64-.5,1.11ZM180.34,305.55c.29,0,.57-.03.88-.04.56-.02,1.12-.04,1.67-.04.54,0,1.06-.02,1.53-.02.48,0,.88,0,1.21,0,.24-.24.4-.55.5-.93-.04-.81-.21-1.53-.5-2.17-.29-.65-.74-1.15-1.34-1.51-.6-.36-1.37-.55-2.33-.55s-1.73.21-2.42.62c-.7.41-1.23.97-1.6,1.68-.37.72-.55,1.54-.55,2.48,0,.87.16,1.66.49,2.37.33.7.85,1.26,1.55,1.67.7.41,1.6.62,2.71.62.84,0,1.57-.12,2.2-.35.64-.23,1.2-.59,1.69-1.08,0-.2-.06-.4-.16-.6-.11-.19-.22-.33-.34-.39-.32.28-.7.5-1.15.67-.45.17-.9.26-1.35.26-.7,0-1.25-.17-1.65-.5-.4-.33-.69-.77-.86-1.34-.08-.27-.14-.55-.18-.84ZM193.16,309.6c0-.21-.01-.43-.03-.65-.02-.22-.06-.4-.11-.56-.48,0-.8-.14-.97-.38-.17-.24-.26-.68-.26-1.35v-5.32c0-.31-.05-.54-.16-.71-.1-.16-.24-.28-.41-.35-.19.11-.48.21-.87.31-.38.1-.81.18-1.28.25-.47.07-.92.1-1.36.1-.09.17-.15.35-.18.54-.03.2-.04.39-.04.59.42.02.74.09.95.19s.35.24.42.44c.07.2.1.46.1.77v3.19c0,.67-.09,1.11-.27,1.35-.18.24-.53.37-1.06.38-.05.16-.09.34-.11.54-.02.21-.03.43-.03.67.2-.02.45-.03.75-.03.31-.01.65-.02,1.02-.02.36,0,.73,0,1.08,0s.72,0,1.08,0c.35,0,.68,0,.99.02.3,0,.55,0,.75.03ZM183.43,304.29h-3.16c.02-.6.08-1.11.21-1.5.14-.44.34-.76.59-.97.25-.2.54-.31.85-.31.49,0,.87.24,1.12.73.26.48.39,1.16.39,2.05ZM183.43,304.29h-3.16c.02-.6.08-1.11.21-1.5.14-.44.34-.76.59-.97.25-.2.54-.31.85-.31.49,0,.87.24,1.12.73.26.48.39,1.16.39,2.05ZM183.43,304.29h-3.16c.02-.6.08-1.11.21-1.5.14-.44.34-.76.59-.97.25-.2.54-.31.85-.31.49,0,.87.24,1.12.73.26.48.39,1.16.39,2.05ZM591.83,622.72c.54,0,.97-.14,1.29-.41.32-.27.48-.6.48-1,0-.46-.15-.83-.44-1.09-.29-.26-.71-.4-1.25-.4-.46,0-.86.13-1.19.4-.33.26-.5.63-.5,1.11,0,.41.15.74.45,1,.3.26.68.39,1.16.39Z" style="fill: none; fill-rule: evenodd; stroke: #d82525; stroke-miterlimit: 10; stroke-width: 3px;"/>
</svg>