<?xml version="1.0" encoding="UTF-8"?>
<svg id="Data" xmlns="http://www.w3.org/2000/svg" viewBox="0 0 1920 1080">
  <defs>
    <style>
      .cls-1 {
        fill: none;
        stroke: #000;
        stroke-linecap: square;
        stroke-linejoin: bevel;
        stroke-width: 1.34px;
      }
    </style>
  </defs>
  <path class="cls-1" d="M1297.34,501.86c-2.37,0-4.29,1.92-4.29,4.29s1.92,4.29,4.29,4.29,4.29-1.92,4.29-4.29-1.92-4.29-4.29-4.29ZM956.91,618.78c-2.37,0-4.29,1.92-4.29,4.29s1.92,4.29,4.29,4.29,4.29-1.92,4.29-4.29-1.92-4.29-4.29-4.29ZM561.09,607.89c-2.37,0-4.29,1.92-4.29,4.29s1.92,4.29,4.29,4.29,4.29-1.92,4.29-4.29-1.92-4.29-4.29-4.29ZM386.46,281.83c-2.37,0-4.29,1.92-4.29,4.29s1.92,4.29,4.29,4.29,4.29-1.92,4.29-4.29-1.92-4.29-4.29-4.29Z"/>
</svg>