<?xml version="1.0" encoding="UTF-8"?>
<svg id="a" data-name="Pfade" xmlns="http://www.w3.org/2000/svg" width="1920" height="1080" viewBox="0 0 1920 1080">
  <path d="M1354.86,781.36c-3.55,19.28-2.65,40.81-4.31,60.25-.32,1.5-.95,4.21-1.27,5.62-.32,1.39-.52,1.71-1.36,3.06-1.23,1.98-3.57,5.75-4.73,7.63-1.56,2.31-2.79,6.42-6.02,7.19-1.69.12-4.06-1-5.78-1.45-1.82-.59-2.2-1.73-3.17-3.7-1.17-2.21-1.89-4.6-3.17-6.57-4.34-4.95-14.79-11.96-20.32-16.11-2.01-1.21-2.13-3.82-2.74-5.91-1.07-2.76.25-3.9,1.46-5.94.99-1.58-.24-2.86-1.2-4.31-.51-.82-1.29-1.44-2.29-1.31-1.86.09-6.21.46-7.96.54-1.25.07-2.37-.42-3.5-.97-.79-.39-1.43-.85-1.68-1.57-.41-1.08-.24-3.16-.61-4.36-.24-.96-.93-1.56-1.74-2.07-4.87-3.22-12.18-8.67-16.4-12.33-3.52-2.89-10.87-7.11-13.86-9.17-2.97-2.34-3.33-6.34-4.32-9.79-.91-2.29-3.66-3.33-5.66-4.6-2.73-1.38-4.64-2.71-7.52-3.65-1.87-.66-3.67-.91-4.91.68-1.97,2.43-4.77,5.61-6.97,7.71-.81.76-1.57,1.23-2.66,1.48-2.79.68-7.26,1.57-10.01,2.09-.94.07-1.04-.97-1.24-1.73-.08-.41-.17-.85-.28-1.26-.31-1.8-2.77-2.65-4.27-3.57-2.65-1.49-5.58-.6-8.75-1.45-1.89-.33-3.4-.71-4.82-1.53-.59-.33-1.35-.91-1-1.67.37-1.05,2.68-2.86,2.91-3.87.26-1.16-1.27-1.7-2.01-2.33-1.88-1.69-4.34-1.44-6.74-1.27-3.23-.18-5.65,1.12-8.43,2.74-2.05,1.32-3.82,4.48-2.51,6.79.56,1.28,1.93,2.49,1.75,3.68-.17.86-.89,1.45-1.47,2.08-.7.73-1.18,1.66-1.71,2.48-1.61,2.01-5.06.35-7.25.33-.34.03-.54.2-.6.53-.13.97.23,2.4-.88,2.98-1.24.85-3.86.39-4.18.6-.27.16-.1.52-.28.78-.1.18-.32.31-.71.41-3.41.44-6.79-.23-9.93-1.67-4.6-2.04-9.84-5.18-15.02-2.82-1.79.73-3.59,1.26-5.42.59-2.81-.94-6.17-2.79-8.92-3.41-2.94-.8-6.14-.79-9.3-.72-2.58.04-5.51-.06-8.1.36-2.52.47-5.62,1.58-8.14,2.73-2.64,1.05-4.4,2.81-5.53,5.44-.95,1.48-.82,3.18-3.14,2.65-3.91-.36-14.25-1.31-18.81-1.73-1.43-.14-2.27-.13-3.62-.65-18.89-7.08-46.21-17.49-62.36-23.78-5.91-2.75-13.36-7.57-19.37-10.86-1.99-1.15-2.26-1.32-4.02-2.03-8.05-3.28-18.89-7.99-27.78-11.94-12.52-5.43-25.73-13.06-36.9-21.25-3.15-2.53-7.67-4.78-11.19-6.85-7.78-3.65-18.88-7.43-25.68-11.65-3.83-2.33-8.82-4.09-12.83-6.34-5.91-4.53-12.43-10.34-19.01-14.37-4.23-2.58-9.72-6.39-13.79-8.5-7.18-3.41-18.51-8.46-25.26-11.49-2.13-.92-3.6-1.58-5.25-3.03-12.61-10.19-31.07-20.86-44.95-29.26-1.33-.8-1.8-.97-3.48-1.5-4.21-1.39-12.59-4.11-17.04-5.58-1.64-.54-1.31-.44-3.03-.71-5.92-.92-18.16-2.81-24.33-3.77-4.13-.28-15.45-.03-21.87-.11-.24,0-.47,0-.67,0-1.97.01-1.6-.11-3.22.74-3.63,1.9-11.31,6-15.67,8.28-2.07,1.21-3.38,1.68-5.58,2.03-22.36,4.5-47.22,15.05-68.19,24.06-4.32,1.14-36.73,7.43-43.09,8.79-.59.15-.79.1-1.25-.48-.52-.65-1.59-1.66-1.96-2.68-.26-.61-.35-1.34-.87-1.8-.59-.54-1.51-.63-2.19-1.02-1.16-.56-1.34-1.76-1.88-2.13-.4-.41-.95-.27-1.49-.31-1.63-.29-3.61-.45-5.15-1.21-.34-.08-.79-.14-.92-.36-.07-.11-.08-.24.01-.42.17-.37.82-1,1.43-1.64,1.46-1.35,1.81-3.37,2.67-5.1.32-.63.72-1.23.89-1.91.41-1.3-.42-2.82-.71-4.49-.14-.67-.23-1.39-.47-2.03-.42-1.11-1.16-1.94-1.2-2.85-.04-1.12.37-2.23-.05-3.33-.45-1.55-1.94-2.94-1.76-4.59.17-1.4-.33-2.79.71-3.92,1.43-2.46,4.49-3.02,6.2-5.13.55-.76.61-1.73,1.11-2.5.72-.94,2.75-.89,3.72-1.71.84-.5.92-1.34,0-1.95-.33-.23-.75-.42-1.13-.66-.38-.24-.74-.49-1.14-.67-.76-.31-1.7-.66-1.84-1.45.54-2.18,2.29-4.38,3.96-5.89,1.13-1.16,2.12-2.26,3.61-2.7,1.35-.59,2.69-.86,4.18-.58,1.16.17,2.25-.37,3.39-.43,1.62-.14,4.27,1.52,5.93.61,1.09-1.83-3.74-2.2-3.84-3.63-.29-1.75,1.57-3.15,2.74-4.24,1.33-1.02,2.35-2.27,3.57-2.55.58-.14,1.21-.16,1.8-.24,1.35-.07,1.97-1.22,2.69-2.19.69-.98,1.74-1.63,2.5-2.49.29-.33.27-.31.41-.47.28-.34.58-.7.86-1.03.43-.5.69-.84.63-1.37-.04-.6-.94-1.59-.93-2.61-.03-.44.02-.91-.02-1.33,0-1.19-1.18-1.77-1.81-2.63-1.1-1.52.59-3.77-1.21-4.44-.84-.25-.67-.18-.95-.49-.24-.19-.61-.42-.91-.57-.71-.35-.86-.19-1.33-.72-.41-.61-.9-1.16-1.65-1.4-.76-.33-1.95-.14-2.85-.35-.61-.16-1.08-.39-.8-.98.29-.45.81-.85,1.23-1.21.83-.59,1.13-1.96,1.92-2.41.36-.16.83-.24,1.17-.44.41-.17.36-.49.09-.71-.59-.53-2.39-.33-3.33-.95-.71-.34-1.25-1.09-1.12-1.86,0-.35-.75-.57-1.38-.47-.63.15-.98.51-1.02,1.26-.06.5-.22.98-.72,1.28-1.66.62-3.39.2-5.17.19-1.84.03-3.04-.43-4.18-.02-.34.09-.52.19-.79.13-.35.02-.66-.01-1.1-.08-.42.08-1.11.34-1.6.07-.62-.29-1.1-.66-1.61-.66-.35-.07-.62-.21-.83.11-.04.05-.08.14-.13.17-.04.03-.08,0-.15-.09-.26-.43-1.41-3.12-1.86-4.47-.26-.89-.34-1.73-.64-2.62-.76-2.16-2.06-3.94-2.6-5.76-.17-.26-.17-.45.06-.69.18-.25.27-.71.32-1.06-.09-1.31-.35-1.54.36-2.75.62-.86.41-1.9.2-2.84-.11-.99.02-1.84.03-2.42.01-.38.22-.65.48-.89.47-.4.66-1.18.89-1.43.28-.23.32-.61.39-.94.12-.6.76-.85.85-.91.39-.46.37-1.46.21-1.89-.11-.39-.47-1.12-.71-1.46-.26-.35-.39-.36-.43-.56-.07-.25-.15-.93-.11-1.21.11-.65-.23-.97,0-1.68.01-.04.02-.09.02-.14-.41-1.71.24-3.44-.88-4.9-.8-1.05-3.56-3.08-5.02-3.65-.26-.09-.45-.13-.67-.12-.26.03-.32.12-.39.29-.16.16-.26-.17-.64-.32-.03-.02-.07-.03-.09-.05-.04-.03-.05-.06-.05-.1.02-.15.24-.71.22-1.11-.04-.45-.22-.62-.64-.75-.05-.02-.14-.06-.11-.11.02-.02.04-.05.05-.07.01-.02.02-.04,0-.05-.03-.02-.5-.17-.73-.36-.28-.11-.33-.26-.04-.56.14-.12.19-.32.05-.48-.21-.31-.82-.04-1-.18-.14-.1.02-.13.19-.16.17-.04.4-.11.59-.15.98-.2,1.04-.21,1.31-.76.2-.28.47-.17.63-.58.05-.1.09-.2.14-.3.69-.65-.72-1.69-.21-2.47.34-.54.87-.39,1.23-.74.04-.2.28-.39.38-.65.1-.11.59-.42.81-.71.54-.62.98-1.76.84-2.6-.07-.98-.79-1.83-1.03-2.83-.22-.27-.68-.43-.51-.81.02-.07.02-.14-.01-.2-.07-.18-.49-.29-.3-.35.23-.11.74-.08.96.04,1.41.32,2.83-.8,3.17-2.2.59-1.97,3.42-3.41,3.48-5.74-.63-3.71-3.68-6.46-5.78-9.44-1.08-1.46-2.69-2.87-2.61-4.4.05-1.04.85-2.01,1.61-2.73,4.82-4.76,10.49-8.49,16.46-11.57,1.98-1.04,2.19-3.22,1.84-5.17-.32-1.99-.03-3.86-1.18-5.57-1.19-1.72-2.87-3.31-4.63-4.29-2.54-1.41-4.96-.52-7.07,1.02-2.33,1.55-4.37,4.33-7.1,5.13-2.36.69-5.05.16-7.24,1.35-.45.26-.88.62-.96,1.12-.12.78,1.49,1.11,1.62,1.76.05.22,0,.43-.07.66-.67,1.53-1.69,3.46-3.22,4.33-2.17,1.1-4.95-.11-7.37.26-2.14.36-3.59,1.66-5.56,1.19-5.38-1.25-10.38-5.51-15.53-7.08-2.75-.72-5.44-1.65-7.71-3.41-3.11-2.02-7.11-2.15-10.61-1.07-.93.27-1.77.48-2.71.1-1.23-.53-2.7-1.66-3.02-2.76-.3-1.51.39-3.25,1.54-4.21,3.6-2.36,7.88-6.63,12.1-8.04,5.57-2.01,12.11-4.5,17.65-5.5,3.47-.37,6.75-.04,10.06-.81,3.42-.66,6.44-1.45,9.61-2.58,6.15-2.11,12.97-3.85,18.87-5.36,5.73-1.92,12.02-3.55,17.98-4.74,8.49-2.52,18.85-4.82,28.05-5.94,7.03-.58,13.27-2.31,20.23-4.36,9.35-2.92,20.79-4.47,30.21-5.82,4.35-.39,10-.43,14.03-.8,9.26-2.04,19.96-3.06,30.07-3.43,27.99-3.13,57.66.34,85.63,1.17,3.48-.06,6.68.07,10.13.59,8.63,1.26,18.95,2.16,25.77,4.26,5.61,2.01,13.35,6.8,19.52,9.22,10.03,3.54,20.06,10.56,29.31,15.86,8.85,4.01,16.53,9.89,24.07,15.8,1.45,1.11,1.56,1.22,2.71,2.74,1.28,1.68,3.63,4.79,4.85,6.39,2.44,3.19,5.33,5.54,8.66,8.24,8,6.66,16.98,10.92,24.37,17.34.93.76,1.34.93,2.66,1.59,3.78,2.17,9.72,4.34,13.22,7.04,14.31,10.81,33.31,16.84,48.88,26.46,7.82,4.68,14.91,12.3,22.59,17.11,4.2,2.32,10.5,4.08,14.56,5.69,1.23.43,1.98.91,2.87,2.1,3.51,4.48,6.86,9.49,11.08,13.19,4.58,4.23,8.66,8.63,13.28,12.11,11.26,8.49,23.47,17.41,36.12,24.33,1.98,1.16,3.17,1.64,5.71,2.44,4.16,1.39,11.69,3.9,15.51,5.17,2.12.7,2.5.81,3.98,1.54,6.8,3.28,16.54,7.67,24.37,10.46,8.14,2.89,17.36,3.52,26.33,6.48,2.03.61,3.5,1.37,5.27,2.41,15.19,8.83,33.01,17.8,49.75,23.99,1.25.47,2.42.55,4.2.24,1.83-.3,3.92-.92,5.46.36,4.04,2.82,9.97,7.27,14.19,10.43,11.36,7.01,24.31,14.74,35.22,22.37.62.43,1.19.8,1.85,1.12,1.44.73,3.5,1.07,4.49,1.48.49.2.87.47,1.31.8,2.94,2.13,7.29,5.66,10.01,7.65,1.26.99,1.52,1.09,2.11,1.92,1.02,1.4,4.78,6.65,6.73,9.38,1.28,1.78,1.29,1.87,2.8,3.21,2.38,2.2,5,4.38,7.32,6.63,3.7,3.47,9.83,8.94,13.63,11.81.78.6,1.21.92,1.74,1.63,2.84,4.04,6.94,10.53,10.05,15.05,6.02,8.67,13.28,18.6,17.56,28.17.43,1.31,1.04,2.95,1.5,4.32.19.55.37,1.06.55,1.58.64,1.83.72,2.16.78,4.11.14,2.43.25,5.16.18,7.5v.15Z" style="fill: none; stroke: #232323; stroke-linecap: square; stroke-linejoin: bevel; stroke-width: 1.48px;"/>
</svg>