<?xml version="1.0" encoding="UTF-8"?><svg id="a" xmlns="http://www.w3.org/2000/svg" viewBox="0 0 1920 1080"><g id="j"><path d="M590.14,465.7c0,1.89-1.53,3.41-3.41,3.41s-3.41-1.53-3.41-3.41,1.53-3.41,3.41-3.41,3.41,1.53,3.41,3.41ZM717.68,333.43c-1.89,0-3.41,1.53-3.41,3.41s1.53,3.41,3.41,3.41,3.41-1.53,3.41-3.41-1.53-3.41-3.41-3.41ZM831.43,471.24c-1.89,0-3.41,1.53-3.41,3.41s1.53,3.41,3.41,3.41,3.41-1.53,3.41-3.41-1.53-3.41-3.41-3.41ZM1033.13,527.02c-1.89,0-3.41,1.53-3.41,3.41s1.53,3.41,3.41,3.41,3.41-1.53,3.41-3.41-1.53-3.41-3.41-3.41ZM730.38,340.93c.59,0,1.25-.02,1.96-.03.71,0,1.4-.01,2.08-.01h1.77c.49,0,1.08-.04,1.77-.11.69-.07,1.42-.22,2.19-.43.76-.22,1.52-.54,2.25-.97.74-.43,1.4-1,2-1.7s1.07-1.58,1.43-2.62c.36-1.04.54-2.29.54-3.75s-.19-2.75-.58-3.77c-.39-1.02-.92-1.85-1.59-2.51-.67-.66-1.45-1.16-2.32-1.51-.87-.35-1.8-.59-2.77-.73-.97-.13-1.94-.2-2.89-.2-.54,0-1.08,0-1.61.03-.53.02-1.04.03-1.53.03-.45,0-.93,0-1.44-.01-.51,0-1-.02-1.47-.03-.47,0-.86-.02-1.16-.04,0,.23,0,.47.03.7.02.23.05.43.11.59.49.04.86.13,1.13.27.27.14.46.38.57.71.11.33.16.82.16,1.47v10.64c0,.72-.06,1.27-.18,1.65-.12.38-.31.64-.58.8-.27.15-.65.25-1.13.28-.05.14-.09.33-.11.55-.02.22-.03.47-.03.74.34-.02.81-.03,1.4-.04ZM734.88,339.32c-.35-.14-.59-.4-.72-.78-.13-.38-.19-.91-.19-1.59v-13.61l-.24.78c.14-.11.44-.19.88-.26.44-.06.85-.09,1.23-.09.94,0,1.84.14,2.71.42.87.28,1.66.73,2.36,1.35.7.62,1.26,1.44,1.66,2.47s.61,2.26.61,3.7c0,1.55-.18,2.83-.53,3.85-.35,1.02-.84,1.82-1.47,2.4-.63.58-1.35,1-2.17,1.23-.82.23-1.71.35-2.66.35-.63,0-1.12-.07-1.47-.22ZM757.07,340.63c.82-.33,1.54-.89,2.17-1.66-.02-.18-.09-.37-.23-.57-.14-.2-.27-.33-.42-.4-.45.47-.97.83-1.55,1.08-.58.25-1.17.38-1.77.38-1.03,0-1.82-.26-2.38-.77-.56-.51-.95-1.18-1.19-2-.23-.82-.35-1.68-.35-2.58,0-1.13.13-2.02.38-2.66.25-.64.58-1.09.97-1.36.4-.27.81-.41,1.24-.41.76,0,1.34.36,1.74,1.08s.61,1.67.61,2.86h-5.56v1.48c.7-.04,1.45-.07,2.25-.09.8-.03,1.58-.04,2.35-.05.76,0,1.46-.01,2.08-.01h1.47c.23-.27.39-.61.46-1.03-.05-1.06-.27-2.02-.63-2.86-.37-.85-.92-1.52-1.66-2.02-.74-.5-1.71-.76-2.92-.76s-2.22.29-3.09.88c-.87.58-1.54,1.36-2.01,2.33-.47.97-.7,2.05-.7,3.24s.22,2.24.66,3.21c.44.97,1.1,1.75,1.97,2.32.87.58,1.98.86,3.33.86,1.03,0,1.95-.17,2.77-.5ZM766.24,329.55c0-.41-.06-.71-.19-.89-.13-.18-.28-.31-.46-.38-.41.22-1.01.42-1.78.59-.77.18-1.5.29-2.19.32-.09.16-.15.34-.19.54-.04.2-.05.41-.05.62.59.02,1.03.1,1.32.24.29.14.47.36.55.63.08.28.12.65.12,1.12v2.81l2.86-5.62ZM766.24,334.76h-2.86v2.46c0,.63-.05,1.12-.16,1.46-.11.34-.29.58-.55.73-.26.14-.63.23-1.12.27-.07.14-.12.32-.14.54-.02.22-.03.47-.03.76.41-.04.99-.06,1.73-.07.74,0,1.45-.01,2.13-.01.45,0,.9,0,1.35.01.45,0,.87.02,1.27.03.4,0,.74.02,1.03.04,0-.27-.01-.51-.04-.73-.03-.22-.07-.4-.12-.57-.59-.05-1.08-.16-1.44-.32-.37-.16-.63-.45-.8-.86-.16-.41-.24-1.01-.24-1.78v-1.94ZM765.75,332.63c.11-.52.22-1.03.32-1.51.11-.49.16-1.01.16-1.57l-2.86,2.62v3h2.86v-2.19l-.49-.35ZM766.24,334.46c0-.67.12-1.28.35-1.84.23-.56.53-1.01.88-1.35.35-.34.67-.51.96-.51.36,0,.65.14.88.42.22.28.36.82.39,1.63.32,0,.65-.03.97-.08.32-.05.58-.12.78-.19,0-.34,0-.72.01-1.12,0-.4.03-.81.07-1.21.04-.41.07-.76.11-1.07-.56-.43-1.18-.65-1.86-.65-.72,0-1.35.21-1.9.62-.55.42-1.02.94-1.42,1.57-.13.22-.25.5-.36.85-.12.35-.27.77-.45,1.26l.59,1.67ZM780.25,328.51c-.63-.15-1.38-.23-2.24-.23-.5,0-1.03.07-1.58.2-.55.13-1.05.34-1.51.62s-.83.63-1.12,1.07c-.29.43-.43.94-.43,1.51,0,.74.14,1.35.41,1.82.27.48.7.89,1.28,1.23.58.34,1.35.7,2.28,1.08.79.31,1.39.57,1.78.8.4.22.67.45.82.69.15.23.23.5.23.81,0,.49-.19.88-.58,1.17-.39.3-.91.45-1.58.45-.88,0-1.59-.27-2.12-.81-.53-.54-.87-1.36-1.01-2.46-.29,0-.59.03-.89.08-.31.05-.54.14-.7.27.04.29.05.63.05,1.04s0,.81-.01,1.23c0,.41-.04.77-.09,1.08.65.31,1.3.54,1.96.71.66.17,1.53.26,2.63.26.99,0,1.88-.16,2.66-.47s1.39-.76,1.84-1.34c.44-.58.66-1.24.66-2,0-.65-.12-1.19-.36-1.63-.24-.44-.64-.85-1.2-1.21-.56-.37-1.33-.73-2.32-1.09-.94-.38-1.63-.7-2.08-.96-.45-.26-.74-.5-.86-.73-.13-.22-.19-.48-.19-.77,0-.41.15-.75.46-1,.31-.25.72-.38,1.24-.38.58,0,1.07.13,1.49.41.41.27.74.62.99,1.05.24.43.38.89.42,1.38.29,0,.57-.03.85-.09.28-.06.52-.15.72-.26-.07-.47-.11-.94-.11-1.43s0-.95.03-1.4c-.56-.31-1.15-.54-1.78-.69ZM786.48,325.51c.43-.48.88-.93,1.35-1.36.45.34.91.75,1.39,1.23.48.48.93.95,1.36,1.42.22-.04.45-.11.69-.22.24-.11.43-.23.55-.35-.56-.79-1.09-1.57-1.61-2.32-.51-.76-.99-1.49-1.44-2.21-.14,0-.31.01-.5.04-.19.03-.41.07-.66.12-.5.68-1.03,1.37-1.57,2.07-.54.69-1.09,1.34-1.65,1.93.11.47.4.82.86,1.05.38-.45.78-.91,1.21-1.39ZM785.88,340.93c.37,0,.76-.02,1.16-.03.41,0,.81-.01,1.2-.01s.76,0,1.16.01c.4,0,.77.02,1.13.03.36,0,.68.02.97.04,0-.18,0-.4-.03-.65-.02-.25-.05-.47-.11-.65-.59-.02-1.01-.19-1.26-.51-.24-.32-.36-.94-.36-1.84v-7.86c0-.36-.06-.63-.19-.81-.13-.18-.28-.31-.46-.38-.23.14-.59.29-1.08.43-.49.14-1,.26-1.54.35-.54.09-.99.13-1.35.13-.09.16-.16.34-.2.54-.05.2-.07.41-.07.62.61,0,1.06.07,1.35.22.29.14.47.36.55.63.08.28.12.63.12,1.07v5.05c0,.9-.13,1.51-.38,1.84-.25.32-.74.5-1.46.51-.05.18-.09.39-.12.62-.03.23-.04.46-.04.67.29-.02.62-.03.99-.04ZM794.45,340.93c.4,0,.81-.02,1.23-.03.42,0,.8-.01,1.12-.01.34,0,.72,0,1.13.01.41,0,.82.02,1.23.03.41,0,.75.02,1.04.04,0-.27,0-.51-.03-.72-.02-.21-.05-.4-.11-.58-.7-.04-1.18-.22-1.43-.54-.25-.32-.38-.94-.38-1.84v-2.65c0-1.04.14-1.89.43-2.55.29-.66.66-1.14,1.11-1.46.45-.32.9-.47,1.35-.47.7,0,1.27.22,1.7.67.43.45.65,1.28.65,2.48v3.78c0,.67-.05,1.18-.16,1.54-.11.36-.29.61-.55.76-.26.14-.63.23-1.09.27-.05.16-.09.35-.11.57-.02.22-.03.46-.03.73.49-.04,1.03-.06,1.62-.07.59,0,1.18-.01,1.76-.01s1.14,0,1.75.01c.61,0,1.14.03,1.59.07,0-.27-.01-.51-.04-.73-.03-.22-.07-.4-.12-.57-.67-.04-1.13-.21-1.4-.53-.27-.32-.41-.93-.41-1.85v-2.54c0-1.06.14-1.92.43-2.58.29-.66.66-1.13,1.11-1.43.45-.3.91-.45,1.38-.45.68,0,1.24.22,1.66.66.42.44.63,1.28.63,2.52v3.67c0,.63-.05,1.12-.15,1.48-.1.36-.28.61-.54.76-.26.14-.63.23-1.09.27-.05.16-.09.35-.11.55-.02.21-.03.45-.03.74.31-.02.65-.03,1.04-.04.39,0,.78-.02,1.19-.03.41,0,.8-.01,1.17-.01.56,0,1.11,0,1.65.01.54,0,1.01.03,1.4.07,0-.27,0-.51-.03-.72-.02-.21-.05-.4-.11-.58-.38-.04-.68-.12-.9-.26-.23-.13-.39-.38-.5-.74-.11-.36-.16-.88-.16-1.57v-4.24c0-1.1-.18-1.97-.53-2.62-.35-.65-.82-1.12-1.42-1.4-.59-.29-1.26-.43-2-.43-.9,0-1.67.21-2.32.62s-1.13.82-1.43,1.21c-.25.31-.48.72-.67,1.24h.11c0-.4-.05-.72-.16-.97-.31-.79-.78-1.36-1.42-1.71-.64-.35-1.35-.53-2.12-.53-.9,0-1.69.21-2.36.63s-1.17.84-1.47,1.26c-.09.09-.2.27-.32.53-.13.26-.32.76-.59,1.5l.24-.03c.11-.76.18-1.32.23-1.7.04-.38.07-.71.07-1,0-.38-.07-.66-.2-.84s-.28-.3-.45-.35c-.25.13-.61.26-1.08.39-.47.14-.95.25-1.46.35-.5.1-.95.16-1.32.17-.09.18-.15.37-.19.55-.04.19-.05.39-.05.61.59.02,1.03.1,1.32.24.29.14.47.36.55.65.08.29.12.67.12,1.16v4.91c0,.9-.13,1.51-.38,1.82-.25.31-.74.49-1.46.53-.05.16-.09.35-.12.57-.03.22-.04.46-.04.73.29-.02.63-.03,1.03-.04ZM605.71,451.73c-.18.02-.37.04-.57.08l-5.62,14.2c-.27.7-.51,1.25-.72,1.66-.21.41-.42.7-.63.88-.22.18-.49.3-.81.35-.07.2-.12.41-.15.63-.03.22-.04.45-.04.66.25-.02.58-.04,1-.05.41-.02.85-.03,1.3-.03.31,0,.62,0,.95.01.32,0,.64.02.94.03.31,0,.56.02.76.04,0-.25-.01-.49-.04-.7s-.08-.41-.15-.59c-.72-.07-1.15-.31-1.3-.73-.14-.41-.04-1.1.32-2.05l2.86-7.45c.2-.54.39-1.08.58-1.63s.39-1.17.61-1.88h-.27c.23.68.45,1.28.65,1.8.2.51.44,1.09.73,1.74l3.46,8.1c.34.79.45,1.31.32,1.57-.13.25-.55.43-1.27.54-.07.16-.12.36-.15.58-.03.23-.04.46-.04.72.16,0,.38,0,.65-.01s.57-.02.9-.03c.33,0,.66-.02.97-.03.31,0,.58-.01.8-.01.29,0,.65,0,1.08.01.43,0,.85.02,1.26.03.4,0,.71.02.9.04,0-.25,0-.47-.03-.66-.02-.19-.06-.4-.14-.63-.27-.05-.51-.15-.72-.3-.21-.14-.41-.41-.62-.78-.21-.38-.47-.92-.8-1.62l-6.34-14.5c-.25,0-.47,0-.65.03ZM601.6,463.1l-.43,1.46c1.15-.05,2.41-.09,3.77-.12,1.36-.03,2.64-.04,3.85-.04l-.3-1.3h-6.89ZM616.94,458.02c-.14.2-.24.41-.3.63-.05.23-.08.46-.08.72.32,0,.72.03,1.19.08.47.05.94.15,1.4.3v-1.73h-2.21ZM621.53,463.99h-2.84v2.46c0,.63-.05,1.12-.16,1.46s-.3.58-.57.73c-.27.14-.65.23-1.13.27-.05.14-.09.32-.11.54-.02.22-.03.47-.03.76.4-.04.97-.06,1.71-.07.75,0,1.46-.01,2.15-.01.45,0,.9,0,1.34.01.44,0,.86.02,1.26.03.4,0,.74.02,1.03.04,0-.27,0-.51-.03-.73-.02-.22-.06-.4-.14-.57-.58-.05-1.05-.16-1.42-.32-.37-.16-.64-.45-.81-.86-.17-.41-.26-1.01-.26-1.78v-1.94ZM618.69,464.5h2.84v-8.37c0-.83.06-1.52.19-2.07.13-.55.33-.96.61-1.24.28-.28.64-.42,1.09-.42.7,0,1.21.24,1.51.73.31.49.46,1.12.46,1.89.29,0,.6-.02.93-.05.33-.04.63-.1.88-.19,0-.49,0-1.01.03-1.58.02-.57.04-1.12.08-1.66-.31-.2-.67-.36-1.09-.5-.42-.14-.99-.2-1.71-.2-.99,0-1.93.23-2.82.68-.89.45-1.61,1.13-2.16,2.05-.55.92-.82,2.06-.82,3.43v7.51ZM621.31,458.02v1.75c.41-.13.85-.22,1.31-.28.46-.06.95-.09,1.47-.09.11-.2.18-.42.22-.67.04-.25.05-.49.05-.7h-3.05ZM631.09,458.78c0-.41-.06-.71-.19-.89-.13-.18-.28-.31-.46-.38-.41.22-1.01.42-1.78.59-.77.18-1.5.29-2.19.32-.09.16-.15.34-.19.54-.04.2-.05.41-.05.62.59.02,1.03.1,1.32.24.29.14.47.36.55.63.08.28.12.65.12,1.12v2.81l2.86-5.62ZM631.09,463.99h-2.86v2.46c0,.63-.05,1.12-.16,1.46-.11.34-.29.58-.55.73-.26.14-.63.23-1.12.27-.07.14-.12.32-.14.54-.02.22-.03.47-.03.76.41-.04.99-.06,1.73-.07.74,0,1.45-.01,2.13-.01.45,0,.9,0,1.35.01.45,0,.87.02,1.27.03.4,0,.74.02,1.03.04,0-.27-.01-.51-.04-.73-.03-.22-.07-.4-.12-.57-.59-.05-1.08-.16-1.44-.32-.37-.16-.63-.45-.8-.86-.16-.41-.24-1.01-.24-1.78v-1.94ZM630.6,461.85c.11-.52.22-1.03.32-1.51.11-.49.16-1.01.16-1.57l-2.86,2.62v3h2.86v-2.19l-.49-.35ZM631.09,463.69c0-.67.12-1.28.35-1.84.23-.56.53-1.01.88-1.35.35-.34.67-.51.96-.51.36,0,.65.14.88.42.22.28.36.82.39,1.63.32,0,.65-.03.97-.08.32-.05.58-.12.78-.19,0-.34,0-.72.01-1.12,0-.4.03-.81.07-1.21.04-.41.07-.76.11-1.07-.56-.43-1.18-.65-1.86-.65-.72,0-1.35.21-1.9.62-.55.42-1.02.94-1.42,1.57-.13.22-.25.5-.36.85-.12.35-.27.77-.45,1.26l.59,1.67ZM639.59,454.74c.43-.48.88-.93,1.35-1.36.45.34.91.75,1.39,1.23.48.48.93.95,1.36,1.42.22-.04.45-.11.69-.22.24-.11.43-.23.55-.35-.56-.79-1.09-1.57-1.61-2.32-.51-.76-.99-1.49-1.44-2.21-.14,0-.31.01-.5.04-.19.03-.41.07-.66.12-.5.68-1.03,1.37-1.57,2.07-.54.69-1.09,1.34-1.65,1.93.11.47.4.82.86,1.05.38-.45.78-.91,1.21-1.39ZM638.98,470.16c.37,0,.76-.02,1.16-.03.41,0,.81-.01,1.2-.01s.76,0,1.16.01c.4,0,.77.02,1.13.03.36,0,.68.02.97.04,0-.18,0-.4-.03-.65-.02-.25-.05-.47-.11-.65-.59-.02-1.01-.19-1.26-.51-.24-.32-.36-.94-.36-1.84v-7.86c0-.36-.06-.63-.19-.81-.13-.18-.28-.31-.46-.38-.23.14-.59.29-1.08.43-.49.14-1,.26-1.54.35-.54.09-.99.13-1.35.13-.09.16-.16.34-.2.54-.05.2-.07.41-.07.62.61,0,1.06.07,1.35.22.29.14.47.36.55.63.08.28.12.63.12,1.07v5.05c0,.9-.13,1.51-.38,1.84-.25.32-.74.5-1.46.51-.05.18-.09.39-.12.62-.03.23-.04.46-.04.67.29-.02.62-.03.99-.04ZM651.39,458.78c0-.41-.06-.71-.19-.89-.13-.18-.28-.31-.46-.38-.41.22-1.01.42-1.78.59-.77.18-1.5.29-2.19.32-.09.16-.15.34-.19.54-.04.2-.05.41-.05.62.59.02,1.03.1,1.32.24.29.14.47.36.55.63.08.28.12.65.12,1.12v2.81l2.86-5.62ZM659.54,462.04c0-1.1-.18-1.97-.55-2.61-.37-.64-.86-1.1-1.47-1.38-.61-.28-1.27-.42-1.97-.42-.92,0-1.71.21-2.38.62-.67.41-1.16.83-1.49,1.24-.13.16-.23.32-.3.46s-.14.28-.22.41c.09-.31.15-.59.18-.86.03-.27.04-.51.04-.73l-2.86,2.81v4.97c0,.9-.13,1.52-.39,1.85-.26.33-.74.5-1.44.5-.05.14-.09.33-.12.55-.03.22-.04.47-.04.74.27-.02.6-.03,1-.04.4,0,.81-.02,1.23-.03.42,0,.82-.01,1.2-.01s.8,0,1.22.01c.41,0,.81.02,1.19.03.38,0,.69.02.95.04,0-.27,0-.51-.03-.72-.02-.21-.06-.4-.14-.58-.65,0-1.1-.17-1.36-.5-.26-.33-.39-.95-.39-1.85v-2.56c0-1.06.15-1.92.45-2.57.3-.65.67-1.12,1.12-1.43.45-.31.9-.46,1.35-.46.72,0,1.3.23,1.73.67.43.45.65,1.3.65,2.54v3.75c0,.92-.14,1.55-.43,1.89-.29.34-.73.51-1.32.51-.07.16-.12.35-.14.57-.02.22-.03.46-.03.73.29-.02.62-.03,1-.04.38,0,.78-.02,1.2-.03.42,0,.82-.01,1.2-.01.56,0,1.11,0,1.65.01.54,0,1.01.03,1.4.07,0-.29,0-.53-.03-.73-.02-.2-.05-.39-.11-.57-.54,0-.93-.16-1.17-.49-.24-.32-.36-.95-.36-1.86v-4.51ZM853.64,478.6c.93-.48,1.62-1.12,2.07-1.92.45-.8.68-1.67.68-2.61,0-1.01-.22-1.84-.65-2.51-.43-.67-.99-1.22-1.69-1.67-.69-.45-1.42-.86-2.19-1.21-.77-.36-1.49-.72-2.17-1.08-.68-.36-1.24-.79-1.67-1.3-.43-.5-.65-1.13-.65-1.89s.26-1.4.77-1.84c.51-.43,1.22-.65,2.12-.65.54,0,1.01.1,1.42.31.41.21.75.58,1.04,1.12.29.54.52,1.32.7,2.35.29,0,.6-.03.93-.08.33-.05.61-.12.82-.22-.07-.47-.12-1.05-.14-1.75-.02-.7-.03-1.33-.03-1.89-.31-.22-.71-.41-1.2-.59-.5-.18-1.04-.32-1.63-.43s-1.21-.16-1.84-.16c-1.13,0-2.12.19-2.96.58-.84.39-1.49.95-1.96,1.69-.47.74-.7,1.64-.7,2.7s.22,1.94.65,2.62c.43.68.99,1.26,1.67,1.71.68.46,1.4.86,2.16,1.2.76.34,1.48.69,2.16,1.04.68.35,1.24.77,1.67,1.25.43.49.65,1.1.65,1.84s-.26,1.37-.77,1.89c-.51.52-1.36.78-2.55.78-.92,0-1.66-.17-2.23-.51-.57-.34-.98-.84-1.24-1.48-.26-.65-.43-1.45-.5-2.4-.27,0-.57.01-.89.04-.32.03-.6.08-.84.15,0,.54-.02,1.16-.05,1.86-.04.7-.11,1.4-.22,2.08.88.52,1.76.94,2.65,1.24.88.31,1.88.46,3,.46,1.48,0,2.68-.24,3.6-.72ZM859.63,479.11c.37,0,.76-.02,1.16-.03.41,0,.81-.01,1.2-.01s.76,0,1.16.01c.4,0,.77.02,1.13.03.36,0,.68.02.97.04,0-.18,0-.4-.03-.65-.02-.25-.05-.47-.11-.65-.59-.02-1.01-.19-1.26-.51-.24-.32-.36-.94-.36-1.84v-7.86c0-.36-.06-.63-.19-.81-.13-.18-.28-.31-.46-.38-.23.14-.59.29-1.08.43-.49.14-1,.26-1.54.35-.54.09-.99.13-1.35.13-.09.16-.16.34-.2.54-.05.2-.07.41-.07.62.61,0,1.06.07,1.35.22.29.14.47.36.55.63.08.28.12.63.12,1.07v5.05c0,.9-.13,1.51-.38,1.84-.25.32-.74.5-1.46.51-.05.18-.09.39-.12.62-.03.23-.04.46-.04.67.29-.02.62-.03.99-.04ZM863.14,463.18c.35-.33.53-.72.53-1.17,0-.52-.16-.94-.49-1.27s-.77-.49-1.32-.49c-.49,0-.91.16-1.27.49-.36.32-.54.76-.54,1.3,0,.47.17.86.5,1.17.33.32.76.47,1.28.47s.96-.17,1.31-.5ZM872.04,467.73c0-.41-.06-.71-.19-.89-.13-.18-.28-.31-.46-.38-.41.22-1.01.42-1.78.59-.77.18-1.5.29-2.19.32-.09.16-.15.34-.19.54-.04.2-.05.41-.05.62.59.02,1.03.1,1.32.24.29.14.47.36.55.63.08.28.12.65.12,1.12v2.81l2.86-5.62ZM880.19,471c0-1.1-.18-1.97-.55-2.61-.37-.64-.86-1.1-1.47-1.38-.61-.28-1.27-.42-1.97-.42-.92,0-1.71.21-2.38.62-.67.41-1.16.83-1.49,1.24-.13.16-.23.32-.3.46s-.14.28-.22.41c.09-.31.15-.59.18-.86.03-.27.04-.51.04-.73l-2.86,2.81v4.97c0,.9-.13,1.52-.39,1.85-.26.33-.74.5-1.44.5-.05.14-.09.33-.12.55-.03.22-.04.47-.04.74.27-.02.6-.03,1-.04.4,0,.81-.02,1.23-.03.42,0,.82-.01,1.2-.01s.8,0,1.22.01c.41,0,.81.02,1.19.03.38,0,.69.02.95.04,0-.27,0-.51-.03-.72-.02-.21-.06-.4-.14-.58-.65,0-1.1-.17-1.36-.5-.26-.33-.39-.95-.39-1.85v-2.56c0-1.06.15-1.92.45-2.57.3-.65.67-1.12,1.12-1.43.45-.31.9-.46,1.35-.46.72,0,1.3.23,1.73.67.43.45.65,1.3.65,2.54v3.75c0,.92-.14,1.55-.43,1.89-.29.34-.73.51-1.32.51-.07.16-.12.35-.14.57-.02.22-.03.46-.03.73.29-.02.62-.03,1-.04.38,0,.78-.02,1.2-.03.42,0,.82-.01,1.2-.01.56,0,1.11,0,1.65.01.54,0,1.01.03,1.4.07,0-.29,0-.53-.03-.73-.02-.2-.05-.39-.11-.57-.54,0-.93-.16-1.17-.49-.24-.32-.36-.95-.36-1.86v-4.51ZM887.02,467.39c-1.04.62-1.85,1.45-2.43,2.5-.58,1.04-.86,2.21-.86,3.51,0,1.37.21,2.49.63,3.36.42.87,1.02,1.52,1.78,1.93.76.41,1.67.62,2.71.62.59,0,1.13-.1,1.62-.31.49-.21.9-.45,1.26-.73.35-.28.62-.55.8-.82.13-.14.29-.38.49-.72.2-.33.42-.8.68-1.42l-.86-2.83c0,1.22-.16,2.2-.47,2.93-.32.73-.71,1.25-1.19,1.58-.48.32-.98.49-1.5.49-.41,0-.84-.16-1.28-.47-.44-.31-.81-.8-1.12-1.44-.31-.65-.46-1.5-.46-2.57s.12-1.96.36-2.63c.24-.68.56-1.2.96-1.57.4-.37.81-.62,1.23-.77.42-.14.82-.22,1.2-.22.59,0,1.09.12,1.49.36.4.24.77.55,1.13.93v-2.19c-.43-.14-.84-.26-1.22-.34s-.81-.12-1.3-.12c-1.39,0-2.6.31-3.65.93ZM893.95,460.14c-.5.14-1.01.26-1.54.35-.53.09-.99.13-1.36.13-.09.16-.15.34-.19.54-.04.2-.05.41-.05.62.59,0,1.03.07,1.32.22.29.14.48.36.57.63.09.28.14.63.14,1.07v.84h2.83v-3.64c0-.36-.06-.63-.19-.81-.13-.18-.28-.31-.46-.38-.22.14-.57.29-1.07.43ZM892.83,463.57v12.04h2.83v-12.04h-2.83ZM893.45,475.4c-.13.61-.23,1.07-.3,1.36-.07.3-.11.63-.11.99,0,.58.07.96.2,1.15.14.19.31.33.53.42.47-.25,1.02-.45,1.65-.59.63-.14,1.2-.23,1.7-.24.09-.22.15-.45.18-.7s.03-.49.01-.7c-.47,0-.82-.06-1.07-.19s-.4-.33-.47-.62c-.07-.29-.11-.66-.11-1.11l-2.21.24ZM906.36,466.69c-.63-.15-1.38-.23-2.24-.23-.5,0-1.03.07-1.58.2-.55.13-1.05.34-1.51.62s-.83.63-1.12,1.07c-.29.43-.43.94-.43,1.51,0,.74.14,1.35.41,1.82.27.48.7.89,1.28,1.23.58.34,1.35.7,2.28,1.08.79.31,1.39.57,1.78.8.4.22.67.45.82.69.15.23.23.5.23.81,0,.49-.19.88-.58,1.17-.39.3-.91.45-1.58.45-.88,0-1.59-.27-2.12-.81-.53-.54-.87-1.36-1.01-2.46-.29,0-.59.03-.89.08-.31.05-.54.14-.7.27.04.29.05.63.05,1.04s0,.81-.01,1.23c0,.41-.04.77-.09,1.08.65.31,1.3.54,1.96.71.66.17,1.53.26,2.63.26.99,0,1.88-.16,2.66-.47s1.39-.76,1.84-1.34c.44-.58.66-1.24.66-2,0-.65-.12-1.19-.36-1.63-.24-.44-.64-.85-1.2-1.21-.56-.37-1.33-.73-2.32-1.09-.94-.38-1.63-.7-2.08-.96-.45-.26-.74-.5-.86-.73-.13-.22-.19-.48-.19-.77,0-.41.15-.75.46-1,.31-.25.72-.38,1.24-.38.58,0,1.07.13,1.49.41.41.27.74.62.99,1.05.24.43.38.89.42,1.38.29,0,.57-.03.85-.09.28-.06.52-.15.72-.26-.07-.47-.11-.94-.11-1.43s0-.95.03-1.4c-.56-.31-1.15-.54-1.78-.69ZM921.22,476.59c-.12-.16-.26-.29-.42-.38-.38.45-.82.8-1.32,1.05-.5.25-1.04.38-1.62.38-.83,0-1.53-.24-2.09-.73s-.99-1.12-1.28-1.9c-.29-.78-.43-1.61-.43-2.47,0-1.49.25-2.65.74-3.47.49-.82,1.16-1.23,1.98-1.23.76,0,1.37.28,1.84.82.47.55.75,1.35.84,2.39.23,0,.49-.02.78-.05.29-.04.52-.1.7-.19,0-.56.02-1.09.05-1.61.04-.51.09-1.03.16-1.55-.52-.4-1.13-.69-1.84-.89-.7-.2-1.49-.3-2.38-.3-1.24,0-2.3.32-3.16.95-.86.63-1.52,1.44-1.97,2.43-.45.99-.68,2.03-.68,3.11,0,1.4.28,2.58.85,3.52.57.95,1.29,1.66,2.17,2.13.88.48,1.83.72,2.83.72s1.91-.18,2.65-.55c.74-.37,1.35-.91,1.84-1.63-.05-.2-.14-.38-.26-.54ZM924.69,464.54h2.83v-3.64c0-.36-.06-.63-.19-.81-.13-.18-.28-.31-.46-.38-.23.14-.59.29-1.07.43-.48.14-.99.26-1.53.35-.54.09-1,.13-1.38.13-.09.16-.15.34-.19.54-.04.2-.05.41-.05.62.59,0,1.03.07,1.32.22.29.14.48.36.57.63.09.28.14.63.14,1.07v.84ZM935.68,471c0-1.1-.18-1.97-.55-2.61-.37-.64-.86-1.1-1.46-1.38-.6-.28-1.26-.42-1.98-.42-.92,0-1.71.21-2.38.62-.67.41-1.16.83-1.48,1.24-.13.16-.23.32-.3.46-.07.14-.14.28-.22.41.09-.31.15-.59.18-.86.03-.27.04-.51.04-.73l-2.83,2.81v4.97c0,.9-.14,1.52-.41,1.85-.27.33-.76.5-1.46.5-.05.14-.09.33-.11.55-.02.22-.03.47-.03.74.27-.02.6-.03.99-.04.39,0,.8-.02,1.23-.03.43,0,.83-.01,1.19-.01.4,0,.8,0,1.21.01.41,0,.81.02,1.19.03.38,0,.7.02.97.04,0-.27-.01-.51-.04-.72-.03-.21-.07-.4-.12-.58-.67,0-1.13-.17-1.39-.5-.26-.33-.39-.95-.39-1.85v-2.56c0-1.06.15-1.92.45-2.57.3-.65.67-1.12,1.12-1.43.45-.31.91-.46,1.38-.46.7,0,1.27.23,1.71.67.44.45.66,1.3.66,2.54v3.75c0,.92-.14,1.55-.43,1.89-.29.34-.74.51-1.35.51-.07.16-.12.35-.14.57-.02.22-.03.46-.03.73.29-.02.62-.03,1-.04.38,0,.78-.02,1.22-.03.43,0,.83-.01,1.19-.01.58,0,1.13,0,1.67.01.54,0,1.01.03,1.4.07,0-.29-.01-.53-.04-.73-.03-.2-.07-.39-.12-.57-.52,0-.91-.16-1.16-.49-.25-.32-.38-.95-.38-1.86v-4.51ZM924.69,471.03l2.83-3.29v-4.16h-2.83v7.45ZM949.34,478.72c.59-.14,1.14-.23,1.65-.24.09-.22.15-.45.18-.7.03-.25.03-.49.01-.7-.47-.02-.82-.09-1.05-.23-.23-.13-.39-.36-.47-.66-.08-.31-.12-.72-.12-1.24v-2.78c0-1.22-.08-2.19-.24-2.9-.16-.71-.47-1.28-.92-1.71-.29-.32-.69-.58-1.21-.78-.52-.2-1.17-.3-1.94-.3s-1.54.1-2.4.31c-.86.21-1.67.5-2.43.88.11.43.17.93.18,1.49,0,.56,0,1.07-.04,1.54.2.07.46.13.78.16.32.04.61.05.86.05.04-.41.13-.86.27-1.34.14-.48.38-.89.7-1.24.32-.35.77-.53,1.35-.53.32,0,.62.06.89.19.27.13.51.31.73.57.16.18.28.39.36.63.08.24.14.56.16.96.03.4.04.94.04,1.62-.5.07-1.07.17-1.69.28s-1.25.27-1.88.47c-.63.2-1.21.46-1.74.8-.53.33-.96.75-1.3,1.24-.33.5-.5,1.09-.5,1.8,0,.92.31,1.63.93,2.15.62.51,1.51.77,2.66.77.67,0,1.24-.09,1.73-.26s.89-.39,1.21-.66c.31-.27.56-.58.77-.92.21-.34.35-.68.42-1.03h-.08c-.05.22-.09.45-.12.69-.03.24-.04.46-.04.63,0,.49.06.85.19,1.09.13.24.3.41.51.5.47-.25,1-.45,1.59-.59ZM943.02,477.13c-.31-.29-.46-.75-.46-1.38,0-.54.12-.97.36-1.3s.57-.58.97-.78c.41-.2.85-.35,1.34-.46.49-.11.96-.2,1.43-.27v.95c0,.86-.14,1.56-.41,2.09-.27.53-.6.93-1,1.19-.4.26-.79.39-1.19.39s-.75-.14-1.05-.43ZM957.98,467.73c0-.41-.06-.71-.19-.89-.13-.18-.28-.31-.46-.38-.41.22-1.01.42-1.78.59-.77.18-1.5.29-2.19.32-.09.16-.15.34-.19.54-.04.2-.05.41-.05.62.59.02,1.03.1,1.32.24.29.14.47.36.55.63.08.28.12.65.12,1.12v2.81l2.86-5.62ZM957.98,472.94h-2.86v2.46c0,.63-.05,1.12-.16,1.46-.11.34-.29.58-.55.73-.26.14-.63.23-1.12.27-.07.14-.12.32-.14.54-.02.22-.03.47-.03.76.41-.04.99-.06,1.73-.07.74,0,1.45-.01,2.13-.01.45,0,.9,0,1.35.01.45,0,.87.02,1.27.03.4,0,.74.02,1.03.04,0-.27-.01-.51-.04-.73-.03-.22-.07-.4-.12-.57-.59-.05-1.08-.16-1.44-.32-.37-.16-.63-.45-.8-.86-.16-.41-.24-1.01-.24-1.78v-1.94ZM957.49,470.81c.11-.52.22-1.03.32-1.51.11-.49.16-1.01.16-1.57l-2.86,2.62v3h2.86v-2.19l-.49-.35ZM957.98,472.65c0-.67.12-1.28.35-1.84.23-.56.53-1.01.88-1.35.35-.34.67-.51.96-.51.36,0,.65.14.88.42.22.28.36.82.39,1.63.32,0,.65-.03.97-.08.32-.05.58-.12.78-.19,0-.34,0-.72.01-1.12,0-.4.03-.81.07-1.21.04-.41.07-.76.11-1.07-.56-.43-1.18-.65-1.86-.65-.72,0-1.35.21-1.9.62-.55.42-1.02.94-1.42,1.57-.13.22-.25.5-.36.85-.12.35-.27.77-.45,1.26l.59,1.67ZM1046.19,534.69c.65,0,1.27-.01,1.86-.01s1.16,0,1.75.01c.59,0,1.14.03,1.65.07,0-.27,0-.52-.03-.74-.02-.23-.05-.41-.11-.55-.47-.04-.84-.13-1.12-.27-.28-.14-.47-.39-.58-.73-.11-.34-.16-.83-.16-1.46v-10.91c0-.65.05-1.14.16-1.47.11-.33.3-.57.58-.71.28-.14.65-.23,1.12-.27.05-.16.09-.36.11-.58.02-.23.03-.46.03-.72-.36.02-.73.03-1.11.04-.38,0-.77.02-1.16.03-.4,0-.79.01-1.19.01s-.78,0-1.2-.01c-.42,0-.83-.02-1.21-.03-.39,0-.75-.02-1.09-.04,0,.25,0,.49.03.72.02.22.06.42.14.58.49.04.86.13,1.12.27.26.14.45.38.55.71.11.33.16.82.16,1.47v10.91c0,.63-.05,1.12-.16,1.46s-.29.58-.55.73c-.26.14-.63.23-1.12.27-.05.14-.09.33-.12.55-.03.22-.04.47-.04.74.49-.04,1.05-.06,1.7-.07ZM1051.13,526.05c.7-.03,1.44-.05,2.2-.07.76-.02,1.51-.03,2.23-.03h1.81v-1.3h-8.02v1.48c.49-.04,1.08-.07,1.78-.09ZM1056.94,534.69c.64,0,1.26-.01,1.85-.01s1.16,0,1.75.01c.59,0,1.15.03,1.67.07,0-.27-.01-.52-.04-.74-.03-.23-.07-.41-.12-.55-.47-.04-.84-.13-1.11-.27-.27-.14-.46-.39-.57-.73-.11-.34-.16-.83-.16-1.46v-10.91c0-.65.05-1.14.15-1.47.1-.33.29-.57.57-.71.28-.14.65-.23,1.12-.27.07-.16.12-.36.13-.58.02-.23.03-.46.03-.72-.36.02-.73.03-1.12.04-.39,0-.77.02-1.16.03-.39,0-.79.01-1.2.01-.38,0-.78,0-1.2-.01-.42,0-.83-.02-1.22-.03-.39,0-.75-.02-1.09-.04,0,.25.01.49.04.72.03.22.07.42.12.58.49.04.86.13,1.13.27.27.14.45.38.55.71.1.33.15.82.15,1.47v10.91c0,.63-.05,1.12-.15,1.46-.1.34-.28.58-.55.73-.27.14-.65.23-1.13.27-.05.14-.09.33-.12.55-.03.22-.04.47-.04.74.5-.04,1.08-.06,1.71-.07ZM1073.39,534.42c.82-.33,1.54-.89,2.17-1.66-.02-.18-.09-.37-.23-.57-.13-.2-.27-.33-.42-.4-.45.47-.97.83-1.55,1.08s-1.17.38-1.77.38c-1.03,0-1.82-.26-2.38-.77-.56-.51-.95-1.18-1.19-2s-.35-1.68-.35-2.58c0-1.13.13-2.02.38-2.66.25-.64.58-1.09.97-1.36.4-.27.81-.41,1.24-.41.76,0,1.34.36,1.74,1.08.4.72.61,1.67.61,2.86h-5.56v1.48c.7-.04,1.45-.07,2.25-.09.8-.03,1.58-.04,2.35-.05.76,0,1.46-.01,2.08-.01h1.47c.23-.27.39-.61.46-1.03-.05-1.06-.27-2.02-.63-2.86-.37-.85-.92-1.52-1.66-2.02-.74-.5-1.71-.76-2.92-.76s-2.22.29-3.09.88c-.87.58-1.54,1.36-2.01,2.33-.47.97-.7,2.05-.7,3.24s.22,2.24.66,3.21c.44.97,1.1,1.75,1.97,2.32.87.58,1.98.86,3.33.86,1.03,0,1.95-.17,2.77-.5ZM1078.61,534.71c.36,0,.75-.02,1.16-.03.41,0,.81-.01,1.19-.01s.76,0,1.16.01c.4,0,.77.02,1.13.03.36,0,.69.02,1,.04,0-.18-.01-.4-.04-.65-.03-.25-.07-.47-.12-.65-.59-.02-1.01-.19-1.26-.51-.24-.32-.36-.94-.36-1.84v-14.61c0-.36-.06-.63-.19-.81-.13-.18-.28-.31-.46-.38-.23.14-.59.29-1.07.43-.48.14-.99.26-1.53.35-.54.09-1,.13-1.38.13-.09.16-.15.34-.19.54-.04.2-.05.41-.05.62.59,0,1.03.07,1.32.22.29.14.48.35.57.62.09.27.13.61.13,1.03v11.85c0,.9-.13,1.51-.39,1.84-.26.32-.75.5-1.47.51-.05.18-.09.39-.11.62-.02.23-.03.46-.03.67.29-.02.61-.03.97-.04ZM1094.88,534.42c.82-.33,1.54-.89,2.17-1.66-.02-.18-.09-.37-.23-.57-.13-.2-.27-.33-.42-.4-.45.47-.97.83-1.55,1.08s-1.17.38-1.77.38c-1.03,0-1.82-.26-2.38-.77-.56-.51-.95-1.18-1.19-2s-.35-1.68-.35-2.58c0-1.13.13-2.02.38-2.66.25-.64.58-1.09.97-1.36.4-.27.81-.41,1.24-.41.76,0,1.34.36,1.74,1.08.4.72.61,1.67.61,2.86h-5.56v1.48c.7-.04,1.45-.07,2.25-.09.8-.03,1.58-.04,2.35-.05.76,0,1.46-.01,2.08-.01h1.47c.23-.27.39-.61.46-1.03-.05-1.06-.27-2.02-.63-2.86-.37-.85-.92-1.52-1.66-2.02-.74-.5-1.71-.76-2.92-.76s-2.22.29-3.09.88c-.87.58-1.54,1.36-2.01,2.33-.47.97-.7,2.05-.7,3.24s.22,2.24.66,3.21c.44.97,1.1,1.75,1.97,2.32.87.58,1.98.86,3.33.86,1.03,0,1.95-.17,2.77-.5ZM1109.11,533.99c1.04-.62,1.84-1.45,2.4-2.5.57-1.04.85-2.21.85-3.51,0-1.37-.21-2.49-.62-3.36-.41-.87-1-1.52-1.77-1.93-.77-.41-1.68-.62-2.74-.62-.58,0-1.11.1-1.61.3-.5.2-.92.44-1.27.73s-.61.57-.77.84c-.13.14-.29.38-.49.72-.2.33-.42.81-.68,1.42l.54,1.03.16-2.27c.04-.23.07-.47.11-.71s.05-.55.05-.93v-6.67c0-.36-.06-.63-.19-.81-.13-.18-.28-.31-.46-.38-.23.14-.59.29-1.07.43-.48.14-.99.26-1.53.35-.54.09-1,.13-1.38.13-.09.16-.15.34-.19.54-.04.2-.05.41-.05.62.59,0,1.03.07,1.32.22.29.14.48.36.57.63.09.28.14.63.14,1.07v10.45c0,.99-.05,1.72-.15,2.2-.1.48-.26.84-.47,1.09.38.36.84.68,1.39.96.55.28,1.18.5,1.9.66.72.16,1.49.24,2.32.24,1.4,0,2.62-.31,3.66-.93ZM1103.29,533.11v-4.21c0-1.22.16-2.2.47-2.93.31-.73.71-1.26,1.19-1.58.48-.32.97-.49,1.47-.49.43,0,.87.16,1.31.47.44.32.81.8,1.12,1.44.31.65.46,1.5.46,2.57s-.12,1.95-.36,2.62c-.24.67-.56,1.19-.96,1.57-.4.38-.81.64-1.23.78-.42.14-.82.22-1.2.22-.59,0-1.09-.12-1.5-.36-.41-.24-.78-.55-1.12-.93l.35.84ZM1124.52,532.19c-.12-.16-.26-.29-.42-.38-.38.45-.82.8-1.32,1.05-.5.25-1.04.38-1.62.38-.83,0-1.53-.24-2.09-.73s-1-1.12-1.28-1.9c-.29-.78-.43-1.61-.43-2.47,0-1.49.25-2.65.74-3.47.5-.82,1.16-1.23,1.98-1.23.76,0,1.37.28,1.84.82s.75,1.35.84,2.39c.23,0,.49-.02.78-.05.29-.04.52-.1.7-.19,0-.56.02-1.09.05-1.61.04-.51.09-1.03.16-1.55-.52-.4-1.13-.69-1.84-.89s-1.49-.3-2.38-.3c-1.24,0-2.29.32-3.16.95-.86.63-1.52,1.44-1.97,2.43-.45.99-.68,2.03-.68,3.11,0,1.4.28,2.58.85,3.52.57.95,1.29,1.66,2.17,2.13.88.48,1.83.72,2.83.72s1.91-.18,2.65-.55c.74-.37,1.35-.91,1.84-1.63-.05-.2-.14-.38-.26-.54ZM1135.4,534.42c.82-.33,1.54-.89,2.17-1.66-.02-.18-.09-.37-.23-.57-.14-.2-.27-.33-.42-.4-.45.47-.97.83-1.55,1.08-.58.25-1.17.38-1.77.38-1.03,0-1.82-.26-2.38-.77-.56-.51-.95-1.18-1.19-2-.23-.82-.35-1.68-.35-2.58,0-1.13.13-2.02.38-2.66.25-.64.58-1.09.97-1.36.4-.27.81-.41,1.24-.41.76,0,1.34.36,1.74,1.08.41.72.61,1.67.61,2.86h-5.56v1.48c.7-.04,1.45-.07,2.25-.09.8-.03,1.58-.04,2.35-.05.77,0,1.46-.01,2.08-.01h1.47c.23-.27.39-.61.46-1.03-.05-1.06-.27-2.02-.63-2.86-.37-.85-.92-1.52-1.66-2.02-.74-.5-1.71-.76-2.92-.76s-2.22.29-3.09.88-1.54,1.36-2.01,2.33c-.47.97-.7,2.05-.7,3.24s.22,2.24.66,3.21c.44.97,1.1,1.75,1.97,2.32s1.98.86,3.33.86c1.03,0,1.95-.17,2.77-.5Z" style="fill:#232323; stroke-width:0px;"/></g></svg>