<?xml version="1.0" encoding="UTF-8"?>
<svg id="a" data-name="Ebene 1" xmlns="http://www.w3.org/2000/svg" width="1920" height="1080" viewBox="0 0 1920 1080">
  <path d="M176,390.95v37.2l-3.2,21.22h-.04c-.45.07-.53.33-.41.7.1.31.12.67.09,1-.06.66-.62,1.15-1.39,1.2-.17,0-.34-.04-.51-.07-.66,0-1.26-.22-1.87-.43-.44-.14-.93-.2-1.43,0-.74.3-1.48.59-2.32.21-.03-.01-.07-.02-.1-.02-.22,0-.54.21-.8.3.12.36.25.72.38,1.08.69.19,1.07.79,1.58,1.21.1.08.16.27.15.4-.03.35-.29.52-.68.58-.33.04-.74.05-.96.24-1.14,1.03-2.34,1.89-3.9,2.18-.47.08-.9.43-1.34.66l-.03.04c.06.93-.48,1.6-.98,2.29-.63.85-1.35,1.54-2.48,1.6-.71.03-1.27.47-1.87.77-.79.39-1.64.38-2.49.3-.16-.01-.36-.06-.47-.16-.38-.35-.62-.79-.7-1.3-.05-.34.63-.97,1.04-.96.85,0,1.7.05,2.55-.01.29-.02.59-.29.85-.49.33-.25.27-1.09-.02-1.31-.57-.43-1.23-.59-1.89-.75-.33-.08-.69-.1-.99-.24-.27-.13-.53-.36-.7-.61-.17-.27.26-1.05.68-1.25.46-.22.96-.37,1.41-.61.3-.15.62-.36.79-.63.14-.25.21-.67.09-.92-.12-.24-.52-.51-.78-.49-1.02.09-2.04.22-3.03.45-1.54.34-3.06.22-4.59.07-.33.08-.67.24-.99.2-.85-.08-1.69-.28-2.54-.38-.68-.08-1.37-.06-2.06-.12-1.33-.11-2.33.37-2.91,1.62-.36.78-.77,1.54-1.16,2.31-.18.36-.89.59-1.35.57-1.21-.07-2.26-.92-3.53-.67-1.01.19-2.03.37-3.06.53-.33.05-.81.45-1.5.51-1.21.09-2.37-.17-3.51-.47-.62-.17-1.2-.64-1.71-1.07-.34-.28-.27-.67.04-.79.8-.32,1.51-.63,1.98-1.48.54-.96,1.56-1.28,2.65-1.18,1.21.11,2.39.18,3.56-.26,1.14-.44,2.36-.39,3.56-.44.24-.46.46-.92.89-1.25.44-.33.92-.44,1.43-.21.31.14.6.33.89.5,1.65-.06,5.08-.13,4.94-.28.49-.51,1.08-.86,1.79-.82,1.85.1,3.71,0,5.56.42,1.14.25,2.37.15,3.55.18.68.03,1.06-.68.7-1.4-.16-.33-.29-.61-.12-.95.23-.45.45-.9.71-1.33.21-.32.14-.62.12-.97-.03-1.14.69-2,1.69-2.14.34-.04.68-.12,1.01-.1.68.03,1.35.11,2.03.18.7.08,1.33-.08,1.94-.44.58-.34,1.2-.63,1.8-.95-.03-.3.08-.53.32-.71.33,0,.66.04.98-.01.52-.09.88-.38.98-.93.62-.84,1.55-1.02,2.5-1.2.51-.1.72-.53.74-1.04-1.53.07-3.05.12-4.57.23-.67.05-1.34.16-1.99.33-.66.18-1.31.39-1.99.3-1.19-.16-2.33.51-3.52.17-.16-.05-.33-.08-.49-.13-1.06.24-2.12.28-3.15-.1-.34.01-.67.02-1.01.02-.32.11-.65.3-.98.31-.86,0-1.71-.07-2.57-.09-1.22-.02-2.42.08-3.56.56-.31.14-.64.26-.97.36-1,.29-2.01.49-3.06.41-.86-.07-1.72-.13-2.59-.15-.86-.01-1.71.08-2.5.52-.81.44-1.66.4-2.5.1-.34-.12-.66-.05-1.01-.02-1.19.1-2.39.08-3.59.19-.3.02-.57.35-.88.49-.53.26-.64.21-.96-.48-.29-.62-.58-1.24-1.17-1.65-.14-.1-.29-.23-.45-.26-1.39-.2-2.73.24-4.11.31-.26.01-.57.39-.73.67-.54.96-1.32,1.58-2.36,1.88-.36.1-.7-.03-.93-.25-.12-.11-.29-.26-.31-.4-.17-1.22-.84-2.25-1.22-3.39-.19-.53-.05-1.07.33-1.43.85-.8,1.48-1.87,2.73-2.25.47-.14.82-.61,1.24-.91.44-.32.96-.27,1.48-.27,1.26-.01,2.15,1.05,3.37,1.14.4.32.79.64,1.19.97.26.21.5.45.79.61.13.08.37.06.51-.01.92-.46,1.85-.9,2.72-1.45.4-.25,1.03-.43,1-1.05-.01-.27-.33-.54-.52-.81-.18-.27-.18-.58.05-.92.19-.28.37-.57.61-.8.74-.71,1.52-1.4,2.28-2.1.48-.22.8-.57.97-1.07.23-.68-.11-1.44-.77-1.63-.54-.16-.95.1-1.25.55-.27.21-.58.29-.91.23-.23.6-.67,1.01-1.18,1.38-.44.3-.76.18-.97-.44-.1-.28-.13-.6-.19-.9h-.02c-.29.08-.6.14-.87.28-.35.16-.61.19-.76-.05-.16-.27-.13-.56,0-.86.13-.3.35-.5.68-.58.01-.35.03-.7.04-1.05.07-.33-.02-.63-.34-.73-.34-.12-.58.07-.66.43-.41.31-.79.65-1.22.91-.47.28-1.01.26-1.47.01-.44-.23-.84-.57-1.2-.91-.35-.33-.39-1.12-.1-1.43.47-.49.98-.94,1.42-1.46.2-.24.26-.6.39-.9-.66-.09-1.32-.19-1.97-.28-.61.37-.94,1.01-1.45,1.47-.5.45-1.14.75-1.65,1.2-.29.24-.53.38-.92.33-.7-.08-1.38.03-2.04.28-.51.19-1.01.08-1.52-.01-.68-.13-1.38-.93-1.19-1.46.46-1.33.56-2.69.56-4.07,0-.72-.21-1.33-.6-1.93-.46-.7-.69-1.76-.66-2.44.02-.54.25-.99.54-1.42.09-.14.26-.33.22-.43-.13-.3-.34-.58-.54-.86-.1-.13-.24-.29-.39-.33-2.31-.67-4.52-1.7-6.99-1.82-.47-.02-.94-.37-1.4-.6-.36-.18-.45-.5-.23-.87.07-.13.24-.22.38-.28.66-.31,1.35-.17,2.04-.13,1.21.06,2.4.03,3.56-.43.8-.32,1.68-.42,2.51-.64.33-.09.65-.24.96-.39,1.32-.61,2.25-1.55,2.58-3.03.19-.87.27-1.7-.35-2.45-.5-.6-.55-1.2-.09-1.85.63-.88.68-1.94.87-2.95.28-1.56-.96-2.95-2.61-3.29-.34-.06-.72-.12-1.03-.02-1.63.51-3.08.14-4.39-.87-.54-.42-1.26-.51-1.76-1.04-.87-.89-2.01-1.31-3.18-1.64-.5-.13-.95-.46-1.45-.56-.49-.1-1.04-.12-1.53-.01-1.18.25-2.32.68-3.35,1.34-.29-.14-.72-.21-.85-.44-.25-.44-.39-.96-.47-1.46-.2-1.23-.75-2.29-1.48-3.27-.19-.27-.48-.58-.77-.63-1.02-.18-1.36-.88-1.65-1.74-.08-.24-.52-.53-.79-.53-1.55.03-3.1.14-4.65.24-.57.04-.99.43-1.15.9-.4,1.14-.67,2.33-1.42,3.31-.23.29-.66.47-.84.31-.56-.49-1.17-.53-1.88-.59-.66-.06-1.13-.68-1.48-1.32-.6-1.12-.78-1.36-1.3-1.51-1.33-.39-2.41-1.4-3.85-1.48-.58-.04-.88-.51-1.26-.83-.32-.26-.59-.33-.92-.21-1.47.55-2.7.2-3.7-1.01-.11-.13-.25-.23-.38-.35-.63-.03-1.26-.05-1.89-.11-.48-.05-1.04-.58-.9-.87.23-.47.71-.56,1.19-.56.16,0,.31.04.47.06,1.06-.58,1.11-1.59,1.16-2.62.02-.36.3-.58.63-.59.16,0,.36.07.47.18.36.36.67.76,1.04,1.11.24.23.52.45.83.57.3.12.69.24.97.15.79-.27,1.54-.66,2.33-.96,1.32-.51,2.43-1.21,2.76-2.72.43-.5.85-1.02,1.3-1.51.3-.33.2-.53-.1-.86-.72-.8-1.67-1.12-2.64-1.44-.69-.23-1.33-.12-1.89.37-.12.11-.24.23-.36.35-.89.41-1.42,1.47-2.56,1.42-.15,0-.34-.12-.43-.24-.17-.21-.11-.52.15-.81.1-.11.31-.19.46-.18.5.02.99.15,1.48.13.3-.01.59-.22.89-.34.02-.17.03-.34.06-.51.11-.67.29-1.34-.16-1.97-1.22-1.74-1.8-3.7-2-5.79-.07-.8.44-1.69,1.31-2.01.64-.23,1.31-.44,1.99-.5.67-.05,1.37.09,2.06.15.9.08,1.62.57,2.31,1.09.6.45,2.2,2.37,2.53,3.2.41,1.03,1.1,1.71,1.98,2.3.42.28.77.68,1.11,1.06.5.54.37,1.77-.25,2.26-.26.22-.52.44-.74.7-.27.31-.36,1.21-.19,1.45.5.7.99,1.41,1.52,2.09.44.55.59,1.22.79,1.87.15.52.6.82.99,1.16.3.27.6.32.91.02.09-.08.17-.27.14-.38-.13-.68-.29-1.35-.45-2.02-.24-.93.08-1.68.7-2.35.28-.45.7-.71,1.15-.95.81-.45.82-.76.07-1.3-.28-.2-.56-.39-.82-.6-.75-.59-.84-1.18-.39-2.27.06-.14.22-.26.35-.37.42-.35,1.12-.28,1.29.13.34.78.72,1.55.97,2.36.14.46.23,1.06.05,1.48-.35.85-.23,1.66-.16,2.49.35.39.67.8,1.04,1.16.66.64,1.46.91,2.36.59.81-.29,1.6-.65,2.48-.68,2.26-.08,4.43-.63,6.52-1.47,1.02-.41,2-.39,3.02-.11.17.05.33.12.5.16.91.23,1.68-.13,2.41-.61.48-.32,1.09-1.11,1.2-1.55.04-.14-.07-.43-.09-.43-1.2.15-2.37.14-3.55-.26-.83-.28-1.72-.08-2.56.11-.83.19-1.64.5-2.46.76-.54.16-1.01-.04-1.47-.27-.16-.08-.33-.17-.42-.3-1.04-1.44-2.37-2.49-4.03-3.11-.47-.18-.97-.41-1.08-.92-.07-.29.19-.64.29-.97.14-.48-.04-1.16-.38-1.38-.71-.47-1.37-1.03-2.21-1.32-.31-.11-.62-.3-.87-.51-.39-.34-.76-.71-.89-1.24-.25-.99-.56-1.98-.55-3.03,0-.43.41-1.04.85-1.16.83-.22,1.71-.25,2.48-.67.84-.44,1.66-.29,2.49.04.32.12.66.2.99.29.75.21,1.28-.11,1.8-.64.73-.74.74-.7.4-1.68-.15-.42-.68-.83-.18-1.3.38-.37.9-.56,1.4-.34.36.16.64.24.96-.01.14-.1.35-.14.42-.26.8-1.33,2.06-1.73,3.5-1.86.4-.03.62-.34.59-.65-.04-.52-.11-1.03-.18-1.54-.06-.48-.58-.84-1.07-.72-.5.12-1,.41-1.49.38-.49-.02-.96-.35-1.45-.52-1.19-.41-2.42-.38-3.55.1-1.1.46-2.05.09-2.97-.32-1.2-.52-1.87-1.48-1.76-2.86.03-.34.03-.7.14-1.02.1-.31.26-.68.51-.85,1-.67,2.06-1.24,3.05-1.92.2-.13.19-.61.22-.93.02-.15-.08-.34-.18-.47-1.16-1.54-2.49-2.81-4.46-3.31-1.04-.26-1.67-1.19-2.16-2.12-.23-.44-.31-.97-.47-1.45-.24-.72-.81-1.08-1.48-1.31-.17-.06-.33-.12-.49-.17-1.18.25-2.34.34-3.47-.23-.34-.17-.57-.51-.33-.81.6-.78.6-1.43.04-2.26-.34-.51-.34-1.26-.49-1.9-.04-.16-.11-.32-.17-.48.3-.09.59-.22.9-.25.33-.04.69-.04,1,.06.3.09.7.28.79.53.6,1.69,1.82,1.76,3.27,1.35.16-.05.34,0,.51,0,.6-.34,1.17-.73,1.79-1,1.03-.45,1.62-1.14,1.76-2.29.06-.49.54-.76,1.09-.89,1.12-.26,1.15-.29,1.51-1.15.14-.35.24-.65.62-.74l.99-.21c.34-.07.7-.07,1-.2.29-.13.63-.34.77-.61.32-.6.57-1.24.76-1.89.48-1.63-.39-2.58-2.17-2.46-.7.05-1.28.45-1.95.61-.63.51-1.29.45-1.96.1-1.39-.06-2.78.29-4.17.01-.34.21-.7.25-1.07.14-1.31.52-2.73.3-4.07.68-1.16.32-2.36.52-3.55.74-1.52.28-3.06.51-4.59.79-1.36.24-2.56.99-3.93,1.24-.84.16-1.64.58-2.51.57-2.27-.03-4.45.41-6.63,1-.98.27-2.05.28-3.08.3-.69.02-1.35-.19-1.99-.49-.68-.33-1.07-1.01-.83-1.63.3-.81.68-1.59.91-2.42.28-1.04.78-1.9,1.63-2.56.27-.21.5-.48.72-.74.67-.84.99-1.82.97-2.89-.02-.68,0-1.43-.25-2.04-.49-1.19-.41-2.29.01-3.48.29-.83.07-1.69-.32-2.49-.14-.29-.26-.72-.15-.97.52-1.13.43-2.36.63-3.54.18-1.03.59-1.97,1.09-2.89.28-.51.74-.71,1.25-.75.51-.05,1.04.04,1.55.03.69-.02,1.38-.03,2.06-.14,1.43-.24,2.56-.99,3.32-2.24.35-.59.66-1.21.99-1.82-.5-.32-1.01-.59-1.65-.43-.43.1-.88.14-1.32.21-1.4.67-2.79,1.38-4.21,2-.45.19-1.01.17-1.52.2-.14.01-.31-.14-.41-.26-.09-.1-.14-.27-.13-.41.01-.17.06-.35.15-.49,1.07-1.56,2.12-3.14,3.23-4.67.41-.57.75-1.14,1.03-1.78.53-1.22.54-2.32-.5-3.29-.25-.24-.48-.51-.66-.79-.4-.63-.35-1.31-.09-1.98.06-.16.14-.33.26-.44.12-.12.29-.19.45-.24,2.83-.86,5.36-2.35,7.92-3.78,1.06-.59,2.1-1.16,3.29-1.47.66-.17,1.27-.53,1.9-.82.93-.44,1.85-.92,2.8-1.33,1.28-.56,2.59-.96,4.01-.88,1.08.07,1.99-.25,2.73-1.15.43-.52,1.11-.74,1.86-.75,1.24-.03,2.33-.53,3.24-1.4.42-.4.55-.87.45-1.38-.12-.69-.47-1.29-.98-1.78-.53-.51-1.21-.84-1.88-.6-2.33.84-4.76.74-7.16.83-.71.03-1.36.21-1.98.55-.6.34-1.22.66-1.81,1.01-.99.57-1.98.5-2.98.07-.32-.13-.64-.24-.96-.37-.52-.21-1.05-.14-1.51.08-.47.23-.94.42-1.46.43-.52.02-1.04-.08-1.55-.07-1.89.05-3.73.72-5.67.39-1.71-.29-3.44-.03-5.17.09-.67.05-1.37-.11-2.05-.2-.72-.09-1.29-.48-1.81-.95-.24-.22-.51-.52-.58-.82-.27-1.18-.48-2.37-.7-3.55-.08-.39.32-.91.85-1.11.48-.18.98-.33,1.45-.54.47-.21.98-.45,1.17-.97.56-1.57,1.74-2.5,3.17-3.21.66-.32.91-.96,1.17-1.63.48-1.2,1.4-1.9,2.73-2.03.32-.03.62-.23.93-.35.25-1.19,1.22-1.55,2.21-1.88.41-.14.45-.38.41-.81-.12-1.17-.12-1.21.44-1.93.26-.33.43-.54.18-.88-.51-.69-1.05-1.35-1.52-2.07-.27-.42-.37-.86-.15-1.42.24-.61-.18-1.33.15-2.01.25-.49,0-.98-.21-1.46-.2-.48-.31-.98-.1-1.49.27-.65.37-1.31.39-2.02.03-1.01.53-1.22,1.29-1.14.35.04.69.04,1.04.05.7.03,1.37-.06,2-.41,1.51-.84,2.97-1.73,4.24-2.93.98-.94,2.14-1,3.36-.46.15.07.3.17.47.2.83.18,2.2-.73,2.44-1.54.24-.86.19-1.7-.08-2.54-1.2-3.63-1.26-3.92-1.55-8.05-.08-1.15-.34-1.57-1.41-1.8-1.41-.31-2.59-.92-3.46-2.09-.43-.59-1.06-.84-1.73-1.04-.32-.1-.66-.22-1-.23-1.86-.03-3.26-1-4.59-2.15-.63-.54-.78-1.5-.3-2.34.34-.59.7-1.19,1.13-1.72.32-.39.7-.78,1.28-.79,2.07-.05,4.14-.09,6.21-.14.74-.02,1.31-.37,1.76-.94.21-.27.43-.54.61-.83.47-.75.73-1.57.5-2.46-.1-.37-.09-.67.1-.97.57-.93,1.53-1.36,2.44-1.84.29-.15.68-.16,1.02-.14,1.2.09,2.42.16,3.61.36.91.15,1.71-.02,2.48-.46.48-.28.99-.25,1.5-.19.68.08,1.41.41,2.04.11,1.77-.82,3.67-.91,5.53-1.23.31-.05.68-.27.86-.53.71-1.02,1.86-1.51,2.75-2.32-.01-.57.28-.97.79-1.17.83-.33,1.69-.28,2.55-.12,1.18.22,2.27.84,3.5.89.51.02,1.03.04,1.46-.33.13-.12.28-.2.4-.32,1.46-1.47,3.11-1.23,4.75-.46.94.44,1.79,1.04,2.7,1.53.48.26.8.64,1.1,1.07,1.42,2.07,3.38,3.36,5.79,4.01.17.05.33.09.5.14.9.31,1.35,1.01,1.57,1.89.34-.06.71-.06,1.01-.2.92-.45,1.79-1.02,2.73-1.41.95-.4,1.98-.57,2.94-.94,1.71-.66,3.36-.62,5,.19.31.15.63.26.96.38.32.12,1.03-.29,1.22-.7.52-1.11,1.34-1.62,2.33-1.44.34.06.72.1.99.28.91.61,1.91.75,2.95.59,1.21-.2,2.4-.24,3.56.23.51.2.88.56.97,1.1.13.67.19,1.36.26,2.04.06.63-.18.94-.8,1.04-.17.03-.35.06-.52.05-.8-.09-1.31.38-1.67.97-.36.61-.4,1.35-.09,1.99.15.32.32.65.49.96l-11.43,8.96-38.55,43.2-2.47,6.3-4.39,3.04-9.11,5.74s-8.33,1.8-9.45,3.82c-1.13,2.03-4.95,5.85-4.95,5.85l-2.03,3.38,3.38,2.7s15.3,2.7,17.32,4.27c2.03,1.58,30.08,38.1,30.08,38.1l56.02,59.4Z" style="fill: none; stroke: #232323; stroke-linecap: square; stroke-linejoin: bevel; stroke-width: 1.47px;"/>
</svg>