<?xml version="1.0" encoding="UTF-8"?><svg id="b" xmlns="http://www.w3.org/2000/svg" width="1920" height="1080" viewBox="0 0 1920 1080"><polygon points="1051.46 500.32 1051.36 501.09 1050.79 501.89 1050.01 502.46 1049.25 502.85 1048.52 503.23 1048.19 503.63 1045.14 504.69 1044.13 504.64 1041.67 505.71 1040.66 505.9 1037.23 505.81 1036.22 506.1 1035.6 506.66 1035.25 507.36 1035.21 507.44 1035.04 508.3 1035.03 509.11 1035.51 511 1035.37 511.67 1033.87 511.3 1033.64 511.3 1033.41 511.35 1033.84 512.34 1034.39 513.28 1034.58 513.48 1034.65 513.69 1034.59 513.89 1034.39 514.09 1034 514.33 1033.74 514.65 1033.62 515.05 1033.64 515.5 1034.28 516.92 1037.42 521.03 1040.14 523.01 1041.31 524.12 1041.66 525.57 1041.56 525.77 1041.3 526.26 1040.69 526.86 1040.26 527.48 1040.39 528.26 1041.07 528.65 1042.98 528.63 1043.72 529.14 1043.53 530.43 1042.47 531.92 1041.81 533.31 1042.82 534.28 1042.43 534.87 1041.91 535.11 1041.3 535.2 1040.05 535.54 1039.17 535.35 1038.68 535.4 1037.36 536.05 1036.64 536.6 1035.86 536.77 1034.39 536.24 1033.76 536.28 1033.25 536.11 1032.22 535.56 1031.49 535.36 1031.15 535.47 1030.47 536.39 1030.42 536.62 1030.56 537.22 1030.46 537.45 1030.16 537.58 1029.47 537.63 1029.15 537.72 1028.63 538.15 1028.39 538.71 1028.38 539.36 1028.52 540.03 1028.52 540.04 1028.98 541.31 1028.85 542.23 1028.43 543.13 1028.06 544.33 1027.31 545.15 1025.99 544.77 1025.41 544.51 1024.53 544.13 1023.39 544.17 1023.07 545.12 1023.16 546.36 1022.91 547.56 1021.55 548.34 1020.16 548.46 1019.54 548.67 1019.05 549.23 1018.9 549.82 1019.01 550.81 1018.86 551.38 1017.5 552.67 1017.12 553.46 1017.85 554.14 1018.26 554.33 1018.7 554.62 1019.06 554.97 1019.23 555.37 1019.38 555.89 1019.62 556.19 1019.88 556.43 1020.08 556.78 1020.23 557.7 1020.26 558.63 1020.41 559.46 1020.96 560.1 1021.11 560.41 1021.09 560.94 1020.96 561.46 1020.76 561.78 1020.47 561.83 1019.39 561.52 1016.01 561.29 1014.5 560.99 1012.81 560.26 1010.9 559.8 1010.7 561.14 1011.11 563.13 1011.04 564.58 1010.81 564.97 1010.53 565.33 1010.21 565.63 1009.85 565.9 1007.27 566.38 1006.8 567.03 1008.29 571.01 1008.31 571.06 1008.94 572.13 1009.85 572.68 1010.83 572.03 1011.93 572.03 1012.94 572.56 1013.69 573.52 1013.96 574.64 1013.86 575.85 1013.21 578.21 1012.97 578.65 1012.28 579.58 1012.18 580.04 1012.41 580.59 1012.77 581.02 1013.05 581.44 1013.05 581.99 1012.56 582.54 1010.57 583.89 1010.37 584.07 1007.54 583.91 999.84 583.21 990.75 583.35 983.05 582.93 980.11 582.65 973.95 579.85 971.16 578.31 971.16 575.79 971.02 574.25 968.64 573.13 965.56 571.32 962.48 569.92 962.48 568.24 964.02 566.84 963.88 564.74 962.2 564.46 958.84 563.76 955.9 563.62 956.46 561.8 956.6 560.96 954.92 559.84 950.72 560.54 950.58 559.28 949.32 556.76 948.35 555.64 947.23 553.96 946.81 551.86 948.91 552.56 950.44 554.24 953.38 554.66 954.36 551.02 955.06 547.95 957.02 545.85 957.86 544.03 957.3 541.23 955.2 538.57 955.06 535.07 954.08 533.39 950.58 531.99 950.3 530.45 947.09 526.67 944.99 523.18 942.19 521.92 940.23 520.94 939.95 518.98 939.53 517.72 936.45 517.3 934.49 516.46 933.65 514.64 931.97 511.98 929.31 513.24 928.05 514.08 926.51 512.68 925.82 514.78 925.4 515.76 923.16 516.32 921.9 516.6 921.34 517.72 919.66 518.42 917.84 518.14 916.72 518.84 916.3 520.24 911.4 520.38 906.92 520.24 903.56 520.1 904.68 518.84 907.2 518.42 909.3 517.16 909.58 516.04 909.16 514.5 910.56 512.82 910.42 511 907.06 508.34 905.38 508.2 902.59 509.88 900.35 510.86 897.69 511.14 891.67 510.58 892.37 508.06 895.03 505.26 895.31 504.56 894.19 502.19 893.07 500.65 892.79 495.61 886.63 493.37 884.53 492.67 881.45 494.21 878.8 494.21 875.02 492.25 872.78 492.67 869.98 493.65 866.34 493.79 864.1 495.05 859.62 492.25 855.29 491.83 854.73 489.73 854.31 488.19 851.79 486.37 849.55 485.67 842.55 485.53 833.46 486.23 828.28 485.95 823.52 486.79 817.5 486.51 815.68 484.69 813.72 481.61 810.23 480.78 807.99 480.64 803.56 480.22 803.57 480.14 803.6 479.82 803.67 479.07 803.76 478.23 803.82 477.68 803.85 477.36 803.86 477.24 803.87 477.16 803.93 476.55 803.98 476.13 803.95 475.74 803.96 474.92 804.07 474.56 804.06 474.54 804.05 474.51 804.08 474.43 804.07 474.39 804.08 474.32 804.07 474.27 804.08 474.24 804.12 474.21 804.2 474.12 804.19 474.09 804.2 474.04 804.21 474.01 804.26 473.94 804.29 473.92 804.3 473.92 804.34 473.84 804.36 473.81 804.38 473.8 804.39 473.79 804.42 473.72 804.44 473.7 804.55 473.7 804.61 473.67 804.62 473.66 804.64 473.66 804.71 473.58 804.73 473.55 804.74 473.53 804.76 473.51 804.74 473.43 804.74 473.4 804.76 473.33 804.76 473.28 804.75 473.25 804.75 473.22 804.74 473.2 804.74 473.19 804.71 473.16 804.69 473.16 804.65 473.15 804.62 473.14 804.6 473.13 804.58 473.12 804.58 473.11 804.57 473.09 804.58 473.08 804.56 473.06 804.54 473.04 804.55 473.03 804.54 473.03 804.54 473.02 804.55 473.01 804.56 473.01 804.56 472.97 804.55 472.95 804.52 472.92 804.5 472.91 804.47 472.89 804.46 472.88 804.45 472.87 804.45 472.83 804.44 472.77 804.49 472.7 804.49 472.68 804.51 472.66 804.57 472.57 804.74 472.33 804.86 472.15 805.02 471.9 805.12 471.75 805.28 471.52 805.38 471.36 805.48 471.22 805.59 471.05 805.73 470.84 805.9 470.6 806.17 470.2 806.45 469.74 806.74 469.31 807.12 468.75 807.44 468.26 807.85 467.65 808.16 467.18 808.49 466.69 808.98 465.95 809.36 465.39 809.58 465.13 809.75 464.96 810.28 464.87 810.8 464.79 811.71 464.65 812.74 464.49 813.8 464.32 814.84 464.18 815.66 464.03 816.57 463.9 817.14 463.82 818.22 463.65 819.17 463.5 824.56 462.71 826.05 462.46 828.02 462.15 830.13 461.84 831.83 460.62 832.81 459.92 833.49 459.43 833.6 459.33 834.07 458.9 834.25 458.75 835.68 457.48 836.24 456.98 836.3 456.95 836.38 456.93 836.9 456.67 837.25 456.49 837.39 456.42 837.54 456.36 837.64 456.29 837.69 456.14 837.71 456.05 837.74 456 837.79 456 837.82 455.98 837.87 455.99 837.91 455.93 837.93 455.94 838.05 455.99 838.1 455.82 839.09 454.43 840.56 453.11 842.13 451.71 842.68 451.22 842.75 451.16 842.79 451.12 842.87 451.05 843.36 450.6 843.74 450.28 844.41 449.68 844.92 449.23 845.46 448.74 845.79 448.45 846.29 448.01 846.66 447.68 847.28 447.13 847.65 446.8 848.21 446.31 848.84 445.75 849.26 445.37 849.59 445.08 849.98 444.74 850.66 444.15 851.3 443.56 851.86 443.07 852.51 442.5 853 442.06 853.99 441.19 855.01 440.29 855.62 439.71 856.47 439 857.22 438.87 857.22 438.78 857.58 438.55 857.6 438.54 857.58 437.83 857.31 437.28 856.94 436.78 856.62 436.2 857.93 436.07 858.81 435.99 861.62 435.25 865.85 434.68 866.63 434.4 866.8 434.13 867.41 432.8 873.56 425.63 873.75 425.24 873.81 424.9 873.91 424.55 874.21 424.16 874.53 423.98 876.96 423.19 877.39 423.17 877.98 423.22 878.41 423.48 878.62 424.33 879.04 424.57 883.1 425.65 885.08 425.88 887.17 425.31 888.42 424.55 890.3 423.91 892.28 423.49 893.8 423.38 894.65 423.57 901.1 426.35 901.43 426.44 901.84 426.49 902.28 426.42 902.74 426.05 903.17 425.89 904.08 425.78 904.67 425.88 905.96 426.68 906.62 427.09 908.62 427.89 910.91 429.39 911.71 429.65 912.34 429.58 913.55 429.21 914.16 429.13 914.79 429.21 915.19 429.39 916.09 429.93 917.33 430.33 918.51 430.45 923.55 430.18 924.83 430.27 925.99 430.51 926.48 430.78 927.53 431.6 927.89 431.79 928.51 431.66 929.4 430.94 932.03 430.56 933.53 429.17 934.98 427.49 936.78 426.26 939 425.98 940.64 426.2 941.57 426.32 946.3 427.89 947.4 428.46 948.2 429.13 948.78 429.97 949.2 431.1 949.45 432.18 949.5 432.79 949.44 433.27 949.03 433.84 948.55 434.02 947.99 434.1 947.36 434.4 946.54 435.25 946.11 436.25 946.08 437.29 946.45 438.31 948.43 441.88 948.75 442.4 949.19 442.69 951.23 443.11 951.84 443.07 952.3 442.71 952.75 441.89 952.76 441.89 952.76 441.88 953.53 440.84 953.7 440.07 954.09 439.51 958.26 438.42 959.55 437.85 960.77 437.08 961.96 435.87 963.72 434.54 965.63 433.43 967.2 432.84 968.12 432.81 973.26 433.39 974.25 433.78 974.85 434.63 974.18 436.04 974.19 436.52 974.58 437.39 974.87 437.72 975.22 437.85 975.59 437.94 975.94 438.15 976.13 438.47 976.38 439.21 976.61 439.46 977.06 439.54 978.03 439.3 978.51 439.28 978.85 439.43 979.41 439.92 980.48 440.37 980.8 440.81 980.72 441.35 980.18 441.89 979.91 443.2 980.19 444.07 980.64 444.87 980.87 445.97 980.61 447.15 979.93 448.03 978.19 449.74 977.66 450.95 978.05 451.81 979.03 452.33 980.3 452.57 981.83 452.5 982.54 452.59 983.15 453.03 983.6 453.46 984.11 453.75 984.68 453.9 985.32 453.91 986.14 454.27 986.87 455.06 988.06 456.83 988.58 457.89 988.5 458.81 987.55 460.58 987.03 462.26 986.98 463.29 986.83 463.39 986.22 463.58 986.01 463.7 985.91 464.48 986.62 465.22 986.8 465.34 987.57 465.88 988.2 466.43 988.25 467.12 988.56 467.53 988.98 467.85 989.38 468.33 989.61 468.96 989.69 469.45 989.88 469.89 990.44 470.41 991.77 470.92 993.2 470.83 995.95 469.94 997.19 470.02 998.05 470.9 998.58 472.13 998.82 473.26 998.94 475.38 999.28 476.23 1000.2 477.18 999.02 477.8 999.3 478.4 1000.21 478.97 1000.92 479.55 1001.15 480.49 1001.03 482.75 1001.28 483.79 1002.8 485.39 1003.43 486.38 1003.22 487.36 1002.62 488.14 1002.02 489.15 1001.73 490.16 1002.05 490.96 1002.05 490.97 1002.06 490.97 1002.92 491.69 1003.98 491.81 1005.07 491.51 1006.04 490.97 1006.06 490.97 1006.07 490.96 1006.94 490.76 1008.57 490.1 1009.85 490.09 1010.94 490.41 1012.83 490.97 1014.65 492.33 1015.28 492.66 1016.61 492.86 1018.08 493.95 1020.35 496.57 1021.61 499.1 1022.21 499.75 1023.09 499.95 1024.94 499.5 1025.49 499.59 1026.29 500.03 1027.3 499.97 1028.25 499.59 1029.44 498.76 1029.94 498.78 1030.44 498.91 1030.95 498.96 1032.53 498.51 1035.65 498.63 1036.64 498.37 1037.58 497.93 1038.38 497.68 1039.19 497.69 1040.7 498.16 1041.06 498.21 1041.29 498.39 1041.54 499.39 1041.75 499.73 1042.05 500 1042.45 500.27 1043.44 500.61 1044.49 500.58 1046.57 500.21 1047.5 499.93 1048.34 499.45 1049.22 499.1 1050.28 499.19 1051.1 499.66 1051.46 500.32" style="fill:none; fill-rule:evenodd; stroke:#000; stroke-linecap:square; stroke-linejoin:bevel; stroke-width:1.34px;"/></svg>