<?xml version="1.0" encoding="UTF-8"?><svg id="b" xmlns="http://www.w3.org/2000/svg" width="1920" height="1080" viewBox="0 0 1920 1080"><polygon points="1051.46 500.32 1051.37 501.05 1051.36 501.09 1050.79 501.89 1050.01 502.46 1048.52 503.23 1048.32 503.47 1047.85 504.04 1047.09 504.64 1046.06 504.73 1045.85 504.72 1044.13 504.64 1041.72 505.69 1041.67 505.71 1040.66 505.9 1038.22 505.84 1037.23 505.81 1036.22 506.1 1035.6 506.66 1035.21 507.44 1035.15 507.74 1035.04 508.3 1035.03 509.11 1035.51 511 1035.37 511.67 1033.87 511.3 1033.64 511.3 1033.6 511.31 1033.41 511.35 1033.6 511.79 1033.84 512.34 1034.39 513.28 1034.58 513.48 1034.65 513.69 1034.59 513.89 1034.39 514.09 1034 514.33 1033.74 514.65 1033.72 514.71 1033.62 515.05 1033.64 515.5 1034.19 516.72 1034.28 516.92 1037.3 520.87 1037.42 521.03 1037.58 521.15 1040.14 523.01 1041.31 524.12 1041.39 524.43 1041.66 525.57 1041.56 525.77 1041.3 526.26 1041.17 526.38 1040.69 526.86 1040.26 527.48 1040.39 528.26 1041.07 528.65 1042.98 528.63 1043.72 529.14 1043.53 530.43 1042.84 531.41 1042.47 531.92 1041.81 533.31 1041.95 533.44 1042.82 534.28 1042.43 534.87 1041.91 535.11 1041.3 535.2 1040.05 535.54 1039.17 535.35 1038.68 535.4 1037.36 536.05 1036.64 536.6 1035.86 536.77 1034.39 536.24 1033.76 536.28 1033.25 536.11 1032.22 535.56 1031.49 535.36 1031.15 535.47 1030.47 536.39 1030.42 536.62 1030.56 537.22 1030.46 537.45 1030.16 537.58 1029.47 537.63 1029.29 537.68 1029.15 537.72 1028.63 538.15 1028.39 538.71 1028.38 539.36 1028.52 540.03 1028.52 540.04 1028.58 540.22 1028.98 541.31 1028.85 542.23 1028.43 543.13 1028.06 544.33 1027.31 545.14 1027.31 545.15 1025.99 544.77 1025.41 544.51 1024.53 544.13 1023.39 544.17 1023.07 545.12 1023.16 546.36 1022.91 547.56 1021.55 548.34 1020.16 548.46 1019.54 548.67 1019.05 549.23 1018.9 549.82 1019.01 550.81 1018.86 551.37 1018.86 551.38 1018.76 551.47 1017.5 552.67 1017.12 553.46 1017.85 554.14 1018.26 554.33 1018.37 554.4 1018.7 554.62 1019.06 554.97 1019.23 555.37 1019.38 555.89 1019.62 556.19 1019.88 556.43 1020.08 556.77 1020.16 557.29 1020.18 557.38 1020.23 557.7 1020.26 558.63 1020.36 559.16 1019.49 559.1 1017.27 559.69 1013.54 557.99 1012.03 557.33 1006.66 557.48 1004.08 559.47 1001.57 562.13 998.71 565.15 993.69 566.99 991.11 568.32 989.39 570.53 986.24 570.98 985.67 573.93 983.8 574.66 978.5 574.96 976.5 573.78 973.92 569.35 972.05 566.7 971.34 563.16 973.63 561.54 975.64 559.47 974.49 555.49 976.64 553.27 979.36 554.01 980.51 554.31 981.51 550.91 982.09 550.03 987.53 549.59 987.39 547.96 987.1 545.6 987.24 540.15 986.1 539.11 980.94 538.97 971.19 538.97 969.19 538.08 968.18 536.75 965.46 534.98 967.18 533.8 970.33 533.51 972.2 531.74 973.06 529.52 974.2 527.02 975.64 525.54 975.49 524.66 974.06 522.89 974.49 521.41 977.21 519.94 977.93 519.05 977.07 517.72 974.2 516.99 974.49 516.25 974.92 512.41 975.21 510.79 974.92 509.9 976.07 508.28 976.78 507.84 977.21 506.07 975.21 505.33 972.91 504.3 972.2 502.38 970.48 501.05 971.62 498.69 970.76 498.4 970.19 497.07 969.47 496.04 966.18 496.19 963.31 496.63 961.31 497.51 957.87 498.1 954.71 498.4 951.28 497.81 948.98 497.37 947.69 498.25 945.83 500.61 943.97 502.97 942.25 502.68 939.67 502.23 936.95 500.91 935.51 499.73 932.79 499.58 931.64 498.84 929.78 496.48 928.49 495.45 927.77 493.97 926.77 493.24 925.19 492.5 925.77 490.73 926.77 488.81 926.91 485.12 925.48 483.65 919.03 483.06 916.02 483.06 917.03 479.81 919.32 477.6 921.04 475.98 921.04 475.09 918.6 472.58 916.02 469.19 914.73 465.21 915.02 462.55 913.16 459.31 913.73 456.06 911.29 455.62 903.84 455.18 898.4 454.29 895.53 453.55 891.95 452.67 889.08 452.96 885.5 454.59 880.63 454.88 876.04 454.88 874.04 454.14 873.32 452.96 872.32 452.08 871.17 451.64 869.88 451.64 868.02 452.08 866.44 451.78 865.87 450.6 865.15 449.87 863.29 448.98 862.86 447.51 862.86 446.33 861.71 445.29 861.71 444.11 860.42 443.52 858.56 442.64 857.7 442.34 856.84 441.31 856.55 440.87 856.48 439.39 857.08 436.16 858.81 435.99 861.62 435.25 865.85 434.68 866.63 434.4 866.8 434.13 867.41 432.8 872.38 427 873.44 425.77 873.56 425.63 873.75 425.24 873.81 424.9 873.91 424.55 874.21 424.16 874.53 423.98 875.93 423.53 876.6 423.31 876.96 423.19 877.39 423.16 877.98 423.22 878.41 423.48 878.62 424.33 879.04 424.57 883.1 425.65 885.08 425.88 886.54 425.48 887.17 425.31 887.62 425.04 888.42 424.55 890.3 423.91 892.28 423.49 893.8 423.38 894.17 423.46 894.18 423.46 894.65 423.57 899.52 425.67 901.1 426.35 901.43 426.44 901.84 426.49 902.28 426.42 902.74 426.05 902.82 426.02 903.17 425.89 903.64 425.83 904.08 425.78 904.67 425.88 905.64 426.48 905.96 426.68 906.62 427.09 908.62 427.89 910.91 429.39 911.71 429.65 912.34 429.58 913.55 429.21 914.16 429.13 914.79 429.21 914.84 429.23 915.19 429.39 916.09 429.93 917.33 430.33 917.43 430.34 918.51 430.45 923.55 430.18 923.8 430.2 924.83 430.27 925.99 430.51 926.36 430.71 926.48 430.78 927.53 431.6 927.89 431.79 928.51 431.66 929.4 430.94 932.03 430.56 933.53 429.17 934.98 427.49 936.78 426.26 939 425.98 940.64 426.2 940.89 426.23 941.57 426.32 946.3 427.89 947.4 428.46 947.97 428.94 948.2 429.13 948.78 429.97 949.2 431.1 949.45 432.18 949.5 432.79 949.44 433.27 949.04 433.84 949.03 433.84 948.55 434.02 947.99 434.1 947.36 434.4 946.54 435.25 946.12 436.25 946.09 437.29 946.45 438.31 948.43 441.88 948.75 442.4 949.19 442.69 951.23 443.11 951.84 443.07 952.3 442.71 952.75 441.89 952.76 441.89 952.76 441.88 953.53 440.84 953.7 440.07 954.09 439.51 958.26 438.42 959.55 437.85 960.77 437.08 961.96 435.87 963.72 434.54 965.63 433.43 967.2 432.84 968.12 432.81 970.61 433.09 973.26 433.39 974.17 433.75 974.25 433.78 974.85 434.63 974.19 436.04 974.19 436.52 974.58 437.39 974.78 437.62 974.87 437.72 975.22 437.85 975.59 437.94 975.94 438.15 976.13 438.47 976.33 439.07 976.38 439.21 976.61 439.46 977.06 439.54 978.03 439.29 978.51 439.28 978.85 439.43 979.41 439.92 979.54 439.98 979.59 439.99 980.48 440.37 980.8 440.81 980.72 441.34 980.4 441.67 980.18 441.89 979.91 443.2 980.19 444.06 980.64 444.86 980.76 445.44 980.87 445.97 980.61 447.15 979.93 448.02 979.93 448.03 978.19 449.74 977.66 450.95 978.05 451.81 979.03 452.33 980.31 452.56 981.83 452.5 982.54 452.59 983.15 453.02 983.6 453.46 984.11 453.75 984.68 453.9 985.32 453.91 985.83 454.13 985.9 454.16 986.14 454.27 986.87 455.06 988.06 456.83 988.06 456.84 988.55 457.83 988.58 457.89 988.51 458.8 988.5 458.81 988.24 459.3 987.55 460.58 987.36 461.2 987.03 462.26 986.98 463.29 986.83 463.39 986.37 463.53 986.23 463.58 986.01 463.7 985.97 464.05 985.91 464.48 986.62 465.22 986.8 465.34 987.55 465.87 987.57 465.88 988.2 466.43 988.25 467.05 988.25 467.12 988.4 467.31 988.56 467.53 988.98 467.85 989.38 468.33 989.61 468.96 989.69 469.45 989.88 469.89 990.44 470.41 991.77 470.92 993.2 470.83 995.95 469.94 997.19 470.01 997.19 470.02 998.05 470.89 998.1 471.01 998.58 472.12 998.82 473.26 998.94 475.38 999.25 476.15 999.28 476.23 1000.21 477.18 1000.2 477.18 999.08 477.77 999.02 477.8 999.3 478.39 999.39 478.45 1000.21 478.97 1000.92 479.55 1000.93 479.55 1001.15 480.49 1001.1 481.49 1001.03 482.75 1001.28 483.78 1002.8 485.39 1002.93 485.59 1003.43 486.38 1003.22 487.36 1002.62 488.14 1002.02 489.15 1002.01 489.18 1001.73 490.16 1001.85 490.45 1002.05 490.95 1002.05 490.97 1002.06 490.97 1002.92 491.69 1003.98 491.81 1005.07 491.51 1006.04 490.97 1006.06 490.97 1006.06 490.96 1006.07 490.96 1006.94 490.76 1008.57 490.1 1009.85 490.08 1010.94 490.41 1012.83 490.97 1013.41 491.4 1014.65 492.33 1015.11 492.57 1015.28 492.66 1016.61 492.86 1018.08 493.95 1018.28 494.18 1020.35 496.57 1021.61 499.1 1022.21 499.75 1023.09 499.95 1023.43 499.87 1024.94 499.5 1025.49 499.59 1026.29 500.03 1027.3 499.97 1028.25 499.59 1029.44 498.76 1029.94 498.78 1030.44 498.91 1030.95 498.95 1032.53 498.51 1035.65 498.63 1036.64 498.37 1037.58 497.92 1038.38 497.68 1039.19 497.69 1040.7 498.16 1041.06 498.21 1041.29 498.39 1041.43 498.96 1041.54 499.39 1041.75 499.73 1042.05 500 1042.45 500.27 1043.44 500.61 1043.9 500.6 1044.49 500.58 1046.57 500.21 1047.5 499.93 1048.34 499.45 1049.22 499.1 1050.28 499.19 1051.1 499.66 1051.46 500.32" style="fill:none; fill-rule:evenodd; stroke:#000; stroke-linecap:square; stroke-linejoin:bevel; stroke-width:1.34px;"/></svg>