<?xml version="1.0" encoding="UTF-8"?><svg id="b" xmlns="http://www.w3.org/2000/svg" width="1920" height="1080" viewBox="0 0 1920 1080"><polygon points="1143.47 545.24 1144.03 546.43 1143.68 547.97 1142.63 548.74 1141.51 549.44 1139.62 549.93 1138.29 549.51 1137.31 548.67 1134.37 548.32 1132.69 548.67 1130.53 549.37 1129.76 550.07 1128.92 550.69 1127.24 550.55 1126.05 549.09 1125.91 547.55 1125.14 546.43 1123.88 545.03 1121.85 543.91 1119.61 543 1117.86 542.79 1115.2 543.77 1114.15 543.77 1112.61 543.28 1109.74 543.35 1107.51 543.56 1105.76 543.21 1103.73 542.79 1102.96 543 1101.77 543.84 1101.14 544.61 1099.46 545.66 1098.97 546.22 1098.76 548.39 1098.41 549.16 1095.89 549.16 1093.79 547.83 1092.39 546.5 1091.27 546.64 1090.01 547.9 1089.94 549.09 1090.43 550.14 1089.59 550.48 1087.42 550.14 1085.61 550.55 1084.91 550.97 1084.35 552.51 1085.33 554.19 1085.33 555.59 1083.02 556.5 1083.58 557.48 1078.89 558.25 1076.79 557.9 1074.55 557.34 1072.17 557.41 1071.12 557.55 1069.09 556.01 1070.63 554.82 1070.49 552.72 1068.25 551.53 1065.24 551.32 1063.57 550.76 1061.61 550.2 1060.98 548.6 1060.07 546.29 1059.58 543.63 1058.25 541.04 1054.68 540.9 1053.91 540.13 1052.37 538.52 1051.39 536.21 1051.39 535.44 1050.41 533.2 1049.08 532.01 1048.66 530.05 1048.45 527.6 1047.33 526.77 1043.76 522.36 1041.45 521.59 1040.69 521.94 1038.66 520.47 1035.72 517.53 1034.27 516.9 1033.64 515.5 1033.62 515.05 1033.74 514.65 1034 514.33 1034.39 514.09 1034.59 513.89 1034.65 513.69 1034.61 513.58 1034.58 513.48 1034.39 513.28 1033.84 512.34 1033.41 511.35 1033.64 511.3 1033.87 511.3 1035.37 511.67 1035.47 511.18 1035.51 511 1035.03 509.11 1035.04 508.3 1035.14 507.81 1035.21 507.44 1035.6 506.66 1036.22 506.1 1037.23 505.81 1040.66 505.9 1041.67 505.71 1044.13 504.64 1046.06 504.73 1047.09 504.64 1047.85 504.04 1048.52 503.23 1050.01 502.46 1050.79 501.89 1051.36 501.09 1051.46 500.32 1051.1 499.66 1050.28 499.19 1049.22 499.1 1048.34 499.45 1047.5 499.93 1046.57 500.21 1044.49 500.58 1043.44 500.61 1042.45 500.27 1042.05 500 1041.75 499.73 1041.54 499.39 1041.4 498.84 1041.29 498.39 1041.06 498.21 1040.7 498.16 1039.19 497.69 1038.38 497.68 1037.58 497.93 1037.56 497.94 1036.14 498.01 1034.6 498.43 1033.93 498.56 1032.53 498.51 1031.49 498.81 1030.95 498.96 1030.44 498.91 1030.13 498.83 1029.94 498.78 1029.44 498.76 1029.32 498.85 1028.25 499.59 1027.3 499.97 1026.29 500.03 1025.49 499.59 1024.94 499.5 1023.09 499.95 1022.21 499.75 1021.86 499.37 1021.61 499.1 1020.84 497.55 1020.81 497.45 1020.75 497.38 1020.35 496.57 1018.08 493.95 1016.61 492.86 1016.49 492.84 1015.22 492.27 1014.29 492.06 1012.83 490.97 1012.76 490.95 1012.49 490.66 1012.56 489.33 1013.12 487.16 1013.47 486.53 1015.36 486.11 1017.25 485.97 1019.48 485.62 1020.46 484.71 1021.02 481.84 1020.32 481.49 1019.9 479.33 1021.44 477.37 1023.61 476.95 1025.64 478.28 1027.11 478.91 1028.86 478.63 1032.29 478 1034.53 477.44 1036.84 476.88 1037.96 475.41 1038.03 473.31 1038.17 470.58 1037.47 468.76 1039.85 467.43 1043.27 467.01 1044.18 465.33 1046.84 467.15 1049.08 468.55 1050.2 470.16 1051.32 471.91 1054.19 471.91 1057.76 471.56 1060.07 470.65 1062.38 470.16 1065.1 470.65 1066.99 471.63 1071.61 471.84 1074.41 471.42 1077.14 470.72 1079.31 470.86 1079.52 471.91 1081.97 472.82 1082.74 473.66 1083.58 476.18 1085.47 476.46 1087.63 476.25 1089.73 476.32 1090.08 479.19 1090.5 479.47 1092.74 480.87 1095.33 481.49 1098.34 481.98 1100.37 482.47 1103.94 481.36 1107.23 480.59 1108.7 478.49 1109.12 476.67 1108.84 475.41 1110.09 473.8 1112.47 472.82 1115.2 472.47 1116.88 473.66 1118.7 474.01 1120.59 474.92 1121.99 475.62 1124.09 475.48 1126.05 476.04 1127.45 476.88 1129.76 476.95 1131.37 478.21 1132.83 478.63 1133.95 479.19 1134.93 481.49 1135.21 483.31 1135.7 484.36 1136.26 485.27 1135.98 486.18 1135.7 487.3 1136.54 488.77 1135.84 490.87 1133.67 492.9 1132.28 494.16 1131.58 495.14 1131.23 496.68 1130.32 497.87 1129.76 499.9 1130.6 501.58 1132.14 501.65 1133.46 501.65 1134.65 500.74 1137.03 499.69 1137.24 500.11 1137.52 503.61 1137.73 505.35 1139.27 507.8 1140.74 507.94 1142.98 507.73 1144.38 507.87 1145.64 509.06 1146.2 510.53 1146.62 512 1143.89 512.42 1142.98 512.63 1141.65 512.98 1140.32 513.82 1139.06 514.87 1136.89 514.45 1136.4 516.13 1134.72 516.97 1131.3 517.11 1128.64 517.67 1128.22 518.65 1127.94 520.61 1128.71 522.78 1129.55 524.32 1130.6 526.28 1131.93 527.81 1132.9 528.79 1134.79 529.49 1135.91 529.49 1136.96 530.89 1137.66 532.57 1138.71 533.9 1138.92 535.86 1139.34 538.1 1141.23 538.45 1142.7 539.36 1142.35 541.67 1141.44 542.93 1142.35 544.33 1143.47 545.24" style="fill:none; fill-rule:evenodd; stroke:#232323; stroke-linecap:square; stroke-linejoin:bevel; stroke-width:1.48px;"/></svg>