<?xml version="1.0" encoding="UTF-8"?>
<svg id="a" data-name="Pfade" xmlns="http://www.w3.org/2000/svg" width="1920" height="1080" viewBox="0 0 1920 1080">
  <path id="b" data-name="path1664" d="M974.85,434.63l-.6-.85-.98-.4-5.15-.58-.92.03-1.57.59-1.91,1.12-1.77,1.33-1.19,1.21-1.22.77-1.29.57-4.17,1.1-.39.55-.17.77-.76,1.05h0s0,0,0,0h0l-.45.82-.46.36-.61.04-2.04-.42-.44-.29-.32-.51-1.98-3.57-.37-1.01.03-1.05.42-1,.82-.85.63-.29.56-.08.49-.18.4-.57.06-.48-.05-.61-.25-1.08-.42-1.13-.58-.85-.8-.66-1.1-.57-4.73-1.57-.93-.13-1.64-.22-2.22.28-1.8,1.23-1.45,1.69-1.5,1.38-2.63.38-.88.72-.62.13-.36-.19-1.06-.82-.49-.27-1.16-.24-1.28-.1-5.03.28-1.18-.12-1.24-.4-.9-.54-.4-.18-.63-.08-.61.08-1.21.37-.63.07-.8-.26-2.28-1.5-2-.8-.66-.41-1.29-.8-.59-.1-.91.11-.43.16-.46.37-.44.07-.41-.05-.34-.1-6.45-2.78-.84-.19-1.53.11-1.97.42-1.88.64-1.25.76-2.09.57-1.98-.23-4.06-1.08-.42-.25-.21-.85-.43-.26-.59-.06-.44.03-2.42.78-.32.18-.3.4-.1.34-.06.34-.19.39-6.15,7.17-.6,1.33-.17.27-.79.28-4.23.57-2.81.74-2.19.2.31.58.37.5.28.55.02.71h-.02s-1.52.95-1.52.95l-3.14,2.39h0s-.02,0-.02,0l-5.06,4.35-9.81,8.43-6.61,5.68-1.3.89-1.34.51-15.22,2.61-3.19.43-1.45.54-.98,1.09h0s0,0,0,0h0s-4.33,6.83-4.33,6.83l-.4,1.32-1.58,12.32v.82s.2.85.2.85l1.26,2.39h0s0,0,0,0l3.79,6.7.53,1.58.23,1.61.21,6.75-.27,1.54-.78,1.48-1.66,2.03-2.32,2.84h0s0,0,0,0h0l-.45,1.48-.43,4.79-2.05,6.06-.48,2.99.04,1.14.28,8.09.42,8.58-.11,1.29-.42,1.21-8.43,13.46h0s-1.77,3.23-1.77,3.23l-1.12,1.31-1.44.77-12.05,2.68-7.2,3.61-5.43,2.72-5.43,2.72-5.43,2.72-1.91.96-3.52,1.76-5.43,2.72-5.42,2.72-5.43,2.72-5.42,2.72-5.43,2.72-5.43,2.72-5.43,2.72-5.43,2.72-5.43,2.72-5.43,2.72-5.43,2.72-5.43,2.72,2.28,7,2.04,6.3,1.7,5.22,2.24,6.97,2.32,7.2,3.3,10.26-3.79,1.01-.07.02-.02.04.02.06.07.08,2.39,7.06.37.74.5.24,9.3-2.18,1.01.5.73,1.51,1.02,3.31-1.25,1.55-5.9,4.27v.38s.15-.04.15-.04l.14-.04.14-.04.14-.04,9.71,1.41,9.7,1.42,9.7,1.42,9.7,1.41,3.94.57h.02s.01,0,.01,0l16.73,2.74,2.64.88,2.73,1.36,5.05,2.57,4.3,2.2,4.31,2.19,4.31,2.2,4.3,2.19,4.31,2.19,4.31,2.19,4.3,2.19,4.31,2.2,4.3,2.19,4.3,2.19,4.31,2.19,4.31,2.19,4.3,2.19,4.3,2.19,4.31,2.19,4.3,2.19,4.38,2.23,3.25,2.43,4.15,3.09,4.14,3.09,4.14,3.09,4.15,3.09,4.65,3.48,4.65,3.48,4.65,3.49.96.72,3.7,2.77h0s0,0,0,0h0s5.19,3.66,5.19,3.66l4.33,3.05,4.32,3.05,4.32,3.05,4.33,3.05,5.62,3.96,5.63,3.96,5.63,3.96,5.62,3.97,2.38,1.68,3.24,2.29,5.62,3.96,5.62,3.97,5.62,3.97,4.68,3.3,4.68,3.3,4.68,3.3,4.67,3.3,3.78,2.66.31.1.31.11.31.11.32.11,4.49.35,3.92.31,3.91.31,3.9.31,3.91.31,5.03.4,5.03.4,5.03.4,5.03.4,5.03.4,5.03.4,5.03.4,5.03.4,3.74.3,3.73.3,3.74.3,3.74.3,5.17.41,2.15-.4,1.28-.24.86-.16,2.15-.4,2.15-.4,1.42-1.39,7.38-7.23,3.07-4.52,3.14-3.02.73-.96,1.46-3.34,3.67-5.3.96-1.84.12-.49.19-1.48.25-.71,1.8-2.92,4.17-9.27,1.68-2.08,2.57-1.52,7.91-2.84,2.83-.3h12.68l2.81.47,10.63,4.64.02-1.16-.37-.44.04-.53.21-.6.12-.64-.07-.6-.6-1.6.83.92.34,1.36.17,1.49.35,1.29,3.4-1.61,1.87-.43,2.1.03,2.29.37,2.13.64,2.72,1.5,1.71.46,1.76,1.13,3.75,1.13,5.33.47,1.29-.29.61-.58-.21-.49h-1.19s0-.21,0-.21v-.03s-.33-.14-.33-.14l-1.52-.38-.73-.39-.68-.47-.32-.28-.23-.32-.44-.96-.1-.64-.9-2.44-.13-.08-.28-.5-.98-.96-.61-1.14-.1-.34.11-.55.39-.41.47-.37.36-.42.13-.52-.09-.53-.25-.5-.32-.42-1.91-1.51-1.58-1.55-1-1.44-.46-.34-.59-.18-.62-.03-1.8.26-.59.02-.58-.08-.55-.21-.39-.36-.22-.47-.4-2.16-.44-1.07-.63-.96-.82-.77-.51-.27-.55-.16-5.19-.64-.08-1.51.17-23.64-.16-.63-.53-.27h-16.13s.17-11.87.17-11.87l.12-8.41,7.48-17.37.29-1.11-.14-1.04-.67-.88-1.94-1.24-.79-.75-.18-.37-.25-.86-.27-.44-.38-.3-.89-.49-.33-.39-1.76-2.68-.23-.86h0s-.48-.88-.48-.88l-1.71-.71-.75-.73-1.12-2.14-.73-.89-.11-.13-.95-.33-.74-.08-.44-.42-.4-.5-.63-.34-.77-.19-.33-.22-.05-.39.1-.68.19-.53.29-.43.26-.48.08-.68-.26-.64-.96-.62-.26-.62-.48-.2-.31-.28-.87-1.02-.19-.27-.23-.27-1.46-1.18-.23-.28-.33-.66v-.24s.21-.19.21-.19l.43-.91.27-.27.18-.32-.08-.57-.27-.36-1.31-.85-.82-.89-.55-.76-.63-.61-1.05-.47-2.78-.81-.69-.04-2.25,1.05-.87.28-1.73.16-1.55-.29-1.49-.66-1.57-.97h0s-.01,0-.01,0l-14.78-10.88-2.03-1.95-3.22-1.64-2.25-1.54-.19-.09-4.58-2.23-1.37-1.17-4.89-1.96-5.21-1.36-5.79.55-2.87-.29-1.04-1.96h0s.6-.61.6-.61l.82-.56.73-.64.33-.83-.28-.67-.71-.53-.92-.33-2.16-.21-.68-.49.05-.6.99-.46,1.08-.08.82.05.8-.13,1.03-.66,1.32-1.1.67-.69.35-.63-.03-.44-.57-.3-.22-.46.03-.4.3-.94v-.5s-.45-.83-.45-.83l-.68-.58-1.56-1.06-1.95-2.31-1.64-1.33-.25-.72-.03-.82-.15-1-.4-.93-.56-.85-1.65-1.72-.15-.1-.15-.07-.18-.09-.06-.03-.25-.04-.25.04-.24.11-.91.72-1.49.16-1.46-.29-.84-.6.77-.84,2.33-1.19.6-.74-.34-1.09-1.04-.6-.87-.74.19-1.51-1.06.22-2.38.03-.9.32-1.43,1.15-.81.45-.86.18-.33-.34v-1.74s-.15-.36-.15-.36l-.17-.38-2.31-1.39-.75-.62-.67-.8-.49-.8-.34-.87-.21-.99-.35-.82-.64-.59-.76-.53-.66-.61-4.37-6.61-.09-.07-.11-.04-.12-.02-1.45.19-1.28-.07-1.11-.52-1.01-1.18,1.05-.4.48-.27.41-.35h.01s.75-1.37.75-1.37l.41-1.25.55-1.09,1.2-.87.72-.64,1.98-1.35.5-.55v-.55l-.28-.42-.36-.43-.24-.56.1-.45.69-.93.24-.44.65-2.36.1-1.21-.27-1.11-.75-.96-1.01-.54h-1.1s-.98.66-.98.66l-.91-.56-.63-1.06-1.52-4.04.48-.65,2.58-.48.36-.27.32-.31.28-.36.23-.39.07-1.45-.41-1.99.2-1.35,1.91.46,1.68.73,1.52.3,3.37.22,1.08.31.29-.05.2-.32.13-.52v-.53s-.13-.32-.13-.32l-.55-.64-.16-.83-.02-.92-.15-.93-.2-.34-.25-.24-.24-.3-.15-.52-.17-.4-.36-.36-.44-.28-.41-.19-.73-.68.38-.79,1.36-1.29.15-.56-.11-.99.15-.59.48-.56.62-.21,1.4-.12,1.36-.78.25-1.2-.1-1.25.32-.94,1.14-.05.88.38.58.25,1.32.38.75-.82.38-1.2.42-.9.13-.92-.45-1.27h0s-.14-.68-.14-.68v-.65s.25-.57.25-.57l.52-.42.32-.09.69-.06.29-.12.1-.23-.14-.6.05-.23.68-.92.34-.11.73.21,1.03.55.51.17.63-.04,1.47.52.78-.16.72-.55,1.32-.65.49-.04.88.19,1.25-.34.61-.1.53-.23.39-.59-1.01-.97.66-1.38,1.06-1.49.19-1.29-.74-.51-1.9.02-.68-.39-.13-.77.44-.62.61-.6.26-.5.1-.2-.36-1.45-1.17-1.11-2.71-1.98-3.14-4.11-.64-1.42-.02-.45.12-.4.26-.32.39-.24.2-.2.07-.2-.07-.21-.19-.21-.55-.93-.43-.99.22-.05h.24l1.5.37.14-.68-.48-1.89v-.81s.18-.86.18-.86l.39-.78.62-.56,1.01-.29,3.43.09,1.01-.19,2.46-1.07,1.93.09,1.02-.1.77-.6.67-.8,1.49-.77.78-.57.57-.8.1-.77-.37-.66-.82-.47-1.06-.09-.88.35-.84.48-.93.28-2.08.37-1.05.03-.99-.34-.4-.27-.3-.27-.21-.34-.24-1-.24-.18-.36-.05-1.51-.47h-.81s-.79.23-.79.23l-.95.44-.98.26-3.12-.12-1.58.44-.51-.04-.5-.13-.5-.02-1.19.83-.95.38-1.01.06-.8-.44-.55-.09-1.85.45-.88-.2-.6-.65-1.25-2.53-2.28-2.62-1.46-1.09-1.33-.21-.63-.32-1.81-1.36-1.89-.56-1.09-.32-1.28.02-1.63.66-.87.2h-.01s0,.01,0,.01h-.02s-.97.54-.97.54l-1.09.3-1.06-.12-.86-.72h-.01s0,0,0,0h0s-.32-.8-.32-.8l.29-1.01.6-1.01.6-.78.2-.98-.62-.99-1.52-1.6-.25-1.03.12-2.26-.23-.94-.72-.57-.91-.58-.28-.59,1.19-.62-.92-.95-.34-.85-.12-2.12-.24-1.14-.53-1.23-.86-.88-1.24-.07-2.75.89-1.43.09-1.33-.5-.56-.52-.18-.45-.08-.48-.24-.64-.39-.47-.42-.33-.31-.4-.05-.69-.63-.55-.78-.54-.18-.12-.71-.74.1-.78.22-.12.61-.19.15-.09.05-1.03.53-1.68.95-1.78.08-.92-.52-1.06-1.19-1.77-.73-.79-.82-.36-.64-.02-.57-.15-.51-.29-.45-.43-.61-.43-.71-.1-1.52.07-1.28-.23-.98-.53-.39-.85.53-1.21,1.74-1.71.68-.88.26-1.18-.23-1.1-.45-.8-.28-.87.27-1.31.54-.54.08-.53-.32-.44-1.07-.45-.56-.49-.34-.15-.47.02-.97.24-.46-.08-.23-.24-.25-.75-.19-.32-.36-.21-.37-.09-.35-.13-.29-.33-.39-.87v-.48s.66-1.41.66-1.41h0Z" style="fill: none; fill-rule: evenodd; stroke: #232323; stroke-linecap: square; stroke-linejoin: bevel; stroke-width: 1.48px;"/>
</svg>