<?xml version="1.0" encoding="UTF-8"?>
<svg id="a" data-name="Pfade" xmlns="http://www.w3.org/2000/svg" width="1920" height="1080" viewBox="0 0 1920 1080">
  <path id="b" data-name="path1666" d="M976.86,312.03l-3.99-2.23-.95-.62-2.93-1.06-.67-.59-1.32-1.55-.76-.41-1.21.28-5.21,3.31-.22.56.25,1.6-.1.59-.03.19-.29.63-1.63,2.53-.22.66-.1.81.1.69.17.63-.03.59-.49.58h0s-.24,1.1-.24,1.1l.17.93-.02.89-.83.98-.94.54-2.54.9-1.08.2-1.25-.08-3.39-1.31-1.17-.1-2.66.55-1.13.1-1.09-.1-.77.02-.74.21-1,.48-.55.59.3.59,1.29,1.18v.02s.22.46.22.46l.29,1.04.58.97v.37s-.13.32-.13.32l.02.44.17.42.59.97.04.43-.34.89.06.42,1.27.76,2.19.89,1.89,1.05.4,1.21-.97,1.49-.25.78.45,1.94-.47.58-.79.51-.69.91h0s.27.35.27.35l.15.33.21.76.3.35.45.27.37.31.04.45-.03.41.16.38.21.37.47,1.1.67.74.8.6,2.6.98.24,1.44-1.33,3.55-.2.98.09.62.24.59.25.89-.22.36-.43.34-.15.3.61.25.89.22.38.2.36.32.35.81v1.02s-.24,1.94-.24,1.94l.45,2.5-.06.84-.62,1.98v.58s.15,1.24.15,1.24l-.03.45-.16.8.14.43.45.25.72.26,2.45.35,1.62-.74.62-.1.77.23.69.47.6.66.38.77.02.78-1.1,1.25-1.78,1.09-1.38,1.24.21,2.35-.17.95-.3.96-.32.72-.37.39-.87.29-.41.28-.07.43.4.92-.27.31-.95.36-.64.4-.46.62-.41,1.03-.43.75-1.18,1.06-.45.71h0s-.42.64-.42.64l-.3.6-.09.63.25.69.04.62-.43.53-.51.5-.07.18-.14.37.86,1.07,1.71.22,3.18-.3.59.14,1.76.67.53.3.29.45.18.57.28.6.55.56.38.1.34-.1.32-.05.37.23.04.25-.2.78-.03.29.36.56.69.06.79-.22.62-.28,1.34-.12,1.37.5,1.23.84,1.8,1.75.11.46-.5.64-1.7,1.09-.41.43-.22,1.49.99.89,1.11.67.19.84-.45.99-.32,1.21-.09,1.22.26,1h0s.2.84.2.84l-.65,1.46.3.8.66.3,1.83.14.76.46.69,1.4.46.41,1.79-.22.45.45.29.69.41.66,2.83,1.45,1.11,1.04-.15,1.59-.58.6-.68.32-.61.41-.34.88.16.99.46.84.3.83-.3.95-.67,1.41v.48s.4.87.4.87l.29.33.35.13.37.09.36.21.19.32.25.75.23.24.46.08.97-.24.47-.02.34.15.56.49,1.07.45.32.44-.08.53-.54.54-.27,1.31.28.87.45.8.23,1.1-.26,1.18-.68.88-1.74,1.71-.53,1.21.39.85.98.53,1.28.23,1.52-.07.71.1.61.43.45.43.51.29.57.15.64.02.82.36.73.79,1.19,1.77.52,1.06-.08.92-.95,1.78-.53,1.68-.05,1.03-.15.09-.61.19-.22.12-.1.78.71.74.18.12.78.54.63.55.05.69.31.4.42.33.39.47.24.64.08.48.18.45.56.52,1.33.5,1.43-.09,2.75-.89,1.24.07.86.88.53,1.23.24,1.14.12,2.12.34.85.92.95-1.19.62.28.59.91.58.72.57.23.94-.12,2.26.25,1.03,1.52,1.6.62.99-.2.98-.6.78-.6,1.01-.29,1.01.32.79h0s0,.01,0,.01h.01s.86.72.86.72l1.06.12,1.09-.3.97-.54h.02s0,0,0,0h.01s.87-.21.87-.21l1.63-.66,1.28-.02,1.09.32,1.89.56,1.81,1.36.63.32,1.33.21,1.46,1.09,2.28,2.62,1.25,2.53.6.65.88.2,1.85-.45.55.09.8.44,1.01-.06.95-.38,1.19-.83.5.02.5.13.51.04,1.58-.44,3.12.12.98-.26.95-.44.79-.24h.81s1.51.48,1.51.48l.36.05.24.18.24,1,.21.34.3.27.4.27.99.34,1.05-.03,2.08-.37.93-.28.84-.48.88-.35,1.06.09.82.47.37.66-.1.77-.57.8-.78.57-1.49.77-.67.8-.77.6-1.02.1-1.93-.09-2.46,1.07-1.01.19-3.43-.09-1.01.29-.62.56-.39.78-.17.86v.81s.47,1.89.47,1.89l-.14.68-1.5-.37h-.24l-.22.05.43.99.55.93.19.21.07.21-.07.2-.2.2-.39.24-.26.32-.12.4.02.45.64,1.42,3.14,4.11,2.71,1.98,1.17,1.11.36,1.45-.1.2-.26.5-.61.6-.44.62.13.77.68.39,1.9-.02.74.51-.19,1.29-1.06,1.49-.66,1.38,1.01.97-.39.59-.53.23-.61.1-1.25.34-.88-.19-.49.04-1.32.65-.72.55-.78.16-1.47-.52-.63.04-.51-.17-1.03-.55-.73-.21-.34.11-.68.92-.05.23.14.6-.1.23-.29.12-.69.06-.32.09-.52.42-.24.57v.65s.13.67.13.67h0s.45,1.28.45,1.28l-.13.92-.42.9-.38,1.2-.75.82-1.32-.38-.58-.25-.88-.38-1.14.05-.32.94.1,1.25-.25,1.2-1.36.78-1.4.12-.62.21-.48.56-.15.59.11.99-.15.56-1.36,1.29-.38.79.73.68.41.19.44.28.36.36.17.4.15.52.24.3.25.24.2.34.15.93.02.92.16.83.55.64.14.32v.53s-.14.52-.14.52l-.2.32-.29.05-1.08-.31-3.37-.22-1.52-.3-1.68-.73-1.91-.46-.2,1.35.41,1.99-.07,1.45-.23.39-.28.36-.32.31-.36.27-2.58.48-.48.65,1.52,4.04.63,1.06.91.56.98-.65h1.1s1.01.53,1.01.53l.75.96.27,1.11-.1,1.21-.65,2.36-.24.44-.69.93-.1.45.24.56.36.43.28.42v.55l-.5.55-1.98,1.35-.72.64-1.2.87-.55,1.09-.41,1.25-.75,1.36h0s-.01,0-.01,0l-.41.35-.48.27-1.05.4,1.01,1.18,1.11.52,1.28.07,1.45-.19.12.02.11.04.09.07,4.37,6.61.66.61.76.53.64.59.35.82.21.99.34.87.49.8.67.8.75.62,2.31,1.39.17.38.16.36v1.74s.32.34.32.34l.86-.18.81-.45,1.43-1.15.9-.32,2.38-.03,1.06-.22-.19,1.51.87.74,1.04.6.34,1.09-.6.74-2.33,1.19-.77.84.84.6,1.46.29,1.49-.16.91-.72.24-.11.25-.04.25.04.06.03.18.09.15.07.15.1,1.65,1.72.56.85.4.93.15,1,.03.82.25.72,1.64,1.33,1.95,2.31,1.56,1.06.68.58.44.83v.5s-.29.94-.29.94l-.03.4.22.46.57.3.03.44-.35.63-.67.69-1.32,1.1-1.03.66-.8.13-.82-.05-1.08.08-.99.46-.05.6.68.49,2.16.21.92.33.71.53.28.67-.33.83-.73.64-.82.56-.6.6h0s1.04,1.97,1.04,1.97l2.87.29,5.79-.55,5.21,1.36,4.89,1.96,1.37,1.17,4.58,2.23.19.09,2.25,1.54,3.22,1.64,2.03,1.95,14.78,10.88h.01s1.57.98,1.57.98l1.49.66,1.55.29,1.73-.16.87-.28,2.25-1.05.69.04,2.78.81,1.05.47.63.61.55.76.82.89,1.31.85.27.36.08.57-.18.32-.27.27-.43.91-.2.19v.24s.32.66.32.66l.23.28,1.46,1.18.23.27.19.27.87,1.02.31.28.48.2.26.62.96.62.26.64-.08.68-.26.48-.29.43-.19.53-.1.68.05.39.33.22.77.19.63.34.4.5.44.42.74.08.95.33.11.13.73.89,1.12,2.14.75.73,1.71.71.48.87h0s.23.87.23.87l1.76,2.68.33.39.89.49.38.3.27.44.25.86.18.37.79.75,1.94,1.24.67.88.14,1.04-.29,1.11-7.48,17.37-.12,8.41-.17,11.87h16.13s.53.28.53.28l.16.63-.17,23.64.08,1.5,5.19.64.55.16.51.27.82.77.63.96.44,1.07.4,2.16.22.47.39.36.55.21.58.08.59-.02,1.8-.26.62.03.59.18.46.34,1,1.44,1.58,1.55,1.91,1.51.32.42.25.5.09.53-.13.52-.36.42-.47.37-.39.41-.11.55.1.34.61,1.14.98.96.28.5.13.08.9,2.44.1.64.44.96.23.32.32.28.68.47.73.39,1.52.38.34.14.05-.12.26-.3v.34l3.6.3,1.13-.3.42-.24.44-.35.36-.42.14-.48-.13-.68-.66-.92-.24-.59.13-.85.79.16,2.08,1,3.43-.02.95.39.86-.34,3.33.34,1.01-.24.89-.63.65-.87.31-.97-.03-.55-.28-.93-.03-.52.14-.56.44-1.01.1-.62-.28-2.21-.32-1.11-.41-.87-.8-.76-.99-.66-.86-.75-.36-1.05.17-.26.32-.39.2-.35-.56-.44.25-.61.43-.59.2-.22,2.68-2.16.57-.14,2.65.31h.83s.98-.85.98-.85l-.38-.87-1.23-.68-1.56-.27-1.33-.5.36-1,1.4-.76,1.76.22.83-.4.83.04.89.22.98.13.25-.05.46-.23.31-.06.34.15.55.68.29.18.68-.14.5-.32.42-.09.41.56-.19.21-.07.17-.07.63.77-.49.76-.71.58-.23.38,1.79.46.75.73.41,1.01-.18-.05.84-.28.53-1.45,1.6-.93,1.43-.29.66-.64-.76-.66-.52-.82-.3-1.09-.09-.69-.21-2.01-.92-1-.21-.9.12-1.62.48-1.05.05-2.01-.3-.82.19-.52.8,1.58.36,1.29.58.86.99.32,1.58.67.55,3.25,1.64,1.14.35.85.07.53.5.42.63.89.48.84-.1.71-.58.52-.82.28-.83.59.34.02.31-.2.32-.08.37-.02.74.02.27.21.29.68.42.15.15-.07,2.03.46.42,1.28.08,1.01-.18,1.84-.68,1.01-.15.42.1.71.46.55.1.59-.05,1.06-.23.52-.05,1.06.07.46.1.48.17.53.28.19.21.12.27.36.44.38.85.02,2.22.12.8,1.38,1.75,1.58.3,1.78-.65,15.4-8.53,1.79-.55,1.83-.24,1.76.18,1.3.44.4.14.71.43.29.52.26.8.65,1,.77.89.69.47-.29,1.28,1.13,2.78-.53,1.66.66.29.29.35-.18.29-.77.08.18.52.04.9.14.59.17.22,1.91,1.71,2.03,1.08.92.7,1.18,1.5,2.23,3.55,1.31,1.65,1.33,1.29.71.94.31.98.45.51,2.9,1.01,1.61,1.41.77.95.34.84.42.64,2.59,1.86,1.39,1.83.29.54.02-1.47.75.32.95,1.14.65,1.01.38,1.33.25,1.95.02,1.91-.35,1.2.6.94.31.29.47.14-.12.34-.22,2-.74-.7-.45.36-.32.81-.35.67-.44.59-.13.6.09,1.19.44,1.37,1.08.84,1.37.15,1.3-.68.89-.14,3.83-.2,1.17.18.18.27.1.41.06.83.18.22.41-.12.45-.21.3-.06.6.45.33.5.41,1.42.91-.2.48.71.12,1.14-.17,1.07-.33.51-.99.78-.35.36-.07.55.22.41.06.36-.52.4-.48-.81-.81-.89-.97-.71-.96-.29-1.01.53-.18,1.21.3,1.35.4.93,2.31,2.56.38.97.42.52.97.23,1.99.1,2.07.43,1.58.86,1.25,1.31,1.1,1.8.62,2.12.05,6.25.4,1.54,3,6.53.37.5,1.62,1.51,1.73,2.37.61.64,1.71,1.37,1.01,1.45.08,1.31-1.08,2.64.24.99,1.01.93.84.71,1.85,2.67.76,1.78.96,1.23.96,2.93,1.01-.07.38-1.37,1.17.67,1.13,1.67,1.05,1,2.1.56,1.53.2.26.24.16.37.06.47.25.32.58.13,4.25.79,1.93.27,3.07-.51,1.89-.4,1.76-.11.92.52.78.22,3.41-.37,2.33.28,2.03.75,1.8,1.08,5.79,4.77,1.85.83,8.75,1.71,1.79.69,1.61,1.14,3.69,3.37.34.5.79,1.61.39.59.74.55,1.99.68.78.6.44,1.15-.61.49-1.06.1-.92-.03-1.03.09-.82.32-.46.63.08,1.01,1.01.95,3.8,1.5,2.62,1.03,1.75,1.06,3.95,3.16,2.26.6,1,.55.42,1.07.46.49,2.92.66.62.67.52.78.65.65,1.05.27,1.07.08,16.69,5.07,1.57.88.83.91.39.98.12,2.33.28.96.7.77,4.76,3.22,3.69,1.95,2.56,1.99.6.19,1.15-.56,1.2.09,2.19.64,1.08-.04,2-.5,2.25-.28,3.23-1.35,1.01-.19.51.02.41.19.94.67.53.15.85.12,3.37.88,1.03.1,3.74-.23.95-.24.98-.14,1.04.18,1.45,1.06.93,1.5.73,1.57.88,1.26,1.78.77,4.47-.16,2.19.39,1.44,1.21.6,1.42.84,1.12,2.15.31,4.21-.34.58.1.83.44.62.1.52-.12.36-.28.31-.32.34-.26,5.33-2.79,4.72-3.43.54-.31,3.21-2.57.73-.31,2.16-.57.96-.1,1.19-.26.48-.64.27-.88.58-.93,1.86-.79,2.25.27,3.95,1.22,2.2.11,2.05-.37,1.85-.84,1.61-1.27.69-.99.58-1.39.3-1.47-.2-1.2-.36.31-.3.15-.71.21,2.66-2.64.54-.38.62-.3,1.65-1.37.93-.37h.49s1.55.34,1.55.34h1.83l.43-.1.73-.46.54-.1,1.64.05.52-.05,2.03-.44,2.19-.23.54-.16.89-.69.26-.16.02-.2,1.19-.9,3.3-1.78.85-.64.42-.25.38-.07.26-.16.1-.52.16-.24.82-.72.4-.24,1.3-.23,3.19-.12,1.05-.45,1.13-.69,1.55-.36,3.04-.15,1.53.2,2.57.91,1.45.26,3.06.14,1.47.27,1.19.59.34-.37,1.11.31,5.09.05.47.21.37.47.46.47.73.21h1.33s.63-.2.63-.2l.57-.5.31,1.11.79,1.02,1.17.71,1.44.18v.37l-.42.31-.86.83-.24.17-.46.18-.02.36.34.26.63-.13-.02.5.12.4.29.17.96-.42.34.2.26.32.25.17.24.11.2.23.29.23.46.1.5-.09,1.51-.58-.31.4-.17.48.06.46.42.34-.6.24-.5.28-.54.19-.71-.04.5.47,1.51.9-.06.79.6.77,1.67,1.3.67.88,3.2,11.4.17,2.29-.84,6.12.02.45.18,1.12.14.44.23.37.94.82.54.88.35,1.1.28,2.22.36.3-.26,1.31,3.25,3.22.67,1.57-.54.98-1.53,1.5-.31,1.02.11.59.48.95.2.82.67,1.76.13.58.09.2.2.06.62-.1.22.04,1.09,1.18.08.19.49.4.41.94.61,1.99,1.19,2.49.28,2.4.35.77.72.35,6.57.39-.37.3,3.35.95,1.22.09.5-.05.97-.23.56-.05.57.1,1.02.46.6.1,2.72-.56,1.11-.1,1.23.04,1.03.24.77.6.5,1.12.08.38-.03.18-.13.24-.19.56-.2,2.16h.77s1.08-.6,1.08-.6l1.67-1.23,1.99-.92,2.02-.48,1.86.4,1.53,1.67,1.47,2.81,1.08,1.32,1.32.56,1.63.23,1.55.45,1.6.28,1.81-.26,1.73-1.09.29-.12.18.35.43.05.5-.14.39-.26.58-.48h.24s.17.19.17.19l.34.12.74-.17,1.13-.85.66-.32,1.57-.28,1.44-.08-.35.78.92.4,2.63.16,3.06-.44,8.92,1.47h4.21l.56.16.26.4.18.49.3.47.46.2,1.71-.03,1.92.79,1.21,1.32,2.27,3.28.64.49.83.32.97.18,1.13.05.46-.11.46-.19.42-.09.36.2.36.32.42.07,1.04-.21,2.8-1.2,2.74-.38,1.38-.2,5.8-.84,2.78-.48,1.79.89,2.33,2.15,3.73.78,2.22.02,5.68-.32,2.21.52,2.05,1.77,2.07.65,1.82-1.23,2.63-.1,2.5-.34,1.8-.1.78.38.54.64.38.26,1.68.22.54.16.99.59h1.34s.33-.9.33-.9l-1.03-.64-.12-.24v-.29l.44-.45.29-.1,1.36-.24,1.78-.08.89.12.71.3-.21.19-.46.78,1.42,1.05,2.13-.03.99.51,2,.75,1.58.6.57.12.14-.63-1.42-.66v-.11s.55.07.55.07l-.52-.5-.2-.31-.21-.13h-.42s-.54-.24-.54-.24l-.34-.03-.24-.13-.19-1-.15-.31v-.32s.41-.54.41-.54l.77-.84.47-.67.84-.42,3.36-.94.88-.08.86.1.76.41,1.79,1.6.16.43v2.75s.17.66.17.66l1.19,1.55-.75.63.81.4,4.63.52,6.82,1.46,8.04,1.22,6.85,2.23.75,1.22-.02.8,2.87.56,8.25,2.58,1.15-1.39-.71-.45,2.68-.73.71-.34.39-.34.06-.19v-.26l.23-.52.77-.9.26-.47-.4-.43-.48-.24-1.16-.34,1.06-.74h.81s.79.3.79.3l1.05.11-.28-.22-.49-.52-.27-.23.15-.3.07-.79.14-.28.48-.29.24.15.15.3.85.56.1.82.31.72,1.56-4.09.29-4.14.34-4.88.29-4.2.2-2.87.17-.71.29-.47.72-.65.31-.38.14-1.69-.54-1.94-.24-1.81,1.03-1.29,1.04-.23.95.02.85-.18.75-.82.27-.86.52-3.43.62-4.08.47-3.05.39-2.64.45-2.99.42-1.52.72-1.32,1.19-.83,5.92-1.51,1.76-1.05.91-.41,1.01-.28,2.03-.31.45-.5.18-1.21.83-1.19,1.85.22,2.18.69,1.84.23,1.07-.51-.04-.7-.48-.9-.27-1.13.35-.61,1.54-1.36.51-.85-.05-.3-.19-.28-.15-.32.09-.43.31-.37.43-.24.96-.34.4-.21.63-.42.41-.16.46-.04,1.03.04.51-.12.28-.23.4-.64.39-.27.47-.12,8.21-.78,1-.31.41-.29.39-.37.42-.23.53.1.55.24.42.03,1.52-.31.42-.14.37-.18.33-.23.51-.84.38-.45.53-.14,3.34.08,3.85.08,4.44.1,1.91.26,1.94.05,1.43-.29.47.04.42.18.36.23.38.18.49.02,1.1-.97.52-1.96.39-7.13.36-.77.81-.38,1.99-.29.74-.6.16-.9-.41-.79-.61-.8-.44-.92-.25-5.54.07-.58.21-.49.52-.67.18-.49.54-.79.96-.37h1.07s.84.29.84.29l-1.67-3.3-.7-.92-.52-.51-.45-.25-1.21-.39-.56-.31-1.27-1.04-.61-.2h-.5s-2.68.75-2.68.75l-.63.02-.82-.08-1.3.06-2.57.71-1.27.18-2.86.5-1.33.07-1.55-.3-1.15-.57-.4-.12-.34.06-.67.35h-.39s-.74-.35-.74-.35l-2.12-1.68.78-.04.48-.33.3-.55.23-.7.09-.8-.24-.53-.96-1.04,2.58-5.17.3-2.04-.26-2.56-.47-4.53-.25-2.46-.41-3.97-.3-2.92-1.28-4.72-.91-3.39.79-5.58.72-5.04-.24-1.72-1.09-.58-8.03,1.44-.99-.55-3.1-2.96-.72-1.06-.32-.85-.34-.5-.51-.29-.82-.23-.8-.4-.5-.6-.42-.66-.57-.59-1.36-.63-6.48-1.16-4.08-1.61-1.57-.3-3.26-.24-1.49-.41-2.34-1.19-2.94-.72-.91-.43-1.55-1.58-3.11-2.54-2.04-2.33-5.06-4.04-1.43-1.54-1.41-2.7-1.42-1.39-.25-.73-.12-.82-.28-.95-2.07-4.18-.43-.51-.55-.38-.63-.25-.38-.26-.11-.29.14-.3.36-.32.45-.42.17-.45-.14-.42-.48-.33-.84-.31-.38-.71-.26-.84-.5-.7-.53-.25-.45-.05-.45-.14-.52-.52-.25-.56-.13-1.23-.15-.55-.63-.84-1.56-1.51-.47-1v-.96l.58-1.72.09-.96-.45-1.24-.86-.54-1.03-.36-.96-.69-4.04-4.2-3.84-4.01-3.7-3.85-3.21-3.35-2.6-2.67-3.96-4.08,2.84-2.88,3.73-3.79h.02s7.59-7.86,7.59-7.86l4.05-4.19,2.77-2.88,5.31-5.5,3.99-4.13,5.62-5.86,6.2-6.46,4.05-4.22.84-.77-.12-.26-.07-.05.07-.89.12-.34.29-.14-.19-3.35-.21-.57.94-1.6.35-1.03v-.96s-.24-.98-.24-.98l-.6-1.6-.86-1.56-.12-.51-.08-1.44-.42-1.1-1.31-1.87-.48-1-.02-.98.34-2.11-.34-.91-1.76-1.91-.96-.65-1.26-.43-2.7-.34-5.66-.7-9.62-1.2-8.33-1.04h-.08s-8.22-1.04-8.22-1.04l-4.96-.62-1.63-.59-.58-4.6-.74-2.37-.12-1.15.62-3.63-.68-4.54-.11-2.38.37-3.03-.09-1.07-.19-.53-.24-.48-.1-.5.42-1.08-.29-.28-.41-.2-.17-.3.38-.75,1.28-1.41.29-.82.66-3.91.1-4-1.67-5.25-2.16-6.81-1.99-5.68-1.81-5.17-1.71-4.9-1.66-4.75-1.41-4.02-.72-3.14-.07-3.88.3-.69,2.37-2.69,2.67-3.02,2.39-2.72,1.87-2.13,1.42-1.05,1.61-.84.51-.56.27-.98-.09-.84-.17-.82.14-.71.87-.48,2.33-.13.73-.22.38-.54.05-.08-.44-.7-.83-.62-.76-.37-1.65-.35-1.9-.12-3.61.16-3.85-.25-3.96-1.37-3.09-2.48-1.22-3.58.4-1.61,1.52-2.85.11-1.93-1.41-7.5-.54-4.25-.08-.66.29-2.2,1.38-2.31,1.55-1.67,1.72-1.48,2.33-1.03.77-.69-.34-1.04,3.47-.17,4.99-.25,3.66-.18-.56-.92-3.64-3.92-.78-1.28-.48-.57-.59-.45-1.2-.46-.44-.34-.42-1.17-.31-.34-.42-.2-.52-.06.72-1.03,1.22-.52,2.69-.3,1.22-.28.96-.54,2.23-2.1.25-.39.32-.33.66-.31.68-.09.64.04.57-.11.51-.56.2-1.19-.16-1.27.06-1.16.89-.85,1.55-1,.95-1.41.28-.81,1.51-.42.39-1.62.21-1.73-.04-.43-.22-.91-.05-.5.16-.62.69-.92.15-.47.16-.96.72-1.84.29-2.03.36-.7,1.19-1.37-.52-.45-.08-.4.13-.44.1-.56-.14-.21-1.74-1.93-.25-.49.29-.22.49-.21.02-.47-.24-.47-.27-.21-.04-.48.04-1.05.29-1.04.71-.48,1.04-.02,1.17-.16.94-.44.39-.87-.23-2.53.23-1.01.28-.54,1.03-1.13.27-.5.43-1.54.54-.94,1.15-1.15.65-.93.3-1.02-.12-.99-.52-2.01-.36-.46-1.19-1.51-.67-1.11-.13-1.31.19-.29.67-.54.15-.34-.04-.87.04-.27.32-1.16v-.48s-.32-.36-.32-.36l.31-1.1-.03-.8-.18-.74-.22-1.76-.31-.87-.44-.82-.51-.68-.79-.78-.86-.64-.99-.43-1.2-.15-.67-.25.57-.58,1-.67.6-.52.03-.46-.17-.99.14-.59.31-.23.46-.15.42-.25.19-.53.02-.45.09-.48.15-.44.24-.34.52-.55.1-.3-.08-.25-.13-1.48-.74-3.05-.72-.96-.16-.48-.02-1.14-.09-.51-.2-.51-.2-.29-.3-.3-.39-.25-.47-.16.13-.34.08-.14.16-.2-.7-1.41.28-2.41,1.06-3.95-.29-.74-.08-.59.21-.52.3-.37.26-.47.19-.55.07-.6-.08-.62-.18-.45-.41-.76-.4-1.67-1.99-.22-2.44-.34-5.03.07-5.82.08-10.47.15-6.86.1-7.8.11-1.62-.73-1.01-1.43-1.43-3.01-1.03-1.34-5.2-5.09-2.27-2.78-1.84-3.14-1.46-1.56-1.85-.64-4.03-.58-1.8-.85-3.22-2.18-7.07-1.84-.52-.03-.46.2-.57.72-.34.3-.47.08-.66-.41-.34-.81-.23-.93-.35-.76-.82-.71-.73-.1-1.56.49-.41-.02-.42-.17-.4-.25-.32-.26-.81-.17-.14-.35.15-.4.06-.33.07-.13.18-.17.06-.24-.29-.33-.92-.82-3.07-2.04-.57-.67-.96-3.38-.12-1.03.16-.55.3-.48.2-.44-.14-.41-.29-.54.15-1.09-.23-.65-.95-1.04-.98-.75-1.13-.24-2.75,1-1.05-.08-6.55-3.75-1.6-1.32-.54-.24-1.43-.17-.65-.17-.69-.4-1.94-.71-3.81-.69-2.94-1.3-.27.34-.12.73-.65.65-.52.14-.5.03-1.04-.16h-.56s-.35.23-.35.23l-.31.29-.43.21-1.11.09-1.11-.13-2.12-.69-2.47-1.73-.8-.33-.96.06-.76.44-.59.69-.45.82-.66.81-.85.32-4.44.35-.68-.14-1.29-.74-.62-.23-3.82-.46-.84-.25-.84-.55-.24-.56v-.68s-.13-.9-.13-.9l-.17-.37-.78-1.15-.04-.38.11-.35v-.34s-.38-.33-.38-.33l-.83-.32-.79-.14-1.65-.11-3.24-.6-7.7-2.93-1.7-.36-.8.05-.83.15-.81.05-.74-.24-.29-.3-.45-.74-.34-.27-.41-.08-.8.15h-.18s-.24-.03-.24-.03l-.63-.32-.61-.42-.66-.32h-.74s-.74.14-.74.14l-2.39.04-2.5-.57-.82-.09-.83.11-.77.19-.78.09-7.06-2.22-1.24-1.3.97-2.59.12-.82-.24-.86-1.05-1.18-.57-1.47-1.61-1.37-.57-.68-.89-1.7-1.13-1.51-.21-.43-.02-.37-.14-.32-.54-.28-1.05-.28-.54-.05-.54.05-.85.33-.43.37-.15.13-.99,1.36-.58.5-1.59.83-.68.48-.89.39-1-.12-1.95-.63-7.39-1.09-.76-.2-1.68-.76-1.92-1.23-.47-.07-2.35.32-3.94,1.36-.79.11-.66-.24-.62-.39-.68-.33-.84-.16-4.5.11-1.79.54-1.65.91-3.09,2.26-.31.67,1.33,1.21.23.85-.17.91-.49.77-.77.45-4.21.56-.8-.09-1.53-.5-.24-.08-1.98-.2-7.02,1.01-.76-.03-.68-.18-1.33-.56-.83-.2-2.5-.02-.72-.19-1.92-.88-3.04-.53h-1.46s-9.7,1.61-9.7,1.61l-3.12.11-1.19.38-3.65,2.23-1.01.41-1.01.65-.56.06-2.24.6-1.07.47-.45.78-.6.19-2.84.43-.95.25-.42.37-.54.9-.36.38-.53.16-.69.09-.59.26-.26.67-.39.51-2.29,2.03-7.37,4.02-1.47,1.27-.64.82-.27.78-.22.98-.81,1.52.05,1.03.17.27.58.41.22.32.06.34-.06,1.18-.15.7-.67,1.23-.15.75-.23.35-1.24.83-2.33,1.22-.61.46-.97.31-1.21,1.03-.74.28h-1.09s-2.99-.51-2.99-.51l-1.11.14-8.3,3.83-1.75.46h-1.09s-1.13-.12-1.13-.12l-1.07.04-.91.48-.91.7-.89.3-.97.04-13.39-.93.46,4.16.22.7,1.49,3.2,1.09,4.15.78,1.8,1.17,1.45-1.12,1.67-.14.71.93.3.72.34.27.84-.02,5.07-.34.82-.58.39-6.14,1.35-.84-.24-.77-.35-7.63-.55-2.01-.72-1.19-1.27.39-.04.98-.27-1.61.06-.69-.18-.38-.55h2.52l2.88.31.75-.13,1.36-.42.74-.09,1.31.33.7.09.62-.25,2.24-.56,3.49-.35,2.78-.78.11-1.87-2.39,1.62-3.53.68-19.32.88-2.2.29-16.29,2.93-8.11,2.01-8.4,2.01-8.38,1.37-8.74,1.34-8.44,1.68-8.07,2.38-9.08.97-8.74-2.04-9.07-1.31-8.75-2.04-13.7-2.18-4.12-1.5-7.06-4.02-7.74-3.38-.73-.5-1.45-1.26-.68-.25-1.02-.19-5.43-2.94-.95-.22-.74-.36-2.42-2.35-3.55-2.14-1.71-1.31-1.47-1.94-1.15-2.65-.71-.88-.45-.71-.64-1.77-.43-.68.2-1.77-1.55-1.17-2.3-.71-6.38-1.17-4.09-1.27.38-.4.28.03.54.12.47-.06-1.75-.72-1.58.23-1.67.55-2.03.25-18.87-2.03-3.67-.99-7.92-3.28-3.59-2.05-3.3-2.72-2.49-2.96-1.02-1.85-.52-1.93.08-.35.15-.44-.02-.51-1.73-2.23-.38-.75-.21-1.06.05-1.12.39-.94-2.03-5.72-.69-6-.93-1.81-.1-2.59-.34-1.05.56-1.44-.14-4.31-3.17-.52h-1.57s-1.1.46-1.1.46l-.97.77-1.24.61-1.33.45-1.18.26-2.27-.15-.25-.02-1.57-1.2-1.34-1.76-.64-.63-1.22-1.21-.73-.81-.83-.71-.81-.99-.79-.56-.63-.67-.34-1.3-.56-1.06h-1.15l-2.49.91-1.51-.03-.89-.66-.77-.89-2.38-1.49-.09-.83.2-.96-.23-.72-.13-.41-.62-.41-6.5-2.51-3.19-1.99-.97-1.4-.12-2.02.46-.56,2.57-1.24.14-.32v-.37s.16-.32.16-.32l9.06-1.25,2.02-.98h0s0-.01,0-.01l.44-.52.38-.63v-.02s.24-.66.24-.66l.03-.68-.26-.62-1.48-2.47-.74-.56-2.81-.91-2.8-2.11-1.2-1.32-.66-1.32.09-1.69.9-1.39,1.42-1.05,1.65-.66,3.07-.48,2.58-1.35,1.27-.32.52-.13-1.09-1.78-1.38-1.47-3.36-2.4-8.25-7.66-3.01-2.17-.95-.5-.67-.13h-.02s-.57.65-.57.65l-.51.37-.6.12-3.73-.06-1.17.24-.95.51-.76.6-2.11,1.66-5.9,2.57-.88.38-2.6,2.04-.63.33-1.1.1-3.43.91-2.05.88-1.6,1.04-2.44,2.43h0s-1.62,1.29-1.62,1.29l-1.47.65-.57.25-4.89,1.48-2.35,1.12-.48.42-.17.49-1.78,2.2-.83,1.86-.25.36-.51.47-.34.15-2.94,1.29-.6.09-.74-.15-1.37-.48-.77.02-.82.29h-.01s-.75.49-.75.49l-.67.6-1.26,1.7-.28.3-.39.25-.81.34-.38.25-.6.73-.82,1.49-.81.6-2.85,1.13-.9.59-.65.66-1.38,2.23-.56.7-.68.59-.76.49-.79.39-1.06.33-.89.04-.88-.19-5.11-1.78-.67-.12-.52.05-1.19.3-1.9.06-.65.11-.95.36-2.55,1.44-.86.32-3.27.34-.48.05-2.85-.56-3.25-1.15-10.34-1.7-1.13-.35-2.51-.77-4.37-.04-2.8-.53-1.36-.04-.37-.06-.23-.04-1.01-.46-.77-.16-.59-.12-1.12-.43-1.04-.55-.57-.52-.09-.53.14-.42.2-.41.11-.51-.24-.33-1.17-.41-.46-.27-.25-.41-.39-1.06-.2-.39-.46-.38-.46-.21-.43-.25-.33-.5.42-.72-.28-.53-.65-.32-.68-.11-.48-.18v-.42s.14-.46.14-.46l-.14-.31-.46-.04-.45.14-.34.18-.13.09-5.11-1.31-1.29.31-.32-.74-.51-2.44-.34-.53-.42-.47-.3-.51-.9-1.56-.4-.47-.45-.2-.49-.46-.4-.51-.16-.35-.27-.25-1.77-.94-.17-.17-.11-.22-.18-.19-.38-.08h-.53s-.26-.03-.26-.03l-1.25-.7-.18-.35.41-.6-1.03-.7-.6-.99-1.47-4.72-.59-1.06-1.03-.57.19-.14.15-.22-1.13-.03-1.05-.16-.19-.09-.7-.32-.13-.14h0Z" style="fill: none; fill-rule: evenodd; stroke: #232323; stroke-linecap: square; stroke-linejoin: bevel; stroke-width: 1.48px;"/>
</svg>