<?xml version="1.0" encoding="UTF-8"?><svg id="a" xmlns="http://www.w3.org/2000/svg" width="1920" height="1080" viewBox="0 0 1920 1080"><polygon points="493.06 870.54 496.03 844.36 495.44 816.99 496.03 804.5 486.51 825.32 477.59 822.35 440.11 754.52 419.88 709.31 465.69 653.38 495.44 596.86 502.58 577.82 509.12 568.9 521.02 562.36 519.83 547.48 521.61 536.77 525.18 527.85 527.56 515.95 524.59 505.84 529.35 494.53 535.89 491.56 536.49 486.2 532.92 474.3 536.49 468.95 544.22 463.59 551.36 456.46 554.34 447.53 547.2 446.34 539.46 452.89 526.37 460.62 515.07 461.22 496.63 443.37 500.2 432.06 514.47 423.73 528.16 416 541.25 411.83 559.69 411.24 575.75 410.64 604.31 409.45 617.4 404.1 645.36 388.04 665 369 678.09 352.93 693.55 333.3 700.69 322 710.81 304.15 723.3 288.09 734.01 280.35 756.02 263.1 769.11 252.39 786.37 238.11 800.05 228.59 812.54 220.86 845.86 213.12 869.66 211.34 897.03 216.69 926.18 223.83 948.79 229.78 969.01 227.4 999.36 230.97 1024.94 229.78 1034.46 223.24 1038.03 216.69 1046.36 175.64 1055.88 157.2 1065.4 151.25 1080.27 161.36 1086.22 172.67 1094.55 181.59 1109.42 187.54 1121.92 189.92 1151.07 203.6 1176.65 218.48 1190.93 240.49 1214.73 252.98 1240.31 272.02 1244.48 297.01 1212.94 304.74 1192.12 310.69 1186.77 343.42 1177.84 358.29 1189.77 359.73 1190.67 369.85 1192.92 389.43 1196.52 404.5 1216.55 407.88 1247.6 417.33 1262.32 438.61 1281.36 445.15 1304.57 450.51 1321.82 445.75 1359.9 444.56 1386.67 441.58 1401.54 438.01 1403.33 425.52 1393.21 388.04 1405.11 363.64 1408.09 341.63 1417.61 329.73 1434.26 320.21 1461.04 319.62 1484.24 327.35 1503.28 345.2 1515.77 353.53 1558.01 367.21 1585.98 370.78 1610.96 366.62 1630.6 354.12 1640.12 334.49 1646.66 326.76 1653.8 322.59 1705.56 322 1715.08 301.77 1702.59 289.87 1679.98 273.81 1672.24 250.01 1715.67 236.32 1801.35 235.13 1906.06 272.02 1947.7 297.01 1999.46 364.24 2068.48 447.53 2079.19 469.54 2068.48 502.27 2061.34 711.09 2047.06 837.22 2044.68 903.86 2023.26 941.93 1994.7 1022.85 1978.05 1034.74 1837.64 1049.02 1725.79 1051.4 1620.72 1020.03 1575.5 1000.99 1578.24 958.59 1478.29 982.39 1352.16 977.63 1287.91 920.51 1240.31 851.5 1216.51 827.7 1185.58 815.8 1159.4 820.56 1114.18 844.36 1068.72 838.6 1046.82 838 1140.36 937.17 1276.01 1094.24 1340.26 1227.51 1330.74 1287 493.06 870.54" style="fill:#987db7; fill-rule:evenodd; stroke-width:0px;"/></svg>