<?xml version="1.0" encoding="UTF-8"?>
<svg id="a" data-name="Ebene 1" xmlns="http://www.w3.org/2000/svg" width="1920" height="1080" viewBox="0 0 1920 1080">
  <rect x="0" width="1920" height="1080" style="fill: #000; stroke-width: 0px;"/>
  <path d="M1884.63,925.5c-.2-.47-.38-.96-.62-1.41-.86-1.64-2.16-2.67-4.04-2.89-.37-.63-.93-.97-1.66-1.02-.18,0-.35-.05-.52-.03-1.7.26-3.42.38-5.14.49-1.8.63-3.7.75-5.54,1.18-.31.08-.56.38-.84.57-1.01-.21-2.04-.26-3.07-.19-.32-.41-.74-.7-1.26-.77-.67-.09-1.36-.08-2.02-.19-.7-.11-1.26-.52-1.65-1.1-.31-.47-.07-.94.17-1.39.15-.29.3-.62.35-.94.1-.71-.08-1.33-.8-1.67.04-.69.03-1.36.38-2,.56-1.06,1.08-2.15,1.59-3.24.3-.64.34-1.32.16-2,.13-.5.29-.99.25-1.52-.34-3.96-.51-7.94-1.15-11.87.01-2.81-.81-5.46-1.46-8.14-.08-.34-.18-.67-.3-.99-.63-1.67-.65-3.38-.4-5.12.16-1.02.37-2.04.51-3.07.2-1.54.37-3.08.53-4.63.03-.34-.03-.69-.04-1.03-.01-.81-.98-1.72-1.71-1.62-.34.05-.68.11-1.02.16-1.88.3-3.76.63-5.64.9-.71.11-1.39-.11-1.93-.57-1.32-1.11-2.7-2.18-3.58-3.71-.53-.94-1.28-1.61-2.23-2.09-.62-.32-1.14-.79-1.57-1.33-.57-.72-1.35-1.07-2.19-1.3-.84-.22-1.67-.52-2.52-.59-2.27-.21-4.41-.84-6.5-1.7-.63-.26-1.3-.48-1.97-.6-1.53-.29-3.12-.19-4.62-.68-1.47-.49-2.91-1.05-4.37-1.57-.33-.12-.66-.22-.99-.32-1.19-.34-2.17-.99-3.07-1.84-1.76-1.66-3.75-3.06-5.32-4.93-.55-.66-1.28-1.16-1.95-1.71-.93-.78-1.89-1.51-2.81-2.29-.53-.45-1.07-.91-1.47-1.46-1.12-1.53-1.97-3.24-3.2-4.71-.56-.68-.48-1.65-.84-2.43-.57-1.25-1.24-2.47-1.87-3.7-.33-.63-.88-1.04-1.43-1.47-.26-.2-.41-.53-.6-.8.54-.38.71-.9.56-1.52-.08-.31-.34-.43-.69-.37l-.27-.18c-.01-.5-.26-.78-.78-.81-.07-.67-.35-1.18-1.08-1.32v-.05c0-.62-.36-.76-.92-.63-.4-.47-.79-.93-1.19-1.4.17,0,.14-.6-.08-1.06.01-.15.01-.27.01-.37,0-.45-.11-.5-.74-.77-.05-.58-.39-.9-.95-1.01-.07-.34-.11-.69-.22-1.01-.31-.83-.39-1.67-.17-2.53.04-.17.06-.34.08-.52.18-1.29-.06-2.4-1.33-3.06-.93-.48-1.73-1.13-2.45-1.88-3.56-3.75-7.12-7.5-10.7-11.24-2.38-2.49-4.78-4.96-7.19-7.42-.23-.23-.59-.33-.89-.49-.11-.53-.42-.84-.95-.94-.04-.37-.2-.68-.49-.91.08-.4.16-.81.24-1.21.49,0,.79-.29.88-.94l.15-.22c.57,0,.72-.13.82-.79,1.18-.67,2.05-1.67,2.88-2.7.1-.13.12-.31.18-.47l.27-.28c.11-.52.33-.72.72-.72l.28-.04.04-.28c.09-.51.25-.66.65-.66.93-.5,1.58-1.32,2.29-2.06,4.93-5.08,9.86-10.15,14.76-15.25,6.94-7.2,13.85-14.44,20.82-21.62,1.3-1.34,1.89-2.83,1.9-4.63,0-.51-.01-1.03-.05-1.55-.08-.88.06-1.74.49-2.5.65-1.16.5-2.28.09-3.47-.55-1.62-1.5-3.08-1.64-4.87-.08-1.03-.91-1.83-1.45-2.72-.37-.61-.52-1.27-.53-1.96,0-.52.05-1.04.08-1.55.06-1.13-.48-1.95-1.23-2.73-.86-.91-1.84-1.54-3.08-1.75-1.36-.23-2.72-.51-4.09-.65-2.06-.22-4.12-.37-6.16-.78-1.01-.2-2.05-.23-3.08-.35-1.54-.19-3.08-.38-4.62-.59-2.56-.36-5.12-.75-7.72-.6-.53-.47-1.18-.67-1.87-.71-3.92-.24-7.79-.95-11.69-1.39-1.08-.12-1.81-.87-2.05-1.99-.07-.33-.2-.65-.31-.98.04-.51.17-1.03.1-1.52-.09-.68-.3-1.34-.5-2-.26-.83-.47-1.69-.3-2.54.46-2.4.26-4.78-.04-7.18-.17-1.36-.16-2.76-.06-4.12.11-1.56.01-3.1-.19-4.63-.06-.52-.1-1.03-.16-1.54-.07-.55.14-1.04.42-1.46.57-.87,1.03-1.76,1.15-2.82.1-.86.37-1.69.47-2.54.24-2.06.22-4.08-.45-6.12-1.38-4.25-2.6-8.55-4.09-12.77-2.25-6.32-4.41-12.67-6.65-18.99-.4-1.12-.68-2.31-1.37-3.32-.08-1.38-.52-2.7-.54-4.11-.03-1.8.32-3.33,1.62-4.7,2.02-2.13,3.94-4.36,5.84-6.61,1.46-1.73,3.09-3.25,5.03-4.43.49-.29.7-.77.79-1.28.11-.68.08-1.38.23-2.05.06-.28.39-.58.67-.7.78-.35,1.7-.19,2.46-.69.42-.27.64-.97.34-1.27-.64-.62-1.35-1.09-2.26-1.16-1.2-.09-2.41-.15-3.62-.18-1.56-.04-3.11.01-4.67-.04-1.94-.06-3.73-.72-5.45-1.54-1.1-.52-2.05-1.29-2.87-2.19-.34-.37-.65-.82-.84-1.29-.68-1.65-.95-3.32-.04-4.99.17-.31.33-.61.47-.93.51-1.13.72-2.31.52-3.54-.29-1.7-.55-3.41-.9-5.1-.46-2.21-.62-4.45-.76-6.69-.1-1.6.32-3.1,1.39-4.34,1.01-1.18,2.07-2.31,3.1-3.46,1.43-.22,2.6-.89,3.4-2.1.32-.49.82-.66,1.32-.69,2.24-.13,4.49-.21,6.74-.32.69-.03,1.37-.1,2.06-.14.39-.02.61-.22.65-.65.01-.16.03-.35-.04-.48-1.01-1.83-2.81-3.03-3.89-4.82-.17-.29-.42-.55-.67-.78-.26-.22-.56-.41-.86-.57-.63-.34-1.07-.85-1.51-1.39-.6-.7-.8-1.48-.69-2.37.51-.08,1.02-.23,1.52-.24,2.74-.07,4.98-1.12,6.71-3.25.11-.13.26-.22.38-.33.39-.38.89-.51,1.38-.64.33-.09.67-.16.97-.3.47-.23.88-.58.96-1.12.13-.84.15-1.69.28-2.53.05-.33.18-.76.42-.91,1.65-1,2.53-2.76,3.99-3.95.55-.46.8-1.09.89-1.79.03-.17.07-.33.08-.5.03-1.03-.07-2.07.12-3.06.19-1,.66-1.93,1-2.9.23-.64.54-1.28.63-1.94.17-1.21.64-2.29,1.17-3.37.39-.81.28-1.68-.02-2.49-.17-.47-.5-.89-.75-1.33-.16-.3-.3-.61-.43-.92-.06-.15-.09-.33-.09-.49.01-1.02-.02-2.04.06-3.05.06-.72.54-1.23,1.17-1.56.34.03.68.11,1.01.09,1.12-.07,1.99-.85,2.06-1.85.06-.84.06-1.69.13-2.53.07-1.04,1.08-1.71,1.15-2.76.11-.11.27-.2.34-.33.29-.57.49-1.18.84-1.7.44-.67,1.01-1.24,1.48-1.89.3-.39.36-.87.25-1.35.48-1.21.18-2.35-.39-3.41-.48-.89-1.16-1.67-1.64-2.57-.22-.41-.29-1-.2-1.47.17-.82.56-1.59.76-2.41.11-.48.02-1,.02-1.5.37-1.08.49-2.15-.07-3.21.04-.2.05-.39.05-.58,0-.69-.23-1.32-.69-1.89h.02c-.07-.33-.05-.72-.23-.98-.58-.85-1.27-1.61-2.21-2.11-.45-.24-.92-.45-1.38-.69-.42-.23-.49-.72-.09-1.23.56-.69.7-1.51.97-2.32.26-.78.89-1.44,1.32-2.19.93-1.6.96-3.26.56-4.98-.11-.5-.25-1.01-.45-1.47-.35-.79-.71-1.57-.83-2.43-.15-1.06-.91-1.82-1.34-2.75-.36-.78-.56-1.63-.5-2.5.05-.85.09-1.72.3-2.55.39-1.49.86-2.95.77-4.53-.02-.48.28-.98.45-1.47.25-.68.19-1.33-.06-2-.18-.48-.32-.98-.51-1.46-.27-.7-.83-1.04-1.56-1.13-1.7-.23-3.42-.33-5.14-.31-4.98.07-9.96.12-14.95.19-.34,0-.68.09-1.02.14-.48.49-1.05.81-1.75.83-1.17.04-2.34.06-3.51.08-1.67.04-3.34.08-5.01.11.07.7.26,1.34.82,1.82-.61-.5-4.03-2.96-9.18-2.9-1.05-.82-1.86-1.81-2.41-3.04-.19-.44-.56-.8-.84-1.2.05-.68-.28-1.09-.9-1.31-.04-.37-.25-.57-.63-.59-.11-.32-.16-.71-.37-.94-.69-.77-1.41-1.52-2.17-2.22-2.28-2.13-4.32-4.47-5.83-7.22-.17-.3-.36-.6-.56-.87-.98-1.3-2.27-2.11-3.88-2.35-.51-.08-1.03-.14-1.55-.16-1.24-.07-2.36-.54-3.43-1.09-.77-.4-1.49-.88-2.2-1.36-1.03-.68-2.15-1.11-3.32-1.44-1-.27-2.03-.43-3-.78-1.39-.5-2.67-.44-3.94.33-.32.2-.69.02-.93-.24-.11-.13-.24-.25-.32-.4-.16-.3-.28-.63-.43-.94-.51-1.01-1.28-1.66-2.47-1.43-1.31.26-2.35-.29-3.38-.95.01-.17,0-.35.02-.52.09-.74-.15-1.35-.76-1.79-.84-.6-1.67-1.23-2.54-1.79-.62-.41-.94-1.01-1.24-1.62-.62-1.27-.93-2.62-.74-4.02.11-.86.15-1.71.11-2.57-.05-1.12-.58-1.95-1.44-2.63-.57-.46-1.22-.68-1.92-.61-.67.07-1.36.25-2,.48-.7.24-1.36.22-2-.07-2.37-1.08-4.65-2.32-6.77-3.8-1.47-1.03-3.08-1.52-4.82-1.69-.5-.51-1.09-.86-1.79-.94-1.72-.21-3.38-.66-5-1.27-.92-.35-1.65-.1-2.32.56-.38.37-.86.56-1.4.55-1.05-.02-2.06.1-2.88.87-.64-.21-1.29-.25-1.94-.05-.57-.6-1.32-.74-2.11-.77l-.08-.05c-.6-.81-1.5-1.25-2.32-1.77-1-.65-2.32-.23-2.92.85-.16.29-.26.6-.39.9-1.04.5-1.56.75-1.98.89-.42.13-.74.14-1.38.17-.68.03-1.37.06-2.05.07-.69.01-1.38-.03-2.01-.32-1.1-.51-2.26-.73-3.47-.78-.51-.03-1.02-.09-1.52-.21-.86-.2-1.57-.65-1.96-1.48-.14-.31-.24-.64-.36-.96-.31-.79-.59-1.6-.95-2.37-.22-.46-.56-.87-1.1-.99-1.67-.35-3.34-.71-5.02-1.02-1.88-.35-3.44-1.48-5.23-2.06-.33-.1-.67-.16-.97-.31-1.58-.76-3.23-1.14-4.97-.98-1.08.09-1.98-.43-2.96-.7-.84-.62-1.87-.81-2.81-1.21-.64-.27-1.33-.37-2.02-.32-1.37.08-2.74.14-4.07-.31-1.51-.52-3.08-.06-4.6-.26-.17-.02-.34-.06-.51-.09-2.03-.37-3.93-1.18-5.86-1.88-1.05-.39-1.53-1.41-1.24-2.47.09-.33.23-.65.3-.98.2-.86.23-1.71-.3-2.47-.67-.99-1.15-2.11-2.05-2.94-.9-.81-1.58-1.8-2.2-2.83-.53-.88-1.11-1.73-1.73-2.55-.31-.42-.81-.6-1.33-.67-1.08-.14-2.04.09-2.79.93-1.17,1.31-2.62,2.2-4.24,2.83-.3.11-.68.17-1,.11-.67-.13-1.31-.39-1.98-.54-1-.23-2.02-.41-3.05-.15-1.34-.32-2.66-.72-4.02-.93-1.22-.2-2.31-.66-3.36-1.25-.3-.16-.6-.35-.89-.52-.96-.55-2.01-.53-3.01-.27-1.34.33-2.64.78-3.95,1.19-.69.22-1.35.23-2.02-.05-.8-.34-1.63-.59-2.49-.58-1.38.01-2.76.06-4.13.16-.86.06-1.67.36-2.45.77-1.22.64-2.35,1.42-3.41,2.3-.37.31-.6.99-.41,1.38.23.46.48.91.69,1.38.31.7.1,1.33-.41,1.86-.23.24-.52.5-.83.57-1.01.2-2.04.29-3.05.48-1.22.22-2.39-.36-3.59-.18-2.08-.58-4.11-.32-6.12.32-.22-.01-.45-.04-.67-.04-.12,0-.24.01-.35.04-1.39.33-2.71.26-4.06-.26-.62-.25-1.34-.32-2.02-.35-1.05-.05-2.06-.16-3.03-.59-.63-.27-1.31-.42-1.96-.64-1.85-.6-3.69-.62-5.62-.28-3.56.64-7.11,1.35-10.74,1.53-.69.03-1.37.16-1.98.53-2.65,1.63-5.34,3.17-8.42,3.86-.16.04-.31.16-.44.27-.96.81-2.12,1.19-3.31,1.34-1.28.17-2.16.89-3.13,1.62-1.09.82-2.26,1.5-3.18,2.57-.9,1.04-2.06,1.81-3.32,2.43-1.38.7-2.74,1.46-4.09,2.22-1.2.67-2.37,1.39-3.27,2.49-.69.83-.78,1.9-1.24,2.82-.07.15-.16.31-.22.47-.28.67-.25,1.33.17,1.95.75,1.13.57,2.29.08,3.45-.66,1.52-1,1.92-2.31,2.66-1.66.92-3.31,1.85-4.99,2.72-.44.23-.99.31-1.49.3-.69-.01-1.37-.19-2.05-.28-1.04-.13-2.04-.05-3.02.42-2.03.96-4.11,1.79-6.11,2.79-1.44.73-2.91,1.06-4.49.96-1.07-.06-2.05.13-2.96.71-.29.18-.62.31-.93.46-.63.32-1.3.47-2,.43-1.2-.09-2.4-.21-3.61-.33-2.74-.27-5.5-.46-8.26-.43-.38,0-.95.6-.97.98-.08,1.57.07,3.1.82,4.52.97,1.84,1.48,3.86,2.03,5.84.32,1.19.84,2.26,1.47,3.29.33.53.16,1,.01,1.47-.17.52-.12,1,.04,1.5.01.17.02.34.02.51.01.54-.18.99-.66,1.25-2.43,1.3-2.43,1.32-4.81,1.52-3.06.27-6.13.6-9.21.66-2.56.05-5.13.12-7.69.21-.97.04.47.62,1.66,1.12-.39-.11-.79-.17-1.21-.16-2.7.06-5.38.19-8.02.84-.97.24-1.99.33-2.99.42-.49.04-1-.09-1.5-.14l-.18.02c-.43.26-.83.65-1.3.74-2.48.49-4.97.92-7.46,1.33-.48.07-1-.07-1.5-.1l-.17.03c-.27.21-.51.51-.81.6-3.61,1.07-7.25,1.98-10.94,2.67-.49.09-1.01-.05-1.52-.09-1.57,0-3.05.61-4.59.82-4.97.68-9.91,1.51-14.86,2.32-3.41.56-6.79,1.25-10.14,2.15-6.2,1.66-4.77,2.15-11.12,2.3-.85.02-1.71.26-2.56.38-.69.09-1.38.11-2.06-.05-1.52-.35-3.06-.61-4.55-1.04-2.67-.78-5.41-1.21-8.15-1.52-2.77-.3-5.44-.98-8.17-1.45-4.99-1.46-10.15-2.08-15.28-2.83-3.48-.5-6.74-1.53-9.74-3.31-3.28-1.95-6.66-3.65-10.19-5.1-.95-.39-1.89-.84-2.79-1.35-.75-.43-1.38-1.06-2.13-1.47s-1.6-.63-2.37-1.01c-1.55-.75-3.02-1.71-4.63-2.3-1.72-.63-2.75-2.06-4.16-3.03-.57-.39-1.15-.77-1.73-1.14-.72-.47-1.47-.91-2.17-1.42-1-.71-1.82-1.59-2.44-2.66-.86-1.49-1.53-3.09-2.5-4.53-.28-.42-.39-.95-.54-1.45-.25-.82-.48-1.65-.69-2.48-.15-.57-.6-.85-1.05-1.08-.61-.32-1.24-.64-1.9-.79-1.86-.42-3.72-.82-5.6-1.1-1.92-.29-3.67-.93-5.27-2.01-.45-.31-.98-.33-1.49-.26-.69.1-1.37.22-2.04.38-1.19.29-2.37.37-3.6.17-1.19-.2-2.41-.25-3.61-.38-1.72-.17-3.44-.34-5.16-.52s-3.44-.44-5.16-.55c-2.97-.19-5.81-.84-8.53-2.01-1.43-.61-2.85-1.25-4.31-1.78-1.63-.6-3.16-1.4-4.63-2.3-2.85-1.74-5.25-3.94-7.06-6.75-.57-.88-1.1-1.82-1.07-2.88.03-1.3-.48-2.34-1.25-3.3-.69-.85-1.02-1.83-.92-2.89.13-1.41.05-2.75-.62-4.03-.16-.3-.2-.66-.33-.98-.64-1.62-1.02-3.29-1.1-5.04-.06-1.38-.36-2.71-.79-4.05-.75-2.29-.67-2.67-.43-6.59.05-.86-.05-1.73-.11-2.59-.05-.67-.67-1.35-1.29-1.42-.86-.1-1.72-.22-2.58-.24-.68-.01-1.38.09-1.99.45-1.05.62-2.09,1.22-3.14,1.83-1.13-.03-2.26-.05-3.39-.12-.65-.04-1.26-.26-1.77-.7-.49-.42-.99-.84-1.48-1.27.02-.47-.2-.71-.68-.72l-.25-.27c-.01-.51-.27-.77-.78-.79l-.25-.25c-.01-.51-.27-.77-.79-.77l-.26-.26c0-.52-.26-.78-.78-.78l-.23-.22c-.7-1.5-2.05-2.56-2.79-4.04-.24-.48-.82-.59-1.31-.51-1.62.29-3.24.72-4.9.28l-.04-.03c-.1-.59-.41-.94-1.04-.92l-.09-.07c-.21-.48-.56-.86-.99-1.15-.47-.3-.69-.74-.82-1.24-.09-.34-.12-.68-.19-1.02-.15-.71-.56-1.24-1.2-1.58-.3-.16-.62-.29-.94-.42-1.12-.45-2.22-.94-3.36-1.33-1.29-.45-2.39-1.37-3.78-1.59-.01,0-.05-.03-.05-.03-.13-.57-.5-.84-1.07-.86l-.11-.08c-.77-1.27-1.06-2.64-.77-4.11.44-.22.91-.41,1.33-.66.71-.43,1.35-.99,2.09-1.34.74-.35,1.57-.49,2.35-.75.15-.05.26-.2.39-.31.7.18,1.37.08,2.02-.19,1.25.27,2.48.13,3.69-.19.26-.07.45-.4.67-.61.36.06.64-.07.83-.38q.78-.07.95-.85c.51-.32.79-.79.79-1.29,0-.15-.02-.3-.07-.45-.37-1.14-.88-2.23-1.8-3.06-.26-.23-.56-.33-.94-.28-.43-.27-.83-.65-1.31-.8-1.88-.61-3.26-1.9-4.59-3.25-.36-.36-.61-.85-.83-1.31-.4-.82-.4-1.66.04-2.48.33-.61.73-1.17,1.3-1.58.7-.51,1.43-.98,2.31-1.12,2.24-.35,4.34-1.12,6.36-2.11.66-.32.76-.98.31-1.68-.57-.88-1.25-1.69-2.11-2.26-2.62-1.72-4.82-3.92-7.1-6.03-1.15-1.05-2.26-2.14-3.44-3.15-1.3-1.13-2.65-2.23-4.24-2.95-.29-.13-.76-.2-.99-.05-.92.58-1.9.77-2.96.73-.35-.01-.69-.01-1.04-.01h-.52c-1.26-.05-2.41.34-3.37,1.13-1.88,1.56-3.98,2.71-6.26,3.57-1.8.67-3.46,1.56-4.94,2.78-.53.45-1.15.74-1.85.87-.51.09-1,.25-1.51.37-3.1.71-5.86,1.97-8.01,4.43-1.4,1.6-3.3,2.47-5.28,3.14-.49.16-1.02.22-1.51.39-4.76,1.65-4.78,1.4-7.69,6.26-.18.3-.36.6-.59.85s-.5.48-.78.67c-.29.18-.63.28-.93.45-1.4.84-2.82,1.09-4.45.56-1.03-.33-2.05.17-2.84.91-.63.59-1.11,1.32-1.73,1.92-.62.58-1.36,1.04-1.99,1.62-.23.21-.3.6-.45.91-.95.7-1.8,1.54-2.93,1.97-.31.13-.64.22-.95.37-1.61.76-2.79,1.91-3.26,3.69-.61.23-.99.67-1.17,1.3-.3-.04-.51.08-.63.36-.17.04-.35.05-.5.12-1.45.7-2.91.86-4.45.23-1.27-.51-2.59-.9-3.89-1.32-.32-.11-.67-.19-1-.18-1.89.08-3.77.24-5.53,1.02-.62.27-1.21.62-1.82.93-1.73.9-3.59,1.14-5.49.93-.85-.09-1.68-.33-2.5-.57-1.31-.38-2.61-.81-3.92-1.22-2.4-.16-4.72-.85-7.1-1.13-1.37-.16-2.69-.44-4-.89-.47-.16-1.01-.14-1.52-.2-.48-.16-.96-.44-1.44-.46-1.88-.05-3.75-.3-5.62-.44-2.08-.16-4.03-.74-5.95-1.42-.82-.29-1.47-.87-1.55-1.84-.1-1.19-.83-1.81-1.9-2.14-.1-.32-.18-.67-.33-.97-.16-.3-.36-.6-.6-.83-.51-.48-.83-1.06-1.19-1.65-.81-1.34-1.82-2.52-3.57-2.59-1.92-.07-3.67-.9-5.54-1.2-.52-.08-.88-.5-1.01-1.04-.09-.34-.12-.69-.26-1-1.15-2.77-2.92-5.05-5.48-6.66-.72-.45-1.54-.76-2.27-1.22-.42-.26-.83-.63-1.11-1.04-.79-1.13-1.56-2.26-1.89-3.64-.2-.83-.49-1.65-.79-2.45-.5-1.36-1.34-2.41-2.85-2.71-.73-.15-1.24-.56-1.59-1.19-.58-1.07-1.29-2.01-2.21-2.82-1.16-1.03-2.21-2.17-3.35-3.22-.37-.34-.82-.69-1.29-.81-1.04-.25-1.82-.95-2.75-1.4-.48-.24-.84-.6-1.08-1.06-.66-1.22-2-1.92-2.5-3.26-1.43-.96-2.43-2.44-4-3.21-.93-.45-1.84-.94-2.76-1.41-1.77-.14-3.11-1.41-4.81-1.8-1.38-.32-2.69-.61-4.06-.19-1.67.5-3.36.68-5.1.61-.68-.02-1.37.11-2.05.17-.86-.04-1.72-.09-2.58-.1-1.04-.02-2.06.11-3.09.21-1.19.13-2.41-.16-3.61.06-.33-.1-.65-.2-.97-.29-.41-.63-1.11-.75-1.71-1.06-1.7-.88-3.42-1.64-5.38-1.67-.33,0-.67-.16-.99-.27-.33-.12-.66-.24-.95-.42-.93-.56-1.66-1.25-1.34-2.49.47-.1.95-.17,1.42-.31.64-.19.85-1.01.37-1.54-.2-.22-.51-.34-.77-.5l-.03-.02c-.03-.62-.09-1.24-.07-1.86.03-.72-.26-1.16-.95-1.35-.99-.89-1.69-2.03-2.52-3.05-.44-.54-.55-1.19-.63-1.85,1.7-1.36,1.32-3.23-.36-4.24-.29-.17-.56-.39-.82-.61-.47-.4-.52-1.01-.14-1.31.27-.21.51-.47.81-.63.45-.25.94-.44,1.42-.63.5-.19.92-.48,1.25-.88,2.38-2.85,3.75-4.73,4.86-6.67.16-.29.27-.65.29-.98.09-1.38.12-2.75-.56-4.04-.56-1.07-1.03-2.18-1.89-3.07-.48-.52-.66-1.2-.75-1.9-.09-.68-.14-1.37-.28-2.05-.13-.7-.56-1.25-1.13-1.67-1.26-.93-2.61-1.69-4.12-2.13-1.33-.38-2.65-.78-3.97-1.2-.52-.16-.85-.61-1-1.1-.45-1.47-.54-2.71-.41-4.56.05-.77-.34-1.37-.89-1.77-.54-.41-1.2-.67-1.84-.92-1.14-.45-2.3-.7-3.54-.38-1,.25-2.04.4-3.06.54-.73.1-1.34-.17-1.8-.78-.52-.68-1.04-1.38-1.59-2.03-.22-.26-.55-.41-.82-.62-.61-.47-.63-.62-.1-.97.15-.1.31-.17.46-.24.35-.14.61-.4.6-.78,0-.38-.27-.62-.62-.7-1.34-.33-2.68-.64-3.73-1.67-.35-.34-.88-.54-1.36-.71-.81-.28-1.67-.45-2.47-.76-.47-.18-.92-.49-1.28-.83-.5-.48-.91-1.04-1.35-1.58-.77-.95-1.66-1.74-2.74-2.33-.6-.33-1.15-.76-1.72-1.14-.33-.22-.65-.18-.98.04-.14.09-.32.12-.48.18-.71.28-1.35.14-1.92-.32-.46-.37-.55-1.19-.21-1.9.29-.62.72-1.17.72-1.9,0-.43-.13-.63-.51-.79-.85-.34-1.7.03-2.55-.09-1.03-.13-2.06-.27-3.09-.32-1.39-.06-2.77.17-4.1.52-.86.22-1.62.75-1.9,1.62-.37,1.2-.97,2.2-1.94,2.98-.56.44-.91,1.03-1.22,1.65-.26.51-.74.73-1.24.81-1.04.18-2.08.11-3.03-.37s-1.92-.76-2.98-.76c-.87,0-1.74-.08-2.54-.45-.79-.36-1.62-.58-2.49-.68-1.2-.13-2.4-.27-3.56-.65-.66-.21-1.35-.28-2.04-.27-1.04.01-2.1-.12-3.11.05-1.74.3-3.43-.01-5.15-.1l-.09-.06c-.05-.34-.21-.57-.52-.65-.64-.16-1.15,0-1.47.62-.82.14-1.5.57-2.08,1.15-.69.68-1.37,1.37-2.05,2.05-1.05.11-2.1.17-3.15-.01-.12-.13-.22-.27-.34-.39-.91-.89-2.27-.77-3.28-1.44-.28-.19-.63-.31-.96-.36-.32-.06-.67,0-1.01.03-1.23.1-2.41-.02-3.46-.76-2.43-.9-2.41-1.32-4.54.67-.62.57-1.42.95-2.1,1.47-.26.19-.4.54-.59.82-.73.48-1.23,1.2-1.8,1.85-.58.66-1.26,1.1-2.17,1.26-2.4.43-4.64,1.28-6.66,2.68-.71.49-1.43,1.06-2.23,1.3-1.87.55-3.44,1.6-4.96,2.73-1.27.94-2.69,1.53-4.2,1.95-.66.18-1.33.34-1.98.55-1.5.48-2.99.73-4.57.43-.49-.1-1.08-.08-1.54.1-1.44.58-2.89,1.17-4.03,2.29-.5.48-.96,1-1.47,1.46-.39.33-.81.7-1.27.86-2.78.94-5.58,1.83-8.37,2.74-.35.11-.65.04-1-.1-.65-.28-1.34-.37-2.03-.19-1.51.39-3.05.56-4.6.75-.49.06-1,.28-1.42.55-.58.38-1.08.87-1.62,1.3-1.37,1.08-2.88,1.89-4.48,2.58-2.13.93-4.36,1.04-6.61.61-.48-.09-.98-.39-1.34-.74-.93-.92-2.06-1.22-3.3-1.24-.69-.01-1.38-.04-2.07-.01-1.04.03-2.07.13-3.11.16-1.05.02-2.07-.08-2.9-.85-.25-.23-.59-.37-.89-.54-1.44-.79-4.26-1.32-6.01-.99-1.41.28-2.7.15-4.05-.36-1.3-.48-2.61-.86-3.65-1.85-.49-.48-1.07-.87-1.64-1.27-.85-.62-1.81-1.02-2.83-1.23-.84-.18-1.71-.29-2.51.2-1.79,1.09-3.77,1.71-5.78,2.23-.67.18-1.36.16-2.02-.16-.31-.15-.64-.27-.95-.42-1.31-.63-2.64-.81-3.96-.06-1.07.61-2.22.88-3.43,1.11-1.55.28-3.08.23-4.64.11-1.38-.11-2.72-.03-3.99.73-1.05.62-2.3.75-3.49.95-.86.14-1.66.43-2.39.92-.72.48-1.46.95-2.24,1.31-.96.45-1.99.58-3.02.17-.32-.12-.64-.26-.94-.43-.5-.27-1.01-.18-1.48.03-.47.2-.94.45-1.35.76-1.74,1.31-3.71,1.71-5.85,1.64-1.73-.06-3.46.01-5.18.05-.89.02-1.72-.14-2.48-.61-1.07-.66-2.22-.87-3.48-.69-1.38.2-2.71.04-4.08-.38-3.31-1.01-6.73-1.51-10.2-1.65-.87-.03-1.73-.11-2.59-.14-.38-.02-.66-.15-.91-.42-.72-.79-1.63-1.18-2.67-1.46-1.43-.39-2.33-1.39-2.45-2.96-.09-1.23-.37-1.53-1.51-1.57-.86-.03-1.71.02-2.55-.29-.93-.34-1.65.06-2.24.8-.63.82-1.28,1.63-1.94,2.43-.81.99-1.9,1.45-3.16,1.57-.71.06-1.39-.07-1.97-.47-.71-.5-1.3-1.17-2.03-1.59-1.05-.59-2.22-.96-3.23-1.65-.58-.4-1.31-.37-2-.45-1.04-.13-2.09-.34-2.91-.99-.72-.57-1.45-.86-2.35-.87-1.38-.01-2.76-.06-4.15-.07-1.94-.01-3.74-.62-5.47-1.42-.43-.2-.75-.7-1.02-1.13-.17-.27-.15-.66-.2-1-.08-.51-.11-1.04-.23-1.54-.12-.51-.43-.99-.89-1.22-1.55-.76-3.14-1.42-4.68-2.2-1.09-.55-2.25-.86-3.4-1.22-1.51-.48-3.05-.64-4.6-.76-1.38-.11-2.73-.26-4.05-.76-.64-.25-1.4-.04-1.9.51-.92,1.03-1.82,2.08-2.68,3.16-1.13,1.44-2.67,2.14-4.41,2.48-.5.1-1.02.15-1.54.18-2.25.15-4-.77-5.34-2.54-.1-.14-.19-.29-.28-.44-.28-.46-.72-.73-1.21-.91-.65-.23-1.34-.36-1.98-.62-.47-.19-.95-.44-1.32-.78-1.76-1.65-3.49-3.34-5.21-5.04-.51-.5-.72-1.16-.68-1.89.01-.17-.03-.36.02-.51.51-1.56.18-3.09-.18-4.61-.11-.49-.34-.97-.63-1.39-1.2-1.74-2.71-3.12-4.76-3.82-.33-.11-.63-.3-.93-.47-1.1-.62-2.22-.92-3.41-.22-5.88,2.06-5.89,2.01-12.4,3.7-2.39.62-4.78.72-7.2.53-.85-.07-1.69-.34-2.5-.62-.65-.22-1.28-.55-1.85-.93-.88-.58-1.87-.9-2.87-1.17-.83-.22-1.69-.34-2.54-.5-1.03-.21-1.96-.62-2.8-1.27-.68-.54-1.4-1.02-2.1-1.51-.58-.41-1.02-.93-1.3-1.58-.28-.64-.66-1.19-1.23-1.63-.68-.53-1.39-1.06-1.94-1.71-.66-.79-1.19-1.69-1.75-2.56-.4-.62-.36-1.34-.17-2,.23-.82.63-1.6.89-2.42.09-.32-.09-.7-.4-.86-.61-.31-1.26-.55-1.91-.79-.53-.19-.83-.58-1.05-1.06-.65-1.47-1.93-1.88-3.38-1.91-.52,0-1.12.16-1.35.63-1.41,2.77-3.82,4.39-6.44,5.78-.45.24-.96.44-1.46.49-3.09.31-6.18.75-9.31.47-.16-.06-.32-.14-.49-.17-1.52-.2-3.1-.16-4.5-.99-.26-.16-.68-.15-1.01-.11-1.19.15-2.38.35-3.56.6-2.53.54-5.1.79-7.69.33-1.53-.28-3.11-.25-4.56-.87-2.9-.56-5.83-.67-8.77-.44-1.55.12-3.1.18-4.65.19-6.23.04-12.42-.5-18.56-1.45-2.4-.37-4.8-.53-7.21-.67-.68-.05-1.44-.04-2.04.22-2.06.9-4.25,1.42-6.33,2.25-.97.39-1.94.65-2.96.84-2.54.47-5.04,1.13-7.28,2.52-.43.27-.94.41-1.41.62-1.6.71-3.32.97-5.03,1.09-2.25.16-4.42.71-6.65.98-1.47.59-3,.73-4.57.7-.7-.01-1.37.16-2,.47-.62.31-1.27.5-1.96.59-.51.07-1.09.14-1.47.43-1.26.93-2.89,1.16-4.07,2.23-.55.51-1.27.41-1.95.47-.88.08-1.69.33-2.2,1.13l-.09.04c-.34.55-.78.96-1.46,1.01-.77.05-1.54.08-2.32.12l-.32.16c-.17.61-.43.81-.91.81-1.18,1-2.5,1.82-3.6,2.93-.47.47-1.14.82-1.78,1.01-.98.3-2.03.39-3.03.62-1.2.29-2.07,1.25-3.2,1.66-1.13.42-2.3.7-3.46,1.04-1.66.48-3.29,1.07-4.72,2.05-1.87,1.27-3.94,2.16-5.94,3.15-2.46,1.21-5.03,2.25-7.74,2.83-.51.11-1.02.19-1.52.34-.49.14-1.02.27-1.43.55-1.17.8-2.5,1.15-3.8,1.61-.33.12-.65.47-.56.76.41,1.2.11,2.4.04,3.58-.03.49-.23,1.05-.55,1.42-.89,1.04-1.87,2.01-2.85,2.98-.24.23-.58.37-.89.51-.94.43-1.89.83-2.93.99-2.56.39-5.15.65-7.7,1.05-4.13.65-8.24.76-12.38.22-.85-.11-1.72-.15-2.58-.19-1.22-.05-2.36-.32-3.5-.8-1.9-.8-3.83-1.49-5.96-1.55-1.55-.05-3.07-.47-4.61-.67-2.59-.32-5.09-.91-7.47-1.98-1.12-.5-2.32-.68-3.51-.85-.31-.05-.68.08-.98.22-.61.31-1.28.58-1.77,1.04-1.36,1.24-2.96,1.6-4.74,1.72-2.24.16-4.48.38-6.72.26-2.41-.13-4.81-.38-7.24-.32-.67.02-1.36-.17-2.04-.28-.85-.13-1.7-.39-2.55-.41-1.9-.03-3.76-.46-5.64-.64-.51-.04-1.03-.18-1.53-.13-1.4.15-2.74-.06-4.09-.44-1.65-.47-3.4-.56-5.04-1.16-.63-.23-1.36-.28-2.04-.28-1.75,0-3.43-.28-5.09-.8-.49-.15-1.04-.18-1.54-.13-1.02.11-2.04.28-3.06.48-.67.13-1.32.34-1.99.51-.5,1.08-1.53,1.66-2.36,2.42-.25.22-.26.54-.09.88.54,1.11,1.12,1.44.23,2.04-.25.17-.74,1.32-1,1.47.14,1.03-1.03,1.25-1.92,1.9-.53.39-.82,1.01-1.08,1.62.18.29.29.65.54.84.54.41,1.11.86,1.74,1.07,1.01.33,1.87.83,2.58,1.61.23.25.49.47.76.69.53.44,1.1.82,1.77,1.03,1.14.37,2.24.83,3.42,1.11,1,.24,1.86.79,2.09,1.99.1.5.55.83,1.12.87.17.01.34.03.51.04.75.01,1.29.4,1.66,1.01.26.44.42.96.74,1.34.19.22.63.39.92.36,1.35-.18,2.7-.43,4.04-.67.85-.15,1.69-.23,2.55,0,1.01.28,2.05.07,3.07.07,1.65-.75,3.38-.37,5.08-.32,1.55.05,3.03.41,4.35,1.34.42.3.99.11,1.5.02.67.15,1.35.19,2.03.09.83-.13,1.66-.32,2.5-.44.33-.05.68,0,1.01.07.3.07.54.33.65.69.08.25-.09.53-.47.69-.3.12-.66.22-.96.16-2.72-.47-5.4-.56-8.05.36-.48.16-.99.23-1.5.3-2.01.3-4.03.6-6.05.84-.49.06-1.01-.07-1.52-.12-.39-.55-.79-1.1-1.42-1.44-.33-.19-.62-.23-.99-.14-.69.18-1.21.63-1.76,1.03-.91.66-1.86.79-2.9.36-.51-.22-1.08-.13-1.48.15-1.77,1.24-3.78,1.6-5.86,1.68-1.21.05-2.41.06-3.61.1-.52.02-1.07-.01-1.53.17-1.66.66-3.37.52-5.08.48-.86-.02-1.72.09-2.57.21-.32.04-.61.29-.92.44-.7.15-1.1.78-1.67,1.1-1.19.65-2.38,1.32-3.74,1.57-1.01.19-1.96.55-2.88,1-.49.24-.74.64-.91,1.14-.15.43-.08.69.36.81,1.63.43,3.3.78,4.63,1.94,1.61.56,3.2,1.13,4.96.67.82-.21,1.65-.41,2.49-.48,1.2-.1,2.37.04,3.42.74.41.27.94.35,1.41.53.08.29.14.59.2.89-.76.22-1.51.47-2.28.67-.73.2-.97.72-.98,1.41-.29.37-.59.74-.89,1.11-2.4.06-4.79.26-7.19.21-.86-.56-1.69-1.07-2.79-1.18-4.21-.43-4.22-.52-8.09.6-1.37.39-2.69.42-4.05.2-.67-.11-1.33-.31-1.98-.52-.65-.22-1.31-.38-2-.4-.48-.16-.95-.45-1.43-.48-1.53-.07-3.09.13-4.59-.09-1.88-.26-3.74-.12-5.61-.22-2.23-.13-4.42.03-6.62.34-2.52.37-5.07.66-7.54,1.31-1.36.35-2.69.32-4.05.07h-.07c-.02-.17-.06-.35-.05-.51.03-.48-.19-1.03.48-1.3,1.26-.53,2.52-1.06,3.75-1.65.44-.22.83-.58,1.03-1.09.19-.47-.06-1.19-.44-1.31-1.31-.41-2.72-.29-4-.85-.61-.27-1.33-.31-2.01-.41-2.21-.31-4.46.07-6.66-.39-.32-.06-.68,0-1.02.03-.51.05-1.02.09-1.5.33-.46.23-.87.76-.82,1.19.04.32.16.62.44.86.14.1.27.21.42.29,1.04.6,2.09,1.16,2.77,2.2.19.28.53.44.77.68.64.66,1.4.88,2.31.82.32-.03.66.15.98.25.43.14.53.79.2,1.21-.21.27-.42.54-.64.81l-.27.11c-.62-.1-1,.18-1.18.76-.37.06-.69.23-.92.54-1.65.6-3.34-.04-5,.18-.72.1-1.29-.31-1.94-.48-1.58-.41-3-.15-4.24.94l-.25.05c-1.71-.14-3.4-.41-5.03-.97-.31-.1-.68-.03-1.02-.04-1.43-.99-3.18-1.32-4.65-2.23-.46-.28-.75-.67-1.02-1.11-.21-.34-.12-.56.07-.93.24-.44.23-.97-.08-1.45-.38-.61-.94-.99-1.57-1.26-.15-.07-.36-.06-.51-.01-.97.33-1.96.63-2.9,1.04-.87.38-1.61.15-2.46-.1-1.58-.47-3.07-.14-4.38.89-.41.31-.81.65-1.17,1.01-.66.66-1.48.85-2.35.92-1.37.11-2.75.26-4.03-.48-.28-.16-.68-.22-1.01-.19-1.89.2-3.78.11-5.66-.14-.89-.12-1.71.15-2.45.62-.58.37-1.17.74-1.69,1.18-1.31,1.12-2.58,2.28-3.88,3.41-.25.22-.54.5-.85.55-1.52.24-2.34,1.31-3.19,2.42-.3.39-.75.7-1.19.95-1.21.7-2.5,1.11-3.94,1.08-1.14-.02-1.32.87-1.43,1.75-.54.09-1.08.17-1.63.25-.06-.33-.12-.67-.19-1.01-.11-.51.1-1.1.47-1.31.3-.16.58-.38.9-.48,1.85-.56,3.48-1.47,4.83-2.87.61-.64,1.35-1.09,2.18-1.32,1.03-.29,1.87-.88,2.72-1.46.87-.58,1.54-1.32,1.8-2.42.16-.7.74-1.21,1.43-1.36.95-.2,1.47-.73,1.78-1.61.11-.29.43-.52.68-.75.91-.85,2.04-1.31,3.2-1.64,1.83-.51,3.6-1.13,5.32-1.93,1.24-.58,2.59-.97,3.93-1.26,1.07-.22,1.91-.71,2.7-1.41.52-.46,1.12-.79,1.82-.91.68-.12,1.36-.22,2.04-.34,1.88-.34,3.66-.89,5.28-1.97.86-.56,1.82-.97,2.74-1.43,1.58-.79,2.96-1.76,3.65-3.49.18-.46.56-.88.93-1.22.76-.69,1.59-1.32,2.38-1.97,2.01-.75,2.83-2.35,3.28-4.31.18-.82.71-1.56,1.11-2.32.16-.3.39-.57.65-.8.25-.22.54-.48.85-.53,1.36-.23,2.76-.27,4.09-.61,1.51-.39,3.06-.51,4.56-.85,1.92-.43,3.73-.4,5.59.19.84.26,1.59.63,2.32,1.09,1.43.9,2.99.52,4.51.36.3-.03.62-.32.84-.57.33-.38.57-.84.87-1.25.52-.7,1.17-1.29,2.02-1.54,1.64-.49,3.24-1.17,4.99-1.25.86-.04,1.71-.27,2.57-.3,1.19-.03,2.35-.15,3.57.16,1.82.48,3.76.38,5.63.76,2.04.41,4.03.9,5.82,1.99.15.09.3.17.45.26,1.16.65,2.23.7,3.28-.28.39-.37,1.13-.15,1.29.28.18.48.34.97.5,1.46.12.35.37.53.75.62.86.2,1.77.31,2.56.04,1.34-.44,2.72-.43,4.07-.69.69-.13,1.37.05,1.97.42.97.6,1.9.54,2.94.09.93-.41,2-.49,2.95-.87.96-.38,1.92-.77,2.92-1.03-.29-1.35-.29-1.4.96-1.82,1.01-.33.78-.33,1.45-1.16.18-.22.28-.09,1.3-1.53-.09-.96.39-1.38-.04-2.27-.23-.49-.17-1.01.21-1.31.88-.72,1.52-1.73,2.65-2.13.02-.01.03-.01.05-.02.14-.1.06-.66-.18-1.07-.81,0-1.49-.35-2.08-.88-1.9.25-3.77.22-5.58-.52-.63-.25-1.32-.46-1.99-.51-2.11-.15-4.02-.89-5.86-1.85-.62-.32-1.25-.56-1.93-.7-1.01-.22-1.99-.54-3-.75-2.04-.42-3.98-1.1-5.86-1.96-.94-.43-1.94-.71-2.9-1.09-3.35-1.34-6.69-2.72-10.05-4.04-1.45-.57-2.83-1.29-4.04-2.25-1.89-1.48-3.68-3.09-5.48-4.68-.37-.33-.62-.78-.61-1.36.02-.69-.13-1.35-.7-1.85-.39-.34-.75-.71-1.1-1.09-.23-.26-.51-.53-.59-.84-.27-1.07-1.1-1.7-1.73-2.51-.52-.67-.95-1.43-1.31-2.2-.31-.64-.27-1.38.09-1.99.36-.59.87-1.06,1.67-.97.17.01.35-.02.52-.05.62-.1.86-.41.8-1.04-.07-.68-.13-1.37-.26-2.04-.09-.54-.46-.9-.97-1.1-1.16-.47-2.35-.43-3.56-.23-1.04.16-2.04.02-2.95-.59-.27-.18-.65-.22-.99-.28-.99-.18-1.81.33-2.33,1.44-.19.41-.9.82-1.22.7-.33-.12-.65-.23-.96-.38-1.64-.81-3.29-.85-5-.19-.96.37-1.99.54-2.94.94-.94.39-1.81.96-2.73,1.41-.3.14-.67.14-1.01.2-.22-.88-.67-1.58-1.57-1.89-.17-.05-.33-.09-.5-.14-2.41-.65-4.37-1.94-5.79-4.01-.3-.43-.62-.81-1.1-1.07-.91-.49-1.76-1.09-2.7-1.53-1.64-.77-3.29-1.01-4.75.46-.12.12-.27.2-.4.32-.43.37-.95.35-1.46.33-1.23-.05-2.32-.67-3.5-.89-.86-.16-1.72-.21-2.55.12-.51.2-.8.6-.79,1.17-.89.81-2.04,1.3-2.75,2.32-.18.26-.55.48-.86.53-1.86.32-3.76.41-5.53,1.23-.63.3-1.36-.03-2.04-.11-.51-.06-1.02-.09-1.5.19-.77.44-1.57.61-2.48.46-1.19-.2-2.41-.27-3.61-.36-.34-.02-.73-.01-1.02.14-.91.48-1.87.91-2.44,1.84-.19.3-.2.6-.1.97.23.89-.03,1.71-.5,2.46-.18.29-.4.56-.61.83-.45.57-1.02.92-1.76.94-2.07.05-4.14.09-6.21.14-.58.01-.96.4-1.28.79-.43.53-.79,1.13-1.13,1.72-.48.84-.33,1.8.3,2.34,1.33,1.15,2.73,2.12,4.59,2.15.34.01.68.13,1,.23.67.2,1.3.45,1.73,1.04.87,1.17,2.05,1.78,3.46,2.09,1.07.23,1.33.65,1.41,1.8.29,4.13.35,4.42,1.55,8.05.27.84.32,1.68.08,2.54-.24.81-1.61,1.72-2.44,1.54-.17-.03-.32-.13-.47-.2-1.22-.54-2.38-.48-3.36.46-1.27,1.2-2.73,2.09-4.24,2.93-.63.35-1.3.44-2,.41-.35-.01-.69-.01-1.04-.05-.76-.08-1.26.13-1.29,1.14-.02.71-.12,1.37-.39,2.02-.21.51-.1,1.01.1,1.49.21.48.46.97.21,1.46-.33.68.09,1.4-.15,2.01-.22.56-.12,1,.15,1.42.47.72,1.01,1.38,1.52,2.07.25.34.08.55-.18.88-.56.72-.56.76-.44,1.93.04.43,0,.67-.41.81-.99.33-1.96.69-2.21,1.88-.31.12-.61.32-.93.35-1.33.13-2.25.83-2.73,2.03-.26.67-.51,1.31-1.17,1.63-1.43.71-2.61,1.64-3.17,3.21-.19.52-.7.76-1.17.97-.47.21-.97.36-1.45.54-.53.2-.93.72-.85,1.11.22,1.18.43,2.37.7,3.55.07.3.34.6.58.82.52.47,1.09.86,1.81.95.68.09,1.38.25,2.05.2,1.73-.12,3.46-.38,5.17-.09,1.94.33,3.78-.34,5.67-.39.51-.01,1.03.09,1.55.07.52-.01.99-.2,1.46-.43.46-.22.99-.29,1.51-.08.32.13.64.24.96.37,1,.43,1.99.5,2.98-.07.59-.35,1.21-.67,1.81-1.01.62-.34,1.27-.52,1.98-.55,2.4-.09,4.83.01,7.16-.83.67-.24,1.35.09,1.88.6.51.49.86,1.09.98,1.78.1.51-.03.98-.45,1.38-.91.87-2,1.37-3.24,1.4-.75.01-1.43.23-1.86.75-.74.9-1.65,1.22-2.73,1.15-1.42-.08-2.73.32-4.01.88-.95.41-1.87.89-2.8,1.33-.63.29-1.24.65-1.9.82-1.19.31-2.23.88-3.29,1.47-2.56,1.43-5.09,2.92-7.92,3.78-.16.05-.33.12-.45.24-.12.11-.2.28-.26.44-.26.67-.31,1.35.09,1.98.18.28.41.55.66.79,1.04.97,1.03,2.07.5,3.29-.28.64-.62,1.21-1.03,1.78-1.11,1.53-2.16,3.11-3.23,4.67-.09.14-.14.32-.15.49-.01.14.04.31.13.41.1.12.27.27.41.26.51-.03,1.07,0,1.52-.2,1.42-.62,2.81-1.33,4.21-2,.44-.07.89-.11,1.32-.21.64-.16,1.15.11,1.65.43-.33.61-.64,1.23-.99,1.82-.76,1.25-1.89,2-3.32,2.24-.68.11-1.37.12-2.06.14-.51.01-1.04-.08-1.55-.03-.51.04-.97.24-1.25.75-.5.92-.91,1.86-1.09,2.89-.2,1.18-.11,2.41-.63,3.54-.11.25.01.68.15.97.39.8.61,1.66.32,2.49-.42,1.19-.5,2.29-.01,3.48.25.61.23,1.36.25,2.04.02,1.07-.3,2.05-.97,2.89-.22.26-.45.53-.72.74-.85.66-1.35,1.52-1.63,2.56-.23.83-.61,1.61-.91,2.42-.24.62.15,1.3.83,1.63.64.3,1.3.51,1.99.49,1.03-.02,2.1-.03,3.08-.3,2.18-.59,4.36-1.03,6.63-1,.87.01,1.67-.41,2.51-.57,1.37-.25,2.57-1,3.93-1.24,1.53-.28,3.07-.51,4.59-.79,1.19-.22,2.39-.42,3.55-.74,1.34-.38,2.76-.16,4.07-.68.37.11.73.07,1.07-.14,1.39.28,2.78-.07,4.17,0,.67.35,1.33.41,1.96-.1.67-.16,1.25-.56,1.95-.61,1.78-.12,2.65.83,2.17,2.46-.19.65-.44,1.29-.76,1.89-.14.27-.48.48-.77.61-.3.13-.66.13-1,.2-.33.07-.66.14-.99.21-.38.09-.48.39-.62.74-.36.86-.39.89-1.51,1.15-.55.13-1.03.4-1.09.89-.14,1.15-.73,1.84-1.76,2.29-.62.27-1.19.66-1.79,1-.17,0-.35-.04-.51.01-1.45.41-2.67.34-3.27-1.35-.09-.25-.49-.44-.79-.53-.31-.1-.67-.1-1-.06-.31.03-.6.16-.9.25.06.16.13.32.17.48.15.64.15,1.39.49,1.9.56.83.56,1.48-.04,2.26-.24.3-.01.64.33.81,1.13.57,2.29.48,3.47.23.16.05.32.11.49.17.67.23,1.24.59,1.48,1.31.16.48.24,1.01.47,1.45.49.93,1.12,1.86,2.16,2.12,1.97.5,3.3,1.77,4.46,3.31.1.13.2.32.18.47-.03.32-.02.8-.22.93-.99.68-2.05,1.25-3.05,1.92-.25.17-.41.54-.51.85-.11.32-.11.68-.14,1.02-.11,1.38.56,2.34,1.76,2.86.92.41,1.87.78,2.97.32,1.13-.48,2.36-.51,3.55-.1.49.17.96.5,1.45.52.49.03.99-.26,1.49-.38.49-.12,1.01.24,1.07.72.07.51.14,1.02.18,1.54.03.31-.19.62-.59.65-1.44.13-2.7.53-3.5,1.86-.07.12-.28.16-.42.26-.32.25-.6.17-.96.01-.5-.22-1.02-.03-1.4.34-.5.47.03.88.18,1.3.34.98.33.94-.4,1.68-.52.53-1.05.85-1.8.64-.33-.09-.67-.17-.99-.29-.83-.33-1.65-.48-2.49-.04-.77.42-1.65.45-2.48.67-.44.12-.85.73-.85,1.16-.01,1.05.3,2.04.55,3.03.13.53.5.9.89,1.24.25.21.56.4.87.51.84.29,1.5.85,2.21,1.32.34.22.52.9.38,1.38-.1.33-.36.68-.29.97.11.51.61.74,1.08.92,1.66.62,2.99,1.67,4.03,3.11.09.13.26.22.42.3.46.23.93.43,1.47.27.82-.26,1.63-.57,2.46-.76.84-.19,1.73-.39,2.56-.11,1.18.4,2.35.41,3.55.26.02,0,.13.29.09.43-.11.44-.72,1.23-1.2,1.55-.73.48-1.5.84-2.41.61-.17-.04-.33-.11-.5-.16-1.02-.28-2-.3-3.02.11-2.09.84-4.26,1.39-6.52,1.47-.88.03-1.67.39-2.48.68-.9.32-1.7.05-2.36-.59-.37-.36-.69-.77-1.04-1.16-.07-.83-.19-1.64.16-2.49.18-.42.09-1.02-.05-1.48-.25-.81-.63-1.58-.97-2.36-.17-.41-.87-.48-1.29-.13-.13.11-.29.23-.35.37-.45,1.09-.36,1.68.39,2.27.26.21.54.4.82.6.75.54.74.85-.07,1.3-.45.24-.87.5-1.15.95-.62.67-.94,1.42-.7,2.35.16.67.32,1.34.45,2.02.03.11-.05.3-.14.38-.31.3-.61.25-.91-.02-.39-.34-.84-.64-.99-1.16-.2-.65-.35-1.32-.79-1.87-.53-.68-1.02-1.39-1.52-2.09-.17-.24-.08-1.14.19-1.45.22-.26.48-.48.74-.7.62-.49.75-1.72.25-2.26-.34-.38-.69-.78-1.11-1.06-.88-.59-1.57-1.27-1.98-2.3-.33-.83-1.93-2.75-2.53-3.2-.69-.52-1.41-1.01-2.31-1.09-.69-.06-1.39-.2-2.06-.15-.68.06-1.35.27-1.99.5-.87.32-1.38,1.21-1.31,2.01.2,2.09.78,4.05,2,5.79.45.63.27,1.3.16,1.97-.03.17-.04.34-.06.51-.3.12-.59.33-.89.34-.49.02-.98-.11-1.48-.13-.15-.01-.36.07-.46.18-.26.29-.32.6-.15.81.09.12.28.24.43.24,1.14.05,1.67-1.01,2.56-1.42.12-.12.24-.24.36-.35.56-.49,1.2-.6,1.89-.37.97.32,1.92.64,2.64,1.44.3.33.4.53.1.86-.45.49-.87,1.01-1.3,1.51-.33,1.51-1.44,2.21-2.76,2.72-.79.3-1.54.69-2.33.96-.28.09-.67-.03-.97-.15-.31-.12-.59-.34-.83-.57-.37-.35-.68-.75-1.04-1.11-.11-.11-.31-.18-.47-.18-.33.01-.61.23-.63.59-.05,1.03-.1,2.04-1.16,2.62-.16-.02-.31-.06-.47-.06-.48,0-.96.09-1.19.56-.14.29.42.82.9.87.63.06,1.26.08,1.89.11.13.12.27.22.38.35,1,1.21,2.23,1.56,3.7,1.01.33-.12.6-.05.92.21.38.32.68.79,1.26.83,1.44.08,2.52,1.09,3.85,1.48.52.15.7.39,1.3,1.51.35.64.82,1.26,1.48,1.32.71.06,1.32.1,1.88.59.18.16.61-.02.84-.31.75-.98,1.02-2.17,1.42-3.31.16-.47.58-.86,1.15-.9,1.55-.1,3.1-.21,4.65-.24.27,0,.71.29.79.53.29.86.63,1.56,1.65,1.74.29.05.58.36.77.63.73.98,1.28,2.04,1.48,3.27.08.5.22,1.02.47,1.46.13.23.56.3.85.44,1.03-.66,2.17-1.09,3.35-1.34.49-.11,1.04-.09,1.53.01.5.1.95.43,1.45.56,1.17.33,2.31.75,3.18,1.64.5.53,1.22.62,1.76,1.04,1.31,1.01,2.76,1.38,4.39.87.31-.1.69-.04,1.03.02,1.65.34,2.89,1.73,2.61,3.29-.19,1.01-.24,2.07-.87,2.95-.46.65-.41,1.25.09,1.85.62.75.54,1.58.35,2.45-.33,1.48-1.26,2.42-2.58,3.03-.31.15-.63.3-.96.39-.83.22-1.71.32-2.51.64-1.16.46-2.35.49-3.56.43-.69-.04-1.38-.18-2.04.13-.14.06-.31.15-.38.28-.22.37-.13.69.23.87.46.23.93.58,1.4.6,2.47.12,4.68,1.15,6.99,1.82.15.04.29.2.39.33.2.28.41.56.54.86.04.1-.13.29-.22.43-.29.43-.52.88-.54,1.42-.03.68.2,1.74.66,2.44.39.6.6,1.21.6,1.93,0,1.38-.1,2.74-.56,4.07-.19.53.51,1.33,1.19,1.46.51.09,1.01.2,1.52.01.66-.25,1.34-.36,2.04-.28.39.05.63-.09.92-.33.51-.45,1.15-.75,1.65-1.2.51-.46.84-1.1,1.45-1.47.65.09,1.31.19,1.97.28-.13.3-.19.66-.39.9-.44.52-.95.97-1.42,1.46-.29.31-.25,1.1.1,1.43.36.34.76.68,1.2.91.46.25,1,.27,1.47-.01.43-.26.81-.6,1.22-.91.08-.36.32-.55.66-.43.32.1.41.4.34.73-.01.35-.03.7-.04,1.05-.33.08-.55.28-.68.58s-.16.59,0,.86c.15.24.41.21.76.05.27-.14.58-.2.87-.29h.02c.06.31.09.63.19.91.21.62.53.74.97.44.51-.37.95-.78,1.18-1.38.33.06.64-.02.91-.23.3-.45.71-.71,1.25-.55.66.19,1,.95.77,1.63-.17.5-.49.85-.97,1.07-.76.7-1.54,1.39-2.28,2.1-.24.23-.42.52-.61.8-.23.34-.23.65-.05.92.19.27.51.54.52.81.03.62-.6.8-1,1.05-.87.55-1.8.99-2.72,1.45-.14.07-.38.09-.51,0-.29-.16-.53-.4-.79-.61-.4-.33-.79-.65-1.19-.97-1.22-.09-2.11-1.15-3.37-1.14-.52,0-1.04-.05-1.48.27-.42.3-.77.77-1.24.91-1.25.38-1.88,1.45-2.73,2.25-.38.36-.52.9-.33,1.43.38,1.14,1.05,2.17,1.22,3.39.02.14.19.29.31.4.23.22.57.35.93.25,1.04-.3,1.82-.92,2.36-1.88.16-.28.47-.66.73-.67,1.38-.07,2.72-.51,4.11-.31.16.03.31.16.45.26.59.41.88,1.03,1.17,1.65.32.69.43.74.96.48.31-.14.58-.47.88-.49,1.2-.11,2.4-.09,3.59-.19.35-.03.67-.1,1.01.02.84.3,1.69.34,2.5-.1.79-.44,1.64-.53,2.5-.52.87.02,1.73.08,2.59.15,1.05.08,2.06-.12,3.06-.41.33-.1.66-.22.97-.36,1.14-.48,2.34-.58,3.56-.56.86.02,1.71.1,2.57.09.33-.01.66-.2.98-.31.34,0,.67-.01,1.01-.02,1.03.38,2.09.34,3.15.1.16.05.33.08.49.13,1.19.34,2.33-.33,3.52-.17.68.09,1.33-.12,1.99-.3.65-.17,1.32-.28,1.99-.33,1.52-.11,3.04-.16,4.57-.23-.02.51-.23.94-.74,1.04-.95.18-1.88.36-2.5,1.2-.1.55-.46.84-.98.93-.32.05-.65.01-.98.01-.24.18-.35.41-.32.71-.6.32-1.22.61-1.8.95-.61.36-1.24.52-1.94.44-.68-.07-1.35-.15-2.03-.18-.33-.02-.67.06-1.01.1-1,.14-1.72,1-1.69,2.14.02.35.09.65-.12.97-.26.43-.48.88-.71,1.33-.17.34-.04.62.12.95.36.72-.02,1.43-.7,1.4-1.18-.03-2.41.07-3.55-.18-1.85-.43-3.71-.32-5.56-.42-.71-.04-1.3.31-1.79.82.14.15-3.29.22-4.94.28-.29-.17-.58-.36-.89-.5-.51-.23-.99-.12-1.43.21-.43.33-.65.79-.89,1.25-1.2.05-2.42,0-3.56.44-1.17.44-2.35.37-3.56.26-1.09-.1-2.11.22-2.65,1.18-.47.85-1.18,1.16-1.98,1.48-.31.12-.38.51-.04.79.51.43,1.09.9,1.71,1.07,1.14.3,2.3.56,3.51.47.69-.06,1.17-.46,1.5-.51,1.03-.16,2.05-.34,3.06-.53,1.27-.25,2.32.6,3.53.67.46.02,1.17-.21,1.35-.57.39-.77.8-1.53,1.16-2.31.58-1.25,1.58-1.73,2.91-1.62.69.06,1.38.04,2.06.12.85.1,1.69.3,2.54.38.32.04.66-.12.99-.2,1.53.15,3.05.27,4.59-.07.99-.23,2.01-.36,3.03-.45.26-.02.66.25.78.49.12.25.05.67-.09.92-.17.27-.49.48-.79.63-.45.24-.95.39-1.41.61-.42.2-.85.98-.68,1.25.17.25.43.48.7.61.3.14.66.16.99.24.66.16,1.32.32,1.89.75.29.22.35,1.06.02,1.31-.26.2-.56.47-.85.49-.85.06-1.7.01-2.55.01-.41-.01-1.09.62-1.04.96.08.51.32.95.7,1.3.11.1.31.15.47.16.85.08,1.7.09,2.49-.3.6-.3,1.16-.74,1.87-.77,1.13-.06,1.85-.75,2.48-1.6.5-.69,1.04-1.36.98-2.29l.03-.04c.44-.23.87-.58,1.34-.66,1.56-.29,2.76-1.15,3.9-2.18.22-.19.63-.2.96-.24.39-.06.65-.23.68-.58.01-.13-.05-.32-.15-.4-.51-.42-.89-1.02-1.58-1.21-.13-.36-.26-.72-.38-1.08.26-.09.58-.3.8-.3.03,0,.07.01.1.02.84.38,1.58.09,2.32-.21.5-.2.99-.14,1.43,0,.61.21,1.21.43,1.87.43.17.03.34.08.51.07.77-.05,1.33-.54,1.39-1.2.03-.33.01-.69-.09-1-.12-.37-.04-.63.41-.7.32-.05.66,0,.96.07.11.03.17.28.23.44.26.66.66,1.17,1.35,1.43.63.25,1.23.68,1.88.78.68.09,1.21-.53,1.76-.9.32-.21.58-.25.96-.1.31.11.67.1,1.01.15.22.26.44.52.68.77.11.13.29.22.36.37.15.29.34.61.36.92.03.69-.08,1.38-.06,2.06.01.37.24.69.53.76.67.17,1.4.17,2.01.43.87.38,1.69.02,2.53.07.35.03.71.02,1.02.14,1.14.41,2.29.8,3.13,1.74.47.87.97,1.72,1.19,2.7.06.3.38.53.74.51.47-.02.96-.06,1.21-.63.28-.63.45-1.2-.05-1.81-.21-.25-.33-.57-.49-.86.33-.6.63-1.24,1.26-1.58.62-.34,1.12-.78,1.56-1.32.1-.13.27-.22.42-.29.46-.2.87-.35,1.43-.06,1.06.56,2.29.82,3.28,1.46,1.03.67,2.16,1,3.26,1.44.48.19.8.62,1.04,1.09.23.45.05.89-.46.97-1.02.16-1.94.56-2.81,1.08-.31.18-.46.52-.45.89,0,.33.04.67.15.98.28.79.41.87,1,.84.68-.04,1.37-.07,2.06-.1.2.27.39.55.6.81.34.41.48.87.38,1.4-.03.16-.05.34-.13.48-.46.8-.36,1.58.04,2.38.32.63.33,1.29-.08,1.9-.28.42-.54.83-.09,1.28,1.2,1.18,2.46,2.3,4.08,2.88.46.16.98.13,1.48.19,1.11,1,2.2,2.03,3.34,2.99.51.43,1.11.74,1.7,1.05.29.14.65.14.97.2.36.07.68,0,.92-.29.66-.76,1.44-.67,2.25-.33-.01.54.15,1.06.66,1.22,1.76.58,3.53,1.16,5.44,1.05.85-.04,1.65.31,2.47.48.68.15,1.34-.04,1.99-.21.46.31.57.75.65,1.29.14.92,1.49,1.77,2.29,1.55.33-.08.67-.18.96-.33.84-.44,1.65-.32,2.46.05.15.08.3.18.46.22.51.14,1.01.16,1.44-.19.53-.42,1.05-.87,1.57-1.31.55-.46,1.14-.6,1.88-.47.49.09,1.08-.14,1.33-.59.7-1.28,1.72-1.53,3.02-1.15.16.05.34.07.51.05.5-.07,1.03-.08,1.5-.25.63-.24,1.25-.55,1.83-.91.94-.58,1.88-.5,2.94-.34,1.07.16,1.91-.47,2.28-1.57.83-.96,1.83-1.54,3.14-1.54.86,0,1.73-.06,2.59-.02,1.22.05,2.4.29,3.46.94.74.46,1.52.84,2.39.94,1.07.12,1.35.9,1.64,1.72.16.44.46.53.75.31.41-.32.77-.7,1.2-.98.92-.61,1.47-1.39,1.57-2.53.04-.52.52-.81.95-1.12.54-.39.53-.73.21-1.29-.34-.6-.67-1.2-1.01-1.81-.29-.51-.15-1.04.12-1.46,1.31-2.03,2.41-4.18,3.74-6.19.28-.43.63-.84.78-1.32.15-.46.16-.97-.33-1.38-.58-.47-.68-1.2-.64-1.89.02-.51.2-1.01.31-1.51.12-.5.34-.97.19-1.51-.39-1.4.04-2.74.36-4.08.16-.69.52-1.26.99-1.79.81-.91,1.69-1.73,2.75-2.33.95-.53,2-.73,2.94-.06,1.04.74,2.15,1.05,3.4,1.01,1.2-.05,2.41-.05,3.62-.08,2.08-.06,4.15-.16,6.22-.19,1.56-.02,3.11.06,4.6.6.64.23,1.35.36,2.03.4,3.11.18,6.16.85,9.26,1.12,1.24.11,2.33.62,3.33,1.32.28.19.53.45.79.66.55.44,1.15.79,1.84.92,3.26.61,6.25,1.92,9.12,3.54.76.42,1.49.88,2.26,1.27.46.23.96.45,1.46.48,1.61.09,3.01.62,4.25,1.67.37.31.92.45,1.41.6,1.49.44,3.07.67,4.46,1.31,1.42.66,3.11.4,4.39,1.45.23.19.65.18.98.2.89.07,1.62.46,2.37.94,1.93,1.23,3.16,3.16,4.87,4.61.92.79,1.54,1.85,2.14,2.91.61,1.06,1.43,1.94,2.43,2.65.73.51,1.22,1.18,1.52,2.03.37,1,1.01,1.82,2.01,2.26.97.43,1.79,1.04,2.52,1.79.61.62,1.3,1.11,2.08,1.51,1.38.7,2.73,1.47,4.07,2.25.92.54,1.87.83,2.95.83.49,0,1.01.22,1.47.43,1.1.48,2.17,1.04,3.27,1.54,1.11.5,2.26.87,3.47,1,1.03.12,2.06.27,3.1.35.69.05,1.37-.13,1.97-.51.58-.37,1.12-.81,1.71-1.17,2.11-1.28,4.32-2.12,6.88-1.66,1.18.22,2.4.24,3.6.35.55.05.99-.18,1.36-.57.24-.26.5-.49.69-.78.55-.8,1.32-1.11,2.23-.96,2.07.35,4.14.09,6.21.07.7-.01,1.38-.19,1.99-.52.33-.19.63-.27.99-.13.32.12.66.19.99.3,1.03.36,2,.27,2.97-.27,1.31-.73,2.67-.57,4.01-.05.48.19.95.42,1.42.63.48.2,1.01.06,1.39-.37.79-.89,1.42-1.94,2.79-2.13.57-.08,1.01.04,1.4.39.26.23.46.52.69.78.52.59.88.7,1.11.22.32-.65.81-1.12,1.37-1.5.85-.59,1.74-1.13,2.67-1.58.8-.39,1.44-.92,1.97-1.62.53-.68,1.05-1.37,1.62-2.01.22-.25.55-.4.84-.6.3-.21.62-.28.98-.25,1.28.13,2.27.72,2.94,1.83.09.15.13.33.2.48.27.54.73.7,1.12.38.26-.22.53-.44.77-.68,1.12-1.07,1.13-1.06,3.11-1.56.62-.16,1.28-.86,1.33-1.44.06-.86.08-1.73.14-2.58.04-.52.15-1.02.58-1.39.91-.78,1.61-1.82,2.77-2.31.31-.13.63-.31.87-.55,1.24-1.19,2.53-2.35,3.66-3.64.92-1.06,1.91-2,3.19-2.58.96-.44,1.66-1.24,2.59-1.7.92-.47,1.86-.9,2.79-1.36.31-.15.65-.29.88-.53,1.34-1.39,2.95-2.36,4.7-3.14.46-.21.83-.62,1.21-.97,1.31-1.24,3.18-1.29,4.65-2.18.42-.26.98-.36,1.49-.4,1.2-.09,2.41-.14,3.62-.15.51,0,1.04.08,1.53.23,1.99.61,3.95,1.31,5.41,2.91.48.53,1.07.9,1.77.97,2.29.22,4.34,1.09,6.37,2.07,4.35,2.1,8.7,4.2,13.06,6.3.31.15.65.22.97.35.36.14.67.09.99-.1.45-.26,1-.39,1.36-.74,1.26-1.2,2.72-1.36,4.33-1,1.18.26,2.36.53,3.55.74.31.05.7-.06.98-.22.76-.4,1.5-.86,2.22-1.33.28-.18.6-.43.71-.72.23-.64.2-1.43.55-1.97.45-.71,1.18-1.23,1.77-1.85.02-.02-.1-.25-.2-.29-.81-.39-1.71.01-2.53-.27-.3-.1-.56-.31-.82-.5,0-.04.15-.3.24-.43.1-.14.21-.28.34-.39,1.19-1.06,2.44-1.85,4.18-1.57.83.14,1.72-.16,2.57-.13,1.66.06,3.04-.56,4.29-1.55.95-.75,1.98-1.45,2.74-2.36,1.14-1.37,2.66-2.2,4.04-3.22.89-.66,1.94-.64,2.96-.23,2.45.96,4.68,2.22,6.21,4.45.39.57.86,1.09,1.24,1.67.28.43.4.92.21,1.46-.5,1.39-.2,2.72.32,4.03.35.85.25,1.67-.13,2.49-.37.79-.83,1.39-1.72,1.76-1.91.81-3.73,1.8-5.59,2.72-.63.31-1.13.78-1.6,1.29-1.07,1.16-2.32,2.04-3.82,2.58-.83.29-1.52.79-2.08,1.49-.64.8-1.58,1.32-2.1,2.26-.23.41-.79.63-1.2.93-.71.49-1.42.99-1.75,1.84-.21.26-.49.49-.59.78-.18.52.06,1.01.3,1.47.09.15.2.29.31.41,2.23,2.41,4.18,5.05,6.13,7.67.1.13.29.18.44.27.08.69.49,1.23.77,1.84.48,1.07,1.28,1.99,1.51,3.17-.36.38-.68.79-1.08,1.11-1.23.99-1.9,2.42-2.94,3.57-.35.38-.43.92-.43,1.44-.82.62-1.55,1.32-2.64,1.54-.87.18-1.01.5-.83,1.01.41,1.13.85,2.26,1.2,3.41.09.29-.03.69-.16.99-.21.47-.45.95-.79,1.32-.69.76-1.47,1.44-2.2,2.17-.28.28-.26.6-.12.96.25.69.19,1.35-.32,1.93-.34.39-.71.76-.99,1.19-.28.44-.39.96-.09,1.45.34.59.91,1.03,1.05,1.75.1.56.49.83,1.04.96.5.11,1.02.23,1.46.48,1.35.77,2.62,1.65,3.76,2.73.54.51.8,1.12.88,1.81.11,1.03.26,2.07.19,3.09-.12,1.98.43,3.74,1.38,5.43.09.14.17.32.17.48.01.34.09.78-.08.99-.89,1.08-1.33,2.43-2.14,3.54-.56.75-.67,1.57-.68,2.43-.01.69.06,1.38.13,2.06.07.71-.06,1.37-.36,2.01-.15.3-.37.62-.39.94-.1,1.2-.2,2.41-.17,3.61.02,1.06.75,1.91,1.13,2.87.31.79.78,1.53,1.13,2.32.21.47.47.97.49,1.46.04,1.8.95,3.29,1.64,4.86.13.28.45.53.74.69,1.24.66,2.55,1.07,3.97.96,2.93-.22,5.87-.13,8.8-.06.69.02,1.39.01,2.07-.09.29-.05.66-.31.8-.58.49-.9.81-1.92,1.87-2.37.35.57.73,1.12,1.05,1.7.44.79,1.11,1.23,1.98,1.36.82.12,1.66.16,2.48.26.32.04.56.28.73.6-.5.1-1,.21-1.51.31-.16.04-.36.05-.49.14-.27.19-.68.4-.73.66-.22,1.27-.94,2.16-1.92,2.91-.11.09-.13.31-.19.47-.13.34.03.57.48.64.51.09,1.03.24,1.53.21,1.13-.04,1.91.68,2.8,1.16.13.64.52.93,1.17.91.36.32.69.68,1.08.95.54.38,1.15.64,1.65,1.04.22.17.38.58.36.85-.07.79-.56,1.55-.08,2.36.02.97.59,1.58,1.38,2.01.51.27.75.68.81,1.21.04.34-.01.69-.01,1.04.02.71.22,1.34.8,1.82.26.21.54.42.77.67.48.51.53,1.34.14,1.88-.31.42-.61.84-.95,1.23-1.02,1.19-1.76,2.51-2.18,4.05-.36,1.33-1.14,2.49-2.16,3.47-.62.6-1.22,1.22-1.84,1.82-.75.73-1.59,1.31-2.65,1.52-.33.07-.66.21-.95.39-.76.47-1.3,1.12-1.28,2.08,0,.51.09,1.02.14,1.53.05.44-.41,1.1-.8,1.15-.85.12-1.72.18-2.56.33-.31.05-.62.26-.87.48-.26.22-.42.54-.64.8-.91,1.04-1.65,2.2-2.38,3.37-.42.68-1.55,1.09-2.28.67-.29-.17-.61-.3-.92-.45-.64-.32-.99-1.14-.75-1.72.14-.32.33-.61.46-.93.18-.47.36-.96.5-1.45.16-.56-.17-.97-.47-1.39-.24-.33-.51-.4-.91-.27-1.14.36-2.3.71-3.45,1.06-.34.11-.57.35-.77.65-.68,1-1.52,1.84-2.48,2.61-1.07.86-1.87,1.99-2.38,3.3-.12.31-.4.56-.57.86-.32.54-.23,1.05.24,1.3.76.4,1.54.78,2.29,1.19.3.16.58.36.86.55.91.65,1.43,1.48,1.21,2.64l-.14.11c-.82.2-1.64.42-2.47.6-1.13.23-1.8.81-1.86,2.05-.02.47-.23,1.05-.56,1.38-1.19,1.21-2.29,2.57-3.86,3.3-1.18.54-1.85,1.41-2.28,2.58-.35.95-.5,1.98-1.13,2.83-.17.23-.21.7-.09.96.43.92.97,1.78,1.24,2.78.04.15.16.28.28.4s.27.2.41.3l.17.21c.17,1.09-.31,2.11-.3,3.18.01.16-.03.36.04.5.32.57.74,1.1,1,1.7.26.62.41,1.29.55,1.96.22.99.36,2,.56,2.99.11.52.44.9.89,1.17-.15.49-.17,1.09-.47,1.44-1.03,1.21-1.72,2.54-1.96,4.12-.08.47-.41.95-.73,1.34-.77.92-1.59,1.79-2.4,2.67-.33.36-.25.59.18.81.76.4,1.48.98,2.34,1.02,1.39.06,2.67.65,4.04.68.59.02.98.33,1.26.75.68,1.03,1.42,1.88,2.8,1.97,1.01.06,1.39.81,1.49,1.76.05.5.18,1.04.62,1.37,1.13.86,1.81,2.03,2.36,3.31.05.12.23.22.37.28.5.21,1.02.06,1.53.08,1.03.04,2.06.1,3.08.17.17,0,.33.09.49.16.16.06.35.11.45.23.73.83,1.9.69,2.76,1.26.85.57,1.81.98,2.71,1.46.08.15.12.33.23.44q3.6,3.4,8.33,3.84c.17.01.34.02.5.03.4.34.83.63,1.36.67,1.38.13,2.76.25,4.14.34,1.22.08,2.42.27,3.52.81,1.14.55,2.3.58,3.53.4,1.04-.15,2.05.16,3.07.38,1.12.24,2.01-.3,2.82-.98.25-.22.45-.52.66-.79.64-.82,1.25-1.65,1.91-2.46.32-.4.69-.77,1.07-1.13.38-.37.87-.55,1.41-.49,1.2.11,2.39.35,3.61.19.89-.12,1.66-.43,2.14-1.24.5-.16.91-.48,1.25-.87,1.15-1.3,2.45-2.44,3.73-3.59.69-.61,1.51-.87,2.37-.89,1.38-.03,2.76.09,4.14.06.68,0,1.37-.19,1.88-.73.49-.5,1.04-.91,1.69-1.17.66-.26,1.16-.69,1.58-1.27,1.44-1.97,3.25-3.56,5.21-5,2.76-.2,5.45-.89,8.17-1.31.17-.03.33-.11.5-.16,1.05-.32,1.78-.94,2.17-2.01.42-1.16.5-2.36.68-3.55.1-.59.76-1.19,1.44-1.31.34-.05.67-.17,1.01-.17.69-.01,1.39.01,2.07.09,1.08.13,2-.18,2.95-.7,5.92-3.21,11.86-6.38,17.8-9.56,1.22-.65,2.42-1.32,3.41-2.31.38-.38.86-.59,1.37-.69.85-.18,1.65-.46,2.43-.85,4.92-2.51,9.97-4.77,14.7-7.65.29-.18.63-.36.95-.39.31-.02.69.08.92.27.25.19.44.53.55.85,4.17,12.79,8.33,25.59,12.48,38.39.15.49.26,1.02.25,1.53-.01.29-.2.7-.45.85-.57.38-1.23.63-1.84.95-.52.28-.76.8-.61,1.26.65,1.97,1.24,3.95,2.04,5.86.22.52,1.14,1,1.73.87.17-.03.34-.07.5-.11,1.85-.44,3.7-.89,5.55-1.32.5-.12,1.02-.16,1.53-.24.87-.12,1.71.35,2.17,1.1.55.91.75,1.92.99,2.93.21.91-.1,1.69-.72,2.35-1.2,1.27-2.71,2.13-4.08,3.19-.26.2-.47.48-.65.77-.08.12-.06.33-.03.49.03.13.15.33.24.34,3.26.41,6.47,1.07,9.73,1.47,2.57.32,5.12.79,7.69,1.11,3.26.41,6.48,1.08,9.73,1.51,3.09.4,6.15.9,9.23,1.35,3.25.48,6.5.92,9.74,1.44s6.45,1.22,9.7,1.64c2.62.33,5.04,1.15,7.37,2.31,1.86.92,3.68,1.91,5.54,2.82.45.22.99.25,1.49.37.5.78,1.38,1.01,2.12,1.39,14.22,7.29,28.45,14.55,42.68,21.81.31.16.61.34.93.43.33.1.68.1,1.02.14.28.46.72.7,1.19.94,6.61,3.37,13.21,6.79,19.85,10.11,2.8,1.39,5.42,3.01,7.92,4.89,8.43,6.33,16.9,12.61,25.35,18.93,5.26,3.93,10.52,7.88,15.91,11.64,5.53,3.85,11.04,7.73,16.55,11.62,21.2,14.93,42.39,29.88,63.59,44.82.99.69,2,1.36,3,2.05.58.4,1.21.65,1.91.72,1.38.12,2.76.23,4.14.37,6.88.68,13.78,1.14,20.68,1.67,6.04.45,12.06,1.1,18.11,1.39.17.01.34.03.51.06,2.75.4,5.52.5,8.28.69,5.69.38,11.37,1.04,17.07,1.3.69.03,1.37.17,2.06.24.86.1,1.72.21,2.58.25,2.42.12,4.84.26,7.26.29,1.92.03,3.73-.78,5.61-.95,1.66-.14,2.93-.81,4.07-1.98,1.93-1.98,3.94-3.88,5.93-5.8.88-.85,1.71-1.72,2.35-2.76,1.27-2.08,2.84-3.91,4.66-5.53.79-.71,1.38-1.59,1.75-2.55.68-1.8,1.77-3.35,2.83-4.92.68-1.01,1.33-2.02,2-3.03.38-.59.73-1.19.81-1.89.14-1.24.6-2.35,1.26-3.37,1.14-1.75,1.92-3.67,2.8-5.55.8-1.72,1.52-3.48,2.39-5.17.73-1.39,1.81-2.53,3.25-3.25.62-.3,1.22-.67,1.86-.92,1.61-.62,3.23-1.2,4.86-1.77,2.14-.75,4.33-1.19,6.61-1.18,3.11,0,6.23,0,9.34,0,2.28,0,4.45.5,6.53,1.43,2.21.98,4.44,1.9,6.67,2.86.8.35,1.6.66,2.35-.11,1.39,0,2.73-.2,3.95-.95.28-.17.64-.25.98-.3,2.44-.34,4.84-.27,7.13.73,2.05.9,4.09,1.85,6.13,2.78,2.05.95,4.17,1.65,6.47,1.67.69,0,1.38.07,2.07.11,1.07.07,2.04-.14,2.92-.82.56-.44,1.27-.43,1.97-.46.51-.01,1.02-.14,1.51-.28.77-.23,1.31-1.19,1.19-2.07-.05-.34-.17-.67-.21-1.01-.05-.44.51-.91.95-.8,2.19.55,4.43.65,6.67.74,1.21.05,2.42.09,3.63.07.99-.01,2.44-1.39,2.48-2.35.06-1.37-.15-2.75.46-4.08.2-.43.09-1.03.01-1.53-.3-1.74-.83-3.36-2.46-4.38-.28-.18-.54-.44-.73-.72-.2-.27-.38-.59-.42-.91-.24-1.71.32-3.05,1.88-3.9.15-.08.29-.24.45-.25.14-.01.29.13.43.21.6.35,1.18.73,1.8,1.04.99.49,1.6,1.29,2.01,2.27.35.85.98,1.39,1.79,1.75.79.36,1.55.78,2.34,1.12,1.1.47,2.27.79,3.22,1.61.21.18.66.15.99.12.33-.03.66-.17.99-.27,1.01-.32,1-.31,1.47.64.3.61.72,1.17.82,1.88.02.17.07.33.13.49.24.62,1.05,1.08,1.68.89,1.84-.53,3.67-.83,5.61-.46.99.19,2.06-.01,3.1.01.81.02,2,1.14,2.15,2.01.11.68.13,1.37.21,2.05.11.89.53,1.65,1.12,2.29.63.68,1.46.91,2.36.74.51-.09,1.02-.24,1.47-.48,2.59-1.39,5.16-2.81,7.73-4.22,2.43-1.33,4.84-2.67,7.28-3.98.45-.25.94-.44,1.44-.56,1.88-.46,3.76-.5,5.62.13.35.12.63.28.84.58.68,1,1.34,2.01,2.08,2.96.45.57.64,1.17.79,1.86.43,2.02.88,4.04.62,6.13-.12.97.38,1.65,1,2.26.49.48,1.01.98,1.62,1.28,2.11,1.03,3.54,2.69,4.69,4.68.95,1.66,2.11,3.16,3.46,4.52.36.37.76.76.95,1.22.54,1.22,1.5,1.86,2.7,2.23,1.2.38,2.13,1.13,2.91,2.08.33.39.62.82.88,1.27.36.62.82,1.14,1.41,1.49,1.19.72,1.93,2,3.25,2.54.16.07.32.15.49.16.57.06.91.46,1.22.87.54.69.92,1.45,1.04,2.33.2,1.37.35,2.74.2,4.13-.07.7.1,1.37.52,1.96.46.64.39,1.33-.06,1.9-.55.66-1.21,1.24-1.55,2.05-.5,1.18-.49,2.39.16,3.49.36.61,1.05.89,1.77.9.51.01,1.03-.07,1.53-.19,1.36-.31,2.74-.41,4.12-.49.91-.04,1.73.2,2.35.86.37.39.82.6,1.28.83.3.15.69.3.81.56.39.81,1.09,1.31,1.69,1.91.57.58.6,1.68.07,2.39-.41.55-.87,1.07-1.33,1.58-.45.51-.78.59-1.32.2-.57-.41-1.17-.72-1.85-.88-.58-.13-1.38.56-1.41,1.17-.05,1.08.19,2.07.85,2.92.84,1.1,1.71,2.17,2.61,3.22.2.24.56.41.88.48,1.35.3,2.72.54,4.07.82.88.18,1.56.7,2.2,1.3,1.45,1.36,2.23,3.05,2.44,5.01.06.52.07,1.04.08,1.55.02.87.02,1.73.01,2.6-.01,1.58.37,3.08,1.01,4.51.64,1.42,1.28,2.83,1.94,4.24.37.79.84,1.52,1.48,2.12.88.84,1.57,1.84,2.35,2.75.89,1.05,1.92,1.98,2.88,2.97.11.12.22.27.29.42.3.63.61,1.25.44,1.98-.13.5-.28.99-.42,1.49-.29,1.06-.27,2.07.6,2.87,1.31,1.18,2.26,2.61,3.11,4.12.42.75.86,1.49,1.27,2.25.4.76.75,1.55,1.14,2.31.23.43.33.45,1.26.23.72-.17,1.35-.14,1.81.55.09.14.2.27.3.41.86,1.19,1.99,1.9,3.46,2.05.7.07,1.34.28,1.84.83.6.66,1.32,1.06,2.23,1.18,1.02.13,2.05.31,3.06.55,1.2.28,2.38.33,3.59.03,1-.24,2.03-.42,3.06-.55.68-.08,1.41-.14,2.06.02,1.37.33,2.72.33,4.11.18,2.72-.29,5.11.67,7.27,2.22,1.26.9,2.41,1.97,3.64,2.93.67.53,1.4.99,2.11,1.49.76.72,1.69,1.18,2.68,1.29,2.2.23,4.28.96,6.46,1.24,1.71.22,3.22.92,4.57,1.99.52.4.98.93,1.69,1.05,1.04,1.57,2.73,2.65,3.41,4.5.11.29.46.52.74.7.59.36,1.22.65,1.82.99.29.16.58.35.84.55.29.24.38.58.28.95-.07.3-.3.54-.69.62-.83.18-1.72.04-2.53.42-.34.16-.9.82-.88,1.19.02.53.23,1.07.66,1.33.73.46,1.52.82,2.32,1.14,4.49,1.77,4.26,1.27,8.95,5.06.82.65,1.74,1.11,2.78,1.32.51.11,1.02.33,1.32.77.72,1.07,1.78,1.58,2.96,1.92.86.24,1.55.72,2.1,1.42.44.56,1.04.88,1.73,1.05,4.23,1.06,12.38,3.47,16.39,4.83.49.16,1.01.26,1.48.47,1.49.68,2.6,1.7,2.8,3.44.06.51.08,1.03.15,1.55.11.71.48,1.29,1.03,1.74,1.61,1.31,3.32,2.49,5.14,3.47,1.83.99,3.6,2.05,5.28,3.26.42.3.96.49,1.48.36,1.04-.28,2.02-.25,3.03.15.99.39,2.03.36,3.06.11,1.01-.23,2.02-.51,3.04-.64,1.23-.16,2.23-.94,3.42-1.18.69-.14,1.36-.21,2.04.01.33.11.65.24.97.37,1.77.73,3.66,1.02,5.52,1.36,1.52.28,3.1-.09,4.63-.4.17-.03.34-.06.51-.08,1.55-.21,2.68.5,3.54,1.68.41.56.67,1.21,1.04,1.79.37.58.78,1.14,1.2,1.68.33.42.8.67,1.31.78.5.11,1.02.18,1.54.19,1.38.04,2.77-.01,4.15.08,1.07.07,1.98.6,2.66,1.44.54.66.98,1.42,1.52,2.08.2.24.56.39.88.48,1.01.27,2.05.21,3.09.15,1.38-.09,2.76-.17,4.12.21.51.14,1.03-.01,1.49-.28.6-.35,1.17-.75,1.79-1.04,2.99-1.41,5.71-3.22,8.32-5.22.96-.74,1.97-1.42,2.9-2.18,1.38-1.14,2.91-1.84,4.7-2.01.34-.03.67-.13,1.01-.2.36-.07.61-.29.83-.58.52-.69,1-1.41,1.28-2.23,1.3-.14,2.59-.27,3.89-.4.98.35,1.94.77,2.94,1.03,2.61.69,5.17.56,7.47-1.01,1.99-1.35,3.14-3.2,2.77-5.72-.09-.57.05-1.02.4-1.4,1.07-1.14,2.37-2,3.69-2.81.41-.25.99-.32,1.49-.32,1.21-.01,2.45.35,3.61-.08,1.5-.55,3.06-.57,4.6-.71,2.11-.19,4.08-.58,5.66-2.17.48-.47,1.15-.76,1.76-1.08,1.84-.98,3.57-2.1,5.05-3.59.22-.22.6-.34.93-.4.5-.1,1.03-.17,1.54-.16,1.42.04,2.75-.2,3.98-.93.15-.09.32-.14.48-.19,2.18-.73,4.36-1,6.61-.23,1.97.67,3.99,1.11,6.09,1.17.69.02,1.38.16,2.06.28,2.05.34,4.11.55,6.2.51.89-.02,1.71.25,2.42.77.75.56,1.59.63,2.46.57.54-.04,1.02.09,1.42.45.51.47.98.97,1.51,1.41.4.33.85.58,1.28.87-.22.46-.52.9-.64,1.38-.06.28.06.79.27.91.73.43,1.52.76,2.31,1.08.48.19.99.27,1.48.42,1.02.3,1.05.41.69,1.41-.15.43-.64.76-.2,1.36.81,1.12,1.5,2.31,2.63,3.17.56.42.91,1.02,1.1,1.71.8,2.83,1.5,5.68,2.42,8.47.68,2.03.85,4.05.59,6.13-.17,1.37-.44,2.73-.61,4.1-.12.88.09,1.71.55,2.48.09.15.16.32.27.44,1.12,1.18,1.63,2.63,1.83,4.21.06.51.16,1.02.22,1.54.08.73.48,1.27.97,1.77.6.62,1.25,1.2,1.78,1.87.32.39.51.91.65,1.4.09.31.07.73-.08,1-.43.74-.99,1.41-1.43,2.14-.17.27-.26.68-.2.98.23,1.01.52,2.01.84,2.99.28.84.81,1.48,1.57,1.99,1.03.68,1.77,1.6,2.18,2.8.39,1.15.85,2.27,1.36,3.37.37.8.48,1.65.63,2.5.19,1.09,1.01,1.82,2.11,1.91.87.07,1.73.16,2.59.17,1.41.01,2.74.23,4.04.81.95.43,2.01.55,3.05.5,1.39-.07,2.76-.18,4.1.32,1.37-.15,2.74-.32,4.12-.45.34-.04.69.01,1.03.02,1.13.05,2.55,1.15,2.22,2.89-.06.34-.13.68-.16,1.02-.01.17.05.34.06.51.01.41.73.73,1.17.59,1-.34,1.73-1.15,2.67-1.56.95-.41,1.93-.76,2.92-1.07.68-.22,1.36-.05,2,.26.64.3,1.21.7,1.6,1.29.65,1.01,1.25,2.06,1.88,3.09.67,1.09,1.66,1.77,2.88,2.06,1.17.29,2.38.45,3.56.69.7.15,1.37.08,2.05-.1,1.16-.32,2.23-.93,3.45-1.09.68-.09,1.38-.18,2.03-.4.81-.27,1.56-.72,2.37-1.01.98-.36,2-.56,2.97.09,1.07.71,2.27.8,3.5.69.34-.03.69-.07,1.02-.16,1.2-.31,2.37-.21,3.59.03,2.37.47,4.76.85,7.16,1.18,1.2.16,2.42.07,3.63.16.51.04.99.24,1.37.65.36.38.84.64,1.36.69,2.45.25,4.12,1.62,5.35,3.65.27.44.61.83.89,1.26.62.96,1.58,1.34,2.63,1.46.68.08,1.38,0,2.06.01,3.01.06,3.02.09,4.52-.48.8-.31,1.59-.67,2.47-.74,2.07-.16,4.11-.51,6.16-.89,1.52-.28,3.09-.4,4.64-.51.68-.05,1.39.14,1.97.54.57.39,1.11.82,1.62,1.28,1.09.96,2.38,1.36,3.78,1.53,1.56.19,3.11.13,4.67.1,1.56-.04,3.11-.05,4.67-.04.7,0,1.34.24,1.92.66.7.5,1.39,1.03,2.15,1.42.77.4,1.6.61,2.48.19.62-.29,1.29-.57,1.96-.66,1.71-.24,3.44-.4,5.16-.52.49-.03,1.09.06,1.49.32.74.49,1.53.79,2.36,1.03.66.19,1.32.4,1.98.6.71.22,1.22-.24,1.16-1.07-.05-.67.18-1.13.61-1.23.67-.15,1.35-.29,2.03-.37.54-.07,1.02.14,1.38.54.34.38.65.8.97,1.21.22.29.5.51.86.54,1.75.1,3.34.77,4.97,1.3.29.09.79.03.97-.16s-.02-.63-.28-.86c-.52-.46-1.08-.87-1.61-1.31-.35-.29-.46-1.05-.22-1.41.77-1.17,1.63-2.22,3.14-2.49.68-.12,1.32-.41,1.98-.61,1.28-.39,2.38-.01,3.37.81.13.12.25.24.38.35.53.48.99,1.04.96,1.76-.06,1.61.38,3.07,1.12,4.46.24.46.61.82,1.16.94.33.07.66.2,1,.25,2.75.35,5.47.8,8.17,1.44,2.02.48,4.08.85,6.14,1.02,2.1.18,4.07.78,6.06,1.35,1.16.33,2.3.74,3.43,1.17.31.11.57.38.81.62.24.25.44.54.63.82.42.59.94,1.04,1.65,1.15,1.2.19,2.35.53,3.5.93,1.64.55,3.31,1,4.98,1.43.7.18,1.43-.03,1.83-.65.5-.78,1.16-1.26,2.04-1.46.53-.12.96-.41,1.26-.84.57-.83,1.26-1.63.93-2.8-.1-.34.18-.64.45-.86.26-.22.5-.47.71-.74.88-1.14.88-1.16,1.99-.72.65.25.84.17,1.15-.37.54-.91.91-1.86.97-2.92.3-4.66.94-9.3,1.01-13.97.02-1.27.44-2.34,1.17-3.35.52-.73.67-1.56.43-2.46-.21-.84-.37-1.69-.51-2.53-.1-.56.43-1.49.95-1.73.31-.14.62-.28.94-.39.5-.17,1-.28,1.49-.45.71-.25,1.18-.83,1.31-1.5.31-1.52.45-3.07.71-4.6.75-4.44,1.43-8.88,2.05-13.33,1.98-1.88,2.12-1.97,4.33-2.51.33-.08.69-.08,1.01-.19,1.14-.39,2.35-.66,3.37-1.25,1.52-.87,3.23-1.15,4.8-1.83.31-.14.51-.4.65-.74.13-.32.23-.68.46-.91.35-.37.82-.7,1.35-.65,1.52.16,3.04.4,4.57.6.4.05,1.08-.48,1.09-.86,0-.34.05-.68,0-1.01-.13-.91.06-1.7.73-2.34.78-.74,1.21-1.62,1.34-2.69.03-.28.36-.58.62-.76.71-.49,1.45-.96,2.33-1.05,1.06-.12,1.97-.54,2.82-1.15.57-.4,1.24-.55,1.93-.64.51-.06,1.01-.17,1.52-.27.65.07,1.3.11,1.95.11,1.76,0,3.49-.29,5.15-1.06.48-.23,1-.2,1.52-.18,1.07.04,2.1-.2,2.9-.9,1.13-.98,2.38-1.28,3.82-1.22,3.63.14,7.26.22,10.89.3,1.9.04,3.8.03,5.69.04.63,0,1.22-.56,1.46-1.26.33-.99.55-2,.6-3.04.07-1.38.13-2.76.19-4.14.05-1.13.43-1.99,1.64-2.31.49-.12.96-.37,1.43-.59.65-.32.99-1.11.66-1.7-.88-1.54-1.35-3.16-1.3-4.94.02-.69-.05-1.38-.03-2.07.01-.7.24-1.33.56-1.96.58-1.17,1.47-1.88,2.73-2.17.41-.09.51-.4.32-.81Z" style="fill: #fff; stroke-width: 0px;"/>
</svg>
