<?xml version="1.0" encoding="UTF-8"?>
<svg id="a" data-name="Ebene 1" xmlns="http://www.w3.org/2000/svg" width="1920" height="1080" viewBox="0 0 1920 1080">
  <path d="M1811.54,736.76c-.43.76-.57,1.62-.49,2.5.04.52.05,1.04.05,1.55-.01,1.8-.6,3.29-1.9,4.63-6.97,7.18-13.88,14.42-20.82,21.62-4.9,5.1-9.83,10.17-14.76,15.25-.71.74-1.36,1.56-2.29,2.06-.4,0-.56.15-.65.66l-.04.28-.28.04c-.39,0-.61.2-.72.72l-.27.28c-.06.16-.08.34-.18.47-.83,1.03-1.7,2.03-2.88,2.7-.1.66-.25.79-.82.79l-.15.22c-.09.65-.39.94-.88.94-.08.4-.16.81-.24,1.21.29.23.45.54.49.91.53.1.84.41.95.94.3.16.66.26.89.49,2.41,2.46,4.81,4.93,7.19,7.42,3.58,3.74,7.14,7.49,10.7,11.24.72.75,1.52,1.4,2.45,1.88,1.27.66,1.51,1.77,1.33,3.06-.02.18-.04.35-.08.52-.22.86-.14,1.7.17,2.53.11.32.15.67.22,1.01.56.11.9.43.95,1.01.63.27.74.32.74.77,0,.1,0,.22-.01.37.22.46.25,1.06.08,1.06.4.47.79.93,1.19,1.4.56-.13.92.01.92.63v.05c.73.14,1.01.65,1.08,1.32.52.03.77.31.78.81l.27.18c.35-.06.61.06.69.37.15.62-.02,1.14-.56,1.52.19.27.34.6.6.8.55.43,1.1.84,1.43,1.47.63,1.23,1.3,2.45,1.87,3.7.36.78.28,1.75.84,2.43.42.5.8,1.04,1.16,1.58l-7.03,13.65-14.34,25.95-8.88,17.76-10.24,28.68-10.25,26.63-12.29,17.76-8.88,15.02-10.92,16.39-16.71,7.35c-.84-.23-1.61-.62-2.31-1.23-.51-.46-1.05-.89-1.62-1.28-.58-.4-1.29-.59-1.97-.54-1.55.11-3.12.23-4.64.51-2.05.38-4.09.73-6.16.89-.88.07-1.67.43-2.47.74-1.5.57-1.51.54-4.52.48-.68-.01-1.38.07-2.06-.01-1.05-.12-2.01-.5-2.63-1.46-.28-.43-.62-.82-.89-1.26-1.23-2.03-2.9-3.4-5.35-3.65-.52-.05-1-.31-1.36-.69-.38-.41-.86-.61-1.37-.65-1.21-.09-2.43,0-3.63-.16-2.4-.33-4.79-.71-7.16-1.18-1.22-.24-2.39-.34-3.59-.03-.33.09-.68.13-1.02.16-1.23.11-2.43.02-3.5-.69-.97-.65-1.99-.45-2.97-.09-.81.29-1.56.74-2.37,1.01-.65.22-1.35.31-2.03.4-1.22.16-2.29.77-3.45,1.09-.68.18-1.35.25-2.05.1-1.18-.24-2.39-.4-3.56-.69-1.22-.29-2.21-.97-2.88-2.06-.63-1.03-1.23-2.08-1.88-3.09-.39-.59-.96-.99-1.6-1.29-.64-.31-1.32-.48-2-.26-.99.31-1.97.66-2.92,1.07-.94.41-1.67,1.22-2.67,1.56-.44.14-1.16-.18-1.17-.59-.01-.17-.07-.34-.06-.51.03-.34.1-.68.16-1.02.33-1.74-1.09-2.84-2.22-2.89-.34-.01-.69-.06-1.03-.02-1.38.13-2.75.3-4.12.45-1.34-.5-2.71-.39-4.1-.32-1.04.05-2.1-.07-3.05-.5-1.3-.58-2.63-.8-4.04-.81-.86-.01-1.72-.1-2.59-.17-1.1-.09-1.92-.82-2.11-1.91-.15-.85-.26-1.7-.63-2.5-.51-1.1-.97-2.22-1.36-3.37-.41-1.2-1.15-2.12-2.18-2.8-.76-.51-1.29-1.15-1.57-1.99-.32-.98-.61-1.98-.84-2.99-.06-.3.03-.71.2-.98.44-.73,1-1.4,1.43-2.14.15-.27.17-.69.08-1-.14-.49-.33-1.01-.65-1.4-.53-.67-1.18-1.25-1.78-1.87-.49-.5-.89-1.04-.97-1.77-.06-.52-.16-1.03-.22-1.54-.2-1.58-.71-3.03-1.83-4.21-.11-.12-.18-.29-.27-.44-.46-.77-.67-1.6-.55-2.48.17-1.37.44-2.73.61-4.1.26-2.08.09-4.1-.59-6.13-.92-2.79-1.62-5.64-2.42-8.47-.19-.69-.54-1.29-1.1-1.71-1.13-.86-1.82-2.05-2.63-3.17-.44-.6.05-.93.2-1.36.36-1,.33-1.11-.69-1.41-.49-.15-1-.23-1.48-.42-.79-.32-1.58-.65-2.31-1.08-.21-.12-.33-.63-.27-.91.12-.48.42-.92.64-1.38-.43-.29-.88-.54-1.28-.87-.53-.44-1-.94-1.51-1.41-.4-.36-.88-.49-1.42-.45-.87.06-1.71-.01-2.46-.57-.71-.52-1.53-.79-2.42-.77-2.09.04-4.15-.17-6.2-.51-.68-.12-1.37-.26-2.06-.28-2.1-.06-4.12-.5-6.09-1.17-2.25-.77-4.43-.5-6.61.23-.16.05-.33.1-.48.19-1.23.73-2.56.97-3.98.93-.51-.01-1.04.06-1.54.16-.33.06-.71.18-.93.4-1.48,1.49-3.21,2.61-5.05,3.59-.61.32-1.28.61-1.76,1.08-1.58,1.59-3.55,1.98-5.66,2.17-1.54.14-3.1.16-4.6.71-1.16.43-2.4.07-3.61.08-.5,0-1.08.07-1.49.32-1.32.81-2.62,1.67-3.69,2.81-.35.38-.49.83-.4,1.4.37,2.52-.78,4.37-2.77,5.72-2.3,1.57-4.86,1.7-7.47,1.01-1-.26-1.96-.68-2.94-1.03-1.3.13-2.59.26-3.89.4-.28.82-.76,1.54-1.28,2.23-.22.29-.47.51-.83.58-.34.07-.67.17-1.01.2-1.79.17-3.32.87-4.7,2.01-.93.76-1.94,1.44-2.9,2.18-2.61,2-5.33,3.81-8.32,5.22-.62.29-1.19.69-1.79,1.04-.46.27-.98.42-1.49.28-1.36-.38-2.74-.3-4.12-.21-1.04.06-2.08.12-3.09-.15-.32-.09-.68-.24-.88-.48-.54-.66-.98-1.42-1.52-2.08-.68-.84-1.59-1.37-2.66-1.44-1.38-.09-2.77-.04-4.15-.08-.52-.01-1.04-.08-1.54-.19-.51-.11-.98-.36-1.31-.78-.42-.54-.83-1.1-1.2-1.68-.37-.58-.63-1.23-1.04-1.79-.86-1.18-1.99-1.89-3.54-1.68-.17.02-.34.05-.51.08-1.53.31-3.11.68-4.63.4-1.86-.34-3.75-.63-5.52-1.36-.32-.13-.64-.26-.97-.37-.68-.22-1.35-.15-2.04-.01-1.19.24-2.19,1.02-3.42,1.18-1.02.13-2.03.41-3.04.64-1.03.25-2.07.28-3.06-.11-1.01-.4-1.99-.43-3.03-.15-.52.13-1.06-.06-1.48-.36-1.68-1.21-3.45-2.27-5.28-3.26-1.82-.98-3.53-2.16-5.14-3.47-.55-.45-.92-1.03-1.03-1.74-.07-.52-.09-1.04-.15-1.55-.2-1.74-1.31-2.76-2.8-3.44-.47-.21-.99-.31-1.48-.47-4.01-1.36-12.16-3.77-16.39-4.83-.69-.17-1.29-.49-1.73-1.05-.55-.7-1.24-1.18-2.1-1.42-1.18-.34-2.24-.85-2.96-1.92-.3-.44-.81-.66-1.32-.77-1.04-.21-1.96-.67-2.78-1.32-4.69-3.79-4.46-3.29-8.95-5.06-.8-.32-1.59-.68-2.32-1.14-.43-.26-.64-.8-.66-1.33-.02-.37.54-1.03.88-1.19.81-.38,1.7-.24,2.53-.42.39-.08.62-.32.69-.62.1-.37.01-.71-.28-.95-.26-.2-.55-.39-.84-.55-.6-.34-1.23-.63-1.82-.99-.28-.18-.63-.41-.74-.7-.68-1.85-2.37-2.93-3.41-4.5-.71-.12-1.17-.65-1.69-1.05-1.35-1.07-2.86-1.77-4.57-1.99-2.18-.28-4.26-1.01-6.46-1.24-.99-.11-1.92-.57-2.68-1.29-.71-.5-1.44-.96-2.11-1.49-1.23-.96-2.38-2.03-3.64-2.93-2.16-1.55-4.55-2.51-7.27-2.22-1.39.15-2.74.15-4.11-.18-.65-.16-1.38-.1-2.06-.02-1.03.13-2.06.31-3.06.55-1.21.3-2.39.25-3.59-.03-1.01-.24-2.04-.42-3.06-.55-.91-.12-1.63-.52-2.23-1.18-.5-.55-1.14-.76-1.84-.83-1.47-.15-2.6-.86-3.46-2.05-.1-.14-.21-.27-.3-.41-.46-.69-1.09-.72-1.81-.55-.93.22-1.03.2-1.26-.23-.39-.76-.74-1.55-1.14-2.31-.41-.76-.85-1.5-1.27-2.25-.85-1.51-1.8-2.94-3.11-4.12-.87-.8-.89-1.81-.6-2.87.14-.5.29-.99.42-1.49.17-.73-.14-1.35-.44-1.98-.07-.15-.18-.3-.29-.42-.96-.99-1.99-1.92-2.88-2.97-.78-.91-1.47-1.91-2.35-2.75-.64-.6-1.11-1.33-1.48-2.12-.66-1.41-1.3-2.82-1.94-4.24-.64-1.43-1.02-2.93-1.01-4.51.01-.87.01-1.73-.01-2.6-.01-.51-.02-1.03-.08-1.55-.21-1.96-.99-3.65-2.44-5.01-.64-.6-1.32-1.12-2.2-1.3-1.35-.28-2.72-.52-4.07-.82-.32-.07-.68-.24-.88-.48-.9-1.05-1.77-2.12-2.61-3.22-.66-.85-.9-1.84-.85-2.92.03-.61.83-1.3,1.41-1.17.68.16,1.28.47,1.85.88.54.39.87.31,1.32-.2.46-.51.92-1.03,1.33-1.58.53-.71.5-1.81-.07-2.39-.6-.6-1.3-1.1-1.69-1.91-.12-.26-.51-.41-.81-.56-.46-.23-.91-.44-1.28-.83-.62-.66-1.44-.9-2.35-.86-1.38.08-2.76.18-4.12.49-.5.12-1.02.2-1.53.19-.72-.01-1.41-.29-1.77-.9-.65-1.1-.66-2.31-.16-3.49.34-.81,1-1.39,1.55-2.05.45-.57.52-1.26.06-1.9-.42-.59-.59-1.26-.52-1.96.15-1.39,0-2.76-.2-4.13-.12-.88-.5-1.64-1.04-2.33-.31-.41-.65-.81-1.22-.87-.17-.01-.33-.09-.49-.16-1.32-.54-2.06-1.82-3.25-2.54-.59-.35-1.05-.87-1.41-1.49-.26-.45-.55-.88-.88-1.27-.78-.95-1.71-1.7-2.91-2.08-1.2-.37-2.16-1.01-2.7-2.23-.19-.46-.59-.85-.95-1.22-1.35-1.36-2.51-2.86-3.46-4.52-1.15-1.99-2.58-3.65-4.69-4.68-.61-.3-1.13-.8-1.62-1.28-.62-.61-1.12-1.29-1-2.26.26-2.09-.19-4.11-.62-6.13-.15-.69-.34-1.29-.79-1.86-.74-.95-1.4-1.96-2.08-2.96-.21-.3-.49-.46-.84-.58-1.86-.63-3.74-.59-5.62-.13-.5.12-.99.31-1.44.56-2.44,1.31-4.85,2.65-7.28,3.98-2.57,1.41-5.14,2.83-7.73,4.22-.45.24-.96.39-1.47.48-.9.17-1.73-.06-2.36-.74-.59-.64-1.01-1.4-1.12-2.29-.08-.68-.1-1.37-.21-2.05-.15-.87-1.34-1.99-2.15-2.01-1.04-.02-2.11.18-3.1-.01-1.94-.37-3.77-.07-5.61.46-.63.19-1.44-.27-1.68-.89-.06-.16-.11-.32-.13-.49-.1-.71-.52-1.27-.82-1.88-.47-.95-.46-.96-1.47-.64-.33.1-.66.24-.99.27-.33.03-.78.06-.99-.12-.95-.82-2.12-1.14-3.22-1.61-.79-.34-1.55-.76-2.34-1.12-.81-.36-1.44-.9-1.79-1.75-.41-.98-1.02-1.78-2.01-2.27-.62-.31-1.2-.69-1.8-1.04-.14-.08-.29-.22-.43-.21-.16,0-.3.17-.45.25-1.56.85-2.12,2.19-1.88,3.9.04.32.22.64.42.91.19.28.45.54.73.72,1.63,1.02,2.16,2.64,2.46,4.38.08.5.19,1.1-.01,1.53-.61,1.33-.4,2.71-.46,4.08-.04.96-1.49,2.34-2.48,2.35-.26,0-.52.01-.78.01l-2.06-21.86-37.9-78.53-50.2-47.47-13.31-12.63-24.59-28-19.12-12.63-22.88-14.69-22.88-11.95-49.85-24.58-25.27-16.39-38.24-21.17-20.83-8.54-26.97-6.83-94.93-8.88-45.07-3.41-26.63-1.37-5.47-8.19-2.73-10.24-3.41-1.37-.69-15.02,13.66-3.42,12.3-2.05h4.78l9.56-4.1,3.41-1.36h3.42l.68-.68,1.36-1.37,4.78-4.1,1.37-1.36,2.73-6.15,2.73-3.41,6.83-3.42,2.05-3.41-4.78-3.42,2.05-6.14-4.78-2.05-4.78-.69-1.37-1.36-5.46-2.05-12.29-.68-12.29-2.05-15.03-2.73-12.29-2.05-15.03-4.1-12.97-.68-8.88-3.42-6.83-2.73-7.51-2.73h-11.61l-6.83,1.37-5.46,2.04-5.46,6.15-3.42,6.15-4.78,4.78-3.41,2.05-8.2,1.36-8.19-4.78-6.83-4.78-9.56-6.15-6.15-6.14-9.56-6.83-8.88-2.73-4.1-.69-4.09-2.04-6.83-5.47-10.25-5.46-13.65-10.24-6.83-4.1-2.05-8.88v-10.24l6.83-10.25-2.05-2.05.68-6.82.68-1.37h.69l4.78-10.93,4.09-4.78,6.15-1.36,7.51-1.37,10.25-.68,13.65-2.73,12.3-7.52,6.14-4.78,1.37-8.19-5.46-4.1-5.47-3.41,5.47-5.47,3.41,1.37h4.78l6.15-7.51,5.46-4.1,8.2,4.78,5.46,8.2,7.51-2.05,2.81-1.5c.34.33.68.65,1.02.97.37.34.85.59,1.32.78.64.26,1.33.39,1.98.62.49.18.93.45,1.21.91.09.15.18.3.28.44,1.34,1.77,3.09,2.69,5.34,2.54.52-.03,1.04-.08,1.54-.18,1.74-.34,3.28-1.04,4.41-2.48.86-1.08,1.76-2.13,2.68-3.16.5-.55,1.26-.76,1.9-.51,1.32.5,2.67.65,4.05.76,1.41.11,2.81.25,4.19.64l.05.17,5.46,2.05.09-.02c.96.44,1.93.87,2.89,1.34.46.23.77.71.89,1.22.12.5.15,1.03.23,1.54.05.34.03.73.2,1,.27.43.59.93,1.02,1.13,1.73.8,3.53,1.41,5.47,1.42,1.39.01,2.77.06,4.15.07.9.01,1.63.3,2.35.87.82.65,1.87.86,2.91.99.69.08,1.42.05,2,.45,1.01.69,2.18,1.06,3.23,1.65.73.42,1.32,1.09,2.03,1.59.58.4,1.26.53,1.97.47,1.26-.12,2.35-.58,3.16-1.57.66-.8,1.31-1.61,1.94-2.43.59-.74,1.31-1.14,2.24-.8.84.31,1.69.26,2.55.29,1.14.04,1.42.34,1.51,1.57.12,1.57,1.02,2.57,2.45,2.96,1.04.28,1.95.67,2.67,1.46.25.27.53.4.91.42.86.03,1.72.11,2.59.14,3.47.14,6.89.64,10.2,1.65,1.37.42,2.7.58,4.08.38.91-.13,1.76-.06,2.57.25l-.74,5.17-3.41,20.49-2.05,14.34,8.88,9.56,10.92,6.83,10.25,4.78,28.68,6.83h2.73l13.66,4.1h12.29l21.17-6.83,9.56-3.41,16.39-4.1,18.44-8.88,23.22-4.78,19.81-1.37,17.75-5.46,30.73-3.41,17.07-2.05,5.85-1.17c.61.82,1.21,1.65,1.97,2.34.69.19.98.63.95,1.35-.02.62.04,1.24.07,1.86l.03.02c.26.16.57.28.77.5.48.53.27,1.35-.37,1.54-.47.14-.95.21-1.42.31-.32,1.24.41,1.93,1.34,2.49.29.18.62.3.95.42.32.11.66.27.99.27,1.96.03,3.68.79,5.38,1.67.6.31,1.3.43,1.71,1.06.32.09.64.19.97.29,1.2-.22,2.42.07,3.61-.06,1.03-.1,2.05-.23,3.09-.21.86,0,1.72.06,2.58.1.68-.06,1.37-.19,2.05-.17,1.74.07,3.43-.11,5.1-.61,1.37-.42,2.68-.13,4.06.19,1.7.39,3.04,1.66,4.81,1.8.92.47,1.83.96,2.76,1.41,1.57.77,2.57,2.25,4,3.21.5,1.34,1.84,2.04,2.5,3.26.24.46.6.82,1.08,1.06.93.45,1.71,1.15,2.75,1.4.47.12.92.47,1.29.81,1.14,1.05,2.19,2.19,3.35,3.22.92.81,1.63,1.75,2.21,2.82.35.63.86,1.04,1.59,1.19,1.51.3,2.35,1.35,2.85,2.71.3.8.59,1.62.79,2.45.33,1.38,1.1,2.51,1.89,3.64.28.41.69.78,1.11,1.04.73.46,1.55.77,2.27,1.22,2.56,1.61,4.33,3.89,5.48,6.66.14.31.17.66.26,1,.13.54.49.96,1.01,1.04,1.87.3,3.62,1.13,5.54,1.2,1.75.07,2.76,1.25,3.57,2.59.36.59.68,1.17,1.19,1.65.24.23.44.53.6.83.15.3.23.65.33.97,1.07.33,1.8.95,1.9,2.14.08.97.73,1.55,1.55,1.84,1.92.68,3.87,1.26,5.95,1.42,1.87.14,3.74.39,5.62.44.48.02.96.3,1.44.46.51.06,1.05.04,1.52.2,1.31.45,2.63.73,4,.89,2.38.28,4.7.97,7.1,1.13,1.31.41,2.61.84,3.92,1.22.82.24,1.65.48,2.5.57,1.9.21,3.76-.03,5.49-.93.61-.31,1.2-.66,1.82-.93,1.76-.78,3.64-.94,5.53-1.02.33-.01.68.07,1,.18,1.3.42,2.62.81,3.89,1.32,1.54.63,3,.47,4.45-.23.15-.07.33-.08.5-.12.12-.28.33-.4.63-.36.18-.63.56-1.07,1.17-1.3.47-1.78,1.65-2.93,3.26-3.69.31-.15.64-.24.95-.37.57-.22,1.07-.54,1.55-.89l2.52,3.53,10.25,10.93,41.65,35.51h.69l21.85,18.44,30.05,13.66,20.49,12.29h19.8l13.66-8.19,13.63,3.71c.11.21.23.43.35.64.62,1.07,1.44,1.95,2.44,2.66.7.51,1.45.95,2.17,1.42.58.37,1.16.75,1.73,1.14,1.41.97,2.44,2.4,4.16,3.03.87.32,1.69.74,2.51,1.19.7.37,1.4.76,2.12,1.11.77.38,1.62.6,2.37,1.01.75.41,1.38,1.04,2.13,1.47.9.51,1.84.96,2.79,1.35,3.53,1.45,6.91,3.15,10.19,5.1,3,1.78,6.26,2.81,9.74,3.31,5.13.75,10.29,1.37,15.28,2.83,2.73.47,5.4,1.15,8.17,1.45,2.74.31,5.48.74,8.15,1.52,1.49.43,3.03.69,4.55,1.04.68.16,1.37.14,2.06.05.85-.12,1.71-.36,2.56-.38,6.35-.15,4.92-.64,11.12-2.3,3.35-.9,6.73-1.59,10.14-2.15,4.95-.81,9.89-1.64,14.86-2.32,1.54-.21,3.02-.81,4.59-.82.51.04,1.03.18,1.52.09,3.69-.69,7.33-1.6,10.94-2.67.3-.09.54-.39.81-.6l.17-.03c.5.03,1.02.17,1.5.1,2.49-.41,4.98-.84,7.46-1.33.47-.09.87-.48,1.3-.74l.18-.02c.5.05,1.01.18,1.5.14,1-.09,2.02-.18,2.99-.42,2.64-.65,5.32-.78,8.02-.84.42-.01.82.05,1.21.16-1.19-.5-2.63-1.08-1.66-1.12,2.56-.09,5.13-.16,7.69-.21,3.08-.06,6.15-.39,9.21-.66,2.38-.2,2.38-.22,4.81-1.52.48-.26.67-.71.66-1.25,0-.17-.01-.34-.02-.51-.16-.5-.21-.98-.04-1.5.15-.47.32-.94-.01-1.47-.63-1.03-1.15-2.1-1.47-3.29-.55-1.98-1.06-4-2.03-5.84-.75-1.42-.9-2.95-.82-4.52.02-.38.59-.98.97-.98,1.41-.02,2.81.03,4.21.11,1.35.08,2.71.19,4.05.32,1.21.12,2.41.24,3.61.33.7.04,1.37-.11,2-.43.31-.15.64-.28.93-.46.91-.58,1.89-.77,2.96-.71,1.58.1,3.05-.23,4.49-.96,2-1,4.08-1.83,6.11-2.79.98-.47,1.98-.55,3.02-.42.68.09,1.36.27,2.05.28.5.01,1.05-.07,1.49-.3,1.68-.87,3.33-1.8,4.99-2.72,1.31-.74,1.65-1.14,2.31-2.66.49-1.16.67-2.32-.08-3.45-.42-.62-.45-1.28-.17-1.95.06-.16.15-.32.22-.47.46-.92.55-1.99,1.24-2.82.9-1.1,2.07-1.82,3.27-2.49,1.35-.76,2.71-1.52,4.09-2.22,1.26-.62,2.42-1.39,3.32-2.43.92-1.07,2.09-1.75,3.18-2.57.97-.73,1.85-1.45,3.13-1.62,1.19-.15,2.35-.53,3.31-1.34.13-.11.28-.23.44-.27,3.08-.69,5.77-2.23,8.42-3.86.61-.37,1.29-.5,1.98-.53,3.63-.18,7.18-.89,10.74-1.53,1.93-.34,3.77-.32,5.62.28.65.22,1.33.37,1.96.64.97.43,1.98.54,3.03.59.68.03,1.4.1,2.02.35,1.35.52,2.67.59,4.06.26.11-.03.23-.04.35-.04.22,0,.45.03.67.04,2.01-.64,4.04-.9,6.12-.32,1.2-.18,2.37.4,3.59.18,1.01-.19,2.04-.28,3.05-.48.31-.07.6-.33.83-.57.51-.53.72-1.16.41-1.86-.21-.47-.46-.92-.69-1.38-.19-.39.04-1.07.41-1.38,1.06-.88,2.19-1.66,3.41-2.3.78-.41,1.59-.71,2.45-.77,1.37-.1,2.75-.15,4.13-.16.86-.01,1.69.24,2.49.58.67.28,1.33.27,2.02.05,1.31-.41,2.61-.86,3.95-1.19,1-.26,2.05-.28,3.01.27.29.17.59.36.89.52,1.05.59,2.14,1.05,3.36,1.25,1.36.21,2.68.61,4.02.93,1.03-.26,2.05-.08,3.05.15.67.15,1.31.41,1.98.54.32.06.7,0,1-.11,1.62-.63,3.07-1.52,4.24-2.83.75-.84,1.71-1.07,2.79-.93.52.07,1.02.25,1.33.67.62.82,1.2,1.67,1.73,2.55.62,1.03,1.3,2.02,2.2,2.83.9.83,1.38,1.95,2.05,2.94.53.76.5,1.61.3,2.47-.07.33-.21.65-.3.98-.29,1.06.19,2.08,1.24,2.47,1.93.7,3.83,1.51,5.86,1.88.17.03.34.07.51.09,1.52.2,3.09-.26,4.6.26,1.33.45,2.7.39,4.07.31.69-.05,1.38.05,2.02.32.94.4,1.97.59,2.81,1.21.98.27,1.88.79,2.96.7,1.74-.16,3.39.22,4.97.98.3.15.64.21.97.31,1.79.58,3.35,1.71,5.23,2.06,1.68.31,3.35.67,5.02,1.02.54.12.88.53,1.1.99.36.77.64,1.58.95,2.37.12.32.22.65.36.96.39.83,1.1,1.28,1.96,1.48.5.12,1.01.18,1.52.21,1.21.05,2.37.27,3.47.78.63.29,1.32.33,2.01.32.68-.01,1.37-.04,2.05-.07.64-.03.96-.04,1.38-.17.42-.14.94-.39,1.98-.89.13-.3.23-.61.39-.9.6-1.08,1.92-1.5,2.92-.85.82.52,1.72.96,2.32,1.77l.08.05c.79.03,1.54.17,2.11.77.65-.2,1.3-.16,1.94.05.82-.77,1.83-.89,2.88-.87.54.01,1.02-.18,1.4-.55.67-.66,1.4-.91,2.32-.56,1.62.61,3.28,1.06,5,1.27.7.08,1.29.43,1.79.94,1.74.17,3.35.66,4.82,1.69,2.12,1.48,4.4,2.72,6.77,3.8.64.29,1.3.31,2,.07.64-.23,1.33-.41,2-.48.7-.07,1.35.15,1.92.61.86.68,1.39,1.51,1.44,2.63.04.86,0,1.71-.11,2.57-.19,1.4.12,2.75.74,4.02.3.61.62,1.21,1.24,1.62.87.56,1.7,1.19,2.54,1.79.61.44.85,1.05.76,1.79-.02.17-.01.35-.02.52,1.03.66,2.07,1.21,3.38.95,1.19-.23,1.96.42,2.47,1.43.15.31.27.64.43.94.08.15.21.27.32.4.24.26.61.44.93.24,1.27-.77,2.55-.83,3.94-.33.97.35,2,.51,3,.78,1.17.33,2.29.76,3.32,1.44.71.48,1.43.96,2.2,1.36,1.07.55,2.19,1.02,3.43,1.09.52.02,1.04.08,1.55.16,1.61.24,2.9,1.05,3.88,2.35.2.27.39.57.56.87,1.51,2.75,3.55,5.09,5.83,7.22.76.7,1.48,1.45,2.17,2.22.21.23.26.62.37.94.38.02.59.22.63.59.62.22.95.63.9,1.31.28.4.65.76.84,1.2.55,1.23,1.36,2.22,2.41,3.04,5.15-.06,8.57,2.4,9.18,2.9-.56-.48-.75-1.12-.82-1.82,1.67-.03,3.34-.07,5.01-.11,1.17-.02,2.34-.04,3.51-.08.7-.02,1.27-.34,1.75-.83.34-.05.68-.14,1.02-.14,4.99-.07,9.97-.12,14.95-.19,1.72-.02,3.44.08,5.14.31.73.09,1.29.43,1.56,1.13.19.48.33.98.51,1.46.25.67.31,1.32.06,2-.17.49-.47.99-.45,1.47.09,1.58-.38,3.04-.77,4.53-.21.83-.25,1.7-.3,2.55-.06.87.14,1.72.5,2.5.43.93,1.19,1.69,1.34,2.75.12.86.48,1.64.83,2.43.2.46.34.97.45,1.47.4,1.72.37,3.38-.56,4.98-.43.75-1.06,1.41-1.32,2.19s-.41,1.63-.97,2.32c-.4.51-.33,1,.09,1.23.46.24.93.45,1.38.69.94.5,1.63,1.26,2.21,2.11.18.26.16.65.23.98h-.02c.46.57.69,1.2.69,1.89,0,.19-.01.38-.05.58.56,1.06.44,2.13.07,3.21,0,.5.09,1.02-.02,1.5-.2.82-.59,1.59-.76,2.41-.09.47-.02,1.06.2,1.47.48.9,1.16,1.68,1.64,2.57.57,1.06.87,2.2.39,3.41.11.48.05.96-.25,1.35-.47.65-1.04,1.22-1.48,1.89-.35.52-.55,1.13-.84,1.7-.07.13-.23.22-.34.33-.07,1.05-1.08,1.72-1.15,2.76-.07.84-.07,1.69-.13,2.53-.07,1-.94,1.78-2.06,1.85-.33.02-.67-.06-1.01-.09-.63.33-1.11.84-1.17,1.56-.08,1.01-.05,2.03-.06,3.05,0,.16.03.34.09.49.13.31.27.62.43.92.25.44.58.86.75,1.33.3.81.41,1.68.02,2.49-.53,1.08-1,2.16-1.17,3.37-.09.66-.4,1.3-.63,1.94-.34.97-.81,1.9-1,2.9-.19.99-.09,2.03-.12,3.06-.01.17-.05.33-.08.5-.09.7-.34,1.33-.89,1.79-1.46,1.19-2.34,2.95-3.99,3.95-.24.15-.37.58-.42.91-.13.84-.15,1.69-.28,2.53-.08.54-.49.89-.96,1.12-.3.14-.64.21-.97.3-.49.13-.99.26-1.38.64-.12.11-.27.2-.38.33-1.73,2.13-3.97,3.18-6.71,3.25-.5.01-1.01.16-1.52.24-.11.89.09,1.67.69,2.37.44.54.88,1.05,1.51,1.39.3.16.6.35.86.57.25.23.5.49.67.78,1.08,1.79,2.88,2.99,3.89,4.82.07.13.05.32.04.48-.04.43-.26.63-.65.65-.69.04-1.37.11-2.06.14-2.25.11-4.5.19-6.74.32-.5.03-1,.2-1.32.69-.8,1.21-1.97,1.88-3.4,2.1-1.03,1.15-2.09,2.28-3.1,3.46-1.07,1.24-1.49,2.74-1.39,4.34.14,2.24.3,4.48.76,6.69.35,1.69.61,3.4.9,5.1.2,1.23-.01,2.41-.52,3.54-.14.32-.3.62-.47.93-.91,1.67-.64,3.34.04,4.99.19.47.5.92.84,1.29.82.9,1.77,1.67,2.87,2.19,1.72.82,3.51,1.48,5.45,1.54,1.56.05,3.11,0,4.67.04,1.21.03,2.42.09,3.62.18.91.07,1.62.54,2.26,1.16.3.3.08,1-.34,1.27-.76.5-1.68.34-2.46.69-.28.12-.61.42-.67.7-.15.67-.12,1.37-.23,2.05-.09.51-.3.99-.79,1.28-1.94,1.18-3.57,2.7-5.03,4.43-1.9,2.25-3.82,4.48-5.84,6.61-1.3,1.37-1.65,2.9-1.62,4.7.02,1.41.46,2.73.54,4.11.69,1.01.97,2.2,1.37,3.32,2.24,6.32,4.4,12.67,6.65,18.99,1.49,4.22,2.71,8.52,4.09,12.77.67,2.04.69,4.06.45,6.12-.1.85-.37,1.68-.47,2.54-.12,1.06-.58,1.95-1.15,2.82-.28.42-.49.91-.42,1.46.06.51.1,1.02.16,1.54.2,1.53.3,3.07.19,4.63-.1,1.36-.11,2.76.06,4.12.3,2.4.5,4.78.04,7.18-.17.85.04,1.71.3,2.54.2.66.41,1.32.5,2,.07.49-.06,1.01-.1,1.52.11.33.24.65.31.98.24,1.12.97,1.87,2.05,1.99,3.9.44,7.77,1.15,11.69,1.39.69.04,1.34.24,1.87.71,2.6-.15,5.16.24,7.72.6,1.54.21,3.08.4,4.62.59,1.03.12,2.07.15,3.08.35,2.04.41,4.1.56,6.16.78,1.37.14,2.73.42,4.09.65,1.24.21,2.22.84,3.08,1.75.75.78,1.29,1.6,1.23,2.73-.03.51-.08,1.03-.08,1.55.01.69.16,1.35.53,1.96.54.89,1.37,1.69,1.45,2.72.14,1.79,1.09,3.25,1.64,4.87.41,1.19.56,2.31-.09,3.47Z" style="fill: none; stroke: #232323; stroke-linecap: square; stroke-linejoin: bevel; stroke-width: 1.47px;"/>
</svg>