<?xml version="1.0" encoding="UTF-8"?>
<svg id="a" data-name="Ebene 1" xmlns="http://www.w3.org/2000/svg" width="1920" height="1080" viewBox="0 0 1920 1080">
  <path d="M1884.31,926.31c-1.26.29-2.15,1-2.73,2.17-.32.63-.55,1.26-.56,1.96-.02.69.05,1.38.03,2.07-.05,1.78.42,3.4,1.3,4.94.33.59-.01,1.38-.66,1.7-.47.22-.94.47-1.43.59-1.21.32-1.59,1.18-1.64,2.31-.06,1.38-.12,2.76-.19,4.14-.05,1.04-.27,2.05-.6,3.04-.24.7-.83,1.26-1.46,1.26-1.89,0-3.79,0-5.69-.04-3.63-.08-7.26-.16-10.89-.3-1.44-.06-2.69.24-3.82,1.22-.8.7-1.83.94-2.9.9-.52-.02-1.04-.05-1.52.18-1.66.77-3.39,1.06-5.15,1.06-.65,0-1.3-.04-1.95-.11-.51.1-1.01.21-1.52.27-.69.09-1.36.24-1.93.64-.85.61-1.76,1.03-2.82,1.15-.88.09-1.62.56-2.33,1.05-.26.18-.59.48-.62.76-.13,1.07-.56,1.95-1.34,2.69-.67.64-.86,1.43-.73,2.34.05.33,0,.67,0,1.01-.01.38-.69.91-1.09.86-1.53-.2-3.05-.44-4.57-.6-.53-.05-1,.28-1.35.65-.23.23-.33.59-.46.91-.14.34-.34.6-.65.74-1.57.68-3.28.96-4.8,1.83-1.02.59-2.23.86-3.37,1.25-.32.11-.68.11-1.01.19-2.21.54-2.35.63-4.33,2.51-.62,4.45-1.3,8.89-2.05,13.33-.26,1.53-.4,3.08-.71,4.6-.13.67-.6,1.25-1.31,1.5-.49.17-.99.28-1.49.45-.32.11-.63.25-.94.39-.52.24-1.05,1.17-.95,1.73.14.84.3,1.69.51,2.53.24.9.09,1.73-.43,2.46-.73,1.01-1.15,2.08-1.17,3.35-.07,4.67-.71,9.31-1.01,13.97-.06,1.06-.43,2.01-.97,2.92-.31.54-.5.62-1.15.37-1.11-.44-1.11-.42-1.99.72-.21.27-.45.52-.71.74-.27.22-.55.52-.45.86.09.31.1.59.07.85,0,.06-.02.12-.03.18-.03.14-.07.28-.13.4-.03.07-.06.14-.09.21-.03.06-.07.12-.1.19-.07.12-.15.25-.23.37l-15.53.24c-.05-.06-.1-.13-.15-.2-.19-.28-.39-.57-.63-.82-.24-.24-.5-.51-.81-.62-1.13-.43-2.27-.84-3.43-1.17-1.99-.57-3.96-1.17-6.06-1.35-2.06-.17-4.12-.54-6.14-1.02-2.7-.64-5.42-1.09-8.17-1.44-.34-.05-.67-.18-1-.25-.55-.12-.92-.48-1.16-.94-.74-1.39-1.18-2.85-1.12-4.46.03-.72-.43-1.28-.96-1.76-.13-.11-.25-.23-.38-.35-.99-.82-2.09-1.2-3.37-.81-.66.2-1.3.49-1.98.61-1.51.27-2.37,1.32-3.14,2.49-.24.36-.13,1.12.22,1.41.53.44,1.09.85,1.61,1.31.26.23.46.67.28.86-.18.19-.68.25-.97.16-1.63-.53-3.22-1.2-4.97-1.3-.36-.03-.64-.25-.86-.54-.32-.41-.63-.83-.97-1.21-.36-.4-.84-.61-1.38-.54-.68.08-1.36.22-2.03.37-.43.1-.66.56-.61,1.23.06.83-.45,1.29-1.16,1.07-.66-.2-1.32-.41-1.98-.6-.83-.24-1.62-.54-2.36-1.03-.4-.26-1-.35-1.49-.32-1.72.12-3.45.28-5.16.52-.67.09-1.34.37-1.96.66-.88.42-1.71.21-2.48-.19-.76-.39-1.45-.92-2.15-1.42-.58-.42-1.22-.66-1.92-.66-1.56,0-3.11,0-4.67.04-1.56.03-3.11.09-4.67-.1-1.4-.17-2.69-.57-3.78-1.53-.51-.46-1.05-.89-1.62-1.28-.58-.4-1.29-.59-1.97-.54-1.55.11-3.12.23-4.64.51-2.05.38-4.09.73-6.16.89-.88.07-1.67.43-2.47.74-1.5.57-1.51.54-4.52.48-.68,0-1.38.07-2.06,0-1.05-.12-2.01-.5-2.63-1.46-.28-.43-.62-.82-.89-1.26-1.23-2.03-2.9-3.4-5.35-3.65-.52-.05-1-.31-1.36-.69-.38-.41-.86-.61-1.37-.65-1.21-.09-2.43,0-3.63-.16-2.4-.33-4.79-.71-7.16-1.18-1.22-.24-2.39-.34-3.59-.03-.33.09-.68.13-1.02.16-1.23.11-2.43.02-3.5-.69-.97-.65-1.99-.45-2.97-.09-.81.29-1.56.74-2.37,1.01-.65.22-1.35.31-2.03.4-1.22.16-2.29.77-3.45,1.09-.68.18-1.35.25-2.05.1-1.18-.24-2.39-.4-3.56-.69-1.22-.29-2.21-.97-2.88-2.06-.63-1.03-1.23-2.08-1.88-3.09-.39-.59-.96-.99-1.6-1.29-.64-.31-1.32-.48-2-.26-.99.31-1.97.66-2.92,1.07-.94.41-1.67,1.22-2.67,1.56-.44.14-1.16-.18-1.17-.59-.01-.17-.07-.34-.06-.51.03-.34.1-.68.16-1.02.33-1.74-1.09-2.84-2.22-2.89-.34-.01-.69-.06-1.03-.02-1.38.13-2.75.3-4.12.45-1.34-.5-2.71-.39-4.1-.32-1.04.05-2.1-.07-3.05-.5-1.3-.58-2.63-.8-4.04-.81-.86,0-1.72-.1-2.59-.17-1.1-.09-1.92-.82-2.11-1.91-.15-.85-.26-1.7-.63-2.5-.51-1.1-.97-2.22-1.36-3.37-.41-1.2-1.15-2.12-2.18-2.8-.76-.51-1.29-1.15-1.57-1.99-.32-.98-.61-1.98-.84-2.99-.06-.3.03-.71.2-.98.44-.73,1-1.4,1.43-2.14.15-.27.17-.69.08-1-.14-.49-.33-1.01-.65-1.4-.53-.67-1.18-1.25-1.78-1.87-.49-.5-.89-1.04-.97-1.77-.06-.52-.16-1.03-.22-1.54-.2-1.58-.71-3.03-1.83-4.21-.11-.12-.18-.29-.27-.44-.46-.77-.67-1.6-.55-2.48.17-1.37.44-2.73.61-4.1.26-2.08.09-4.1-.59-6.13-.92-2.79-1.62-5.64-2.42-8.47-.19-.69-.54-1.29-1.1-1.71-1.13-.86-1.82-2.05-2.63-3.17-.44-.6.05-.93.2-1.36.36-1,.33-1.11-.69-1.41-.49-.15-1-.23-1.48-.42-.79-.32-1.58-.65-2.31-1.08-.21-.12-.33-.63-.27-.91.12-.48.42-.92.64-1.38-.43-.29-.88-.54-1.28-.87-.53-.44-1-.94-1.51-1.41-.4-.36-.88-.49-1.42-.45-.87.06-1.71-.01-2.46-.57-.71-.52-1.53-.79-2.42-.77-2.09.04-4.15-.17-6.2-.51-.68-.12-1.37-.26-2.06-.28-2.1-.06-4.12-.5-6.09-1.17-2.25-.77-4.43-.5-6.61.23-.16.05-.33.1-.48.19-1.23.73-2.56.97-3.98.93-.51,0-1.04.06-1.54.16-.33.06-.71.18-.93.4-1.48,1.49-3.21,2.61-5.05,3.59-.61.32-1.28.61-1.76,1.08-1.58,1.59-3.55,1.98-5.66,2.17-1.54.14-3.1.16-4.6.71-1.16.43-2.4.07-3.61.08-.5,0-1.08.07-1.49.32-1.32.81-2.62,1.67-3.69,2.81-.35.38-.49.83-.4,1.4.37,2.52-.78,4.37-2.77,5.72-2.3,1.57-4.86,1.7-7.47,1.01-1-.26-1.96-.68-2.94-1.03-1.3.13-2.59.26-3.89.4-.28.82-.76,1.54-1.28,2.23-.22.29-.47.51-.83.58-.34.07-.67.17-1.01.2-1.79.17-3.32.87-4.7,2.01-.93.76-1.94,1.44-2.9,2.18-2.61,2-5.33,3.81-8.32,5.22-.62.29-1.19.69-1.79,1.04-.46.27-.98.42-1.49.28-1.36-.38-2.74-.3-4.12-.21-1.04.06-2.08.12-3.09-.15-.32-.09-.68-.24-.88-.48-.54-.66-.98-1.42-1.52-2.08-.68-.84-1.59-1.37-2.66-1.44-1.38-.09-2.77-.04-4.15-.08-.52-.01-1.04-.08-1.54-.19-.51-.11-.98-.36-1.31-.78-.42-.54-.83-1.1-1.2-1.68-.37-.58-.63-1.23-1.04-1.79-.86-1.18-1.99-1.89-3.54-1.68-.17.02-.34.05-.51.08-1.53.31-3.11.68-4.63.4-1.86-.34-3.75-.63-5.52-1.36-.32-.13-.64-.26-.97-.37-.68-.22-1.35-.15-2.04,0-1.19.24-2.19,1.02-3.42,1.18-1.02.13-2.03.41-3.04.64-1.03.25-2.07.28-3.06-.11-1.01-.4-1.99-.43-3.03-.15-.52.13-1.06-.06-1.48-.36-1.68-1.21-3.45-2.27-5.28-3.26-1.82-.98-3.53-2.16-5.14-3.47-.55-.45-.92-1.03-1.03-1.74-.07-.52-.09-1.04-.15-1.55-.2-1.74-1.31-2.76-2.8-3.44-.47-.21-.99-.31-1.48-.47-4.01-1.36-12.16-3.77-16.39-4.83-.69-.17-1.29-.49-1.73-1.05-.55-.7-1.24-1.18-2.1-1.42-1.18-.34-2.24-.85-2.96-1.92-.3-.44-.81-.66-1.32-.77-1.04-.21-1.96-.67-2.78-1.32-4.69-3.79-4.46-3.29-8.95-5.06-.8-.32-1.59-.68-2.32-1.14-.43-.26-.64-.8-.66-1.33-.02-.37.54-1.03.88-1.19.81-.38,1.7-.24,2.53-.42.39-.08.62-.32.69-.62.1-.37.01-.71-.28-.95-.26-.2-.55-.39-.84-.55-.6-.34-1.23-.63-1.82-.99-.28-.18-.63-.41-.74-.7-.68-1.85-2.37-2.93-3.41-4.5-.71-.12-1.17-.65-1.69-1.05-1.35-1.07-2.86-1.77-4.57-1.99-2.18-.28-4.26-1.01-6.46-1.24-.99-.11-1.92-.57-2.68-1.29-.71-.5-1.44-.96-2.11-1.49-1.23-.96-2.38-2.03-3.64-2.93-2.16-1.55-4.55-2.51-7.27-2.22-1.39.15-2.74.15-4.11-.18-.65-.16-1.38-.1-2.06-.02-1.03.13-2.06.31-3.06.55-1.21.3-2.39.25-3.59-.03-1.01-.24-2.04-.42-3.06-.55-.91-.12-1.63-.52-2.23-1.18-.5-.55-1.14-.76-1.84-.83-1.47-.15-2.6-.86-3.46-2.05-.1-.14-.21-.27-.3-.41-.46-.69-1.09-.72-1.81-.55-.93.22-1.03.2-1.26-.23-.39-.76-.74-1.55-1.14-2.31-.41-.76-.85-1.5-1.27-2.25-.85-1.51-1.8-2.94-3.11-4.12-.87-.8-.89-1.81-.6-2.87.14-.5.29-.99.42-1.49.17-.73-.14-1.35-.44-1.98-.07-.15-.18-.3-.29-.42-.96-.99-1.99-1.92-2.88-2.97-.78-.91-1.47-1.91-2.35-2.75-.64-.6-1.11-1.33-1.48-2.12-.66-1.41-1.3-2.82-1.94-4.24-.64-1.43-1.02-2.93-1.01-4.51.01-.87.01-1.73-.01-2.6-.01-.51-.02-1.03-.08-1.55-.21-1.96-.99-3.65-2.44-5.01-.64-.6-1.32-1.12-2.2-1.3-1.35-.28-2.72-.52-4.07-.82-.32-.07-.68-.24-.88-.48-.9-1.05-1.77-2.12-2.61-3.22-.66-.85-.9-1.84-.85-2.92.03-.61.83-1.3,1.41-1.17.68.16,1.28.47,1.85.88.54.39.87.31,1.32-.2.46-.51.92-1.03,1.33-1.58.53-.71.5-1.81-.07-2.39-.6-.6-1.3-1.1-1.69-1.91-.12-.26-.51-.41-.81-.56-.46-.23-.91-.44-1.28-.83-.62-.66-1.44-.9-2.35-.86-1.38.08-2.76.18-4.12.49-.5.12-1.02.2-1.53.19-.72,0-1.41-.29-1.77-.9-.65-1.1-.66-2.31-.16-3.49.34-.81,1-1.39,1.55-2.05.45-.57.52-1.26.06-1.9-.42-.59-.59-1.26-.52-1.96.15-1.39,0-2.76-.2-4.13-.12-.88-.5-1.64-1.04-2.33-.31-.41-.65-.81-1.22-.87-.17,0-.33-.09-.49-.16-1.32-.54-2.06-1.82-3.25-2.54-.59-.35-1.05-.87-1.41-1.49-.26-.45-.55-.88-.88-1.27-.78-.95-1.71-1.7-2.91-2.08-1.2-.37-2.16-1.01-2.7-2.23-.19-.46-.59-.85-.95-1.22-1.35-1.36-2.51-2.86-3.46-4.52-.01-.01-.02-.03-.02-.04l2.96-3.09-8.63-15.94-38.27-74.1-31.14-21.76-36.02-33.39-32.26-23.63-28.51-3.76-14.26-27.76-40.9-40.52-31.13-42.02-26.64-25.13-25.51-23.26-33.77-27.39-43.52-24.39-43.89-16.51-45.78-20.63-55.9-16.88-61.52-4.13-24.77,1.5-117.05-1.87-22.21.78-22.06,16.85-103.7,108.79c-.25-.34-.56-.64-.92-.89-1-.71-1.82-1.59-2.43-2.65-.6-1.06-1.22-2.12-2.14-2.91-1.71-1.45-2.94-3.38-4.87-4.61-.75-.48-1.48-.87-2.37-.94-.33-.02-.75,0-.98-.2-1.28-1.05-2.97-.79-4.39-1.45-1.39-.64-2.97-.87-4.46-1.31-.49-.15-1.04-.29-1.41-.6-1.24-1.05-2.64-1.58-4.25-1.67-.5-.03-1-.25-1.46-.48-.77-.39-1.5-.85-2.26-1.27-2.87-1.62-5.86-2.93-9.12-3.54-.69-.13-1.29-.48-1.84-.92-.26-.21-.51-.47-.79-.66-1-.7-2.09-1.21-3.33-1.32-3.1-.27-6.15-.94-9.26-1.12-.68-.04-1.39-.17-2.03-.4-1.49-.54-3.04-.62-4.6-.6-2.07.03-4.14.13-6.22.19-1.21.03-2.42.03-3.62.08-1.25.04-2.36-.27-3.4-1.01-.94-.67-1.99-.47-2.94.06-1.06.6-1.94,1.42-2.75,2.33-.47.53-.83,1.1-.99,1.79-.32,1.34-.75,2.68-.36,4.08.15.54-.07,1.01-.19,1.51-.11.5-.29,1-.31,1.51-.04.69.06,1.42.64,1.89.49.41.48.92.33,1.38-.15.48-.5.89-.78,1.32-1.33,2.01-2.43,4.16-3.74,6.19-.27.42-.41.95-.12,1.46.34.61.67,1.21,1.01,1.81.32.56.33.9-.21,1.29-.43.31-.91.6-.95,1.12-.1,1.14-.65,1.92-1.57,2.53-.43.28-.79.66-1.2.98-.29.22-.59.13-.75-.31-.29-.82-.57-1.6-1.64-1.72-.87-.1-1.65-.48-2.39-.94-1.06-.65-2.24-.89-3.46-.94-.86-.04-1.73.02-2.59.02-1.31,0-2.31.58-3.14,1.54-.37,1.1-1.21,1.73-2.28,1.57-1.06-.16-2-.24-2.94.34-.58.36-1.2.67-1.83.91-.47.17-1,.18-1.5.25-.17.02-.35,0-.51-.05-1.3-.38-2.32-.13-3.02,1.15-.25.45-.84.68-1.33.59-.74-.13-1.33.01-1.88.47-.52.44-1.04.89-1.57,1.31-.43.35-.93.33-1.44.19-.16-.04-.31-.14-.46-.22-.81-.37-1.62-.49-2.46-.05-.29.15-.63.25-.96.33-.8.22-2.15-.63-2.29-1.55-.08-.54-.19-.98-.65-1.29-.65.17-1.31.36-1.99.21-.82-.17-1.62-.52-2.47-.48-1.91.11-3.68-.47-5.44-1.05-.51-.16-.67-.68-.66-1.22-.81-.34-1.59-.43-2.25.33-.24.28-.56.36-.92.29-.32-.06-.68-.06-.97-.2-.59-.31-1.19-.62-1.7-1.05-1.14-.96-2.23-1.99-3.34-2.99-.5-.06-1.02-.03-1.48-.19-1.62-.58-2.88-1.7-4.08-2.88-.45-.45-.19-.86.09-1.28.41-.61.4-1.27.08-1.9-.4-.8-.5-1.58-.04-2.38.08-.14.1-.32.13-.48.1-.53-.04-.99-.38-1.4-.21-.26-.4-.54-.6-.81-.69.03-1.38.06-2.06.1-.59.03-.72-.05-1-.84-.11-.31-.14-.65-.15-.98-.01-.37.14-.71.45-.89.87-.52,1.79-.92,2.81-1.08.51-.08.69-.52.46-.97-.24-.47-.56-.9-1.04-1.09-1.1-.44-2.23-.77-3.26-1.44-.99-.64-2.22-.9-3.28-1.46-.56-.29-.97-.14-1.43.06-.15.07-.32.16-.42.29-.44.54-.94.98-1.56,1.32-.63.34-.93.98-1.26,1.58.16.29.28.61.49.86.5.61.33,1.18.05,1.81-.25.57-.74.61-1.21.63-.36.02-.68-.21-.74-.51-.22-.98-.72-1.83-1.19-2.7-.84-.94-1.99-1.33-3.13-1.74-.31-.12-.67-.11-1.02-.14-.84-.05-1.66.31-2.53-.07-.61-.26-1.34-.26-2.01-.43-.29-.07-.52-.39-.53-.76-.02-.68.09-1.37.06-2.06-.02-.31-.21-.63-.36-.92-.07-.15-.25-.24-.36-.37-.24-.25-.46-.51-.68-.77-.34-.05-.7-.04-1.01-.15-.38-.15-.64-.11-.96.1-.55.37-1.08.99-1.76.9-.65-.1-1.25-.53-1.88-.78-.69-.26-1.09-.77-1.35-1.43-.06-.16-.12-.41-.23-.44-.3-.08-.64-.12-.96-.07-.45.07-.53.33-.41.7.1.31.12.67.09,1-.06.66-.62,1.15-1.39,1.2-.17.01-.34-.04-.51-.07-.66,0-1.26-.22-1.87-.43-.44-.14-.93-.2-1.43,0-.74.3-1.48.59-2.32.21-.03-.01-.07-.02-.1-.02-.22,0-.54.21-.8.3.12.36.25.72.38,1.08.69.19,1.07.79,1.58,1.21.1.08.16.27.15.4-.03.35-.29.52-.68.58-.33.04-.74.05-.96.24-1.14,1.03-2.34,1.89-3.9,2.18-.47.08-.9.43-1.34.66l-.03.04c.06.93-.48,1.6-.98,2.29-.63.85-1.35,1.54-2.48,1.6-.71.03-1.27.47-1.87.77-.79.39-1.64.38-2.49.3-.16-.01-.36-.06-.47-.16-.38-.35-.62-.79-.7-1.3-.05-.34.63-.97,1.04-.96.85,0,1.7.05,2.55-.01.29-.02.59-.29.85-.49.33-.25.27-1.09-.02-1.31-.57-.43-1.23-.59-1.89-.75-.33-.08-.69-.1-.99-.24-.27-.13-.53-.36-.7-.61-.17-.27.26-1.05.68-1.25.46-.22.96-.37,1.41-.61.3-.15.62-.36.79-.63.14-.25.21-.67.09-.92-.12-.24-.52-.51-.78-.49-1.02.09-2.04.22-3.03.45-1.54.34-3.06.22-4.59.07-.33.08-.67.24-.99.2-.85-.08-1.69-.28-2.54-.38-.68-.08-1.37-.06-2.06-.12-1.33-.11-2.33.37-2.91,1.62-.36.78-.77,1.54-1.16,2.31-.18.36-.89.59-1.35.57-1.21-.07-2.26-.92-3.53-.67-1.01.19-2.03.37-3.06.53-.33.05-.81.45-1.5.51-1.21.09-2.37-.17-3.51-.47-.62-.17-1.2-.64-1.71-1.07-.34-.28-.27-.67.04-.79.8-.32,1.51-.63,1.98-1.48.54-.96,1.56-1.28,2.65-1.18,1.21.11,2.39.18,3.56-.26,1.14-.44,2.36-.39,3.56-.44.24-.46.46-.92.89-1.25.44-.33.92-.44,1.43-.21.31.14.6.33.89.5,1.65-.06,5.08-.13,4.94-.28.49-.51,1.08-.86,1.79-.82,1.85.1,3.71,0,5.56.42,1.14.25,2.37.15,3.55.18.68.03,1.06-.68.7-1.4-.16-.33-.29-.61-.12-.95.23-.45.45-.9.71-1.33.21-.32.14-.62.12-.97-.03-1.14.69-2,1.69-2.14.34-.04.68-.12,1.01-.1.68.03,1.35.11,2.03.18.7.08,1.33-.08,1.94-.44.58-.34,1.2-.63,1.8-.95-.03-.3.08-.53.32-.71.33,0,.66.04.98,0,.52-.09.88-.38.98-.93.62-.84,1.55-1.02,2.5-1.2.51-.1.72-.53.74-1.04-1.53.07-3.05.12-4.57.23-.67.05-1.34.16-1.99.33-.66.18-1.31.39-1.99.3-1.19-.16-2.33.51-3.52.17-.16-.05-.33-.08-.49-.13-1.06.24-2.12.28-3.15-.1-.34,0-.67.02-1.01.02-.32.11-.65.3-.98.31-.86,0-1.71-.07-2.57-.09-1.22-.02-2.42.08-3.56.56-.31.14-.64.26-.97.36-1,.29-2.01.49-3.06.41-.86-.07-1.72-.13-2.59-.15-.86,0-1.71.08-2.5.52-.81.44-1.66.4-2.5.1-.34-.12-.66-.05-1.01-.02-1.19.1-2.39.08-3.59.19-.3.02-.57.35-.88.49-.53.26-.64.21-.96-.48-.29-.62-.58-1.24-1.17-1.65-.14-.1-.29-.23-.45-.26-1.39-.2-2.73.24-4.11.31-.26,0-.57.39-.73.67-.54.96-1.32,1.58-2.36,1.88-.36.1-.7-.03-.93-.25-.12-.11-.29-.26-.31-.4-.17-1.22-.84-2.25-1.22-3.39-.19-.53-.05-1.07.33-1.43.85-.8,1.48-1.87,2.73-2.25.47-.14.82-.61,1.24-.91.44-.32.96-.27,1.48-.27,1.26-.01,2.15,1.05,3.37,1.14.4.32.79.64,1.19.97.26.21.5.45.79.61.13.08.37.06.51,0,.92-.46,1.85-.9,2.72-1.45.4-.25,1.03-.43,1-1.05-.01-.27-.33-.54-.52-.81-.18-.27-.18-.58.05-.92.19-.28.37-.57.61-.8.74-.71,1.52-1.4,2.28-2.1.48-.22.8-.57.97-1.07.23-.68-.11-1.44-.77-1.63-.54-.16-.95.1-1.25.55-.27.21-.58.29-.91.23-.23.6-.67,1.01-1.18,1.38-.44.3-.76.18-.97-.44-.1-.28-.13-.6-.19-.9h-.02c-.29.08-.6.14-.87.28-.35.16-.61.19-.76-.05-.16-.27-.13-.56,0-.86s.35-.5.68-.58c.01-.35.03-.7.04-1.05.07-.33-.02-.63-.34-.73-.34-.12-.58.07-.66.43-.41.31-.79.65-1.22.91-.47.28-1.01.26-1.47.01-.44-.23-.84-.57-1.2-.91-.35-.33-.39-1.12-.1-1.43.47-.49.98-.94,1.42-1.46.2-.24.26-.6.39-.9-.66-.09-1.32-.19-1.97-.28-.61.37-.94,1.01-1.45,1.47-.5.45-1.14.75-1.65,1.2-.29.24-.53.38-.92.33-.7-.08-1.38.03-2.04.28-.51.19-1.01.08-1.52,0-.68-.13-1.38-.93-1.19-1.46.46-1.33.56-2.69.56-4.07,0-.72-.21-1.33-.6-1.93-.46-.7-.69-1.76-.66-2.44.02-.54.25-.99.54-1.42.09-.14.26-.33.22-.43-.13-.3-.34-.58-.54-.86-.1-.13-.24-.29-.39-.33-2.31-.67-4.52-1.7-6.99-1.82-.47-.02-.94-.37-1.4-.6-.36-.18-.45-.5-.23-.87.07-.13.24-.22.38-.28.66-.31,1.35-.17,2.04-.13,1.21.06,2.4.03,3.56-.43.8-.32,1.68-.42,2.51-.64.33-.09.65-.24.96-.39,1.32-.61,2.25-1.55,2.58-3.03.19-.87.27-1.7-.35-2.45-.5-.6-.55-1.2-.09-1.85.63-.88.68-1.94.87-2.95.28-1.56-.96-2.95-2.61-3.29-.34-.06-.72-.12-1.03-.02-1.63.51-3.08.14-4.39-.87-.54-.42-1.26-.51-1.76-1.04-.87-.89-2.01-1.31-3.18-1.64-.5-.13-.95-.46-1.45-.56-.49-.1-1.04-.12-1.53,0-1.18.25-2.32.68-3.35,1.34-.29-.14-.72-.21-.85-.44-.25-.44-.39-.96-.47-1.46-.2-1.23-.75-2.29-1.48-3.27-.19-.27-.48-.58-.77-.63-1.02-.18-1.36-.88-1.65-1.74-.08-.24-.52-.53-.79-.53-1.55.03-3.1.14-4.65.24-.57.04-.99.43-1.15.9-.4,1.14-.67,2.33-1.42,3.31-.23.29-.66.47-.84.31-.56-.49-1.17-.53-1.88-.59-.66-.06-1.13-.68-1.48-1.32-.6-1.12-.78-1.36-1.3-1.51-1.33-.39-2.41-1.4-3.85-1.48-.58-.04-.88-.51-1.26-.83-.32-.26-.59-.33-.92-.21-1.47.55-2.7.2-3.7-1.01-.11-.13-.25-.23-.38-.35-.63-.03-1.26-.05-1.89-.11-.48-.05-1.04-.58-.9-.87.23-.47.71-.56,1.19-.56.16,0,.31.04.47.06,1.06-.58,1.11-1.59,1.16-2.62.02-.36.3-.58.63-.59.16,0,.36.07.47.18.36.36.67.76,1.04,1.11.24.23.52.45.83.57.3.12.69.24.97.15.79-.27,1.54-.66,2.33-.96,1.32-.51,2.43-1.21,2.76-2.72.43-.5.85-1.02,1.3-1.51.3-.33.2-.53-.1-.86-.72-.8-1.67-1.12-2.64-1.44-.69-.23-1.33-.12-1.89.37-.12.11-.24.23-.36.35-.89.41-1.42,1.47-2.56,1.42-.15,0-.34-.12-.43-.24-.17-.21-.11-.52.15-.81.1-.11.31-.19.46-.18.5.02.99.15,1.48.13.3-.01.59-.22.89-.34.02-.17.03-.34.06-.51.11-.67.29-1.34-.16-1.97-1.22-1.74-1.8-3.7-2-5.79-.07-.8.44-1.69,1.31-2.01.64-.23,1.31-.44,1.99-.5.67-.05,1.37.09,2.06.15.9.08,1.62.57,2.31,1.09.6.45,2.2,2.37,2.53,3.2.41,1.03,1.1,1.71,1.98,2.3.42.28.77.68,1.11,1.06.5.54.37,1.77-.25,2.26-.26.22-.52.44-.74.7-.27.31-.36,1.21-.19,1.45.5.7.99,1.41,1.52,2.09.44.55.59,1.22.79,1.87.15.52.6.82.99,1.16.3.27.6.32.91.02.09-.08.17-.27.14-.38-.13-.68-.29-1.35-.45-2.02-.24-.93.08-1.68.7-2.35.28-.45.7-.71,1.15-.95.81-.45.82-.76.07-1.3-.28-.2-.56-.39-.82-.6-.75-.59-.84-1.18-.39-2.27.06-.14.22-.26.35-.37.42-.35,1.12-.28,1.29.13.34.78.72,1.55.97,2.36.14.46.23,1.06.05,1.48-.35.85-.23,1.66-.16,2.49.35.39.67.8,1.04,1.16.66.64,1.46.91,2.36.59.81-.29,1.6-.65,2.48-.68,2.26-.08,4.43-.63,6.52-1.47,1.02-.41,2-.39,3.02-.11.17.05.33.12.5.16.91.23,1.68-.13,2.41-.61.48-.32,1.09-1.11,1.2-1.55.04-.14-.07-.43-.09-.43-1.2.15-2.37.14-3.55-.26-.83-.28-1.72-.08-2.56.11-.83.19-1.64.5-2.46.76-.54.16-1.01-.04-1.47-.27-.16-.08-.33-.17-.42-.3-1.04-1.44-2.37-2.49-4.03-3.11-.47-.18-.97-.41-1.08-.92-.07-.29.19-.64.29-.97.14-.48-.04-1.16-.38-1.38-.71-.47-1.37-1.03-2.21-1.32-.31-.11-.62-.3-.87-.51-.39-.34-.76-.71-.89-1.24-.25-.99-.56-1.98-.55-3.03,0-.43.41-1.04.85-1.16.83-.22,1.71-.25,2.48-.67.84-.44,1.66-.29,2.49.04.32.12.66.2.99.29.75.21,1.28-.11,1.8-.64.73-.74.74-.7.4-1.68-.15-.42-.68-.83-.18-1.3.38-.37.9-.56,1.4-.34.36.16.64.24.96-.01.14-.1.35-.14.42-.26.8-1.33,2.06-1.73,3.5-1.86.4-.03.62-.34.59-.65-.04-.52-.11-1.03-.18-1.54-.06-.48-.58-.84-1.07-.72-.5.12-1,.41-1.49.38-.49-.02-.96-.35-1.45-.52-1.19-.41-2.42-.38-3.55.1-1.1.46-2.05.09-2.97-.32-1.2-.52-1.87-1.48-1.76-2.86.03-.34.03-.7.14-1.02.1-.31.26-.68.51-.85,1-.67,2.06-1.24,3.05-1.92.2-.13.19-.61.22-.93.02-.15-.08-.34-.18-.47-1.16-1.54-2.49-2.81-4.46-3.31-1.04-.26-1.67-1.19-2.16-2.12-.23-.44-.31-.97-.47-1.45-.24-.72-.81-1.08-1.48-1.31-.17-.06-.33-.12-.49-.17-1.18.25-2.34.34-3.47-.23-.34-.17-.57-.51-.33-.81.6-.78.6-1.43.04-2.26-.34-.51-.34-1.26-.49-1.9-.04-.16-.11-.32-.17-.48.3-.09.59-.22.9-.25.33-.04.69-.04,1,.06.3.09.7.28.79.53.6,1.69,1.82,1.76,3.27,1.35.16-.05.34,0,.51,0,.6-.34,1.17-.73,1.79-1,1.03-.45,1.62-1.14,1.76-2.29.06-.49.54-.76,1.09-.89,1.12-.26,1.15-.29,1.51-1.15.14-.35.24-.65.62-.74.33-.07.66-.14.99-.21.34-.07.7-.07,1-.2.29-.13.63-.34.77-.61.32-.6.57-1.24.76-1.89.48-1.63-.39-2.58-2.17-2.46-.7.05-1.28.45-1.95.61-.63.51-1.29.45-1.96.1-1.39-.06-2.78.29-4.17,0-.34.21-.7.25-1.07.14-1.31.52-2.73.3-4.07.68-1.16.32-2.36.52-3.55.74-1.52.28-3.06.51-4.59.79-1.36.24-2.56.99-3.93,1.24-.84.16-1.64.58-2.51.57-2.27-.03-4.45.41-6.63,1-.98.27-2.05.28-3.08.3-.69.02-1.35-.19-1.99-.49-.68-.33-1.07-1.01-.83-1.63.3-.81.68-1.59.91-2.42.28-1.04.78-1.9,1.63-2.56.27-.21.5-.48.72-.74.67-.84.99-1.82.97-2.89-.02-.68,0-1.43-.25-2.04-.49-1.19-.41-2.29.01-3.48.29-.83.07-1.69-.32-2.49-.14-.29-.26-.72-.15-.97.52-1.13.43-2.36.63-3.54.18-1.03.59-1.97,1.09-2.89.28-.51.74-.71,1.25-.75.51-.05,1.04.04,1.55.03.69-.02,1.38-.03,2.06-.14,1.43-.24,2.56-.99,3.32-2.24.35-.59.66-1.21.99-1.82-.5-.32-1.01-.59-1.65-.43-.43.1-.88.14-1.32.21-1.4.67-2.79,1.38-4.21,2-.45.19-1.01.17-1.52.2-.14,0-.31-.14-.41-.26-.09-.1-.14-.27-.13-.41.01-.17.06-.35.15-.49,1.07-1.56,9.24-4.41,9.3-4.08.55-.08,1.09-.16,1.63-.25.11-.88.29-1.77,1.43-1.75,1.44.03,2.73-.38,3.94-1.08.44-.25.89-.56,1.19-.95.85-1.11,1.67-2.18,3.19-2.42.31-.05.6-.33.85-.55,1.3-1.13,2.57-2.29,3.88-3.41.52-.44,1.11-.81,1.69-1.18.74-.47,1.56-.74,2.45-.62,1.88.25,3.77.34,5.66.14.33-.03.73.03,1.01.19,1.28.74,2.66.59,4.03.48.87-.07,1.69-.26,2.35-.92.36-.36.76-.7,1.17-1.01,1.31-1.03,2.8-1.36,4.38-.89.85.25,1.59.48,2.46.1.94-.41,1.93-.71,2.9-1.04.15-.05.36-.06.51.01.63.27,1.19.65,1.57,1.26.31.48.32,1.01.08,1.45-.19.37-.28.59-.07.93.27.44.56.83,1.02,1.11,1.47.91,3.22,1.24,4.65,2.23.34,0,.71-.06,1.02.04,1.63.56,3.32.83,5.03.97l.25-.05c1.24-1.09,2.66-1.35,4.24-.94.65.17,1.22.58,1.94.48,1.66-.22,3.35.42,5-.18.23-.31.55-.48.92-.54.18-.58.56-.86,1.18-.76l.27-.11c.22-.27.43-.54.64-.81.33-.42.23-1.07-.2-1.21-.32-.1-.66-.28-.98-.25-.91.06-1.67-.16-2.31-.82-.24-.24-.58-.4-.77-.68-.68-1.04-1.73-1.6-2.77-2.2-.15-.08-.28-.19-.42-.29-.28-.24-.4-.54-.44-.86-.05-.43.36-.96.82-1.19.48-.24.99-.28,1.5-.33.34-.03.7-.09,1.02-.03,2.2.46,4.45.08,6.66.39.68.1,1.4.14,2.01.41,1.28.56,2.69.44,4,.85.38.12.63.84.44,1.31-.2.51-.59.87-1.03,1.09-1.23.59-2.49,1.12-3.75,1.65-.67.27-.45.82-.48,1.3-.01.16.03.34.05.51h.07c1.36.25,2.69.28,4.05-.07,2.47-.65,5.02-.94,7.54-1.31,2.2-.31,4.39-.47,6.62-.34,1.87.1,3.73-.04,5.61.22,1.5.22,3.06.02,4.59.09.48.03.95.32,1.43.48.69.02,1.35.18,2,.4.65.21,1.31.41,1.98.52,1.36.22,2.68.19,4.05-.2,3.87-1.12,3.88-1.03,8.09-.6,1.1.11,1.93.62,2.79,1.18,2.4.05,4.79-.15,7.19-.21.3-.37.6-.74.89-1.11.01-.69.25-1.21.98-1.41.77-.2,1.52-.45,2.28-.67-.06-.3-.12-.6-.2-.89-.47-.18-1-.26-1.41-.53-1.05-.7-2.22-.84-3.42-.74-.84.07-1.67.27-2.49.48-1.76.46-3.35-.11-4.96-.67-1.33-1.16-3-1.51-4.63-1.94-.44-.12-.51-.38-.36-.81.17-.5.42-.9.91-1.14.92-.45,1.87-.81,2.88-1,1.36-.25,2.55-.92,3.74-1.57.57-.32.97-.95,1.67-1.1.31-.15.6-.4.92-.44.85-.12,1.71-.23,2.57-.21,1.71.04,3.42.18,5.08-.48.46-.18,1.01-.15,1.53-.17,1.2-.04,2.4-.05,3.61-.1,2.08-.08,4.09-.44,5.86-1.68.4-.28.97-.37,1.48-.15,1.04.43,1.99.3,2.9-.36.55-.4,1.07-.85,1.76-1.03.37-.09.66-.05.99.14.63.34,1.03.89,1.42,1.44.51.05,1.03.18,1.52.12,2.02-.24,4.04-.54,6.05-.84.51-.07,1.02-.14,1.5-.3,2.65-.92,5.33-.83,8.05-.36.3.06.66-.04.96-.16.38-.16.55-.44.47-.69-.11-.36-.35-.62-.65-.69-.33-.07-.68-.12-1.01-.07-.84.12-1.67.31-2.5.44-.68.1-1.36.06-2.03-.09-.51.09-1.08.28-1.5-.02-1.32-.93-2.8-1.29-4.35-1.34-1.7-.05-3.43-.43-5.08.32-1.02,0-2.06.21-3.07-.07-.86-.23-1.7-.15-2.55,0-1.34.24-2.69.49-4.04.67-.29.03-.73-.14-.92-.36-.32-.38-.48-.9-.74-1.34-.37-.61-.91-1-1.66-1.01-.17-.01-.34-.03-.51-.04-.57-.04-1.02-.37-1.12-.87-.23-1.2-1.09-1.75-2.09-1.99-1.18-.28-2.28-.74-3.42-1.11-.67-.21-1.24-.59-1.77-1.03-.27-.22-.53-.44-.76-.69-.71-.78-1.57-1.28-2.58-1.61-.63-.21-1.2-.66-1.74-1.07-.18-.14-.29-.37-.4-.59v-.56c.22-.5.5-.99.94-1.31.89-.65,2.05-.87,1.91-1.9.26-.15.75-1.3,1-1.47.89-.6.32-.93-.22-2.04-.17-.34-.16-.66.09-.88.83-.76,1.86-1.34,2.36-2.42.67-.17,1.32-.38,1.99-.51,1.02-.2,2.04-.37,3.06-.48.5-.05,1.05-.02,1.54.13,1.66.52,3.34.8,5.09.8.68,0,1.41.05,2.04.28,1.64.6,3.39.69,5.04,1.16,1.35.38,2.69.59,4.09.44.5-.05,1.02.09,1.53.13,1.88.18,3.74.61,5.64.64.85.02,1.7.28,2.55.41.68.11,1.37.3,2.04.28,2.43-.06,4.83.19,7.24.32,2.24.12,4.48-.1,6.72-.26,1.78-.12,3.38-.48,4.74-1.72.49-.46,1.16-.73,1.77-1.04.3-.14.67-.27.98-.22,1.19.17,2.39.35,3.51.85,2.38,1.07,4.88,1.66,7.47,1.98,1.54.2,3.06.62,4.61.67,2.13.06,4.06.75,5.96,1.55,1.14.48,2.28.75,3.5.8.86.04,1.73.08,2.58.19,4.14.54,8.25.43,12.38-.22,2.55-.4,5.14-.66,7.7-1.05,1.04-.16,1.99-.56,2.93-.99.31-.14.65-.28.89-.51.98-.97,1.96-1.94,2.85-2.98.32-.37.52-.93.55-1.42.07-1.18.37-2.38-.04-3.58-.09-.29.23-.64.56-.76,1.3-.46,2.63-.81,3.8-1.61.41-.28.94-.41,1.43-.55.5-.15,1.01-.23,1.52-.34,2.71-.58,5.28-1.62,7.74-2.83,2-.99,4.07-1.88,5.94-3.15,1.43-.98,3.06-1.57,4.72-2.05,1.16-.34,2.33-.62,3.46-1.04,1.13-.41,2-1.37,3.2-1.66,1-.23,2.05-.32,3.03-.62.64-.19,1.31-.54,1.78-1.01,1.1-1.11,2.42-1.93,3.6-2.93.48,0,.74-.2.91-.81l.32-.16c.78-.04,1.55-.07,2.32-.12.68-.05,1.12-.46,1.46-1.01l.09-.04c.51-.8,1.32-1.05,2.2-1.13.68-.06,1.4.04,1.95-.47,1.18-1.07,2.81-1.3,4.07-2.23.38-.29.96-.36,1.47-.43.69-.09,1.34-.28,1.96-.59.63-.31,1.3-.48,2-.47,1.57.03,3.1-.11,4.57-.7,2.23-.27,4.4-.82,6.65-.98,1.71-.12,3.43-.38,5.03-1.09.47-.21.98-.35,1.41-.62,2.24-1.39,4.74-2.05,7.28-2.52,1.02-.19,1.99-.45,2.96-.84,2.08-.83,4.27-1.35,6.33-2.25.6-.26,1.36-.27,2.04-.22,2.41.14,4.81.3,7.21.67,6.14.95,12.33,1.49,18.56,1.45,1.55-.01,3.1-.07,4.65-.19,2.94-.23,5.87-.12,8.77.44,1.45.62,3.03.59,4.56.87,2.59.46,5.16.21,7.69-.33,1.18-.25,2.37-.45,3.56-.6.33-.04.75-.05,1.01.11,1.4.83,2.98.79,4.5.99.17.03.33.11.49.17,3.13.28,6.22-.16,9.31-.47.5-.05,1.01-.25,1.46-.49,2.62-1.39,5.03-3.01,6.44-5.78.23-.47.83-.64,1.35-.63,1.45.03,2.73.44,3.38,1.91.22.48.52.87,1.05,1.06.65.24,1.3.48,1.91.79.31.16.49.54.4.86-.26.82-.66,1.6-.89,2.42-.19.66-.23,1.38.17,2,.56.87,1.09,1.77,1.75,2.56.55.65,1.26,1.18,1.94,1.71.57.44.95.99,1.23,1.63.28.65.72,1.17,1.3,1.58.7.49,1.42.97,2.1,1.51.84.65,1.77,1.06,2.8,1.27.85.16,1.71.28,2.54.5,1,.27,1.99.59,2.87,1.17.57.38,1.2.71,1.85.93.81.28,1.65.55,2.5.62,2.42.19,4.81.09,7.2-.53,6.51-1.69,6.52-1.64,12.4-3.7,1.19-.7,2.31-.4,3.41.22.3.17.6.36.93.47,2.05.7,3.56,2.08,4.76,3.82.29.42.52.9.63,1.39.36,1.52.69,3.05.18,4.61-.05.15-.01.34-.02.51-.04.73.17,1.39.68,1.89.81.8,1.62,1.6,2.44,2.39.92.89,1.84,1.78,2.77,2.65.37.34.85.59,1.32.78.64.26,1.33.39,1.98.62.49.18.93.45,1.21.91.09.15.18.3.28.44,1.34,1.77,3.09,2.69,5.34,2.54.52-.03,1.04-.08,1.54-.18,1.74-.34,3.28-1.04,4.41-2.48.86-1.08,1.76-2.13,2.68-3.16.5-.55,1.26-.76,1.9-.51,1.32.5,2.67.65,4.05.76,1.55.12,3.09.28,4.6.76,1.15.36,2.31.67,3.4,1.22,1.54.78,3.13,1.44,4.68,2.2.46.23.77.71.89,1.22.12.5.15,1.03.23,1.54.05.34.03.73.2,1,.27.43.59.93,1.02,1.13,1.73.8,3.53,1.41,5.47,1.42,1.39,0,2.77.06,4.15.07.9.01,1.63.3,2.35.87.82.65,1.87.86,2.91.99.69.08,1.42.05,2,.45,1.01.69,2.18,1.06,3.23,1.65.73.42,1.32,1.09,2.03,1.59.58.4,1.26.53,1.97.47,1.26-.12,2.35-.58,3.16-1.57.66-.8,1.31-1.61,1.94-2.43.59-.74,1.31-1.14,2.24-.8.84.31,1.69.26,2.55.29,1.14.04,1.42.34,1.51,1.57.12,1.57,1.02,2.57,2.45,2.96,1.04.28,1.95.67,2.67,1.46.25.27.53.4.91.42.86.03,1.72.11,2.59.14,3.47.14,6.89.64,10.2,1.65,1.37.42,2.7.58,4.08.38,1.26-.18,2.41.03,3.48.69.76.47,1.59.63,2.48.61,1.72-.04,3.45-.11,5.18-.05,2.14.07,4.11-.33,5.85-1.64.41-.31.88-.56,1.35-.76.47-.21.98-.3,1.48-.03.3.17.62.31.94.43,1.03.41,2.06.28,3.02-.17.78-.36,1.52-.83,2.24-1.31.73-.49,1.53-.78,2.39-.92,1.19-.2,2.44-.33,3.49-.95,1.27-.76,2.61-.84,3.99-.73,1.56.12,3.09.17,4.64-.11,1.21-.23,2.36-.5,3.43-1.11,1.32-.75,2.65-.57,3.96.06.31.15.64.27.95.42.66.32,1.35.34,2.02.16,2.01-.52,3.99-1.14,5.78-2.23.8-.49,1.67-.38,2.51-.2,1.02.21,1.98.61,2.83,1.23.57.4,1.15.79,1.64,1.27,1.04.99,2.35,1.37,3.65,1.85,1.35.51,2.64.64,4.05.36,1.75-.33,4.57.2,6.01.99.3.17.64.31.89.54.83.77,1.85.87,2.9.85,1.04-.03,2.07-.13,3.11-.16.69-.03,1.38,0,2.07,0,1.24.02,2.37.32,3.3,1.24.36.35.86.65,1.34.74,2.25.43,4.48.32,6.61-.61,1.6-.69,3.11-1.5,4.48-2.58.54-.43,1.04-.92,1.62-1.3.42-.27.93-.49,1.42-.55,1.55-.19,3.09-.36,4.6-.75.69-.18,1.38-.09,2.03.19.35.14.65.21,1,.1,2.79-.91,5.59-1.8,8.37-2.74.46-.16.88-.53,1.27-.86.51-.46.97-.98,1.47-1.46,1.14-1.12,2.59-1.71,4.03-2.29.46-.18,1.05-.2,1.54-.1.63.12,1.25.15,1.86.12.11-.01.21-.02.31-.03.21-.02.41-.04.6-.08.16-.02.31-.05.46-.08.16-.03.32-.07.48-.11.29-.07.57-.16.86-.25.65-.21,1.32-.37,1.98-.55,1.51-.42,2.93-1.01,4.2-1.95,1.52-1.13,3.09-2.18,4.96-2.73.8-.24,1.52-.81,2.23-1.3,2.02-1.4,4.26-2.25,6.66-2.68.91-.16,1.59-.6,2.17-1.26.14-.16.28-.33.42-.5.12-.15.25-.29.38-.44.05-.06.1-.11.15-.17.11-.12.22-.23.33-.33.16-.15.33-.29.52-.41.19-.28.33-.63.59-.82.68-.52,1.48-.9,2.1-1.47,2.13-1.99,2.11-1.57,4.54-.67,1.05.74,2.23.86,3.46.76.34-.03.69-.09,1.01-.03.33.05.68.17.96.36,1.01.67,2.37.55,3.28,1.44.12.12.22.26.34.39,1.05.18,2.1.12,3.15,0,.68-.68,1.36-1.37,2.05-2.05.58-.58,1.26-1.01,2.08-1.15.32-.62.83-.78,1.47-.62.31.08.47.31.52.65l.09.06c1.72.09,3.41.4,5.15.1,1.01-.17,2.07-.04,3.11-.05.69,0,1.38.06,2.04.27,1.16.38,2.36.52,3.56.65.87.1,1.7.32,2.49.68.8.37,1.67.45,2.54.45,1.06,0,2.03.28,2.98.76s1.99.55,3.03.37c.5-.08.98-.3,1.24-.81.31-.62.66-1.21,1.22-1.65.97-.78,1.57-1.78,1.94-2.98.28-.87,1.04-1.4,1.9-1.62,1.33-.35,2.71-.58,4.1-.52,1.03.05,2.06.19,3.09.32.85.12,1.7-.25,2.55.09.38.16.51.36.51.79,0,.73-.43,1.28-.72,1.9-.34.71-.25,1.53.21,1.9.57.46,1.21.6,1.92.32.16-.06.34-.09.48-.18.33-.22.65-.26.98-.04.57.38,1.12.81,1.72,1.14,1.08.59,1.97,1.38,2.74,2.33.44.54.85,1.1,1.35,1.58.36.34.81.65,1.28.83.8.31,1.66.48,2.47.76.48.17,1.01.37,1.36.71,1.05,1.03,2.39,1.34,3.73,1.67.35.08.61.32.62.7.01.38-.25.64-.6.78-.15.07-.31.14-.46.24-.53.35-.51.5.1.97.27.21.6.36.82.62.55.65,1.07,1.35,1.59,2.03.46.61,1.07.88,1.8.78,1.02-.14,2.06-.29,3.06-.54,1.24-.32,2.4-.07,3.54.38.64.25,1.3.51,1.84.92.55.4.94,1,.89,1.77-.13,1.85-.04,3.09.41,4.56.15.49.48.94,1,1.1,1.32.42,2.64.82,3.97,1.2,1.51.44,2.86,1.2,4.12,2.13.57.42,1,.97,1.13,1.67.14.68.19,1.37.28,2.05.09.7.27,1.38.75,1.9.86.89,1.33,2,1.89,3.07.1.19.18.38.25.57.06.15.1.29.14.44.01.01.01.02.01.03.09.34.15.67.17,1.01.06.66.03,1.32-.01,1.99-.02.33-.13.69-.29.98-1.11,1.94-2.48,3.82-4.86,6.67-.33.4-.75.69-1.25.88-.48.19-.97.38-1.42.63-.3.16-.54.42-.81.63-.38.3-.33.91.14,1.31.26.22.53.44.82.61,1.68,1.01,2.06,2.88.36,4.24.08.66.19,1.31.63,1.85.83,1.02,1.53,2.16,2.52,3.05.69.19.98.63.95,1.35-.02.62.04,1.24.07,1.86l.03.02c.26.16.57.28.77.5.48.53.27,1.35-.37,1.54-.47.14-.95.21-1.42.31-.32,1.24.41,1.93,1.34,2.49.29.18.62.3.95.42.32.11.66.27.99.27,1.96.03,3.68.79,5.38,1.67.6.31,1.3.43,1.71,1.06.32.09.64.19.97.29,1.2-.22,2.42.07,3.61-.06,1.03-.1,2.05-.23,3.09-.21.86.01,1.72.06,2.58.1.68-.06,1.37-.19,2.05-.17,1.74.07,3.43-.11,5.1-.61,1.37-.42,2.68-.13,4.06.19,1.7.39,3.04,1.66,4.81,1.8.92.47,1.83.96,2.76,1.41,1.57.77,2.57,2.25,4,3.21.5,1.34,1.84,2.04,2.5,3.26.24.46.6.82,1.08,1.06.93.45,1.71,1.15,2.75,1.4.47.12.92.47,1.29.81,1.14,1.05,2.19,2.19,3.35,3.22.92.81,1.63,1.75,2.21,2.82.35.63.86,1.04,1.59,1.19,1.51.3,2.35,1.35,2.85,2.71.3.8.59,1.62.79,2.45.33,1.38,1.1,2.51,1.89,3.64.28.41.69.78,1.11,1.04.73.46,1.55.77,2.27,1.22,2.56,1.61,4.33,3.89,5.48,6.66.14.31.17.66.26,1,.13.54.49.96,1.01,1.04,1.87.3,3.62,1.13,5.54,1.2,1.75.07,2.76,1.25,3.57,2.59.36.59.68,1.17,1.19,1.65.24.23.44.53.6.83.15.3.23.65.33.97,1.07.33,1.8.95,1.9,2.14.08.97.73,1.55,1.55,1.84,1.92.68,3.87,1.26,5.95,1.42,1.87.14,3.74.39,5.62.44.48.02.96.3,1.44.46.51.06,1.05.04,1.52.2,1.31.45,2.63.73,4,.89,2.38.28,4.7.97,7.1,1.13,1.31.41,2.61.84,3.92,1.22.82.24,1.65.48,2.5.57,1.9.21,3.76-.03,5.49-.93.61-.31,1.2-.66,1.82-.93,1.76-.78,3.64-.94,5.53-1.02.33-.01.68.07,1,.18,1.3.42,2.62.81,3.89,1.32,1.54.63,3,.47,4.45-.23.15-.07.33-.08.5-.12.12-.28.33-.4.63-.36.18-.63.56-1.07,1.17-1.3.47-1.78,1.65-2.93,3.26-3.69.31-.15.64-.24.95-.37,1.13-.43,1.98-1.27,2.93-1.97.15-.31.22-.7.45-.91.63-.58,1.37-1.04,1.99-1.62.62-.6,1.1-1.33,1.73-1.92.79-.74,1.81-1.24,2.84-.91,1.63.53,3.05.28,4.45-.56.3-.17.64-.27.93-.45.28-.19.55-.42.78-.67s.41-.55.59-.85c2.91-4.86,2.93-4.61,7.69-6.26.49-.17,1.02-.23,1.51-.39,1.98-.67,3.88-1.54,5.28-3.14,2.15-2.46,4.91-3.72,8.01-4.43.51-.12,1-.28,1.51-.37.7-.13,1.32-.42,1.85-.87.29-.24.58-.46.88-.67.28-.2.57-.39.86-.57,0-.01.03-.02.04-.02.3-.19.61-.36.92-.53.3-.15.6-.3.92-.44.13-.07.26-.12.4-.18.3-.13.61-.25.92-.37,2.28-.86,4.38-2.01,6.26-3.57.96-.79,2.11-1.18,3.37-1.13h.52c.35,0,.69,0,1.04.01,1.06.04,2.04-.15,2.96-.73.23-.15.7-.08.99.05,1.59.72,2.94,1.82,4.24,2.95,1.18,1.01,2.29,2.1,3.44,3.15,2.28,2.11,4.48,4.31,7.1,6.03.86.57,1.54,1.38,2.11,2.26.45.7.35,1.36-.31,1.68-.29.14-.58.28-.87.41-.28.13-.56.25-.84.36-.21.09-.42.17-.64.26-.16.06-.32.11-.48.17-.2.07-.4.14-.6.2-.95.31-1.93.55-2.93.71-.88.14-1.61.61-2.31,1.12-.57.41-.97.97-1.3,1.58-.44.82-.44,1.66-.04,2.48.22.46.47.95.83,1.31,1.33,1.35,2.71,2.64,4.59,3.25.48.15.88.53,1.31.8.38-.05.68.05.94.28.92.83,1.43,1.92,1.8,3.06.05.15.07.3.07.45,0,.5-.28.97-.79,1.29q-.17.78-.95.85c-.19.31-.47.44-.83.38-.22.21-.41.54-.67.61-1.21.32-2.44.46-3.69.19-.65.27-1.32.37-2.02.19-.13.11-.24.26-.39.31-.78.26-1.61.4-2.35.75-.74.35-1.38.91-2.09,1.34-.42.25-.89.44-1.33.66-.29,1.47,0,2.84.77,4.11l.11.08c.57.02.94.29,1.07.86,0,0,.04.03.05.03,1.39.22,2.49,1.14,3.78,1.59,1.14.39,2.24.88,3.36,1.33.32.13.64.26.94.42.64.34,1.05.87,1.2,1.58.07.34.1.68.19,1.02.13.5.35.94.82,1.24.43.29.78.67.99,1.15l.09.07c.63-.02.94.33,1.04.92l.04.03c1.66.44,3.28.01,4.9-.28.49-.08,1.07.03,1.31.51.74,1.48,2.09,2.54,2.79,4.04l.23.22c.52,0,.78.26.78.78l.26.26c.13,0,.24.02.34.05.03.01.06.02.09.04.03.01.05.02.07.04.04.02.07.05.1.08.03.03.06.07.08.11.03.04.05.09.06.13.01.02.01.03.01.05.03.08.04.17.04.27l.25.25c.51.02.77.28.78.79l.25.27c.48,0,.7.25.68.72.49.43.99.85,1.48,1.27.51.44,1.12.66,1.77.7,1.13.07,2.26.09,3.39.12,1.05-.61,2.09-1.21,3.14-1.83.61-.36,1.31-.46,1.99-.45.86.02,1.72.14,2.58.24.62.07,1.24.75,1.29,1.42.06.86.16,1.73.11,2.59-.24,3.92-.32,4.3.43,6.59.43,1.34.73,2.67.79,4.05.08,1.75.46,3.42,1.1,5.04.13.32.17.68.33.98.67,1.28.75,2.62.62,4.03-.1,1.06.23,2.04.92,2.89.77.96,1.28,2,1.25,3.3-.03,1.06.5,2,1.07,2.88,1.81,2.81,4.21,5.01,7.06,6.75,1.47.9,3,1.7,4.63,2.3,1.46.53,2.88,1.17,4.31,1.78,2.72,1.17,5.56,1.82,8.53,2.01,1.72.11,3.44.37,5.16.55,1.72.18,3.44.35,5.16.52,1.2.13,2.42.18,3.61.38,1.23.2,2.41.12,3.6-.17.67-.16,1.35-.28,2.04-.38.51-.07,1.04-.05,1.49.26,1.6,1.08,3.35,1.72,5.27,2.01,1.88.28,3.74.68,5.6,1.1.66.15,1.29.47,1.9.79.45.23.9.51,1.05,1.08.21.83.44,1.66.69,2.48.15.5.26,1.03.54,1.45.97,1.44,1.64,3.04,2.5,4.53.62,1.07,1.44,1.95,2.44,2.66.7.51,1.45.95,2.17,1.42.58.37,1.16.75,1.73,1.14,1.41.97,2.44,2.4,4.16,3.03,1.61.59,3.08,1.55,4.63,2.3.77.38,1.62.6,2.37,1.01.75.41,1.38,1.04,2.13,1.47.9.51,1.84.96,2.79,1.35,3.53,1.45,6.91,3.15,10.19,5.1,3,1.78,6.26,2.81,9.74,3.31,5.13.75,10.29,1.37,15.28,2.83,2.73.47,5.4,1.15,8.17,1.45,2.74.31,5.48.74,8.15,1.52,1.49.43,3.03.69,4.55,1.04.68.16,1.37.14,2.06.05.85-.12,1.71-.36,2.56-.38,6.35-.15,4.92-.64,11.12-2.3,3.35-.9,6.73-1.59,10.14-2.15,2.78-.46,5.57-.92,8.35-1.35.93-.15,1.86-.29,2.79-.43,1.24-.19,2.48-.37,3.72-.54,1.54-.21,3.02-.81,4.59-.82.51.04,1.03.18,1.52.09,3.69-.69,7.33-1.6,10.94-2.67.3-.09.54-.39.81-.6l.17-.03c.5.03,1.02.17,1.5.1,2.49-.41,4.98-.84,7.46-1.33.47-.09.87-.48,1.3-.74l.18-.02c.5.05,1.01.18,1.5.14,1-.09,2.02-.18,2.99-.42,2.64-.65,5.32-.78,8.02-.84.42-.01.82.05,1.21.16-1.19-.5-2.63-1.08-1.66-1.12,2.56-.09,5.13-.16,7.69-.21,3.08-.06,6.15-.39,9.21-.66,2.38-.2,2.38-.22,4.81-1.52.48-.26.67-.71.66-1.25,0-.17-.01-.34-.02-.51-.16-.5-.21-.98-.04-1.5.15-.47.32-.94-.01-1.47-.48-.78-.9-1.59-1.2-2.46-.11-.27-.19-.55-.27-.83-.29-1.05-.57-2.1-.92-3.14-.1-.31-.21-.62-.33-.93-.01-.06-.03-.11-.06-.17-.06-.16-.12-.32-.19-.47-.06-.15-.12-.29-.19-.43-.1-.24-.22-.47-.34-.7-.75-1.42-.9-2.95-.82-4.52.02-.38.59-.98.97-.98,2.76-.03,5.52.16,8.26.43,1.21.12,2.41.24,3.61.33.7.04,1.37-.11,2-.43.31-.15.64-.28.93-.46.91-.58,1.89-.77,2.96-.71,1.58.1,3.05-.23,4.49-.96,2-1,4.08-1.83,6.11-2.79.98-.47,1.98-.55,3.02-.42.68.09,1.36.27,2.05.28.5.01,1.05-.07,1.49-.3,1.68-.87,3.33-1.8,4.99-2.72,1.31-.74,1.65-1.14,2.31-2.66.49-1.16.67-2.32-.08-3.45-.42-.62-.45-1.28-.17-1.95.06-.16.15-.32.22-.47.46-.92.55-1.99,1.24-2.82.9-1.1,2.07-1.82,3.27-2.49,1.35-.76,2.71-1.52,4.09-2.22,1.26-.62,2.42-1.39,3.32-2.43.92-1.07,2.09-1.75,3.18-2.57.97-.73,1.85-1.45,3.13-1.62,1.19-.15,2.35-.53,3.31-1.34.13-.11.28-.23.44-.27,3.08-.69,5.77-2.23,8.42-3.86.61-.37,1.29-.5,1.98-.53,3.63-.18,7.18-.89,10.74-1.53,1.93-.34,3.77-.32,5.62.28.65.22,1.33.37,1.96.64.97.43,1.98.54,3.03.59.68.03,1.4.1,2.02.35,1.35.52,2.67.59,4.06.26.11-.03.23-.04.35-.04.22,0,.45.03.67.04,2.01-.64,4.04-.9,6.12-.32,1.2-.18,2.37.4,3.59.18,1.01-.19,2.04-.28,3.05-.48.31-.07.6-.33.83-.57.51-.53.72-1.16.41-1.86-.21-.47-.46-.92-.69-1.38-.19-.39.04-1.07.41-1.38,1.06-.88,2.19-1.66,3.41-2.3.78-.41,1.59-.71,2.45-.77,1.37-.1,2.75-.15,4.13-.16.86,0,1.69.24,2.49.58.67.28,1.33.27,2.02.05,1.31-.41,2.61-.86,3.95-1.19,1-.26,2.05-.28,3.01.27.29.17.59.36.89.52,1.05.59,2.14,1.05,3.36,1.25,1.36.21,2.68.61,4.02.93,1.03-.26,2.05-.08,3.05.15.67.15,1.31.41,1.98.54.32.06.7,0,1-.11,1.62-.63,3.07-1.52,4.24-2.83.75-.84,1.71-1.07,2.79-.93.52.07,1.02.25,1.33.67.62.82,1.2,1.67,1.73,2.55.62,1.03,1.3,2.02,2.2,2.83.9.83,1.38,1.95,2.05,2.94.53.76.5,1.61.3,2.47-.07.33-.21.65-.3.98-.29,1.06.19,2.08,1.24,2.47,1.93.7,3.83,1.51,5.86,1.88.17.03.34.07.51.09,1.52.2,3.09-.26,4.6.26,1.33.45,2.7.39,4.07.31.69-.05,1.38.05,2.02.32.94.4,1.97.59,2.81,1.21.98.27,1.88.79,2.96.7,1.74-.16,3.39.22,4.97.98.3.15.64.21.97.31,1.79.58,3.35,1.71,5.23,2.06,1.68.31,3.35.67,5.02,1.02.54.12.88.53,1.1.99.36.77.64,1.58.95,2.37.12.32.22.65.36.96.39.83,1.1,1.28,1.96,1.48.5.12,1.01.18,1.52.21,1.21.05,2.37.27,3.47.78.63.29,1.32.33,2.01.32.68-.01,1.37-.04,2.05-.07.64-.03.96-.04,1.38-.17.42-.14.94-.39,1.98-.89.13-.3.23-.61.39-.9.6-1.08,1.92-1.5,2.92-.85.82.52,1.72.96,2.32,1.77l.08.05c.79.03,1.54.17,2.11.77.65-.2,1.3-.16,1.94.05.82-.77,1.83-.89,2.88-.87.54,0,1.02-.18,1.4-.55.67-.66,1.4-.91,2.32-.56,1.62.61,3.28,1.06,5,1.27.7.08,1.29.43,1.79.94,1.74.17,3.35.66,4.82,1.69,2.12,1.48,4.4,2.72,6.77,3.8.64.29,1.3.31,2,.07.64-.23,1.33-.41,2-.48.7-.07,1.35.15,1.92.61.86.68,1.39,1.51,1.44,2.63.04.86,0,1.71-.11,2.57-.19,1.4.12,2.75.74,4.02.3.61.62,1.21,1.24,1.62.87.56,1.7,1.19,2.54,1.79.61.44.85,1.05.76,1.79-.02.17-.01.35-.02.52,1.03.66,2.07,1.21,3.38.95,1.19-.23,1.96.42,2.47,1.43.15.31.27.64.43.94.08.15.21.27.32.4.24.26.61.44.93.24,1.27-.77,2.55-.83,3.94-.33.97.35,2,.51,3,.78,1.17.33,2.29.76,3.32,1.44.71.48,1.43.96,2.2,1.36,1.07.55,2.19,1.02,3.43,1.09.52.02,1.04.08,1.55.16,1.61.24,2.9,1.05,3.88,2.35.2.27.39.57.56.87,1.51,2.75,3.55,5.09,5.83,7.22.76.7,1.48,1.45,2.17,2.22.21.23.26.62.37.94.38.02.59.22.63.59.62.22.95.63.9,1.31.28.4.65.76.84,1.2.55,1.23,1.36,2.22,2.41,3.04,5.15-.06,8.57,2.4,9.18,2.9-.56-.48-.75-1.12-.82-1.82,1.67-.03,3.34-.07,5.01-.11,1.17-.02,2.34-.04,3.51-.08.7-.02,1.27-.34,1.75-.83.34-.05.68-.14,1.02-.14,4.99-.07,9.97-.12,14.95-.19,1.72-.02,3.44.08,5.14.31.73.09,1.29.43,1.56,1.13.19.48.33.98.51,1.46.25.67.31,1.32.06,2-.17.49-.47.99-.45,1.47.09,1.58-.38,3.04-.77,4.53-.21.83-.25,1.7-.3,2.55-.06.87.14,1.72.5,2.5.43.93,1.19,1.69,1.34,2.75.12.86.48,1.64.83,2.43.2.46.34.97.45,1.47.4,1.72.37,3.38-.56,4.98-.43.75-1.06,1.41-1.32,2.19-.27.81-.41,1.63-.97,2.32-.4.51-.33,1,.09,1.23.46.24.93.45,1.38.69.94.5,1.63,1.26,2.21,2.11.18.26.16.65.23.98h-.02c.46.57.69,1.2.69,1.89,0,.19-.01.38-.05.58.56,1.06.44,2.13.07,3.21,0,.5.09,1.02-.02,1.5-.2.82-.59,1.59-.76,2.41-.09.47-.02,1.06.2,1.47.48.9,1.16,1.68,1.64,2.57.57,1.06.87,2.2.39,3.41.11.48.05.96-.25,1.35-.47.65-1.04,1.22-1.48,1.89-.35.52-.55,1.13-.84,1.7-.07.13-.23.22-.34.33-.07,1.05-1.08,1.72-1.15,2.76-.07.84-.07,1.69-.13,2.53-.07,1-.94,1.78-2.06,1.85-.33.02-.67-.06-1.01-.09-.63.33-1.11.84-1.17,1.56-.08,1.01-.05,2.03-.06,3.05,0,.16.03.34.09.49.13.31.27.62.43.92.25.44.58.86.75,1.33.3.81.41,1.68.02,2.49-.53,1.08-1,2.16-1.17,3.37-.09.66-.4,1.3-.63,1.94-.34.97-.81,1.9-1,2.9-.19.99-.09,2.03-.12,3.06-.01.17-.05.33-.08.5-.09.7-.34,1.33-.89,1.79-1.46,1.19-2.34,2.95-3.99,3.95-.24.15-.37.58-.42.91-.13.84-.15,1.69-.28,2.53-.08.54-.49.89-.96,1.12-.3.14-.64.21-.97.3-.49.13-.99.26-1.38.64-.12.11-.27.2-.38.33-1.73,2.13-3.97,3.18-6.71,3.25-.5.01-1.01.16-1.52.24-.11.89.09,1.67.69,2.37.44.54.88,1.05,1.51,1.39.3.16.6.35.86.57.25.23.5.49.67.78,1.08,1.79,2.88,2.99,3.89,4.82.07.13.05.32.04.48-.04.43-.26.63-.65.65-.69.04-1.37.11-2.06.14-2.25.11-4.5.19-6.74.32-.5.03-1,.2-1.32.69-.8,1.21-1.97,1.88-3.4,2.1-1.03,1.15-2.09,2.28-3.1,3.46-1.07,1.24-1.49,2.74-1.39,4.34.14,2.24.3,4.48.76,6.69.35,1.69.61,3.4.9,5.1.2,1.23-.01,2.41-.52,3.54-.14.32-.3.62-.47.93-.91,1.67-.64,3.34.04,4.99.19.47.5.92.84,1.29.82.9,1.77,1.67,2.87,2.19,1.72.82,3.51,1.48,5.45,1.54,1.56.05,3.11,0,4.67.04,1.21.03,2.42.09,3.62.18.91.07,1.62.54,2.26,1.16.3.3.08,1-.34,1.27-.76.5-1.68.34-2.46.69-.28.12-.61.42-.67.7-.15.67-.12,1.37-.23,2.05-.09.51-.3.99-.79,1.28-1.94,1.18-3.57,2.7-5.03,4.43-1.9,2.25-3.82,4.48-5.84,6.61-1.3,1.37-1.65,2.9-1.62,4.7.02,1.41.46,2.73.54,4.11.69,1.01.97,2.2,1.37,3.32,2.24,6.32,4.4,12.67,6.65,18.99,1.49,4.22,2.71,8.52,4.09,12.77.67,2.04.69,4.06.45,6.12-.1.85-.37,1.68-.47,2.54-.12,1.06-.58,1.95-1.15,2.82-.28.42-.49.91-.42,1.46.06.51.1,1.02.16,1.54.2,1.53.3,3.07.19,4.63-.1,1.36-.11,2.76.06,4.12.3,2.4.5,4.78.04,7.18-.17.85.04,1.71.3,2.54.2.66.41,1.32.5,2,.07.49-.06,1.01-.1,1.52.11.33.24.65.31.98.24,1.12.97,1.87,2.05,1.99,3.9.44,7.77,1.15,11.69,1.39.69.04,1.34.24,1.87.71,2.6-.15,5.16.24,7.72.6,1.54.21,3.08.4,4.62.59,1.03.12,2.07.15,3.08.35,2.04.41,4.1.56,6.16.78,1.37.14,2.73.42,4.09.65,1.24.21,2.22.84,3.08,1.75.75.78,1.29,1.6,1.23,2.73-.03.51-.08,1.03-.08,1.55.01.69.16,1.35.53,1.96.54.89,1.37,1.69,1.45,2.72.14,1.79,1.09,3.25,1.64,4.87.41,1.19.56,2.31-.09,3.47-.43.76-.57,1.62-.49,2.5.04.52.05,1.04.05,1.55-.01,1.8-.6,3.29-1.9,4.63-6.97,7.18-13.88,14.42-20.82,21.62-4.9,5.1-9.83,10.17-14.76,15.25-.71.74-1.36,1.56-2.29,2.06-.4,0-.56.15-.65.66l-.04.28-.28.04c-.39,0-.61.2-.72.72l-.27.28c-.06.16-.08.34-.18.47-.83,1.03-1.7,2.03-2.88,2.7-.1.66-.25.79-.82.79l-.15.22c-.09.65-.39.94-.88.94-.08.4-.16.81-.24,1.21.29.23.45.54.49.91.53.1.84.41.95.94.3.16.66.26.89.49,2.41,2.46,4.81,4.93,7.19,7.42,3.58,3.74,7.14,7.49,10.7,11.24.72.75,1.52,1.4,2.45,1.88,1.27.66,1.51,1.77,1.33,3.06-.02.18-.04.35-.08.52-.22.86-.14,1.7.17,2.53.11.32.15.67.22,1.01.56.11.9.43.95,1.01.63.27.74.32.74.77,0,.1,0,.22-.01.37.22.46.25,1.06.08,1.06.4.47.79.93,1.19,1.4.56-.13.92,0,.92.63v.05c.73.14,1.01.65,1.08,1.32.52.03.77.31.78.81l.27.18c.35-.06.61.06.69.37.15.62-.02,1.14-.56,1.52.19.27.34.6.6.8.55.43,1.1.84,1.43,1.47.63,1.23,1.3,2.45,1.87,3.7.36.78.28,1.75.84,2.43,1.23,1.47,2.08,3.18,3.2,4.71.4.55.94,1.01,1.47,1.46.92.78,1.88,1.51,2.81,2.29.67.55,1.4,1.05,1.95,1.71,1.57,1.87,3.56,3.27,5.32,4.93.9.85,1.88,1.5,3.07,1.84.33.1.66.2.99.32,1.46.52,2.9,1.08,4.37,1.57,1.5.49,3.09.39,4.62.68.67.12,1.34.34,1.97.6,2.09.86,4.23,1.49,6.5,1.7.85.07,1.68.37,2.52.59.84.23,1.62.58,2.19,1.3.43.54.95,1.01,1.57,1.33.95.48,1.7,1.15,2.23,2.09.88,1.53,2.26,2.6,3.58,3.71.54.46,1.22.68,1.93.57,1.88-.27,3.76-.6,5.64-.9.34-.05.68-.11,1.02-.16.73-.1,1.7.81,1.71,1.62.01.34.07.69.04,1.03-.16,1.55-.33,3.09-.53,4.63-.14,1.03-.35,2.05-.51,3.07-.25,1.74-.23,3.45.4,5.12.12.32.22.65.3.99.65,2.68,1.47,5.33,1.46,8.14.64,3.93.81,7.91,1.15,11.87.04.53-.12,1.02-.25,1.52.18.68.14,1.36-.16,2-.51,1.09-1.03,2.18-1.59,3.24-.35.64-.34,1.31-.38,2,.72.34.9.96.8,1.67-.05.32-.2.65-.35.94-.24.45-.48.92-.17,1.39.39.58.95.99,1.65,1.1.66.11,1.35.1,2.02.19.52.07.94.36,1.26.77,1.03-.07,2.06-.02,3.07.19.28-.19.53-.49.84-.57,1.84-.43,3.74-.55,5.54-1.18,1.72-.11,3.44-.23,5.14-.49.17-.02.34.02.52.03.73.05,1.29.39,1.66,1.02,1.88.22,3.18,1.25,4.04,2.89.24.45.42.94.62,1.41.19.41.09.72-.32.81Z" style="fill: none; stroke: #232323; stroke-linecap: square; stroke-linejoin: bevel; stroke-width: 1.47px;"/>
</svg>