<?xml version="1.0" encoding="UTF-8"?>
<svg id="a" data-name="Ebene 1" xmlns="http://www.w3.org/2000/svg" width="1920" height="1080" viewBox="0 0 1920 1080">
  <path d="M1775,823.95l-21.38,61.53-46.9,82.91-9.75,4.5-25.51-30.01-12.39-27.76-18.75-1.88-30.77,3.75-22.88,11.63-10.52,11.07c-.18-.32-.43-.6-.73-.83-1.13-.86-1.82-2.05-2.63-3.17-.44-.6.05-.93.2-1.36.36-1,.33-1.11-.69-1.41-.49-.15-1-.23-1.48-.42-.79-.32-1.58-.65-2.31-1.08-.21-.12-.33-.63-.27-.91.12-.48.42-.92.64-1.38-.43-.29-.88-.54-1.28-.87-.53-.44-1-.94-1.51-1.41-.4-.36-.88-.49-1.42-.45-.87.06-1.71-.01-2.46-.57-.71-.52-1.53-.79-2.42-.77-2.09.04-4.15-.17-6.2-.51-.68-.12-1.37-.26-2.06-.28-2.1-.06-4.12-.5-6.09-1.17-2.25-.77-4.43-.5-6.61.23-.16.05-.33.1-.48.19-1.23.73-2.56.97-3.98.93-.51,0-1.04.06-1.54.16-.33.06-.71.18-.93.4-1.48,1.49-3.21,2.61-5.05,3.59-.61.32-1.28.61-1.76,1.08-1.58,1.59-3.55,1.98-5.66,2.17-1.54.14-3.1.16-4.6.71-1.16.43-2.4.07-3.61.08-.5,0-1.08.07-1.49.32-1.32.81-2.62,1.67-3.69,2.81-.35.38-.49.83-.4,1.4.37,2.52-.78,4.37-2.77,5.72-2.3,1.57-4.86,1.7-7.47,1.01-1-.26-1.96-.68-2.94-1.03-1.3.13-2.59.26-3.89.4-.28.82-.76,1.54-1.28,2.23-.22.29-.47.51-.83.58-.34.07-.67.17-1.01.2-1.79.17-3.32.87-4.7,2.01-.93.76-1.94,1.44-2.9,2.18-2.61,2-5.33,3.81-8.32,5.22-.62.29-1.19.69-1.79,1.04-.46.27-.98.42-1.49.28-1.36-.38-2.74-.3-4.12-.21-1.04.06-2.08.12-3.09-.15-.32-.09-.68-.24-.88-.48-.54-.66-.98-1.42-1.52-2.08-.68-.84-1.59-1.37-2.66-1.44-1.38-.09-2.77-.04-4.15-.08-.52-.01-1.04-.08-1.54-.19-.51-.11-.98-.36-1.31-.78-.42-.54-.83-1.1-1.2-1.68s-.63-1.23-1.04-1.79c-.86-1.18-1.99-1.89-3.54-1.68-.17.02-.34.05-.51.08-1.53.31-3.11.68-4.63.4-1.86-.34-3.75-.63-5.52-1.36-.32-.13-.64-.26-.97-.37-.68-.22-1.35-.15-2.04,0-1.19.24-2.19,1.02-3.42,1.18-1.02.13-2.03.41-3.04.64-1.03.25-2.07.28-3.06-.11-1.01-.4-1.99-.43-3.03-.15-.52.13-1.06-.06-1.48-.36-1.68-1.21-3.45-2.27-5.28-3.26-1.82-.98-3.53-2.16-5.14-3.47-.55-.45-.92-1.03-1.03-1.74-.07-.52-.09-1.04-.15-1.55-.2-1.74-1.31-2.76-2.8-3.44-.47-.21-.99-.31-1.48-.47-4.01-1.36-12.16-3.77-16.39-4.83-.69-.17-1.29-.49-1.73-1.05-.55-.7-1.24-1.18-2.1-1.42-1.18-.34-2.24-.85-2.96-1.92-.3-.44-.81-.66-1.32-.77-1.04-.21-1.96-.67-2.78-1.32-4.69-3.79-4.46-3.29-8.95-5.06-.8-.32-1.59-.68-2.32-1.14-.43-.26-.64-.8-.66-1.33-.02-.37.54-1.03.88-1.19.81-.38,1.7-.24,2.53-.42.39-.08.62-.32.69-.62.1-.37.01-.71-.28-.95-.26-.2-.55-.39-.84-.55-.6-.34-1.23-.63-1.82-.99-.28-.18-.63-.41-.74-.7-.68-1.85-2.37-2.93-3.41-4.5-.71-.12-1.17-.65-1.69-1.05-1.35-1.07-2.86-1.77-4.57-1.99-2.18-.28-4.26-1.01-6.46-1.24-.99-.11-1.92-.57-2.68-1.29-.71-.5-1.44-.96-2.11-1.49-1.23-.96-2.38-2.03-3.64-2.93-2.16-1.55-4.55-2.51-7.27-2.22-1.01.11-1.99.14-2.97.02-.38-.04-.76-.11-1.14-.2-.65-.16-1.38-.1-2.06-.02-1.03.13-2.06.31-3.06.55-1.21.3-2.39.25-3.59-.03-1.01-.24-2.04-.42-3.06-.55-.91-.12-1.63-.52-2.23-1.18-.5-.55-1.14-.76-1.84-.83-1.47-.15-2.6-.86-3.46-2.05-.1-.14-.21-.27-.3-.41-.46-.69-1.09-.72-1.81-.55-.93.22-1.03.2-1.26-.23-.39-.76-.74-1.55-1.14-2.31-.41-.76-.85-1.5-1.27-2.25-.85-1.51-1.8-2.94-3.11-4.12-.87-.8-.89-1.81-.6-2.87.14-.5.29-.99.42-1.49.17-.73-.14-1.35-.44-1.98-.07-.15-.18-.3-.29-.42-.96-.99-1.99-1.92-2.88-2.97-.78-.91-1.47-1.91-2.35-2.75-.64-.6-1.11-1.33-1.48-2.12-.66-1.41-1.3-2.82-1.94-4.24-.64-1.43-1.02-2.93-1.01-4.51.01-.87.01-1.73-.01-2.6-.01-.51-.02-1.03-.08-1.55-.21-1.96-.99-3.65-2.44-5.01-.64-.6-1.32-1.12-2.2-1.3-1.35-.28-2.72-.52-4.07-.82-.32-.07-.68-.24-.88-.48-.9-1.05-1.77-2.12-2.61-3.22-.66-.85-.9-1.84-.85-2.92.01-.19.1-.39.23-.57.28-.39.78-.69,1.18-.6.68.16,1.28.47,1.85.88.54.39.87.31,1.32-.2.46-.51.92-1.03,1.33-1.58.53-.71.5-1.81-.07-2.39-.6-.6-1.3-1.1-1.69-1.91-.12-.26-.51-.41-.81-.56-.46-.23-.91-.44-1.28-.83-.62-.66-1.44-.9-2.35-.86-1.38.08-2.76.18-4.12.49-.5.12-1.02.2-1.53.19-.72,0-1.41-.29-1.77-.9-.65-1.1-.66-2.31-.16-3.49.34-.81,1-1.39,1.55-2.05.45-.57.52-1.26.06-1.9-.42-.59-.59-1.26-.52-1.96.15-1.39,0-2.76-.2-4.13-.12-.88-.5-1.64-1.04-2.33-.31-.41-.65-.81-1.22-.87-.17,0-.33-.09-.49-.16-1.32-.54-2.06-1.82-3.25-2.54-.59-.35-1.05-.87-1.41-1.49-.26-.45-.55-.88-.88-1.27-.78-.95-1.71-1.7-2.91-2.08-1.2-.37-2.16-1.01-2.7-2.23-.19-.46-.59-.85-.95-1.22-1.35-1.36-2.51-2.86-3.46-4.52-.37-.65-.78-1.26-1.23-1.83l13.54-10.49,145.95-65.65,140.31-7.88,168.83,30.39,57.4,31.89,1.1,12.78c-.09.06-.18.11-.27.16-.4,0-.56.15-.65.66l-.04.28-.28.04c-.39,0-.61.2-.72.72l-.27.28c-.06.16-.08.34-.18.47-.83,1.03-1.7,2.03-2.88,2.7-.1.66-.25.79-.82.79l-.15.22c-.09.65-.39.94-.88.94-.08.4-.16.81-.24,1.21.29.23.45.54.49.91.53.1.84.41.95.94.3.16.66.26.89.49,2.19,2.24,4.38,4.49,6.55,6.75l1.9,22.18Z" style="fill: none; stroke: #232323; stroke-linecap: square; stroke-linejoin: bevel; stroke-width: 1.47px;"/>
</svg>