<?xml version="1.0" encoding="UTF-8"?>
<svg id="a" data-name="Ebene 1" xmlns="http://www.w3.org/2000/svg" width="1920" height="1080" viewBox="0 0 1920 1080">
  <path d="M642.97,450.23c7.3-5.8,17.89-3.61,25.66.09,3.96,2.21,7.7,6.55,12.73,6.37.44,3.21-.81,7.29-2.25,10.11,6.16,4.23,4.91,4.44,12.64,3.74,2.93-.36,7.63-1.26,10.02.94,1.56.36,6.43-.44,8.05-.66,4.07-2.42,10.86-2.89,15.36-4.12,4.06-1.1,9.58-3.53,13.58-4.78,2.89-.31,6.85-.04,9.55-1.31,3.18-1.01,7.33-3.01,10.77-2.9,3.01-2.63-2.92-3.07-3.84-5.15-.23-1.9-.44-4.66-.56-6.55,4.08-3.18,6.65-5.33,12.08-4.77,2.92-1.26,7.14-2.7,9.74-4.59,3.18.4,8.03-.44,11.24-.47,5.47.56,11.54,2.92,17.04,2.15,4.33-.07,10.59,1.12,14.42-1.31,3.74.8,7.85-1.02,11.52-1.41,12.42.1,10.43-3.85,19.38-8.8-1.59,3.23,3.27.92,5.15,4.78-.32,1.69-1.2,3.6.75,4.49.71,6.18-6.88,8.84-10.3,12.83-14.31,13.03-10.62,13.68-31.09,16.01-5.82.33-8.84,5.51-10.39,10.49-2.85,6.07-1.82,14.98,2.06,20.41,4.97,12.86,1.95,11.84-3.84,21.91-.98,3.66-1.34,8.87-3,12.36.17,4.51-.04,10.74-.09,15.26.89,4.13-1.8,9.28-4.59,12.17-2.08,3.12-3.55,12.6-8.8,9.18-3.04-3.57,1.05-10.85-6.55-8.52.28-3.17,1.4-5.65-2.9-5.62-1.56-1-5.48-.96-5.34-3.46-.35-1.19-.42-1.77-1.78-1.31-1.03-.89-1.5-2.29-1.31-3.56-1.03-2.56-1.54-2.74-4.12-2.15-.03-1.66-1.65-3.3-.94-5.06-.96-.06-1.6-1.02-1.97-1.78.37-2.09,2.98-4.54,1.22-6.55-2.54-2.16-6.81-2.74-9.08-5.15-3.32-1.18-3.31-1.51-5.52-3.93-2.83.87-4.2-1.25-5.9-3.09-.96-.79-3-1.5-4.21-1.59-1.29-.99-4.19-3.39-5.43-4.49-1.23-1.64.23-4.62-.38-6.55-1.84-5.15-4.17.68-7.02-1.78-3.49-1.46-8.52-1.69-12.36-2.62-3.99-1.59-8.85-1.6-13.11-2.06-2.78,2.92-6.06,7.01-10.58,6.93-1.37-1.18-3.84-1.71-5.52-.93-1.59,0-1.59,2.38-1.78,3.46-6.27-.87-13.07,3.54-19.29.56-5.14-2.96-9.09-2.89-2.62-8.24,1.69-1.22,4.08.25,5.9-.84,7.26-2.18.34-1.86-.66-5.34-3.59-.33-.48,3.41-5.24.28-2.14-.98-4.72-2.17-7.02-2.72-1.39-.22-2.28-2-3.09-3-2.56-1.98-2.39-2-1.5-5.24,2.14-1.37,4.65-3.28,5.06-5.99-.84.23-1.8-2.67-2.15-3.09,0,0,1.22-1.69,1.22-1.69,1.56-.79,3.84-1.23,4.96-2.72.07-.1-.35-1.88-.75-1.59-2.68-1.3,2.01-1.96-.38-4.49-.73-1.15-2.29-2.18-3.46-2.81-.16-.31.07-.87.28-1.12-.16-.51-.91-1.35-1.59-1.03-5.59-.35-4,1.55-4.59-2.62-1.55-3.17-3.86.63-3.46-4.96Z" style="fill: none; stroke: #232323; stroke-linecap: square; stroke-linejoin: bevel; stroke-width: 1.47px;"/>
</svg>