<?xml version="1.0" encoding="UTF-8"?>
<svg id="b" data-name="Data" xmlns="http://www.w3.org/2000/svg" viewBox="0 0 1920 1080">
  <polygon points="1085.45 531.17 1085.45 531.58 1085.45 532.12 1085.31 532.53 1085.31 532.94 1085.18 533.35 1085.18 533.76 1085.04 534.03 1084.91 534.44 1084.77 534.71 1084.63 535.12 1084.5 535.39 1084.23 535.66 1084.09 536.07 1083.82 536.34 1083.54 536.61 1083.27 536.89 1083 537.16 1082.73 537.43 1082.46 537.7 1082.18 537.97 1081.78 538.38 1081.37 538.66 1081.1 538.93 1080.69 539.34 1080.14 539.61 1079.6 540.15 1078.78 540.56 1077.97 541.24 1077.01 541.78 1076.06 542.46 1074.97 543.28 1073.75 543.96 1072.52 544.78 1071.3 545.59 1069.94 546.41 1068.71 547.09 1067.35 547.91 1066.13 548.72 1064.77 549.4 1063.54 550.08 1062.46 550.76 1061.23 551.44 1060.14 551.85 1059.19 552.4 1058.24 552.8 1057.56 553.08 1056.88 553.35 1056.2 553.48 1055.79 553.48 1055.25 553.48 1054.57 553.48 1053.89 553.48 1053.2 553.48 1052.39 553.35 1051.57 553.35 1050.76 553.21 1049.94 553.08 1049.12 552.94 1048.17 552.94 1047.35 552.8 1046.4 552.67 1045.59 552.53 1044.63 552.4 1043.82 552.26 1043 552.12 1042.18 551.99 1041.5 551.85 1040.82 551.72 1040.14 551.58 1039.6 551.44 1039.06 551.31 1038.51 551.17 1038.1 551.17 1037.56 551.04 1037.01 550.9 1036.33 550.76 1035.65 550.63 1034.84 550.63 1034.02 550.49 1033.21 550.36 1032.25 550.22 1031.3 550.08 1030.35 549.95 1029.4 549.81 1028.44 549.68 1027.49 549.54 1026.4 549.4 1025.45 549.27 1024.5 549.13 1023.55 549 1022.73 548.86 1021.78 548.72 1020.96 548.59 1020.28 548.45 1019.46 548.18 1018.78 548.04 1018.51 548.04 1018.1 547.91 1017.83 547.91 1017.56 547.77 1017.15 547.77 1016.88 547.77 1016.61 547.77 1016.33 547.63 1016.06 547.63 1015.79 547.63 1015.52 547.63 1015.25 547.63 1014.97 547.77 1014.7 547.77 1014.57 547.77 1014.29 547.77 1014.02 547.77 1013.89 547.91 1013.61 547.91 1013.34 547.91 1013.21 547.91 1012.93 548.04 1012.8 548.04 1012.53 548.04 1012.39 548.18 1012.25 548.18 1011.98 548.18 1011.84 548.18 1011.71 548.31 1011.57 548.31 1011.44 548.31 1011.3 548.31 1011.16 548.45 1011.03 548.45 1010.89 548.45 1010.76 548.45 1010.62 548.45 1010.48 548.59 1010.35 548.59 1010.21 548.59 1010.08 548.59 1009.94 548.59 1009.8 548.59 1009.67 548.59 1009.53 548.59 1009.4 548.59 1009.26 548.59 1008.99 548.45 1008.58 548.31 1008.17 548.18 1007.63 547.91 1006.95 547.63 1006.27 547.23 1005.45 546.82 1004.63 546.41 1003.68 545.87 1002.87 545.46 1001.91 544.91 1000.96 544.37 1000.01 543.69 999.06 543.14 998.1 542.6 997.15 542.06 996.33 541.38 995.52 540.83 994.7 540.29 993.89 539.74 993.21 539.2 992.66 538.79 992.12 538.38 991.71 537.97 991.3 537.57 991.03 537.16 990.76 536.61 990.35 536.21 990.08 535.53 989.67 534.98 989.4 534.3 988.99 533.62 988.72 532.94 988.31 532.26 988.04 531.58 987.76 530.76 987.36 530.08 987.08 529.27 986.81 528.59 986.54 527.91 986.27 527.09 985.99 526.41 985.72 525.73 985.59 525.19 985.31 524.51 985.18 523.96 984.91 523.42 984.77 522.87 984.63 522.46 984.5 521.92 984.09 521.38 983.82 520.83 983.27 520.15 982.73 519.61 982.19 518.93 981.5 518.25 980.82 517.43 980.14 516.75 979.33 516.07 978.65 515.39 977.83 514.57 977.02 513.89 976.33 513.21 975.52 512.53 974.84 511.99 974.16 511.31 973.48 510.76 972.8 510.22 972.25 509.81 971.71 509.4 971.3 509 970.89 508.72 970.62 508.59 970.35 508.32 969.94 508.04 969.53 507.77 969.12 507.36 968.58 506.95 968.17 506.68 967.63 506.27 967.08 505.87 966.4 505.46 965.86 504.91 965.18 504.51 964.63 504.1 964.09 503.69 963.41 503.28 962.87 502.87 962.19 502.46 961.64 502.06 961.1 501.78 960.55 501.38 960.14 501.1 959.74 500.83 959.33 500.56 958.92 500.42 958.65 500.29 958.24 500.15 957.97 499.88 957.7 499.74 957.56 499.74 957.29 499.61 957.02 499.47 956.74 499.34 956.61 499.2 956.34 499.06 956.2 498.93 956.06 498.79 955.79 498.66 955.65 498.52 955.52 498.52 955.38 498.38 955.25 498.25 955.25 498.11 955.11 497.98 954.97 497.84 954.97 497.7 954.97 497.57 954.84 497.57 954.84 497.43 954.84 497.29 954.84 497.16 954.84 497.02 954.84 496.89 954.84 496.75 954.84 496.61 954.84 496.48 954.84 496.34 954.84 496.21 954.7 496.07 954.7 495.93 954.7 495.8 954.57 495.66 954.57 495.53 954.57 495.39 954.43 495.39 954.43 495.25 954.29 495.25 954.16 495.12 954.02 494.98 953.89 494.98 953.75 494.98 953.61 494.85 953.48 494.85 953.21 494.71 952.93 494.57 952.66 494.44 952.39 494.3 952.12 494.17 951.85 493.89 951.44 493.76 951.17 493.62 950.76 493.35 950.48 493.21 950.08 492.94 949.8 492.81 949.4 492.53 949.12 492.26 948.72 492.12 948.44 491.85 948.17 491.58 947.9 491.44 947.63 491.17 947.36 491.04 947.22 490.76 946.95 490.63 946.81 490.36 946.68 490.08 946.54 489.81 946.4 489.54 946.4 489.13 946.27 488.86 946.27 488.45 946.13 488.18 946.13 487.77 946.13 487.36 946 486.95 946 486.55 946 486.14 946 485.73 946 485.32 946 484.91 946 484.51 945.86 484.23 945.86 483.83 945.86 483.42 945.86 483.01 945.72 482.6 945.72 482.33 945.59 481.92 945.45 481.51 945.31 481.1 945.18 480.56 945.04 480.15 944.77 479.61 944.5 479.06 944.23 478.52 943.95 477.98 943.68 477.43 943.41 476.89 943.14 476.34 942.73 475.8 942.32 475.39 942.05 474.85 941.64 474.44 941.23 474.03 940.96 473.62 940.55 473.21 940.14 472.94 939.74 472.81 939.46 472.53 939.06 472.4 938.65 472.4 938.38 472.4 937.97 472.53 937.56 472.67 937.02 472.81 936.61 473.08 936.06 473.21 935.52 473.62 934.97 473.89 934.43 474.3 934.02 474.71 933.48 475.12 932.93 475.53 932.39 476.07 931.85 476.48 931.3 476.89 930.89 477.43 930.35 477.84 929.94 478.38 929.53 478.79 929.26 479.2 928.85 479.61 928.58 480.02 928.31 480.29 928.04 480.56 927.9 480.97 927.76 481.51 927.49 482.19 927.22 482.87 927.08 483.83 926.81 484.91 926.54 486 926.4 487.23 926.13 488.45 925.86 489.81 925.59 491.17 925.32 492.53 925.04 493.89 924.91 495.12 924.63 496.48 924.36 497.7 924.23 498.93 923.95 500.02 923.82 501.1 923.55 501.92 923.41 502.74 923.27 503.42 923.14 503.83 923 504.1 922.87 504.37 922.73 504.37 922.59 504.37 922.46 504.23 922.32 504.1 922.05 503.96 921.91 503.69 921.64 503.28 921.51 503.01 921.23 502.6 920.96 502.19 920.69 501.65 920.28 501.24 920.01 500.7 919.6 500.29 919.19 499.74 918.78 499.2 918.38 498.79 917.83 498.25 917.42 497.84 916.88 497.43 916.2 497.02 915.66 496.61 914.98 496.34 914.43 496.07 913.75 495.8 913.34 495.53 912.93 495.39 912.53 495.12 912.39 494.98 912.12 494.71 911.98 494.57 911.85 494.44 911.85 494.17 911.85 494.03 911.98 493.76 912.12 493.62 912.12 493.35 912.39 493.08 912.53 492.81 912.66 492.53 912.93 492.12 913.21 491.85 913.34 491.31 913.61 490.9 913.89 490.36 914.02 489.81 914.29 489.27 914.43 488.59 914.7 487.91 914.98 487.36 915.25 486.68 915.66 486.14 916.06 485.46 916.47 484.91 916.88 484.37 917.42 483.83 917.83 483.28 918.38 482.74 918.78 482.19 919.33 481.78 919.74 481.24 920.28 480.83 920.69 480.42 921.1 480.02 921.37 479.47 921.78 479.2 922.05 478.79 922.32 478.38 922.46 477.98 922.59 477.7 922.59 477.3 922.59 477.02 922.59 476.75 922.59 476.34 922.46 476.07 922.46 475.8 922.32 475.53 922.19 475.25 922.05 474.98 921.91 474.71 921.64 474.44 921.51 474.17 921.23 473.89 920.96 473.76 920.69 473.49 920.42 473.35 920.15 473.21 919.87 472.94 919.46 472.81 919.19 472.67 918.78 472.67 918.38 472.53 917.97 472.4 917.56 472.4 917.15 472.4 916.74 472.4 916.34 472.26 915.93 472.13 915.66 471.99 915.25 471.85 914.98 471.58 914.7 471.31 914.29 471.04 914.02 470.76 913.89 470.49 913.61 470.08 913.34 469.68 913.21 469.4 913.07 469 912.8 468.59 912.66 468.18 912.53 467.91 912.53 467.5 912.39 467.09 912.25 466.82 912.25 466.41 912.12 466.14 912.12 465.87 912.12 465.59 912.12 465.32 912.12 465.05 912.25 464.64 912.25 464.23 912.39 463.69 912.39 463.15 912.53 462.47 912.66 461.79 912.66 461.1 912.8 460.29 912.93 459.61 913.07 458.79 913.07 457.98 913.21 457.16 913.34 456.34 913.34 455.53 913.48 454.71 913.48 454.03 913.48 453.21 913.48 452.53 913.34 451.85 913.34 451.17 913.21 450.63 913.07 450.08 912.93 449.54 912.8 449.13 912.53 448.59 912.53 448.18 912.39 447.77 912.25 447.23 912.25 446.82 912.25 446.41 912.25 446 912.25 445.59 912.25 445.19 912.25 444.78 912.39 444.37 912.53 443.96 912.66 443.69 912.8 443.28 912.93 442.87 913.21 442.6 913.34 442.19 913.61 441.79 913.89 441.51 914.29 441.11 914.57 440.83 914.98 440.56 915.25 440.29 915.66 439.88 916.2 439.61 916.61 439.2 917.02 438.79 917.56 438.52 918.1 438.11 918.51 437.7 919.06 437.3 919.6 436.89 920.01 436.48 920.55 436.07 920.96 435.66 921.51 435.25 921.91 434.85 922.32 434.57 922.73 434.17 923.14 433.89 923.55 433.49 923.82 433.21 924.09 432.94 924.36 432.81 924.5 432.53 924.63 432.4 924.77 432.26 924.63 432.26 924.63 432.13 924.36 431.99 924.23 431.85 923.95 431.58 923.55 431.45 923.27 431.17 922.87 430.9 922.46 430.63 921.91 430.36 921.51 430.08 920.96 429.81 920.42 429.54 920.01 429.27 919.46 429 919.06 428.72 918.51 428.45 918.1 428.18 917.7 428.04 917.29 427.77 917.02 427.64 916.74 427.5 916.47 427.36 916.34 427.36 916.2 427.23 915.93 427.23 915.66 427.09 915.25 427.09 914.84 426.96 914.43 426.82 914.02 426.82 913.61 426.68 913.07 426.55 912.53 426.41 911.98 426.41 911.44 426.28 910.89 426.14 910.49 426 909.94 425.87 909.4 425.73 908.85 425.73 908.44 425.59 908.04 425.46 907.63 425.46 907.22 425.32 906.95 425.32 906.68 425.19 906.4 425.19 906.13 425.05 905.86 425.05 905.59 425.05 905.32 425.05 904.91 424.91 904.5 424.91 904.09 424.91 903.68 424.91 903.14 424.91 902.73 424.91 902.19 424.91 901.64 424.91 901.23 424.91 900.69 425.05 900.15 425.05 899.6 425.05 899.06 425.05 898.51 425.05 897.97 425.05 897.42 425.19 896.88 425.19 896.34 425.19 895.79 425.19 895.38 425.19 894.84 425.32 894.16 425.32 893.34 425.32 892.39 425.46 891.44 425.46 890.35 425.59 889.26 425.73 888.04 425.73 886.81 425.87 885.59 426 884.36 426.14 883.14 426.14 881.91 426.28 880.69 426.41 879.6 426.55 878.51 426.55 877.56 426.68 876.61 426.82 875.79 426.82 875.11 426.96 874.57 426.96 874.16 426.96 873.89 427.09 873.75 427.09 873.61 427.09 873.61 427.23 873.48 427.5 873.21 427.77 873.07 428.04 872.8 428.32 872.66 428.72 872.39 429 872.12 429.4 871.85 429.81 871.44 430.22 871.17 430.63 870.76 431.04 870.49 431.45 870.21 431.85 869.81 432.26 869.53 432.67 869.13 432.94 868.85 433.35 868.58 433.62 868.31 433.76 868.04 434.03 867.76 434.17 867.49 434.17 867.22 434.3 866.95 434.44 866.68 434.57 866.27 434.71 865.86 434.85 865.45 434.85 865.04 434.98 864.64 435.12 864.23 435.25 863.68 435.39 863.27 435.39 862.87 435.53 862.46 435.66 861.91 435.66 861.51 435.8 861.1 435.8 860.69 435.8 860.42 435.8 860.01 435.8 859.74 435.8 859.33 435.8 859.06 435.66 858.92 435.66 858.65 435.53 858.51 435.39 858.24 435.12 858.1 434.98 857.83 434.71 857.56 434.44 857.42 434.17 857.15 433.89 856.88 433.49 856.74 433.21 856.47 432.94 856.34 432.53 856.06 432.13 855.93 431.85 855.66 431.45 855.52 431.17 855.38 430.76 855.11 430.49 854.98 430.08 854.84 429.81 854.7 429.54 854.57 429.27 854.43 429 854.43 428.72 854.3 428.59 854.16 428.32 854.16 428.04 854.02 427.91 853.89 427.64 853.89 427.36 853.75 427.23 853.62 426.96 853.48 426.68 853.34 426.55 853.34 426.28 853.21 426.14 853.07 425.87 852.93 425.73 852.93 425.59 852.8 425.32 852.66 425.19 852.66 425.05 852.53 424.91 852.53 424.78 852.39 424.78 852.39 424.64 852.25 424.64 852.12 424.64 851.98 424.78 851.85 424.78 851.57 424.78 851.44 424.91 851.3 424.91 851.03 425.05 850.89 425.05 850.76 425.05 850.49 425.19 850.35 425.19 850.08 425.32 849.94 425.32 849.81 425.32 849.67 425.46 849.53 425.46 849.4 425.46 849.26 425.59 849.13 425.59 848.85 425.59 848.72 425.73 848.45 425.87 848.17 426 847.9 426.14 847.76 426.14 847.49 426.28 847.08 426.41 846.81 426.55 846.54 426.68 846.27 426.96 845.86 427.09 845.59 427.23 845.18 427.36 844.77 427.5 844.36 427.64 843.96 427.77 843.55 427.91 843.14 428.18 842.73 428.32 842.19 428.45 841.78 428.59 841.23 428.72 840.83 428.86 840.69 428.86 840.42 429 840.15 429 839.87 429.13 839.74 429.13 839.47 429.27 839.19 429.4 838.92 429.4 838.65 429.54 838.51 429.68 838.24 429.68 837.97 429.81 837.7 429.95 837.42 430.08 837.29 430.08 837.02 430.22 836.74 430.36 836.47 430.36 836.2 430.49 835.93 430.63 835.79 430.63 835.52 430.76 835.25 430.76 834.98 430.9 834.57 430.9 834.16 431.04 833.75 431.17 833.34 431.17 832.94 431.31 832.66 431.45 832.25 431.45 831.85 431.58 831.44 431.58 831.17 431.72 830.76 431.85 830.35 431.85 829.94 431.99 829.67 431.99 829.26 432.13 828.85 432.13 828.45 432.26 828.17 432.4 827.77 432.4 827.49 432.53 827.08 432.53 826.68 432.67 826.4 432.67 826 432.81 825.59 432.94 825.18 432.94 824.64 433.08 824.23 433.08 823.82 433.21 823.41 433.21 823 433.35 822.6 433.35 822.19 433.35 821.64 433.35 821.23 433.49 820.96 433.49 820.55 433.49 820.15 433.49 819.74 433.49 819.47 433.49 819.06 433.49 818.65 433.49 818.38 433.49 818.11 433.49 817.83 433.49 817.56 433.49 817.29 433.49 817.02 433.49 816.88 433.49 816.74 433.49 816.61 433.49 816.47 433.49 816.34 433.49 816.2 433.49 816.06 433.49 815.93 433.49 815.79 433.49 815.66 433.49 815.52 433.62 815.25 433.62 814.98 433.62 814.7 433.62 814.43 433.76 814.02 433.76 813.62 433.76 813.21 433.89 812.8 433.89 812.39 433.89 811.85 434.03 811.44 434.03 810.89 434.03 810.49 434.17 809.94 434.17 809.53 434.17 808.99 434.3 808.58 434.3 808.17 434.3 807.63 434.44 807.22 434.44 807.09 434.44 806.81 434.44 806.54 434.44 806.4 434.44 806.13 434.44 805.86 434.44 805.59 434.44 805.32 434.44 805.04 434.44 804.77 434.3 804.5 434.3 804.23 434.3 803.96 434.3 803.55 434.3 803.28 434.17 803 434.17 802.73 434.17 802.46 434.17 802.05 434.03 801.78 434.03 801.51 434.03 801.23 433.89 800.96 433.89 800.55 433.89 800.28 433.76 800.01 433.76 799.74 433.76 799.47 433.76 799.19 433.62 798.92 433.62 798.65 433.62 798.38 433.62 798.11 433.49 797.97 433.49 797.7 433.49 797.43 433.49 797.15 433.49 796.88 433.35 796.74 433.35 796.47 433.35 796.2 433.35 796.06 433.35 795.79 433.35 795.66 433.35 795.52 433.35 795.25 433.35 795.11 433.35 794.98 433.35 794.7 433.35 794.43 433.35 794.16 433.35 793.75 433.35 793.48 433.35 793.21 433.35 792.8 433.35 792.53 433.49 792.26 433.49 791.85 433.49 791.57 433.49 791.3 433.49 790.89 433.49 790.62 433.49 790.35 433.49 790.08 433.49 789.94 433.49 789.67 433.49 789.53 433.49 789.4 433.49 789.26 433.49 789.13 433.49 788.99 433.49 788.31 433.62 787.63 433.62 786.81 433.62 786.13 433.62 785.45 433.62 784.77 433.62 784.09 433.62 783.41 433.62 782.87 433.76 782.19 433.76 781.64 433.76 781.1 433.76 780.69 433.76 780.15 433.76 779.74 433.76 779.33 433.76 778.92 433.89 778.51 433.89 778.24 433.89 777.97 433.89 777.7 433.89 777.43 433.89 777.15 434.03 777.02 434.03 776.75 434.03 776.34 434.17 775.79 434.17 775.25 434.3 774.7 434.44 774.02 434.57 773.34 434.71 772.66 434.85 771.98 434.98 771.17 435.12 770.21 435.39 769.4 435.53 768.45 435.8 767.49 436.07 766.41 436.48 765.32 436.75 764.23 437.16 763.14 437.57 762.05 438.11 760.83 438.52 759.6 439.2 758.38 439.74 757.02 440.42 755.79 441.11 754.84 441.51 754.16 441.92 753.48 442.33 752.66 442.74 751.98 443.15 751.17 443.55 750.35 443.96 749.53 444.37 748.72 444.78 747.9 445.19 747.09 445.46 746.27 445.87 745.45 446.28 744.64 446.68 743.68 447.09 742.87 447.5 741.92 447.77 741.1 448.18 740.28 448.59 739.33 449 738.38 449.27 737.56 449.68 736.61 449.95 735.79 450.36 735.52 450.36 735.52 450.22 735.52 449.95 735.52 449.54 735.52 449 735.52 448.32 735.52 447.64 735.66 446.82 735.66 445.87 735.66 444.91 735.66 443.96 735.66 442.87 735.66 441.79 735.66 440.7 735.66 439.61 735.66 438.38 735.66 437.3 735.52 436.21 735.52 435.12 735.52 434.17 735.39 433.21 735.25 432.26 735.11 431.31 735.11 430.63 734.84 429.81 734.7 429 734.43 428.18 734.16 427.23 733.89 426.28 733.48 425.19 733.07 424.23 732.66 423.01 732.12 421.92 731.71 420.83 731.17 419.61 730.62 418.52 730.08 417.3 729.53 416.21 728.99 414.98 728.31 413.89 727.77 412.94 727.09 411.85 726.54 410.9 725.86 409.95 725.32 409.13 724.64 408.45 724.09 407.77 723.41 407.09 722.87 406.68 722.19 406.14 721.51 405.73 720.83 405.19 720.01 404.64 719.06 404.23 718.24 403.69 717.29 403.28 716.34 402.74 715.52 402.33 714.57 401.92 713.62 401.51 712.66 401.11 711.71 400.7 710.76 400.43 709.94 400.02 709.13 399.74 708.31 399.47 707.63 399.2 706.95 398.93 706.27 398.79 705.73 398.52 705.18 398.38 704.91 398.38 704.5 398.25 704.23 398.11 703.82 398.11 703.41 397.98 703 397.84 702.6 397.7 702.19 397.57 701.78 397.43 701.24 397.3 700.83 397.16 700.42 396.89 700.01 396.75 699.6 396.62 699.19 396.34 698.79 396.21 698.51 396.07 698.24 395.8 697.97 395.66 697.83 395.39 697.7 395.26 697.56 395.12 697.56 394.85 697.56 394.71 697.7 394.44 697.97 394.3 698.11 394.17 698.38 393.89 698.79 393.62 699.06 393.35 699.47 392.94 699.88 392.67 700.28 392.26 700.69 391.85 701.1 391.45 701.51 391.04 701.92 390.63 702.32 390.22 702.73 389.81 703.14 389.27 703.55 388.86 703.96 388.45 704.23 387.91 704.5 387.5 704.77 387.09 705.05 386.68 705.18 386.14 705.32 385.73 705.45 385.32 705.45 384.92 705.45 384.64 705.32 384.23 705.18 383.96 705.05 383.55 704.77 383.28 704.64 383.01 704.37 382.74 704.09 382.6 703.68 382.33 703.41 382.06 703.14 381.92 702.73 381.65 702.46 381.51 702.05 381.24 701.78 381.11 701.37 380.97 701.1 380.7 700.83 380.56 700.56 380.43 700.28 380.15 700.15 380.02 700.01 379.88 699.88 379.75 699.74 379.47 699.6 379.34 699.6 379.06 699.47 378.79 699.47 378.52 699.33 378.38 699.19 377.98 699.19 377.7 699.06 377.43 699.06 377.16 699.06 376.89 698.92 376.62 698.92 376.34 698.92 375.94 698.92 375.66 699.06 375.53 699.06 375.26 699.19 374.98 699.33 374.85 699.47 374.58 699.6 374.44 699.88 374.3 700.15 374.17 700.42 374.17 700.83 374.17 701.24 374.03 701.64 374.03 702.19 374.03 702.87 374.03 703.41 374.03 704.09 374.03 704.91 373.89 705.73 373.89 706.54 373.89 707.36 373.89 708.31 373.89 709.26 373.89 710.22 373.89 711.17 373.89 712.12 373.89 713.21 373.89 714.16 373.89 715.25 373.76 716.34 373.76 717.29 373.76 718.38 373.89 719.33 373.89 720.42 373.89 721.37 373.89 722.32 373.89 723.28 373.89 724.09 373.76 724.91 373.76 725.73 373.76 726.54 373.62 727.22 373.62 727.9 373.49 728.58 373.35 729.13 373.21 729.81 373.21 730.35 373.08 730.9 372.94 731.44 372.67 731.98 372.53 732.39 372.4 732.94 372.26 733.34 371.99 733.75 371.85 734.3 371.72 734.7 371.45 735.11 371.31 735.52 371.04 735.93 370.9 736.34 370.63 736.75 370.49 737.15 370.36 737.56 370.09 737.97 369.95 738.38 369.81 738.79 369.68 739.19 369.54 739.6 369.41 740.01 369.41 740.56 369.27 740.96 369.13 741.37 369.13 741.78 369 742.32 369 742.73 368.86 743.28 368.86 743.82 368.86 744.36 368.72 744.91 368.72 745.45 368.72 746.13 368.72 746.81 368.72 747.36 368.59 748.17 368.59 748.85 368.59 749.67 368.45 750.49 368.32 751.3 368.04 752.26 367.91 753.07 367.64 754.02 367.36 754.98 366.96 755.79 366.68 756.75 366.41 757.7 366 758.51 365.73 759.47 365.32 760.28 365.05 761.1 364.64 761.92 364.37 762.6 364.1 763.28 363.83 763.96 363.55 764.5 363.28 765.04 363.15 765.45 363.01 765.86 362.87 766.27 362.74 766.54 362.6 766.95 362.33 767.36 362.06 767.77 361.79 768.17 361.51 768.72 361.11 769.13 360.83 769.53 360.43 770.08 360.02 770.49 359.61 771.03 359.06 771.44 358.66 771.85 358.25 772.26 357.7 772.66 357.3 773.07 356.89 773.34 356.34 773.62 355.94 773.89 355.53 774.16 355.12 774.43 354.71 774.57 354.3 774.57 354.03 774.7 353.76 774.7 353.35 774.7 352.94 774.7 352.53 774.7 351.99 774.7 351.58 774.57 351.04 774.57 350.49 774.43 349.81 774.3 349.27 774.16 348.59 773.89 348.04 773.75 347.36 773.48 346.68 773.21 346.14 772.94 345.46 772.66 344.78 772.39 344.1 771.98 343.42 771.71 342.74 771.3 342.19 770.89 341.51 770.49 340.97 770.08 340.29 769.53 339.75 768.99 339.2 768.58 338.66 768.04 337.98 767.49 337.57 766.95 337.02 766.41 336.48 765.72 335.94 765.18 335.39 764.64 334.98 764.09 334.44 763.55 334.03 763 333.62 762.46 333.08 761.92 332.67 761.37 332.26 760.96 331.99 760.55 331.58 760.01 331.17 759.6 330.9 759.33 330.49 758.92 330.22 758.65 329.95 758.51 329.68 758.24 329.41 758.11 329.13 757.97 328.86 757.83 328.59 757.83 328.32 757.7 328.04 757.7 327.77 757.7 327.5 757.83 327.23 757.83 326.96 757.97 326.55 757.97 326.28 758.11 326 758.24 325.73 758.38 325.32 758.51 325.05 758.79 324.78 758.92 324.37 759.06 324.1 759.33 323.69 759.47 323.42 759.74 323.01 759.87 322.74 760.15 322.47 760.42 322.06 760.55 321.79 760.83 321.51 760.96 321.24 761.24 320.97 761.51 320.7 761.64 320.56 761.92 320.43 762.19 320.15 762.46 320.02 762.73 320.02 763 319.88 763.28 319.75 763.55 319.75 763.96 319.75 764.23 319.61 764.64 319.61 765.04 319.61 765.45 319.61 765.86 319.75 766.41 319.75 766.81 319.75 767.36 319.88 767.9 319.88 768.58 320.02 769.13 320.15 769.81 320.29 770.49 320.43 771.3 320.56 771.98 320.83 772.8 320.97 773.62 321.24 774.43 321.51 775.25 321.79 776.2 322.06 777.02 322.33 777.97 322.6 778.79 322.87 779.74 323.15 780.69 323.56 781.64 323.83 782.6 324.1 783.55 324.51 784.5 324.78 785.45 325.19 786.54 325.46 787.49 325.73 788.45 326.14 789.4 326.41 790.21 326.68 791.17 327.09 791.85 327.36 792.66 327.64 793.34 327.91 794.16 328.18 794.84 328.45 795.66 328.73 796.34 329 797.15 329.27 797.97 329.54 798.79 329.81 799.74 329.95 800.83 330.22 801.91 330.49 803.14 330.63 804.5 330.9 805.86 331.04 807.49 331.31 809.26 331.45 811.03 331.72 813.07 331.85 815.38 332.13 817.7 332.26 820.01 332.4 822.32 332.4 824.5 332.26 826.54 332.13 828.58 331.99 830.62 331.72 832.39 331.31 834.3 331.04 835.93 330.63 837.56 330.22 839.06 329.68 840.55 329.27 842.05 328.73 843.28 328.32 844.5 327.77 845.72 327.23 846.81 326.82 847.76 326.41 848.72 326 849.53 325.6 850.35 325.32 851.03 324.92 851.57 324.78 852.12 324.64 852.8 324.37 853.48 324.1 854.3 323.69 855.25 323.28 856.2 322.87 857.29 322.33 858.24 321.65 859.47 321.11 860.55 320.43 861.78 319.75 862.87 319.2 864.09 318.52 865.18 317.84 866.27 317.16 867.36 316.48 868.44 315.8 869.4 315.26 870.35 314.71 871.17 314.17 871.85 313.76 872.53 313.35 872.93 313.08 873.34 312.81 873.61 312.53 873.89 312.4 874.3 312.13 874.57 311.72 875.11 311.31 875.52 310.9 876.06 310.36 876.61 309.81 877.29 309.27 877.97 308.59 878.51 308.05 879.19 307.36 879.87 306.68 880.55 306 881.1 305.32 881.78 304.78 882.32 304.1 883 303.56 883.55 303.01 883.96 302.47 884.5 301.92 884.77 301.51 885.18 301.24 885.45 300.97 885.59 300.7 885.86 300.43 886 300.15 886.13 299.88 886.27 299.47 886.54 299.2 886.68 298.79 886.81 298.25 886.95 297.84 887.08 297.3 887.36 296.75 887.49 296.21 887.63 295.66 887.76 295.12 887.9 294.58 888.17 294.03 888.31 293.49 888.44 292.94 888.58 292.4 888.85 291.85 888.99 291.31 889.13 290.9 889.4 290.36 889.53 289.95 889.81 289.41 889.94 289.13 890.21 288.73 890.49 288.32 890.76 287.91 891.03 287.64 891.3 287.37 891.57 286.96 891.98 286.68 892.25 286.41 892.66 286.28 892.93 286 893.34 285.73 893.75 285.6 894.02 285.46 894.43 285.19 894.84 285.05 895.25 284.92 895.52 284.92 895.93 284.78 896.34 284.64 896.61 284.64 897.02 284.64 897.29 284.51 897.56 284.51 897.97 284.51 898.24 284.51 898.65 284.51 898.92 284.51 899.33 284.51 899.6 284.51 900.01 284.51 900.28 284.51 900.55 284.51 900.96 284.51 901.23 284.51 901.51 284.51 901.91 284.51 902.19 284.51 902.46 284.51 902.59 284.51 902.87 284.51 903 284.51 903.27 284.51 903.41 284.51 903.55 284.51 903.68 284.51 903.68 284.64 903.68 284.78 903.82 285.05 903.82 285.19 903.82 285.46 903.82 285.6 903.95 285.87 903.95 286.14 904.09 286.41 904.09 286.68 904.09 286.96 904.23 287.23 904.23 287.5 904.23 287.77 904.36 288.05 904.36 288.18 904.36 288.45 904.36 288.59 904.5 288.73 904.5 288.86 904.5 289 904.63 289 904.77 289 904.91 289 905.04 289 905.18 289 905.45 289.13 905.59 289.13 905.86 289.13 906.13 289.27 906.4 289.27 906.81 289.41 907.08 289.54 907.49 289.68 907.9 289.81 908.31 289.95 908.58 290.22 909.12 290.36 909.53 290.63 909.94 290.9 910.35 291.17 910.89 291.45 911.3 291.85 911.98 292.13 912.66 292.26 913.34 292.54 914.16 292.67 914.84 292.81 915.52 292.94 916.34 293.08 917.02 293.22 917.83 293.35 918.51 293.35 919.33 293.49 920.01 293.49 920.69 293.62 921.51 293.62 922.19 293.62 922.87 293.76 923.68 293.76 924.36 293.76 925.04 293.76 925.59 293.76 926.27 293.76 926.95 293.76 927.49 293.76 928.04 293.76 928.58 293.76 929.12 293.9 929.67 293.9 930.21 293.9 930.89 293.9 931.44 293.9 931.98 293.9 932.66 294.03 933.21 294.03 933.89 294.17 934.57 294.3 935.25 294.44 935.93 294.58 936.74 294.85 937.56 294.98 938.24 295.26 939.19 295.66 940.01 295.94 940.96 296.34 941.91 296.75 942.87 297.3 943.95 297.84 945.04 298.39 946.13 299.07 946.95 299.47 947.49 299.88 948.04 300.15 948.44 300.56 948.99 300.83 949.4 301.24 949.8 301.51 950.21 301.79 950.48 302.06 950.89 302.33 951.17 302.6 951.44 302.88 951.71 303.01 951.98 303.28 952.25 303.42 952.39 303.56 952.53 303.83 952.66 303.96 952.8 304.1 952.93 304.1 953.07 304.24 953.07 304.37 953.21 304.37 953.07 304.37 953.07 304.51 952.93 304.78 952.8 305.05 952.66 305.32 952.53 305.6 952.39 306 952.12 306.41 951.98 306.96 951.71 307.36 951.44 307.77 951.17 308.32 951.03 308.86 950.76 309.27 950.48 309.81 950.21 310.36 950.08 310.77 949.8 311.31 949.67 311.72 949.4 312.13 949.26 312.53 949.12 312.81 948.99 313.08 948.85 313.35 948.72 313.62 948.72 314.03 948.58 314.3 948.58 314.71 948.44 315.12 948.44 315.53 948.44 315.94 948.44 316.48 948.31 316.89 948.31 317.3 948.31 317.84 948.31 318.25 948.31 318.66 948.31 319.07 948.44 319.47 948.44 319.88 948.44 320.15 948.44 320.43 948.44 320.7 948.44 320.97 948.44 321.11 948.44 321.24 948.31 321.38 948.17 321.38 947.9 321.38 947.49 321.38 947.08 321.38 946.68 321.38 946.13 321.38 945.45 321.38 944.91 321.51 944.23 321.51 943.55 321.51 942.87 321.65 942.19 321.65 941.51 321.65 940.83 321.79 940.14 321.79 939.6 321.92 938.92 321.92 938.38 322.06 937.97 322.19 937.56 322.19 937.15 322.33 936.88 322.47 936.74 322.6 936.47 322.74 936.34 322.87 936.34 323.01 936.2 323.28 936.06 323.56 936.06 323.83 936.06 324.1 936.06 324.37 936.06 324.64 936.06 325.05 936.2 325.46 936.2 325.87 936.34 326.28 936.47 326.68 936.61 327.09 936.74 327.5 937.02 328.04 937.15 328.45 937.42 329 937.7 329.54 937.97 329.95 938.38 330.49 938.65 331.04 939.06 331.58 939.46 332.13 939.74 332.81 940.01 333.49 940.28 334.17 940.55 334.85 940.69 335.66 940.96 336.34 941.1 337.16 941.23 337.98 941.37 338.66 941.51 339.47 941.64 340.15 941.78 340.97 941.78 341.65 941.91 342.33 941.91 342.87 941.91 343.42 941.91 343.96 941.91 344.37 942.05 344.78 942.05 345.05 942.05 345.32 942.05 345.46 942.19 345.6 942.19 345.73 942.32 345.87 942.59 346 942.73 346.28 943 346.55 943.27 346.82 943.55 347.09 943.82 347.5 944.09 347.77 944.36 348.18 944.63 348.45 944.91 348.73 945.18 349.13 945.45 349.41 945.72 349.68 945.86 349.95 946.13 350.09 946.27 350.36 946.4 350.49 946.54 350.63 946.54 350.77 946.54 351.04 946.54 351.45 946.4 351.99 946.4 352.53 946.27 353.35 946.13 354.17 946.13 354.98 946 355.94 945.86 356.89 945.72 357.98 945.72 359.06 945.59 360.02 945.45 361.11 945.31 362.06 945.31 363.01 945.18 363.96 945.18 364.92 945.04 365.73 945.04 366.41 945.04 366.96 945.04 367.5 945.04 367.91 945.18 368.18 945.18 368.32 945.45 368.59 945.59 368.86 945.86 369.13 946.13 369.41 946.54 369.68 946.95 370.09 947.36 370.36 947.76 370.77 948.17 371.17 948.58 371.45 949.12 371.85 949.53 372.26 949.94 372.53 950.35 372.94 950.76 373.21 951.17 373.49 951.44 373.76 951.85 374.03 951.98 374.17 952.25 374.3 952.39 374.44 952.53 374.58 952.39 374.85 952.25 375.26 952.12 375.66 951.85 376.21 951.57 376.89 951.3 377.7 950.89 378.52 950.62 379.47 950.21 380.29 949.94 381.38 949.53 382.33 949.12 383.28 948.85 384.37 948.44 385.32 948.17 386.28 947.9 387.23 947.63 388.18 947.49 389 947.36 389.68 947.22 390.36 947.08 391.04 947.22 391.45 947.22 391.85 947.49 392.13 947.63 392.4 947.9 392.67 948.17 393.08 948.44 393.35 948.85 393.62 949.26 394.03 949.67 394.3 950.08 394.71 950.48 394.98 950.89 395.39 951.44 395.66 951.85 395.94 952.25 396.34 952.8 396.62 953.21 396.89 953.61 397.16 954.02 397.43 954.43 397.57 954.84 397.84 955.11 397.98 955.38 398.25 955.65 398.38 955.93 398.38 956.2 398.52 956.47 398.66 956.74 398.79 957.02 399.06 957.42 399.2 957.83 399.47 958.38 399.74 958.78 399.88 959.33 400.15 959.74 400.43 960.28 400.7 960.69 400.97 961.23 401.24 961.64 401.51 962.19 401.79 962.59 401.92 963 402.19 963.27 402.33 963.68 402.6 963.95 402.74 964.09 402.87 964.36 402.87 964.5 403.01 964.5 403.15 964.5 403.28 964.5 403.55 964.5 403.69 964.5 403.83 964.5 403.96 964.5 404.23 964.5 404.37 964.5 404.64 964.5 404.78 964.5 405.05 964.5 405.19 964.5 405.46 964.5 405.6 964.5 405.73 964.5 405.87 964.5 406 964.5 406.14 964.5 406.28 964.5 406.41 964.63 406.41 964.63 406.55 964.77 406.68 964.91 406.82 965.18 407.09 965.31 407.23 965.59 407.5 965.72 407.77 965.99 408.04 966.27 408.32 966.54 408.72 966.81 409 967.08 409.4 967.36 409.81 967.63 410.22 967.9 410.63 968.04 411.04 968.31 411.45 968.58 411.85 968.85 412.26 968.99 412.81 969.26 413.21 969.4 413.76 969.67 414.17 970.08 414.71 970.48 415.25 971.03 415.8 971.57 416.34 972.25 416.89 972.93 417.43 973.61 418.11 974.43 418.66 975.25 419.2 976.06 419.74 976.88 420.42 977.7 420.97 978.51 421.51 979.46 422.06 980.28 422.6 981.1 423.15 981.91 423.69 982.59 424.1 983.41 424.51 984.09 425.05 984.77 425.46 985.31 425.73 985.86 426.14 986.4 426.41 987.08 426.82 987.63 427.09 988.31 427.5 988.99 427.77 989.67 428.04 990.48 428.32 991.16 428.59 991.85 428.86 992.66 429.13 993.34 429.4 994.02 429.68 994.7 429.95 995.38 430.08 996.06 430.36 996.74 430.49 997.29 430.63 997.83 430.9 998.38 431.04 998.92 431.17 999.33 431.31 999.74 431.45 1000.14 431.45 1000.42 431.58 1000.69 431.72 1001.1 431.85 1001.5 431.99 1001.91 432.13 1002.46 432.4 1002.87 432.67 1003.41 432.94 1003.95 433.21 1004.5 433.49 1005.04 433.89 1005.72 434.17 1006.27 434.44 1006.81 434.85 1007.36 435.12 1008.04 435.53 1008.58 435.8 1009.12 436.07 1009.67 436.48 1010.08 436.75 1010.62 437.02 1011.03 437.16 1011.44 437.43 1011.84 437.57 1012.25 437.84 1012.53 437.98 1012.93 438.11 1013.21 438.25 1013.61 438.52 1014.02 438.66 1014.43 438.93 1014.84 439.06 1015.11 439.2 1015.52 439.47 1015.93 439.61 1016.2 439.88 1016.61 440.02 1016.88 440.15 1017.29 440.29 1017.56 440.42 1017.83 440.56 1018.1 440.7 1018.38 440.83 1018.65 440.97 1018.78 441.11 1019.06 441.11 1019.19 441.11 1019.33 441.24 1019.46 441.24 1019.74 441.38 1020.14 441.79 1020.69 442.33 1021.5 443.15 1022.32 444.1 1023.27 445.05 1024.36 446.28 1025.59 447.5 1026.81 448.86 1028.17 450.22 1029.4 451.58 1030.76 453.08 1032.12 454.57 1033.48 455.93 1034.84 457.43 1036.06 458.79 1037.29 460.02 1038.51 461.24 1039.6 462.33 1040.55 463.28 1041.37 464.1 1042.05 464.78 1042.59 465.19 1043 465.46 1043.41 465.73 1043.82 466 1044.36 466.27 1044.77 466.55 1045.18 466.82 1045.72 467.09 1046.27 467.36 1046.67 467.64 1047.22 468.04 1047.63 468.32 1048.17 468.59 1048.58 468.86 1049.12 469.13 1049.53 469.4 1049.94 469.68 1050.35 469.95 1050.62 470.08 1051.03 470.36 1051.3 470.63 1051.57 470.76 1051.84 471.04 1051.98 471.17 1052.12 471.31 1052.25 471.44 1052.39 471.72 1052.66 472.26 1053.07 472.94 1053.48 473.89 1054.16 474.98 1054.7 476.07 1055.52 477.43 1056.2 478.79 1057.01 480.29 1057.83 481.92 1058.65 483.55 1059.6 485.05 1060.42 486.68 1061.23 488.32 1062.18 489.95 1062.86 491.44 1063.68 492.81 1064.36 494.17 1065.04 495.39 1065.59 496.48 1065.99 497.43 1066.4 498.11 1066.67 498.66 1066.81 499.06 1067.08 499.34 1067.35 499.74 1067.76 500.29 1068.31 500.97 1068.99 501.65 1069.67 502.33 1070.48 503.15 1071.3 503.96 1072.12 504.78 1073.07 505.59 1074.02 506.55 1074.97 507.36 1075.79 508.32 1076.74 509.13 1077.69 509.95 1078.51 510.76 1079.33 511.58 1080.01 512.26 1080.69 512.94 1081.23 513.49 1081.64 514.03 1082.05 514.44 1082.32 514.71 1082.46 514.85 1082.46 515.12 1082.59 515.39 1082.59 515.66 1082.73 516.21 1082.86 516.75 1083 517.29 1083.27 517.97 1083.41 518.66 1083.54 519.47 1083.68 520.29 1083.95 521.1 1084.09 521.92 1084.23 522.74 1084.5 523.69 1084.63 524.51 1084.77 525.32 1084.91 526.27 1085.04 527.09 1085.18 527.77 1085.31 528.59 1085.31 529.27 1085.45 529.95 1085.45 530.63 1085.45 531.17" style="fill: none; stroke: #000; stroke-linecap: square; stroke-linejoin: bevel; stroke-width: 1.34px;"/>
</svg>