<?xml version="1.0" encoding="UTF-8"?>
<svg id="Data" xmlns="http://www.w3.org/2000/svg" viewBox="0 0 1920 1080">
  <defs>
    <style>
      .cls-1 {
        fill: #e84426;
        stroke-width: 0px;
      }
    </style>
  </defs>
  <path class="cls-1" d="M353.39,340.54v5.5l4.1-3.89,1.03.98-4.1,3.89h5.8v1.38h-5.8l4.1,3.89-1.03.98-4.1-3.89v5.5h-1.45v-5.5l-4.1,3.89-1.03-.98,4.1-3.89h-5.8v-1.38h5.8l-4.1-3.89,1.03-.98,4.1,3.89v-5.5h1.45ZM372.69,317.54v5.5l-4.1-3.89-1.03.98,4.1,3.89h-5.8v1.38h5.8l-4.1,3.89,1.03.98,4.1-3.89v5.5h1.45v-5.5l4.1,3.89,1.03-.98-4.1-3.89h5.8v-1.38h-5.8l4.1-3.89-1.03-.98-4.1,3.89v-5.5h-1.45ZM391.94,308.9v5.5l-4.1-3.89-1.03.98,4.1,3.89h-5.8v1.38h5.8l-4.1,3.89,1.03.98,4.1-3.89v5.5h1.45v-5.5l4.1,3.89,1.03-.98-4.1-3.89h5.8v-1.38h-5.8l4.1-3.89-1.03-.98-4.1,3.89v-5.5h-1.45ZM387.99,344.82v5.5l-4.1-3.89-1.03.98,4.1,3.89h-5.8v1.38h5.8l-4.1,3.89,1.03.98,4.1-3.89v5.5h1.45v-5.5l4.1,3.89,1.03-.98-4.1-3.89h5.8v-1.38h-5.8l4.1-3.89-1.03-.98-4.1,3.89v-5.5h-1.45ZM417.65,244.21v5.5l-4.1-3.89-1.03.98,4.1,3.89h-5.8v1.38h5.8l-4.1,3.89,1.03.98,4.1-3.89v5.5h1.45v-5.5l4.1,3.89,1.03-.98-4.1-3.89h5.8v-1.38h-5.8l4.1-3.89-1.03-.98-4.1,3.89v-5.5h-1.45ZM471.26,246.93v5.5l-4.1-3.89-1.03.98,4.1,3.89h-5.8v1.38h5.8l-4.1,3.89,1.03.98,4.1-3.89v5.5h1.45v-5.5l4.1,3.89,1.03-.98-4.1-3.89h5.8v-1.38h-5.8l4.1-3.89-1.03-.98-4.1,3.89v-5.5h-1.45ZM526.36,268.02v5.5l-4.1-3.89-1.03.98,4.1,3.89h-5.8v1.38h5.8l-4.1,3.89,1.03.98,4.1-3.89v5.5h1.45v-5.5l4.1,3.89,1.03-.98-4.1-3.89h5.8v-1.38h-5.8l4.1-3.89-1.03-.98-4.1,3.89v-5.5h-1.45ZM552.07,268.02v5.5l-4.1-3.89-1.03.98,4.1,3.89h-5.8v1.38h5.8l-4.1,3.89,1.03.98,4.1-3.89v5.5h1.45v-5.5l4.1,3.89,1.03-.98-4.1-3.89h5.8v-1.38h-5.8l4.1-3.89-1.03-.98-4.1,3.89v-5.5h-1.45ZM466.77,332.71v5.5l-4.1-3.89-1.03.98,4.1,3.89h-5.8v1.38h5.8l-4.1,3.89,1.03.98,4.1-3.89v5.5h1.45v-5.5l4.1,3.89,1.03-.98-4.1-3.89h5.8v-1.38h-5.8l4.1-3.89-1.03-.98-4.1,3.89v-5.5h-1.45ZM555.14,446.45v5.5l-4.1-3.89-1.03.98,4.1,3.89h-5.8v1.38h5.8l-4.1,3.89,1.03.98,4.1-3.89v5.5h1.45v-5.5l4.1,3.89,1.03-.98-4.1-3.89h5.8v-1.38h-5.8l4.1-3.89-1.03-.98-4.1,3.89v-5.5h-1.45ZM583.57,402.3v5.5l-4.1-3.89-1.03.98,4.1,3.89h-5.8v1.38h5.8l-4.1,3.89,1.03.98,4.1-3.89v5.5h1.45v-5.5l4.1,3.89,1.03-.98-4.1-3.89h5.8v-1.38h-5.8l4.1-3.89-1.03-.98-4.1,3.89v-5.5h-1.45ZM577.99,455.16v5.5l-4.1-3.89-1.03.98,4.1,3.89h-5.8v1.38h5.8l-4.1,3.89,1.03.98,4.1-3.89v5.5h1.45v-5.5l4.1,3.89,1.03-.98-4.1-3.89h5.8v-1.38h-5.8l4.1-3.89-1.03-.98-4.1,3.89v-5.5h-1.45ZM613.57,433.73v5.5l-4.1-3.89-1.03.98,4.1,3.89h-5.8v1.38h5.8l-4.1,3.89,1.03.98,4.1-3.89v5.5h1.45v-5.5l4.1,3.89,1.03-.98-4.1-3.89h5.8v-1.38h-5.8l4.1-3.89-1.03-.98-4.1,3.89v-5.5h-1.45ZM579.69,433.73v5.5l-4.1-3.89-1.03.98,4.1,3.89h-5.8v1.38h5.8l-4.1,3.89,1.03.98,4.1-3.89v5.5h1.45v-5.5l4.1,3.89,1.03-.98-4.1-3.89h5.8v-1.38h-5.8l4.1-3.89-1.03-.98-4.1,3.89v-5.5h-1.45ZM669.15,447.2v5.5l-4.1-3.89-1.03.98,4.1,3.89h-5.8v1.38h5.8l-4.1,3.89,1.03.98,4.1-3.89v5.5h1.45v-5.5l4.1,3.89,1.03-.98-4.1-3.89h5.8v-1.38h-5.8l4.1-3.89-1.03-.98-4.1,3.89v-5.5h-1.45ZM679.28,415.84v5.5l-4.1-3.89-1.03.98,4.1,3.89h-5.8v1.38h5.8l-4.1,3.89,1.03.98,4.1-3.89v5.5h1.45v-5.5l4.1,3.89,1.03-.98-4.1-3.89h5.8v-1.38h-5.8l4.1-3.89-1.03-.98-4.1,3.89v-5.5h-1.45ZM655.34,392.58v5.5l-4.1-3.89-1.03.98,4.1,3.89h-5.8v1.38h5.8l-4.1,3.89,1.03.98,4.1-3.89v5.5h1.45v-5.5l4.1,3.89,1.03-.98-4.1-3.89h5.8v-1.38h-5.8l4.1-3.89-1.03-.98-4.1,3.89v-5.5h-1.45ZM658.47,367.88v5.5l-4.1-3.89-1.03.98,4.1,3.89h-5.8v1.38h5.8l-4.1,3.89,1.03.98,4.1-3.89v5.5h1.45v-5.5l4.1,3.89,1.03-.98-4.1-3.89h5.8v-1.38h-5.8l4.1-3.89-1.03-.98-4.1,3.89v-5.5h-1.45ZM699.62,348.36v5.5l-4.1-3.89-1.03.98,4.1,3.89h-5.8v1.38h5.8l-4.1,3.89,1.03.98,4.1-3.89v5.5h1.45v-5.5l4.1,3.89,1.03-.98-4.1-3.89h5.8v-1.38h-5.8l4.1-3.89-1.03-.98-4.1,3.89v-5.5h-1.45ZM714.39,331.76v5.5l-4.1-3.89-1.03.98,4.1,3.89h-5.8v1.38h5.8l-4.1,3.89,1.03.98,4.1-3.89v5.5h1.45v-5.5l4.1,3.89,1.03-.98-4.1-3.89h5.8v-1.38h-5.8l4.1-3.89-1.03-.98-4.1,3.89v-5.5h-1.45ZM710.1,299.92v5.5l-4.1-3.89-1.03.98,4.1,3.89h-5.8v1.38h5.8l-4.1,3.89,1.03.98,4.1-3.89v5.5h1.45v-5.5l4.1,3.89,1.03-.98-4.1-3.89h5.8v-1.38h-5.8l4.1-3.89-1.03-.98-4.1,3.89v-5.5h-1.45ZM774.25,333.39v5.5l-4.1-3.89-1.03.98,4.1,3.89h-5.8v1.38h5.8l-4.1,3.89,1.03.98,4.1-3.89v5.5h1.45v-5.5l4.1,3.89,1.03-.98-4.1-3.89h5.8v-1.38h-5.8l4.1-3.89-1.03-.98-4.1,3.89v-5.5h-1.45ZM828.53,342.1v5.5l-4.1-3.89-1.03.98,4.1,3.89h-5.8v1.38h5.8l-4.1,3.89,1.03.98,4.1-3.89v5.5h1.45v-5.5l4.1,3.89,1.03-.98-4.1-3.89h5.8v-1.38h-5.8l4.1-3.89-1.03-.98-4.1,3.89v-5.5h-1.45ZM841.6,362.03v5.5l-4.1-3.89-1.03.98,4.1,3.89h-5.8v1.38h5.8l-4.1,3.89,1.03.98,4.1-3.89v5.5h1.45v-5.5l4.1,3.89,1.03-.98-4.1-3.89h5.8v-1.38h-5.8l4.1-3.89-1.03-.98-4.1,3.89v-5.5h-1.45ZM832.82,386.05v5.5l-4.1-3.89-1.03.98,4.1,3.89h-5.8v1.38h5.8l-4.1,3.89,1.03.98,4.1-3.89v5.5h1.45v-5.5l4.1,3.89,1.03-.98-4.1-3.89h5.8v-1.38h-5.8l4.1-3.89-1.03-.98-4.1,3.89v-5.5h-1.45ZM813.43,380.47v5.5l-4.1-3.89-1.03.98,4.1,3.89h-5.8v1.38h5.8l-4.1,3.89,1.03.98,4.1-3.89v5.5h1.45v-5.5l4.1,3.89,1.03-.98-4.1-3.89h5.8v-1.38h-5.8l4.1-3.89-1.03-.98-4.1,3.89v-5.5h-1.45ZM746.77,387v5.5l-4.1-3.89-1.03.98,4.1,3.89h-5.8v1.38h5.8l-4.1,3.89,1.03.98,4.1-3.89v5.5h1.45v-5.5l4.1,3.89,1.03-.98-4.1-3.89h5.8v-1.38h-5.8l4.1-3.89-1.03-.98-4.1,3.89v-5.5h-1.45ZM785.68,414.75v5.5l-4.1-3.89-1.03.98,4.1,3.89h-5.8v1.38h5.8l-4.1,3.89,1.03.98,4.1-3.89v5.5h1.45v-5.5l4.1,3.89,1.03-.98-4.1-3.89h5.8v-1.38h-5.8l4.1-3.89-1.03-.98-4.1,3.89v-5.5h-1.45ZM818.47,428.83v5.5l-4.1-3.89-1.03.98,4.1,3.89h-5.8v1.38h5.8l-4.1,3.89,1.03.98,4.1-3.89v5.5h1.45v-5.5l4.1,3.89,1.03-.98-4.1-3.89h5.8v-1.38h-5.8l4.1-3.89-1.03-.98-4.1,3.89v-5.5h-1.45ZM852.28,414.75v5.5l-4.1-3.89-1.03.98,4.1,3.89h-5.8v1.38h5.8l-4.1,3.89,1.03.98,4.1-3.89v5.5h1.45v-5.5l4.1,3.89,1.03-.98-4.1-3.89h5.8v-1.38h-5.8l4.1-3.89-1.03-.98-4.1,3.89v-5.5h-1.45ZM861.87,236.32v5.5l-4.1-3.89-1.03.98,4.1,3.89h-5.8v1.38h5.8l-4.1,3.89,1.03.98,4.1-3.89v5.5h1.45v-5.5l4.1,3.89,1.03-.98-4.1-3.89h5.8v-1.38h-5.8l4.1-3.89-1.03-.98-4.1,3.89v-5.5h-1.45ZM869.96,303.73v5.5l-4.1-3.89-1.03.98,4.1,3.89h-5.8v1.38h5.8l-4.1,3.89,1.03.98,4.1-3.89v5.5h1.45v-5.5l4.1,3.89,1.03-.98-4.1-3.89h5.8v-1.38h-5.8l4.1-3.89-1.03-.98-4.1,3.89v-5.5h-1.45ZM934.86,308.02v5.5l-4.1-3.89-1.03.98,4.1,3.89h-5.8v1.38h5.8l-4.1,3.89,1.03.98,4.1-3.89v5.5h1.45v-5.5l4.1,3.89,1.03-.98-4.1-3.89h5.8v-1.38h-5.8l4.1-3.89-1.03-.98-4.1,3.89v-5.5h-1.45ZM960.44,326.23v5.5l-4.1-3.89-1.03.98,4.1,3.89h-5.8v1.38h5.8l-4.1,3.89,1.03.98,4.1-3.89v5.5h1.45v-5.5l4.1,3.89,1.03-.98-4.1-3.89h5.8v-1.38h-5.8l4.1-3.89-1.03-.98-4.1,3.89v-5.5h-1.45ZM904.52,361.15v5.5l-4.1-3.89-1.03.98,4.1,3.89h-5.8v1.38h5.8l-4.1,3.89,1.03.98,4.1-3.89v5.5h1.45v-5.5l4.1,3.89,1.03-.98-4.1-3.89h5.8v-1.38h-5.8l4.1-3.89-1.03-.98-4.1,3.89v-5.5h-1.45ZM928.26,408.9v5.5l-4.1-3.89-1.03.98,4.1,3.89h-5.8v1.38h5.8l-4.1,3.89,1.03.98,4.1-3.89v5.5h1.45v-5.5l4.1,3.89,1.03-.98-4.1-3.89h5.8v-1.38h-5.8l4.1-3.89-1.03-.98-4.1,3.89v-5.5h-1.45ZM889.49,431.83v5.5l-4.1-3.89-1.03.98,4.1,3.89h-5.8v1.38h5.8l-4.1,3.89,1.03.98,4.1-3.89v5.5h1.45v-5.5l4.1,3.89,1.03-.98-4.1-3.89h5.8v-1.38h-5.8l4.1-3.89-1.03-.98-4.1,3.89v-5.5h-1.45ZM986.42,401.83v5.5l-4.1-3.89-1.03.98,4.1,3.89h-5.8v1.38h5.8l-4.1,3.89,1.03.98,4.1-3.89v5.5h1.45v-5.5l4.1,3.89,1.03-.98-4.1-3.89h5.8v-1.38h-5.8l4.1-3.89-1.03-.98-4.1,3.89v-5.5h-1.45ZM958.67,444.48v5.5l-4.1-3.89-1.03.98,4.1,3.89h-5.8v1.38h5.8l-4.1,3.89,1.03.98,4.1-3.89v5.5h1.45v-5.5l4.1,3.89,1.03-.98-4.1-3.89h5.8v-1.38h-5.8l4.1-3.89-1.03-.98-4.1,3.89v-5.5h-1.45ZM939.83,464.75v5.5l-4.1-3.89-1.03.98,4.1,3.89h-5.8v1.38h5.8l-4.1,3.89,1.03.98,4.1-3.89v5.5h1.45v-5.5l4.1,3.89,1.03-.98-4.1-3.89h5.8v-1.38h-5.8l4.1-3.89-1.03-.98-4.1,3.89v-5.5h-1.45ZM1023.03,446.79v5.5l-4.1-3.89-1.03.98,4.1,3.89h-5.8v1.38h5.8l-4.1,3.89,1.03.98,4.1-3.89v5.5h1.45v-5.5l4.1,3.89,1.03-.98-4.1-3.89h5.8v-1.38h-5.8l4.1-3.89-1.03-.98-4.1,3.89v-5.5h-1.45ZM1000.85,500.26v5.5l-4.1-3.89-1.03.98,4.1,3.89h-5.8v1.38h5.8l-4.1,3.89,1.03.98,4.1-3.89v5.5h1.45v-5.5l4.1,3.89,1.03-.98-4.1-3.89h5.8v-1.38h-5.8l4.1-3.89-1.03-.98-4.1,3.89v-5.5h-1.45ZM949.96,511.62v5.5l-4.1-3.89-1.03.98,4.1,3.89h-5.8v1.38h5.8l-4.1,3.89,1.03.98,4.1-3.89v5.5h1.45v-5.5l4.1,3.89,1.03-.98-4.1-3.89h5.8v-1.38h-5.8l4.1-3.89-1.03-.98-4.1,3.89v-5.5h-1.45ZM987.65,544.75v5.5l-4.1-3.89-1.03.98,4.1,3.89h-5.8v1.38h5.8l-4.1,3.89,1.03.98,4.1-3.89v5.5h1.45v-5.5l4.1,3.89,1.03-.98-4.1-3.89h5.8v-1.38h-5.8l4.1-3.89-1.03-.98-4.1,3.89v-5.5h-1.45ZM1030.57,520.53v5.5l-4.1-3.89-1.03.98,4.1,3.89h-5.8v1.38h5.8l-4.1,3.89,1.03.98,4.1-3.89v5.5h1.45v-5.5l4.1,3.89,1.03-.98-4.1-3.89h5.8v-1.38h-5.8l4.1-3.89-1.03-.98-4.1,3.89v-5.5h-1.45ZM1078.6,514.55v5.5l-4.1-3.89-1.03.98,4.1,3.89h-5.8v1.38h5.8l-4.1,3.89,1.03.98,4.1-3.89v5.5h1.45v-5.5l4.1,3.89,1.03-.98-4.1-3.89h5.8v-1.38h-5.8l4.1-3.89-1.03-.98-4.1,3.89v-5.5h-1.45ZM1104.86,485.02v5.5l-4.1-3.89-1.03.98,4.1,3.89h-5.8v1.38h5.8l-4.1,3.89,1.03.98,4.1-3.89v5.5h1.45v-5.5l4.1,3.89,1.03-.98-4.1-3.89h5.8v-1.38h-5.8l4.1-3.89-1.03-.98-4.1,3.89v-5.5h-1.45ZM1139.08,518.02v5.5l-4.1-3.89-1.03.98,4.1,3.89h-5.8v1.38h5.8l-4.1,3.89,1.03.98,4.1-3.89v5.5h1.45v-5.5l4.1,3.89,1.03-.98-4.1-3.89h5.8v-1.38h-5.8l4.1-3.89-1.03-.98-4.1,3.89v-5.5h-1.45ZM1160.78,542.64v5.5l-4.1-3.89-1.03.98,4.1,3.89h-5.8v1.38h5.8l-4.1,3.89,1.03.98,4.1-3.89v5.5h1.45v-5.5l4.1,3.89,1.03-.98-4.1-3.89h5.8v-1.38h-5.8l4.1-3.89-1.03-.98-4.1,3.89v-5.5h-1.45ZM1166.22,560.26v5.5l-4.1-3.89-1.03.98,4.1,3.89h-5.8v1.38h5.8l-4.1,3.89,1.03.98,4.1-3.89v5.5h1.45v-5.5l4.1,3.89,1.03-.98-4.1-3.89h5.8v-1.38h-5.8l4.1-3.89-1.03-.98-4.1,3.89v-5.5h-1.45ZM1162.54,583.87v5.5l-4.1-3.89-1.03.98,4.1,3.89h-5.8v1.38h5.8l-4.1,3.89,1.03.98,4.1-3.89v5.5h1.45v-5.5l4.1,3.89,1.03-.98-4.1-3.89h5.8v-1.38h-5.8l4.1-3.89-1.03-.98-4.1,3.89v-5.5h-1.45ZM1129.42,561.21v5.5l-4.1-3.89-1.03.98,4.1,3.89h-5.8v1.38h5.8l-4.1,3.89,1.03.98,4.1-3.89v5.5h1.45v-5.5l4.1,3.89,1.03-.98-4.1-3.89h5.8v-1.38h-5.8l4.1-3.89-1.03-.98-4.1,3.89v-5.5h-1.45ZM1101.18,596.59v5.5l-4.1-3.89-1.03.98,4.1,3.89h-5.8v1.38h5.8l-4.1,3.89,1.03.98,4.1-3.89v5.5h1.45v-5.5l4.1,3.89,1.03-.98-4.1-3.89h5.8v-1.38h-5.8l4.1-3.89-1.03-.98-4.1,3.89v-5.5h-1.45ZM1079.55,562.85v5.5l-4.1-3.89-1.03.98,4.1,3.89h-5.8v1.38h5.8l-4.1,3.89,1.03.98,4.1-3.89v5.5h1.45v-5.5l4.1,3.89,1.03-.98-4.1-3.89h5.8v-1.38h-5.8l4.1-3.89-1.03-.98-4.1,3.89v-5.5h-1.45ZM1083.77,629.65v5.5l-4.1-3.89-1.03.98,4.1,3.89h-5.8v1.38h5.8l-4.1,3.89,1.03.98,4.1-3.89v5.5h1.45v-5.5l4.1,3.89,1.03-.98-4.1-3.89h5.8v-1.38h-5.8l4.1-3.89-1.03-.98-4.1,3.89v-5.5h-1.45ZM1064.52,598.08v5.5l-4.1-3.89-1.03.98,4.1,3.89h-5.8v1.38h5.8l-4.1,3.89,1.03.98,4.1-3.89v5.5h1.45v-5.5l4.1,3.89,1.03-.98-4.1-3.89h5.8v-1.38h-5.8l4.1-3.89-1.03-.98-4.1,3.89v-5.5h-1.45ZM1038.74,585.57v5.5l-4.1-3.89-1.03.98,4.1,3.89h-5.8v1.38h5.8l-4.1,3.89,1.03.98,4.1-3.89v5.5h1.45v-5.5l4.1,3.89,1.03-.98-4.1-3.89h5.8v-1.38h-5.8l4.1-3.89-1.03-.98-4.1,3.89v-5.5h-1.45ZM1034.45,621.15v5.5l-4.1-3.89-1.03.98,4.1,3.89h-5.8v1.38h5.8l-4.1,3.89,1.03.98,4.1-3.89v5.5h1.45v-5.5l4.1,3.89,1.03-.98-4.1-3.89h5.8v-1.38h-5.8l4.1-3.89-1.03-.98-4.1,3.89v-5.5h-1.45ZM1019.89,598.42v5.5l-4.1-3.89-1.03.98,4.1,3.89h-5.8v1.38h5.8l-4.1,3.89,1.03.98,4.1-3.89v5.5h1.45v-5.5l4.1,3.89,1.03-.98-4.1-3.89h5.8v-1.38h-5.8l4.1-3.89-1.03-.98-4.1,3.89v-5.5h-1.45ZM1005,564.55v5.5l-4.1-3.89-1.03.98,4.1,3.89h-5.8v1.38h5.8l-4.1,3.89,1.03.98,4.1-3.89v5.5h1.45v-5.5l4.1,3.89,1.03-.98-4.1-3.89h5.8v-1.38h-5.8l4.1-3.89-1.03-.98-4.1,3.89v-5.5h-1.45ZM1182.2,454.34v5.5l-4.1-3.89-1.03.98,4.1,3.89h-5.8v1.38h5.8l-4.1,3.89,1.03.98,4.1-3.89v5.5h1.45v-5.5l4.1,3.89,1.03-.98-4.1-3.89h5.8v-1.38h-5.8l4.1-3.89-1.03-.98-4.1,3.89v-5.5h-1.45ZM1235.4,452.1v5.5l-4.1-3.89-1.03.98,4.1,3.89h-5.8v1.38h5.8l-4.1,3.89,1.03.98,4.1-3.89v5.5h1.45v-5.5l4.1,3.89,1.03-.98-4.1-3.89h5.8v-1.38h-5.8l4.1-3.89-1.03-.98-4.1,3.89v-5.5h-1.45ZM1297.37,474.07v5.5l-4.1-3.89-1.03.98,4.1,3.89h-5.8v1.38h5.8l-4.1,3.89,1.03.98,4.1-3.89v5.5h1.45v-5.5l4.1,3.89,1.03-.98-4.1-3.89h5.8v-1.38h-5.8l4.1-3.89-1.03-.98-4.1,3.89v-5.5h-1.45ZM1429.89,457.75v5.5l-4.1-3.89-1.03.98,4.1,3.89h-5.8v1.38h5.8l-4.1,3.89,1.03.98,4.1-3.89v5.5h1.45v-5.5l4.1,3.89,1.03-.98-4.1-3.89h5.8v-1.38h-5.8l4.1-3.89-1.03-.98-4.1,3.89v-5.5h-1.45ZM1528.94,385.71v5.5l-4.1-3.89-1.03.98,4.1,3.89h-5.8v1.38h5.8l-4.1,3.89,1.03.98,4.1-3.89v5.5h1.45v-5.5l4.1,3.89,1.03-.98-4.1-3.89h5.8v-1.38h-5.8l4.1-3.89-1.03-.98-4.1,3.89v-5.5h-1.45ZM1560.84,390.46v5.5l-4.1-3.89-1.03.98,4.1,3.89h-5.8v1.38h5.8l-4.1,3.89,1.03.98,4.1-3.89v5.5h1.45v-5.5l4.1,3.89,1.03-.98-4.1-3.89h5.8v-1.38h-5.8l4.1-3.89-1.03-.98-4.1,3.89v-5.5h-1.45ZM1584.99,394.01v5.5l-4.1-3.89-1.03.98,4.1,3.89h-5.8v1.38h5.8l-4.1,3.89,1.03.98,4.1-3.89v5.5h1.45v-5.5l4.1,3.89,1.03-.98-4.1-3.89h5.8v-1.38h-5.8l4.1-3.89-1.03-.98-4.1,3.89v-5.5h-1.45ZM1614.17,408.29v5.5l-4.1-3.89-1.03.98,4.1,3.89h-5.8v1.38h5.8l-4.1,3.89,1.03.98,4.1-3.89v5.5h1.45v-5.5l4.1,3.89,1.03-.98-4.1-3.89h5.8v-1.38h-5.8l4.1-3.89-1.03-.98-4.1,3.89v-5.5h-1.45ZM1645.53,413.19v5.5l-4.1-3.89-1.03.98,4.1,3.89h-5.8v1.38h5.8l-4.1,3.89,1.03.98,4.1-3.89v5.5h1.45v-5.5l4.1,3.89,1.03-.98-4.1-3.89h5.8v-1.38h-5.8l4.1-3.89-1.03-.98-4.1,3.89v-5.5h-1.45ZM1327.44,595.16v5.5l-4.1-3.89-1.03.98,4.1,3.89h-5.8v1.38h5.8l-4.1,3.89,1.03.98,4.1-3.89v5.5h1.45v-5.5l4.1,3.89,1.03-.98-4.1-3.89h5.8v-1.38h-5.8l4.1-3.89-1.03-.98-4.1,3.89v-5.5h-1.45Z"/>
</svg>