<?xml version="1.0" encoding="UTF-8"?>
<svg id="a" data-name="Punkte" xmlns="http://www.w3.org/2000/svg" viewBox="0 0 1920 1080">
  <path d="M356.95,347.77c0,2.37-1.92,4.29-4.29,4.29s-4.29-1.92-4.29-4.29,1.92-4.29,4.29-4.29,4.29,1.92,4.29,4.29ZM373.42,320.43c-2.37,0-4.29,1.92-4.29,4.29s1.92,4.29,4.29,4.29,4.29-1.92,4.29-4.29-1.92-4.29-4.29-4.29ZM392.67,311.79c-2.37,0-4.29,1.92-4.29,4.29s1.92,4.29,4.29,4.29,4.29-1.92,4.29-4.29-1.92-4.29-4.29-4.29ZM388.72,347.7c-2.37,0-4.29,1.92-4.29,4.29s1.92,4.29,4.29,4.29,4.29-1.92,4.29-4.29-1.92-4.29-4.29-4.29ZM418.38,247.09c-2.37,0-4.29,1.92-4.29,4.29s1.92,4.29,4.29,4.29,4.29-1.92,4.29-4.29-1.92-4.29-4.29-4.29ZM471.99,249.81c-2.37,0-4.29,1.92-4.29,4.29s1.92,4.29,4.29,4.29,4.29-1.92,4.29-4.29-1.92-4.29-4.29-4.29ZM467.5,335.6c-2.37,0-4.29,1.92-4.29,4.29s1.92,4.29,4.29,4.29,4.29-1.92,4.29-4.29-1.92-4.29-4.29-4.29ZM527.09,270.9c-2.37,0-4.29,1.92-4.29,4.29s1.92,4.29,4.29,4.29,4.29-1.92,4.29-4.29-1.92-4.29-4.29-4.29ZM552.8,270.9c-2.37,0-4.29,1.92-4.29,4.29s1.92,4.29,4.29,4.29,4.29-1.92,4.29-4.29-1.92-4.29-4.29-4.29ZM584.3,405.19c-2.37,0-4.29,1.92-4.29,4.29s1.92,4.29,4.29,4.29,4.29-1.92,4.29-4.29-1.92-4.29-4.29-4.29ZM580.42,436.62c-2.37,0-4.29,1.92-4.29,4.29s1.92,4.29,4.29,4.29,4.29-1.92,4.29-4.29-1.92-4.29-4.29-4.29ZM555.86,449.34c-2.37,0-4.29,1.92-4.29,4.29s1.92,4.29,4.29,4.29,4.29-1.92,4.29-4.29-1.92-4.29-4.29-4.29ZM578.72,458.04c-2.37,0-4.29,1.92-4.29,4.29s1.92,4.29,4.29,4.29,4.29-1.92,4.29-4.29-1.92-4.29-4.29-4.29ZM614.3,436.62c-2.37,0-4.29,1.92-4.29,4.29s1.92,4.29,4.29,4.29,4.29-1.92,4.29-4.29-1.92-4.29-4.29-4.29ZM656.07,395.46c-2.37,0-4.29,1.92-4.29,4.29s1.92,4.29,4.29,4.29,4.29-1.92,4.29-4.29-1.92-4.29-4.29-4.29ZM659.2,370.77c-2.37,0-4.29,1.92-4.29,4.29s1.92,4.29,4.29,4.29,4.29-1.92,4.29-4.29-1.92-4.29-4.29-4.29ZM700.35,351.24c-2.37,0-4.29,1.92-4.29,4.29s1.92,4.29,4.29,4.29,4.29-1.92,4.29-4.29-1.92-4.29-4.29-4.29ZM715.11,334.64c-2.37,0-4.29,1.92-4.29,4.29s1.92,4.29,4.29,4.29,4.29-1.92,4.29-4.29-1.92-4.29-4.29-4.29ZM710.83,302.81c-2.37,0-4.29,1.92-4.29,4.29s1.92,4.29,4.29,4.29,4.29-1.92,4.29-4.29-1.92-4.29-4.29-4.29ZM680.01,418.72c-2.37,0-4.29,1.92-4.29,4.29s1.92,4.29,4.29,4.29,4.29-1.92,4.29-4.29-1.92-4.29-4.29-4.29ZM669.88,450.08c-2.37,0-4.29,1.92-4.29,4.29s1.92,4.29,4.29,4.29,4.29-1.92,4.29-4.29-1.92-4.29-4.29-4.29ZM747.49,389.88c-2.37,0-4.29,1.92-4.29,4.29s1.92,4.29,4.29,4.29,4.29-1.92,4.29-4.29-1.92-4.29-4.29-4.29ZM774.98,336.28c-2.37,0-4.29,1.92-4.29,4.29s1.92,4.29,4.29,4.29,4.29-1.92,4.29-4.29-1.92-4.29-4.29-4.29ZM829.26,344.98c-2.37,0-4.29,1.92-4.29,4.29s1.92,4.29,4.29,4.29,4.29-1.92,4.29-4.29-1.92-4.29-4.29-4.29ZM870.69,305.26c-2.37,0-4.29,1.92-4.29,4.29s1.92,4.29,4.29,4.29,4.29-1.92,4.29-4.29-1.92-4.29-4.29-4.29ZM862.59,239.2c-2.37,0-4.29,1.92-4.29,4.29s1.92,4.29,4.29,4.29,4.29-1.92,4.29-4.29-1.92-4.29-4.29-4.29ZM842.32,364.92c-2.37,0-4.29,1.92-4.29,4.29s1.92,4.29,4.29,4.29,4.29-1.92,4.29-4.29-1.92-4.29-4.29-4.29ZM814.16,383.35c-2.37,0-4.29,1.92-4.29,4.29s1.92,4.29,4.29,4.29,4.29-1.92,4.29-4.29-1.92-4.29-4.29-4.29ZM833.55,388.93c-2.37,0-4.29,1.92-4.29,4.29s1.92,4.29,4.29,4.29,4.29-1.92,4.29-4.29-1.92-4.29-4.29-4.29ZM786.4,417.64c-2.37,0-4.29,1.92-4.29,4.29s1.92,4.29,4.29,4.29,4.29-1.92,4.29-4.29-1.92-4.29-4.29-4.29ZM819.19,431.72c-2.37,0-4.29,1.92-4.29,4.29s1.92,4.29,4.29,4.29,4.29-1.92,4.29-4.29-1.92-4.29-4.29-4.29ZM853,417.64c-2.37,0-4.29,1.92-4.29,4.29s1.92,4.29,4.29,4.29,4.29-1.92,4.29-4.29-1.92-4.29-4.29-4.29ZM853,417.64c-2.37,0-4.29,1.92-4.29,4.29s1.92,4.29,4.29,4.29,4.29-1.92,4.29-4.29-1.92-4.29-4.29-4.29ZM905.25,364.03c-2.37,0-4.29,1.92-4.29,4.29s1.92,4.29,4.29,4.29,4.29-1.92,4.29-4.29-1.92-4.29-4.29-4.29ZM935.59,310.9c-2.37,0-4.29,1.92-4.29,4.29s1.92,4.29,4.29,4.29,4.29-1.92,4.29-4.29-1.92-4.29-4.29-4.29ZM961.17,329.61c-2.37,0-4.29,1.92-4.29,4.29s1.92,4.29,4.29,4.29,4.29-1.92,4.29-4.29-1.92-4.29-4.29-4.29ZM928.99,411.79c-2.37,0-4.29,1.92-4.29,4.29s1.92,4.29,4.29,4.29,4.29-1.92,4.29-4.29-1.92-4.29-4.29-4.29ZM890.21,434.71c-2.37,0-4.29,1.92-4.29,4.29s1.92,4.29,4.29,4.29,4.29-1.92,4.29-4.29-1.92-4.29-4.29-4.29ZM940.55,467.64c-2.37,0-4.29,1.92-4.29,4.29s1.92,4.29,4.29,4.29,4.29-1.92,4.29-4.29-1.92-4.29-4.29-4.29ZM959.4,447.36c-2.37,0-4.29,1.92-4.29,4.29s1.92,4.29,4.29,4.29,4.29-1.92,4.29-4.29-1.92-4.29-4.29-4.29ZM987.15,404.71c-2.37,0-4.29,1.92-4.29,4.29s1.92,4.29,4.29,4.29,4.29-1.92,4.29-4.29-1.92-4.29-4.29-4.29ZM1023.89,449.68c-2.37,0-4.29,1.92-4.29,4.29s1.92,4.29,4.29,4.29,4.29-1.92,4.29-4.29-1.92-4.29-4.29-4.29ZM1001.57,503.15c-2.37,0-4.29,1.92-4.29,4.29s1.92,4.29,4.29,4.29,4.29-1.92,4.29-4.29-1.92-4.29-4.29-4.29ZM950.69,514.51c-2.37,0-4.29,1.92-4.29,4.29s1.92,4.29,4.29,4.29,4.29-1.92,4.29-4.29-1.92-4.29-4.29-4.29ZM988.38,547.63c-2.37,0-4.29,1.92-4.29,4.29s1.92,4.29,4.29,4.29,4.29-1.92,4.29-4.29-1.92-4.29-4.29-4.29ZM1005.72,567.43c-2.37,0-4.29,1.92-4.29,4.29s1.92,4.29,4.29,4.29,4.29-1.92,4.29-4.29-1.92-4.29-4.29-4.29ZM1020.62,601.31c-2.37,0-4.29,1.92-4.29,4.29s1.92,4.29,4.29,4.29,4.29-1.92,4.29-4.29-1.92-4.29-4.29-4.29ZM1039.46,588.45c-2.37,0-4.29,1.92-4.29,4.29s1.92,4.29,4.29,4.29,4.29-1.92,4.29-4.29-1.92-4.29-4.29-4.29ZM1035.25,624.03c-2.37,0-4.29,1.92-4.29,4.29s1.92,4.29,4.29,4.29,4.29-1.92,4.29-4.29-1.92-4.29-4.29-4.29ZM1065.25,600.97c-2.37,0-4.29,1.92-4.29,4.29s1.92,4.29,4.29,4.29,4.29-1.92,4.29-4.29-1.92-4.29-4.29-4.29ZM1084.5,632.53c-2.37,0-4.29,1.92-4.29,4.29s1.92,4.29,4.29,4.29,4.29-1.92,4.29-4.29-1.92-4.29-4.29-4.29ZM1101.91,599.47c-2.37,0-4.29,1.92-4.29,4.29s1.92,4.29,4.29,4.29,4.29-1.92,4.29-4.29-1.92-4.29-4.29-4.29ZM1080.28,565.73c-2.37,0-4.29,1.92-4.29,4.29s1.92,4.29,4.29,4.29,4.29-1.92,4.29-4.29-1.92-4.29-4.29-4.29ZM1031.3,523.42c-2.37,0-4.29,1.92-4.29,4.29s1.92,4.29,4.29,4.29,4.29-1.92,4.29-4.29-1.92-4.29-4.29-4.29ZM1079.33,517.43c-2.37,0-4.29,1.92-4.29,4.29s1.92,4.29,4.29,4.29,4.29-1.92,4.29-4.29-1.92-4.29-4.29-4.29ZM1105.59,487.91c-2.37,0-4.29,1.92-4.29,4.29s1.92,4.29,4.29,4.29,4.29-1.92,4.29-4.29-1.92-4.29-4.29-4.29ZM1139.8,520.9c-2.37,0-4.29,1.92-4.29,4.29s1.92,4.29,4.29,4.29,4.29-1.92,4.29-4.29-1.92-4.29-4.29-4.29ZM1182.93,457.23c-2.37,0-4.29,1.92-4.29,4.29s1.92,4.29,4.29,4.29,4.29-1.92,4.29-4.29-1.92-4.29-4.29-4.29ZM1236.13,454.98c-2.37,0-4.29,1.92-4.29,4.29s1.92,4.29,4.29,4.29,4.29-1.92,4.29-4.29-1.92-4.29-4.29-4.29ZM1298.1,476.95c-2.37,0-4.29,1.92-4.29,4.29s1.92,4.29,4.29,4.29,4.29-1.92,4.29-4.29-1.92-4.29-4.29-4.29ZM1328.17,598.04c-2.37,0-4.29,1.92-4.29,4.29s1.92,4.29,4.29,4.29,4.29-1.92,4.29-4.29-1.92-4.29-4.29-4.29ZM1430.62,460.63c-2.37,0-4.29,1.92-4.29,4.29s1.92,4.29,4.29,4.29,4.29-1.92,4.29-4.29-1.92-4.29-4.29-4.29ZM1529.66,388.59c-2.37,0-4.29,1.92-4.29,4.29s1.92,4.29,4.29,4.29,4.29-1.92,4.29-4.29-1.92-4.29-4.29-4.29ZM1561.57,393.89c-2.37,0-4.29,1.92-4.29,4.29s1.92,4.29,4.29,4.29,4.29-1.92,4.29-4.29-1.92-4.29-4.29-4.29ZM1585.72,396.89c-2.37,0-4.29,1.92-4.29,4.29s1.92,4.29,4.29,4.29,4.29-1.92,4.29-4.29-1.92-4.29-4.29-4.29ZM1614.9,411.17c-2.37,0-4.29,1.92-4.29,4.29s1.92,4.29,4.29,4.29,4.29-1.92,4.29-4.29-1.92-4.29-4.29-4.29ZM1646.26,416.07c-2.37,0-4.29,1.92-4.29,4.29s1.92,4.29,4.29,4.29,4.29-1.92,4.29-4.29-1.92-4.29-4.29-4.29ZM1129.87,563.89c-2.37,0-4.29,1.92-4.29,4.29s1.92,4.29,4.29,4.29,4.29-1.92,4.29-4.29-1.92-4.29-4.29-4.29ZM1161.5,545.53c-2.37,0-4.29,1.92-4.29,4.29s1.92,4.29,4.29,4.29,4.29-1.92,4.29-4.29-1.92-4.29-4.29-4.29ZM1166.95,563.14c-2.37,0-4.29,1.92-4.29,4.29s1.92,4.29,4.29,4.29,4.29-1.92,4.29-4.29-1.92-4.29-4.29-4.29ZM1163.27,586.75c-2.37,0-4.29,1.92-4.29,4.29s1.92,4.29,4.29,4.29,4.29-1.92,4.29-4.29-1.92-4.29-4.29-4.29Z" style="fill: none; stroke: #000; stroke-linecap: square; stroke-linejoin: bevel; stroke-width: 1.34px;"/>
</svg>