<?xml version="1.0" encoding="UTF-8"?>
<svg id="b" data-name="Ebene 2" xmlns="http://www.w3.org/2000/svg" viewBox="0 0 591.14 591.14">
  <defs>
    <style>
      .d {
        fill: #000;
        stroke-width: 0px;
      }
    </style>
  </defs>
  <g id="c" data-name="Ebene 1">
    <polygon class="d" points="331.25 280.79 515.02 97.02 494.12 76.12 310.35 259.89 310.35 0 280.79 0 280.79 259.89 97.02 76.12 76.12 97.02 259.89 280.79 0 280.79 0 280.79 0 280.79 0 310.35 259.89 310.35 76.12 494.12 97.02 515.02 280.79 331.25 280.79 591.14 280.79 591.14 280.79 591.14 310.35 591.14 310.35 591.14 310.35 331.25 494.12 515.02 515.02 494.12 331.25 310.35 591.14 310.35 591.14 280.79 591.14 280.79 331.25 280.79"/>
  </g>
</svg>