<?xml version="1.0" encoding="UTF-8"?>
<svg id="b" data-name="Ebene 2" xmlns="http://www.w3.org/2000/svg" viewBox="0 0 591.14 591.14">
  <defs>
    <style>
      .d {
        fill: #000;
        stroke-width: 0px;
      }
    </style>
  </defs>
  <g id="c" data-name="Ebene 1">
    <polygon class="d" points="370.19 280.79 574.46 196.58 563.2 169.25 358.33 253.71 515.02 97.02 494.12 76.12 337.88 232.36 422.78 28.36 395.49 17.01 310.35 221.59 310.35 0 280.79 0 280.79 220.95 196.58 16.68 169.25 27.94 253.71 232.81 97.02 76.12 76.12 97.02 232.36 253.26 28.36 168.36 17.01 195.65 17.01 195.65 17.01 195.65 221.59 280.79 0 280.79 0 280.79 0 280.79 0 310.35 220.95 310.35 16.68 394.56 27.94 421.89 232.81 337.43 76.12 494.12 97.02 515.02 253.26 358.78 168.36 562.78 195.65 574.13 280.79 369.55 280.79 591.14 280.79 591.14 280.79 591.14 310.35 591.14 310.35 591.14 310.35 370.19 394.56 574.46 421.89 563.2 337.43 358.33 494.12 515.02 515.02 494.12 358.78 337.88 562.78 422.78 574.13 395.49 369.55 310.35 591.14 310.35 591.14 310.35 591.14 280.79 370.19 280.79"/>
  </g>
</svg>