<?xml version="1.0" encoding="UTF-8"?>
<svg id="a" data-name="Pfade" xmlns="http://www.w3.org/2000/svg" width="1920" height="1080" viewBox="0 0 1920 1080">
  <path id="b" data-name="path1662" d="M849.99,425.98l-.74-.02-.02.06-.03.04h-.04s-.08,0-.08,0h-.02s-.11.09-.11.09v.05s-.07.06-.07.06h-.05s-.09.02-.09.02l-.03.07-.04.07-.02.11v.03s-.13.11-.13.11h-.04s-.02.06-.02.06l-.04.07.05.13-.02.05v.02s-.01.1-.01.1v.03s-.05.03-.05.03l-.02.03h-.02s-.02.03-.02.03l-.02.03-.09.15-.05.08-.05.05-.2.14-.51.36-.11.07-.09.06-.1.07-.18.13-.11.08-.12.09-.1.08-.07.06-.16.13-.14.11-.1.08-.13.1-.11.08-.08.06-.18.14-.12.09-.06.04-.03.02h-.02s-.04.02-.04.02l-.06.02-.04.02-.04.02-.04.02-.05.04-.13.1-.08.05-.12.09-.07.04-.1.07-.08.05-.14.11-.16.13-.12.1-.03.03-.17.17-.2.17-.08.21v.06s-.11.29-.11.29l-.05.06-.04.02h-.06s-.18,0-.18,0h-.22s-.22.06-.22.06l-.1.05-.26.11-.19.07-.27.14-.14.05-.22.17-.06.05-.1.09-.11.13-.04.04-.33.19-.04.03-.1.06-.18.02h-.07s-.15-.01-.15-.01l-.15-.05-.42.03-.53.03h-.09s-.09.04-.09.04l-.03.04-.32.25-.1.03-.13.08-.13.02-.18.04-.67.21-.12.04-.02.05v.07s-.03.05-.03.05v.06s-.03.02-.03.02l-.13.05-.44.1-.03.02-.09.02h-.13s-.28,0-.28,0h-.15s-.15-.03-.15-.03h-.18s-.16-.03-.16-.03l-.25.05-.15.03-.07.02-.13.02-.24.04-.3.08-.12.03-.28.07-.13.02-.09.04h-.03s-.14.03-.14.03l-.79.24h-.07s-.75.16-.75.16l-.37.03-1.23.14-.45.17-.41.02-.63.3-2.17.29-2.43.36-.3.04h-.1s-.09,0-.09,0l-.08-.02-.35-.06h-.19s-.13-.03-.13-.03h-.11s-.21-.03-.21-.03l-.2-.05h-.24s-.15,0-.15,0l-.19.02-.47.09-.07.03-.29.05-.27.28h-.12s-.24-.08-.24-.08h-.14s-.15,0-.15,0l-.19.03-.16.04-.18.05-.16.05h-.02s-.04.05-.04.05l-.07.04h-.02s-.09,0-.09,0h-.03s-.03.02-.03.02l-.09.09-.06.04h-.09s-.26.07-.26.07l-.24.1-.08.04-.47.23-.23.09-.14.04-.09.04-.08.03-.05.02-.05.02-.08.03-.1.03-.12.04-.09.02h-.07s-.06.02-.06.02h-.04s-.05,0-.05,0h-.04s-.05-.01-.05-.01h-.04s-.06,0-.06,0h-.05s-.11.02-.11.02l-.11.02-.17.02h-.14s-.06.02-.06.02h-.13s-.05.01-.05.01h-.05s-.05.03-.05.03l-.03.02-.03.02-.02.02-.02.03-.07.11-.05.04-.03.02h-.25s-.03,0-.03,0l-.17-.02-.27-.03h-.2s-.4-.02-.4-.02l-.46-.02h-.33s-.3,0-.3,0h-.26s-.38,0-.38,0h-.52s-1.11.02-1.11.02h-1.01s-.7.02-.7.02h-.44s-.17.06-.17.06l-.1.1-.11.03-.47-.06-.28-.06-.18-.06h-.11s-.08,0-.08,0l-.91-.03-.75-.02-.46-.02h-.58s-.42,0-.42,0h-.22s-.11.06-.11.06l-.15.03h-.09s-.08,0-.08,0l-.08-.05h-.08s-.1,0-.1,0l-.22.03-.25.04h-.23s-.14.03-.14.03l-.09.03-.19.02-.08.02h-.09s-.13.01-.13.01l-.13.05-.26.09-.24.09-.15.06v.02s.04.03.04.03h.05s-.02.06-.02.06l-.21.26h0s-.02.02-.02.02h-.06s-.05-.02-.05-.02h-.16s-.09-.02-.09-.02l-.62-.06.02-.77-.02-.03-.45-.19h-.03s-.04-.02-.04-.02h-.02s-.21-.05-.21-.05l-.08-.02-.09-.03-.03-.02-.24-.13-.06-.04-.13.12-.11-.02.03-.22-.08-.04-.06-.03-.09-.03-.2-.04-.3-.05-.28-.05h-.06s-.06-.01-.06-.01h-.05s-.05,0-.05,0h-.05s-.04.02-.04.02l-.05.02-.04.02-.06.03-.04.02h-.04s-.05.02-.05.02h-.02s-.02,0-.02,0h-.05s-.02,0-.02,0h-.02s-.03-.01-.03-.01h-.02s-.1-.08-.1-.08h-.03s-.03-.02-.03-.02h-.04s-.03,0-.03,0h-.02s-.04.01-.04.01h-.03s-.14.09-.14.09l-.05.02h-.03s-.03.02-.03.02h-.03s-.02,0-.02,0h-.05s-.04-.01-.04-.01l-.34-.1-.18.09-.05-.02.07-.11-.57-.17h-.05s-.08-.02-.08-.02h-.08s.07.11.07.11l-.16-.02-.07-.12-.5-.07h-.06s-.04-.02-.04-.02h0s-.36-.07-.36-.07h0s-.87-.19-.87-.19l-.15-.03-.88-.16-.74-.13h-.06s-.07-.02-.07-.02h-.06s-1.18,0-1.18,0h-.09s-.05,0-.05,0h-.06s-.05-.01-.05-.01l-.38-.11-.2-.05-1.7-.38-.89-.2h-.05s-.06-.02-.06-.02l-.21-.02h-.04s-.04,0-.04,0h-.03s-.15.02-.15.02h-.04s-.04.01-.04.01l-.54.15h-.05s-.05.02-.05.02h-.04s-.04,0-.04,0h-.08s-.05,0-.05,0l-.26-.04h-.06s-.04-.01-.04-.01h-.23s-.04.01-.04.01h-.04s-.05.02-.05.02l-1.1.31h-.03s-.03.03-.03.03l-.03.02-.02.02-.02.02v.02s-.02.02-.02.02v.03s-.03.09-.03.09l-.05.23v.03s-.02.03-.02.03l-.02.02-.02.02-.02.02-.02.02-.22.12h-.03s-.04.02-.04.02h-.03s-.04,0-.04,0h-.06s-.03-.01-.03-.01h-.04s-.44-.18-.44-.18l-.04-.02h-.03s-.02-.03-.02-.03l-.02-.02-.02-.02v-.02s-.03-.02-.03-.02l-.24-.51-.04-.04-.05-.03h-.03s-.02-.02-.02-.02h-.03s-.03-.01-.03-.01h-.02s-.02,0-.02,0h-.02s-.02,0-.02,0h-.02s-.03.01-.03.01h-.03s-.05.04-.05.04h-.02s-.03.03-.03.03l-.16.17-.03.02h-.02s-.03.03-.03.03h-.03s-.03.02-.03.02h-.03s-.03,0-.03,0h-.03s-.03,0-.03,0l-.94-.15h-.08s-.05-.03-.05-.03h-.02s-.03-.03-.03-.03l-.04-.04-.08-.09-.03-.02h-.02s-.03-.03-.03-.03h-.03s-.04-.02-.04-.02h-.04s-.04,0-.04,0h-.04s-.04.01-.04.01h-.04s-.04.03-.04.03l-.03.02-.04.05-.29.62-.03.05-.04.04-.02.02-.05.03-.05.02h-.05s-.06.02-.06.02h-.04s-.04,0-.04,0h-.04s-.06-.04-.06-.04l-.08-.03h-.05s-.05-.02-.05-.02h-.05s-.1.03-.1.03l-.26.05-.17.03h-.05s-.09.01-.09.01h-.21s-.07.02-.07.02l-.07.02-.06.02-.07.03-.14.07-.06.03-.05.02-.04.02h-.04s-.05,0-.05,0h-.28s-.23-.02-.23-.02h-.11s-.04,0-.04,0l-.05.02-.04.02-.07.04-.1.06-.11.07-.11.07-.09.06-.09.07-.12.09-.09.06-.07.04-.07.03-.1.05-.07.02-.24.1-.26.11-.24.1-.2.09-.05.03-.05.02-.05.02-.08.04v.03s-.35.14-.35.14h-.04s-.09.03-.09.03l-.05.02-.06.03-.11.05-.1.04-.09.04-.07.04-.08.05-.06.04-.06.04-.1.07-.09.06-.08.05-.05.02-.05.02h-.05s-.05.02-.05.02h-.05s-.36.02-.36.02h-.51s-.2.03-.2.03h-.06s-.08.03-.08.03l-.07.03-.05.03-.09.06-.17.12-.2.14-.22.16-.08.06-.05.03-.33.17-.66.35-.43.23-.47.25-.06.03-.06.02h-.08s-.24.04-.24.04l-.27.03-.41.04-.38.04-.39.04-.37.04-.21.02-.3.03-.31.03-.31.03-.22.02-.28.03-.33.03-.39.04-.2.02-.26.03-.19.02-.17.02h-.14s-.16.04-.16.04h-.02s-.05.02-.05.02l-.05.02-.09.04-.04.02h-.01s-.16.08-.16.08l-.11.05-.14.06-.06.03-.05.04-.04.03-.07.07-.12.13-.14.14-.21.22-.14.14-.06.07-.04.05-.03.05-.02.05v.04s-.02.07-.02.07v.05s-.01.05-.01.05l-.02.07-.03.06-.04.06-.04.06-.03.04-.05.05-.09.07-.22.17-.25.19-.21.16-.08.06-.08.06-.07.04-.07.04-.07.03-.06.02-.07.02h-.07s-.09.02-.09.02h-.1s-.11.02-.11.02h-.07s-.07.03-.07.03l-.07.02-.05.02-.05.03-.03.02-.1.06-.34.2-.27.16-.28.17-.18.11-.16.1-.05.03-.05.03-.1.05-.23.1-.3.13-.34.15-.07.03-.27.12-.31.13-.2.09-.17.07-.1.04-.09.03-.08.02-.08.02-.24.05-.27.05-.34.07h-.08s-.08.04-.08.04l-.07.03-.05.03-.05.04-.11.1-.09.08-.1.08-.15.12-.13.11-.1.07-.07.05-.06.03-.09.05-.35.19-.14.07-.29.15-.14.07-.06.03-.08.05-.03.02-.09.07-.09.07-.16.15-.08.07-.05.04-.04.03-.04.02-.06.02-.05.02h-.05s-.25.06-.25.06l-.44.09-.38.08-.35.07-.31.07h-.04s-.04.01-.04.01l-.28.02-.43.02-.34.02-.4.02h-.1s-.06.02-.06.02h-.04s-.16.05-.16.05l-.26.07-.19.05-.24.07-.19.05-.2.06-.22.06-.09.02h-.04s-.06.02-.06.02h-.05s-.11.02-.11.02l-.11.02-.15.02-.17.02h-.06s-.04.02-.04.02l-.04.02-.03.02-.03.02-.02.02-.02.02-.03.04-.02.04v.04s-.03.03-.03.03v.02s-.02.02-.02.02v.04s-.03.05-.03.05l-.02.04h0s-.01.03-.01.03l-.03.03-.04.06-.02.03-.02.03-.05.05-.03.03h0s-.03.03-.03.03l-.05.03-.03.02-.06.03-.08.07v.02s-.13.09-.13.09l-.14.11-.12.1-.11.09-.11.09-.08.06-.05.03-.05.02-.06.02h-.06s-.07.02-.07.02l-.24.03-.28.03-.29.03-.23.02h-.12s-.08.02-.08.02h-.08s-.06.02-.06.02l-.06.02-.09.03-.31.11-.25.09-.3.11-.29.11-.19.07-.08.03-.21.08-.24.09-.21.08-.08.03-.07.03-.26.1-.28.11-.29.11-.15.05-.1.02-.21.05-.31.08-.27.07-.08.02-.09.02-.27.07-.34.09-.32.08-.37.1-.41.11-.36.12-.3.1-.33.11v.02s-.04.04-.04.04l-.07.06-.04.02h-.07s-.07.07-.07.07l-.02-.02-.05.04-.07.06-.06.05-.08.08-.08.07-.06.05-.06.05-.04.03-.04.02-.04.02-.05.02-.07.02-.05.02-.1.03h-.05s-.05.03-.05.03l-.04.02-.04.02-.03.02-.15.09-.05.03-.06.02-.05.02h-.06s-.08.02-.08.02h-.22s-1.94.11-1.94.11h-.15s-.25.02-.25.02h-.25s-.02.01-.02.01l-.57.03h-.13s-.13.01-.13.01h-.26s-.37.04-.37.04l-.34.02-.28.02h-.1s-.08.01-.08.01h-.05s-.05.02-.05.02l-.06.02-.23.09-.49.21-.22.09-.32.13-.06.02-.43.14-.22.07-.13.04-.37.12-.35.12-.09.03-.11.04-.07.02h-.03s-.09.04-.09.04h-.04s-.06.03-.06.03l-.06.02h-.03s-.03,0-.03,0h-.03s-.1,0-.1,0h-.14s-.16,0-.16,0h-.08s-.13.03-.13.03h-.24s0-.01,0-.01h-.05s-.15,0-.15,0h-.01s-.21,0-.21,0h-.26s-.24.01-.24.01h-.15s-.12.01-.12.01h-.05s-.06.01-.06.01h-.07s-.14.04-.14.04l-.23.04-.24.04-.48.09-.32.06-.31.06-.14.02-.12.02-.2.04-.18.03-.07.02-.15.04-.18.05-.4.1-.39.1-.39.1-.18.04-.11.03-.26.07-.25.07-.1.03-.06.02h-.05s-.07.02-.07.02h-.07s-.35.03-.35.03l-.35.02-.26.02-.43.02-.52.03-.59.04-.59.04-.48.03h-.15s-.51.04-.51.04l-.54.03v.02h-.02s-.02,0-.02,0h-.02s-.02,0-.02,0h-.02s-.03.02-.03.02h-.02s-.02.01-.02.01h-.01s-.03-.01-.03-.01l-.16-.02v-.02s-.09,0-.09,0l-.32.02-.31.02h-.22s-.14.02-.14.02h-.1s-.14.04-.14.04l-.09.02-.28.05-.41.07-.21.04-.21.04-.43.07-.3.05-.32.05-.25.04-.11.02-.12.02-.12.02-.16.03-.16.03-.37.06-.33.06-.36.06-.44.08-.38.05-.5.06-.22.02-.13.02-.22.03-.23.03-.23.03-.4.05-.21.02h-.04s-.04,0-.04,0h-.05s-.05-.01-.05-.01h-.04s-.16-.05-.16-.05l-.41-.09-.42-.1-.29-.07-.25-.06-.31-.07-.2-.05-.23-.05-.19-.04-.22-.05-.18-.04-.12-.02-.27-.05-.32-.05-.25-.04-.12-.02-.06-.02-.2-.06-.44-.13-.39-.11-.6-.18-.52-.15-.49-.14-.25-.07-.08-.02-.09-.02h-.08s-.07-.03-.07-.03l-.18-.03-.34-.04-.47-.05-.91-.11-.14-.02h-.04s-.04,0-.04,0h-.14s-.31.04-.31.04l-.31.03-.19.02h-.15s-.21.03-.21.03l-.27.02-.29.02-.51.05-.29.03-.22.02h-.04s0,0,0,0h0s-.19,0-.19,0h-.06s0,.03,0,.03h-.2s-.01,0-.01,0h0s0,0,0,0h-.22s0-.02,0-.02h-.11s0,0,0,0h-.23s-.26.01-.26.01h-.2s-.06,0-.06,0h-.06s-.15.03-.15.03l-.2.02-.23.03-.25.03-.25.03h-.13s-.26.04-.26.04h-.08s-.15,0-.15,0h-.16s-.2-.02-.2-.02h-.17s-.43-.02-.43-.02h-.38s-.47-.04-.47-.04h-.31s-.31-.03-.31-.03l-.51-.02-.88-.03-.84-.04-1.68-.07-.69-.03h-.03s-.03,0-.03,0h-.05s-.02,0-.02,0l-.12-.02-.08-.02-.08-.02h-.02s-.07-.03-.07-.03l-.08-.03-.1-.04-.11-.05h-.02s-.23-.13-.23-.13l-.1-.06v-.02l-1.53-.89-.1-.06-.11-.08-1.05-.83-.99-.78-.1-.08-.06-.05-.06-.06-.13-.13-.06-.06-.05-.05-.06-.05-.04-.03-.05-.03-.07-.05-.13-.08-.61-.39-.06-.03-.05-.03-.13-.06-.05-.03-.04-.03-.04-.03-.03-.03-.03-.03-.09-.1-.03-.03-.03-.03-.02-.02-.02-.02-.03-.02-.03-.02-.03-.02-.04-.02-.29-.14-.04-.03-.05-.04-.04-.04-.03-.04-.02-.04-.03-.07-.08-.22v-.02s-.01-.02-.01-.02v-.02s0-.02,0-.02h0s0-.03,0-.03v-.03s0-.03,0-.03v-.03s0-.04,0-.04v-.05s.02-.04.02-.04v-.04s0-.03,0-.03v-.03s-.01-.03-.01-.03l-.02-.04-.02-.03-.03-.03h-.02s-.02-.03-.02-.03l-.03-.02-.04-.02h-.04s-.04-.02-.04-.02h-.03s-.05,0-.05,0h-.05s-.03.01-.03.01h-.03s-.04.02-.04.02l-.05.02-.05.02-.06.03h-.03s-.03.02-.03.02h-.06s-.07.02-.07.02h-.05s-.06,0-.06,0l-.07-.02-.06-.02-.05-.03-.06-.04-.04-.05-.02-.04-.02-.04-.26-.51-.02-.04-.03-.05-.05-.05-.03-.03-.04-.03-.04-.02-.06-.03-.1-.04-1.68-.59-1.68-.59-3.88-1.36-.25-.09-.23-.08-.14-.05-.08-.02-.1-.02h-.08s-.05,0-.05,0h-.06s-.12,0-.12,0l-.26.03-.36.04-.31.03h-.31s-.16.02-.16.02h-.06s-.02.01-.02.01h0s-.11.02-.11.02h-.02s-.02.01-.02.01h-.03s0,0,0,0h0s-.17,0-.17,0v-.02h-.03s0,0,0,0h-.17s-.03,0-.03,0h-.04s-1.08-.19-1.08-.19l-1.09-.19-1.06-.25-.41-.1-.08-.02-.07-.03-.07-.05-.1-.07-.13-.07-.05-.02-.12-.04-.33-.11-.16-.05h-.05s-.06,0-.06,0h-.06s-.04.02-.04.02l-.06.02-.04.02-.25.16h-.02s-.02.03-.02.03l-.02.02-.05.06-.03.03-.03.02-.23.1-.06.03-.05.03-.03.02-.09.1-.03.02h-.01s-.03.03-.03.03l-.04.02-.07.02-.06.02h-.06s-.08,0-.08,0h-.4s-.22-.01-.22-.01h-.05s-.05-.02-.05-.02l-.05-.02-.07-.02h-.05s-.06,0-.06,0h-.06s-.11.03-.11.03h-.07s-.18,0-.18,0h-.03s-.03,0-.03,0h-.03s-.28-.12-.28-.12h-.05s-.05-.02-.05-.02h-.05s-.24.06-.24.06l-.05.02-.04.02-.04.03-.03.04-.03.04v.05s-.01.04-.01.04v.04s.03.05.03.05v.04s0,.04,0,.04v.04s-.02.04-.02.04l-.02.03-.03.04-.02.02h-.03s-.03.03-.03.03h-.04s-.03.02-.03.02h-.06s-.08.02-.08.02h-.04s-.09.04-.09.04l-.11.04-.13.04-.26.08h-.03s-.03,0-.03,0h-.05s-.05-.01-.05-.01h-.04s-.06-.04-.06-.04l-.05-.02h-.04s-.05-.01-.05-.01h-.05s-.05.02-.05.02l-.05.02-.03.02-.04.03-.05.04-.05.03-.05.02h-.05s-.06.01-.06.01h-.06s-.04.01-.04.01l-.05.02-.05.02-.04.04-.03.03-.02.03-.02.03-.03.03-.03.02h-.03s-.04.03-.04.03l-.04.02-.04.02-.03.03-.02.02-.02.02-.03.05-.03.03-.03.03-.04.02h-.04s-.05.03-.05.03h-.05s-.05,0-.05,0h-.09s-.03-.02-.03-.02h-.05s-.03,0-.03,0h-.04s-.03.02-.03.02l-.05.03-.04.04-.02.02-.02.02-.02.02h-.01s-.03.03-.03.03l-.05.02h-.04s-.05.02-.05.02h-.05s-.04,0-.04,0h-.03s-.04-.02-.04-.02l-.04-.02h-.03s-.03-.03-.03-.03h-.03s-.03-.01-.03-.01h-.03s-.03,0-.03,0h-.04s-.11.03-.11.03l-.09.02h-.12s-.03.02-.03.02h-.03s-.04.03-.04.03l-.08.05-.16.11-.07.06-.03.02-.02.02-.02.03-.08.17v.02s-.03.03-.03.03h-.01s-.04.05-.04.05l-.05.03h-.03s-.03.02-.03.02h-.03s-.03,0-.03,0h-.03s-.04,0-.04,0h-.03s-.03-.02-.03-.02h-.01s-.07-.06-.07-.06l-.05-.02h-.03s-.03-.01-.03-.01h-.03s-.03,0-.03,0h-.03s-.04,0-.04,0h-.03s-.05.03-.05.03h-.03s-.03.02-.03.02h-.04s-.15,0-.15,0h-.06s-.04.01-.04.01l-.04.02-.03.02-.03.02-.07.05-.04.02-.04.02h-.03s-.08.02-.08.02h-.03s-.03.01-.03.01h-.03s-.03.02-.03.02l-.03.02-.03.03-.05.07-.02.03-.02.02-.03.03-.03.02-.04.02-.02.02-.03.02-.02.03v.02s-.03.03-.03.03v.05s-.02.2-.02.2v.07s.02.05.02.05l.02.05.13.23v.03s.01.03.01.03v.04s0,.03,0,.03v.03s-.04.04-.04.04l-.04.06-.03.04-.03.03-.04.03-.16.11-.04.03-.14.1-.09.07-.05.02h-.03s-.03.02-.03.02h-.04s-.04,0-.04,0h-.04s-.04-.01-.04-.01h-.03s-.03-.03-.03-.03l-.03-.02-.04-.04-.03-.02-.03-.02h0s0,0,0,0l-.06-.02-.17-.04v.03s-.11-.02-.11-.02l-.08-.02-.02.07-.08-.02v-.04s-.15-.04-.15-.04v-.02s0-.03,0-.03h-.02s-.01-.01-.01-.01h-.02s-.03,0-.03,0h0s-.01,0-.01,0h-.02s-.02,0-.02,0h-.03s-.04.02-.04.02l-1.28.49-.05.02-.05.02h-.05s-.05.02-.05.02l-.8.06h-.12s-.09.03-.09.03l-.06.02-.05.02-.59.29-.07.03-.04.03-.07.06-.84.78-.05.04-.05.03h-.02s-.05.03-.05.03h-.06s-.16.04-.16.04l-.84.11h-.07s-.06.03-.06.03h-.04s-.06.03-.06.03l-.06.02-2.27.85-.11.04-.07.02h-.07s-.92.18-.92.18l-.13.03-.09.03-.05.02-.05.03-.05.03-.03.03-.19.2-.19.21-.03.03-.05.04-.06.03-.04.02-.05.02h-.05s-.05.02-.05.02h-.04s-.04,0-.04,0h-.09s-1.52-.09-1.52-.09l-.39-.02-.44-.02h-.05s-.05,0-.05,0h-.06s-.03-.02-.03-.02l-.9-.24h-.05s-.06-.03-.06-.03h-.06s-.07,0-.07,0h-.06s-.06.02-.06.02l-.08.03-.06.03-.04.03-.04.03-.14.11-.03.03-.06.05-.06.07-.11.11-.1.1-.04.03-.06.03-.05.02h-.04s-.07.01-.07.01h-.23s-.06,0-.06,0h-.05s-.05-.03-.05-.03l-.04-.02-.06-.05-.05-.04-.06-.05-.04-.03-.05-.02-.05-.02-.05-.02h-.05s-.07-.01-.07-.01h-.06s-.06.01-.06.01l-.05.02-.07.03-.08.05v.04s-.28.18-.28.18l-.08.04-.14.09-.27.19-.21.14-.3.2-.27.19-.08.05-.22.1-.11.05-.08.03-.32.12-.36.13-.12.05-.83.3-.09.04-.13.06-.26.11-.26.12-.19.08-.23.08-.21.07-.27.09-.25.1-.3.11-.31.11-.09.03-.08.03-.09.04-.13.06-.12.06-.21.1-.22.09-.11.06-.2.09-.16.07-.12.05-.1.06-.07.05-.1.08-.09.07-.06.05-.05.06-.03.06v.04s-.02.05-.02.05v.56s-.01.05-.01.05v.04s-.02.05-.02.05l-.03.05-.04.06-.31.38-.1.13h0s-.19.25-.19.25l-.03-.02-.08-.05-.03-.02-.62.04-.71.06-.93-.56h-.46s-.04,0-.04,0l-.2.02h-.16s-.07-.02-.07-.02l-.3-.14-.18-.07-.23-.06-.43-.1-.35-.09-.21-.02-.27-.06-.53-.12-.74-.14-.65-.14-.57-.12-.69-.1-.86-.13h-.27s-.02.28-.02.28l-.11-.02-.02.05-.26-.13-.79-.16-.14-.02h-.03s-.05,0-.05,0l-.04-.02h-.11s-.13,0-.13,0l-.16.02-.11-.07-.31-.03h-.04s-.02.02-.02.02l-.03.02h-.03s-.04.01-.04.01h-.05s-.06-.02-.06-.02h-.03s0-.02,0-.02h0s0-.03,0-.03h-.01s-.02-.01-.02-.01h-.01s-.02.03-.02.03h-.02s-.02,0-.02,0h-.02s-.05-.02-.05-.02l-.02-.03h0s-.01,0-.01,0h0s0,0,0,0h-.02s-.01,0-.01,0h0s-.02-.03-.02-.03h-.02s-.02-.02-.02-.02h-.04s-.02-.04-.02-.04h-.06s-.42.11-.42.11l-.26.12-.51.13-.42.24-.22.04-.59.19-.26.06-.22-.23h-.16s-.12-.16-.12-.16l-.13-.14-.17-.15-.05-.06v-.03s-.06-.06-.06-.06l-.02-.04h0s0-.04,0-.04v-.03s-.02-.02-.02-.02l-.05-.06-.04.03-.17.14-.13.09-.52.31-.17-.05-.02-.03-.04-.02-.04-.05-.15-.08-.08-.08-.4.02-.17.57-.19.55-.64.69-.8-.3-.62-.23v-.03s0-.04,0-.04l.03-.4-.21-.08h-.08s-.32-.16-.32-.16l-.28-.12-.18-.13-.23-.02-.52-.05v-.31s0-.37,0-.37l-.04-.17v-.02s0-.01,0-.01h-.01s-.02-.01-.02-.01h-.04s-.03-.02-.03-.02h-.03s-.04-.03-.04-.03h-.02s-.01-.06-.01-.06v-.05s-.02-.02-.02-.02v-.03s0-.03,0-.03l.02-.04.03-.04.03-.04-.02-.04h0s0-.03,0-.03l-.02-.02v-.03s-.02-.02-.02-.02h0s.01-.04.01-.04v-.02s-.01-.02-.01-.02v-.02s.04-.02.04-.02l.04-.04.05-.03.05-.03.03-.02h.05s.02-.02.02-.02h.02s.04,0,.04,0h.06s.03,0,.03,0h.06s.07,0,.07,0h.06s.04,0,.04,0h0s.04,0,.04,0h.04s.05-.03.05-.03l.1-.03.04-.02.02-.02v-.02s.01-.03.01-.03h0s.04-.02.04-.02h.04s.06-.03.06-.03h.05s0-.01,0-.01v-.02s0-.02,0-.02v-.02s.01-.03.01-.03v-.04s0-.02,0-.02l.02-.04v-.03s.01-.03.01-.03v-.03s-.02-.03-.02-.03v-.02s0-.03,0-.03h.03s.03,0,.03,0h.03s.02-.02.02-.02v-.02s.02-.02.02-.02v-.04s0-.04,0-.04v-.03s.02-.02.02-.02h.04s.04-.01.04-.01l.03-.02h0s.01-.03.01-.03h0s0-.03,0-.03h-.01s0-.03,0-.03v-.02s0-.02,0-.02l.02-.02.02-.02v-.03s.02-.02.02-.02v-.02s0-.02,0-.02v-.03s-.02-.02-.02-.02l-.02-.02v-.02s0-.03,0-.03v-.02s0-.01,0-.01v-.02s0,0,0,0v-.02s0-.02,0-.02v-.02s.01-.02.01-.02v-.03s-.02,0-.02,0h-.02s0-.01,0-.01h0s0-.01,0-.01h0s0-.02,0-.02h0s0-.02,0-.02h0s0-.02,0-.02h0s0-.02,0-.02h0s0-.02,0-.02h0s0-.03,0-.03v-.02s-.02,0-.02,0v-.02s-.02,0-.02,0h0s-.01-.03-.01-.03v-.02s-.01,0-.01,0h0s0-.02,0-.02h0s0-.01,0-.01h0s0-.02,0-.02h0s0-.02,0-.02h0s-.01-.03-.01-.03h-.02s-.02-.02-.02-.02h-.01s-.01-.02-.01-.02h-.01s-.01,0-.01,0h-.01s0,0,0,0h-.01s-.01,0-.01,0h-.02s-.02,0-.02,0h0s0,0,0,0h0s0,0,0,0h-.02s0,0,0,0h-.01s0,0,0,0h-.02s0,0,0,0h0s0-.01,0-.01h0s0,0,0,0h0s0,0,0,0h0s-.01-.01-.01-.01h-.02s-.01,0-.01,0h-.01s-.01-.01-.01-.01h0s-.01,0-.01,0h-.01s0,0,0,0h0s0,0,0,0h0s0,0,0,0h0s-.01,0-.01,0h0s-.02,0-.02,0h0s0,0,0,0h0s0,0,0,0h-.01s0,0,0,0h0s0,0,0,0h-.01s0,0,0,0h0s0-.01,0-.01h0s-.01,0-.01,0h-.02s0,0,0,0h-.01s0,0,0,0h0s0,0,0,0h0s-.01,0-.01,0h-.01s-.02,0-.02,0h-.03s-.02.01-.02.01h-.02s0,0,0,0h-.02s-.02,0-.02,0h-.01s-.03,0-.03,0h-.03s-.02-.01-.02-.01h-.02s-.02,0-.02,0h-.03s0,0,0,0h0s0-.02,0-.02h-.02s-.02.01-.02.01h-.03s-.03-.02-.03-.02h-.02s-.06.02-.06.02v-.02h0s0,0,0,0h-.01s-.01.02-.01.02h-.02s-.01,0-.01,0h0s0-.04,0-.04h0s-.03,0-.03,0h0s-.02.04-.02.04h-.01s-.03,0-.03,0h0s-.02-.01-.02-.01l-.02.02h-.02s0-.02,0-.02h-.02s-.07,0-.07,0h-.02s-.03,0-.03,0h-.01s-.02,0-.02,0h-.01s-.02-.01-.02-.01h-.07s-.04-.02-.04-.02h-.04s-.04-.02-.04-.02l-.06-.02h-.06s-.02-.02-.02-.02h-.03s-.02,0-.02,0h-.01s-.02-.03-.02-.03h-.02s-.02-.02-.02-.02h-.02s0,0,0,0v.02s-.02,0-.02,0h-.02s-.03-.01-.03-.01h-.03s-.02,0-.02,0h-.03s-.02-.02-.02-.02h-.02s-.04,0-.04,0h-.01s-.01-.02-.01-.02h-.02s-.02-.01-.02-.01l-.04-.03-.09-.03v-.05s.02-.02.02-.02l.04-.04.09-.06.06-.05.03-.02h.05s.01-.02.01-.02v-.02s.02-.02.02-.02v-.05s.02-.05.02-.05v-.03s0-.02,0-.02l-.02-.02-.05-.02-.02-.02-.03-.02h-.03s-.02-.02-.02-.02h0v-.14s0-.06,0-.06v-.02s-.02-.02-.02-.02l-.02-.02h-.03s-.02-.03-.02-.03l-.02-.03h-.02s0-.02,0-.02h0s.01-.02.01-.02h0s.01,0,.01,0h.02s0,0,0,0h.01s0,0,0,0h.02s.04-.01.04-.01h.03s0-.01,0-.01h0s0,0,0,0h0s.01-.06.01-.06h0s0-.02,0-.02v-.02s.02-.02.02-.02v-.03s0-.04,0-.04v-.02s0-.03,0-.03h0s-.13.03-.13.03l-.09.03h-.04s-.03.02-.03.02h-.05s-.03.02-.03.02h-.03s-.05.03-.05.03l-.04.02h-.02s-.01,0-.01,0h0s-.01,0-.01,0h-.01s-.02,0-.02,0h-.02s-.02.01-.02.01h-.01s-.01,0-.01,0h-.01s-.01,0-.01,0h-.05s-.01,0-.01,0h-.01s-.02,0-.02,0h-.01s-.02,0-.02,0h0s-.01-.01-.01-.01h-.01s0-.01,0-.01h-.06s-.23-.06-.23-.06l-.19-.04-.29-.15-.43-.15-.31-.2-.21-.12v.02s-.04.02-.04.02l-.05.02-.09.07h-.03s-.02,0-.02,0h-.01s-.05-.04-.05-.04l-.03-.02h-.03s-.02,0-.02,0l-.03.02-.03.02h-.02s-.04.03-.04.03h-.05s-.04,0-.04,0l-.04-.02v-.04s-.02-.05-.02-.05l.03-.05.03-.04.03-.04v-.03s.01-.03.01-.03l-.06-.03h-.04s-.04,0-.04,0h-.03s-.02,0-.02,0v.03s-.02.03-.02.03l-.02.02h-.02s-.03,0-.03,0h-.02s.03-.1.03-.1v-.04s0-.04,0-.04l-.02-.02-.03-.02-.04-.02h-.03s-.02-.02-.02-.02h-.02s-.02,0-.02,0l-.02-.02h0s0-.03,0-.03h0s0-.02,0-.02v-.03s-.04-.05-.04-.05l-.13.05-.04-.05h-.15s-.36.14-.36.14l-.23.16-.26.06h-.76s-.51-.11-.51-.11l-.29-.07-.13-.03-.3-.11-.31-.05-.11-.06-.38-.07-.23-.05-.34-.06-.24-.03h-.1s-.44-.07-.44-.07h-.19s-.91-.18-.91-.18l-.2-.06-.23-.08-.2-.09-.26-.16-.1-.05-.14-.07-.07-.05-.08-.04-.09-.03-.08-.05-.23-.17-.16-.14-.14-.09-.06-.03-.12-.02-.03-.02h-.06s-.05-.03-.05-.03h-.02s-.08.02-.08.02l-.13.04-.09.05h-.1s-.04-.03-.04-.03l-.22-.06h-.08s-.09,0-.09,0h-.02s-.02-.02-.02-.02h-.03s-.02-.01-.02-.01h-.02s-.02-.03-.02-.03h-.02s-.03-.03-.03-.03h-.01s0-.02,0-.02h0s0,0,0,0h0s.01-.02.01-.02h0v-.03l-.03-.02h-.02s-.02-.01-.02-.01h-.01s0-.01,0-.01h-.02s-.05-.02-.05-.02h-.04s-.02-.02-.02-.02h-.03s0-.01,0-.01h-.02s-.05-.01-.05-.01h0s0,0,0,0h-.03s0,0,0,0h-.04s-.03-.02-.03-.02l-.03-.03h0s0-.02,0-.02h-.05s0,0,0,0v.02s-.02,0-.02,0h-.02s-.05,0-.05,0h-.05s-.02.01-.02.01h0v.04s-.02.01-.02.01h-.02s0,0,0,0v-.02s-.02-.01-.02-.01h-.01s0,0,0,0h0s-.01,0-.01,0h-.02s-.01,0-.01,0h0s0,.02,0,.02h0s-.01.02-.01.02h0s-.01-.02-.01-.02h-.02s0-.01,0-.01h0s-.02,0-.02,0h-.01s0,0,0,0h-.01s0,0,0,0h-.02s-.01,0-.01,0h-.01s0,0,0,0v.03s0,0,0,0h0s-.01-.01-.01-.01h-.01s0-.01,0-.01h0s-.01-.03-.01-.03h0s-.01,0-.01,0h0s-.02-.01-.02-.01h-.02s-.03.03-.03.03h-.02s-.04,0-.04,0h-.02s-.02,0-.02,0h-.03s-.03-.02-.03-.02l-.04-.02h0s0-.01,0-.01h0s-.03,0-.03,0h-.01s-.01,0-.01,0h-.01s-.03,0-.03,0h-.03s-.02,0-.02,0h-.02s-.03,0-.03,0h-.03s-.06.03-.06.03v.02s-.01,0-.01,0h0s-.03-.01-.03-.01h-.03s-.01.03-.01.03h-.02s0,.01,0,.01h-.04s-.01-.01-.01-.01h-.03s-.03,0-.03,0l-.05.02h-.03s-.02.01-.02.01h0s0,0,0,0h0s-.04-.03-.04-.03l-.04-.02h-.04s-.02,0-.02,0h-.01s0,.02,0,.02h-.01s-.01.02-.01.02h-.02s0,0,0,0h-.02s-.06,0-.06,0h-.02s0,0,0,0h0v-.04s-.01-.01-.01-.01v-.02s-.03,0-.03,0h-.01s.04.08.04.08l-.04-.05-.18-.03h-.12s-.01,0-.01,0l-.07-.03h-.03s-.02.03-.02.03l-.04.02h-.04s0,.03,0,.03h-.02s-.04,0-.04,0h-.02s.02.03.02.03l.03.02h.02s.02.03.02.03h.03s.03.02.03.02h.03s.01.03.01.03v.03s0,.03,0,.03h0s0,.02,0,.02v.02s0,.02,0,.02h0s0,.02,0,.02h.01s.02.02.02.02h.02s.01,0,.01,0l.02-.02h0s.02.01.02.01v.02s0,.02,0,.02v.02s-.01.03-.01.03v.02s-.02.02-.02.02h-.02s-.01.02-.01.02h-.02s-.04.03-.04.03l-.03.03-.03.04-.02.02h0s0,.03,0,.03h.01s.02.04.02.04h0s0,.03,0,.03v.02s-.02.01-.02.01h-.02s0,0,0,0h0s0,.02,0,.02h0s.01.02.01.02h.01s.01.02.01.02h0s0,0,0,0h.01s.01-.03.01-.03h.01s.01-.01.01-.01h.01s0,.01,0,.01h0s0,.03,0,.03h0s0,.02,0,.02h0s0,.02,0,.02h0s.02.01.02.01h0s0,.02,0,.02h0s0,.01,0,.01h0s0,.04,0,.04h0s-.01.01-.01.01l-.02.03v.04s.01.02.01.02h0s0,.03,0,.03v.02s-.02,0-.02,0l-.04.02h-.04s0,.01,0,.01h0s0,.02,0,.02v.02s0,0,0,0h.01s.02,0,.02,0h.02s0,.01,0,.01v.02s0,.01,0,.01h0s0,.03,0,.03h0s-.02.02-.02.02h-.01s0,.02,0,.02h0s0,.03,0,.03h.01s.01.02.01.02h.02s.02.01.02.01h.01s0,.02,0,.02h0s0,.02,0,.02v.02s.02.01.02.01v.02s0,.01,0,.01h-.01s0,0,0,0h-.02s-.03-.03-.03-.03h0v-.02h0s-.01-.02-.01-.02h-.02s-.02,0-.02,0h-.02s-.03.01-.03.01h-.02s-.02.01-.02.01h-.02s0,.02,0,.02h0s0,.02,0,.02h0s0,.02,0,.02h0s0,.02,0,.02h0s-.01.01-.01.01h-.03s-.01,0-.01,0h-.02s-.02.02-.02.02h-.02s0,.02,0,.02v.02s0,.03,0,.03h0s0,.02,0,.02h0s0,.02,0,.02h0s-.01,0-.01,0h-.02s-.01,0-.01,0l-.03.02h0s0,.02,0,.02h.01s0,.03,0,.03v.02s-.02.03-.02.03h-.02s-.02.03-.02.03h-.04s-.01,0-.01,0h-.02s-.02,0-.02,0h-.02s-.02-.02-.02-.02h-.02s-.02,0-.02,0h-.01s0,.03,0,.03l-.02.02h-.01s0,.02,0,.02v.02s-.01.01-.01.01h0s0,.03,0,.03h0s0,.02,0,.02h-.01s-.01.04-.01.04h0s-.02,0-.02,0h-.03s-.03.01-.03.01h-.02s-.04,0-.04,0h-.04s-.02.02-.02.02h-.01s0,.03,0,.03v.02s0,.01,0,.01h0s0,0,0,0h-.01s-.01.01-.01.01h-.01s-.02.02-.02.02h-.01s0,0,0,0h-.01s-.05-.01-.05-.01h0s0,0,0,0h0s-.01.02-.01.02h-.04s-.02,0-.02,0h-.03s-.02-.02-.02-.02h-.02s0,.02,0,.02h0s-.02.02-.02.02h-.01s0,.03,0,.03v.02s-.02.02-.02.02l-.02.02h0v.04s.01,0,.01,0h0s0,.02,0,.02h-.02s0,.02,0,.02h0s-.02.03-.02.03v.02s-.02.01-.02.01v.03s0,.02,0,.02h0s.01.02.01.02h.02s.02.01.02.01h0s0,.03,0,.03v.03s-.01.03-.01.03v.02s-.03.01-.03.01l-.04.02h-.03s-.01.02-.01.02v.02s0,.01,0,.01h0s0,.02,0,.02h0s-.01.02-.01.02l-.02.03h-.02s-.02,0-.02,0h0s0,.02,0,.02v.02s0,.02,0,.02v.02s0,.02,0,.02h0s0,.03,0,.03v.02s.01.02.01.02v.02s.01.02.01.02h0s0,.02,0,.02h0s-.02.01-.02.01h-.02s-.03-.02-.03-.02l-.02-.02v-.02s-.02-.01-.02-.01h-.01s-.02,0-.02,0h-.03s-.02,0-.02,0h-.03s-.03-.02-.03-.02h-.01s0,.01,0,.01h0s0,.02,0,.02h0s.01.03.01.03l.02.03h0v.06s-.02.02-.02.02h-.01s-.02,0-.02,0h-.02s-.02,0-.02,0h-.02s-.03.03-.03.03h-.02s-.03,0-.03,0h-.06s-.05,0-.05,0h-.02s-.03.02-.03.02v.02s-.02.01-.02.01h0s.01.03.01.03h0s0,.04,0,.04v.02s.02.03.02.03l.02.04v.02s0,.01,0,.01h-.02s-.03.02-.03.02h-.04s-.02,0-.02,0h-.03s-.02,0-.02,0h0s0,.02,0,.02h0s0,.03,0,.03v.02s0,0,0,0h-.02s-.02.02-.02.02l-.03.03-.04.05-.03.03v.02s-.01.03-.01.03h0s-.02.02-.02.02l-.03.02h-.01s0,.02,0,.02h0s0,.04,0,.04v.03s-.02.02-.02.02h-.01s-.02.03-.02.03v.02s-.02.02-.02.02h-.02s-.01.02-.01.02v.02s-.04.03-.04.03l-.02.02-.02.03-.02.02-.03.03-.03.03-.03.03-.03.02h-.02s-.02.03-.02.03v.02s-.02.02-.02.02v.04s0,.03,0,.03v.02s.02,0,.02,0h.02s.03.02.03.02h.02s.02.03.02.03l.02.02.02.02v.02s0,.02,0,.02h0s0,.01,0,.01h-.02s-.02.03-.02.03h0s0,.02,0,.02h0s.02.02.02.02h.02s.03.03.03.03l.02.02.02.02h0v.04s-.02,0-.02,0h-.02s0,.03,0,.03v.02s-.03,0-.03,0h0v.02h0s.01.02.01.02h.02s.02.02.02.02h0s.02.02.02.02l.04.05.02.03.02.03v.02s.02.03.02.03h0s0,.04,0,.04h0s0,.03,0,.03l-.02.02h0s0,.03,0,.03v.02s0,0,0,0h0s0,.02,0,.02h.02s.02.02.02.02l.04.02h.02s.03.03.03.03l.02.02.03.05.02.03.03.03.04.02.03.03.02.03.02.04.02.04h.01s.02,0,.02,0h.02s.02,0,.02,0h.02s.02.03.02.03h.02s.01.01.01.01h.01s.01-.02.01-.02h.02s.02-.01.02-.01h.02s.02.01.02.01h0s0,.03,0,.03v.03s0,.02,0,.02h0s0,.03,0,.03v.06s-.01.02-.01.02v.02s.02.04.02.04v.02s.04.04.04.04v.02s0,.02,0,.02v.02s0,.02,0,.02v.03s-.02.04-.02.04l-.02.04v.03s-.04.04-.04.04v.02s0,.02,0,.02v.02s-.02.04-.02.04l-.02.03-.02.02h-.01s-.02.01-.02.01h-.01s-.01.02-.01.02l-.02.02h-.02s-.02.01-.02.01h0v.05s-.02.02-.02.02h-.02s-.03.03-.03.03l-.02.02-.03.02v.02s-.02.03-.02.03v.02s-.03.02-.03.02l-.02.02h-.01s0,.04,0,.04v.02s-.02.02-.02.02l-.02.02-.02.02-.02.02-.02.02v.02s0,.02,0,.02v.02s0,.01,0,.01h-.02s-.03.01-.03.01h-.03s-.01.01-.01.01h-.01s-.03,0-.03,0h-.05s-.02.01-.02.01l-.03.02h-.02s-.01.03-.01.03l-.02.02-.02.03-.02.02-.02.03h0s0,.02,0,.02h.01s.01.02.01.02h0s0,.03,0,.03h0v.06s-.04.02-.04.02l-.02.02v.02s-.02.02-.02.02v.02s.02.02.02.02h0s0,.02,0,.02h0s-.01.02-.01.02v.02s-.02.02-.02.02l-.02.02-.02.02h-.02s-.02.04-.02.04l-.02.02h-.02s0,.03,0,.03v.02s0,.02,0,.02v.02s.01.03.01.03v.03s0,.02,0,.02v.02s-.02.02-.02.02v.03s-.03,0-.03,0h-.05s-.02-.02-.02-.02h-.03s-.03-.01-.03-.01h-.02s-.04.01-.04.01h-.04s-.02.02-.02.02l-.07.15v.03s-.02,0-.02,0l-.04.02h-.04s0,0,0,0h-.02s-.03,0-.03,0h-.02s-.02.04-.02.04h-.02s-.03.03-.03.03h-.03s-.02,0-.02,0h-.03s-.03-.01-.03-.01h-.02s-.02.02-.02.02l-.02.02-.02.02-.03.02-.04.02h-.03s-.04,0-.04,0h-.01s0,.02,0,.02v.03s0,.03,0,.03v.04s-.01.02-.01.02v.02s-.02.02-.02.02v.03s-.01.03-.01.03v.02s0,.02,0,.02h0s0,.03,0,.03v.03s0,.01,0,.01v.02s-.01,0-.01,0h-.01s-.03,0-.03,0l-.03-.02h-.03s-.04,0-.04,0h-.03s-.04.03-.04.03l-.03.03-.03.02-.03.02-.05.02h0s-.03.03-.03.03h-.02s-.02.01-.02.01h-.02s-.02,0-.02,0h-.02s-.02.01-.02.01h-.02s-.01-.01-.01-.01l-.04-.02h-.03s-.02-.02-.02-.02h-.03s-.02,0-.02,0h-.02s-.03.04-.03.04v.09s.02.13.02.13v.19l.06.32v.13s.07.25.07.25l-.03.24.07.34-.08.11-.03.1.07.18.06.43.12.2.24.24.06.13.05.16.2.37-.14.13-.03.12-.03.18-.03.04-.2.37-.07.38-.04.1-.03.16-.12.15-.22,1.04-.03.14-.07.04-.12.1-.07.2-.12.09-.12.11-.11.09-.1.09-.09.06-.07.04-.18.14-.08.08-.09.09-.17.17.11.05v.03h-.05v.17l.13-.03-.03.21.05.07v.12s-.29.17-.29.17l.11.24.09.02h.11s.13.09.13.09l.18.2-.04.12-.04.15v.09s.15.12.15.12l.26.05-.07.11-.13.11.06.11-.05.15.06.03-.16.07.07.06v.07s-.11.1-.11.1v.12s.03.11.03.11l.23.19h.1s.09-.04.09-.04l.05.02.06.09v.1l-.04.15-.09.27.13.39.25-.03.2.17.22.45h.03s.28.75.28.75l.49-.06.09.03.15.03.24-.03-.06.17v.04s0,.03,0,.03v.06s0,.07,0,.07v.12s.03.07.03.07l.04.07v.08s-.04.06-.04.06l-.1.08-.05.09h-.27s0,.03,0,.03v.03s.03.02.03.02l.03.03.08.12.17.07v.02s.09.04.09.04l.15.11.18.09.16.11.13.07.05.03h0s0,.01,0,.01l-.28.21-.05.03-.24.09-.11.03h-.09s-.1.02-.1.02h-.07s.04.35.04.35l.05.12.08.4.11.23.05-.03v-.04s-.04-.02-.04-.02v-.02s0-.02,0-.02l.02-.02v-.02s-.04-.05-.04-.05h0s0-.05,0-.05h.03s.04,0,.04,0l.02.02.02.02h.02s.03.01.03.01l.03-.02v-.02s.01-.02.01-.02v-.02s-.01-.02-.01-.02v-.03s-.02-.03-.02-.03h0s0-.02,0-.02h.02s.03-.02.03-.02h.04s.04-.03.04-.03h.03s.02-.02.02-.02l.02-.02h.01s.01,0,.01,0v.02s.03.03.03.03l.04.02.03.03.05.03.04.02h.03s.03,0,.03,0l.04-.02.05-.02.04-.02.05-.02.04-.04v-.03s.03-.02.03-.02h.01s.02.01.02.01l.05.03.03.02h.02s.02,0,.02,0v-.02s0-.06,0-.06v-.03s-.02-.05-.02-.05v-.04s-.01-.02-.01-.02h-.01s0-.02,0-.02v-.02s-.01-.02-.01-.02v-.02s0-.01,0-.01h0s.02-.02.02-.02h.02s.02,0,.02,0h.01s.03-.02.03-.02h.03s.03-.02.03-.02h.04s.04,0,.04,0l.05.02h.02s.02.02.02.02l.03.02h.04s.02.02.02.02h0s.01.02.01.02h.02s.02.02.02.02h.02s.01,0,.01,0l.26.32.47-.1h.14s.01.01.01.01h.13s.06.18.06.18l.07.03.2.18.07.19-.17.09v.17s-.1.02-.1.02l-.13.13v.16s.01.09.01.09h-.16s.07.08.07.08l.04.08v.07s-.07,0-.07,0l.04.46h.35s.34,0,.34,0h.13s.3,0,.3,0h.14s.11.07.11.07v.09s.09.01.09.01l.05-.03h.07s.08,0,.08,0h.04s.07-.04.07-.04h.08s.05.04.05.04v.07s.03.15.03.15v.1s-.1,0-.1,0l-.1.04-.02.08-.1.11-.13.12-.18-.02-.14.31-.05.23.19.17.21.12.06.14.2.23.07.22.06.4-.21.23-.32.05-.15.02v.25s.08.05.08.05l-.03.03h-.21s-.12-.02-.12-.02l-.13-.12-.24-.03-.19.02.04.09.04.07.07.13-.09.02h-.24s-.21,0-.21,0l-.21-.1-.1-.03-.26-.09-.17-.09-.46-.17-.15-.03-.27.06-.05.04h.08s-.01.14-.01.14l.02.05.1.03.17.02-.02.04h-.09s-.03.11-.03.11l-.05.08v.12s.01.07.01.07h.13s-.17.46-.17.46l-1.09-.28-.03-.08-.29-.14-.33-.12h-.05l-.16.03-.18-.07-.05-.1-.2-.1-.21-.1-.47-.17-.08.1-.04.06.1.18-.06.02-.33.3-.12-.06-.16-.18-.2-.18-.49-.62-.35.11-.02.03h-.02s-.07-.04-.07-.04h-.21s-.06,0-.06,0l-.34.03-.22.02-.02.02h-.18s-.03-.03-.03-.03h-.04v.23s-.04.07-.04.07h0s0,.03,0,.03v.2s-.06.04-.06.04v.02s.05.03.05.03h0s-.01.05-.01.05h0s.11.12.11.12l-.18.13-.34-.15-.06-.19v-.02s-.06,0-.06,0h-.05s-.03,0-.03,0l-.19-.08-.05-.02h-.01s.13.3.13.3l.02.08h0s-.08.07-.08.07h0s0,.01,0,.01h0s.01.1.01.1v.06s.02.02.02.02h.02s.03.03.03.03h.01s0,.02,0,.02v.02s0,0,0,0h-.01s-.06.04-.06.04l-.13.05-.28.12-.02.1-.11.1-.09.12.08.21v.11s-.18.03-.18.03v.06s0,.04,0,.04l-.08.06-.15.03.02-.06-.14-.03h-.09s-.24-.19-.24-.19v-.09s.05-.16.05-.16l-.44.04-.39.03-.42-.03h-.08s-.07-.04-.07-.04l-.47-.26-.14-.06-.26-.15-.34-.19-.23-.11-.2-.09-.28.3v.02s0,.02,0,.02v.02s-.04.01-.04.01h-.16s-.11.02-.11.02l-.06.04-.03.04.03.07.04.05.04.02h.03s.05-.08.05-.08l.09-.05h.07s.06.02.06.02l.06.06v.07s-.01.07-.01.07l-.06.05h-.06s-.03.07-.03.07l.02.07v.03s.04.01.04.01l.06-.04.03-.07v-.08s.04-.01.04-.01l.06.02.06.06.04.06.02.08.09.13v.05s0,.04,0,.04h-.05s-.05-.05-.05-.05l-.03-.06-.04-.02h-.05s-.05.09-.05.09v.04s.04.05.04.05v.05s0,.04,0,.04h-.04s-.02.09-.02.09v.04s.14.07.14.07h.06s0-.01,0-.01l-.07-.07v-.07s.01-.06.01-.06l.07-.02h.04s.02.04.02.04l-.06.04v.06s.03.04.03.04l.15.05.06.07v.06s0,.07,0,.07l-.05.04h-.04s0-.03,0-.03l.02-.03v-.03s-.02-.02-.02-.02h-.03s-.02,0-.02,0l-.02.02v.03s.02.05.02.05v.06s-.03.04-.03.04l-.05.02h-.04s-.1-.02-.1-.02h-.12s-.05.03-.05.03l-.03.03-.02.04.02.07-.04.05-.04.02h-.04s-.03-.02-.03-.02l-.1-.02-.05-.02-.02-.04.04-.04.06-.02h.07s.05-.02.05-.02l.03-.04v-.03s-.02-.02-.02-.02h-.05s-.06,0-.06,0l-.09.03-.07.02-.02.04v.03s.05.12.05.12v.04s-.08.05-.08.05h-.01s-.04-.02-.04-.02l-.05-.06h-.03s-.03.09-.03.09l-.07.05-.05.02-.02.03-.03.07-.04.02-.05-.06-.07-.03h-.03s-.06.01-.06.01h-.02s0,.04,0,.04v.05s.12.06.12.06l.09.09.05.08.03.02h.03s0,.03,0,.03v.08s-.04.03-.04.03l-.03.02h-.02s-.02-.06-.02-.06l-.05-.03h-.05s-.01.01-.01.01v.08s-.03.05-.03.05l-.04.02h-.05s-.05-.01-.05-.01h-.03s-.02.06-.02.06v.03s.06,0,.06,0h.09s.03.02.03.02v.04s0,.03,0,.03l-.05.08v.03s0,.06,0,.06l-.02.03v.03s.04.03.04.03h.08s.04.02.04.02l.08.08.06.02h.04s.09-.03.09-.03l.03.02.07.06h.07s.06.03.06.03v.04s0,.04,0,.04l-.05.03h-.03s-.12,0-.12,0l-.03.02.04.09.02.08.06.09.05.02h.04s.07-.09.07-.09l.06-.02h.04s.05.03.05.03l.03.05.04.03.09.03h.05s.02.03.02.03l-.02.05v.06s-.06,0-.06,0h-.04s-.02,0-.02,0v.04s.09.08.09.08v.04s-.04.02-.04.02h-.1s-.04.01-.04.01v.03s.01.07.01.07l-.03.05-.06.06-.02.07.04.05v.02s-.03.03-.03.03v.02s.01,0,.01,0h.03s.07.05.07.05l-.05.03-.09-.04-.08.02h-.04s-.05.07-.05.07l-.09.03h-.07s0,.04,0,.04l.02.03.11.05.04.05-.06.02h-.13s-.06.03-.06.03l-.05.05-.04.06v.03s.03.01.03.01h.04s.12-.05.12-.05h.07s.05,0,.05,0l.03.05v.11s.02.04.02.04l.06.03v.11s-.04.02-.04.02h-.04s0-.07,0-.07l-.06-.08-.11-.02-.08.02-.11.05-.02.04.03.04.1.03.07.05.03.06.02.12-.02.03h-.03s.01.04.01.04h.04s.12-.06.12-.06h.07s.05.02.05.02l.05.08v.07s-.03.05-.03.05l-.13-.03-.11.02-.05.03-.02.06.04.08h.08s.07.04.07.04h.03l.02-.03.02-.1h.06s.07,0,.07,0l.11.08.06.05-.02.09.04.2-.02.06-.04.03h-.05s-.05-.05-.05-.05l-.03-.08-.03-.06-.07-.05-.06-.02h-.07s-.04.02-.04.02v.02s0,.04,0,.04l.03.04v.11s.05.07.05.07l.12.08.04.1.1.09.03.04.07.04.09.07.04.06.05.05.03.06-.04.1-.03.08-.03.02h-.07s-.04.02-.04.02l.02.03.04.04v.03l-.05.06-.04.02h-.05s-.03,0-.03,0v-.02s-.05-.02-.05-.02l-.06.02-.06.06-.05.03-.04.05v.03s.05.02.05.02l.02.03-.04.06v.05s.01.04.01.04l.07.08v.04s-.05.05-.05.05l-.03.05v.06s.01.04.01.04l.06.05.03.06-.02.07h-.08s-.02.03-.02.03v.03s.07.04.07.04l.33.12v.04s-.02.05-.02.05v.07s-.03.03-.03.03h-.05s-.02-.03-.02-.03l-.07-.03-.09.07-.06.02h-.04s-.02.01-.02.01v.04s.05.08.05.08v.06s.02.05.02.05h.13s.15,0,.15,0l.1.04.08.05v.05s.01.05.01.05l-.02.03-.05.02-.13.02-.07.02-.17.02-.03.03v.05s.04.06.04.06v.04s-.04.06-.04.06l-.07.02-.05.04v.03s.09.04.09.04l.02.03v.05s-.09.03-.09.03l-.07.04-.12.07-.07.02-.06.05h.02s.07.06.07.06l.02.03v.03s-.07.05-.07.05v.03s-.02.02-.02.02h-.08s-.03,0-.03,0v.03h.16s.11-.01.11-.01l.05.03.03.05v.05s-.03.04-.03.04l-.07.05-.02.05v.04s.1.1.1.1l-.17.22-.24.21-.08.06-.04.02-.04.02-.1.06-.13.06-.15.1h-.04s-.16.13-.16.13l-.18.09-.3.13h-.05s-.07.02-.07.02l-.06.02h-.16s-.18-.05-.18-.05l-.08-.08-.05-.05-.09-.06-.04-.07-.05-.06-.14-.11-.08-.06-.03-.05-.11-.07-.22-.16-.15-.05-.09-.02-.08-.03h-.05s-.13-.06-.13-.06h0s-.19-.13-.19-.13h-.06s-.04.02-.04.02h-.04s-.01.01-.01.01l-.05-.02h-.03s-.06.05-.06.05l-.18-.04-.02.03-.09.02-.07.04-.03.14v.1s0,.09,0,.09v.35s0,.04,0,.04l-.03.14.03.39.23.33.05.28h.02s.16.16.16.16l.13.15.03.1-.04.08-.08.11-.1.12-.07.03-.02.02-.07.05-.2.11-.27.11h-.04s-.03,0-.03,0h-.17s-.16-.05-.16-.05l-.06-.02-.06-.04-.11-.04-.04-.03-.1-.12-.16-.17-.12-.11-.08-.02-.1-.04h-.06s-.05-.01-.05-.01l-.18.02-.17.02-.28.03-.19.05-.22.05-.16.07h-.05s-.39.12-.39.12h-.16s-.17.05-.17.05l-.32.06-.04.02-.05.03-.24.12-.09.04-.07.06-.06.06-.15.13-.14.14-.2.21-.13.14-.13.2-.1.09-.07.15-.1.18-.07.36-.06.23.03.1v.1s.02.06.02.06l.02.03h0s-.02.04-.02.04v.03s-.01.04-.01.04v.03s-.02.03-.02.03l.03.06v.04s-.06.05-.06.05v.02h.01s0,.04,0,.04l.02.04v.02s-.04.02-.04.02l.02.07v.08s-.05.09-.05.09l-.06.08h.05s-.02.12-.02.12l-.11.09v.05s.05.14.05.14l.05.14.1.16v.09s.05.03.05.03v.07s.04.05.04.05v.13s-.05.05-.05.05h-.06s0,0,0,0l.03.05v.05s0,.04,0,.04v.08s0,.04,0,.04v.03s-.16.42-.16.42l.11.19v.13s-.04.12-.04.12l.02.11h.03s.01.06.01.06v.05s.02.07.02.07l-.05.04v.02s0,.09,0,.09v.02s-.1.1-.1.1v.04s0,.06,0,.06l-.02.04-.09.04-.03.04v.03s-.14.03-.14.03l-.06-.02-.03.03v.02s.02.02.02.02h.06s0,.01,0,.01h0s0,.06,0,.06h0s0,.02,0,.02l.03.03h0s0,.02,0,.02l-.09.11v.02s0,.01,0,.01l.02.05h.01s.07.02.07.02l.02.04h0s-.12.05-.12.05h-.01s0,.02,0,.02h0s-.02.09-.02.09h0s-.01.02-.01.02h-.02s-.05.01-.05.01l-.03.02-.15.05-.02.04v.02s0,.02,0,.02h0s-.01.02-.01.02l-.12.02-.12-.02-.11-.06-.14-.08-.24-.14-.09-.08-.02-.24v-.14s0-.12,0-.12l.05-.21-.04-.03v-.09s.02-.05.02-.05l-.06-.02v-.07s-.02-.02-.02-.02v-.04s-.05-.03-.05-.03l-.07-.19-.52-.46-.1-.15-.28-.12-.05-.16-.04-.05-.1-.05-.03-.02h-.01s-.12-.02-.12-.02l-.19-.05-.54-.05-.22-.06-.44-.32-.31.03h-.01s-.09.02-.09.02l-.24.07-.18-.14-.26-.18h-.02s-.27-.11-.27-.11l-.28-.11-.27.11h-.15s-.33-.04-.33-.04l-.17-.19-.42.03-1.03.09-.03-.09-.03-.1.03-.07.3-.58v-.02s.02,0,.02,0l.1-.24.06-.02.06-.04v-.02s.02-.02.02-.02h-.01s0-.01,0-.01h0s0-.03,0-.03h.01s0-.02,0-.02l.02-.06-.02-.02v-.02s.02-.05.02-.05v-.02s.03-.06.03-.06l.08-.08.02-.07.09-.04.14-.3-.03-.05-.12-.2-.02-.04-.11-.2-.02-.03-.05-.09h0s-.06-.12-.06-.12l-.06-.11-.07-.14-.1.04h-.02s-.08.01-.08.01h-.03s-.03,0-.03,0l-.1.05-.02-.03-.05-.03-.18.05-.04-.07h0s-.06,0-.06,0h-.14s-.11,0-.11,0h-.07s-.09,0-.09,0h-.03s-.08.02-.08.02h0s-.15.03-.15.03l-.11.02v.03s-.03.04-.03.04h-.02s0,.03,0,.03v.04s-.02.02-.02.02h-.01s-.01.04-.01.04l-.02.03h-.03s-.03-.02-.03-.02h-.02s-.07.03-.07.03h-.04s-.08,0-.08,0l-.09.11h-.03s-.16.12-.16.12l-.11.06-.03.02h-.01l-.06-.09h-.01s-.03.01-.03.01h-.04s-.04-.06-.04-.06h-.02l-.05.02h-.27s-.75.41-.75.41l-.1.05-.06-.02-.07-.02-.06-.02h-.2s0,.01,0,.01l-.03-.02-.02-.02-.13-.24-.09-.07h0s-.02.02-.02.02l-.02.02h-.02s-.01,0-.01,0h-.02s-.01,0-.01,0h-.01s-.03,0-.03,0l-.03-.02h-.02s-.02-.02-.02-.02v.02s-.02,0-.02,0h0s0,.02,0,.02h-.04s-.03.03-.03.03v.03s0,0,0,0h.02s0,0,0,0h-.01s-.01.01-.01.01l-.02.02h-.01s0,.02,0,.02h.01s0,.02,0,.02h0s0,.02,0,.02h0s0,.03,0,.03v.02s-.03,0-.03,0h-.03s-.05.02-.05.02h0s0,.01,0,.01h-.02s-.02-.01-.02-.01h-.03s0,0,0,0v.02s.01.01.01.01h-.03s-.01,0-.01,0h-.03s-.01.01-.01.01h0s0,0,0,0h0s0,.03,0,.03h-.02s0-.02,0-.02h0s-.02,0-.02,0h0s-.01,0-.01,0v.04h-.04s0,0,0,0h.01s0-.02,0-.02h-.01s-.02.01-.02.01h-.03s0-.01,0-.01l-.03.02h-.02s-.02,0-.02,0h-.02s-.03.03-.03.03h0s-.02.02-.02.02h-.01s0,.03,0,.03h-.01s0,.03,0,.03h-.01s-.02.03-.02.03h0s-.02.02-.02.02v.04s0,.02,0,.02l-.03.02h-.04s-.03.02-.03.02v.02s-.02,0-.02,0h0s0,.01,0,.01h0s0,.03,0,.03v.02s0,.03,0,.03v.04s-.01.02-.01.02v.03s-.04.06-.04.06v.02s-.03.03-.03.03l-.02.02v.02s0,.02,0,.02v.04s-.02.03-.02.03l-.02.05-.02.02h0s0,.01,0,.01h0s0,.01,0,.01h0s-.01.01-.01.01h-.04s-.01-.01-.01-.01v.05s-.03.01-.03.01h0s0,.01,0,.01h0s-.01.01-.01.01h0s0,0,0,0h0s.01.02.01.02v.02s0,.02,0,.02v.04s-.02.01-.02.01h0s0,.03,0,.03v.02s-.02,0-.02,0h-.02s-.01,0-.01,0l.02.02v.05s-.01.05-.01.05v.02s0,.02,0,.02h0s0,.03,0,.03v.02s-.02.08-.02.08v.04s-.01.05-.01.05v.08s-.03.06-.03.06h-.01s0,.03,0,.03l-.02.07v.03s-.02.03-.02.03h-.02s0,.05,0,.05h0s0,.02,0,.02v.03s-.03.02-.03.02v.02s-.02.01-.02.01h0s-.02.09-.02.09l-.02.05v.03s-.04.06-.04.06v.04s-.03.06-.03.06v.05s-.03.02-.03.02l-.02.04v.02s-.02.02-.02.02v.02s-.03.03-.03.03v.02s-.02.02-.02.02l-.02.04-.02.02v.02s-.03.01-.03.01h-.01s-.03.05-.03.05l-.03.03-.02.02h-.02s-.03.04-.03.04l-.02.02h-.03s-.01.02-.01.02l-.03.02h-.03s-.03.02-.03.02h-.03s-.03-.02-.03-.02h-.06s0-.02,0-.02h-.01s-.02,0-.02,0h0s-.02.02-.02.02h0s-.02,0-.02,0h-.02s-.02-.02-.02-.02h0s0,.01,0,.01h0s0,.02,0,.02h0s-.02.03-.02.03l-.02.02v.02s-.03.02-.03.02h-.01s-.02.04-.02.04h-.02s-.02.04-.02.04h-.01s-.02.02-.02.02h-.02s-.01.02-.01.02h-.01s-.01.03-.01.03h-.01s-.01.03-.01.03h-.01s-.01,0-.01,0h0s-.02,0-.02,0v.02s-.03.02-.03.02l-.02.02h0s-.02.02-.02.02h-.01s-.01.02-.01.02h-.01s-.04.02-.04.02h-.02s-.04.02-.04.02l-.03.02-.03.02-.02.02-.02.02h-.01s-.01.03-.01.03h0s0,.01,0,.01h0s0,.01,0,.01h0s-.01.01-.01.01h-.02s-.02.02-.02.02l-.03.02-.03.02-.05.03h-.01s-.03.02-.03.02l-.05.02-.04.02h-.03s-.03.02-.03.02h-.04s-.04.01-.04.01h-.04s-.03,0-.03,0h-.06s-.01,0-.01,0h-.02s-.08,0-.08,0h-.11s-.03.02-.03.02h-.02s0,0,0,0h-.05s-.02,0-.02,0h0s-.03,0-.03,0h0s-.04,0-.04,0h-.07s-.08-.03-.08-.03h0s-.02-.03-.02-.03v-.02s-.01-.02-.01-.02h0s0-.02,0-.02h0s-.01-.01-.01-.01h-.01s-.02,0-.02,0h0s-.01-.02-.01-.02h-.02s-.01-.02-.01-.02h-.01s0-.02,0-.02h0s0,0,0,0h0s0,.01,0,.01v.02s-.01.02-.01.02v.02s-.02,0-.02,0h-.01s0,0,0,0h0s0,.01,0,.01h0s0,0,0,0h-.01s-.01,0-.01,0h-.03s-.03-.02-.03-.02h-.02s-.02-.02-.02-.02h-.02s0-.02,0-.02h0v-.03h0v-.02h0v-.02h0v-.02h0s0-.01,0-.01h-.02s0,.01,0,.01h0s0,0,0,0v.04s0,0,0,0v.02s-.09.01-.09.01l-.12-.1v-.02s.06,0,.06,0h.06s.07-.02.07-.02h.02s.03.02.03.02h0s0,.02,0,.02h0s0,0,0,0h.01s0-.01,0-.01h0s0-.01,0-.01h0s-.02-.02-.02-.02h-.01s-.01,0-.01,0h0s0,0,0,0h-.02s0,0,0,0h-.03s0,.01,0,.01h-.03s0,0,0,0h0s0,0,0,0h0s-.02,0-.02,0h0s0,0,0,0h0s-.03,0-.03,0h0s-.02,0-.02,0v-.03s0-.02,0-.02h0s-.03-.04-.03-.04h0s-.05.03-.05.03v.02s-.02.02-.02.02h-.03s0,.02,0,.02h-.04s-.03,0-.03,0h0s-.01.02-.01.02h-.05s0,.04,0,.04h0s0,.03,0,.03h-.01s-.02.01-.02.01h-.02s-.02-.02-.02-.02h0s0-.01,0-.01h0s-.01-.01-.01-.01h-.02s0-.02,0-.02h0s0,0,0,0h-.01s-.01.01-.01.01h0s0,.01,0,.01h-.06s-.03,0-.03,0h-.03s-.04-.02-.04-.02h0s-.02-.02-.02-.02h-.01s0,.02,0,.02h0s-.02.02-.02.02h0s-.01.01-.01.01h-.01s0,.03,0,.03h0s-.01,0-.01,0h-.02s0,.02,0,.02h0s0,.02,0,.02h0s.02.02.02.02h0s.02,0,.02,0h0s0,.02,0,.02h.02s.03.02.03.02h.01s0-.01,0-.01h.01s0,.02,0,.02h0s.02.02.02.02h.02s.03.01.03.01h.01s.01,0,.01,0h0s.01,0,.01,0h0s0,.02,0,.02h0s0,0,0,0h.02s.05.01.05.01h0s.03,0,.03,0h0s0,0,0,0h.01s.01,0,.01,0h0s.01,0,.01,0h0s.02,0,.02,0h0s.01,0,.01,0h.01s.02,0,.02,0h.02s.02,0,.02,0h.05s0,0,0,0h.01s0,.02,0,.02h0s0,.03,0,.03h0s0,.04,0,.04l-.02.02-.02.02h-.02s-.02.02-.02.02h-.02s0,.03,0,.03h0s0,.02,0,.02h0s-.02.01-.02.01h0s.02.02.02.02h0s-.02.01-.02.01h0s.01.02.01.02h0s0,.01,0,.01l-.02.02h-.01s0,.02,0,.02h-.01s0,0,0,0h.01s.01,0,.01,0v.02s0,.02,0,.02v.02s.02,0,.02,0v.02s-.02.01-.02.01h-.02s.01.02.01.02h0s-.02.04-.02.04h0s0,.01,0,.01h0s0,.02,0,.02v.03s-.03.02-.03.02h-.02s0,.03,0,.03h0s.01.02.01.02v.02s-.03.01-.03.01v.03s.01,0,.01,0h.03s.02.02.02.02h.01s.01,0,.01,0h.02s.04,0,.04,0v.02s.02,0,.02,0h.03s.04,0,.04,0h.01s0,.04,0,.04h-.01s0,.02,0,.02h.02s0,.04,0,.04h0s-.01.03-.01.03v.02s-.02.02-.02.02h.02s.01.02.01.02h.02s0,.02,0,.02h0s0,.02,0,.02h.01s.02,0,.02,0h.03s.01.02.01.02h.02s.03,0,.03,0h0s0,.01,0,.01h0s0-.01,0-.01h0s.01-.01.01-.01h.03s.02,0,.02,0v.04s.02,0,.02,0h.02s.04,0,.04,0h.04s.03,0,.03,0l.03.02v.02s-.02.03-.02.03v.02s.03.01.03.01h0s-.02.03-.02.03h-.01s.01.01.01.01h.03s.01.02.01.02v.03s0,.02,0,.02v.02s.03,0,.03,0h.02s.02,0,.02,0l-.03.07-.02.05h.02s.02,0,.02,0v.04s-.01.02-.01.02v.04s.01.03.01.03v.02s.03.01.03.01h0s-.02.02-.02.02l-.02.02-.02.02h.04s.03.02.03.02h.02v.05s0,.03,0,.03h-.03s-.02.03-.02.03h0s0,.03,0,.03l-.04.02h-.01s-.02,0-.02,0l-.02.03v.03s0,0,0,0l.04.02.04.02h.03s0,.04,0,.04l.03.02h.03s.02.01.02.01v.03s.03.01.03.01h.03s.03-.01.03-.01l.02.02v.02s.02.01.02.01l.04.02v.04s.01.09.01.09l.02.02h.04s.02.02.02.02v.03s0,.02,0,.02h-.02s-.02.07-.02.07l.03.02h.03s.03.02.03.02h.03s.03.04.03.04l-.02.03v.07l.03.03v.03s-.02,0-.02,0v.02s-.03.03-.03.03h0s0,.05,0,.05l-.05.02-.02.02h0s.01,0,.01,0l.02.02h.02s.02,0,.02,0h.03s.07.03.07.03h.02s.01.03.01.03h-.01s0,.03,0,.03h.02s-.01.03-.01.03h.01s0,.04,0,.04h-.01s0,.03,0,.03h.02s.02,0,.02,0l.03.03.03.06v.02s0,.01,0,.01l.02.02.03.06v.02s0,.01,0,.01h.01s.04.08.04.08v.04s0,.03,0,.03h0s.01.02.01.02v.02s.01.02.01.02l.03.02.02.03v.04s0,.02,0,.02v.02s.02.03.02.03l.02.02v.03s.02.04.02.04v.03s-.01.02-.01.02v.02s0,0,0,0v.04s-.03.04-.03.04v.02s-.03,0-.03,0v.02s0,.04,0,.04h.01s.02.03.02.03v.03s.01.04.01.04l.02.02-.02.02h-.01s.01.03.01.03h0s-.03.02-.03.02v.04s.03,0,.03,0h0s-.01.03-.01.03h0s.02.01.02.01h0s-.04.05-.04.05v.03s.03.01.03.01h.02s0,.03,0,.03h0s.02.02.02.02h.01s0,.02,0,.02h0s.01.02.01.02h.01s.03.11.03.11v.06s0,.03,0,.03v.07s.03.02.03.02l.03.12.03.2v.06s0,.05,0,.05v.02s0,.08,0,.08l-.05.21-.02.04-.03.03h-.04s-.06.01-.06.01h-.03s-.03.01-.03.01h-.04s-.03,0-.03,0h-.04s-.05.01-.05.01l-.05.03-.05.02v.02s-.02.02-.02.02v.03s.04.03.04.03h0s0,.04,0,.04v.03s-.02,0-.02,0h-.04s-.03.02-.03.02v.02s0,.05,0,.05h0s0,.02,0,.02v.02s.01.04.01.04v.12s-.04.1-.04.1v.09s-.04.19-.04.19l-.05.2-.03.09-.03.05-.07.05h-.02s-.04.03-.04.03h-.03s-.11.03-.11.03l-.03-.02h-.03s-.02,0-.02,0h-.01s-.02.01-.02.01l.02.02h0s-.04-.02-.04-.02h-.04s-.01,0-.01,0h-.02s-.03.02-.03.02v.02s0,0,0,0h-.02s-.02,0-.02,0l-.02.03-.07.04v.03s.02.03.02.03h0s-.05.03-.05.03v.02s.02,0,.02,0v-.02s.02-.01.02-.01h0s.01,0,.01,0h0s0,.04,0,.04h-.01s-.03.09-.03.09v.04s-.02,0-.02,0l-.04.02h-.04s-.05.02-.05.02h-.01s-.01,0-.01,0h-.01s-.03-.03-.03-.03h-.01s0,0,0,0h0s.03.03.03.03h0s0,.01,0,.01h-.02s0,0,0,0l.02.02h-.04s0,0,0,0h-.01s-.01-.01-.01-.01h0s.01.03.01.03h-.01s-.02.02-.02.02l-.04-.02h-.02s0,.03,0,.03h-.01s0,.02,0,.02h.01s.01,0,.01,0h0s-.04.03-.04.03h0v.02s-.03,0-.03,0h0s-.02,0-.02,0h0s-.01,0-.01,0h0s0-.02,0-.02h-.02s0,.01,0,.01h0s0,.01,0,.01h0s0,.02,0,.02h.03s0,0,0,0h0s0,.03,0,.03h.02s0,.02,0,.02v.04s-.03.01-.03.01v.02s.02.02.02.02l.03.02v.02s0,.02,0,.02v.02s-.04.01-.04.01h-.03s-.01-.01-.01-.01h-.03s0,.01,0,.01h.02s-.05.04-.05.04v.04s-.03.02-.03.02h-.03s0,.03,0,.03h0s0,0,0,0h0s0,0,0,0h0s0,0,0,0h0s0,0,0,0h0s0,0,0,0h0s0,0,0,0h0s0,0,0,0h-.02s0,0,0,0h0s0,0,0,0h0s0,0,0,0h0s0,0,0,0h0s0,0,0,0h0s0,0,0,0h0s0,0,0,0h0s0,.02,0,.02h0s0,0,0,0h-.02s-.01,0-.01,0h0s0,.02,0,.02h-.01s0,.02,0,.02h0s0,.01,0,.01h0s-.02.02-.02.02h0s.05.05.05.05v.03s0,.02,0,.02h0s-.01.01-.01.01h0s.02.01.02.01h.01s-.02.04-.02.04h-.02s0,0,0,0h-.02s0,0,0,0h.02s0,.02,0,.02h-.03s-.02.02-.02.02l.02.02v.02s-.04,0-.04,0h0s0,0,0,0h0s0,0,0,0h-.01s0,0,0,0h0s0,0,0,0h0s0,0,0,0h0s0,0,0,0h0s0,0,0,0h0s0,0,0,0h0s0,0,0,0h-.02s0,0,0,0h0s0,0,0,0h0s0-.02,0-.02h0s0,0,0,0h0s0,0,0,0h-.02s0,0,0,0h0s0,0,0,0h0s0,0,0,0h0s0,0,0,0h0s0,0,0,0h0s0,0,0,0h0s0,0,0,0h0s0,0,0,0h0s0,0,0,0h0s0,0,0,0h0s0,0,0,0h0s0,0,0,0h0s0,.01,0,.01h0s-.01.02-.01.02h0s-.01.02-.01.02l-.02.02h-.03s-.03,0-.03,0h-.03s0,.02,0,.02h0s-.01.01-.01.01h0s-.01,0-.01,0h-.01s0,0,0,0h0s-.02,0-.02,0l-.02.02h0s-.02.01-.02.01h-.03s-.02-.02-.02-.02v-.02s0-.01,0-.01h.02s0,0,0,0h0s0,0,0,0h0s.02-.01.02-.01h0s0,0,0,0v-.02s.01,0,.01,0v.02s.02,0,.02,0h0s0-.02,0-.02h-.01s-.01-.01-.01-.01l-.06.03h-.02s-.04,0-.04,0h.03s0,.02,0,.02l.02.02v.02s-.02,0-.02,0l-.02-.02h-.03s-.04,0-.04,0h-.05s0,.03,0,.03h-.12s-.02-.02-.02-.02h-.04s-.08.06-.08.06l-.03.03h-.03s-.02,0-.02,0h-.05s0,.04,0,.04l-.04.04-.06.03-.03.02-.02.03-.05.02-.03.02v.02l-.06.05v.03s-.03.04-.03.04v.02s-.04.01-.04.01l-.05.07-.02.04v.04s-.02.1-.02.1v.02s.02.02.02.02v.02s-.01.05-.01.05h.02s.01,0,.01,0h.02s.02,0,.02,0l.02.02v.03s-.03.07-.03.07v.02s-.02.1-.02.1l-.03.08v.02s-.01.05-.01.05h.02s.04.02.04.02h.03s.04.04.04.04h.04s.06-.02.06-.02l.04.02.03.04h.02s.01.03.01.03h0s.04.05.04.05l.07.06.03.04.02.03v.12s.02,0,.02,0h0s0,0,0,0h0s.01.01.01.01v.02h0s0,.01,0,.01h0s0,.02,0,.02h0s0,0,0,0h0s0,.02,0,.02h0s0,.01,0,.01v.02s0,.02,0,.02h0s0,.02,0,.02h0v.04h0s.02.02.02.02h0s0,0,0,0h0s0,0,0,0h-.01s0,.04,0,.04v.03s.01.01.01.01h0v.06s0,.06,0,.06h.02s0,.03,0,.03v.02s.01.05.01.05l.05.03h.04s0,.03,0,.03h0s.01.03.01.03v.02s.03.04.03.04v.02h.02s.01-.01.01-.01h.05s.02.02.02.02v.03s-.01.02-.01.02v.05s-.07.07-.07.07h-.06s-.02.01-.02.01l.03.02h.03s.01.03.01.03v.02s-.01.05-.01.05h.02s-.01.02-.01.02h-.06s0,.03,0,.03l-.04.04-.03.02h-.01s-.03,0-.03,0l-.02.02h0s.02.03.02.03h0s0,.03,0,.03v.02s-.01.02-.01.02v.02s-.02,0-.02,0h0s0,.02,0,.02v.03s-.03.04-.03.04l-.03.06-.05.06h-.01s0,.02,0,.02l-.03.02h-.03s-.02.02-.02.02h-.04s-.04-.04-.04-.04v-.02s0-.01,0-.01h-.02s-.04.02-.04.02l-.03.04.02.11v.02s.06.03.06.03h.05s.01,0,.01,0v.02s.01.02.01.02v.02s.04.03.04.03v.04s-.04.02-.04.02h0s0,.01,0,.01h.02s.02.04.02.04v.02s0,.02,0,.02v.03s-.04.02-.04.02l-.07.04h-.08s-.04,0-.04,0l-.04-.06h0s0-.02,0-.02h-.03s0,0,0,0v.02s0,.02,0,.02h-.04s0-.06,0-.06l-.06-.02h0s-.02,0-.02,0l.05-.04.04-.05.06-.03h.01s0-.01,0-.01h-.01s-.03.02-.03.02l-.04.03-.03.03-.03.03-.03.02h-.02s-.02-.01-.02-.01h-.03s-.05-.02-.05-.02h-.02s-.02.09-.02.09v.03s0,.01,0,.01h-.01s0,.05,0,.05l-.02.03-.02.04v.02s.02,0,.02,0h.02s.01,0,.01,0h0s.03.06.03.06h0s-.04-.04-.04-.04h-.02s-.05.1-.05.1h0s-.05.07-.05.07v.04s-.02.02-.02.02v.02s-.04.02-.04.02v.03s.02,0,.02,0l.03-.02h0s0,.01,0,.01l-.02.03h0s.01.02.01.02h.02s.01,0,.01,0h0s-.01.03-.01.03h-.02s-.04,0-.04,0h-.02s-.03-.02-.03-.02h-.01v.02s.07.06.07.06v.03s-.02.05-.02.05l-.02.04-.03.02-.04.02h-.03s-.03.01-.03.01h-.02s0-.02,0-.02h0s0-.01,0-.01h0s0-.02,0-.02h-.01s-.02-.01-.02-.01h0s0-.02,0-.02h0s0,0,0,0h-.01s0,0,0,0h-.01s-.01,0-.01,0h0s-.02,0-.02,0h-.01s-.02.02-.02.02h0s-.01,0-.01,0h-.02s.01.02.01.02h0s0,.02,0,.02h0s0,.02,0,.02l.03.02v.03s0,.02,0,.02l-.02.02-.02.02-.04.02h-.01s-.04.03-.04.03h-.04s-.04,0-.04,0h-.01s-.04,0-.04,0h-.09s-.03-.02-.03-.02h0s-.05-.01-.05-.01h-.02s-.05-.06-.05-.06h0s0-.05,0-.05l.02-.02v-.02s0-.01,0-.01h0s-.01,0-.01,0h-.02s-.03.02-.03.02l-.02.02h0s-.02.01-.02.01h-.03s-.03,0-.03,0h-.01s0,.02,0,.02h-.03s-.02.03-.02.03h0s-.02.02-.02.02h-.01s-.08.07-.08.07h-.03s-.02.03-.02.03h-.02s-.02,0-.02,0h-.02s-.02,0-.02,0h-.02s0,.02,0,.02h-.03s-.05.05-.05.05l-.03.02h-.03v.02h0s.03-.02.03-.02h.01s0,.01,0,.01v.02s-.05.03-.05.03l-.04.02h-.04s-.05.01-.05.01l-.02-.03h-.01s0-.02,0-.02h0s0,.02,0,.02h0s0,.02,0,.02h-.03s-.03,0-.03,0h-.02s0,0,0,0h-.02s0-.01,0-.01h-.04s-.02-.01-.02-.01h-.03s-.04-.03-.04-.03h-.01s.02.03.02.03h-.03s-.02.03-.02.03l-.06-.02h-.03s0,0,0,0h0s-.02-.04-.02-.04l-.03.02.07.1h.02s0-.05,0-.05h.02s.02,0,.02,0h.03v.04l-.03.02-.02.02v.03s-.04,0-.04,0h0s.03.04.03.04h0s.02,0,.02,0h.01s.03-.01.03-.01h.03s.02.03.02.03v.04s-.02.03-.02.03v.05s.02.03.02.03h.02s.02,0,.02,0l.04-.02v-.03s.03-.01.03-.01h.05s.01,0,.01,0h-.02s0,.03,0,.03h0v.02h0s.01,0,.01,0h0s0-.02,0-.02v-.03s0-.01,0-.01l.05-.02.09-.02h.02s0,0,0,0h.01s.02-.01.02-.01h.05s0,0,0,0h0s.02-.01.02-.01h.01s.01,0,.01,0l.02-.02h.01s.02-.01.02-.01h.02s.03-.03.03-.03h.02s.02,0,.02,0h0s0,0,0,0h.01s0,0,0,0h0s.02-.01.02-.01h.03s.04,0,.04,0h0s.02-.02.02-.02h.01s.04,0,.04,0h.03s.01.02.01.02h0s0,0,0,0h0s0,.01,0,.01h.01s.02,0,.02,0l.03.02.03.02h0s0,0,0,0h.01s.05.04.05.04h0s.03.04.03.04l.06.07.04.06v.04s.04.1.04.1h0s0,.03,0,.03h0s0,.02,0,.02h0s0,0,0,0h0s0,.03,0,.03v.02s-.02,0-.02,0h0s-.02,0-.02,0h-.01s0,0,0,0h-.06s0,0,0,0h0s0,0,0,0h0s0,0,0,0h0s0,0,0,0h0s-.02-.01-.02-.01h0s0,0,0,0h0s0,0,0,0h0s0,0,0,0h-.02s0,.01,0,.01h0s.02.03.02.03v.02s0,.01,0,.01h0s0,.01,0,.01h-.02s0,0,0,0h.02s-.06.05-.06.05h-.02s-.04-.01-.04-.01v-.03s0-.02,0-.02h0s0,0,0,0h-.01s0,.02,0,.02h0s0,.03,0,.03h0s.06.03.06.03h0s0,.03,0,.03v.02s-.02.05-.02.05l-.02.02h-.02s-.01,0-.01,0h-.01s0,0,0,0h0s.01.02.01.02h0s0,.02,0,.02h0s0,.03,0,.03h-.02s-.02.02-.02.02v.02s-.04.01-.04.01h0s-.02.02-.02.02h-.02s-.01.02-.01.02h0s-.02.02-.02.02h-.02s-.01.01-.01.01h-.02s-.01.02-.01.02h0s-.01.01-.01.01h0s-.01.01-.01.01h0s0,0,0,0v.03s0,.02,0,.02v.02s-.02.03-.02.03h0s.01,0,.01,0h0s0,.02,0,.02h.01s0,0,0,0h0s.03.02.03.02h.01s.01,0,.01,0h0s.02,0,.02,0h0s0-.02,0-.02h-.01s.02-.03.02-.03h.02s.02,0,.02,0h.03s.03.02.03.02h.03s.04.03.04.03h.01s0,.02,0,.02l.02.02v.02s0,.01,0,.01h-.02s-.01.02-.01.02h-.02s-.02.03-.02.03h-.01s0,.02,0,.02h0s0,.02,0,.02h.03s.02.02.02.02h.02s.03.01.03.01h0s.02-.03.02-.03h0s.02-.02.02-.02h.01s.02,0,.02,0h0s.02.02.02.02l.05.03v.02s-.02.02-.02.02h.02s.01-.03.01-.03h0s.01,0,.01,0h0s0,.01,0,.01h0s0,.02,0,.02h0s.01,0,.01,0h0s0,.01,0,.01h0s0,0,0,0h.01s0,.01,0,.01h0s0,0,0,0h0s.02.02.02.02h.02s0,0,0,0h.02s.02,0,.02,0l.02.02h.01s.01.02.01.02h0s.03.02.03.02h.01s.02.03.02.03l.02.02.02.02h.02s.03.02.03.02h0s.02.02.02.02h.03s.05.03.05.03h0s0,0,0,0h0s0,0,0,0h0s0,0,0,0v-.02s0,0,0,0h0s0-.01,0-.01h0s0,0,0,0h0s.01,0,.01,0h0s0,.02,0,.02h0s0,0,0,0h0s.02,0,.02,0h0s0,0,0,0h0s0-.01,0-.01h.01s0-.01,0-.01h0s0,.02,0,.02h0s0,0,0,0h.01s0-.01,0-.01h0v-.02s0,0,0,0h0s.04,0,.04,0h0s0,0,0,0h0s.03,0,.03,0h.03s.02.04.02.04h0s0,.02,0,.02h0s0,.01,0,.01h0s0,0,0,0h0s0,0,0,0h0s0,.01,0,.01h.01s0,.04,0,.04v.02s-.04.01-.04.01h0s-.01-.01-.01-.01h0s0,0,0,0h0s0,0,0,0h0s0-.01,0-.01h-.03s0-.01,0-.01h-.02s-.01.01-.01.01h0s.01.02.01.02h.01s0,0,0,0h0s0,.02,0,.02h0s0,.01,0,.01h0s-.03.02-.03.02h-.01s-.01,0-.01,0h-.01s0,0,0,0h0s0-.01,0-.01h0s0-.01,0-.01h0s0,0,0,0h-.03s0,.02,0,.02h0s.05.13.05.13h0s0,0,0,0h.01s0,0,0,0h0s-.01-.03-.01-.03h0s0,0,0,0h-.02s-.02-.03-.02-.03h.04s.02.02.02.02h-.01s0,0,0,0h.02s0,0,0,0h.02s0,0,0,0h0s0,0,0,0h0s0-.03,0-.03h0s0,0,0,0h0s0,0,0,0h.04s.02,0,.02,0l.02.06-.03.02h-.02s.02.02.02.02h.02s.02.04.02.04h.02s0,0,0,0v-.02s.04-.02.04-.02h.01s0-.02,0-.02v-.02s0-.02,0-.02l.04-.02h.03s.05.02.05.02l.07.04h.02s.02,0,.02,0l.06.04-.05.08v.04s.01,0,.01,0v-.04s.05-.06.05-.06h.05s.04.01.04.01v.04s-.03.03-.03.03h0s.05.09.05.09h0s-.03.02-.03.02h-.03s-.02.02-.02.02h0s0,0,0,0h0s0,0,0,0h0s-.01,0-.01,0l-.02-.02-.03-.03-.03-.03h0s0,0,0,0h0s0,0,0,0h0s0,0,0,0h0s.09.1.09.1h.04s.13-.04.13-.04h.02s.03,0,.03,0v.02s.05.03.05.03l.04.03h.02s.04.05.04.05l.03.05v.03s.02.03.02.03v.02s0,.02,0,.02v.03s0,.03,0,.03h0s0,.03,0,.03h0s0,.01,0,.01h-.02s0,.02,0,.02l-.06.04-.23.18.02.02h0s0,.01,0,.01h0s0,.03,0,.03h0s0,.02,0,.02l.02.02.04-.03.12-.09.02-.02h0s.02.02.02.02l.02.02-.03.08-.03.07-.07.17h.03s-.04.1-.04.1v.03s-.05.11-.05.11l.06.09h.1s.07,0,.07,0l-.05.11-.09-.02-.02.05h-.04s.02-.08.02-.08h0s-.12-.07-.12-.07l-.04.06-.05.06-.09.12h0s-.05.07-.05.07h0s0,.01,0,.01l.06.03h0s.04.05.04.05h0s0,.01,0,.01h0s0,0,0,0h0s.02,0,.02,0h.02s0,0,0,0h0s0-.01,0-.01h0s0,0,0,0h0s0,0,0,0h0s0,.01,0,.01h.01s0,0,0,0h.02s.04.01.04.01h0s.04.03.04.03h0s0,.01,0,.01h0s0,0,0,0h.02s.01,0,.01,0h.05s.03.04.03.04h.02s.04.04.04.04h.01s0,.01,0,.01h0s0,.01,0,.01h0s0,0,0,0h0s0,0,0,0h0s0,0,0,0h0s0,0,0,0h0s0,0,0,0h0s0,0,0,0h0s0,0,0,0h0s0,0,0,0h0s.01.02.01.02h.02s0,.01,0,.01l.03.03h0s0,0,0,0h0s0,0,0,0h.01s.01.01.01.01h0s0,0,0,0h.01s0,0,0,0h0s0,.01,0,.01h.01s.01,0,.01,0h.02s0,.02,0,.02h0s0,0,0,0h0s0,0,0,0h0s0,.02,0,.02h0v.02h0s0,.01,0,.01h0s0,.02,0,.02h0s0,0,0,0h0s0,0,0,0h0s0,0,0,0h0s0,0,0,0h0s0,0,0,0h0s0,.01,0,.01v-.02s.01,0,.01,0h0s0,.02,0,.02h0s0,0,0,0h0s0,0,0,0h0s0,0,0,0h0s0,0,0,0v.02s.02,0,.02,0h.01s0-.01,0-.01h0s0-.01,0-.01h0s0-.01,0-.01h0,0s0,0,0,0h0s0,0,0,0h0s0,0,0,0h0s0-.01,0-.01h0s0-.01,0-.01h0s0,0,0,0v-.02s0,0,0,0h0s0-.01,0-.01h0v-.03h0s.01,0,.01,0h.01s0,.02,0,.02h0s0,0,0,0h0s0,0,0,0h0s0,0,0,0h0s0,0,0,0v-.02s0,0,0,0h0s0,0,0,0v-.02s0,0,0,0h-.01s0-.01,0-.01h0s0-.01,0-.01h0s0-.02,0-.02h0s0-.01,0-.01h.01s0-.01,0-.01h0s-.01,0-.01,0h0s0-.01,0-.01h0s0,0,0,0h0s.02,0,.02,0h0s-.01-.04-.01-.04h0s0-.02,0-.02h0s0-.01,0-.01v-.03s.01-.02.01-.02h0s0-.02,0-.02h0s0-.02,0-.02h0s0-.02,0-.02h.01s.04-.02.04-.02h.1s.04,0,.04,0h0s.08-.01.08-.01h.07s.05.01.05.01l.04.02h.03s.03-.02.03-.02h.04s.11.04.11.04l.06.02h0s0,0,0,0h.01s0,0,0,0h0s0,0,0,0h0s0,0,0,0h.02s.01,0,.01,0h.03s.06.03.06.03h0s.02.02.02.02h.03s.08.03.08.03l.1.05.19.12h0s.03,0,.03,0l.29.17.29.17.77.48.34.22.46.31.34.25.17.13.38.28.67.56.17.14.19.19h0s0,0,0,0l.07.06h0s0,0,0,0h.02s.35.33.35.33l.2.21.1.11.14.18.08.13h.01s.01.01.01.01l.02.02v.02s.02.02.02.02l.02.04v.04s.02.03.02.03v.03s-.02.03-.02.03v.02h.01s0,.01,0,.01h0s-.02.03-.02.03h-.03s-.03.03-.03.03h-.02s-.03-.04-.03-.04h-.03s-.02.05-.02.05l.02.13.02.03.03.03.03.04v.04s.02.07.02.07l.02.05.05.13.02.04v.02s0,.04,0,.04h.01s0-.02,0-.02h0s.02-.02.02-.02l.02.05-.03.02-.02-.03h-.01s.01.06.01.06l.03.04v.04s0,.01,0,.01v.07s0,.07,0,.07h.05s.02.01.02.01h.03s0,.02,0,.02h-.03s-.04,0-.04,0l-.02.02v.03s-.02.01-.02.01l.02.06.02.1.02.04h.03s.05,0,.05,0h.03s0,.02,0,.02l-.07.02v.04s.02.02.02.02h.01s.07.03.07.03v.03s0,.04,0,.04h-.01s-.05.01-.05.01l-.02.03v.02s0,0,0,0h0s.01-.02.01-.02h.01s.05.02.05.02h-.02s.03.05.03.05v.03s.03.02.03.02l-.02.08h0s-.02.04-.02.04h-.03s-.03,0-.03,0h-.06s-.02.01-.02.01h-.01s.01.13.01.13l.02.04h.02s-.02.04-.02.04l-.02.08v.06s0,.07,0,.07v.02s.02.01.02.01v.02h.02v.03s.04.03.04.03l.02.17v.15s0,.02,0,.02h-.01s-.02.03-.02.03h0s0,0,0,0h.02s.02.03.02.03h.01s.03.01.03.01h0s.03,0,.03,0v.04s-.02,0-.02,0l-.1-.02h-.02s0-.04,0-.04v-.03h-.02v.02s.01.06.01.06l.07.02h0s.01.03.01.03h.01s-.02.03-.02.03v.09s-.03.01-.03.01v.03s.02,0,.02,0h.02s0,.03,0,.03l-.02.03.02.06h.05s0,0,0,0h-.03s-.02,0-.02,0h-.02s0,0,0,0h0s.02.01.02.01h.02s0,.04,0,.04v.06s0,.03,0,.03h0s.02.04.02.04v.06s.03.03.03.03v.02s.02,0,.02,0h.03s.02.01.02.01h.01s.01,0,.01,0h0s0,.03,0,.03l-.02.02h-.01s-.03,0-.03,0h-.03s-.03,0-.03,0h-.01s.02.02.02.02l-.02.05h0v.03h-.03s0,.02,0,.02h.01s.02,0,.02,0v.02s-.03,0-.03,0h0s0,.02,0,.02h.02s0,.02,0,.02v.03s-.02.02-.02.02v.06s0,.03,0,.03h.02v.02h-.02s0,.15,0,.15h.03s0,.01,0,.01l-.02.06.03.15.04.02h.04s.04.01.04.01l.02.03v.02s0,.03,0,.03v.02s-.04.03-.04.03h0s.01,0,.01,0l.1.05h.01s.01-.03.01-.03h0s0-.01,0-.01h0s0-.01,0-.01h0,0s.02,0,.02,0v.02s-.03.01-.03.01h0s0,.02,0,.02h0s.01,0,.01,0h0s0,0,0,0h0s-.02.02-.02.02h-.02s-.03,0-.03,0h-.02s-.03-.03-.03-.03h-.04s-.03-.01-.03-.01h-.03s0-.03,0-.03h-.03s-.02-.02-.02-.02l-.02-.02h-.02s-.01.03-.01.03v.03s0,.02,0,.02h.02s0,.05,0,.05l-.02.04v.05s0,.05,0,.05v.02s.04.02.04.02h0s-.02.04-.02.04v.02s0,.03,0,.03h-.01s0,.03,0,.03h.02s.02.03.02.03h.02s.02.03.02.03h.01s.01,0,.01,0h.01s0,.01,0,.01h-.02s-.02,0-.02,0h-.01s0,.03,0,.03l-.02.03h0s.02.02.02.02h0s0-.02,0-.02h0s0-.01,0-.01h0s0,.01,0,.01v.03s0,0,0,0h-.01s-.01,0-.01,0h0s0,0,0,0h0s0,.02,0,.02h.01s0,0,0,0v.02s0,0,0,0h0s-.02,0-.02,0h0s0,.07,0,.07v.08s-.02.03-.02.03v.04s.02.01.02.01v.02s0,.01,0,.01h.03s.02.04.02.04h0s0,.02,0,.02h.01s.01,0,.01,0h0s.02,0,.02,0h.01s.02,0,.02,0h.03s0,.03,0,.03v.02s-.02.02-.02.02h-.01s-.02,0-.02,0h-.02s-.03,0-.03,0h-.02s-.02,0-.02,0v.02s0,.02,0,.02v.02s0,.01,0,.01h.01s0,.03,0,.03h.01s.01,0,.01,0v-.02s.03,0,.03,0v.02s.03,0,.03,0h.02s.01.02.01.02v.02s-.01.02-.01.02h-.01s-.01,0-.01,0h-.02s-.03.02-.03.02l-.02-.02h-.01s-.02,0-.02,0h-.01s-.01.04-.01.04v.06s0,.04,0,.04v.04s.03,0,.03,0v.02s.02.06.02.06h.01s.01.09.01.09l.02.05h.02s0,.02,0,.02h-.02s0,.02,0,.02h0s0,.03,0,.03h.01s.02,0,.02,0h.02s0,.03,0,.03h0s-.01.03-.01.03h0s0,0,0,0h-.01s-.01,0-.01,0h0s.01.02.01.02v.04s.01.01.01.01v.02s-.01.02-.01.02v.03s-.02,0-.02,0h-.02s-.02,0-.02,0h-.01s.01.05.01.05l.02.03v.03s-.02.02-.02.02h0s.01.02.01.02v.09s0,.02,0,.02l-.02.02h-.02s-.01.02-.01.02v.06s0,.02,0,.02v.05s0,.06,0,.06v.03s0,0,0,0h-.02s0,.02,0,.02v.02s.02.05.02.05l.02.09v.02s.03.02.03.02v.03s.01.05.01.05v.02s.03.02.03.02l.02.02v.03s.02.06.02.06v.02s.02.07.02.07v.07s.02,0,.02,0h0s0,0,0,0h0s.01,0,.01,0h0s0,.02,0,.02h0s-.01.02-.01.02h0s0,0,0,0h-.02s0,.07,0,.07h.03s.01.02.01.02h.02s.01.02.01.02h0s0,.02,0,.02h-.01s-.02,0-.02,0h0s0,0,0,0h-.01s-.01,0-.01,0v.02l.02.04h.01s.02.01.02.01h0s0,.01,0,.01v.02h.03s0,0,0,0h0s0-.05,0-.05h0s.01-.02.01-.02h0s.04,0,.04,0h.03s.02,0,.02,0h.02s.04.02.04.02l.08.06.04.03.06.08v.03s.04.04.04.04v.03s0,.03,0,.03l-.04.03h0s-.01.03-.01.03h-.01s0,0,0,0h0s0,.02,0,.02h.02s0,0,0,0h.02s.01.02.01.02h.03s.03.03.03.03l.02.03v.02s-.01.01-.01.01l.02.04.03.03h.04s.01.04.01.04h0s0,.01,0,.01h.01s.12.2.12.2v.04s0,0,0,0h0s.02.01.02.01h0s.06.12.06.12l.05.09.03.08v.04s.02.02.02.02l.02.03.02.05h.01s.08.16.08.16v.03s.02.02.02.02l.02.05v.06s0,.02,0,.02l.04.04.04.03v.04s.01,0,.01,0h-.01s0,0,0,0h.01s.02.01.02.01h0s0,.1,0,.1h0s.01.01.01.01h0s0,.02,0,.02l.03.13h-.04s-.01-.07-.01-.07h-.03s.01.06.01.06h-.06s0,0,0,0h.05s.09.03.09.03v.08s.02.05.02.05l.02.1h-.02s-.03.02-.03.02v.02s.03,0,.03,0h0s0,.07,0,.07h0s-.03.02-.03.02h0s0,0,0,0h0s-.05.01-.05.01h0s0,0,0,0h0s.11,0,.11,0l.05.15.07.21.04.16v.06s.02.14.02.14h-.01s-.02.27-.02.27h0s-.02.08-.02.08l-.03.06v.02s-.04.03-.04.03l-.04.03-.05.02h-.04s-.04,0-.04,0h-.06s-.05.04-.05.04h0s-.01.01-.01.01h0s0,0,0,0l-.02.02h-.02s-.06,0-.06,0h-.01,0s.06.03.06.03h0v.03h0s-.05,0-.05,0h0s.06.02.06.02v.02s-.06,0-.06,0h0s.05.02.05.02h0s-.07.05-.07.05h-.03s-.04,0-.04,0l-.05-.08v-.03s.02,0,.02,0h.02s.05-.05.05-.05h.01s.03-.03.03-.03h0s-.01-.02-.01-.02h-.02s-.08.07-.08.07l-.03.02v.04s.04.09.04.09l-.19.05-.07.04-.04.02-.07.04h-.04s-.03.01-.03.01l-.04.04v.02s-.07.04-.07.04l-.02.02-.04.02-.03.05-.02.02v.02s-.02.03-.02.03h-.02s0,.05,0,.05v.02s0,.01,0,.01h-.01s-.01.02-.01.02h-.01s-.03,0-.03,0h-.01s-.01.01-.01.01v.02h-.02v.02s.01,0,.01,0h.02s0,.02,0,.02h0s0,.03,0,.03v.02s0,0,0,0l.02.02v.03s0,.02,0,.02v.05s.06.21.06.21l.02.08v.02s.02.05.02.05v.03s0,0,0,0h0s.01.01.01.01v.03s0,.06,0,.06v.02s-.02,0-.02,0v.02s-.03.03-.03.03h-.04s-.02.03-.02.03v.03s-.02.02-.02.02l-.03.02h-.02,0s0,.04,0,.04l-.02.08-.02.02-.02.03h0s-.02.02-.02.02h-.02s-.02.02-.02.02h0s0-.01,0-.01h-.03s-.03-.02-.03-.02h0s-.01-.01-.01-.01h-.03s-.02.01-.02.01h-.02s-.04.01-.04.01h-.01s-.03.02-.03.02h-.02s0,.01,0,.01h.01s0,0,0,0v.03s0,.01,0,.01h-.01s-.01,0-.01,0h-.01s0-.03,0-.03h0v.03s.02.01.02.01l.03.02h0s-.01.07-.01.07v.02s.01.02.01.02v.02s-.03,0-.03,0h-.04s-.02,0-.02,0h-.01s0,.02,0,.02v.04s0,.02,0,.02h-.02s-.02.02-.02.02h-.02s-.01.02-.01.02h0s-.02.04-.02.04v.03s-.02.02-.02.02v.02s-.01.03-.01.03h-.01s0,.04,0,.04v.03s-.02.01-.02.01l-.02.02h0s0,.06,0,.06v.02s-.03,0-.03,0v.07s-.02.03-.02.03l-.02.02h-.02s-.01.02-.01.02h-.02s-.02.01-.02.01l-.02.03v.02s0,.04,0,.04v.02s-.02.02-.02.02l-.03.02-.02.02v.02s0,.03,0,.03h0s.01.02.01.02v.03s0,0,0,0v.02s-.01,0-.01,0v.03s-.05.01-.05.01h0s0,.04,0,.04v.04s0,.03,0,.03v.02s-.04.13-.04.13v.02s-.04.03-.04.03v.02s-.04.02-.04.02h-.03s-.03,0-.03,0h-.02s-.03,0-.03,0h0s0,.03,0,.03h-.01s-.04.02-.04.02h-.02s-.04-.02-.04-.02h-.03s-.03-.01-.03-.01l-.03-.02h-.02s-.03,0-.03,0h0s-.02.03-.02.03l-.04.03v.02s0,.01,0,.01h0s0,.05,0,.05h.01s0,0,0,0h0s-.02.02-.02.02v.03s0,0,0,0h-.02s-.01.02-.01.02l-.02.03-.02.05h0s0,.02,0,.02v.04s0,.07,0,.07v.02s-.03.02-.03.02l-.03.03h-.03s-.02,0-.02,0h0s-.01,0-.01,0l-.02.02v.02s-.02.02-.02.02l-.04.02-.04.02h-.02s-.01.02-.01.02v.02s0,.04,0,.04l-.02.06-.02.03v.03s0,.07,0,.07v.07s0,.03,0,.03v.03s.04.04.04.04v.09s.02.03.02.03h.01s.01,0,.01,0h0s0,.02,0,.02h-.01s0,.04,0,.04v.02s.02.05.02.05l.02.06.02.03h.02s.02.06.02.06l.02.08-.02.02v.02s0,0,0,0v.03s0,.01,0,.01v.05s.02,0,.02,0h0s0,.05,0,.05v.03s0,.04,0,.04v.04s.01.02.01.02l.02.02v.06s-.03.06-.03.06l-.02.09-.03.12-.05.1-.02.04-.05.07h-.03s-.03.1-.03.1l-.03.06v.04s-.02.04-.02.04l-.03.03v.02s0,.01,0,.01h0v.12s0,.02,0,.02v.02s0,.01,0,.01l.02.02v.02s-.01.03-.01.03v.08s.01.04.01.04v.03s.03.03.03.03v.06s.02.05.02.05l.04.07.05.05v.02s.01.06.01.06v.04s.02.03.02.03l.1.22.03.05.03.03.02.08v.03s0,.02,0,.02h0s0,.02,0,.02l.05.23.03.15v.05s.02.04.02.04v.04s0,.01,0,.01h.02s.03,0,.03,0h0s0,.02,0,.02h-.03s-.03,0-.03,0h-.01s0,.03,0,.03h.02s0,.03,0,.03v.03s.02.02.02.02l.02.05v.02s.03.11.03.11v.06s0,.04,0,.04v.03s0,.02,0,.02v.03s0,0,0,0l.03.18v.03s.04.23.04.23l-.03.14-.05.12-.03.03h-.02s-.05.03-.05.03v.04s-.04.09-.04.09l-.05.04-.05.04h-.03s-.01,0-.01,0h-.01s0,0,0,0h.01s-.04.05-.04.05l-.03.03-.04.02-.09.08-.16.08-.06.07-.07.02h-.02s-.02,0-.02,0h.01s0,.02,0,.02l-.03.06-.03.03h-.04s0,.14,0,.14v.08s.01.05.01.05l.02.08-.02.08h-.01s0,0,0,0v.04s.01.07.01.07v.04s-.03.06-.03.06l-.02.07-.02.25-.02.05h-.12s-.02.02-.02.02v.02s0,0,0,0h0s0-.01,0-.01h0s.01-.01.01-.01h.13s0,.02,0,.02h0s-.01.01-.01.01h0s0-.01,0-.01h0s-.01.02-.01.02h0s0,0,0,0h0s.02,0,.02,0h.02v.03s-.02.05-.02.05l-.03.03-.08-.02v-.05s-.02,0-.02,0v.04s-.04-.01-.04-.01v-.02s-.03-.09-.03-.09h0s0-.01,0-.01h-.01s.01.1.01.1l.02.03.11.04-.02.02-.05-.02h0s.08.04.08.04v.07s.04.1.04.1h0s.02.02.02.02l.02.02.02.02.03.09v.11s-.05,0-.05,0h0s.04,0,.04,0h.01s.06.11.06.11v.04s-.06,0-.06,0h0s.07,0,.07,0l.02.04h0s.03.13.03.13l-.03.14v.23s-.03.02-.03.02l.02.04v.07s0,.01,0,.01h0s0,.06,0,.06l.03.07v.19s0,.05,0,.05v.08s0,.04,0,.04h0s0,.02,0,.02v.03s.02.08.02.08h0s.01.03.01.03v.04s0,.05,0,.05h-.01s0,.16,0,.16l-.02.08-.02.02-.05.05h-.06s-.08.05-.08.05l-.03.04-.11.03-.1.03-.22.05-.08.03-.07.04-.06.04-.1.06h0s0,.02,0,.02l.08-.05.03-.02.09-.06h.02s0-.01,0-.01h0s0,0,0,0l-.02.05h0s.02-.05.02-.05h0,0s0,0,0,0h0s.05-.03.05-.03h0s0,0,0,0h0l-.03.04h0s.03-.04.03-.04h0,0s0,0,0,0h0s0-.01,0-.01l.1-.02.13-.03.07-.02v.03s-.02,0-.02,0h0s.03.07.03.07l-.19.05-.02-.05h0s0,0,0,0h0s.02.05.02.05l-.23.06-.06.08h0s0,0,0,0l.32-.08h0s0,.01,0,.01h0s.01.03.01.03h0s0,0,0,0h0s0,.01,0,.01l-.23.06h-.05s-.01.03-.01.03h0s0,0,0,0h0s0,.06,0,.06h0s0,.03,0,.03h0s.33-.08.33-.08h0s.12-.02.12-.02l.02.06-.32.08-.08.02v.08s.42-.11.42-.11v.03s-.14.04-.14.04v.03s-.12.04-.12.04h0s.14-.03.14-.03v.02s-.02.02-.02.02l.12.04v.03s0,0,0,0h0s0,.02,0,.02h0s0,.02,0,.02h0s0,.01,0,.01h-.03s0,0,0,0h-.01s0,0,0,0h-.05s-.05,0-.05,0h-.03s-.02.03-.02.03h0s.03.01.03.01l.03.02.05.02.04.04h-.01s-.02.03-.02.03v.03s0,0,0,0h.07s.02,0,.02,0h0s0,.03,0,.03h-.01s-.04.01-.04.01h-.02s0,0,0,0h0s0,.02,0,.02l.06.05h.05s.03.04.03.04l.02.04.03.02v.05s0,0,0,0h-.01s0,.01,0,.01h0s0,0,0,0h0s.02-.02.02-.02h.01s0-.01,0-.01h0s0,.02,0,.02h0s0,0,0,0h0s0,0,0,0h0s0,0,0,0h0s0,0,0,0h0s0,0,0,0h-.02s0,0,0,0v-.02s-.02,0-.02,0h0s0,.02,0,.02h0s0,0,0,0h0s-.04-.04-.04-.04h0s0,0,0,0h0s0,0,0,0h0s0,.01,0,.01h0s.03.04.03.04h.01s.01,0,.01,0h0s.02.06.02.06v.03s0,0,0,0h-.01s0,0,0,0h0s0,0,0,0h0s0,0,0,0h.03s.03.04.03.04v.03s.01.04.01.04h0s0,.02,0,.02h.02s.01.03.01.03h0s0,.02,0,.02h0s.01.01.01.01h.02s0,.03,0,.03v.02s0,.01,0,.01h.01s.01.03.01.03v.02s0,.01,0,.01h.01s.01.03.01.03v.02s-.02,0-.02,0h0s.03.04.03.04l.02.04h0s-.01.04-.01.04h-.02s-.05.01-.05.01h0s.03,0,.03,0h.03s.01.03.01.03v.02s0,.02,0,.02l-.02.02h-.03s0,.04,0,.04h.02s.03.01.03.01h.04s.02,0,.02,0h0s0,.02,0,.02h0s.01,0,.01,0h.01s.01.02.01.02v.03s0,.02,0,.02h0s0,0,0,0h0s.01.03.01.03v.03s-.04.03-.04.03h-.04s-.03,0-.03,0h0s0-.02,0-.02h0s-.01-.01-.01-.01h-.01s0,.04,0,.04v.02s.04.02.04.02h.03s.04,0,.04,0l.02.05-.03.02h0s.06-.02.06-.02h.02s.03.06.03.06l.06.12.09.15.09.14.04.08.04.08.04.07.06.13.07.14.06.15.04.09.03.07.03.05.03.07.05.12.04.1.03.07.04.08.02.06.04.09.04.07.03.04.02.04.04.07.04.07.03.02.04.07.03.05.27.55.03.07.02.04v.03s.07.09.07.09v.03s.05.1.05.1l.04.05v.04s.14.23.14.23l.08.16.07.14.06.14.04.11h.02s0,.02,0,.02l.05.19.03.05.02.12.02.08.02.22v.03s0,.01,0,.01v.07s.02.09.02.09v.05s.02.12.02.12v.04s0,.02,0,.02v.02s0,.04,0,.04v.02s.01.06.01.06v.02s-.08.03-.08.03l-.03.02v.02s-.02.01-.02.01h0s.02,0,.02,0l.03.06.02.04.02.05v.02s.01.02.01.02v.02s.02,0,.02,0v.09s0,.05,0,.05v.03s0,0,0,0l-.02.03-.03.02h-.02s0,0,0,0v.02s.03.08.03.08l.03.17.02.06v.06s0,.01,0,.01l.05.17.02.06.02.04.05.07.02.05.04.16.05.1.04.11v.03s.01,0,.01,0l.02.03h0s.07.15.07.15l.06.12.07.13h0s0,.04,0,.04l.06.15v.02s.03,0,.03,0l.13.42.06.1v.03s.05.02.05.02l.07.16.06.13.03.1.04.07.09.25.07.16.1.24.16.4.07.15.05.12.05.09v.02s.07.14.07.14l.05.11.03.07.03.08.03.09.03.08.02.04.03.07.02.03.03.07.04.14.03.07v.06s0,0,0,0h0s0,.04,0,.04h.01s0,.03,0,.03h0s.01.03.01.03l.03.08h0s0,.02,0,.02v.02s.02,0,.02,0h0s.01,0,.01,0h.03s.01,0,.01,0h0s0,0,0,0h.01s0-.02,0-.02h0s0-.02,0-.02h0s0-.03,0-.03h0s0-.03,0-.03v-.02s-.05-.09-.05-.09h0s0-.03,0-.03v-.02s0-.04,0-.04v-.02s0-.02,0-.02l-.02-.03v-.02s-.01-.02-.01-.02h0s0-.03,0-.03h0s0-.02,0-.02h.01s.02-.02.02-.02h.03s.02,0,.02,0h.1s.02,0,.02,0h.01s.02-.01.02-.01h.01s0-.03,0-.03h0s0-.03,0-.03v-.02s0-.02,0-.02v-.02s-.03-.04-.03-.04v-.02s-.01-.02-.01-.02v-.03s0-.02,0-.02h0s0-.02,0-.02h.01s.02,0,.02,0h.03s.02,0,.02,0h.02s.04.02.04.02h.03s0,0,0,0h0s0,.01,0,.01l.02.02h.02s.02.02.02.02h.01s.02,0,.02,0h.02s.01,0,.01,0h0s0-.02,0-.02h0s0-.03,0-.03h0s.01-.02.01-.02h.01s.01,0,.01,0h.01s0,0,0,0h0s.02-.02.02-.02h.02s.02-.02.02-.02h0s.01,0,.01,0h.01s.01.01.01.01h.01s0,.02,0,.02h0s0,.03,0,.03v.02s0,.02,0,.02h0s0,.03,0,.03h-.01s-.02.03-.02.03h-.01s-.01.02-.01.02h0s0,.02,0,.02v.02s.01.06.01.06h0s0,.04,0,.04h0s0,.02,0,.02h0s.05.03.05.03h.02s.03.02.03.02h.01s.01,0,.01,0h0s0-.02,0-.02v-.06s0,0,0,0h0s0,0,0,0h.01s0,0,0,0l.03.06v.02s.03,0,.03,0h.02s.03.01.03.01h.02s.02,0,.02,0h.02s.02-.01.02-.01l.05-.02h.02s.07-.02.07-.02h.02s.02,0,.02,0h.02s.02,0,.02,0h.01s.01-.02.01-.02h.01s0-.02,0-.02h0s.01-.01.01-.01h.01s.02,0,.02,0h.05s.02,0,.02,0h.02s.07-.03.07-.03h.01s0,0,0,0h.01s.01,0,.01,0h0s0,.01,0,.01h0s0,.02,0,.02h0s0,.01,0,.01l-.02.02h0s0,.02,0,.02h0s0,0,0,0h-.01s-.01,0-.01,0h-.01s0,.01,0,.01h0s0,.03,0,.03h0s0,.02,0,.02h.01s.02.02.02.02h.01s.01,0,.01,0h.01s.02,0,.02,0h.02s.02,0,.02,0h.02s.02.02.02.02l.03.02.04.03.04.04.05.03.06.03.06.03.03.02h.02s.02.02.02.02h.04s.04.03.04.03l.03.02h.02s.03.03.03.03l.04.02h0s.01-.02.01-.02h.02s0-.01,0-.01h.02s.03.02.03.02h.03s.01.01.01.01h.01s.01.01.01.01h0s0,.03,0,.03v.02s.01.03.01.03v.02s.02.02.02.02v.03s.01.01.01.01h.01s.01.01.01.01h.02s.02,0,.02,0h.02s.02.02.02.02h.01s.01.03.01.03h.01s.02.03.02.03h.02s.02.01.02.01h.05s.02,0,.02,0h.01s.03-.03.03-.03h.02s.03-.02.03-.02h.03s.04-.02.04-.02h.02s.02,0,.02,0h0s0,.01,0,.01h0s0,.02,0,.02v.03s-.02.01-.02.01h-.01s-.01,0-.01,0h-.02s-.01.02-.01.02h-.01s0,.02,0,.02h0s0,.02,0,.02v.02s.02.01.02.01h0s.01,0,.01,0h.02s.02,0,.02,0h.01s0,0,0,0h0s0,0,0,0h.01s.01-.02.01-.02h.01s0-.03,0-.03h0s0-.01,0-.01h.03s0-.01,0-.01h.01s.01.01.01.01h.02s.02.01.02.01h.01s.01-.01.01-.01h0s.02-.02.02-.02h.05s.04-.02.04-.02h.03s.02-.01.02-.01h.02s.02,0,.02,0h.01s.01,0,.01,0l.02.03.02.02h.01s0,0,0,0h0s0-.01,0-.01h0s.03-.02.03-.02h.02s.03-.02.03-.02h.01s.04.01.04.01l.04.02.07.02h.03s.03.02.03.02h.02s.02.02.02.02h.01s.01,0,.01,0h.01s0,0,0,0h.02s.01-.01.01-.01h0s0-.03,0-.03v-.02s0-.01,0-.01h0s0-.03,0-.03v-.02s.02-.03.02-.03v-.02s.04-.04.04-.04h.02s.02-.01.02-.01h.01s.05-.02.05-.02h.04s.01-.02.01-.02h.01s.01,0,.01,0h.01s0,.01,0,.01h0s.02.02.02.02h.03s0-.01,0-.01v-.02s.02-.02.02-.02v-.02s.04-.02.04-.02v-.02s0-.01,0-.01h0s.03-.02.03-.02h.03s.04-.02.04-.02h.03s.03,0,.03,0l.02.02v.03s-.01.05-.01.05v.05s0,.03,0,.03h0s.02.01.02.01h0s.01.02.01.02h.02s0-.02,0-.02v-.02s0-.04,0-.04l.02-.03h.02s.02-.02.02-.02h.02s.06.01.06.01l.05.02h.01s.03,0,.03,0h.04l.03.02.04.03.02.02v.03s.03.02.03.02l-.02.08v.03s0,.01,0,.01h0s0,0,0,0h.02s.01,0,.01,0h0s0,0,0,0h0s.02,0,.02,0h.01s.02,0,.02,0h.02s.01-.02.01-.02v-.02s0-.03,0-.03v-.02s0-.01,0-.01v-.03s.02-.01.02-.01v-.02s.01-.01.01-.01h0s.01-.04.01-.04l.02-.03h0s0-.03,0-.03v-.02s.03,0,.03,0h.02s.02,0,.02,0h.03s.02,0,.02,0v.03s0,.02,0,.02h.01s0,.03,0,.03h.01s0,.01,0,.01v.02s0,.02,0,.02l-.02.02h0s0,.02,0,.02h0s.01,0,.01,0h.02s.02-.01.02-.01v-.02s0-.02,0-.02h.02s.04-.01.04-.01h.04s.05-.02.05-.02h.03s.03.04.03.04l.03.03h.03s.02.01.02.01l.03.02.02.02h.02s.02.02.02.02v-.02s0-.01,0-.01h0s.01,0,.01,0h0s.03,0,.03,0h.01s0-.02,0-.02h0s0-.02,0-.02h.02s0,0,0,0h0s.02,0,.02,0h0s0,.03,0,.03v.02s-.02.02-.02.02h.02s.02,0,.02,0l.04-.03h.03s.02-.04.02-.04h.02s0-.02,0-.02l-.04-.02h0s0-.01,0-.01h0s0-.01,0-.01h.02s.02-.02.02-.02h.02s.02,0,.02,0h.02s.03,0,.03,0h.03s.02-.04.02-.04v-.03s-.02-.02-.02-.02l-.02-.02h-.01s0-.02,0-.02h0s0-.03,0-.03v-.03s.02,0,.02,0h.02s.02-.02.02-.02h.04s.03,0,.03,0h.01s0,.01,0,.01v.02s0,.03,0,.03h.01s.02.03.02.03h.02s.01,0,.01,0h.01s.04-.04.04-.04h.03s.03,0,.03,0h.01s.02.02.02.02h0s.01,0,.01,0h.03s.02,0,.02,0h.01s.01,0,.01,0l.05.02.07.03h.02s.02.02.02.02h0s0,0,0,0h.01s.03-.01.03-.01h.05s.06-.02.06-.02h.02s.02,0,.02,0h.02s0,0,0,0h0s0,0,0,0h.02s.05-.1.05-.1l.04-.07.05-.05.06-.05.09-.09.08-.07h.04s.06.02.06.02l.07-.02h.05s.05-.01.05-.01h0s0,.02,0,.02h0s0,.04,0,.04v.03s.06.04.06.04l.05.02h.05s.05,0,.05,0l.09.02h.07s.03.02.03.02l.07.1.08.05h.03s.02.02.02.02l.02.02h.02s.01,0,.01,0l.02-.02.02-.02.03-.02h.03s.02,0,.02,0h.05s.04.01.04.01h.04s.05,0,.05,0h.03s.01.03.01.03l.02.04.04.04h.01s.01.01.01.01h.04s.16-.01.16-.01h.15s.14,0,.14,0h.03s.03-.02.03-.02h.07s.06.02.06.02l.1.09.09.04.09.04.09.05h.07s.08,0,.08,0h.07s.04-.07.04-.07h0s.02-.02.02-.02v-.02s0-.03,0-.03v-.02s0-.02,0-.02v-.02s.08-.03.08-.03l.04-.02h.03s.02-.02.02-.02h.05s.03-.02.03-.02h.03s.06-.03.06-.03h.03s.15-.04.15-.04l.05-.03.05-.04.08.02h.08s.15.06.15.06l.12-.05h.1s.07.02.07.02l.09.03.09.02.04.03.04.02.08.08.13.09.11.03h.08s.09-.02.09-.02l.05.02h.08s.08.05.08.05l.09.06.02.04.04.06.06.02h.04s.03,0,.03,0v-.09s-.01-.07-.01-.07l.02-.02h.03s.05,0,.05,0l.14.06h.04s.04.02.04.02h.05s.03,0,.03,0h.04s.02.01.02.01l.02.02h.02s.02-.02.02-.02v-.07s-.01-.07-.01-.07l-.04-.05v-.05s.06-.01.06-.01l.11.06h.04l.04-.03.06-.08.03-.1.03-.02h.04s.03.04.03.04v.04s.02.03.02.03l.02.02.04.02.06.02h.09s.05.01.05.01h.06s.09,0,.09,0h.04s.05,0,.05,0h.03s.01.03.01.03l.05.05.02.02h.02s.04.02.04.02l.02.02h.04s.03-.03.03-.03h.03s.05.02.05.02h.03s.03.04.03.04l.02.06.03.03.03.03h.03s.02,0,.02,0h.04s.05-.04.05-.04l.03-.03.02-.02.05-.03h.02s.03-.02.03-.02h.01s.12,0,.12,0h.07s.01,0,.01,0h.02s.02.04.02.04v.04s.02.01.02.01h.02s.02,0,.02,0h.04s.06-.05.06-.05h.02s.02-.03.02-.03l.02-.02.04-.05.02-.03.02-.02h.02s.08-.03.08-.03h.04s.02,0,.02,0l.04.06.02.03.03.03h.03s.02,0,.02,0h.02s.06-.06.06-.06v-.03s.02-.02.02-.02l.05-.05.06-.03h.04s.02-.01.02-.01h.06s.04,0,.04,0l.03-.02.03-.02h.01s0-.03,0-.03v-.05s0-.06,0-.06l.02-.07.09-.04h.03s.01-.02.01-.02v-.03s.01-.03.01-.03l.02-.05.03-.04.07-.08v-.04s.02-.06.02-.06l.02-.02h.02s0-.07,0-.07v-.05s0-.09,0-.09v-.05s.02-.02.02-.02l.02-.02.04-.02v-.02s.04-.03.04-.03h.04s.01,0,.01,0h0s0-.03,0-.03l-.02-.04v-.03s-.01-.01-.01-.01l-.03-.02h-.01s0-.02,0-.02v-.02s-.04-.05-.04-.05l-.03-.04-.03-.03v-.03s-.02-.04-.02-.04l-.02-.07h-.02s-.02-.04-.02-.04l-.02-.03v-.04s0-.03,0-.03v-.03s-.01-.02-.01-.02v-.02s0-.03,0-.03h.02s0,.02,0,.02l.05-.06.02-.03h.02s.04-.04.04-.04l.02-.04v-.05s.03-.02.03-.02v-.02s.01-.04.01-.04v-.04s0-.05,0-.05l.04-.06.04-.03-.02-.02v-.02s.02-.03.02-.03h.02s.02-.02.02-.02l.02-.02h0s0-.02,0-.02h.02s0-.02,0-.02v-.03s0-.01,0-.01h0s0-.02,0-.02h0s0-.01,0-.01h0s.01-.03.01-.03h.01s0-.02,0-.02h.03s.03-.01.03-.01h.05s.03,0,.03,0h.01s.02,0,.02,0h.05s0,.02,0,.02h0s.01,0,.01,0v-.02s0-.02,0-.02h0v-.03h0s-.01-.01-.01-.01h-.01s.01-.02.01-.02l.02-.02.03-.02.1-.02v-.04h0s.02-.03.02-.03h0s.01-.04.01-.04h.03s.02-.03.02-.03h0s.03-.01.03-.01l.04.02h.02s.01.01.01.01h.02s.03,0,.03,0h.03s.02,0,.02,0h.02s0,0,0,0h.01s.01,0,.01,0h.02s.02-.01.02-.01h.02s.02,0,.02,0h.03s0,0,0,0h.01s0-.02,0-.02v-.04s.02-.01.02-.01h.04s.12-.02.12-.02l.06-.02v-.03s.05,0,.05,0l.04.02.11-.02h.07s.02.11.02.11h-.02s.05.08.05.08h.02s.03-.02.03-.02l.07-.02h.02s.01-.01.01-.01h.01s.01.03.01.03l.03.02.07.04v.02s0,0,0,0h0s0,.02,0,.02h0s0,.02,0,.02h.02s.01.01.01.01h.01s0,.02,0,.02l.03.02.05.02h0s.02.03.02.03h.03s.01,0,.01,0l.02.02h.03s.03-.02.03-.02h.05s.04.03.04.03v.02s.03,0,.03,0h.03s.01.04.01.04v.02s-.02.01-.02.01v.02s0,.01,0,.01h-.01s0,.01,0,.01v.03s.02.01.02.01h-.02s-.01.01-.01.01h0v.02h.01s-.01.02-.01.02h-.02s-.01,0-.01,0h0s.01.02.01.02h0s0,.01,0,.01h0s0,.01,0,.01h.02s.01.02.01.02h0s0,.03,0,.03h0s.01.03.01.03h0s0,.02,0,.02v.02s0,.02,0,.02h-.02s0,.06,0,.06v.05s-.03,0-.03,0h-.02s-.02,0-.02,0h-.02s-.01.03-.01.03l-.06.04-.06.07.04.04.02.05-.02.02v.02s.03.12.03.12l-.1.09v.1s.08.11.08.11l.12.06.07.06v.11s.06.04.06.04l.06.11.11.13-.02.09h.02s.06-.02.06-.02l.11.1.11.17.24.03.14.14.16.08.08.04.12.15.17.06h.1s.09.03.09.03l.15.05.11-.03h.02s.23-.04.23-.04l.27.05.27.08.14.05.23.12h.18s.14.02.14.02l.27.03.27-.05.14-.05.14-.07.14-.05.14-.07.14-.08.14-.07.27-.08.14.03v.49l-.15.61-.14.8-.14.16-.14.07-.14-.03-.27-.08-.14-.07-.14-.15-.14-.23-.14-.19-.27-.14-.14-.05-.27-.08h-.14s-.14.04-.14.04l-.05.42-.11.31-.03.46-.15.11-.14.2.11.33.14.22-.08.49-.15.16-.14.1-.14.07-.14.05-.14.07-.27.16-.14.07-.27.11-.55.27-.27.11-.14.07-.14.04-.14.05-.14.07-.27.16-.14.3v.1h-.01l.12.33.14.26.09.12.04.06.14.12.14.08.14.04h.27l.27-.08.14-.07.27-.16.14-.07.14-.04.14.03.14.07.14.08.14.05.14.03.12.04h.14s.14.04.14.04h.27l.14-.03.14-.05h.06s.11.05.11.05l.24.08.16-.04.82-.28.23.04.02.34-.05.3.1.39.08.15.48.05.03.04.03.24.02.02v.02s0,.02,0,.02l-.03.06v.02s.04.04.04.04h0s0,.03,0,.03v.02s0,.02,0,.02l.05.11.04.03.02.02h0s-.01.03-.01.03v.03s.03.02.03.02l.04.03.03.04.05.02h.05s.02-.01.02-.01h.03s.03.01.03.01l.02.07h.02s.01,0,.01,0v-.02s.02,0,.02,0h.01s.02.04.02.04h0s0,.03,0,.03h.04s.02,0,.02,0h.02s.01-.02.01-.02h.02s.02,0,.02,0h0s.02-.02.02-.02h.02s.01,0,.01,0h.02s.01.02.01.02h.02s.01,0,.01,0h0s0,.01,0,.01h0s.12.03.12.03h.01s.07-.03.07-.03h.02s.02,0,.02,0l.02.02h0s0,.02,0,.02l.06.02h0s0,.01,0,.01h0s0,0,0,0h0s.03,0,.03,0v.02s.02,0,.02,0h.03s.05-.02.05-.02h.02s.02.01.02.01h.03s.03.02.03.02h.02s.03.03.03.03l.03.03.02.02.19.17.04.02.05.06.05.05.1.05.15.02h.06s.09-.03.09-.03l.06-.02.15.02.04.06.08.06.02.03.15.11-.05.07h-.04s-.05.02-.05.02h-.02s-.02.02-.02.02v.02s-.03,0-.03,0h0v.02s0,.01,0,.01v.03s-.01.03-.01.03h.02s.01-.02.01-.02v-.03s.03,0,.03,0h0s.03-.03.03-.03h.06s.03.02.03.02l-.04.02v.04s.02.02.02.02h.02s.04.04.04.04h.02s.01.03.01.03l-.02.05v.02s-.05,0-.05,0h0s.02.03.02.03h.02s.04,0,.04,0v.02s0,.03,0,.03v.03s.03,0,.03,0h.04s0-.03,0-.03l-.02-.03.02-.06.05-.02.02-.07.14-.03.14.19.14.14h.14l.03-.31.14.04.14.33.12.05.27.03.14.03.14.04.14.08.14.14.14.18.07.23-.04.59-.14.16-.14.12-.14.11-.41.37-.27.3-.11.13-.04.05.05.3.14.2.14.18.12.26.27.71.07.07.07.07.05.02.09.05.12.07.14.11.08.63.14.16.12.08.14.03h.27s.14.05.14.05l.14.1h.14s.27-.04.27-.04h.27l.14.04.14.11.14.16.12.37-.14.37-.14.12-.25.2-.02.02-.27.19-.09.07-.05.04-.07.09-.08.1v.04s.01.08.01.08v.03s.04.48.04.48l.14.26.12.37.14.68.12.42.14.12h.14s.14.01.14.01l.14.08.14.14.12.19.14.15.14.14.27.22.14.1.12.11-.11.2-.14.1-.27.08-.14.03-.14-.03h-.14s-.14.18-.14.18l-.14.05h-.14l-.14.1-.14.42-.14.44-.15.35-.14.11-.14.07-.27.11-.14.1-.14.74-.14.26-.14.1-.27.05h-.14s-.14.01-.14.01h-.14s-.14.05-.14.05l-.14.05-.14.08-.14.15-.14.2-.14.23-.14.14-.14.11-.14.1-.41.16-.14.11-.15.16-.14.35.04,1.08-.14.29-.14.15-.14.04-.14-.04h-.14s-.14.22-.14.22l-.41.08-.14.11-.14.14-.14.1-.14.04-.14.03-.14.04h-.14s-.12,0-.12,0h-.27s-.14-.01-.14-.01l-.14-.07-.14-.1-.14-.14-.14-.11-.12-.08-.14-.04h-.14s-.14,0-.14,0l-.14.04-.14.11-.14.12-.14.11-.14.05h-.14s-.27-.01-.27-.01h-.14l-.14.08.03.5-.08.23h-.14s-.14.01-.14.01l-.14.05-.14.1-.14.31-.14.19-.29.26-.14.1-.14.08-.14.1-.12.08-.27.14-.27.16-.27.14-.14.1-.27.25-.14.11-.27.27-.14.12-.14.11-.14.1-.14.27-.15.2-.14.16-.27.27-.14.15-.14.19-.14.31-.14.25-.14.2-.14.16-.14.19-.14.16-.27.27-.14.14-.08.34.14.16.14.07.12.05.14.05.27.08.14.05.14.08.14.07.14.08.12.11.14.14.14.2.14.22.14.1.12.1.14.04h.14s.14.01.14.01h.14s.27-.07.27-.07l.14-.04.14-.03.41-.04h.12s.14.05.14.05l.14.05.14.08.14.19.14.29.12.08.14.07.14.04.14.05.14.08.14.12.04.06.09.14-.07.46.03.08.2.31.09.17-.14.14h-.06s-.12.01-.12.01l-.05.02-.07.06-.21-.02-.27-.12-.14-.02-.16-.03h-.14s-.08.04-.08.04l-.35.12-.23-.02-.2.02-.21-.04-.12-.04-.27-.02-.12-.04-.14-.03h-.55s-.41-.22-.41-.22l-.12-.1-.14-.08-.27-.11-.14-.04h-.14l-.14.04-.14.05-.14.04h-.12s-.14-.1-.14-.1l-.14-.16-.14-.15-.14-.12-.14-.11-.12-.07-.14-.03h-.27s-.14.07-.14.07h-.14l-.14-.08-.14-.1-.14-.05h-.14s-.12.04-.12.04l-.14.11-.14.19-.15.42-.14.04-.12.03-.41.04-.14.07-.14.19-.14.04h-.27l-.14.05-.14.07h-.14l-.14-.03-.12-.03-.27-.03-.14-.04-.14-.03-.27-.08-.14-.05-.14-.14-.12-.18-.14-.22-.14-.18-.14-.1-.14-.05h-.14l-.14.05-.14.12-.06.06-.07.07-.14.2-.14.19-.12.1-.14.05h-.27s-.14.01-.14.01h-.14s-.41.05-.41.05l-.14.04-.14.1-.14.2-.14.18-.14.12-.14.05-.12.07-.14.05-.27.05-.14-.05-.14-.11-.14-.15-.14-.07-.14-.04h-.12s-.14.05-.14.05l-.14.14-.14.2-.14.26-.14.35-.15.34-.14.19-.12.16-.14.2-.14.2-.14.16-.14.2-.14.23-.14.08-.14.03-.27-.05h-.27l-.14.11-.14.14-.14.18-.14.19-.14.12-.14.14-.14.19-.14.25-.11.29h.01l-.14.26-.14.15-.12.12-.14.1-.27.14-.14.05-.14.07-.14.12-.14.19.05.67.12.4-.18.47-.06.1-.05.05-.1.06h0s-.18,0-.18,0l-.07.05-.32.29-.22.17-.14.08-.14.11-.14.12-.14.16-.14.23.05.42.14.15.14.11.14.1.12.07.14.03h.14l.14-.03.14-.04.14-.05.14-.04.14-.05.14-.03h.14s.12.01.12.01l-.05.13v.08s.06.34.06.34l.4.37.13.17.23.07.28-.15.2.09.12.03h.11s.21.04.21.04l.21.02.14.05.04.05.16.09.19.27.05.26.09.26.26.18.19.02v.17s.23.09.23.09l.32.03h.17s.27-.13.27-.13l.29.12-.1.41-.26.26-.14.12-.14.11-.14.15-.14.16-.14.16-.14.18-.14.14-.14.11-.14.1-.14.05-.14.03h-.14s-.12.01-.12.01h-.14s-.14.04-.14.04l-.14.07-.14.08-.14.07-.14.08-.27.11h-.12s-.14,0-.14,0l-.27-.08-.27-.11-.14-.03h-.12l-.14.03-.14.08-.14.12-.14.04-.27.05-.14.04-.14.05-.14.07-.12.07-.14.07-.14.1-.11.34.14.23.12.12.14.1.14.11.14.15.14.31-.1.59-.12.18-.14.19-.27.3-.14.14-.27.25-.14.11-.27.16-.14.1-.12.08-.14.11-.27.19-.14.1-.14.08-.14.12-.14.1-.02.02-.11.11-.14.12-.12.14-.27.19-.14.07-.14.05-.14.07-.14.08-.14.04-.14.05-.12.03-.27.08-.14.03-.27.11-.14.08-.12.05-.14.07-.27.11-.14.07-.27.11-.14.08-.14.11-.12.14-.14.26-.14.4-.14.89-.14.34-.14.15-.14.07-.14.04-.14.05-.14.12-.14.11-.12.11-.14.05-.89.68.72.3,1.23.61-.33.36-.9.9-.53.71.32.53.92.5.36.22.24.31v.51s.05.86.05.86l.06.68,1.01.49.18.71.15.54-.37.56-.62.87-.31.54-.03.35-.03.36.35.14.6.24.69.14.14.94.12.58.13.53.27,1.49.03.42.08.25.21,1.25.05.49.4.62.31.42.45.74-.75.9-.34.16-.56.76-.51.88-.33.96.06.84-.39,1.22-.05.04-.19.2-.79.84-.8,1.17-.27.02-.6.37-1.28,1.43.2-.03.05-.02.17-.03.22.04h.19s.26-.07.26-.07h.22s.13-.02.13-.02h0s.13-.1.13-.1l.09-.09.1-.11.13-.09h.07s.06.05.06.05l.02.03.09.18v.06s-.02.02-.02.02l-.27.1-.04.03v.04s.03.09.03.09l.09.06h.07s.05,0,.05,0l.04.03.02.08v.07s.03.05.03.05l.05.04h.07s.05,0,.05,0l.1-.1.03-.08.04-.05.07-.04.04.03-.02.05-.04.05v.07s.03.04.03.04l.06.05.17.02h.19s.15.02.15.02l.24.06.12.11.1.09.18.08.05.07h.17s.17-.09.17-.09l.03-.09.04-.05h.05s.07,0,.07,0l.1.05.13.14.11.08.05.03.07.02.06-.02.02-.03v-.06s-.09-.04-.09-.04l-.07-.06.05-.07.04-.03h.11s.1,0,.1,0l.1-.02.16-.05h.2s.11.04.11.04l.07.02.13.04.07.06.03.16.02.18.12.23.09.15.09.03h.13s.1-.07.1-.07l.13-.07.24-.02.18-.02.07-.06.04-.12.09-.09.03-.03h.05s-.04.11-.04.11l-.04.04.03.07h.04s.11-.07.11-.07l.13-.06.08-.06.05.03.04.06.05.09.13.06h.12l.02-.04-.05-.09.02-.04.09.04.08.04.07-.05v-.04s.05-.02.05-.02l.08.02.14.04.07.04.03.03h.03s.07-.05.07-.05h.04s.05.09.05.09l.04.05v.07s.03.22.03.22l.07.15.07.04-.06.06v.14s-.07.21-.07.21l.06.05h.05s.05,0,.05,0v.11s.07.02.07.02l.09-.02h.09s.08.08.08.08l.04.15v.14s-.08.08-.08.08v.09s.08.15.08.15l.06.09.24.16.07.07.19.29.12.16.15.13.08-.02h.04s0,.1,0,.1l.7.1h.58s.44-.04.44-.04l.43.08.36.08h.15s.04-.04.04-.04l.07.03v.13s.15.1.15.1l.04.55.02.12-.09.6-.12.67.06.12.04.06-.06.12.05.27.09.07.1.18.43.22.22.1.29.24.24.13.3.22.13.03.02.1.19.26.12.13.15.47v.27s.14.28.14.28l.07.09.15.09-.02.29-.15.22.07.31.03.33.04.34.31-.06.33-.09.23-.11.46-.08.82-.23.55.04h.71s.3.04.3.04l.09-.04.06.08.12.19.18.18.43-.19.44-.05.44-.15.34-.25.16.03v-.14l.23.1.05.08.05.32-.06.58.22.36.09.28.31.04h.33s.37-.17.37-.17h.13s.08-.12.08-.12l.15.05.09.07.03.1.54.3.55.33,1.08.63.14.15.17.06.11.06.08.13.16.11.27.03.27.23.16.17.66.6.18.15.14.17.25.1.13.17.22.17.47.43.32.29.51.49.41.17.15.26.36.2.31.07.12.22.31.14.91.08.57.12.07.07.5-.08.84.07h.41s.32.1.32.1l.2.11.3.04.19.16.29.16.16.04.15.02.18.06.08.02h.07s.29-.01.29-.01l1.3.1,1.65.31h.7s2.56.31,2.56.31l.93.16,1.19.25.11.11.09.32.41.17.14.17.25.13.57.13.11-.14.51-.11.32-.14.53-.03.44.08,1.28-.02,1.49.25,1.03.23,1.01-.38,1.1-.72.53-1.02,3.46-4.19.68.22.29-.28.32.06.23.45.4.2.37.09h.59l.8-.15,1.36-.03.38-.16.23-.08v-.1s.84-.6.84-.6l.51-.34.8-.72.61-.74.72-.78.67-.77.33-.27.73-.4.5-.66.65-.71,1.02-.23,1.37-.48.62.34.45.05,1.18-.08.62.37.46-.03.08-.14.28-.15.57-.03.85.25.36-.74.58-.82,2.23-.73.53-.77.44-1,1.01-.74.45-.5.56-1.05.42-.14.68-.34.62-.88.74-.21,1.31-.13.22-.43.74-.02,1.19-.18,2.02-.33.51.03,1.42-.19.56-.28.2-.06.26-.17h.45s.38-.11.38-.11l.8-.09.62-.62.43-.66.09-.55.15-.69.17-.63.05-.43.13-.4.11-.42-.05-.82-.3-.53.79-.72.87-.33.73-.26,2.42.09,1.03.47.64-.22.71-.41,1.43-.79,1-.53,1.18-.64,1.11-.6,1.36-.7.93-.54,1.7-.87,1.89-1.05,1.34-.74,1.16-.61,1.38-.73,1.02-.62.5-.26,1.08-.47.4-.2,2.27-1.24,1.59-.91.61-1.06.27-.12.38-.08,1.05-.13.91-.27.29-.11.45-.26,6.05-3.03,6.05-3.07,3.92-2.4.14-.05h.33s.38-.26.38-.26l.33-.21.23-.18.16-.08.15-.08v-.05s.03-.03.03-.03l.54-.29.38-.2.62-.33.67-.35.74-.39.71-.36.62-.32.7-.36.16-.08.72-.37.43-.23.31-.16.08-.04.16-.08.47-.25.14-.07.53-.28.15-.09.14-.07.81-.43.57-.3.26-.14.39-.2.18-.1.15-.07.11-.06.62-.33.13-.06h0s.08-.04.08-.04l.14-.08.07-.04.17-.08.18-.09.11-.05.19-.09.17-.09.1-.04.17-.09.24-.13.14-.08.15-.09.09-.03.23-.11.17-.09.1-.05.13-.07.16-.08.1-.05.04-.02.15-.07.09-.04.12-.07.06-.03.18-.1.24-.13.1-.05.07-.04.05-.02.24-.13.17-.08.09-.05.2-.1.45-.23.16-.09.23-.11.21-.11.5-.27.15-.08.1-.05.21-.12.33-.17.16-.08,1.16-.59,1.61-.83,1.27-.66,1.3-.68,1.08-.56.76-.37.89-.46.87-.46.58-.29.96-.5.96-.5.82-.42.86-.44.89-.46.85-.44.91-.46.69-.36.7-.36.41-.2.32-.17.29-.14.91-.45,1.72-.89,1.19-.6.85-.45.74-.38.62-.32.24-.13.87-.45.94-.47,1.05-.55,1.17-.59,1.29-.65.75-.37.89-.45.84-.42,1.85-.92,1.16-.6,1.29-.65,1.31-.64,1.85-.93,2.45-1.27,1.92-.95,2.26-1.15,2.22-1.08,3.01-1.52,7.44-3.76,3.35-1.68,3.79-1.89,3.9-1.93,1.06-.53.87-.43,1.58-.39,1.17-.28.62-.16,2.4-.56,4.08-1.02,3.27-.82.42-.12.14-.12.39-.21.32-.04h.77s.79-.21.79-.21l.56-.12h.02s.01-.02.01-.02h.02s.02,0,.02,0l.02-.06.23-.58.03-.08.12-.14.28-.31.21-.26.34-.39-.02-.02.05-.06.16-.15.14-.11.21-.17.08.05.04-.16.32-.64.74-1.43,1.44-2.8.95-1.83.77-1.52.96-1.86,1.39-1.63,1.25-1.49,1.36-1.61,1.21-1.39.15-.77.21-1.27v-.13s-.04-.14-.04-.14l-.25-.49-.1-.52v-.14s.12-.15.12-.15l.08-.27-.02-.21v-.22s-.09-.11-.09-.11l-.09-.23-.21-1.01v-.66s-.02-.18-.02-.18l.08-.15v-1.44s-.16-.65-.16-.65l.31-.86-.28-1.29-.15-.69.22-1.67v-.15s-.01-.1-.01-.1l-.07-1.24-.04-.71-.05-.81-.07-1.12.12-1.22.19-1.95.04-.37.4-2.15.32-1.32.13-.52.08-.25.23-.7.37-1.12.61-1.87.31-.95-.94-1.63.32-1.86.97-1.21.03-.27,2.23-2.88-.19-.44.61-.74.94-1.16,1.3-1.61-.07-1.45-.06-1.34-.05-1.13-.12-1.85-.15-2.34-.04-.61-.1-1.6-.03-.39-.78-1.49-.83-1.6-.3-.54-3.04-5.78-.63-1.21.04-.34.07-.5.05-.34.05-.39.07-.45.08-.61.08-.61.06-.45.08-.54.06-.39.04-.31.1-.71.07-.52.04-.53v-.21s.03-.09.03-.09l.04-.32.03-.29.03-.32.07-.76.09-.83.06-.56.03-.31v-.12s.02-.07.02-.07l.06-.62.05-.41-.03-.39v-.82s.12-.36.12-.36v-.02s-.02-.04-.02-.04l.03-.08v-.04s0-.07,0-.07l-.02-.05v-.03s.06-.03.06-.03l.08-.09v-.03s0-.05,0-.05v-.03s.06-.07.06-.07l.03-.03h0s.04-.08.04-.08l.02-.02v-.02s.02,0,.02,0l.04-.07.02-.02h.04s.07,0,.07,0l.06-.03h0s.03-.02.03-.02l.07-.07.02-.03v-.02s.02-.02.02-.02v-.03s-.01-.05-.01-.05v-.03s.02-.07.02-.07v-.03s0-.02,0-.02v-.03s0-.02,0-.02v-.02s-.02-.01-.02-.01l-.03-.03h-.02s-.03-.01-.03-.01h-.03s-.02-.02-.02-.02h-.02s0-.02,0-.02v-.02s0-.02,0-.02l-.02-.02v-.02s-.01,0-.01,0h0s0-.02,0-.02h0s0,0,0,0v-.02s0,0,0,0h0s0-.03,0-.03l-.04-.03h-.02s-.03-.03-.03-.03h0s-.01-.02-.01-.02v-.04s0-.06,0-.06l.04-.07v-.03s.02-.02.02-.02l.06-.09.17-.24.12-.18.16-.24.11-.16.15-.23.11-.16.1-.14.11-.16.14-.21.17-.24.27-.4.28-.46.29-.43.37-.56.33-.49.41-.6.32-.48.33-.49.49-.74.39-.56.22-.26.18-.17.52-.08.53-.08.91-.14,1.02-.16,1.06-.17,1.04-.14.82-.14.91-.14.57-.08,1.08-.17.95-.14,5.4-.79,1.49-.26,1.97-.3,2.11-.32,1.7-1.22.98-.69.68-.49.11-.1.47-.42.18-.15,1.43-1.27.56-.5.06-.03.08-.02.52-.27.35-.18.14-.07.15-.06.1-.07.04-.15.02-.09.04-.05h.05s.03-.02.03-.02h.05s.03-.05.03-.05h.02s.12.05.12.05l.05-.17.99-1.39,1.48-1.31,1.56-1.41.55-.48.07-.07.03-.04.08-.06.49-.45.38-.32.66-.6.51-.45.55-.49.32-.29.5-.44.37-.33.62-.56.38-.33.55-.49.63-.56.42-.39.33-.29.39-.33.67-.6.64-.59.56-.48.65-.57.5-.44.98-.87,1.02-.9.61-.58.85-.71.75-.13-.02-.4.28-.46v-.23s-.51-.21-.51-.21l-.38-.13-.19-.06-.1-.24.08-.34-.02-.39.07-.7h0s.1-.2.1-.2l-.12-.33-.73-.71-.38-.63.06-.33-.11-.23-.21-.18-.19-.63.37-.7.47-.5.48-.17.03-.07-.03-.1-.37-.23.17-.41-.03-.13-.09-.12-.12-.11-.52-.14-.59-.35-.2-.41-.03-.06-.28-.19-.37-.06h-.26s-.15-.16-.15-.16l-.05-.51-.21-.32-.15-.04-.58.45-.42.1-.24-.03-.34-.25-.23-.14-.18-.08-.31-.08-.11.06-.08.04-.06.02-.36.12-.51.03-.33-.16.17-.14.03-.13-.08-.18-.02-.08.26-.33.45-.43.16-.14.05-.2-.04-.13-.15-.1h0Z" style="fill: none; fill-rule: evenodd; stroke: #232323; stroke-linecap: square; stroke-linejoin: bevel; stroke-width: 1.48px;"/>
</svg>