<?xml version="1.0" encoding="UTF-8"?>
<svg id="a" data-name="Pfade" xmlns="http://www.w3.org/2000/svg" width="1920" height="1080" viewBox="0 0 1920 1080">
  <path d="M975.48,426.19l1.11,1.04-.15,1.59-.58.6-.68.31-.61.42-.34.88.16.98.46.84.3.83-.3.95-.6-.85-.99-.39-5.14-.58-.92.03-1.57.59-1.91,1.11-1.76,1.33-1.19,1.21-1.22.77-1.29.57-4.17,1.09-.39.56-.17.77-.77,1.04h0s-.01.01-.01.01l-.45.82-.46.36-.61.04-2.04-.42-.44-.29-.32-.52-1.98-3.57-.37-1.02.03-1.04.43-1,.82-.85.63-.3.56-.08.48-.18.41-.57.06-.48-.05-.61-.25-1.08-.42-1.13-.58-.84-.8-.67-1.1-.57-4.73-1.57-.93-.12-1.64-.22-2.22.28-1.8,1.23-1.45,1.68-1.5,1.39-2.63.38-.89.72-.62.13-.36-.19-1.05-.82-.49-.27-1.16-.24-1.28-.09-5.04.27-1.18-.12-1.24-.4-.9-.54-.4-.18-.63-.08-.61.08-1.21.37-.63.07-.8-.26-2.29-1.5-2-.8-.66-.41-1.29-.8-.59-.1-.91.11-.43.16-.46.37-.44.07-.41-.05-.33-.09-6.45-2.78-.85-.19-1.52.11-1.98.42-1.88.64-1.25.76-2.09.57-1.98-.23-4.06-1.08-.42-.24-.21-.85-.43-.26-.59-.05-.43.02-2.43.79-.32.18-.3.39-.1.35-.06.34-.19.39-6.15,7.17-.61,1.33-.17.27-.78.28-4.23.57-2.81.74-2.19.21.32.58.37.5.27.55.02.71h-.02s-.37.24-.37.24v-.31s.27-.46.27-.46v-.22l-.52-.21-.37-.13-.2-.06-.1-.24.08-.33-.02-.39.07-.7h0s.1-.2.1-.2l-.12-.33-.73-.71-.38-.63.05-.33-.11-.22-.21-.19-.19-.62.37-.7.47-.5.48-.17.03-.07-.03-.1-.37-.23.17-.41-.03-.13-.09-.12-.12-.11-.51-.13-.6-.36-.2-.4-.03-.06-.28-.19-.37-.05h-.27s-.15-.16-.15-.16l-.05-.51-.21-.32-.15-.04-.58.44-.41.1-.24-.03-.34-.25-.23-.14-.19-.08-.3-.08-.11.06-.08.04-.06.03-.36.12-.51.03-.33-.15.17-.14.03-.13-.08-.18-.02-.07.27-.33.45-.44.16-.13.05-.2-.03-.13-.15-.09h-.01s-.75-.03-.75-.03l-.02.06-.03.04h-.03s-.09,0-.09,0h-.01s-.12.09-.12.09v.06s-.06.06-.06.06h-.05l-.1.02-.02.07-.05.07v.11s-.02.03-.02.03l-.12.11h-.05s0,.06,0,.06l-.04.07.05.12-.02.05v.03s0,.09,0,.09l-.02.04-.03.03-.02.03h-.02s-.02.03-.02.03l-.03.02-.09.15-.06.09-.04.05-.21.14-.51.36-.1.07-.09.06-.1.06-.18.13-.11.09-.13.09-.1.08-.07.05-.16.13-.14.11-.1.08-.13.1-.11.08-.09.06-.18.14-.11.09-.06.05-.03.02h-.02s-.04.02-.04.02l-.06.02h-.04s-.04.04-.04.04l-.04.02-.06.04-.13.1-.08.05-.12.09-.07.04-.1.07-.08.05-.13.1-.16.13-.13.1-.03.03-.17.17-.2.17-.08.21v.06s-.11.29-.11.29l-.05.06h-.03s-.06.03-.06.03h-.18s-.21-.02-.21-.02l-.22.07-.1.05-.25.11-.19.07-.28.14-.14.05-.22.17-.07.06-.09.09-.12.13-.04.04-.33.19-.03.03-.1.06-.18.02h-.06s-.15,0-.15,0l-.15-.05-.42.03-.53.03h-.09s-.09.04-.09.04l-.03.04-.32.24-.1.04-.13.08-.13.02-.17.04-.68.21-.11.04-.02.05v.07s-.03.05-.03.05v.06s-.03.02-.03.02l-.13.04-.44.1-.04.02-.08.03h-.41s-.15,0-.15,0l-.14-.03h-.18s-.16-.03-.16-.03l-.25.06-.15.02-.07.03-.13.02-.24.05-.31.07-.11.03-.29.07-.13.03-.09.03h-.03l-.15.04-.78.23h-.08s-.75.16-.75.16l-.38.03-1.23.13-.45.18h-.41s-.63.31-.63.31l-2.17.29-2.44.36-.3.04h-.19l-.08-.02-.35-.06h-.19l-.13-.03h-.11l-.21-.03-.2-.05h-.24s-.15-.01-.15-.01l-.19.02-.47.09-.07.03-.29.05-.27.28h-.11s-.24-.08-.24-.08h-.3s-.18.03-.18.03l-.16.04-.18.05-.16.04-.03.02-.04.03-.06.04h-.03s-.08,0-.08,0h-.03s-.04.03-.04.03l-.08.09-.06.04h-.09s-.26.07-.26.07l-.24.1-.08.05-.47.22-.23.09-.14.04-.09.04-.08.03-.05.02-.05.02-.08.03-.1.04-.12.03-.09.02-.07.02h-.1s-.05,0-.05,0h-.04s-.21,0-.21,0l-.11.02h-.1s-.18.03-.18.03h-.13s-.17.01-.17.01h-.03s-.05.02-.05.02h-.05s-.05.03-.05.03h-.03s-.03.03-.03.03v.02s-.03.03-.03.03l-.07.12-.05.04-.03.02h-.28l-.17-.03-.27-.03h-.2s-.4-.02-.4-.02h-.46s-.33-.02-.33-.02h-2.56s-1.01.03-1.01.03h-1.15s-.17.07-.17.07l-.1.09-.11.03-.48-.06-.27-.06-.19-.05h-.18s-.91-.04-.91-.04l-.76-.02-.45-.02h-.58s-.43,0-.43,0h-.22s-.1.06-.1.06l-.15.03h-.1s-.07,0-.07,0l-.08-.05h-.08s-.1,0-.1,0l-.22.03-.25.04h-.23s-.14.02-.14.02l-.09.04-.18.02-.08.02h-.09l-.13.02-.12.04-.26.1-.24.09-.14.06v.02l.04.03h.04s-.02.06-.02.06l-.21.25v.02h-.02s-.06,0-.06,0h-.05s-.16-.03-.16-.03h-.09l-.62-.06.02-.77-.02-.03-.44-.19h-.04s-.04-.02-.04-.02h-.02s-.2-.05-.2-.05l-.08-.02-.09-.03h-.03s-.24-.15-.24-.15l-.06-.03-.14.11h-.11s.03-.23.03-.23l-.09-.05-.05-.02-.09-.04-.21-.04-.3-.04-.29-.05h-.06s-.11-.01-.11-.01h-.05s-.04.02-.04.02h-.05l-.05.02-.04.02-.06.03h-.04s-.04.03-.04.03h-.06s-.11,0-.11,0h-.02s-.03-.02-.03-.02h-.02s-.11-.07-.11-.07h-.03s-.03-.02-.03-.02h-.13s-.03.03-.03.03l-.15.07-.05.02h-.02s-.03.02-.03.02h-.14s-.35-.11-.35-.11l-.17.09-.06-.02.07-.11-.56-.17h-.05s-.08-.02-.08-.02h-.07s.06.11.06.11l-.15-.02-.08-.13-.5-.07h-.06s-.04-.02-.04-.02h0s-.37-.06-.37-.06h0s-.87-.2-.87-.2l-.15-.02-.88-.16-.74-.12h-.06s-.07-.02-.07-.02h-1.23s-.15,0-.15,0h-.05s-.05,0-.05,0l-.37-.11-.21-.05-1.7-.38-.89-.2h-.04s-.07-.02-.07-.02l-.21-.02h-.07s-.03,0-.03,0h-.16s-.03.02-.03.02h-.04s-.54.15-.54.15h-.05s-.05.02-.05.02h-.04s-.13.01-.13.01h-.05s-.26-.05-.26-.05h-.06s-.09,0-.09,0h-.18s-.04,0-.04,0h-.04s-.05.02-.05.02l-1.1.31h-.04s-.03.03-.03.03l-.03.02h-.02s-.02.04-.02.04l-.02.02v.02s-.01.03-.01.03l-.02.08-.05.23v.03s-.02.03-.02.03v.02s-.03.02-.03.02l-.02.02-.03.02-.22.12h-.03s-.06.03-.06.03h-.13s-.04-.02-.04-.02l-.44-.17-.04-.02h-.03s-.02-.03-.02-.03l-.03-.02v-.02s-.03-.02-.03-.02v-.03s-.24-.51-.24-.51l-.04-.03-.05-.04h-.02s-.03-.02-.03-.02h-.06s-.09-.01-.09-.01h-.02s-.03.02-.03.02h-.02s-.05.03-.05.03l-.03.02-.21.21h-.03s-.03.03-.03.03h-.05s-.03.02-.03.02h-.1s-.94-.15-.94-.15l-.08-.02-.05-.02h-.03s-.03-.03-.03-.03l-.03-.04-.08-.09-.03-.02-.03-.02-.06-.02h-.04s-.12-.01-.12-.01h-.03s-.04.02-.04.02l-.03.02-.08.08-.28.61-.04.06-.03.04h-.03s-.04.04-.04.04l-.06.02h-.05s-.06.02-.06.02h-.08s-.04-.02-.04-.02l-.06-.03-.07-.03h-.05s-.11,0-.11,0l-.1.02-.26.05-.16.03h-.05s-.09.01-.09.01l-.21.02h-.07l-.08.02-.06.02-.06.03-.14.08-.06.03-.05.02h-.04s-.05.02-.05.02h-.33s-.23-.02-.23-.02h-.15s-.06.02-.06.02l-.04.02-.07.04-.11.07-.11.07-.11.06-.1.06-.08.07-.13.09-.08.06-.07.04-.08.04-.1.04-.06.03-.24.1-.26.11-.24.1-.21.09-.05.03-.04.02-.05.02-.08.03v.03l-.35.14h-.04s-.09.03-.09.03l-.05.02-.06.02-.11.05-.1.04-.09.04-.07.04-.08.04-.06.04-.07.05-.1.07-.09.06-.08.06-.04.02-.06.02h-.05s-.05.02-.05.02h-.05l-.36.02h-.51s-.2.02-.2.02h-.06s-.08.03-.08.03l-.08.03-.05.03-.09.07-.17.12-.2.14-.22.16-.08.06-.05.03-.33.18-.67.34-.43.23-.47.24-.05.03-.06.02h-.08s-.24.04-.24.04l-.27.02-.41.04-.38.04-.4.04-.37.04-.21.02-.3.04-.31.03-.31.03-.22.02-.27.03-.33.04-.38.03-.2.02-.26.03-.19.02-.17.02h-.15s-.16.04-.16.04h-.06s-.06.03-.06.03l-.09.04h-.04s-.01.02-.01.02l-.16.08-.11.05-.14.06-.07.03-.05.04-.04.03-.07.07-.12.13-.14.14-.2.22-.14.14-.06.07-.04.05-.03.05-.02.05v.04s-.02.06-.02.06v.11s-.03.07-.03.07l-.03.06-.04.07-.04.06-.08.08-.08.07-.23.17-.25.19-.21.16-.08.07-.08.06-.07.04-.07.04-.07.02-.06.02-.14.04h-.09s-.1,0-.1,0l-.11.02h-.07s-.07.03-.07.03l-.06.02-.06.03-.05.02-.03.02-.1.06-.34.21-.27.16-.29.17-.18.11-.16.1-.05.03-.05.03-.1.04-.23.1-.3.13-.34.15-.07.03-.28.13-.3.13-.2.09-.17.07-.1.04-.09.03-.08.02-.08.02-.24.05-.27.05-.34.06-.07.02-.08.02-.07.03-.05.03-.05.04-.12.1-.09.08-.09.08-.15.12-.13.11-.1.07-.06.05-.06.03-.1.05-.35.19-.14.08-.3.15-.14.07-.06.04-.08.04-.02.02-.09.07-.09.07-.16.15-.08.06-.05.05-.03.03-.05.02-.06.03h-.05s-.05.03-.05.03l-.25.05-.44.09-.38.08-.35.07-.31.07h-.09s-.28.02-.28.02l-.43.03-.35.02-.39.02h-.1s-.07.02-.07.02h-.03s-.16.05-.16.05l-.26.07-.19.06-.23.06-.2.06-.2.05-.22.07-.09.02h-.04s-.06.02-.06.02h-.05s-.11.02-.11.02l-.11.02h-.15s-.17.04-.17.04h-.06s-.04.02-.04.02h-.04s-.04.03-.04.03l-.03.02-.04.04-.02.03-.02.04-.02.04v.03s-.02.02-.02.02v.02l-.02.04-.02.05v.04s-.02,0-.02,0v.02s-.04.03-.04.03l-.04.06-.02.03-.02.02-.05.06-.03.02h0s-.04.04-.04.04l-.04.03-.04.02-.05.03-.08.07h-.02s-.11.1-.11.1l-.14.11-.12.1-.11.09-.11.08-.08.07-.05.02-.05.03-.06.02-.06.02h-.07s-.24.03-.24.03l-.28.03-.29.04-.23.02h-.12s-.16.03-.16.03h-.06s-.06.03-.06.03l-.09.03-.31.11-.25.1-.3.11-.29.11-.19.07-.08.03-.21.07-.24.09-.21.08-.08.03-.08.03-.26.09-.29.11-.28.1-.15.06-.1.02-.21.06-.31.08-.27.06-.08.03-.08.02-.27.07-.34.08-.32.09-.38.09-.4.11-.36.11-.3.1-.33.11v.03s-.04.03-.04.03l-.07.06-.04.02h-.07l-.07.06h-.02s-.05.03-.05.03l-.07.06-.06.05-.08.07-.08.07-.06.05-.06.06-.05.03-.04.02-.04.02-.05.02-.07.02-.05.02-.1.03h-.05s-.05.03-.05.03l-.04.02-.03.02h-.03s-.16.1-.16.1l-.05.03-.06.02h-.05s-.07.02-.07.02h-.08s-.22.02-.22.02l-1.94.1h-.15s-.25.02-.25.02l-.25.02h-.02l-.57.03h-.13s-.13,0-.13,0l-.27.02-.36.02-.34.02h-.29s-.09.02-.09.02h-.09s-.05.01-.05.01l-.05.02-.06.02-.23.09-.49.21-.22.09-.32.14-.07.02-.43.14-.21.07-.13.04-.38.12-.35.11-.09.03-.11.04-.07.03h-.03l-.09.03h-.05s-.05.03-.05.03l-.07.02h-.03s-.06,0-.06,0h-.1s-.14,0-.14,0h-.16s-.08.01-.08.01l-.13.02h-.24s-.05,0-.05,0h-.15s-.22,0-.22,0h-.26s-.24.02-.24.02h-.27s-.05,0-.05,0h-.05s-.07.02-.07.02l-.14.03-.23.04-.24.05-.48.08-.32.06-.31.06-.14.02-.12.03-.2.03-.18.04h-.07s-.15.05-.15.05l-.18.05-.4.1-.39.1-.39.09-.18.05-.11.02-.26.07-.25.07-.1.02-.06.02h-.05s-.07.02-.07.02h-.07s-.35.03-.35.03l-.35.02-.25.02-.43.02-.53.03-.59.04-.59.04-.48.03h-.15s-.52.04-.52.04l-.54.04v.02h-.06s-.01.01-.01.01h-.02s-.03.03-.03.03h-.02s-.03,0-.03,0h-.03s-.16-.03-.16-.03v-.02h-.09s-.31.03-.31.03l-.31.02h-.23s-.14.02-.14.02h-.09s-.15.03-.15.03l-.08.02-.28.05-.41.07-.21.03-.2.04-.43.08-.3.05-.31.05-.25.05-.11.02-.12.02-.12.02-.15.02-.16.03-.36.06-.34.06-.35.06-.44.08-.38.05-.5.05-.22.03h-.13s-.21.04-.21.04l-.23.03-.23.02-.4.05-.21.02h-.04s-.04,0-.04,0h-.05s-.04-.02-.04-.02h-.04l-.16-.04-.4-.1-.43-.09-.29-.07-.25-.06-.31-.07-.2-.05-.23-.05-.18-.04-.22-.05-.19-.05-.11-.02-.27-.05-.32-.05-.25-.04-.12-.02-.06-.02-.2-.05-.43-.13-.39-.12-.6-.17-.52-.15-.49-.15-.25-.07-.08-.02-.09-.02-.08-.02h-.07s-.18-.04-.18-.04l-.34-.04-.47-.05-.91-.11-.14-.02h-.22s-.31.04-.31.04l-.32.03-.19.02h-.15s-.21.03-.21.03l-.27.02-.29.03-.51.04-.29.03-.22.02h-.05s-.25.01-.25.01v.03h-.44v-.02h-.36s-.26.02-.26.02h-.32s-.16.03-.16.03l-.2.02-.24.03-.25.03-.24.03h-.14s-.26.04-.26.04h-.08s-.31,0-.31,0h-.2s-.17-.02-.17-.02l-.43-.02h-.38s-.46-.03-.46-.03l-.31-.02h-.31s-.51-.03-.51-.03l-.88-.04-.84-.03-1.68-.08-.69-.02h-.03s-.03,0-.03,0h-.05s-.02-.01-.02-.01l-.12-.02h-.08s-.08-.03-.08-.03h-.01s-.08-.03-.08-.03l-.08-.03-.1-.04-.11-.05h-.02l-.23-.13-.1-.06v-.02l-1.53-.89-.1-.06-.1-.08-1.05-.83-.99-.78-.11-.08-.06-.04-.25-.25-.04-.05-.07-.05-.04-.03-.04-.02-.08-.05-.13-.08-.61-.39-.06-.03-.05-.03-.13-.06-.04-.03-.04-.02-.04-.03-.03-.03-.03-.02-.09-.1-.02-.03-.03-.02-.03-.02-.02-.02-.03-.02-.03-.02-.03-.02-.04-.02-.3-.14-.04-.03-.05-.04-.05-.04-.02-.04-.03-.04-.03-.06-.08-.22v-.04s-.01-.02-.01-.02v-.03s-.01-.12-.01-.12v-.04s.02-.06.02-.06v-.04s.01-.1.01-.1v-.03s-.03-.04-.03-.04l-.02-.03-.03-.03-.02-.02h-.02s-.03-.03-.03-.03l-.05-.02h-.03s-.04-.02-.04-.02h-.15s-.03.02-.03.02h-.04s-.05.03-.05.03l-.05.02-.05.03h-.03s-.03.02-.03.02l-.06.02h-.18s-.08-.02-.08-.02l-.05-.03-.06-.02-.09-.09-.03-.04-.02-.04-.26-.51-.02-.04-.04-.05-.08-.08-.04-.03-.04-.03-.06-.03-.1-.04-1.68-.59-1.68-.59-3.87-1.37-.25-.09-.23-.07-.14-.05-.08-.02-.1-.02h-.13s-.06,0-.06,0h-.12s-.26.04-.26.04l-.35.03-.31.04h-.31s-.16.02-.16.02h-.06s-.02.01-.02.01h0s-.12,0-.12,0h0s-.02.02-.02.02h-.04s-.17,0-.17,0v-.02h-.21s-.04,0-.04,0h-.04l-1.07-.18-1.09-.19-1.06-.25-.41-.1-.08-.02-.07-.03-.07-.05-.1-.06-.13-.08-.04-.02-.12-.04-.33-.11-.16-.05h-.21s-.05.03-.05.03l-.05.02-.25.16v.02s-.03.01-.03.01l-.02.02-.05.06-.03.04-.03.02-.23.1-.06.03-.05.03-.03.02-.09.1-.03.02h0s-.03.03-.03.03l-.05.02-.06.03-.12.02h-.47s-.22-.01-.22-.01h-.05s-.05-.02-.05-.02l-.06-.02-.06-.02h-.12s-.06,0-.06,0l-.11.02h-.07s-.17.01-.17.01h-.04s-.03-.01-.03-.01h-.03s-.28-.12-.28-.12h-.05s-.1,0-.1,0l-.24.06-.05.02-.04.02-.04.02-.04.04-.02.04-.02.05v.08s.03.05.03.05v.04s.01.04.01.04v.04s-.03.03-.03.03l-.02.03-.03.04-.02.02h-.03s-.03.02-.03.02l-.04.02h-.1s-.08.02-.08.02h-.04s-.08.04-.08.04l-.11.04-.13.04-.26.08h-.04s-.08.01-.08.01h-.05s-.04-.02-.04-.02l-.05-.03-.06-.02h-.04s-.1,0-.1,0h-.05s-.05.04-.05.04h-.02s-.04.05-.04.05l-.05.04-.04.03-.05.02h-.05s-.06.01-.06.01h-.06s-.04,0-.04,0l-.05.02-.04.03-.04.03-.03.03-.02.04-.02.03-.03.03-.03.02-.02.02h-.05s-.04.03-.04.03l-.03.02-.04.03-.02.02-.02.03-.02.05-.03.03-.03.03-.04.02h-.04s-.05.02-.05.02h-.05s-.05,0-.05,0l-.08-.02h-.11s-.04.02-.04.02h-.03s-.05.04-.05.04l-.04.04v.02s-.03.02-.03.02l-.03.02h-.01s-.04.04-.04.04l-.05.02h-.04s-.14,0-.14,0h-.03s-.04-.03-.04-.03l-.04-.02h-.03s-.03-.03-.03-.03h-.06s-.07-.01-.07-.01h-.04s-.1.04-.1.04l-.1.02h-.12s-.03,0-.03,0h-.03s-.04.03-.04.03l-.08.05-.16.11-.07.05-.05.05-.02.03-.08.17v.02s-.03.03-.03.03h-.01s-.05.05-.05.05l-.04.02h-.03s-.03.02-.03.02h-.07s-.03,0-.03,0h-.04s-.03-.02-.03-.02h-.03s-.02-.02-.02-.02l-.07-.05-.05-.02h-.04s-.03-.02-.03-.02h-.12s-.03,0-.03,0l-.05.02h-.03s-.04.02-.04.02h-.03s-.22.01-.22.01h-.04s-.04.03-.04.03h-.03s-.03.04-.03.04l-.07.05-.04.02-.04.02h-.03s-.08.02-.08.02h-.06s-.04.02-.04.02h-.03s-.03.04-.03.04l-.03.03-.05.07-.02.03-.02.02-.03.03-.03.02-.04.02-.02.02-.03.02-.02.03v.02s-.02.03-.02.03v.04s-.02.2-.02.2v.07l.02.05.02.05.12.23v.02s.02.03.02.03v.07s-.02.03-.02.03l-.02.04-.04.06-.03.04-.07.07-.16.11-.04.03-.14.1-.1.06-.04.02h-.03s-.03.02-.03.02h-.04s-.04,0-.04,0h-.05s-.04-.02-.04-.02h-.03s-.03-.02-.03-.02l-.03-.03-.05-.03-.02-.03-.04-.02h-.01l-.07-.03-.17-.04v.03s-.11-.02-.11-.02l-.08-.02v.07s-.09-.02-.09-.02v-.04s-.15-.04-.15-.04v-.02s0-.03,0-.03h-.03s-.12-.01-.12-.01h-.02s-.04.02-.04.02l-1.28.5h-.05s-.05.03-.05.03h-.05s-.06.02-.06.02l-.8.06h-.12s-.09.03-.09.03l-.06.02-.05.03-.6.29-.07.03-.03.03-.07.06-.84.78-.05.04-.06.03h-.02s-.06.03-.06.03l-.06.02-.16.02-.84.11h-.07s-.06.03-.06.03h-.03s-.06.03-.06.03l-.06.02-2.27.86-.11.03-.08.02h-.07s-.92.18-.92.18l-.13.03-.09.02-.05.02-.05.03-.05.04-.03.03-.2.21-.19.2-.03.04-.05.03-.06.04h-.04s-.05.03-.05.03l-.06.02h-.05s-.17,0-.17,0l-1.53-.08-.38-.02-.44-.03h-.1l-.06-.02h-.03l-.9-.24h-.05s-.06-.03-.06-.03h-.19l-.06.02-.08.03-.05.03-.04.02-.04.03-.14.11-.03.03-.07.05-.06.07-.1.1-.1.1-.04.03-.06.03-.05.02h-.05s-.36.01-.36.01h-.06s-.04-.03-.04-.03l-.04-.02-.06-.05-.05-.04-.06-.05-.04-.03-.05-.02-.05-.02-.05-.02h-.12s-.06-.01-.06-.01h-.06s-.06.03-.06.03l-.06.03-.09.05v.04s-.27.18-.27.18l-.09.03-.14.09-.26.19-.21.14-.3.2-.27.19-.08.05-.22.1-.11.05-.08.03-.32.12-.37.13-.11.04-.83.3-.08.04-.14.05-.25.11-.27.12-.19.08-.23.08-.2.08-.27.09-.25.09-.29.11-.31.11-.09.03-.07.03-.1.04-.13.05-.12.06-.21.1-.22.09-.11.06-.2.09-.16.08-.12.05-.1.06-.07.04-.1.08-.09.07-.07.05-.04.06-.03.06v.04s-.02.05-.02.05v.57s-.01.09-.01.09l-.02.05-.02.05-.04.06-.31.38-.1.13v.02l-.19.24-.03-.02-.08-.05-.04-.02-.61.04-.72.06-.92-.56h-.46s-.04,0-.04,0l-.2.02h-.17s-.07-.02-.07-.02l-.3-.14-.17-.07-.23-.06-.44-.1-.34-.09-.22-.02-.26-.06-.53-.11-.74-.14-.65-.14-.57-.12-.69-.1-.86-.13h-.28s-.01.28-.01.28l-.12-.02-.02.05-.26-.14-.78-.15-.15-.02h-.07s-.04-.03-.04-.03h-.11s-.13,0-.13,0h-.16s-.11-.06-.11-.06l-.31-.03h-.04s-.02.02-.02.02h-.03s-.03.03-.03.03h-.09s-.06-.02-.06-.02h-.03v-.02h.01v-.02h-.01s-.04,0-.04,0l-.02.02-.03.02h0s-.02-.02-.02-.02h-.05s-.02-.04-.02-.04h-.03s-.02.01-.02.01v-.02s-.03,0-.03,0h-.02s-.03-.03-.03-.03h-.04s-.02-.04-.02-.04h-.06s-.42.11-.42.11l-.25.13-.51.12-.42.24-.22.04-.58.19-.26.07-.22-.23h-.16s-.11-.16-.11-.16l-.13-.13-.17-.15-.05-.06-.02-.03-.04-.06-.02-.03v-.02s-.02-.03-.02-.03v-.03s-.02-.02-.02-.02l-.05-.06-.03.03-.18.14-.13.09-.51.32-.18-.05-.02-.03-.04-.03-.03-.05-.16-.08-.08-.08-.4.02-.17.58-.19.55-.64.69-.79-.3-.62-.23v-.06s.02-.41.02-.41l-.21-.07h-.07s-.32-.17-.32-.17l-.27-.11-.18-.13-.23-.02-.52-.05v-.67s-.05-.17-.05-.17v-.02s.01,0,.01,0h-.01s-.03,0-.03,0h-.03s-.03-.02-.03-.02h-.03s-.04-.03-.04-.03h-.02s-.01-.06-.01-.06v-.05s-.02-.02-.02-.02v-.02s.01-.03.01-.03l.03-.04.02-.04.04-.04-.03-.04v-.03l-.02-.02v-.03s-.03-.02-.03-.02v-.03s0-.02,0-.02v-.04s.04-.02.04-.02l.04-.03.05-.04.05-.02.03-.02h.06s.02-.02.02-.02h.02s.05.01.05.01h.05s.04-.01.04-.01h.06s.07.01.07.01h.06s.04,0,.04,0h.09s.05-.03.05-.03l.1-.03.04-.02.02-.02v-.02s.01-.03.01-.03v-.02s.04-.01.04-.01h.04s.06-.03.06-.03h.06v-.05s.01-.02.01-.02v-.03s0-.05,0-.05l.02-.04v-.03s.01-.03.01-.03v-.03s-.02-.03-.02-.03v-.06s.04,0,.04,0h.07s.02-.03.02-.03v-.02s.01-.11.01-.11h.01s.05-.02.05-.02h.04s.03-.02.03-.02h0s.01-.03.01-.03v-.03h-.02v-.07l.02-.02.02-.02v-.03s.02-.02.02-.02v-.03s.01-.02.01-.02v-.03s-.03-.02-.03-.02l-.02-.02v-.02s-.01-.02-.01-.02v-.02s0-.01,0-.01v-.02h0s-.01-.03-.01-.03v-.03s.02-.02.02-.02v-.05h-.02s0,0,0,0h-.01v-.03h0v-.02h-.01v-.03h.01v-.02h-.01v-.02h-.01s-.01-.03-.01-.03h-.01s-.01-.02-.01-.02h0s-.01-.02-.01-.02l-.02-.02v-.02s-.01-.01-.01-.01h-.01v-.07h-.01s-.01-.03-.01-.03h-.02s-.02-.02-.02-.02h-.01s-.01-.02-.01-.02h-.04s-.02-.01-.02-.01h-.02s-.02-.01-.02-.01h-.01s-.01,0-.01,0h-.03s-.01,0-.01,0h0s-.03,0-.03,0h0s-.01-.02-.01-.02v-.02h-.02s-.02-.02-.02-.02h-.02s-.04-.01-.04-.01h-.01s-.02,0-.02,0h0s-.02-.01-.02-.01h-.02s-.1.01-.1.01h0s-.01-.02-.01-.02h-.13s-.02,0-.02,0h-.02s-.01,0-.01,0h-.04s-.01.01-.01.01h-.03s-.03,0-.03,0l-.02-.02h-.03s-.02,0-.02,0h-.02s-.01,0-.01,0h0s-.01-.02-.01-.02h-.02s-.05,0-.05,0h-.02s-.03,0-.03,0l-.05.02v-.02h-.02l-.02.02h-.03s-.01,0-.01,0h-.01v-.04h-.05l-.02.04h-.01s-.03,0-.03,0h0s-.02-.01-.02-.01l-.02.02h-.02v-.03h-.11s-.03,0-.03,0h-.04s-.05-.01-.05-.01l-.08-.02h-.04s-.04-.02-.04-.02l-.06-.02-.06-.02h-.07l-.04-.04h-.02s-.02-.01-.02-.01h-.01s-.01.03-.01.03h-.06s-.03-.02-.03-.02h-.05s-.02-.01-.02-.01h-.02s-.04,0-.04,0h-.01s-.01-.01-.01-.01h-.02s-.02-.02-.02-.02l-.04-.02-.09-.03v-.05s.02-.03.02-.03l.04-.04.08-.06.06-.04.03-.02h.05s.01-.02.01-.02h.02v-.03l.02-.05v-.05s.01-.02.01-.02v-.02s-.03-.02-.03-.02l-.04-.02-.02-.02-.03-.02h-.02s-.03-.02-.03-.02v-.21s-.02-.02-.02-.02h-.03s-.03-.03-.03-.03l-.04-.04h-.02v-.03h.01s.01-.01.01-.01h.01s.04-.01.04-.01h.01s.02-.02.02-.02h.06s.01-.02.01-.02v-.06s.02-.01.02-.01h0s.01-.02.01-.02v-.03s.01-.08.01-.08v-.02s0,0,0,0l-.13.04-.09.02-.04.02h-.09s-.03.02-.03.02h-.03s-.05.03-.05.03l-.04.02h-.02s-.03,0-.03,0h-.02s-.01.01-.01.01h-.02s-.16,0-.16,0h-.01s-.02.01-.02.01l-.03-.03h-.07s-.23-.06-.23-.06l-.19-.04-.29-.14-.42-.15-.31-.21-.21-.12v.03h-.04s-.05.04-.05.04l-.09.07h-.03s-.02,0-.02,0h-.02s-.04-.04-.04-.04l-.04-.02h-.04l-.03.02-.03.02h-.01s-.04.03-.04.03h-.06s-.04,0-.04,0h-.04s-.01-.05-.01-.05v-.05s.02-.05.02-.05l.03-.04.03-.04v-.02s0-.03,0-.03l-.06-.03h-.08s-.03,0-.03,0h-.02s-.02.04-.02.04l-.02.04h-.03s-.02,0-.02,0h-.03s.03-.09.03-.09v-.04s0-.04,0-.04h-.03s-.02-.03-.02-.03l-.04-.02h-.05s-.04,0-.04,0l-.03-.03h-.01s.01-.02.01-.02v-.02s-.02-.03-.02-.03l-.02-.05-.13.06-.05-.05h-.14s-.36.14-.36.14l-.23.16-.25.06h-.76s-.52-.1-.52-.1l-.29-.07-.13-.03-.29-.11-.32-.05-.11-.06-.38-.07-.23-.05-.34-.06-.24-.03h-.1l-.44-.07-.19-.02-.91-.16-.2-.06-.23-.08-.19-.08-.27-.16-.09-.06-.22-.11-.08-.04-.08-.03-.09-.05-.22-.17-.16-.14-.14-.1-.07-.03-.11-.02-.04-.02h-.05s-.05-.03-.05-.03h-.02l-.08.02-.13.03-.09.05h-.09l-.04-.03-.22-.06h-.08s-.11,0-.11,0h-.02s-.03-.02-.03-.02h-.02s-.02-.02-.02-.02v-.02s-.03-.01-.03-.01h-.03s-.01-.02-.01-.02h0v-.02h0s.01-.02.01-.02v-.02s.01,0,.01,0l-.03-.02h-.04s-.01-.02-.01-.02h0v-.02s-.06-.01-.06-.01h-.04s-.03-.02-.03-.02h-.02s-.03-.01-.03-.01h-.05s-.01-.01-.01-.01h0s-.08.01-.08.01l-.03-.02-.03-.03h0s-.01-.02-.01-.02h-.05s-.02.03-.02.03h-.14s-.02.01-.02.01v.02s-.02.03-.02.03h-.01s-.03,0-.03,0v-.02h0s-.03-.01-.03-.01h-.02s0-.01,0-.01h-.02s-.01.03-.01.03h0s-.02,0-.02,0v-.02h-.03s-.04-.01-.04-.01h-.01s-.02-.01-.02-.01h-.01s-.04.01-.04.01h0v.04h-.02s-.01-.02-.01-.02h0s-.01-.03-.01-.03h-.05s-.01,0-.01,0l-.03.03h-.08s-.03-.01-.03-.01h-.02s-.03-.02-.03-.02l-.04-.02h-.01v-.02h-.04s-.04.01-.04.01h-.02s-.04,0-.04,0h-.04s-.03,0-.03,0h-.03l-.05.02v.02h-.02s-.05,0-.05,0h-.01s0,.03,0,.03h-.03s-.04,0-.04,0h-.04s-.03-.01-.03-.01l-.05.02h-.03l-.02.02h0s-.04-.03-.04-.03l-.04-.02h-.04s-.02,0-.02,0l-.02.02v.02h-.05s-.07,0-.07,0h-.02s0-.01,0-.01h-.01v-.04h-.01s-.01-.03-.01-.03h-.03l.04.08-.04-.05-.18-.03h-.12s-.01-.01-.01-.01l-.07-.02h-.03s-.02.03-.02.03l-.08.02v.02s-.02,0-.02,0h-.03s-.03,0-.03,0h.02s.03.03.03.03h.01s.02.03.02.03h.03s.03.02.03.02h.03s0,.03,0,.03v.03s0,.03,0,.03h0s0,.02,0,.02v.04s-.01.01-.01.01h.01s0,.02,0,.02h.06l.02-.02h.03s.01.03.01.03v.04s-.01.03-.01.03h-.01s-.02.03-.02.03h-.02s-.01.02-.01.02h-.02s-.03.03-.03.03l-.04.03-.03.04v.02s-.02.01-.02.01v.02s.02,0,.02,0v.03s.01.05.01.05h-.02s-.03.01-.03.01v.02h.01s.02.02.02.02h.01s.01.03.01.03h.01l.02-.02v-.02h.03s.01,0,.01,0h0v.02s.01.01.01.01h0s.01.02.01.02v.02h.01s.01,0,.01,0h.01s.01,0,.01,0v.02h.01s.01.03.01.03v.02h-.01s-.02.03-.02.03v.04s.02.01.02.01v.02s-.01,0-.01,0l-.02.02-.04.02h-.04s-.01.01-.01.01h0s0,.03,0,.03h0s0,.02,0,.02h.02s.03,0,.03,0h0v.02h.01v.06h-.02s-.01.01-.01.01v.05s.02.01.02.01h.01s.02,0,.02,0h.01s.02.02.02.02h0s.01.02.01.02h0s.02.03.02.03v.04h-.02s-.02,0-.02,0l-.03-.02h-.01v-.03h-.01s-.05-.01-.05-.01h-.02s-.03.02-.03.02h-.03s-.02,0-.02,0h0s-.01.02-.01.02h.01v.04h.01v.02h-.01s-.08,0-.08,0h-.02s-.02.02-.02.02h0s-.01.04-.01.04v.04s.01.01.01.01h0s0,.02,0,.02h-.02s-.01,0-.01,0h-.02l-.03.02v.02h.01v.05l-.02.03h-.02s-.02.02-.02.02h-.04s-.07.01-.07.01l-.03-.02h-.04s-.01.03-.01.03l-.02.02h-.01s-.01.02-.01.02v.02h-.01s-.01.02-.01.02v.02s-.01.03-.01.03h-.01s-.01.03-.01.03h-.01s-.02,0-.02,0h-.03s-.05.01-.05.01h-.03s-.04.02-.04.02h-.01l-.02.02v.03h.01s-.01.02-.01.02h-.01l-.02.02h-.03s-.02,0-.02,0h-.05s-.01,0-.01,0h0s0,.02,0,.02h-.04s-.02,0-.02,0l-.04-.02h-.03v.02h-.01s-.01.02-.01.02h-.02v.03l-.05.05v.02s0,.02,0,.02v.03h-.02s0,.01,0,.01l-.03.03v.02s-.01.04-.01.04v.02s.01.02.01.02h.02s.02,0,.02,0h0s.01.03.01.03v.03s-.02.03-.02.03v.02s-.03,0-.03,0l-.04.02h-.03s-.01.02-.01.02v.04h.01s-.02.03-.02.03l-.02.03h-.05s-.01.02-.01.02v.04h.01v.07h.01v.05s.01.02.01.02v.02s.02,0,.02,0h0s-.01.02-.01.02h-.04s-.04-.02-.04-.02l-.02-.02v-.02s-.02,0-.02,0h-.01s-.02-.01-.02-.01h-.03s-.02.01-.02.01l-.03-.02h-.05v.02h.01s.01.03.01.03l.02.03v.06l-.02.02h-.05s0,0,0,0l-.02.02h-.04s-.02.02-.02.02h-.17l-.03.02v.02s0,.02,0,.02v.02s0,.04,0,.04h.01s0,.04,0,.04l.03.04v.02h-.01s-.02.02-.02.02h-.03s-.11.01-.11.01h-.01v.04h.01s.01.03.01.03h0s-.01.01-.01.01h-.02s-.02.02-.02.02l-.03.03-.03.05-.03.04v.02s0,.02,0,.02h-.01s-.02.02-.02.02l-.03.02h-.01v.06s-.02.03-.02.03v.03s-.02,0-.02,0l-.02.02v.02s-.03.02-.03.02h-.02s0,.02,0,.02v.02s-.04.03-.04.03l-.02.02-.02.03-.02.03-.03.02-.03.04-.03.03-.03.02h-.02s-.03.03-.03.03h0s-.02.03-.02.03v.07h0s.01.02.01.02h.02s.03.02.03.02h.02s.02.03.02.03h.02s.02.03.02.03v.02h.01s-.01.03-.01.03h-.02l-.03.03v.02s0,0,0,0h.02s.02.02.02.02l.03.02h.02s.01.04.01.04h.01v.03h-.02s-.02.02-.02.02v.02s-.04.03-.04.03h0s.02.03.02.03h.02s.01.02.01.02h.01s.02.02.02.02l.04.05.02.03v.03s.02.03.02.03v.03s.02.01.02.01v.02s.01.02.01.02l-.03.03v.04s-.01.04-.01.04h.04s.04.04.04.04h.02s.03.02.03.02v.03s.04.05.04.05l.02.03.02.03.04.02.03.04.02.03.02.04v.04s.03,0,.03,0h.08s.02.03.02.03h.02s0,0,0,0h.02s.01-.02.01-.02h.02s.03,0,.03,0h.02v.07s0,.02,0,.02h.01v.1s-.02.02-.02.02v.02s.02.05.02.05v.02s.04.03.04.03v.08s-.02.03-.02.03v.04s-.02.05-.02.05l-.02.03-.02.04v.02s-.01.02-.01.02v.02s-.03.04-.03.04v.03s-.04.02-.04.02h-.01s-.02,0-.02,0h-.01s-.01.03-.01.03h-.02s-.02.01-.02.01h-.02s-.01.02-.01.02v.04s-.02.02-.02.02h-.02s-.03.03-.03.03v.02s-.04.02-.04.02v.02s-.02.02-.02.02v.03s-.04.02-.04.02l-.03.03v.03s-.01.02-.01.02h-.02s-.02.03-.02.03l-.02.02-.04.04v.05h.01s-.01.02-.01.02h-.02s-.02,0-.02,0h-.03s-.02.02-.02.02h-.08s-.02,0-.02,0l-.04.02h-.02s-.02.03-.02.03l-.02.02-.02.03v.02s-.03.03-.03.03v.03h.03v.09h0s-.02.03-.02.03l-.02.03-.02.02v.02h.01s.01.03.01.03h.01v.03h-.01s-.01.03-.01.03v.02s-.03.02-.03.02l-.03.02h-.02s-.02.04-.02.04h-.02s-.02,0-.02,0h-.01v.05s0,.02,0,.02v.02s0,.06,0,.06v.02s-.02,0-.02,0v.05h-.1s-.03-.03-.03-.03h-.04s-.02.02-.02.02h-.07l-.02.02-.07.15v.03s-.02,0-.02,0h-.04s-.03.02-.03.02h-.06s-.03.02-.03.02l-.02.02h-.02s-.03.03-.03.03h-.03s-.03.01-.03.01h-.03s-.04-.01-.04-.01l-.04.04-.02.02-.03.02-.04.02h-.08v.02s-.01.06-.01.06v.04s-.02.02-.02.02v.02s-.02,0-.02,0v.03s-.01.06-.01.06h.01s-.01.03-.01.03v.04s0,.02,0,.02h-.05l-.03-.02h-.03s-.04-.01-.04-.01h-.03s-.04.04-.04.04l-.05.05-.03.02-.05.02h-.01s-.03.03-.03.03h-.02s-.02.01-.02.01h-.01s-.02,0-.02,0h-.02s-.04,0-.04,0h0s-.04-.03-.04-.03l-.03-.02h-.04s-.03,0-.03,0h-.01s-.03.04-.03.04v.08s.03.13.03.13v.19l.06.33v.12s.06.25.06.25l-.02.25.06.34-.07.11-.03.1.06.18.06.43.12.2.24.23.06.14.05.16.2.37-.14.13-.03.12-.04.18-.03.04-.19.37-.07.37-.04.1-.03.16-.12.15-.22,1.04-.03.14-.07.04-.12.11-.07.19-.11.1-.13.1-.1.09-.11.09-.09.06-.07.05-.18.14-.08.07-.09.1-.18.17.12.05v.03h-.05v.17l.13-.04-.03.21.06.07v.13s-.29.16-.29.16l.1.24.09.02h.11s.14.09.14.09l.18.2-.05.12-.04.16v.09s.16.11.16.11l.26.05-.08.11-.12.11.06.11-.05.16.05.02-.16.07.07.06v.07s-.11.09-.11.09v.13s.03.1.03.1l.23.2h.1s.09-.04.09-.04l.04.02.06.09v.1l-.04.15-.08.26.12.39.26-.02.19.16.22.45h.03s.28.75.28.75l.49-.05.09.03.15.03.24-.04-.06.17v.07s.01.06.01.06v.08s-.02.11-.02.11l.04.07.04.07v.08s-.04.07-.04.07l-.1.07-.05.09h-.27v.06s.03.02.03.02l.02.03.08.12.17.06.02.02.08.04.15.12.18.08.16.11.13.08.05.02h0s-.28.22-.28.22l-.05.03-.24.09-.12.04h-.09s-.1,0-.1,0h-.07s.04.35.04.35l.06.12.08.4.11.23.05-.03v-.04s-.03-.02-.03-.02v-.02s0-.02,0-.02l.02-.02v-.02s-.04-.05-.04-.05h0s.01-.05.01-.05l.03-.02h.04s.02.03.02.03h.02s.02.02.02.02h.03s.03,0,.03,0v-.02s.01-.04.01-.04v-.03s-.02-.02-.02-.02v-.05h.03s.03-.02.03-.02h.04s.04-.03.04-.03h.03s.02-.02.02-.02l.02-.02h0s.01,0,.01,0v.02s.03.02.03.02l.04.03.03.03.05.03h.04s.03.02.03.02h.03s.05-.03.05-.03l.05-.02.03-.02.06-.02.04-.03v-.03s.03-.03.03-.03h.01l.02.02.06.03.03.02h.04s.01-.02.01-.02v-.09l-.02-.05v-.06s-.02-.01-.02-.01h-.01s-.02-.05-.02-.05v-.04h.01s.02-.02.02-.02h.04s.02-.02.02-.02h.02s.03-.02.03-.02h.04s.04,0,.04,0h.04s.04.03.04.03h.02l.02.02.03.02h.04s.02.03.02.03h.01s.02.02.02.02h.02s.04.01.04.01l.26.32.47-.1h.15s.13,0,.13,0l.06.18.07.03.21.19.07.18-.17.09v.17s-.1.02-.1.02l-.13.13v.16s.01.09.01.09h-.15l.07.08.04.07v.08h-.07l.04.46h.35s.34,0,.34,0h.13s.3,0,.3,0h.14l.11.07-.02.08.11.02.05-.03h.07s.09,0,.09,0h.04l.07-.05h.08s.05.05.05.05v.06l.02.16v.1h-.09s-.11.02-.11.02l-.02.08-.09.11-.13.12-.18-.03-.14.31-.05.23.19.17.2.12.06.14.19.23.08.22.05.4-.21.23-.32.05-.15.02v.25l.08.05-.03.03h-.33s-.13-.13-.13-.13l-.24-.03-.18.02.04.09.04.07.07.13-.1.02h-.23s-.21,0-.21,0l-.21-.1-.1-.03-.26-.09-.18-.1-.46-.17-.15-.02-.27.05-.05.05h.08s-.01.14-.01.14l.02.05.1.03.17.02-.02.05h-.09s-.03.1-.03.1l-.05.08-.02.13.03.07h.13s-.17.46-.17.46l-1.1-.29-.03-.08-.29-.13-.32-.12h-.05l-.16.03-.18-.07-.06-.1-.2-.1-.21-.11-.47-.16-.08.1-.04.06.1.17-.06.02-.33.3-.12-.06-.16-.18-.2-.18-.49-.62-.36.11v.03s-.04.01-.04.01l-.07-.05h-.26l-.34.03-.22.02-.02.03-.18-.02-.03-.02h-.03v.23s-.04.07-.04.07h-.01v.23l-.06.04v.02s.05.03.05.03v.06s-.01,0-.01,0l.11.11-.18.13-.34-.16-.07-.19v-.02h-.11s-.04,0-.04,0l-.18-.08-.06-.02h-.01s.14.3.14.3l.02.08h0s-.08.07-.08.07l-.02.02.02.09v.06s.02.02.02.02h.02s.03.03.03.03h.01s0,.02,0,.02v.02h-.02s-.06.04-.06.04l-.13.05-.29.12-.02.1-.11.1-.09.11.08.21v.11s-.18.02-.18.02v.07s0,.03,0,.03l-.08.07-.15.03.02-.06-.15-.03-.09-.02-.24-.18v-.08l.06-.17-.44.04-.39.03-.42-.03h-.08s-.07-.04-.07-.04l-.47-.26-.14-.06-.27-.14-.34-.2-.23-.11-.2-.08-.27.29v.02s.01.02.01.02l-.02.02h-.03s-.16,0-.16,0l-.11.03-.06.04-.03.04.03.07.04.04.04.03h.03s.05-.09.05-.09l.09-.05h.08l.06.02.06.07v.07s-.02.07-.02.07l-.05.04-.07.02-.02.05.02.07v.03s.03,0,.03,0l.06-.04.03-.06v-.08l.04-.02.05.02.06.06.04.07.02.07.1.14v.08s-.05,0-.05,0l-.05-.06-.03-.06-.04-.02h-.06s-.04.09-.04.09v.04s.04.05.04.05v.04s-.01.04-.01.04l-.04.02-.02.07v.03s.14.07.14.07h.06s0,0,0,0l-.07-.07v-.07s.02-.05.02-.05l.07-.02h.04l.02.04-.06.04v.07l.03.03.15.05.06.07v.05s-.01.07-.01.07l-.05.04h-.04v-.02l.02-.03v-.03s-.03-.02-.03-.02h-.04l-.02.03v.03l.02.05v.06l-.03.04-.05.02h-.03l-.11-.02h-.11l-.06.03-.03.02-.02.04.03.07-.04.05-.04.03h-.04l-.03-.03-.1-.02-.05-.02-.02-.04.04-.04.07-.02h.06l.05-.02.03-.05v-.02l-.02-.02h-.06s-.06,0-.06,0l-.09.03-.08.02-.02.03v.04l.06.12v.04s-.08.05-.08.05h-.02l-.04-.02-.05-.06h-.03s-.03.1-.03.1l-.07.04-.05.02-.02.03-.03.08h-.04s-.05-.05-.05-.05l-.07-.02h-.02s-.07.01-.07.01h-.02s-.01.04-.01.04v.05s.12.07.12.07l.09.08.05.08.03.02h.03s.01.03.01.03v.08s-.04.03-.04.03l-.03.02h-.02s-.02-.06-.02-.06l-.05-.03h-.06v.1l-.03.05-.04.02h-.09s-.03,0-.03,0l-.03.05.02.03h.04s.09,0,.09,0l.03.02v.07l-.05.08v.09l-.03.03v.04l.04.02h.08s.04.02.04.02l.08.08h.06s.04,0,.04,0l.08-.02.04.02.06.06h.07l.06.03.02.04v.05s-.06.03-.06.03h-.03s-.12-.01-.12-.01l-.03.02.04.09.02.08.06.09.04.02.04-.02.07-.07.05-.03h.05l.04.03.03.05.04.03.09.03h.04l.03.03-.03.05v.06h-.06s-.04-.03-.04-.03l-.02.02v.04l.1.08v.04h-.05s-.09,0-.09,0l-.04.02-.02.03.03.07-.04.05-.06.06-.02.06.04.06h-.01s-.02.04-.02.04v.02h.01s.03,0,.03,0l.06.05-.05.03-.09-.04-.08.02h-.04s-.05.07-.05.07l-.09.03h-.06s-.01.03-.01.03l.02.04.1.05.04.04-.05.02h-.13l-.06.03-.05.05-.04.06v.02s.04.01.04.01h.03l.12-.05h.07s.05,0,.05,0l.02.05v.1l.02.05.06.02v.11s-.03.03-.03.03h-.04s0-.08,0-.08l-.06-.08-.11-.02-.08.02-.11.05-.02.04.03.03.1.03.07.05.03.05.03.13-.02.02h-.03s.02.04.02.04h.03l.13-.06h.07s.05.02.05.02l.05.08v.07l-.03.05-.13-.03-.12.02-.05.04-.02.06.04.08h.08l.07.04h.03l.03-.04.02-.1.05-.02h.07s.12.09.12.09l.05.05v.1s.03.2.03.2l-.03.06-.04.03h-.05s-.05-.05-.05-.05l-.03-.08-.03-.06-.07-.05-.05-.02h-.08l-.04.02h-.01s.01.05.01.05l.03.04v.11s.05.07.05.07l.11.08.04.1.11.09.02.03.07.05.09.06.04.06.05.05.04.06-.05.09-.03.08-.03.03h-.1s.02.04.02.04l.04.04v.03l-.05.06-.1.02h-.03s-.01-.04-.01-.04l-.04-.02-.06.02-.06.05-.04.03-.04.05v.03l.06.02.02.03-.04.06v.05s0,.04,0,.04l.07.08v.03l-.05.05-.03.05v.09s.07.05.07.05l.03.07-.02.07h-.08s-.02.03-.02.03l.02.03.05.04.33.12v.04s-.02.05-.02.05v.07s-.03.03-.03.03h-.05s-.02-.04-.02-.04l-.06-.03-.09.08-.07.02h-.06v.05l.05.07v.06l.02.05h.13s.15-.01.15-.01l.1.04.08.05v.05s.01.05.01.05l-.02.03-.06.02-.13.02-.07.02-.17.02-.03.03-.02.05.06.05v.04l-.05.05-.07.02-.05.05v.03l.09.04.03.02v.06s-.1.03-.1.03l-.07.04-.12.07-.07.02-.06.05.02.02.06.04.03.03v.03s-.07.05-.07.05v.03s-.02.03-.02.03h-.08s-.03,0-.03,0v.03h.16s.11,0,.11,0l.05.02.03.05v.05l-.03.04-.07.05-.03.05v.03s.1.11.1.11l-.17.22-.24.2-.08.06-.04.02-.04.02-.1.06-.13.06-.15.1h-.04s-.16.12-.16.12l-.18.1-.3.13h-.05l-.07.02-.06.02h-.16s-.18-.05-.18-.05l-.08-.09-.05-.04-.09-.06-.04-.07-.05-.06-.15-.1-.07-.06-.03-.05-.1-.07-.23-.16-.15-.05-.09-.02-.09-.03h-.04s-.13-.07-.13-.07h-.01l-.19-.12h-.1s-.04.03-.04.03h-.01l-.06-.02h-.03l-.06.04-.17-.03-.03.03-.09.02-.07.04-.03.13v.1s0,.09,0,.09v.35s.01.04.01.04l-.03.14.03.39.23.33.06.28h.02s.15.16.15.16l.14.15.03.09-.04.08-.08.11-.1.12-.07.03-.02.03-.07.05-.2.1-.27.12h-.04s-.2,0-.2,0l-.15-.06-.06-.02-.06-.04-.11-.04-.04-.02-.1-.13-.16-.17-.12-.1-.08-.03-.09-.03-.06-.02h-.05l-.18.02-.17.03-.27.03-.2.04-.21.05-.16.07h-.05s-.39.12-.39.12l-.16.02-.17.04-.32.06h-.04s-.05.04-.05.04l-.24.12-.09.03-.14.12-.14.14-.15.14-.2.21-.13.14-.13.2-.11.09-.07.14-.1.18-.08.36-.06.24.03.1v.1s.02.06.02.06l.02.02v.02l-.03.02v.03s-.01.04-.01.04v.03l-.02.02.03.06v.04s-.06.05-.06.05v.03h.01s.01.04.01.04l.02.04h0s-.03.03-.03.03l.02.07v.08s-.06.09-.06.09l-.05.08h.04l-.02.13-.11.09v.05l.05.14.06.13.09.16v.09s.05.04.05.04v.06l.05.05v.13l-.05.05-.07-.02v.02s.03.06.03.06v.1s.02.08.02.08v.03s0,.04,0,.04l-.17.41.11.19v.13s-.04.13-.04.13l.02.11h.03s.01.06.01.06v.05l.02.07-.05.04v.02s0,.09,0,.09v.02s-.1.09-.1.09v.04s.01.06.01.06l-.02.04-.09.04-.04.04v.03s-.14.03-.14.03h-.06s-.03,0-.03,0v.02l.02.02h.06s.01.03.01.03v.04s-.01.01-.01.01h.01s.02.04.02.04h0s0,.02,0,.02l-.09.12v.03l.02.04h.01s.07.03.07.03l.02.04h0s-.13.05-.13.05h-.01s-.01.02-.01.02l-.02.08h-.01s-.01.02-.01.02h-.02s-.05.01-.05.01l-.03.02-.15.05v.04s0,.02,0,.02v.04h-.02l-.12.02h-.11s-.12-.08-.12-.08l-.14-.08-.24-.14-.1-.08-.02-.25v-.26l.06-.21-.05-.03v-.09s.03-.05.03-.05l-.06-.02v-.08s-.02-.02-.02-.02v-.03l-.05-.04-.07-.19-.53-.46-.1-.15-.27-.12-.05-.16-.04-.05-.1-.06h-.03s-.02-.01-.02-.01l-.11-.02-.2-.04-.54-.05-.22-.06-.44-.32-.31.04h-.01l-.09.02-.25.07-.18-.13-.27-.19h-.02s-.27-.1-.27-.1l-.28-.11-.26.11h-.15s-.33-.04-.33-.04l-.17-.19-.42.03-1.03.09-.02-.09-.03-.1.03-.06.31-.58v-.02s.01-.01.01-.01l.1-.24.06-.02.06-.05v-.02s.02-.02.02-.02h-.01s-.01-.02-.01-.02v-.02h.01v-.03l.02-.06h-.02s-.01-.03-.01-.03l.03-.05v-.02l.03-.06.07-.09.03-.07.09-.04.14-.31-.03-.05-.13-.2-.02-.04-.11-.19-.02-.03-.05-.09h0s-.07-.12-.07-.12l-.06-.11-.07-.14-.11.04h-.02s-.11.01-.11.01h-.02s-.11.06-.11.06l-.02-.03-.05-.03-.18.06-.03-.07h-.21s-.11,0-.11,0h-.07s-.12,0-.12,0l-.08.02h-.01l-.15.03-.1.02-.02.04-.02.04h-.01v.07l-.02.02h-.02s-.01.03-.01.03l-.02.04h-.03l-.03-.02h-.02s-.06.03-.06.03h-.04s-.08,0-.08,0l-.09.11h-.03l-.16.12-.11.06h-.03s-.02.01-.02.01l-.05-.08h-.02s-.03,0-.03,0h-.03s-.05-.06-.05-.06h-.02l-.05.02h-.27s-.74.41-.74.41l-.11.04h-.06s-.06-.03-.06-.03l-.07-.03-.2.02h0s-.03-.02-.03-.02l-.02-.02-.12-.24-.1-.07h-.01s-.02.01-.02.01v.02h-.04s-.02,0-.02,0h0s-.01,0-.01,0h-.03s-.03-.02-.03-.02l-.04-.02v.02s-.02,0-.02,0h0s-.02.01-.02.01h-.02s-.03.03-.03.03v.03h.02s-.01,0-.01,0h-.01s-.02.03-.02.03h-.02v.02h.02v.02h-.01v.05h-.01s-.02,0-.02,0h-.03s-.05.02-.05.02h0s-.04.01-.04.01h-.02s-.03-.01-.03-.01h-.01s.01.02.01.02h.01s-.04.03-.04.03v-.02h-.04s-.02,0-.02,0h-.01s0,.02,0,.02v.02h-.02s-.01-.02-.01-.02h-.04v.04h-.04s.02-.02.02-.02h-.01s-.01,0-.01,0h-.02s-.03.01-.03.01h0c.73-.99,1.35-2.04,2.32-2.82.4-.32.72-.73,1.08-1.11-.23-1.18-1.03-2.1-1.51-3.17-.28-.61-.69-1.15-.77-1.84-.15-.09-.34-.14-.44-.27-1.95-2.62-3.9-5.26-6.13-7.67-.11-.12-.22-.26-.31-.41-.24-.46-.48-.95-.3-1.47.1-.29.38-.52.59-.78.33-.85,1.04-1.35,1.75-1.84.41-.3.97-.52,1.2-.93.52-.94,1.46-1.46,2.1-2.26.56-.7,1.25-1.2,2.08-1.49,1.5-.54,2.75-1.42,3.82-2.58.47-.51.97-.98,1.6-1.29,1.86-.92,3.68-1.91,5.59-2.72.89-.37,1.35-.97,1.72-1.76.38-.82.48-1.64.13-2.49-.52-1.31-.82-2.64-.32-4.03.19-.54.07-1.03-.21-1.46-.38-.58-.85-1.1-1.24-1.67-1.53-2.23-3.76-3.49-6.21-4.45-1.02-.41-2.07-.43-2.96.23-1.38,1.02-2.9,1.85-4.04,3.22-.76.91-1.79,1.61-2.74,2.36-1.25.99-2.63,1.61-4.29,1.55-.85-.03-1.74.27-2.57.13-1.74-.28-2.99.51-4.18,1.57-.13.11-.24.25-.34.39-.09.13-.24.39-.24.43.26.19.52.4.82.5.82.28,1.72-.12,2.53.27.1.04.22.27.2.29-.59.62-1.32,1.14-1.77,1.85-.35.54-.32,1.33-.55,1.97-.11.29-.43.54-.71.72-.72.47-1.46.93-2.22,1.33-.28.16-.67.27-.98.22-1.19-.21-2.37-.48-3.55-.74-1.61-.36-3.07-.2-4.33,1-.36.35-.91.48-1.36.74-.32.19-.63.24-.99.1-.32-.13-.66-.2-.97-.35-4.36-2.1-8.71-4.2-13.06-6.3-2.03-.98-4.08-1.85-6.37-2.07-.7-.07-1.29-.44-1.77-.97-1.46-1.6-3.42-2.3-5.41-2.91-.49-.15-1.02-.23-1.53-.23-1.21,0-2.42.06-3.62.15-.51.04-1.07.14-1.49.4-1.47.89-3.34.94-4.65,2.18-.38.35-.75.76-1.21.97-1.75.78-3.36,1.75-4.7,3.14-.23.24-.57.38-.88.53-.93.46-1.87.89-2.79,1.36-.93.46-1.63,1.26-2.59,1.7-1.28.58-2.27,1.52-3.19,2.58-1.13,1.29-2.42,2.45-3.66,3.64-.24.24-.56.42-.87.55-1.16.49-1.86,1.53-2.77,2.31-.43.37-.54.87-.58,1.39-.06.85-.08,1.72-.14,2.58-.05.58-.71,1.28-1.33,1.44-1.98.5-1.99.49-3.11,1.56-.24.24-.51.46-.77.68-.39.32-.85.16-1.12-.38-.07-.15-.11-.33-.2-.48-.67-1.11-1.66-1.7-2.94-1.83-.36-.03-.68.04-.98.25-.29.2-.62.35-.84.6-.57.64-1.09,1.33-1.62,2.01-.53.7-1.17,1.23-1.97,1.62-.93.45-1.82.99-2.67,1.58-.56.38-1.05.85-1.37,1.5-.23.48-.59.37-1.11-.22-.23-.26-.43-.55-.69-.78-.39-.35-.83-.47-1.4-.39-1.37.19-2,1.24-2.79,2.13-.38.43-.91.57-1.39.37-.47-.21-.94-.44-1.42-.63-1.34-.52-2.7-.68-4.01.05-.97.54-1.94.63-2.97.27-.33-.11-.67-.18-.99-.3-.36-.14-.66-.06-.99.13-.61.33-1.29.51-1.99.52-2.07.02-4.14.28-6.21-.07-.91-.15-1.68.16-2.23.96-.19.29-.45.52-.69.78-.37.39-.81.62-1.36.57-1.2-.11-2.42-.13-3.6-.35-2.56-.46-4.77.38-6.88,1.66-.59.36-1.13.8-1.71,1.17-.6.38-1.28.56-1.97.51-1.04-.08-2.07-.23-3.1-.35-1.21-.13-2.36-.5-3.47-1-1.1-.5-2.17-1.06-3.27-1.54-.46-.21-.98-.43-1.47-.43-1.08,0-2.03-.29-2.95-.83-1.34-.78-2.69-1.55-4.07-2.25-.78-.4-1.47-.89-2.08-1.51-.73-.75-1.55-1.36-2.52-1.79-1-.44-1.64-1.26-2.01-2.26-.3-.85-.79-1.52-1.52-2.03-1-.71-1.82-1.59-2.43-2.65-.6-1.06-1.22-2.12-2.14-2.91-1.71-1.45-2.94-3.38-4.87-4.61-.75-.48-1.48-.87-2.37-.94-.33-.02-.75,0-.98-.2-1.28-1.05-2.97-.79-4.39-1.45-1.39-.64-2.97-.87-4.46-1.31-.49-.15-1.04-.29-1.41-.6-1.24-1.05-2.64-1.58-4.25-1.67-.5-.03-1-.25-1.46-.48-.77-.39-1.5-.85-2.26-1.27-2.87-1.62-5.86-2.93-9.12-3.54-.69-.13-1.29-.48-1.84-.92-.26-.21-.51-.47-.79-.66-1-.7-2.09-1.21-3.33-1.32-3.1-.27-6.15-.94-9.26-1.12-.68-.04-1.39-.17-2.03-.4-1.49-.54-3.04-.62-4.6-.6-2.07.03-4.14.13-6.22.19-1.21.03-2.42.03-3.62.08-1.25.04-2.36-.27-3.4-1.01-.94-.67-1.99-.47-2.94.06-1.06.6-1.94,1.42-2.75,2.33-.47.53-.83,1.1-.99,1.79-.32,1.34-.75,2.68-.36,4.08.15.54-.07,1.01-.19,1.51-.11.5-.29,1-.31,1.51-.04.69.06,1.42.64,1.89.49.41.48.92.33,1.38-.15.48-.5.89-.78,1.32-1.33,2.01-2.43,4.16-3.74,6.19-.27.42-.41.95-.12,1.46.34.61.67,1.21,1.01,1.81.32.56.33.9-.21,1.29-.43.31-.91.6-.95,1.12-.1,1.14-.65,1.92-1.57,2.53-.43.28-.79.66-1.2.98-.29.22-.59.13-.75-.31-.29-.82-.57-1.6-1.64-1.72-.87-.1-1.65-.48-2.39-.94-1.06-.65-2.24-.89-3.46-.94-.86-.04-1.73.02-2.59.02-1.31,0-2.31.58-3.14,1.54-.37,1.1-1.21,1.73-2.28,1.57-1.06-.16-2-.24-2.94.34-.58.36-1.2.67-1.83.91-.47.17-1,.18-1.5.25-.17.02-.35,0-.51-.05-1.3-.38-2.32-.13-3.02,1.15-.25.45-.84.68-1.33.59-.74-.13-1.33,0-1.88.47-.52.44-1.04.89-1.57,1.31-.43.35-.93.33-1.44.19-.16-.04-.31-.14-.46-.22-.81-.37-1.62-.49-2.46-.05-.29.15-.63.25-.96.33-.8.22-2.15-.63-2.29-1.55-.08-.54-.19-.98-.65-1.29-.65.17-1.31.36-1.99.21-.82-.17-1.62-.52-2.47-.48-1.91.11-3.68-.47-5.44-1.05-.51-.16-.67-.68-.66-1.22-.81-.34-1.59-.43-2.25.33-.24.28-.56.36-.92.29-.32-.06-.68-.06-.97-.2-.59-.31-1.19-.62-1.7-1.05-1.14-.96-2.23-1.99-3.34-2.99-.5-.06-1.02-.03-1.48-.19-1.62-.58-2.88-1.7-4.08-2.88-.45-.45-.19-.86.09-1.28.41-.61.4-1.27.08-1.9-.4-.8-.5-1.58-.04-2.38.08-.14.1-.32.13-.48.1-.53-.04-.99-.38-1.4-.21-.26-.4-.54-.6-.81-.69.03-1.38.06-2.06.1-.59.03-.72-.05-1-.84-.11-.31-.14-.65-.15-.98-.01-.37.14-.71.45-.89.87-.52,1.79-.92,2.81-1.08.51-.08.69-.52.46-.97-.24-.47-.56-.9-1.04-1.09-1.1-.44-2.23-.77-3.26-1.44-.99-.64-2.22-.9-3.28-1.46-.56-.29-.97-.14-1.43.06-.15.07-.32.16-.42.29-.44.54-.94.98-1.56,1.32-.63.34-.93.98-1.26,1.58.16.29.28.61.49.86.5.61.33,1.18.05,1.81-.25.57-.74.61-1.21.63-.36.02-.68-.21-.74-.51-.22-.98-.72-1.83-1.19-2.7-.84-.94-1.99-1.33-3.13-1.74-.31-.12-.67-.11-1.02-.14-.84-.05-1.66.31-2.53-.07-.61-.26-1.34-.26-2.01-.43-.29-.07-.52-.39-.53-.76-.02-.68.09-1.37.06-2.06-.02-.31-.21-.63-.36-.92-.07-.15-.25-.24-.36-.37-.24-.25-.46-.51-.68-.77-.34-.05-.7-.04-1.01-.15-.38-.15-.64-.11-.96.1-.55.37-1.08.99-1.76.9-.65-.1-1.25-.53-1.88-.78-.69-.26-1.09-.77-1.35-1.43-.06-.16-.12-.41-.23-.44-.3-.08-.64-.12-.96-.07-.45.07-.53.33-.41.7.1.31.12.67.09,1-.06.66-.62,1.15-1.39,1.2-.17,0-.34-.04-.51-.07-.66,0-1.26-.22-1.87-.43-.44-.14-.93-.2-1.43,0-.74.3-1.48.59-2.32.21-.03-.01-.07-.02-.1-.02-.22,0-.54.21-.8.3.12.36.25.72.38,1.08.69.19,1.07.79,1.58,1.21.1.08.16.27.15.4-.03.35-.29.52-.68.58-.33.04-.74.05-.96.24-1.14,1.03-2.34,1.89-3.9,2.18-.47.08-.9.43-1.34.66l-.03.04c.06.93-.48,1.6-.98,2.29-.63.85-1.35,1.54-2.48,1.6-.71.03-1.27.47-1.87.77-.79.39-1.64.38-2.49.3-.16,0-.36-.06-.47-.16-.38-.35-.62-.79-.7-1.3-.05-.34.63-.97,1.04-.96.85,0,1.7.05,2.55,0,.29-.02.59-.29.85-.49.33-.25.27-1.09-.02-1.31-.57-.43-1.23-.59-1.89-.75-.33-.08-.69-.1-.99-.24-.27-.13-.53-.36-.7-.61-.17-.27.26-1.05.68-1.25.46-.22.96-.37,1.41-.61.3-.15.62-.36.79-.63.14-.25.21-.67.09-.92-.12-.24-.52-.51-.78-.49-1.02.09-2.04.22-3.03.45-1.54.34-3.06.22-4.59.07-.33.08-.67.24-.99.2-.85-.08-1.69-.28-2.54-.38-.68-.08-1.37-.06-2.06-.12-1.33-.11-2.33.37-2.91,1.62-.36.78-.77,1.54-1.16,2.31-.18.36-.89.59-1.35.57-1.21-.07-2.26-.92-3.53-.67-1.01.19-2.03.37-3.06.53-.33.05-.81.45-1.5.51-1.21.09-2.37-.17-3.51-.47-.62-.17-1.2-.64-1.71-1.07-.34-.28-.27-.67.04-.79.8-.32,1.51-.63,1.98-1.48.54-.96,1.56-1.28,2.65-1.18,1.21.11,2.39.18,3.56-.26,1.14-.44,2.36-.39,3.56-.44.24-.46.46-.92.89-1.25.44-.33.92-.44,1.43-.21.31.14.6.33.89.5,1.65-.06,5.08-.13,4.94-.28.49-.51,1.08-.86,1.79-.82,1.85.1,3.71,0,5.56.42,1.14.25,2.37.15,3.55.18.68.03,1.06-.68.7-1.4-.16-.33-.29-.61-.12-.95.23-.45.45-.9.71-1.33.21-.32.14-.62.12-.97-.03-1.14.69-2,1.69-2.14.34-.04.68-.12,1.01-.1.68.03,1.35.11,2.03.18.7.08,1.33-.08,1.94-.44.58-.34,1.2-.63,1.8-.95-.03-.3.08-.53.32-.71.33,0,.66.04.98,0,.52-.09.88-.38.98-.93.62-.84,1.55-1.02,2.5-1.2.51-.1.72-.53.74-1.04-1.53.07-3.05.12-4.57.23-.67.05-1.34.16-1.99.33-.66.18-1.31.39-1.99.3-1.19-.16-2.33.51-3.52.17-.16-.05-.33-.08-.49-.13-1.06.24-2.12.28-3.15-.1-.34.01-.67.02-1.01.02-.32.11-.65.3-.98.31-.86,0-1.71-.07-2.57-.09-1.22-.02-2.42.08-3.56.56-.31.14-.64.26-.97.36-1,.29-2.01.49-3.06.41-.86-.07-1.72-.13-2.59-.15-.86,0-1.71.08-2.5.52-.81.44-1.66.4-2.5.1-.34-.12-.66-.05-1.01-.02-1.19.1-2.39.08-3.59.19-.3.02-.57.35-.88.49-.53.26-.64.21-.96-.48-.29-.62-.58-1.24-1.17-1.65-.14-.1-.29-.23-.45-.26-1.39-.2-2.73.24-4.11.31-.26,0-.57.39-.73.67-.54.96-1.32,1.58-2.36,1.88-.36.1-.7-.03-.93-.25-.12-.11-.29-.26-.31-.4-.17-1.22-.84-2.25-1.22-3.39-.19-.53-.05-1.07.33-1.43.85-.8,1.48-1.87,2.73-2.25.47-.14.82-.61,1.24-.91.44-.32.96-.27,1.48-.27,1.26,0,2.15,1.05,3.37,1.14.4.32.79.64,1.19.97.26.21.5.45.79.61.13.08.37.06.51-.01.92-.46,1.85-.9,2.72-1.45.4-.25,1.03-.43,1-1.05,0-.27-.33-.54-.52-.81-.18-.27-.18-.58.05-.92.19-.28.37-.57.61-.8.74-.71,1.52-1.4,2.28-2.1.48-.22.8-.57.97-1.07.23-.68-.11-1.44-.77-1.63-.54-.16-.95.1-1.25.55-.27.21-.58.29-.91.23-.23.6-.67,1.01-1.18,1.38-.44.3-.76.18-.97-.44-.1-.28-.13-.6-.19-.9h-.02c-.29.08-.6.14-.87.28-.35.16-.61.19-.76-.05-.16-.27-.13-.56,0-.86.13-.3.35-.5.68-.58.01-.35.03-.7.04-1.05.07-.33-.02-.63-.34-.73-.34-.12-.58.07-.66.43-.41.31-.79.65-1.22.91-.47.28-1.01.26-1.47,0-.44-.23-.84-.57-1.2-.91-.35-.33-.39-1.12-.1-1.43.47-.49.98-.94,1.42-1.46.2-.24.26-.6.39-.9-.66-.09-1.32-.19-1.97-.28-.61.37-.94,1.01-1.45,1.47-.5.45-1.14.75-1.65,1.2-.29.24-.53.38-.92.33-.7-.08-1.38.03-2.04.28-.51.19-1.01.08-1.52,0-.68-.13-1.38-.93-1.19-1.46.46-1.33.56-2.69.56-4.07,0-.72-.21-1.33-.6-1.93-.46-.7-.69-1.76-.66-2.44.02-.54.25-.99.54-1.42.09-.14.26-.33.22-.43-.13-.3-.34-.58-.54-.86-.1-.13-.24-.29-.39-.33-2.31-.67-4.52-1.7-6.99-1.82-.47-.02-.94-.37-1.4-.6-.36-.18-.45-.5-.23-.87.07-.13.24-.22.38-.28.66-.31,1.35-.17,2.04-.13,1.21.06,2.4.03,3.56-.43.8-.32,1.68-.42,2.51-.64.33-.09.65-.24.96-.39,1.32-.61,2.25-1.55,2.58-3.03.19-.87.27-1.7-.35-2.45-.5-.6-.55-1.2-.09-1.85.63-.88.68-1.94.87-2.95.28-1.56-.96-2.95-2.61-3.29-.34-.06-.72-.12-1.03-.02-1.63.51-3.08.14-4.39-.87-.54-.42-1.26-.51-1.76-1.04-.87-.89-2.01-1.31-3.18-1.64-.5-.13-.95-.46-1.45-.56-.49-.1-1.04-.12-1.53-.01-1.18.25-2.32.68-3.35,1.34-.29-.14-.72-.21-.85-.44-.25-.44-.39-.96-.47-1.46-.2-1.23-.75-2.29-1.48-3.27-.19-.27-.48-.58-.77-.63-1.02-.18-1.36-.88-1.65-1.74-.08-.24-.52-.53-.79-.53-1.55.03-3.1.14-4.65.24-.57.04-.99.43-1.15.9-.4,1.14-.67,2.33-1.42,3.31-.23.29-.66.47-.84.31-.56-.49-1.17-.53-1.88-.59-.66-.06-1.13-.68-1.48-1.32-.6-1.12-.78-1.36-1.3-1.51-1.33-.39-2.41-1.4-3.85-1.48-.58-.04-.88-.51-1.26-.83-.32-.26-.59-.33-.92-.21-1.47.55-2.7.2-3.7-1.01-.11-.13-.25-.23-.38-.35-.63-.03-1.26-.05-1.89-.11-.48-.05-1.04-.58-.9-.87.23-.47.71-.56,1.19-.56.16,0,.31.04.47.06,1.06-.58,1.11-1.59,1.16-2.62.02-.36.3-.58.63-.59.16,0,.36.07.47.18.36.36.67.76,1.04,1.11.24.23.52.45.83.57.3.12.69.24.97.15.79-.27,1.54-.66,2.33-.96,1.32-.51,2.43-1.21,2.76-2.72.43-.5.85-1.02,1.3-1.51.3-.33.2-.53-.1-.86-.72-.8-1.67-1.12-2.64-1.44-.69-.23-1.33-.12-1.89.37-.12.11-.24.23-.36.35-.89.41-1.42,1.47-2.56,1.42-.15,0-.34-.12-.43-.24-.17-.21-.11-.52.15-.81.1-.11.31-.19.46-.18.5.02.99.15,1.48.13.3-.01.59-.22.89-.34.02-.17.03-.34.06-.51.11-.67.29-1.34-.16-1.97-1.22-1.74-1.8-3.7-2-5.79-.07-.8.44-1.69,1.31-2.01.64-.23,1.31-.44,1.99-.5.67-.05,1.37.09,2.06.15.9.08,1.62.57,2.31,1.09.6.45,2.2,2.37,2.53,3.2.41,1.03,1.1,1.71,1.98,2.3.42.28.77.68,1.11,1.06.5.54.37,1.77-.25,2.26-.26.22-.52.44-.74.7-.27.31-.36,1.21-.19,1.45.5.7.99,1.41,1.52,2.09.44.55.59,1.22.79,1.87.15.52.6.82.99,1.16.3.27.6.32.91.02.09-.08.17-.27.14-.38-.13-.68-.29-1.35-.45-2.02-.24-.93.08-1.68.7-2.35.28-.45.7-.71,1.15-.95.81-.45.82-.76.07-1.3-.28-.2-.56-.39-.82-.6-.75-.59-.84-1.18-.39-2.27.06-.14.22-.26.35-.37.42-.35,1.12-.28,1.29.13.34.78.72,1.55.97,2.36.14.46.23,1.06.05,1.48-.35.85-.23,1.66-.16,2.49.35.39.67.8,1.04,1.16.66.64,1.46.91,2.36.59.81-.29,1.6-.65,2.48-.68,2.26-.08,4.43-.63,6.52-1.47,1.02-.41,2-.39,3.02-.11.17.05.33.12.5.16.91.23,1.68-.13,2.41-.61.48-.32,1.09-1.11,1.2-1.55.04-.14-.07-.43-.09-.43-1.2.15-2.37.14-3.55-.26-.83-.28-1.72-.08-2.56.11-.83.19-1.64.5-2.46.76-.54.16-1.01-.04-1.47-.27-.16-.08-.33-.17-.42-.3-1.04-1.44-2.37-2.49-4.03-3.11-.47-.18-.97-.41-1.08-.92-.07-.29.19-.64.29-.97.14-.48-.04-1.16-.38-1.38-.71-.47-1.37-1.03-2.21-1.32-.31-.11-.62-.3-.87-.51-.39-.34-.76-.71-.89-1.24-.25-.99-.56-1.98-.55-3.03,0-.43.41-1.04.85-1.16.83-.22,1.71-.25,2.48-.67.84-.44,1.66-.29,2.49.04.32.12.66.2.99.29.75.21,1.28-.11,1.8-.64.73-.74.74-.7.4-1.68-.15-.42-.68-.83-.18-1.3.38-.37.9-.56,1.4-.34.36.16.64.24.96,0,.14-.1.35-.14.42-.26.8-1.33,2.06-1.73,3.5-1.86.4-.03.62-.34.59-.65-.04-.52-.11-1.03-.18-1.54-.06-.48-.58-.84-1.07-.72-.5.12-1,.41-1.49.38-.49-.02-.96-.35-1.45-.52-1.19-.41-2.42-.38-3.55.1-1.1.46-2.05.09-2.97-.32-1.2-.52-1.87-1.48-1.76-2.86.03-.34.03-.7.14-1.02.1-.31.26-.68.51-.85,1-.67,2.06-1.24,3.05-1.92.2-.13.19-.61.22-.93.02-.15-.08-.34-.18-.47-1.16-1.54-2.49-2.81-4.46-3.31-1.04-.26-1.67-1.19-2.16-2.12-.23-.44-.31-.97-.47-1.45-.24-.72-.81-1.08-1.48-1.31-.17-.06-.33-.12-.49-.17-1.18.25-2.34.34-3.47-.23-.34-.17-.57-.51-.33-.81.6-.78.6-1.43.04-2.26-.34-.51-.34-1.26-.49-1.9-.04-.16-.11-.32-.17-.48.3-.09.59-.22.9-.25.33-.04.69-.04,1,.06.3.09.7.28.79.53.6,1.69,1.82,1.76,3.27,1.35.16-.05.34-.01.51-.01.6-.34,1.17-.73,1.79-1,1.03-.45,1.62-1.14,1.76-2.29.06-.49.54-.76,1.09-.89,1.12-.26,1.15-.29,1.51-1.15.14-.35.24-.65.62-.74.33-.07.66-.14.99-.21.34-.07.7-.07,1-.2.29-.13.63-.34.77-.61.32-.6.57-1.24.76-1.89.48-1.63-.39-2.58-2.17-2.46-.7.05-1.28.45-1.95.61-.63.51-1.29.45-1.96.1-1.39-.06-2.78.29-4.17.01-.34.21-.7.25-1.07.14-1.31.52-2.73.3-4.07.68-1.16.32-2.36.52-3.55.74-1.52.28-3.06.51-4.59.79-1.36.24-2.56.99-3.93,1.24-.84.16-1.64.58-2.51.57-2.27-.03-4.45.41-6.63,1-.98.27-2.05.28-3.08.3-.69.02-1.35-.19-1.99-.49-.68-.33-1.07-1.01-.83-1.63.3-.81.68-1.59.91-2.42.28-1.04.78-1.9,1.63-2.56.27-.21.5-.48.72-.74.67-.84.99-1.82.97-2.89-.02-.68,0-1.43-.25-2.04-.49-1.19-.41-2.29.01-3.48.29-.83.07-1.69-.32-2.49-.14-.29-.26-.72-.15-.97.52-1.13.43-2.36.63-3.54.18-1.03.59-1.97,1.09-2.89.28-.51.74-.71,1.25-.75.51-.05,1.04.04,1.55.03.69-.02,1.38-.03,2.06-.14,1.43-.24,2.56-.99,3.32-2.24.35-.59.66-1.21.99-1.82-.5-.32-1.01-.59-1.65-.43-.43.1-.88.14-1.32.21-1.4.67-2.79,1.38-4.21,2-.45.19-1.01.17-1.52.2-.14,0-.31-.14-.41-.26-.09-.1-.14-.27-.13-.41.01-.17.06-.35.15-.49,1.07-1.56,2.12-3.14,3.23-4.67.41-.57.75-1.14,1.03-1.78.53-1.22.54-2.32-.5-3.29-.25-.24-.48-.51-.66-.79-.4-.63-.35-1.31-.09-1.98.06-.16.14-.33.26-.44.12-.12.29-.19.45-.24,2.83-.86,5.36-2.35,7.92-3.78,1.06-.59,2.1-1.16,3.29-1.47.66-.17,1.27-.53,1.9-.82.93-.44,1.85-.92,2.8-1.33,1.28-.56,2.59-.96,4.01-.88,1.08.07,1.99-.25,2.73-1.15.43-.52,1.11-.74,1.86-.75,1.24-.03,2.33-.53,3.24-1.4.42-.4.55-.87.45-1.38-.12-.69-.47-1.29-.98-1.78-.53-.51-1.21-.84-1.88-.6-2.33.84-4.76.74-7.16.83-.71.03-1.36.21-1.98.55-.6.34-1.22.66-1.81,1.01-.99.57-1.98.5-2.98.07-.32-.13-.64-.24-.96-.37-.52-.21-1.05-.14-1.51.08-.47.23-.94.42-1.46.43-.52.02-1.04-.08-1.55-.07-1.89.05-3.73.72-5.67.39-1.71-.29-3.44-.03-5.17.09-.67.05-1.37-.11-2.05-.2-.72-.09-1.29-.48-1.81-.95-.24-.22-.51-.52-.58-.82-.27-1.18-.48-2.37-.7-3.55-.08-.39.32-.91.85-1.11.48-.18.98-.33,1.45-.54s.98-.45,1.17-.97c.56-1.57,1.74-2.5,3.17-3.21.66-.32.91-.96,1.17-1.63.48-1.2,1.4-1.9,2.73-2.03.32-.03.62-.23.93-.35.25-1.19,1.22-1.55,2.21-1.88.41-.14.45-.38.41-.81-.12-1.17-.12-1.21.44-1.93.26-.33.43-.54.18-.88-.51-.69-1.05-1.35-1.52-2.07-.27-.42-.37-.86-.15-1.42.24-.61-.18-1.33.15-2.01.25-.49,0-.98-.21-1.46-.2-.48-.31-.98-.1-1.49.27-.65.37-1.31.39-2.02.03-1.01.53-1.22,1.29-1.14.35.04.69.04,1.04.05.7.03,1.37-.06,2-.41,1.51-.84,2.97-1.73,4.24-2.93.98-.94,2.14-1,3.36-.46.15.07.3.17.47.2.83.18,2.2-.73,2.44-1.54.24-.86.19-1.7-.08-2.54-1.2-3.63-1.26-3.92-1.55-8.05-.08-1.15-.34-1.57-1.41-1.8-1.41-.31-2.59-.92-3.46-2.09-.43-.59-1.06-.84-1.73-1.04-.32-.1-.66-.22-1-.23-1.86-.03-3.26-1-4.59-2.15-.63-.54-.78-1.5-.3-2.34.34-.59.7-1.19,1.13-1.72.32-.39.7-.78,1.28-.79,2.07-.05,4.14-.09,6.21-.14.74-.02,1.31-.37,1.76-.94.21-.27.43-.54.61-.83.47-.75.73-1.57.5-2.46-.1-.37-.09-.67.1-.97.57-.93,1.53-1.36,2.44-1.84.29-.15.68-.16,1.02-.14,1.2.09,2.42.16,3.61.36.91.15,1.71-.02,2.48-.46.48-.28.99-.25,1.5-.19.68.08,1.41.41,2.04.11,1.77-.82,3.67-.91,5.53-1.23.31-.05.68-.27.86-.53.71-1.02,1.86-1.51,2.75-2.32-.01-.57.28-.97.79-1.17.83-.33,1.69-.28,2.55-.12,1.18.22,2.27.84,3.5.89.51.02,1.03.04,1.46-.33.13-.12.28-.2.4-.32,1.46-1.47,3.11-1.23,4.75-.46.94.44,1.79,1.04,2.7,1.53.48.26.8.64,1.1,1.07,1.42,2.07,3.38,3.36,5.79,4.01.17.05.33.09.5.14.9.31,1.35,1.01,1.57,1.89.34-.06.71-.06,1.01-.2.92-.45,1.79-1.02,2.73-1.41.95-.4,1.98-.57,2.94-.94,1.71-.66,3.36-.62,5,.19.31.15.63.26.96.38.32.12,1.03-.29,1.22-.7.52-1.11,1.34-1.62,2.33-1.44.34.06.72.1.99.28.91.61,1.91.75,2.95.59,1.21-.2,2.4-.24,3.56.23.51.2.88.56.97,1.1.13.67.19,1.36.26,2.04.06.63-.18.94-.8,1.04-.17.03-.35.06-.52.05-.8-.09-1.31.38-1.67.97-.36.61-.4,1.35-.09,1.99.36.77.79,1.53,1.31,2.2.63.81,1.46,1.44,1.73,2.51.08.31.36.58.59.84.35.38.71.75,1.1,1.09.57.5.72,1.16.7,1.85-.01.58.24,1.03.61,1.36,1.8,1.59,3.59,3.2,5.48,4.68,1.21.96,2.59,1.68,4.04,2.25,3.36,1.32,6.7,2.7,10.05,4.04.96.38,1.96.66,2.9,1.09,1.88.86,3.82,1.54,5.86,1.96,1.01.21,1.99.53,3,.75.68.14,1.31.38,1.93.7,1.84.96,3.75,1.7,5.86,1.85.67.05,1.36.26,1.99.51,1.81.74,3.68.77,5.58.52.59.53,1.27.87,2.08.88.24.41.32.97.18,1.07-.02.01-.03.01-.05.02-1.13.4-1.77,1.41-2.65,2.13-.38.3-.44.82-.21,1.31.43.89-.05,1.31.04,2.27-1.03,1.45-1.12,1.31-1.3,1.53-.67.83-.44.83-1.45,1.16-1.25.42-1.25.47-.96,1.82-1,.26-1.96.65-2.92,1.03-.95.38-2.02.46-2.95.87-1.04.45-1.97.51-2.94-.09-.6-.37-1.28-.55-1.97-.42-1.35.26-2.73.25-4.07.69-.79.27-1.7.16-2.56-.04-.38-.09-.63-.27-.75-.62-.16-.49-.32-.98-.5-1.46-.16-.43-.9-.65-1.29-.28-1.05.98-2.12.93-3.28.28-.15-.09-.3-.17-.45-.26-1.79-1.09-3.78-1.58-5.82-1.99-1.87-.38-3.81-.28-5.63-.76-1.22-.31-2.38-.19-3.57-.16-.86.03-1.71.26-2.57.3-1.75.08-3.35.76-4.99,1.25-.85.25-1.5.84-2.02,1.54-.3.41-.54.87-.87,1.25-.22.25-.54.54-.84.57-1.52.16-3.08.54-4.51-.36-.73-.46-1.48-.83-2.32-1.09-1.86-.59-3.67-.62-5.59-.19-1.5.34-3.05.46-4.56.85-1.33.34-2.73.38-4.09.61-.31.05-.6.31-.85.53-.26.23-.49.5-.65.8-.4.76-.93,1.5-1.11,2.32-.45,1.96-1.27,3.56-3.28,4.31-.79.65-1.62,1.28-2.38,1.97-.37.34-.75.76-.93,1.22-.69,1.73-2.07,2.7-3.65,3.49-.92.46-1.88.87-2.74,1.43-1.62,1.08-3.4,1.63-5.28,1.97-.68.12-1.36.22-2.04.34-.7.12-1.3.45-1.82.91-.79.7-1.63,1.19-2.7,1.41-1.34.29-2.69.68-3.93,1.26-1.72.8-3.49,1.42-5.32,1.93-1.16.33-2.29.79-3.2,1.64-.25.23-.57.46-.68.75-.31.88-.83,1.41-1.78,1.61-.69.15-1.27.66-1.43,1.36-.26,1.1-.93,1.84-1.8,2.42-.85.58-1.69,1.17-2.72,1.46-.83.23-1.57.68-2.18,1.32-1.35,1.4-2.98,2.31-4.83,2.87-.32.1-.6.32-.9.48-.37.21-.58.8-.47,1.31.07.34.13.68.19,1.01.55-.08,1.09-.16,1.63-.25.11-.88.29-1.77,1.43-1.75,1.44.03,2.73-.38,3.94-1.08.44-.25.89-.56,1.19-.95.85-1.11,1.67-2.18,3.19-2.42.31-.05.6-.33.85-.55,1.3-1.13,2.57-2.29,3.88-3.41.52-.44,1.11-.81,1.69-1.18.74-.47,1.56-.74,2.45-.62,1.88.25,3.77.34,5.66.14.33-.03.73.03,1.01.19,1.28.74,2.66.59,4.03.48.87-.07,1.69-.26,2.35-.92.36-.36.76-.7,1.17-1.01,1.31-1.03,2.8-1.36,4.38-.89.85.25,1.59.48,2.46.1.94-.41,1.93-.71,2.9-1.04.15-.05.36-.06.51,0,.63.27,1.19.65,1.57,1.26.31.48.32,1.01.08,1.45-.19.37-.28.59-.07.93.27.44.56.83,1.02,1.11,1.47.91,3.22,1.24,4.65,2.23.34.01.71-.06,1.02.04,1.63.56,3.32.83,5.03.97l.25-.05c1.24-1.09,2.66-1.35,4.24-.94.65.17,1.22.58,1.94.48,1.66-.22,3.35.42,5-.18.23-.31.55-.48.92-.54.18-.58.56-.86,1.18-.76l.27-.11c.22-.27.43-.54.64-.81.33-.42.23-1.07-.2-1.21-.32-.1-.66-.28-.98-.25-.91.06-1.67-.16-2.31-.82-.24-.24-.58-.4-.77-.68-.68-1.04-1.73-1.6-2.77-2.2-.15-.08-.28-.19-.42-.29-.28-.24-.4-.54-.44-.86-.05-.43.36-.96.82-1.19.48-.24.99-.28,1.5-.33.34-.03.7-.09,1.02-.03,2.2.46,4.45.08,6.66.39.68.1,1.4.14,2.01.41,1.28.56,2.69.44,4,.85.38.12.63.84.44,1.31-.2.51-.59.87-1.03,1.09-1.23.59-2.49,1.12-3.75,1.65-.67.27-.45.82-.48,1.3-.01.16.03.34.05.51h.07c1.36.25,2.69.28,4.05-.07,2.47-.65,5.02-.94,7.54-1.31,2.2-.31,4.39-.47,6.62-.34,1.87.1,3.73-.04,5.61.22,1.5.22,3.06.02,4.59.09.48.03.95.32,1.43.48.69.02,1.35.18,2,.4.65.21,1.31.41,1.98.52,1.36.22,2.68.19,4.05-.2,3.87-1.12,3.88-1.03,8.09-.6,1.1.11,1.93.62,2.79,1.18,2.4.05,4.79-.15,7.19-.21.3-.37.6-.74.89-1.11.01-.69.25-1.21.98-1.41.77-.2,1.52-.45,2.28-.67-.06-.3-.12-.6-.2-.89-.47-.18-1-.26-1.41-.53-1.05-.7-2.22-.84-3.42-.74-.84.07-1.67.27-2.49.48-1.76.46-3.35-.11-4.96-.67-1.33-1.16-3-1.51-4.63-1.94-.44-.12-.51-.38-.36-.81.17-.5.42-.9.91-1.14.92-.45,1.87-.81,2.88-1,1.36-.25,2.55-.92,3.74-1.57.57-.32.97-.95,1.67-1.1.31-.15.6-.4.92-.44.85-.12,1.71-.23,2.57-.21,1.71.04,3.42.18,5.08-.48.46-.18,1.01-.15,1.53-.17,1.2-.04,2.4-.05,3.61-.1,2.08-.08,4.09-.44,5.86-1.68.4-.28.97-.37,1.48-.15,1.04.43,1.99.3,2.9-.36.55-.4,1.07-.85,1.76-1.03.37-.09.66-.05.99.14.63.34,1.03.89,1.42,1.44.51.05,1.03.18,1.52.12,2.02-.24,4.04-.54,6.05-.84.51-.07,1.02-.14,1.5-.3,2.65-.92,5.33-.83,8.05-.36.3.06.66-.04.96-.16.38-.16.55-.44.47-.69-.11-.36-.35-.62-.65-.69-.33-.07-.68-.12-1.01-.07-.84.12-1.67.31-2.5.44-.68.1-1.36.06-2.03-.09-.51.09-1.08.28-1.5-.02-1.32-.93-2.8-1.29-4.35-1.34-1.7-.05-3.43-.43-5.08.32-1.02,0-2.06.21-3.07-.07-.86-.23-1.7-.15-2.55,0-1.34.24-2.69.49-4.04.67-.29.03-.73-.14-.92-.36-.32-.38-.48-.9-.74-1.34-.37-.61-.91-1-1.66-1.01-.17,0-.34-.03-.51-.04-.57-.04-1.02-.37-1.12-.87-.23-1.2-1.09-1.75-2.09-1.99-1.18-.28-2.28-.74-3.42-1.11-.67-.21-1.24-.59-1.77-1.03-.27-.22-.53-.44-.76-.69-.71-.78-1.57-1.28-2.58-1.61-.63-.21-1.2-.66-1.74-1.07-.25-.19-.36-.55-.54-.84.26-.61.55-1.23,1.08-1.62.89-.65,2.05-.87,1.91-1.9.26-.15.75-1.3,1-1.47.89-.6.32-.93-.22-2.04-.17-.34-.16-.66.09-.88.83-.76,1.86-1.34,2.36-2.42.67-.17,1.32-.38,1.99-.51,1.02-.2,2.04-.37,3.06-.48.5-.05,1.05-.02,1.54.13,1.66.52,3.34.8,5.09.8.68,0,1.41.05,2.04.28,1.64.6,3.39.69,5.04,1.16,1.35.38,2.69.59,4.09.44.5-.05,1.02.09,1.53.13,1.88.18,3.74.61,5.64.64.85.02,1.7.28,2.55.41.68.11,1.37.3,2.04.28,2.43-.06,4.83.19,7.24.32,2.24.12,4.48-.1,6.72-.26,1.78-.12,3.38-.48,4.74-1.72.49-.46,1.16-.73,1.77-1.04.3-.14.67-.27.98-.22,1.19.17,2.39.35,3.51.85,2.38,1.07,4.88,1.66,7.47,1.98,1.54.2,3.06.62,4.61.67,2.13.06,4.06.75,5.96,1.55,1.14.48,2.28.75,3.5.8.86.04,1.73.08,2.58.19,4.14.54,8.25.43,12.38-.22,2.55-.4,5.14-.66,7.7-1.05,1.04-.16,1.99-.56,2.93-.99.31-.14.65-.28.89-.51.98-.97,1.96-1.94,2.85-2.98.32-.37.52-.93.55-1.42.07-1.18.37-2.38-.04-3.58-.09-.29.23-.64.56-.76,1.3-.46,2.63-.81,3.8-1.61.41-.28.94-.41,1.43-.55.5-.15,1.01-.23,1.52-.34,2.71-.58,5.28-1.62,7.74-2.83,2-.99,4.07-1.88,5.94-3.15,1.43-.98,3.06-1.57,4.72-2.05,1.16-.34,2.33-.62,3.46-1.04,1.13-.41,2-1.37,3.2-1.66,1-.23,2.05-.32,3.03-.62.64-.19,1.31-.54,1.78-1.01,1.1-1.11,2.42-1.93,3.6-2.93.48,0,.74-.2.91-.81l.32-.16c.78-.04,1.55-.07,2.32-.12.68-.05,1.12-.46,1.46-1.01l.09-.04c.51-.8,1.32-1.05,2.2-1.13.68-.06,1.4.04,1.95-.47,1.18-1.07,2.81-1.3,4.07-2.23.38-.29.96-.36,1.47-.43.69-.09,1.34-.28,1.96-.59.63-.31,1.3-.48,2-.47,1.57.03,3.1-.11,4.57-.7,2.23-.27,4.4-.82,6.65-.98,1.71-.12,3.43-.38,5.03-1.09.47-.21.98-.35,1.41-.62,2.24-1.39,4.74-2.05,7.28-2.52,1.02-.19,1.99-.45,2.96-.84,2.08-.83,4.27-1.35,6.33-2.25.6-.26,1.36-.27,2.04-.22,2.41.14,4.81.3,7.21.67,6.14.95,12.33,1.49,18.56,1.45,1.55,0,3.1-.07,4.65-.19,2.94-.23,5.87-.12,8.77.44,1.45.62,3.03.59,4.56.87,2.59.46,5.16.21,7.69-.33,1.18-.25,2.37-.45,3.56-.6.33-.04.75-.05,1.01.11,1.4.83,2.98.79,4.5.99.17.03.33.11.49.17,3.13.28,6.22-.16,9.31-.47.5-.05,1.01-.25,1.46-.49,2.62-1.39,5.03-3.01,6.44-5.78.23-.47.83-.64,1.35-.63,1.45.03,2.73.44,3.38,1.91.22.48.52.87,1.05,1.06.65.24,1.3.48,1.91.79.31.16.49.54.4.86-.26.82-.66,1.6-.89,2.42-.19.66-.23,1.38.17,2,.56.87,1.09,1.77,1.75,2.56.55.65,1.26,1.18,1.94,1.71.57.44.95.99,1.23,1.63.28.65.72,1.17,1.3,1.58.7.49,1.42.97,2.1,1.51.84.65,1.77,1.06,2.8,1.27.85.16,1.71.28,2.54.5,1,.27,1.99.59,2.87,1.17.57.38,1.2.71,1.85.93.81.28,1.65.55,2.5.62,2.42.19,4.81.09,7.2-.53,6.51-1.69,6.52-1.64,12.4-3.7,1.19-.7,2.31-.4,3.41.22.3.17.6.36.93.47,2.05.7,3.56,2.08,4.76,3.82.29.42.52.9.63,1.39.36,1.52.69,3.05.18,4.61-.05.15-.01.34-.02.51-.04.73.17,1.39.68,1.89,1.72,1.7,3.45,3.39,5.21,5.04.37.34.85.59,1.32.78.64.26,1.33.39,1.98.62.49.18.93.45,1.21.91.09.15.18.3.28.44,1.34,1.77,3.09,2.69,5.34,2.54.52-.03,1.04-.08,1.54-.18,1.74-.34,3.28-1.04,4.41-2.48.86-1.08,1.76-2.13,2.68-3.16.5-.55,1.26-.76,1.9-.51,1.32.5,2.67.65,4.05.76,1.55.12,3.09.28,4.6.76,1.15.36,2.31.67,3.4,1.22,1.54.78,3.13,1.44,4.68,2.2.46.23.77.71.89,1.22.12.5.15,1.03.23,1.54.05.34.03.73.2,1,.27.43.59.93,1.02,1.13,1.73.8,3.53,1.41,5.47,1.42,1.39.01,2.77.06,4.15.07.9,0,1.63.3,2.35.87.82.65,1.87.86,2.91.99.69.08,1.42.05,2,.45,1.01.69,2.18,1.06,3.23,1.65.73.42,1.32,1.09,2.03,1.59.58.4,1.26.53,1.97.47,1.26-.12,2.35-.58,3.16-1.57.66-.8,1.31-1.61,1.94-2.43.59-.74,1.31-1.14,2.24-.8.84.31,1.69.26,2.55.29,1.14.04,1.42.34,1.51,1.57.12,1.57,1.02,2.57,2.45,2.96,1.04.28,1.95.67,2.67,1.46.25.27.53.4.91.42.86.03,1.72.11,2.59.14,3.47.14,6.89.64,10.2,1.65,1.37.42,2.7.58,4.08.38,1.26-.18,2.41.03,3.48.69.76.47,1.59.63,2.48.61,1.72-.04,3.45-.11,5.18-.05,2.14.07,4.11-.33,5.85-1.64.41-.31.88-.56,1.35-.76.47-.21.98-.3,1.48-.03.3.17.62.31.94.43,1.03.41,2.06.28,3.02-.17.78-.36,1.52-.83,2.24-1.31.73-.49,1.53-.78,2.39-.92,1.19-.2,2.44-.33,3.49-.95,1.27-.76,2.61-.84,3.99-.73,1.56.12,3.09.17,4.64-.11,1.21-.23,2.36-.5,3.43-1.11,1.32-.75,2.65-.57,3.96.06.31.15.64.27.95.42.66.32,1.35.34,2.02.16,2.01-.52,3.99-1.14,5.78-2.23.8-.49,1.67-.38,2.51-.2,1.02.21,1.98.61,2.83,1.23.57.4,1.15.79,1.64,1.27,1.04.99,2.35,1.37,3.65,1.85,1.35.51,2.64.64,4.05.36,1.75-.33,4.57.2,6.01.99.3.17.64.31.89.54.83.77,1.85.87,2.9.85,1.04-.03,2.07-.13,3.11-.16.69-.03,1.38,0,2.07.01,1.24.02,2.37.32,3.3,1.24.36.35.86.65,1.34.74,2.25.43,4.48.32,6.61-.61,1.6-.69,3.11-1.5,4.48-2.58.54-.43,1.04-.92,1.62-1.3.42-.27.93-.49,1.42-.55,1.55-.19,3.09-.36,4.6-.75.69-.18,1.38-.09,2.03.19.35.14.65.21,1,.1,2.79-.91,5.59-1.8,8.37-2.74.46-.16.88-.53,1.27-.86.51-.46.97-.98,1.47-1.46,1.14-1.12,2.59-1.71,4.03-2.29.46-.18,1.05-.2,1.54-.1,1.58.3,3.07.05,4.57-.43.65-.21,1.32-.37,1.98-.55,1.51-.42,2.93-1.01,4.2-1.95,1.52-1.13,3.09-2.18,4.96-2.73.8-.24,1.52-.81,2.23-1.3,2.02-1.4,4.26-2.25,6.66-2.68.91-.16,1.59-.6,2.17-1.26.57-.65,1.07-1.37,1.8-1.85.19-.28.33-.63.59-.82.68-.52,1.48-.9,2.1-1.47,2.13-1.99,2.11-1.57,4.54-.67,1.05.74,2.23.86,3.46.76.34-.03.69-.09,1.01-.03.33.05.68.17.96.36,1.01.67,2.37.55,3.28,1.44.12.12.22.26.34.39,1.05.18,2.1.12,3.15.01.68-.68,1.36-1.37,2.05-2.05.58-.58,1.26-1.01,2.08-1.15.32-.62.83-.78,1.47-.62.31.08.47.31.52.65l.09.06c1.72.09,3.41.4,5.15.1,1.01-.17,2.07-.04,3.11-.05.69-.01,1.38.06,2.04.27,1.16.38,2.36.52,3.56.65.87.1,1.7.32,2.49.68.8.37,1.67.45,2.54.45,1.06,0,2.03.28,2.98.76.95.48,1.99.55,3.03.37.5-.08.98-.3,1.24-.81.31-.62.66-1.21,1.22-1.65.97-.78,1.57-1.78,1.94-2.98.28-.87,1.04-1.4,1.9-1.62,1.33-.35,2.71-.58,4.1-.52,1.03.05,2.06.19,3.09.32.85.12,1.7-.25,2.55.09.38.16.51.36.51.79,0,.73-.43,1.28-.72,1.9-.34.71-.25,1.53.21,1.9.57.46,1.21.6,1.92.32.16-.06.34-.09.48-.18.33-.22.65-.26.98-.04.57.38,1.12.81,1.72,1.14,1.08.59,1.97,1.38,2.74,2.33.44.54.85,1.1,1.35,1.58.36.34.81.65,1.28.83.8.31,1.66.48,2.47.76.48.17,1.01.37,1.36.71,1.05,1.03,2.39,1.34,3.73,1.67.35.08.61.32.62.7s-.25.64-.6.78c-.15.07-.31.14-.46.24-.53.35-.51.5.1.97.27.21.6.36.82.62.55.65,1.07,1.35,1.59,2.03.46.61,1.07.88,1.8.78,1.02-.14,2.06-.29,3.06-.54,1.24-.32,2.4-.07,3.54.38.64.25,1.3.51,1.84.92.55.4.94,1,.89,1.77-.13,1.85-.04,3.09.41,4.56.15.49.48.94,1,1.1,1.32.42,2.64.82,3.97,1.2,1.51.44,2.86,1.2,4.12,2.13.57.42,1,.97,1.13,1.67.14.68.19,1.37.28,2.05.09.7.27,1.38.75,1.9.86.89,1.33,2,1.89,3.07.68,1.29.65,2.66.56,4.04-.02.33-.13.69-.29.98-1.11,1.94-2.48,3.82-4.86,6.67-.33.4-.75.69-1.25.88-.48.19-.97.38-1.42.63-.3.16-.54.42-.81.63-.38.3-.33.91.14,1.31.26.22.53.44.82.61,1.68,1.01,2.06,2.88.36,4.24.08.66.19,1.31.63,1.85.83,1.02,1.53,2.16,2.52,3.05.69.19.98.63.95,1.35-.02.62.04,1.24.07,1.86l.03.02c.26.16.57.28.77.5.48.53.27,1.35-.37,1.54-.47.14-.95.21-1.42.31-.32,1.24.41,1.93,1.34,2.49.29.18.62.3.95.42.32.11.66.27.99.27,1.96.03,3.68.79,5.38,1.67.6.31,1.3.43,1.71,1.06.32.09.64.19.97.29,1.2-.22,2.42.07,3.61-.06,1.03-.1,2.05-.23,3.09-.21.86.01,1.72.06,2.58.1.68-.06,1.37-.19,2.05-.17,1.74.07,3.43-.11,5.1-.61,1.37-.42,2.68-.13,4.06.19,1.7.39,3.04,1.66,4.81,1.8.92.47,1.83.96,2.76,1.41,1.57.77,2.57,2.25,4,3.21.5,1.34,1.84,2.04,2.5,3.26.24.46.6.82,1.08,1.06.93.45,1.71,1.15,2.75,1.4.47.12.92.47,1.29.81,1.14,1.05,2.19,2.19,3.35,3.22.92.81,1.63,1.75,2.21,2.82.03.05.05.09.09.14l-3.96-2.21-.96-.63-2.93-1.05-.67-.6-1.33-1.54-.75-.41-1.22.27-5.21,3.31-.22.56.26,1.6-.1.59-.03.19-.29.63-1.63,2.53-.22.65-.1.81.1.69.17.64-.04.58-.48.58h0l-.25,1.1.18.93-.02.88-.83.98-.94.54-2.55.89-1.08.2-1.24-.08-3.39-1.3-1.18-.11-2.66.55-1.13.1-1.09-.11-.77.02-.74.21-.99.48-.55.59.3.6,1.29,1.18v.02l.22.46.29,1.05.58.97v.36s-.14.33-.14.33l.02.44.17.41.59.98.05.43-.34.89.05.42,1.27.76,2.19.89,1.89,1.05.4,1.21-.98,1.49-.24.77.45,1.94-.47.58-.8.52-.69.91h0s.27.35.27.35l.15.33.21.76.29.35.45.27.37.31.03.44-.02.41.16.38.21.37.48,1.1.67.74.79.6,2.6.97.24,1.44-1.33,3.56-.2.98.09.62.25.58.24.89-.21.35-.43.34-.15.3.61.25.89.22.38.2.36.32.35.81v1.02s-.24,1.94-.24,1.94l.45,2.49-.06.85-.62,1.98v.57s.15,1.25.15,1.25l-.03.45-.17.8.15.43.45.25.72.27,2.45.35,1.62-.74.62-.1.77.23.7.46.6.67.37.77.02.78-1.1,1.25-1.77,1.09-1.38,1.24.21,2.35-.17.96-.31.96-.31.72-.37.38-.87.29-.41.28-.07.43.4.92-.27.31-.95.36-.64.41-.46.62-.4,1.03-.43.75-1.19,1.06-.45.71h-.01s-.41.64-.41.64l-.3.59-.09.63.24.69.05.62-.44.53-.5.5-.07.18-.14.37.86,1.07,1.71.22,3.18-.29.58.14,1.77.67.53.3.29.45.18.57.28.61.55.55.37.1.34-.09.32-.06.37.23.04.25-.2.78-.03.29.36.56.69.06.78-.22.63-.28,1.34-.13,1.37.5,1.22.85,1.81,1.74.11.46-.5.64-1.7,1.09-.41.43-.22,1.49.99.89,1.11.66.19.84-.45.99-.32,1.21-.09,1.22.26,1h0s.2.84.2.84l-.66,1.46.31.8.66.3,1.82.14.76.45.69,1.41.46.41,1.79-.22.44.45.29.69.41.67,2.83,1.44Z" style="fill: none; stroke: #000; stroke-miterlimit: 10;"/>
</svg>