<?xml version="1.0" encoding="UTF-8"?>
<svg id="a" data-name="Pfade" xmlns="http://www.w3.org/2000/svg" width="1920" height="1080" viewBox="0 0 1920 1080">
  <path d="M633.89,432.53c-4.91.97-10.04.23-14.98-.56-3.08-.2-6.18-.88-9.21-1.18-3.53.09-5.06,4.06-6.71,6.66-2.3,3.49-6.81,6.07-10.87,7.1-6.87.21-13.43-1.22-20.17-2.6-2.19-.38-3.62.25-5.13,1.92-1.79,2.48-2.52,5.91-5.76,6.97-3.63,1.11-8.44.94-10.67-2.55-1.14-1.72-3.28-3.22-2.35-5.43,1.51-3.11,3.32-6.07,5.1-8.94,1.47-1.92,4.03-3.32,4.36-5.9.16-.96.08-1.97.34-2.91.31-1.23,1.76-2.43,3.01-2.54,1.71-.05,3.07.75,4.73-.16,2.19-.83,3.01-2.75,4.25-4.65.83-1.04,1.78-2.14,1.23-3.55-1.8-4.32-7.1-12.51-3.14-16.52.91-.79,2.26-.67,3.37-.34,1.62.45,3.7.78,5.52,1.04,8.89,1,18.17,2.01,27.06,3.19,6.44,2.73,14.03,6.19,20.98,3.6,1.74-.86,2.58-3.2,3.12-5.09,2.5-8.15,4.11-14.84,12.21-19.66,6.38-4.12,8.88-12.79,15.9-15.91,3.12-.89,6.73-.62,9.5-2.62,2.69-1.66,4.48-4.16,7.02-5.8,1.79-.7,4.24-.35,5.96-1.05,1.5-.56,3.17.13,4.75-.08,1.71-.32,2.25-2.65,3.42-3.5.92-.68,2.26-.29,3.34-.62,5.12-2.94,11.1.06,16.68.5,3.81.57,6.67,3.93,10.21,5.09.86.28,1.73.66,2.21,1.48.51.79.52,1.8.14,2.64-.48,1.47-2.67,2.5-2.15,3.92.32.37.73.29,1.24.2,2.25-.77,4.55-1.4,7-1.77,1.84-.37,3.78-.86,5.33-.37,1.09.34,2.15,1.07,3.34.85,1.52-.23,2.64-1.48,4.06-2.01,1.56-.7,3.54-.53,5.28-.99,2.42-.63,4.62-2.03,7.17-2.22,5.26-.75,10.48,1.72,15.76,1.44,4.12-.48,7.69-2.59,11.26-4.44,3.23-.87,6.49-2.01,9.77-2.85,7.43-1.26,14.12-4.56,20.58-8.22,5.42-2.6,11.08-5.04,15.47-9.28,3.36-3.25,5.37-7.6,7.45-11.74,2.22-4.6,5.07-8.92,8.31-12.82,2.82-3.38,5.79-7.03,8.92-10.3,3.18-2.94,6.26-5.75,9.31-8.88,2.69-3.03,3.61-7.5,5.07-11.16,1.92-4.02,3.3-8.06,3.57-12.39.98-6.57.27-12.43-1.91-18.56-1.02-2.74-2.39-6.15,1-7.73,1.13-.63,2.34-1.18,3.56-1.48,1.7-.51,3.78.03,5.56-.32.9-.17,1.66-.69,2.4-1.18,1.23-.85,2.65-1.14,4.13-.9,4.15.63,7.98-.59,12.17-.3,1.7.11,3.7-.05,4.8-1.49,1.64-2.06.94-5.13,2.22-7.36,1.6-3.3,5.66-3.67,8.92-3.44,2.73.1,5.38.13,7.92.89,5.85,1.55,10.17,5.74,14.99,9.26,3.48,2.08,7.06,4.01,10.68,5.78,2.97,1.36,6.16,1.38,9.33,2.22,1.98.53,3.66,1.65,5.52,2.16,2.14.46,4.39.13,6.55.85,3.14,1.13,5.47,3.81,8.74,4.73,3.26,1.02,6.89.8,10.11,2.09,6.04,1.95,12.24.99,18.61,1.07,2.59-.02,5.06-.4,7.46.69,3.68,1.88,7.24,5,10.59,7.48,3.64,3.06,7.13,6.21,9.27,10.5,1.57,2.69,3.55,4.96,4.19,7.98.52,2.42.96,4.74.1,7.02-.81,2.2-2.05,4.5-2.95,6.59-.71,1.63-.1,3.5-.22,5.21-.19,2.49-2.08,4.1-4.2,5.21-1.72,1.23-4.79,1.45-5.45,3.76-.08,3.28-.37,6.81-.08,10.04,1.57,6.6,2.6,13.56.02,19.95-2.59,7.05-11,3.85-16.44,6.52-2.24,1.21-2.91,3.95-4.99,5.42-2.82,2.76-7.21,3.2-10.56,5.17-5.75,4.32-16.99,11.59-13.98,20.05,2.17,4.93,6.24,9.76,12.03,9.93.64.03,1.34-.13,1.87.05.62.37-.09,1.37-.04,1.97-.34,1.58,1.6,1.82,2.8,1.48,1.52-.24,2.92.05,4.45.45,2.17.25,2.09,3.08.85,4.39-1.06,1.26-3.4,1.15-4.87,2.39-2.31,1.72-1.62,5.54.2,7.35,2.22,1.43,5.07,1.49,7.06,3.46.68.56,1.2,1.26,1.46,2.1.49,2.07-.8,3.89.53,5.67.61.98,1.03,2.16,1.03,3.34.08,1.42-.36,3.08.51,4.29.58.98,1.55,1.79,1.81,2.91.19,1.32-.53,2.45-.41,3.81.5,4.35,4.14,7.09,7.24,9.77,1.24,1.17,3.23.78,4.58,1.29,1.47.78,3.38,3.09,5.08,1.36,1.73-1.95.71-5.67,3.17-7.3,1.67-1.13,4.49-.51,6.04-2.12.87-.8.9-2.29,1.98-2.86.57-.29,1.34-.33,1.96-.56,1.45-.29,1.94-2.24,3.2-2.64,2.13-.39,3.56,1.52,5.47,2.43,1.08.56,2.21,1.04,3.17,1.8,2.51,2.12,4.65,4.71,6.8,7.22,3.14,3.14,6.34,6.4,8.32,10.39,1.69,3.13,3.28,6.85,4.42,10.33.74,1.85,2.1,3.62,1.91,5.74.05,2.59-2.59,4.5-1.44,6.94.57,1.14,1.15,2.08.95,3.34-.23,1.06-.4,2.25.49,3.07.87.99,2.61,1.65,3.19,2.87.74,1.49-.16,3.16-1,4.44-2.37,4.26-4.77,6.58-9.88,6.44-7.6.42-12.21-.15-16.53-6.79-1.29-1.49-2.05-3.25-2.88-5.01-1.81-3.02-3.47-6.95-5.21-9.78-2.63-4.31-6.67-7.88-11.49-9.58-4.87-1.41-9.54-2.34-14.7-2.95-2.69-.49-5.82-1.59-8.59-2.31-3.53-.72-7.06-2.06-10.13-4-2.76-1.36-5.53-2.76-7.28-5.36-4.4-5.03-5.22-13.2-11.09-16.94-6.07-2.57-12.98-.92-19.04.52-10.08,1.75-20.16,5.77-30.53,5.21-4.65-.64-8.87-3.81-11.88-7.05-2.21-2.9-4.46-5.72-6.19-8.9-1.57-4.3-5.35-7.24-9.28-9.29-2.34-1.15-5.76-1.56-8.18-2.08-4.98-1.13-9.68-1.3-14.7-1.18-12.15-.02-24.09-.19-36.27.86-2.78.14-3.86,3.19-6.32,4-1.78.59-3.76-.28-5.86-.2-3.49.39-7.02.56-10.51.86-3.96-.33-7.9-.84-11.87-1.26-4.44-1.34-8.87-2.84-13.56-3.65-2.09-.57-4.22,0-6.29-.24-2.4-.59-5.16-.63-7.51-1.02-3.76-.75-7.5.63-11.26.67-2.66-.21-4.51,1.67-6.49,3.18-3.32,2.31-7.3,3.83-11.33,4.17-9.36.78-18.56.39-27.99.33-2.18.04-4.2.76-6.37.71-1.47,0-2.89-.44-4.3-.6-2.32-.32-5.19.71-7.51-.31-1.76-.78-3.82-.72-5.47-1.61-1.53-.98-3.05-1.22-5-.92-.66.11-1.35.09-1.88.48-.56.45.12,1.46-.93,1.83-1.43.58-4.34.33-6.21.79-2.24.44-3.83,2.16-5.63,3.41-2.24,1.65-4.51,3.01-7.41,3.26-3.64.31-7.47-.16-10.65,1.84-1.19.64-2.44,1.4-3.81.98-1.47-.58-2.95-1.15-4.61-.93-4.39.07-8.15,3.43-9.97,7.26-.55,1.17-.96,2.58-2.28,3.08l-.15.06Z" style="fill: none; stroke: #232323; stroke-linecap: square; stroke-linejoin: bevel; stroke-width: 1.47px;"/>
</svg>