<?xml version="1.0" encoding="UTF-8"?>
<svg id="Pfade" xmlns="http://www.w3.org/2000/svg" viewBox="0 0 1920 1080">
  <defs>
    <style>
      .cls-1 {
        fill: #b7484b;
        fill-rule: evenodd;
        opacity: .5;
        stroke-width: 0px;
      }
    </style>
  </defs>
  <polygon class="cls-1" points="1080.85 613.64 1063.93 618.47 1049.18 617.26 1039.51 614.36 1029.36 609.53 1024.04 606.62 1015.33 601.06 1011.22 597.44 1005.9 593.33 997.68 588.01 992.61 581.96 987.53 576.4 983.66 570.36 980.28 568.67 970.36 565.52 957.31 559 955.37 557.79 950.06 552.71 946.19 546.42 946.19 542.07 943.53 534.58 939.18 532.64 928.05 526.11 919.83 520.07 914.27 515.11 910.89 511.97 906.54 505.56 904.97 501.09 905.33 492.87 904.12 485.62 899.53 482.11 893.36 474.86 891.19 471.6 887.68 467.37 884.9 465.19 879.58 463.98 873.66 464.1 868.1 463.13 862.05 460.84 858.18 459.63 845.49 452.62 836.67 449.96 828.69 449.11 816.6 448.39 800.04 449.11 793.27 449.6 782.03 452.62 771.99 454.43 765.34 456.24 750.84 461.08 743.34 462.17 731.98 462.41 721.71 461.68 712.52 460.6 701.15 459.27 693.06 457.45 681.57 456 672.63 455.76 666.7 456.85 663.08 458.9 661.26 459.27 654.37 457.45 652.56 449.6 652.8 445 651.23 440.17 650.26 434 651.23 430.13 647.97 424.93 645.31 422.64 638.29 416.35 630.56 411.15 620.65 405.23 617.87 401.6 617.74 398.22 621.73 394.83 629.83 392.78 636.48 392.3 647 390.97 654.49 389.88 662.47 387.58 674.8 385.28 683.63 383.35 690.52 381.3 693.42 379 693.54 372.59 691.12 363.77 690.76 357.72 692.45 356.03 695.72 349.14 695.23 344.67 693.3 339.83 688.95 331.37 690.52 326.78 696.44 323.63 705.99 323.15 713.49 324.48 720.01 325.69 728.72 326.78 737.06 328.11 744.79 330.28 752.65 330.64 761.11 330.16 766.8 329.07 771.39 328.47 775.62 328.47 789.04 331.61 796.53 333.79 801.49 334.88 802.94 336.69 803.91 344.18 803.3 350.71 802.7 355.31 801.25 358.45 799.07 361.71 796.53 366.43 795.57 371.38 794.72 376.94 795.32 382.99 797.14 386.25 801.61 389.15 807.29 390.48 813.09 390.36 818.05 389.64 820.47 386.98 821.31 383.95 820.47 378.76 819.38 372.23 817.81 365.94 818.41 361.71 819.38 357.72 822.16 353.73 823.85 351.68 828.33 347.21 833.89 343.7 836.3 343.22 839.2 345.63 841.86 350.47 844.16 355.43 846.7 360.5 847.91 363.65 849.12 368.12 849.84 375.98 850.81 380.81 851.29 386.37 854.07 389.64 858.67 391.93 862.66 392.78 873.66 397.37 880.31 399.55 885.99 400.88 891.06 402.93 895.9 404.63 900.01 406.32 903.39 403.78 906.3 401 909.32 396.41 911.25 389.52 913.43 383.95 914.76 378.64 917.54 375.61 922.98 372.11 927.81 366.43 930.84 361.95 930.35 355.31 929.99 355.06 928.66 349.14 928.05 341.28 932.41 336.21 937.6 334.51 944.13 332.22 949.33 329.44 953.2 327.74 959 325.93 963.72 323.88 967.46 320.49 970.12 318.44 973.63 317.71 976.77 319.52 977.74 322.79 978.34 324.84 980.76 325.93 982.09 326.78 983.78 328.47 984.99 330.4 985.84 331.13 986.44 332.94 987.05 333.79 988.74 334.75 990.19 335.48 993.57 336.57 995.63 337.17 997.56 340.92 995.15 343.1 991.88 345.39 985.96 346.72 982.21 347.69 978.1 349.5 975.08 352.28 974.72 353.25 975.56 357.12 979.55 364.01 980.88 366.79 982.45 372.47 982.45 372.95 981.36 376.22 981.73 378.27 981.61 382.02 981.49 383.95 980.52 386.01 981.12 386.98 982.82 387.58 984.75 386.98 986.44 386.37 987.29 386.98 988.98 385.65 990.19 386.74 990.67 390.12 990.43 391.93 986.56 392.9 984.02 393.5 982.94 395.44 982.82 396.89 983.18 399.55 983.66 400.52 984.63 400.88 988.01 401.36 990.91 404.02 992.37 405.35 992.61 409.34 992.61 410.91 994.06 414.18 994.54 415.75 982.82 417.68 977.13 420.34 975.44 421.67 972.66 425.06 979.55 426.14 988.5 431.46 994.54 437.63 998.41 440.89 1004.94 442.7 1012.67 443.07 1019.44 443.19 1026.33 441.62 1034.68 436.9 1039.51 434.24 1043.26 433.52 1045.68 433.52 1051.36 434.97 1056.8 436.3 1066.35 441.01 1069.25 443.91 1071.79 448.51 1073.24 452.5 1072.51 459.39 1073.12 464.46 1074.81 470.27 1081.7 476.91 1084 480.54 1084.36 484.41 1084.24 489.25 1083.88 504.23 1085.45 513.06 1088.23 517.53 1091.85 520.43 1097.17 523.58 1101.04 528.29 1103.82 532.16 1106.72 537.24 1109.65 543.93 1114.13 557.92 1116.37 565.76 1116.65 571.07 1116.93 578.91 1113.57 584.23 1109.09 587.03 1103.22 590.11 1094.26 590.67 1088.94 592.62 1084.74 594.02 1081.66 598.22 1080.27 602.14 1080.85 613.64"/>
</svg>