<?xml version="1.0" encoding="UTF-8"?>
<svg id="Pfade" xmlns="http://www.w3.org/2000/svg" viewBox="0 0 1920 1080">
  <defs>
    <style>
      .cls-1 {
        fill: #b7484b;
        fill-rule: evenodd;
        opacity: .5;
        stroke-width: 0px;
      }
    </style>
  </defs>
  <polygon class="cls-1" points="631.37 427.53 632.58 423.3 638.39 420.28 644.67 420.16 650.35 419.19 660.51 417.26 665.34 414.36 668.85 412.3 673.32 410.01 678.4 409.76 682.27 407.47 686.13 401.06 689.16 396.83 692.3 392.84 697.14 389.82 699.79 387.04 699.43 384.26 694.23 384.62 693.27 382.69 694.36 378.21 692.06 377.12 685.77 377.97 683.72 376.52 681.42 375.19 679.97 373.5 678.64 372.53 675.98 373.26 671.15 373.5 667.76 372.89 665.1 371.08 663.05 370.6 659.42 369.75 657.36 368.9 655.67 366 656.28 363.71 657.97 361.41 661.23 359.11 663.89 357.42 668.49 357.06 672.35 356.94 675.01 354.76 675.74 350.53 674.89 348.6 676.34 346.06 674.89 343.16 674.53 340.13 672.84 337.47 670.18 336.87 669.09 336.51 666.19 334.94 663.65 332.88 660.99 331.31 658.09 329.13 656.64 328.53 657.12 326.6 658.45 325.51 660.63 324.18 663.77 323.09 664.98 323.33 666.07 322.49 668.12 321.4 672.23 322 674.41 321.4 675.74 319.46 678.16 318.86 680.45 318.74 682.39 318.01 684.32 317.53 687.1 317.65 690.12 318.62 693.51 319.58 696.77 321.03 700.04 322.61 702.45 322.73 705.84 322.36 709.1 322 716.36 321.64 724.09 322 730.5 322.73 736.66 323.57 740.17 325.63 745.61 327.8 749.96 328.77 754.56 329.62 759.27 330.46 764.35 331.43 766.4 332.28 771.48 333.97 775.83 334.69 779.82 335.06 783.69 336.75 785.62 337.6 787.56 338.8 790.34 340.98 791.67 344 792.88 346.42 794.08 349.44 794.69 352.46 794.93 355.85 795.41 359.6 796.5 362.26 798.56 365.04 801.94 367.82 805.93 370.48 809.56 371.69 813.06 372.89 821.04 376.04 828.29 378.21 833.86 380.27 838.45 381.96 846.19 383.41 852.11 385.95 856.58 386.67 861.54 388.37 866.25 389.58 870 391.27 876.29 391.63 880.88 392.24 884.87 393.44 889.22 393.93 893.09 394.05 896.11 393.81 899.5 392.96 901.79 391.27 904.94 389.46 908.68 388.25 912.31 387.04 916.54 386.43 919.8 387.28 922.71 387.76 926.45 388.49 930.08 389.58 932.38 390.66 937.09 390.3 941.68 388.73 945.67 387.28 948.09 387.04 949.66 387.04 949.06 388.73 945.07 390.54 944.71 391.75 943.86 394.05 943.14 396.71 943.38 398.88 947.12 399.13 950.51 399.13 951.96 400.94 953.17 402.99 954.5 403.36 957.28 403.72 960.3 404.32 962.48 405.41 961.87 407.23 960.18 408.55 958.73 409.64 959.82 412.06 961.15 412.79 961.39 416.17 960.78 417.98 961.15 419.8 946.04 421.67 943.14 424.69 941.2 426.14 932.5 426.51 930.81 424.57 930.44 420.58 929.6 415.99 925.85 413.81 919.08 412.12 910.86 413.33 906.27 414.78 905.06 419.25 904.21 423.24 903.36 425.78 903 427.11 896.47 425.18 893.69 424.93 890.79 423.36 887.53 423.24 885.35 424.93 878.7 425.66 875.08 425.18 872.78 423.24 872.18 421.67 867.95 418.29 864.32 416.71 857.91 415.99 851.99 419.01 848.72 422.28 845.94 424.45 844.49 425.54 842.68 424.57 840.5 422.03 836.64 420.82 834.22 420.46 829.62 420.95 827.33 421.55 826.24 422.15 817.29 423.73 808.47 423.24 798.32 421.19 788.4 420.7 780.42 420.46 771.24 420.95 764.11 420.7 759.39 421.55 750.57 422.28 746.82 423.48 742.95 424.81 739.44 425.54 733.64 425.66 726.99 425.9 722.88 427.23 717.32 428.44 709.71 429.41 703.18 430.13 696.29 430.74 685.29 429.53 673.2 428.2 665.83 427.84 658.57 426.99 652.05 426.75 643.1 427.11 631.37 427.53"/>
</svg>