<?xml version="1.0" encoding="UTF-8"?>
<svg id="Pfade" xmlns="http://www.w3.org/2000/svg" viewBox="0 0 1920 1080">
  <defs>
    <style>
      .cls-1 {
        fill: #b7484b;
        fill-rule: evenodd;
        opacity: .5;
        stroke-width: 0px;
      }
    </style>
  </defs>
  <polygon class="cls-1" points="550.43 459.02 550.43 449.48 543.4 446.97 554.44 433.92 562.47 423.89 578.53 416.36 595.09 406.82 613.16 398.79 623.7 392.27 634.24 381.73 644.27 371.69 651.8 365.17 660.83 360.15 667.86 357.14 671.88 357.14 673.88 357.14 674.89 350.61 675.89 342.08 671.37 337.06 667.86 335.56 663.85 333.05 658.83 329.54 657.32 327.53 663.34 323.51 678.9 318.5 685.93 317.99 689.44 319.5 696.47 321.51 707.01 325.52 717.04 327.03 723.06 328.03 729.59 329.03 737.12 330.04 744.64 331.54 750.67 331.54 756.19 331.04 764.22 330.04 770.74 329.54 777.27 329.54 786.3 331.54 791.32 333.05 798.85 334.56 807.88 335.06 818.92 333.55 826.45 333.05 834.98 333.05 847.02 330.54 854.05 326.53 854.05 320 851.54 312.47 851.04 305.95 852.04 302.44 854.05 301.93 869.61 307.45 876.63 310.47 887.17 313.48 896.21 316.49 904.74 319 911.76 321.01 921.3 324.52 929.83 325.02 942.38 328.03 950.91 329.03 956.93 329.03 969.48 329.54 982.52 331.54 991.56 337.57 991.56 346.1 979.01 348.11 976 355.63 977.51 360.65 981.52 369.18 982.02 374.2 979.01 379.72 976.5 384.74 986.54 384.24 991.56 386.25 991.56 390.26 990.05 395.28 990.05 400.3 980.02 404.82 975 412.84 975 419.87 977.51 423.38 981.52 427.4 988.05 434.42 998.08 440.45 1014.64 444.96 1027.69 441.95 1039.23 435.43 1054.79 434.42 1065.83 439.44 1070.35 444.96 1071.86 451.49 1071.86 456.51 1072.36 463.03 1073.86 468.55 1077.38 474.57 1083.4 479.09 1088.42 481.6 1092.93 485.11 1095.94 488.63 1098.45 498.16 1102.47 504.18 1106.99 509.2 1111.5 514.72 1108.49 525.26 1105.98 534.8 1104.98 544.83 1104.48 551.86 1101.46 562.4 1094.44 565.91 1085.41 567.92 1077.38 569.42 1072.86 571.93 1070.85 579.96 1070.35 586.49 1068.34 589 1061.32 592.01 1039.74 593.01 1030.2 590 1021.67 590 1008.12 591 1000.09 592.01 993.57 596.52 983.03 598.03 970.48 598.03 964.96 586.99 950.41 579.96 937.86 576.45 929.33 579.46 922.3 565.41 919.79 555.87 913.27 545.84 910.76 542.32 909.76 534.29 909.76 530.28 903.23 526.77 902.73 524.26 900.72 519.24 895.2 514.72 896.1 510.89 894.53 507.06 896.55 502.55 898.36 501.87 898.58 496.01 900.16 493.76 899.71 488.57 886.41 481.58 880.32 477.98 822.39 474.15 806.84 473.02 801.88 471.44 790.37 465.82 773.44 460.23 768.15 458.68 757.9 454.64 745.9 452.07 736.16 451.07 721.05 449.22 713.16 449.56 699.4 448.88 688.4 448.01 678.3 449.39 668.65 450.77 660.69 451.84 655.17 450.16 652.72 446.79 651.81 442.81 651.19 438.83 651.81 434.84 653.18 431.32 653.18 429.03 646.71 423.67 642.97 420.31 638.39 417.26 634.5 414.74 630.68 412.22 627.02 411.53 622.38 411.23 615.7 412.04 612.56 413.66 607.5 417.3 605.64 418.77 602.34 420.6 597.7 424.03 593.91 425.61 589.64 428.91 586.09 430.26 581.45 432.21 577.78 436 576.93 439.3 574.12 442.6 571.57 448.15 571.36 451.32 570.73 452.48 568.82 454.81 566.4 455.97 559.32 457.45 550.43 459.02"/>
</svg>