<?xml version="1.0" encoding="UTF-8"?>
<svg id="Pfade" xmlns="http://www.w3.org/2000/svg" viewBox="0 0 1920 1080">
  <defs>
    <style>
      .cls-1 {
        fill: #b7484b;
        fill-rule: evenodd;
        opacity: .5;
        stroke-width: 0px;
      }
    </style>
  </defs>
  <polygon class="cls-1" points="1009.6 297.91 1011.42 296.51 1017.15 297.07 1021.77 296.51 1024.57 295.81 1024.99 293.85 1026.11 292.6 1027.23 291.76 1028.21 290.22 1028.91 288.82 1029.33 287.7 1029.47 285.46 1027.93 285.04 1026.67 283.36 1028.07 282.24 1030.03 280.98 1033.81 280.14 1038.14 280.56 1041.08 281.4 1044.16 282.38 1046.26 283.22 1047.8 284.76 1047.8 287.84 1047.52 290.36 1047.52 292.46 1047.8 295.11 1048.08 298.33 1049.06 300.99 1049.48 301.83 1050.88 303.79 1052.84 304.49 1056.06 305.61 1058.58 306.03 1060.81 306.45 1061.37 305.89 1062.49 307.71 1063.05 309.25 1064.17 312.19 1065.29 313.87 1066.69 314.85 1068.09 315.69 1071.03 316.11 1073.13 316.66 1073.69 317.5 1073.97 318.9 1073.13 319.88 1072.01 321.7 1070.05 324.5 1067.81 327.3 1066.27 328.7 1064.73 329.68 1060.11 330.52 1057.74 330.1 1053.12 329.4 1050.74 328.56 1048.5 327.02 1047.1 326.04 1047.94 324.36 1051.44 324.22 1052.84 323.52 1053.96 323.1 1054.38 321.84 1054.38 321.28 1056.06 320.72 1056.34 319.18 1055.64 318.34 1052.28 318.62 1050.46 318.62 1048.08 317.5 1047.52 316.52 1047.24 315.55 1046.26 315.27 1045 315.27 1043.46 316.11 1041.22 316.52 1038.84 316.38 1036.74 314.29 1034.51 312.47 1032.27 311.49 1030.87 310.37 1030.17 309.25 1028.07 307.85 1025.27 307.99 1022.89 307.71 1020.93 305.75 1019.53 303.51 1018.55 301.27 1018.13 300.57 1016.73 299.73 1013.37 299.45 1010.44 299.45 1008.9 299.17 1009.6 297.91"/>
</svg>