<?xml version="1.0" encoding="UTF-8"?>
<svg id="Pfade" xmlns="http://www.w3.org/2000/svg" viewBox="0 0 1920 1080">
  <defs>
    <style>
      .cls-1 {
        fill: #b7484b;
        fill-rule: evenodd;
        opacity: .5;
        stroke-width: 0px;
      }
    </style>
  </defs>
  <polygon class="cls-1" points="551.25 450.57 543.26 444.73 539.36 445.12 532.35 450.96 528.06 435.96 528.06 428.75 537.03 415.5 541.31 409.27 543.45 401.67 546.57 396.22 559.62 384.72 569.56 375.57 582.85 363.38 585.5 362.8 594.87 354.27 598.18 352.11 611.44 340.34 618.47 335.48 622.56 330.74 626.55 329.02 629.99 325.03 635.38 319.43 640.33 315.23 643.67 312.32 652.06 307.08 659.42 303.59 666.22 301.38 676.15 298.81 688.29 299.18 697.85 299.54 707.78 298.26 719.73 297.34 733.89 296.05 746.08 295.39 762.98 291.68 776.62 289.03 785.84 286.75 799.61 280.94 804.04 279.3 809.97 276.65 816.92 272.23 823.36 268.56 830.83 263.43 834.27 259.65 838.89 254.19 842.5 249.58 847.45 243.03 849.72 239.5 851.57 237.15 853.08 235.81 855.26 233.54 861.73 229.93 863.29 229.45 868.72 229.57 879.33 234.03 886.08 239.45 899.22 251.15 909.22 257.3 918.27 263.81 926.95 268.75 937.29 276.09 940.24 278.52 944.85 281.95 950.53 287.38 953.31 290.81 961.82 298.88 967.16 306.5 970.46 311.64 975.79 318.44 980.35 325.64 993.75 335.8 998.08 339.42 1000.06 341.87 1001 344.45 1001.58 346.2 1010.58 347.25 1012.17 359.06 1012.9 367.35 1005.54 386.45 999.79 381.63 992.03 380.7 984.81 380.56 980.94 382.84 980 387.38 983.34 387.38 986.82 386.58 990.56 390.19 984.95 393.13 982.27 394.87 982.81 398.35 983.07 399.82 989.36 401.42 992.83 404.63 992.97 407.44 993.49 414.54 995.84 420.81 995.72 426.3 997.27 429.05 1000.73 431.67 1002.76 435.25 1006.46 434.3 1009.8 434.53 1010.75 429.05 1012.9 426.42 1016.24 427.5 1018.63 426.78 1020.3 424.87 1023.99 423.68 1025.78 423.32 1026.02 421.89 1021.49 420.22 1027.1 420.34 1050.46 422.88 1065.21 427.63 1084.22 434.64 1093.47 439.89 1108.22 449.89 1122.47 459.89 1133.72 470.89 1140.98 478.64 1149.58 489.73 1152.21 496.48 1152.59 503.24 1153.34 509.25 1153.34 513.94 1152.77 519.01 1149.21 524.64 1144.7 529.14 1141.89 536.28 1141.08 544.32 1142.08 551.37 1144.9 555.34 1148.07 558.45 1152.39 562.48 1161.47 569.16 1171.34 573.99 1187.62 579.23 1204.32 585.41 1214.38 599.69 1215.35 605.84 1215.35 612.48 1215.45 615.41 1219.45 620.19 1224.24 624.59 1231.27 628.98 1238.49 633.66 1241.05 637.18 1246.24 643.41 1254.27 654.66 1257.65 660.5 1263.95 668.54 1269.07 676.21 1272.99 679.95 1287.9 695.49 1298.43 703.36 1306.69 709.66 1319.65 720.03 1333.15 731 1354.89 741.55 1364.8 753.79 1364.8 764.34 1339.91 784.17 1317.35 806.7 1306.23 816.89 1294.01 825.78 1277.71 827.45 1277.15 821.34 1274.37 816.52 1270.11 812.82 1269.93 815.97 1266.6 814.85 1263.82 810.59 1264.74 806.52 1268.63 810.96 1270.11 808 1267.52 802.07 1262.34 801.33 1256.41 802.07 1256.78 793.37 1255.48 786.7 1241.96 775.77 1233.81 766.33 1231.78 766.14 1231.4 759.29 1226.59 752.25 1235.66 741.69 1220.85 726.3 1210.91 718.31 1188.72 711.56 1176.82 706.41 1171.67 702.86 1167.77 696.47 1161.91 688.31 1158.89 682.8 1151.44 676.95 1144.16 674.11 1135.28 671.8 1129.42 671.97 1114.68 672.71 1106.6 672.31 1090.96 664.35 1072.37 655.19 1058.35 650.34 1044.74 643.74 1037.19 639.83 1029.91 629.99 1022.23 617.19 1016.1 608.45 1012.8 602.78 1003.93 592.3 997.92 586.8 983.97 579.19 972.44 577.23 961.85 575.96 952.2 576.07 941.18 575.96 930.48 576.07 909.76 573.93 895.1 573.23 890.21 568.62 890.15 567.44 888.18 564.44 886.41 564.57 886.47 567.7 884.16 567.98 877.02 560.97 871.23 554.98 869.74 548.99 869.94 544.3 870.08 540.82 868.68 531.33 866.4 525.15 863.45 520.05 858.62 512.93 853.92 507.83 846.67 505.55 834.45 502.6 823.85 500.18 805.66 496.07 792.61 493.23 789.31 489.6 788.04 479.78 790.72 475.1 795.78 470.23 802.37 464.5 810.97 455.61 811.06 452.08 803.61 452.56 787.95 458 777.25 462.11 748.35 469.5 728.86 471.76 707.93 470.53 686.38 470.74 665.65 472.99 649.44 479.15 640.42 482.23 624.8 481.86 611.23 466.18 605.5 457.18 594.3 454.56 585.96 451.87 574.35 450.46 565.92 450.52 561.3 451.27 554.07 452.95 551.25 450.57"/>
</svg>