<?xml version="1.0" encoding="UTF-8"?>
<svg id="Pfade" xmlns="http://www.w3.org/2000/svg" viewBox="0 0 1920 1080">
  <defs>
    <style>
      .cls-1 {
        fill: #b7484b;
        fill-rule: evenodd;
        opacity: .5;
        stroke-width: 0px;
      }
    </style>
  </defs>
  <polygon class="cls-1" points="1047.61 497.03 1044.39 495.5 1041.65 496.47 1039.88 497.36 1038.11 496.23 1036.82 494.7 1034.89 494.13 1032.71 494.46 1029.97 495.26 1027.96 495.75 1022.48 496.07 1018.94 496.31 1017.24 495.02 1015.47 492.68 1013.05 490.83 1009.43 489.14 1005.16 488.82 1003.23 488.98 1000.49 489.78 998.72 490.03 997.1 489.62 996.54 487.77 997.27 486.48 997.75 485.76 998.15 484.55 997.02 482.94 996.3 482.45 996.06 480.6 996.22 479.55 995.65 478.1 994.69 476.49 993.96 475.53 993.8 473.75 993.8 472.14 993.72 470.77 993.08 469.65 992.75 469.56 989.21 469.4 987.12 469.89 985.26 469.16 983.97 467.95 983.17 466.34 982.2 465.13 981.15 464.57 980.43 463.6 980.99 462.72 982.12 461.35 982.85 459.98 983.09 458.21 981.96 456.27 980.67 454.9 978.82 453.94 976.48 452.97 974.23 452.65 973.02 452.08 972.45 451.2 972.86 449.67 973.9 448.62 974.71 447.98 975.19 447.49 975.52 446.28 973.82 444.03 974.31 442.9 975.19 441.61 973.5 440.89 970.92 440.48 970.44 439.76 968.83 438.15 968.02 437.34 968.99 435.41 969.47 435.01 970.36 431.3 971.08 428 972.29 425.98 973.82 424.61 976.64 423.25 979.79 421.55 981.07 420.99 984.22 419.7 987.12 418.57 989.05 417.36 991.87 416.16 993.56 415.67 995.17 415.67 993.88 416.88 993.4 417.36 994.29 418.73 995.33 419.86 995.09 421.47 995.74 422.44 995.82 423.16 995.25 424.37 995.17 425.26 995.74 427.43 995.9 429.77 996.62 430.58 997.35 430.74 997.75 432.91 998.96 433.48 1001.54 433.88 1002.58 435.73 1003.31 436.7 1004.44 436.54 1004.84 435.89 1005.89 435.49 1007.42 436.54 1008.54 436.21 1009.43 435.97 1012.01 436.78 1013.54 438.55 1016.36 440 1019.42 440.32 1024.82 440.32 1028.52 440 1033.35 439.68 1037.38 438.95 1043.59 437.26 1047.77 436.54 1052.85 436.62 1056.31 437.75 1065.09 441.53 1069.52 444.11 1073.47 447.17 1076.29 449.67 1078.55 452.81 1078.79 456.19 1078.95 457.48 1078.39 460.06 1076.45 464.25 1075.49 466.66 1076.05 470.93 1076.77 473.59 1075.65 475.28 1071.3 476.65 1067.03 477.06 1064.45 477.78 1062.19 479.96 1060.02 483.02 1058.97 485.6 1057.04 489.22 1055.99 490.51 1054.14 493.25 1051.56 495.02 1049.3 496.23 1048.66 496.63 1047.61 497.03"/>
</svg>