<?xml version="1.0" encoding="UTF-8"?>
<svg id="Pfade" xmlns="http://www.w3.org/2000/svg" viewBox="0 0 1920 1080">
  <defs>
    <style>
      .cls-1 {
        fill: #b7484b;
        fill-rule: evenodd;
        opacity: .5;
        stroke-width: 0px;
      }
    </style>
  </defs>
  <polygon class="cls-1" points="996.09 556.1 993.71 553.72 993.57 550.92 994.41 548.96 994.27 546.16 992.03 545.32 988.82 544.77 988.68 543.37 989.93 542.11 987.56 541.55 985.6 542.39 983.78 543.79 982.38 543.23 980 541.13 980.84 538.05 980.56 535.67 978.88 533.15 974.4 533.15 969.08 533.57 964.33 533.15 962.65 532.45 960.69 530.35 959.29 529.37 962.09 527.55 964.61 527.13 966.29 525.45 967.4 522.93 968.8 521.12 969.92 520 967.68 517.9 969.5 516.08 971.46 514.96 971.6 513.56 968.94 510.9 969.08 506.98 969.36 504.46 971.04 503.06 968.94 501.52 965.87 498.31 964.89 493.83 961.67 492.43 959.57 493.27 957.19 494.11 953.97 494.11 952.01 494.67 948.93 495.09 945.43 494.25 943.2 493.97 940.96 495.65 939.84 497.89 937.6 498.73 932.84 497.19 931.58 495.79 928.64 495.09 925.98 498.17 924.3 499.43 922.34 500.96 921.64 502.78 923.6 504.04 923.46 505.16 921.36 506 922.2 507.4 922.2 509.5 921.09 510.9 919.97 511.88 918.85 512.44 917.73 513.14 916.75 513.56 914.93 513.98 913.81 514.26 912.55 515.52 909.33 515.94 903.59 515.94 899.95 515.66 900.65 514.68 902.19 513.42 903.03 512.86 906.11 511.04 906.25 507.96 905.27 505.16 902.75 504.04 898.97 504.88 897.16 505.72 896.32 506 895.48 504.18 896.18 502.78 897.3 501.52 897.44 499.98 896.6 497.47 898 495.93 899.11 494.39 899.95 493.27 898.69 489.77 899.81 488.37 902.75 485.85 906.11 485.29 907.93 483.89 909.75 481.09 911.43 478.71 915.49 475.92 917.03 475.08 920.11 472 922.06 470.18 924.3 466.68 925.98 464.44 928.22 462.9 930.46 460.38 932.56 459.82 936.2 459.12 940.54 459.54 942.78 458 943.06 457.86 945.43 454.78 943.76 452.55 939.84 451.15 935.08 448.77 933.68 447.51 931.44 444.29 928.78 443.03 924.72 442.61 925.14 439.95 921.5 439.11 918.99 438.97 916.19 440.79 915.07 442.61 917.59 442.33 919.55 444.57 918.99 446.67 918.85 448.63 917.59 449.61 914.23 448.63 911.15 447.23 908.91 448.91 905.69 449.33 903.03 446.25 902.33 444.15 899.39 444.29 898.55 444.99 892.68 449.75 888.62 451.15 884.84 451.29 882.18 453.11 876.16 453.94 872.25 453.94 870.01 451.99 867.91 450.73 865.39 450.03 863.01 450.59 861.19 447.93 859.79 447.37 858.53 446.25 858.25 444.43 856.57 443.03 854.47 440.93 852.79 438.69 854.47 437.01 857.41 435.61 861.05 434.91 862.87 433.93 864.27 432.95 865.39 431.41 866.65 430.99 868.05 428.34 870.15 424.84 871.83 423.72 874.07 424.7 875.74 425.26 878.26 425.26 880.08 426.52 880.78 426.66 883.16 425.54 884.7 424.84 886.24 424.56 887.92 424.84 889.88 424.56 891 424.84 893.1 426.24 895.48 426.66 897.02 426.66 899.39 427.64 901.21 426.94 901.91 427.36 903.31 428.34 905.97 429.46 908.49 430.72 911.01 430.3 913.95 431.27 918.71 430.99 920.25 430.58 922.62 432.11 924.58 432.25 927.38 431.55 930.04 429.74 930.88 427.78 932.7 426.8 936.48 426.1 939 427.22 941.1 428.2 942.78 429.74 943.06 431.55 941.52 432.95 940.54 433.79 939.28 435.75 939.56 437.57 940.82 438.83 942.22 441.35 943.9 442.19 946.97 443.31 950.05 441.07 951.31 438.97 952.71 438.69 954.53 438.55 956.91 437.15 958.59 436.31 959.99 435.47 962.37 433.65 964.05 433.65 966.85 432.95 968.1 432.95 967.54 434.49 966.85 436.03 969.5 437.01 970.06 437.43 970.76 439.39 971.88 439.95 973.28 439.95 973.84 439.53 974.12 441.21 973.84 442.05 974.12 444.01 974.26 445.97 973.42 446.67 970.48 449.33 971.46 450.31 974.26 452.83 976.64 452.83 979.16 453.39 980.84 454.08 981.82 455.62 982.24 457.44 981.12 458.28 979.3 459.4 978.46 461.22 979.16 463.6 981.82 464.86 982.8 466.26 984.06 468.78 984.9 469.34 986.86 469.34 989.8 469.06 991.75 468.5 992.45 469.76 992.87 472.42 993.29 474.38 993.01 475.64 991.61 476.48 993.99 477.45 994.55 479.55 994.55 480.95 995.81 482.07 996.23 482.49 995.39 485.29 994.55 487.11 996.37 489.49 998.75 490.47 1001.41 490.05 1003.09 488.65 1005.61 488.09 1007.57 489.35 1008.13 489.77 1011.49 490.47 1012.05 491.31 1013.3 493.55 1014.14 493.83 1014.84 494.81 1015.82 497.05 1019.32 498.59 1023.1 498.31 1024.5 497.75 1025.9 496.91 1028.7 496.35 1031.22 496.21 1034.16 495.65 1034.86 495.79 1035.69 496.63 1037.79 498.03 1042.55 497.05 1045.91 497.61 1042.13 499.84 1038.49 500.4 1036.25 500.82 1033.6 501.24 1030.8 502.64 1029.4 503.62 1028.7 506.28 1026.74 505.72 1027.02 508.8 1027.16 511.6 1028 513.7 1029.4 516.5 1031.92 517.34 1033.18 518.46 1034.58 519.16 1034.86 520.56 1033.46 522.1 1033.46 522.65 1034.02 523.91 1035.69 524.19 1037.09 524.47 1035.69 525.87 1035.42 527.41 1035.42 528.53 1033.46 529.37 1031.36 529.37 1031.22 530.35 1027.58 529.37 1026.6 528.53 1024.5 529.23 1022.12 531.47 1022.82 533.01 1022.4 535.39 1021 537.77 1020.58 538.19 1017.36 537.35 1016.24 537.63 1016.8 540.71 1014.14 541.83 1012.75 542.39 1012.33 545.32 1011.63 546.3 1012.33 549.8 1014.42 550.92 1014.84 553.44 1005.19 550.92 1004.21 549.94 1000.85 552.04 998.61 553.3 998.05 554.56 996.09 556.1"/>
</svg>