<?xml version="1.0" encoding="UTF-8"?>
<svg id="Pfade" xmlns="http://www.w3.org/2000/svg" viewBox="0 0 1920 1080">
  <defs>
    <style>
      .cls-1 {
        fill: #b7484b;
        fill-rule: evenodd;
        opacity: .5;
        stroke-width: 0px;
      }
    </style>
  </defs>
  <polygon class="cls-1" points="661.16 449.22 660.06 440.04 662.45 428.48 671.99 411.4 675.11 402.78 675.85 394.33 679.52 389.37 686.31 385.15 692.37 381.11 693.65 375.79 692.69 370.16 691.1 366.05 690.58 360.14 692.48 355.81 701.87 350.86 706.82 344.31 708.51 339.36 708.79 334.06 707.79 330.33 707.38 326.01 707.08 322.08 707.59 317.86 710.4 316.75 712.92 315.14 716.64 313.43 723.69 313.13 730.83 315.94 736.77 318.36 745.82 320.98 750.85 320.77 754.58 320.77 765.11 317.42 774.05 314.3 777.92 315.7 784.27 319.79 789.22 321.61 795.89 319.25 802.03 315.48 808.9 313.04 815.53 311.25 819.48 311.71 826 314.84 832.49 313.68 841.31 304.77 844.01 301.56 849.52 297.95 862.45 297.85 868.55 297.12 876.57 295.42 879.92 292.69 881.03 289.59 884.01 288.1 887.97 287.61 890.7 285.25 892.56 282.28 893.67 280.05 896.15 278.31 899.38 276.21 905.08 274.22 908.17 275.09 911.27 278.19 912.88 284.14 912.76 287.73 911.64 290.71 908.17 292.81 906.32 297.03 906.69 300 909.66 302.6 912.39 304.34 920.32 305.33 922.67 305.33 928.5 305.58 930.73 306.69 929.99 309.92 926.89 312.39 926.89 315.12 926.76 318.09 930.11 321.56 931.97 323.55 934.2 324.41 937.42 324.41 942.13 324.41 943.74 324.41 947.71 323.67 949.81 322.31 951.3 319.33 951.18 316.73 948.82 311.03 945.48 309.42 938.91 308.06 936.93 306.2 939.65 304.34 940.27 301.36 939.53 295.42 935.93 291.2 929.24 287.61 925.77 284.76 927.14 280.92 931.47 281.41 934.82 281.16 938.04 281.41 941.14 282.03 944.73 282.78 947.58 284.39 951.8 285.63 946.34 288.6 947.58 294.92 952.91 297.89 955.76 299.63 957.5 302.23 958.98 304.46 962.33 306.32 964.19 308.8 965.68 309.92 967.78 311.65 968.53 314.25 969.39 315.74 970.51 317.85 970.88 322.06 969.64 324.66 965.68 327.39 960.97 327.88 958.12 328.63 959.6 330.61 961.71 332.22 964.19 333.96 965.55 336.19 967.41 338.54 971.75 341.39 972.74 344.61 971.8 351.02 971.66 355.76 971.12 361.73 971.12 367.83 972.48 373.25 972.48 376.5 970.85 381.11 968.28 383.82 966.11 385.31 965.74 388.54 967.67 390.34 971.28 392.01 973.59 394.33 975.78 397.03 976.17 399.6 976.29 402.05 976.29 405.01 975.14 407.2 975.01 409.26 974.62 411.83 974.36 414.27 974.49 417.75 975.65 419.16 976.81 420.19 980.54 423.28 984.14 424.7 988.65 426.11 992.89 428.69 994.44 433.32 993.41 437.82 993.8 440.91 994.7 443.74 996.76 445.67 999.84 447.86 1002.29 449.28 1007.05 449.41 1008.72 446.83 1009.37 445.42 1011.55 440.66 1013.1 438.6 1015.41 435.25 1017.89 434.92 1022.87 437 1028.2 444.18 1033.86 451.24 1036.96 456.34 1039.76 458.74 1047.01 460.16 1052.19 461.07 1057.64 462.24 1059.97 464.96 1061.52 467.16 1063.34 469.75 1065.15 471.7 1069.17 473.64 1073.06 473.51 1078.89 472.99 1083.69 470.92 1089.91 469.75 1094.45 472.86 1096.65 478.18 1096.21 482.11 1097.66 485.15 1101.14 490.29 1102.95 493.77 1105.92 497.97 1107.97 500.18 1110.94 501.39 1112.52 501.03 1114.88 500.48 1116.94 500.3 1121.19 500.67 1123 502.3 1124.82 505.21 1125.57 507.6 1125.23 510.95 1123.4 513.43 1120.92 515.5 1118.68 515.62 1116.04 514.44 1113.96 513.79 1110.47 514.32 1109.14 520.47 1108.62 522.48 1107.26 524.3 1106.02 526.89 1104.6 530.26 1102.72 532.21 1099.99 535.71 1098.5 537.27 1095.91 538.76 1094.54 541.29 1093.31 544.72 1094.29 546.6 1097.59 548.81 1102.46 549.72 1107.97 549.91 1115.62 550.63 1119.19 551.79 1124.1 554.99 1125.91 557.94 1127.2 561.03 1126.67 563.52 1124.93 564.81 1121.01 564.81 1118.06 563.98 1115.19 562.92 1110.06 562.62 1104.7 563 1097.83 562.85 1094.06 563.15 1089.6 562.85 1085.9 562.24 1083.26 562.01 1081.45 561.11 1079.11 558.69 1077.45 556.13 1075.19 554.01 1073.37 552.28 1071.18 550.39 1068.01 548.5 1064.99 548.5 1063.03 549.71 1060.99 551.37 1059.03 554.09 1056.99 558.54 1058.58 561.86 1060.39 562.69 1057.64 566.75 1055.42 568.53 1052.18 570.69 1051.3 572.72 1051.55 574.56 1053.64 577.22 1062.59 580.66 1066.59 584.02 1069.07 586.06 1070.11 587.93 1067.86 590.13 1063.3 592.11 1056.91 591.87 1042.32 591.63 1036.24 590.61 1033.02 586.95 1030.46 585.48 1027.6 585.04 1025.11 587.17 1026.21 591.34 1026.06 594.85 1025.33 598.22 1024.09 600.05 1022.11 602.47 1016.84 603.79 1012.96 604.52 1008.56 604.3 1005.64 604.3 1000.14 602.98 997.22 597.86 995.98 592.51 994.89 589.91 993.38 586.48 991.05 583.74 986.52 576.47 985.15 571.13 986.39 567.97 991.32 564.96 992.28 560.84 985.56 556.32 976.89 555.08 972.09 551.96 969.13 548.68 966.49 546.2 958.64 542.92 950.48 539.8 945.08 537.73 942.45 535.3 942.48 532.86 943.67 532.25 946.81 531.1 949.65 530.91 952.1 530.47 955.18 529.21 957.76 528.01 961.37 526.61 962.44 524.81 963.29 523.4 963.93 521.9 963.69 519.63 959.3 515.93 956.06 514.24 953.01 511.47 951.63 508.38 953.33 503.86 955.17 502.09 957.64 500.53 959.27 497.92 959.78 494.82 959.17 493.87 954.67 493.05 949.62 493.21 942.99 493.31 937.2 494.57 935.36 496.42 934.26 498.99 933.89 502.52 933.2 507 931.03 509.51 927.56 510.12 922.09 511.68 917.49 514.29 913.2 515.91 905.51 515.39 900.06 513.89 899.71 510.82 900.37 506.86 902.57 495.9 902.72 487.44 901.83 482.54 898.42 477.79 894.71 473.93 890.85 469.77 887.28 465.91 881.2 463.98 875.55 464.87 867.98 467.25 862.05 469.77 857.29 471.55 853.88 476.45 851.95 479.72 850.02 482.99 846.16 485.66 832.09 484.76 817.26 484.96 806.24 484.56 800.63 483.55 795.62 478.54 789.85 472.34 785.88 468.05 777.23 464.29 771.65 461.28 764.18 457.28 757.78 450.45 755.04 443.02 750.43 436.24 748.01 430.74 746.31 427.27 745.34 426.3 743.4 423.39 741.79 422.18 740.58 422.18 739.04 422.18 735.17 423.72 735.17 426.63 734.92 433.09 733.31 435.43 730.64 436.8 712.8 436.78 706.82 437.71 699.52 440.14 696.35 444.25 689.98 447.1 679.46 448.38 668.58 448.83 661.16 449.22"/>
  <polygon class="cls-1" points="1031.12 630.16 1032.32 626.41 1035.59 624.57 1035.75 622.26 1031.44 622.26 1032.24 620.42 1035.91 620.5 1036.87 619.06 1035.35 616.83 1033.52 614.59 1032.88 612.28 1033.6 610.12 1034.95 608.04 1039.58 607.56 1043.82 607.56 1048.69 608.04 1051 607.32 1054.83 606.37 1056.35 604.77 1057.79 603.49 1059.07 602.37 1062.26 602.45 1063.94 603.41 1066.09 605.57 1069.37 607.48 1071.28 608.92 1073.68 610.68 1076.07 611.96 1080.63 614.91 1082.46 615.31 1084.46 615.79 1086.06 617.94 1086.69 619.78 1086.45 620.82 1085.18 622.5 1082.3 623.53 1077.27 623.53 1074.8 623.85 1071.52 625.13 1070.17 626.25 1067.69 629.04 1065.14 631.52 1060.74 634.55 1058.99 635.27 1056.35 636.63 1053.96 636.71 1051.96 636.71 1049.96 636.31 1045.89 634.71 1043.82 634.71 1039.58 634.39 1035.91 633.83 1033.44 633.28 1031.12 630.16"/>
  <polygon class="cls-1" points="863.24 260.37 863.87 257.38 868.74 254.39 874.72 253.14 877.86 252.19 882.42 250.46 885.88 246.22 888.08 245.43 893.11 245.43 896.25 247.95 896.41 251.88 895.47 254.39 893.58 258.01 891.22 262.57 889.18 266.65 886.66 268.54 883.36 271.06 879.43 272.63 875.19 271.53 872.52 269.01 869.84 265.55 867.8 262.88 863.24 260.37"/>
</svg>