<?xml version="1.0" encoding="UTF-8"?>
<svg id="Pfade" xmlns="http://www.w3.org/2000/svg" viewBox="0 0 1920 1080">
  <defs>
    <style>
      .cls-1 {
        fill: #b7484b;
        fill-rule: evenodd;
        opacity: .5;
        stroke-width: 0px;
      }
    </style>
  </defs>
  <polygon class="cls-1" points="801.79 472.98 803.75 466.82 806.96 464.44 814.66 462.76 821.52 461.36 826.56 460.1 830.75 457.02 835.51 452.97 842.93 446.25 849.79 441.07 853 438.13 855.94 435.33 860.14 434.49 863.08 433.23 865.32 431.69 867.98 428.76 871.06 424.56 872.46 423.58 874.42 424.56 877.07 425.54 881.83 425.82 884.63 424.56 886.31 424 890.09 424.14 892.75 425.4 896.67 427.36 897.65 427.08 900.02 426.38 902.12 427.22 904.22 429.04 907.3 430.3 910.94 430.72 914.16 431.41 917.94 431.27 923.39 432.11 926.61 431.55 929.13 430.3 930.81 428.62 933.05 426.66 936.27 425.96 939.35 426.8 941.17 427.78 942.57 429.6 943.27 431.27 941.31 433.23 939.49 434.63 939.21 437.01 942.15 441.49 943.13 442.47 946.76 442.89 949 441.49 950.82 439.25 952.36 438.83 954.88 438.41 957.4 436.45 960.06 435.33 963 433.09 968.03 433.37 967.33 435.33 967.33 437.01 968.45 437.85 969.99 437.99 970.69 439.11 972.93 439.53 974.05 439.95 974.33 442.19 974.47 444.01 972.79 446.25 971.11 448.35 970.83 449.19 972.23 450.59 974.89 451.99 978.39 452.41 980.35 453.67 981.19 454.36 982.17 455.48 982.17 457.02 982.17 457.44 979.79 460.8 979.93 462.9 982.73 465.14 983.43 468.22 986.23 469.48 990.7 468.36 991.54 468.64 992.66 470.6 992.66 474.8 994.2 476.75 994.9 478.15 995.04 481.23 996.86 483.75 995.18 485.15 994.9 486.83 995.32 488.37 997.84 489.49 999.66 489.63 1002.18 488.65 1003.58 487.25 1005.54 487.81 1007.22 489.49 1010.02 490.89 1011.7 491.45 1013.65 492.85 1015.05 494.95 1016.17 497.05 1018.13 497.75 1020.93 497.47 1022.89 497.19 1025.27 495.79 1030.31 496.07 1033.95 494.67 1035.49 496.07 1036.18 497.47 1039.26 497.75 1042.9 497.75 1044.58 496.63 1045.56 497.33 1045 499.01 1039.4 500.96 1035.9 502.08 1030.45 503.2 1027.79 504.74 1026.95 506.98 1026.53 509.5 1027.37 512.44 1028.63 514.68 1029.61 516.08 1031.43 517.2 1032.97 518.04 1034.37 519.02 1035.07 520.14 1033.39 521.68 1033.11 522.65 1034.51 523.77 1036.46 524.61 1037.3 526.29 1034.93 527.55 1033.25 529.65 1030.59 529.79 1028.63 529.79 1026.95 528.39 1024.85 529.23 1022.75 530.35 1022.89 532.87 1022.89 534.69 1022.61 536.79 1020.65 537.91 1017.43 537.21 1016.31 538.05 1016.59 540.99 1014.77 542.25 1013.37 542.95 1010.86 545.74 1010.44 547.56 1011.7 549.38 1014.21 551.48 1014.21 552.74 1012.12 553.44 1007.92 553.44 1007.22 552.32 1006.1 551.62 1004.28 554.42 1004.28 555.26 1005.26 556.52 1003.86 558.2 1002.32 558.76 1001.34 559.04 1002.04 561.84 1002.18 563.8 1003.16 566.18 1003.86 566.74 1006.52 566.46 1007.78 566.88 1006.94 570.65 1005.96 571.49 1004.98 574.99 1002.88 576.95 1002.32 577.51 1003.44 579.61 995.74 578.91 986.65 579.05 978.95 578.63 976.01 578.35 969.85 575.55 967.06 574.01 967.06 571.49 966.92 569.95 964.54 568.83 961.46 567.02 958.38 565.62 958.38 563.94 959.92 562.54 959.78 560.44 958.1 560.16 954.74 559.46 951.8 559.32 952.36 557.5 952.5 556.66 950.82 555.54 946.62 556.24 946.48 554.98 945.22 552.46 944.24 551.34 943.13 549.66 942.71 547.56 944.8 548.26 946.34 549.94 949.28 550.36 950.26 546.72 950.96 543.65 952.92 541.55 953.76 539.73 953.2 536.93 951.1 534.27 950.96 530.77 949.98 529.09 946.48 527.69 946.2 526.15 942.99 522.38 940.89 518.88 938.09 517.62 936.13 516.64 935.85 514.68 935.43 513.42 932.35 513 930.39 512.16 929.55 510.34 927.87 507.68 925.21 508.94 923.95 509.78 922.41 508.38 921.71 510.48 921.29 511.46 919.06 512.02 917.8 512.3 917.24 513.42 915.56 514.12 913.74 513.84 912.62 514.54 912.2 515.94 907.3 516.08 902.82 515.94 899.46 515.8 900.58 514.54 903.1 514.12 905.2 512.86 905.48 511.74 905.06 510.2 906.46 508.52 906.32 506.7 902.96 504.04 901.28 503.9 898.48 505.58 896.25 506.56 893.59 506.84 887.57 506.28 888.27 503.76 890.93 500.96 891.21 500.26 890.09 497.89 888.97 496.35 888.69 491.31 882.53 489.07 880.43 488.37 877.35 489.91 874.7 489.91 870.92 487.95 868.68 488.37 865.88 489.35 862.24 489.49 860 490.75 857.76 489.35 855.52 487.95 851.19 487.53 850.63 485.43 850.21 483.89 847.69 482.07 845.45 481.37 838.45 481.23 829.36 481.93 824.18 481.65 819.42 482.49 813.4 482.21 811.58 480.39 809.62 477.31 806.13 476.48 803.89 476.34 802.77 475.22 801.79 472.98"/>
</svg>