<?xml version="1.0" encoding="UTF-8"?>
<svg id="Pfade" xmlns="http://www.w3.org/2000/svg" viewBox="0 0 1920 1080">
  <defs>
    <style>
      .cls-1 {
        fill: #b7484b;
        fill-rule: evenodd;
        opacity: .5;
        stroke-width: 0px;
      }
    </style>
  </defs>
  <polygon class="cls-1" points="853.28 438.83 854.68 436.03 858.18 435.19 861.68 434.77 864.2 433.65 865.18 431.69 867.14 430.3 868.96 426.8 871.06 424.7 872.74 423.44 874.84 424.98 878.05 425.54 881.13 426.24 883.23 425.4 884.63 424.84 886.59 424.84 890.09 423.72 893.45 425.4 897.23 426.24 899.18 426.1 900.02 425.4 902.12 427.36 904.22 428.76 907.02 429.88 910.38 429.18 912.06 429.88 914.3 430.99 917.8 430.44 920.46 429.74 922.69 431.55 924.37 431.97 927.31 431.13 929.27 430.44 932.35 427.5 935.15 426.38 937.95 426.24 940.75 427.08 942.43 428.48 943.55 430.85 942.29 432.95 940.61 434.07 939.49 435.61 939.77 437.29 941.45 438.83 942.15 441.35 942.71 441.77 944.8 442.61 947.74 442.61 949.84 440.93 951.38 439.53 953.9 438.83 955.72 437.71 957.12 436.87 960.06 435.33 962.16 434.07 964.82 432.81 967.2 432.81 968.31 433.23 967.61 434.77 967.47 436.17 968.45 437.15 970.27 437.15 970.41 438.41 969.57 439.53 972.23 439.25 973.49 439.39 974.75 441.91 974.89 444.29 972.93 446.53 971.67 448.21 970.83 449.75 971.95 451.43 973.21 452.41 976.29 452.41 979.65 452.83 981.19 454.64 982.31 456.04 981.61 459.26 980.49 459.82 978.81 461.36 980.91 463.32 982.59 466.12 983.71 469.2 985.95 469.9 989.45 469.9 991.68 468.78 992.8 470.6 992.8 472.84 992.52 475.22 993.64 477.59 994.48 478.57 994.76 480.67 996.3 482.63 995.46 485.57 995.18 487.67 996.44 489.35 999.52 490.05 1002.18 488.65 1004.42 487.67 1007.36 488.37 1008.9 490.05 1010.44 490.75 1012.68 490.89 1013.51 493.41 1014.49 494.81 1016.87 496.63 1018.55 497.19 1021.07 497.19 1025.13 496.49 1026.95 496.35 1029.61 496.63 1033.39 495.65 1034.09 495.23 1036.88 497.33 1039.4 497.61 1043.6 497.33 1045 497.47 1036.46 501.66 1030.87 501.8 1027.37 503.9 1026.25 506.42 1026.25 509.78 1026.95 512.72 1028.63 514.96 1031.29 517.48 1033.95 519.58 1035.49 520.7 1033.53 521.4 1030.59 522.79 1031.15 524.47 1035.35 526.15 1034.23 528.39 1030.73 529.09 1027.79 528.81 1022.75 529.09 1022.33 531.19 1021.63 533.29 1020.93 536.23 1020.93 536.93 1017.01 536.93 1015.68 538.68 1015.12 540.5 1013.93 541.34 1012.26 541.97 1011.49 544.07 1011.77 545.19 1010.86 546.51 1011.91 549.38 1013.16 550.71 1012.47 552.39 1010.3 552.95 1006.66 551.34 1005.19 550.71 999.94 550.85 997.42 552.74 994.97 555.26 992.17 558.13 987.28 559.88 984.76 561.14 983.08 563.24 980 563.66 979.44 566.46 977.62 567.16 972.44 567.44 970.48 566.32 967.96 562.12 966.15 559.6 965.45 556.24 967.68 554.7 969.64 552.74 968.52 548.96 970.62 546.86 973.28 547.56 974.4 547.84 975.38 544.63 975.94 543.79 981.26 543.37 981.12 541.83 980.84 539.59 980.98 534.41 979.86 533.43 974.82 533.29 968.24 533.29 965.31 533.29 963.35 532.45 962.37 531.19 959.71 529.51 961.39 528.39 964.47 528.11 966.29 526.43 967.13 524.33 968.24 521.96 969.64 520.56 969.5 519.72 968.1 518.04 968.52 516.64 971.18 515.24 971.88 514.4 971.04 513.14 968.24 512.44 968.52 511.74 968.94 508.1 969.22 506.56 968.94 505.72 970.06 504.18 970.76 503.76 971.18 502.08 969.22 501.38 966.99 500.4 966.29 498.59 964.61 497.33 965.73 495.09 964.89 494.81 964.33 493.55 963.63 492.57 960.41 492.71 957.61 493.13 955.65 493.97 952.29 494.53 949.21 494.81 945.85 494.25 943.62 493.83 942.36 494.67 940.54 496.91 938.72 499.15 937.04 498.87 934.52 498.45 931.86 497.19 930.46 496.07 927.8 495.93 926.68 495.23 924.86 492.99 923.6 492.01 922.9 490.61 921.92 489.91 920.39 489.21 920.95 487.53 921.92 485.71 922.06 482.21 920.67 480.81 914.37 480.25 911.43 480.25 912.41 477.17 914.65 475.08 916.33 473.54 916.33 472.7 913.95 470.32 911.43 467.1 910.17 463.32 910.45 460.8 908.63 457.72 909.19 454.64 906.81 454.22 899.53 453.8 894.22 452.97 891.42 452.27 887.92 451.43 885.12 451.71 881.62 453.25 876.86 453.53 874.63 453.53 872.39 453.53 870.43 452.83 869.73 451.71 868.75 450.87 867.63 450.45 866.37 450.45 864.55 450.87 863.01 450.59 862.45 449.47 861.75 448.77 859.93 447.93 859.51 446.53 859.51 445.41 858.39 444.43 858.39 443.31 857.13 442.75 855.31 441.91 854.47 441.63 853.63 440.65 853.35 440.23 853.28 438.83"/>
</svg>