<?xml version="1.0" encoding="UTF-8"?>
<svg id="Pfade" xmlns="http://www.w3.org/2000/svg" viewBox="0 0 1920 1080">
  <defs>
    <style>
      .cls-1 {
        fill: #b7484b;
        fill-rule: evenodd;
        opacity: .5;
        stroke-width: 0px;
      }
    </style>
  </defs>
  <polygon class="cls-1" points="1007.99 485.71 1008.06 484.38 1008.62 482.21 1008.97 481.58 1010.86 481.16 1012.75 481.02 1014.98 480.67 1015.96 479.76 1016.52 476.89 1015.82 476.55 1015.4 474.38 1016.94 472.42 1019.11 472 1021.14 473.33 1022.61 473.96 1024.36 473.68 1027.79 473.05 1030.03 472.49 1032.34 471.93 1033.46 470.46 1033.53 468.36 1033.67 465.63 1032.97 463.81 1035.35 462.48 1038.77 462.06 1039.68 460.38 1042.34 462.2 1044.58 463.6 1045.7 465.21 1046.82 466.96 1049.69 466.96 1053.26 466.61 1055.57 465.7 1057.88 465.21 1060.6 465.7 1062.49 466.68 1067.11 466.89 1069.91 466.47 1072.64 465.77 1074.81 465.91 1075.02 466.96 1077.47 467.87 1078.24 468.71 1079.08 471.23 1080.97 471.51 1083.13 471.3 1085.23 471.37 1085.58 474.24 1086 474.52 1088.24 475.92 1090.83 476.55 1093.84 477.03 1095.87 477.52 1099.44 476.41 1102.73 475.64 1104.2 473.54 1104.61 471.72 1104.34 470.46 1105.59 468.85 1107.97 467.87 1110.7 467.52 1112.38 468.71 1114.2 469.06 1116.09 469.97 1117.49 470.67 1119.59 470.53 1121.55 471.09 1122.95 471.93 1125.26 472 1126.87 473.26 1128.33 473.68 1129.45 474.24 1130.43 476.55 1130.71 478.36 1131.2 479.41 1131.76 480.32 1131.48 481.23 1131.2 482.35 1132.04 483.82 1131.34 485.92 1129.17 487.95 1127.77 489.21 1127.08 490.19 1126.73 491.73 1125.82 492.92 1125.26 494.95 1126.1 496.63 1127.63 496.7 1128.96 496.7 1130.15 495.79 1132.53 494.74 1132.74 495.16 1133.02 498.66 1133.23 500.4 1134.77 502.85 1136.24 502.99 1138.48 502.78 1139.88 502.92 1141.14 504.11 1141.7 505.58 1142.12 507.05 1139.39 507.47 1138.48 507.68 1137.15 508.03 1135.82 508.87 1134.56 509.92 1132.39 509.5 1131.9 511.18 1130.22 512.02 1126.8 512.16 1124.14 512.72 1123.72 513.7 1123.44 515.66 1124.21 517.83 1125.05 519.37 1126.1 521.33 1127.42 522.86 1128.4 523.84 1130.29 524.54 1131.41 524.54 1132.46 525.94 1133.16 527.62 1134.21 528.95 1134.42 530.91 1134.84 533.15 1136.73 533.5 1138.2 534.41 1137.85 536.72 1136.94 537.98 1137.85 539.38 1138.97 540.29 1139.53 541.48 1139.18 543.02 1138.13 543.79 1137.01 544.49 1135.12 544.98 1133.79 544.56 1132.81 543.72 1129.87 543.37 1128.19 543.72 1126.03 544.42 1125.26 545.12 1124.42 545.74 1122.74 545.6 1121.55 544.14 1121.41 542.6 1120.64 541.48 1119.38 540.08 1117.35 538.96 1115.11 538.05 1113.36 537.84 1110.7 538.82 1109.65 538.82 1108.11 538.33 1105.24 538.4 1103.01 538.61 1101.26 538.26 1099.23 537.84 1098.46 538.05 1097.27 538.89 1096.64 539.66 1094.96 540.71 1094.47 541.27 1094.26 543.44 1093.91 544.21 1091.39 544.21 1089.29 542.88 1087.89 541.55 1086.77 541.69 1085.51 542.95 1085.44 544.14 1085.93 545.19 1085.09 545.53 1082.92 545.19 1081.11 545.6 1080.41 546.02 1079.85 547.56 1080.83 549.24 1080.83 550.64 1078.52 551.55 1079.08 552.53 1074.39 553.3 1072.29 552.95 1070.05 552.39 1067.67 552.46 1066.62 552.6 1064.59 551.06 1066.13 549.87 1065.99 547.77 1063.75 546.58 1060.74 546.37 1059.06 545.81 1057.11 545.26 1056.48 543.65 1055.57 541.34 1055.08 538.68 1053.75 536.09 1050.18 535.95 1049.41 535.18 1047.87 533.57 1046.89 531.26 1046.89 530.49 1045.91 528.25 1044.58 527.06 1044.16 525.1 1043.95 522.65 1042.83 521.82 1039.26 517.41 1036.95 516.64 1036.18 516.99 1034.16 515.52 1031.22 512.58 1029.61 511.11 1029.75 509.08 1030.94 507.61 1031.22 507.19 1030.66 505.02 1030.24 503.2 1032.13 501.59 1036.46 501.24 1039.68 501.1 1043.18 499.98 1046.19 498.52 1047.38 496.77 1047.17 495.23 1046.4 494.11 1044.65 493.76 1042.97 493.97 1041.29 495.02 1040.1 495.51 1038.28 495.16 1037.23 494.18 1036.11 493.2 1034.44 492.92 1031.64 493.06 1030.1 493.48 1028.35 493.83 1024.57 493.9 1021.63 493.97 1020.02 494.46 1017.71 494.67 1016.73 493.97 1016.31 492.5 1015.05 490.96 1013.79 489.91 1012.12 487.95 1010.72 487.32 1009.18 486.97 1007.99 485.71"/>
</svg>