<?xml version="1.0" encoding="UTF-8"?><svg id="a" xmlns="http://www.w3.org/2000/svg" width="1920" height="1080" viewBox="0 0 1920 1080"><polygon points="915.26 532.82 914.2 530.69 917.3 529.1 919.12 527.37 920.72 525.82 923.69 524.8 925.15 523.07 925.99 523.07 927.14 522.32 928.47 520.32 929.27 520.06 930.73 518.64 930.87 517.79 932.06 515.62 933.93 515.4 935.65 515.4 938.22 514.74 940.35 513.59 942 512.05 943.19 510.74 943.31 509.49 943.93 508.63 945.07 507.78 945.7 507.32 946.89 506.58 947.52 505.56 948.83 504.19 949.86 503.97 950.71 504.59 951.22 505.27 951.85 505.56 952.76 505.67 954.52 505.67 956 505.67 956.8 505.62 957.65 505.62 958.85 505.05 959.76 503.97 961.64 503.23 963.35 503 965.23 502.71 966.48 503.05 968.19 502.6 968.53 501.86 969.5 501.46 970.52 501.46 971.37 501.97 971.72 502.6 973.99 503.05 975.93 503.45 976.61 502.09 977.24 502.83 978.72 503.91 980.31 503.91 981.96 503.79 983.5 502.77 984.18 501.63 985.49 501.63 986.57 503.05 988.51 503.28 990.05 502.71 990.73 501.92 991.75 500.95 990.84 499.81 989.08 499.24 989.31 498.27 990.16 497.13 993.23 494.97 993.23 493.66 992.1 492.69 990.5 490.99 989.71 490.02 988.25 488.38 987.98 487.8 987.49 486.84 987.48 485.17 988.12 484.31 989.16 483.81 991.47 483.61 993.49 483.79 994.71 484.28 995.49 485 996.79 486.56 997.01 486.99 997.41 487.11 998.45 487.02 1000.76 486.85 1001.14 487.14 1002.59 488.06 1002.96 488.58 1003.22 489.45 1003.45 490.12 1004.06 490.72 1005.25 491.42 1006.4 491.97 1008.34 492.34 1009 493.73 1009.56 496.24 1010.4 498.53 1010.4 501.83 1010.84 505.13 1011.24 508.08 1012.69 508.57 1015.2 507.51 1015.73 506.41 1016.78 505.79 1018.24 505 1019.56 505.4 1022.08 506.3 1023.88 506.39 1024.62 507.31 1026.82 507.7 1027.21 508.23 1028.48 510.02 1030.15 511.34 1031.64 512.22 1033.3 513.53 1034.75 513.88 1037.03 513.36 1039.66 512.79 1044.31 512.57 1046.76 512.57 1049.74 512.47 1051.82 511.36 1052.48 511.97 1053.03 512.57 1053.59 512.93 1054.45 513.28 1055.21 513.28 1056.73 513.13 1057.74 513.33 1059.01 513.53 1061.18 513.38 1061.79 512.12 1062.7 512.37 1063.67 512.98 1064.37 513.43 1064.37 513.94 1063.82 514.24 1063.26 514.29 1062.55 514.65 1061.39 514.7 1060.17 515.1 1060.32 516.02 1060.07 516.37 1059.56 516.72 1057.08 516.88 1056.12 515.86 1054.2 516.07 1054.15 517.18 1054.1 517.89 1053.69 518.14 1052.93 517.79 1051.62 517.79 1048.63 518.14 1047.56 518.8 1046.6 520.12 1045.79 522.45 1045.94 523.36 1045.79 524.56 1044.24 525.66 1044.28 527.56 1044.36 529.07 1044.92 530.14 1045.43 531.01 1046.54 532.39 1047.45 533.78 1048.71 534.41 1052.39 542.25 1053.69 544.07 1054.06 545.73 1054.21 547.83 1053.78 548.5 1052.61 548.84 1052.18 549.34 1051.31 550.01 1049.74 550.48 1047.49 550.69 1044.75 550.26 1043.39 550.51 1041.45 549.03 1041.36 548.13 1040.53 546.78 1039.79 546.59 1037.97 546.78 1037.63 546.22 1037.26 545.85 1036.03 545.11 1034.73 545.79 1033.99 546.44 1032.67 547.21 1031.68 547.86 1028.38 551.45 1026.38 552.88 1024.12 554.49 1024.38 557.72 1021.98 562.48 1019.01 564.23 1017.6 566.34 1015.85 568.26 1014.27 572.29 1018.66 573.87 1020.23 577.9 1020.23 579.83 1019.01 581.41 1014.98 581.93 1012.17 582.28 1007.44 582.98 1004.64 584.91 1000.08 587.19 994.47 589.64 990.97 589.64 983.43 589.82 977.3 586.49 976.43 583.68 972.92 579.3 971.69 576.67 968.36 575.97 963.81 574.4 962.76 571.94 960.83 568.26 955.22 569.49 950.46 562.72 948.18 560.92 943.26 556 939.29 551.55 935.09 548.43 930.53 545.31 926.92 540.5 925.72 538.34 922.84 536.54 918.88 536.66 915.26 532.82" style="fill:#8d5a99; fill-rule:evenodd; stroke-width:0px;"/></svg>