<?xml version="1.0" encoding="UTF-8"?><svg id="a" xmlns="http://www.w3.org/2000/svg" width="1920" height="1080" viewBox="0 0 1920 1080"><polygon points="904.6 351.22 904.41 346.42 901.38 346.27 901.02 346.56 900.54 347.08 899.33 347.84 897.72 348.01 894.57 345.47 893.61 344.74 891.87 344.42 890.95 345.39 889.98 346.64 889.21 346.64 887.6 345.15 887.68 343.94 887.52 342.73 885.83 340.35 884.5 338.58 882.69 337.77 880.55 337.69 878.46 337.73 877.05 338.46 876.36 339.3 874.67 340.43 873.38 341.2 871.97 341.04 870.44 340.75 869.35 339.79 868.67 339.5 868.02 339.5 866.85 339.63 865.97 340.39 865 340.31 864.19 339.71 863.95 338.22 863.87 335.84 863.87 334.75 863.95 333.06 864.36 332.13 865.04 331.33 866.33 330.88 866.93 329.96 867.74 328.75 867.05 327.82 865.69 327.06 864.83 326.19 863.96 325.81 863.54 325.17 863.24 324.69 861.97 324.03 860.6 323.94 857.3 323.99 855.04 323.78 852.81 323.78 851.63 323.31 850.68 322.59 849.34 320.63 849.19 319.86 847.38 318.65 845.18 318.05 843.37 317.34 841.91 316.1 841.07 315.53 839.72 314.63 839.21 313.9 839.12 312.21 840.04 311.06 841.31 309.67 840.85 308.83 838.96 308.15 836.58 307.64 836.22 307.07 835.93 305.12 836.36 303.53 835.42 302.29 832.67 301.31 832.67 300.61 835.21 300.41 837.02 299.96 838.04 299.18 839.19 298.36 841 298.36 844.12 298.56 845.88 298.52 849 297.04 851.22 296.18 854.91 296.22 857.21 295.73 857.41 295.11 858.56 294.25 860.53 294.13 862.33 293.43 863.15 292.28 864.51 292.28 865.66 292.32 867.87 291.75 868.69 291.75 870.33 291.67 872.47 291.59 874.76 292.91 876.06 293.84 876.62 294.21 877.22 294.86 878.65 296.75 880.6 296.75 881.71 296.34 883.84 295.32 886.29 294.07 888.7 293.24 890.14 292.31 891.99 291.71 894.96 291.21 896.99 291.07 897.71 290.05 898.43 289.69 901.33 290.99 902.85 291.21 904.88 291.28 907.34 291.65 906.54 293.75 906.69 296.71 907.55 298.3 908.93 299.32 909 300.48 908.64 301.92 907.99 303.66 909.29 305.18 910.38 307.35 912.33 308.29 913.63 309.23 915.08 310.1 917.69 311.26 919.06 311.48 920.22 311.69 922.54 312.64 923.69 313.87 925.94 315.82 930.8 316.96 933.77 317.41 936.14 316.82 938.51 316.96 942.96 318.89 945.63 318.89 949.93 322.15 952.3 322.15 953.19 324.08 953.19 326.6 952.75 328.83 949.78 329.27 947.85 331.2 946.07 331.35 945.63 329.57 943.7 329.57 941.48 329.86 941.48 332.24 943.26 334.61 943.4 336.24 943.7 339.21 945.18 341.43 950.08 343.06 950.08 345.14 948.59 346.92 948.74 349.58 949.19 351.07 949.63 352.85 950.97 355.22 953.85 357.84 954.49 358.92 954.81 361.06 953.52 362.57 953.52 363.96 954.17 366.75 953.74 368.79 948.37 366.86 945.69 367.18 943.54 366.97 941.93 367.93 940.32 368.26 939.25 368.26 937.21 367.61 936.78 366.97 934.52 366.86 930.23 366.97 924.65 366.97 922.07 367.72 918.42 368.47 915.74 371.58 914.88 372.98 913.91 374.7 911.87 374.91 909.41 374.91 905.97 374.8 903.61 371.91 900.07 371.91 898.99 370.19 896.52 369.54 897.81 366.22 899.85 366.22 900.07 364.71 899.21 363.53 903.61 361.6 904.68 360.53 905 357.95 909.51 357.74 912.2 356.88 914.56 356.23 918.21 354.3 923.15 352.8 922.29 350.22 919.93 350.33 918.1 350.33 913.91 349.58 912.73 348.29 908.76 349.26 907.69 350.76 904.6 351.22" style="fill:#8d5a99; fill-rule:evenodd; stroke-width:0px;"/></svg>