<?xml version="1.0" encoding="UTF-8"?><svg id="a" xmlns="http://www.w3.org/2000/svg" width="1920" height="1080" viewBox="0 0 1920 1080"><polygon points="831.1 404.51 827.66 403.01 825.57 402.27 826.32 400.92 827.81 399.58 830.06 399.13 831.7 396.59 832.15 394.94 832.6 393 832.45 390.46 830.2 388.51 827.51 386.12 826.32 383.43 825.87 381.49 823.03 379.99 819.74 379.4 820.34 376.71 820.34 374.91 820.64 372.97 822.13 371.32 824.23 371.17 824.82 374.31 827.21 375.21 830.06 375.06 832.3 374.02 834.39 372.22 835.74 371.47 837.83 365.94 837.68 363.1 836.03 361.31 834.54 358.92 834.39 357.27 837.08 356.38 839.32 356.97 842.61 356.82 843.96 355.63 845.6 355.63 846.8 356.82 847.99 356.97 849.94 356.97 851.43 356.82 853.08 355.78 853.22 353.54 852.78 351.89 850.68 350.1 850.68 348.9 852.93 347.11 856.66 346.96 858.01 347.26 859.5 348.9 860.4 349.95 862.04 351.14 864.59 352.79 866.83 353.54 868.77 354.73 870.27 355.48 872.51 357.57 872.66 359.37 872.96 360.71 868.92 360.71 865.03 360.71 863.84 361.61 863.24 361.76 861.89 362.36 859.35 362.5 857.56 363.25 857.71 365.94 858.01 367.14 860.1 368.19 858.61 369.68 855.62 369.68 855.62 372.22 851.88 374.31 848.14 374.31 846.35 376.41 847.84 378.05 851.28 377 853.82 375.36 854.27 375.36 856.51 375.21 858.31 375.36 859.35 378.05 862.19 378.05 864.14 376.56 866.08 376.86 870.42 377.45 871.31 379.1 873.85 379.25 876.24 379.1 878.19 377.3 879.53 377.3 879.98 380.44 879.98 383.13 879.98 385.38 880.13 387.77 879.98 390.16 879.23 391.8 878.04 393.75 876.69 394.64 875.95 395.99 874.6 398.23 873.26 399.28 872.21 399.88 871.16 400.92 870.27 401.82 867.72 402.72 865.18 402.42 861.6 402.42 860.25 401.22 858.46 400.47 852.63 401.22 848.59 400.77 846.8 401.07 845.6 401.07 843.66 402.12 842.01 403.16 839.17 402.86 837.23 402.42 834.69 403.91 831.1 404.51" style="fill:#8d5a99; fill-rule:evenodd; stroke-width:0px;"/></svg>