<?xml version="1.0" encoding="UTF-8"?><svg id="a" xmlns="http://www.w3.org/2000/svg" width="1920" height="1080" viewBox="0 0 1920 1080"><polygon points="771.34 440.85 773.85 437.67 775.18 434.74 775.18 433.07 775.02 431.65 774.35 429.81 773.6 428.64 771.59 426.3 770.67 424.12 772.09 422.53 774.68 420.69 774.6 418.6 773.76 417.01 772.76 416.01 772.01 415.09 772.01 414.42 772.17 413.25 775.35 411.99 775.52 409.99 774.35 408.73 774.26 407.64 782.21 409.99 784.8 411.66 786.64 411.83 789.49 412.41 793.25 412.5 796.18 412.5 799.86 413.92 803.37 414.34 805.71 413.5 807.97 414.17 810.65 414.75 811.98 414.17 814.16 414.08 815.83 414 817.59 414 819.35 414 819.35 412.58 820.01 411.83 821.85 410.74 822.94 409.07 822.61 407.39 820.35 405.97 820.6 404.72 821.27 403.55 823.78 402.88 825.7 402.37 831.39 405.39 834.73 404.63 837.83 402.88 842.51 403.8 844.94 402.29 847.28 401.45 849.37 401.45 852.97 402.12 853.72 401.87 855.06 401.54 855.64 401.54 856.31 401.54 857.32 401.54 859.24 401.87 860.75 402.79 863.84 402.88 866.92 402.93 868.02 402.97 869.47 402.66 870.13 403.54 871.01 403.98 872.91 405.52 873.61 406.05 873.7 406.71 873.79 407.24 874.49 409.14 876.87 411.65 877.53 412.22 880.22 413.54 881.1 414.2 881.24 415 881.06 416.23 881.06 417.11 881.72 417.91 883.59 419.63 884.13 420.43 885.13 421.11 886.17 421.58 886.68 421.68 888.45 422.3 888.92 422.42 889.47 422.54 890.92 423.09 891.59 423.48 891.59 424.15 891.59 424.89 891.62 426.06 891.59 427.4 891.55 428.41 891.59 429 891.9 430.14 892.06 431.94 892.09 432.92 891.9 433.9 891.74 434.72 891.31 435.46 890.84 437.46 891.55 438.48 891.86 438.87 891.98 439.85 889.24 442.47 887.83 443.61 886.57 444.16 884.42 444.23 883.13 444.04 882.5 443.53 882.11 443.61 881.44 443.8 880.46 444.78 879.84 445.06 878.23 445.25 877.37 445.33 876.67 445.6 875.84 446.07 875.02 447.33 873.83 449.05 870.43 450.07 866.99 450.29 865.68 450.29 864.36 450.73 862.46 451.68 860.41 453.29 859.46 454.16 858.44 455.04 857.78 455.99 858.22 456.8 860.34 458.48 860.05 459.57 855.81 459.28 853.17 460.52 846.23 459.9 844.71 458.29 844.01 458.75 842.98 459.2 841.13 460.31 840.18 461.13 837.01 461.75 830.69 461.51 826.79 462.48 825.36 462.09 824.06 461.77 819.97 460.99 818.21 460.66 816.65 460.53 815.22 460.6 812.62 460.99 811.13 461.44 809.31 462.42 807.27 463.39 807.15 464.49 806.54 465.59 805.81 466.57 805.07 467.48 804.1 467.91 802.63 468.28 800.8 469.25 797.5 469.74 795.55 470.05 794.02 471.33 791.95 471.82 789.63 471.69 787.8 471.88 785.11 471.82 782.79 471.02 782.12 469.13 779.98 468.95 777.66 469.44 776.19 469.62 772.17 468.03 772.84 466.44 773.75 464.86 774.36 462.96 774.73 461.68 774.79 459.73 774.12 456.74 773.81 455.15 772.84 453.32 771.86 451.42 771.13 448.62 770.46 444.16 771.34 440.85" style="fill:#8d5a99; fill-rule:evenodd; stroke-width:0px;"/></svg>