<?xml version="1.0" encoding="UTF-8"?><svg id="a" xmlns="http://www.w3.org/2000/svg" width="1920" height="1080" viewBox="0 0 1920 1080"><polygon points="666.63 327.44 671.43 324.18 678.55 320.93 680.72 322.48 685.99 320.16 689.39 317.52 694.82 317.99 696.98 315.97 697.76 316.09 698.41 316.27 699.47 317.4 701.08 317.93 703.09 317.28 705.23 316.51 708.6 316.27 712.16 315.44 713.88 315.2 715.48 315.44 716.96 312.42 719.04 312.6 721.41 312.77 723.49 311.53 725.2 310.4 728.11 308.68 730.42 307.5 733.94 307.02 736.3 306.61 738.56 306.56 739.77 305.96 741.76 305.17 744.07 304.85 744.44 304.53 752.93 304.14 755.08 304.57 756.01 305.63 757.58 307.39 759.26 308.83 759.69 309.77 759.84 310.63 759.45 312.31 758.28 313.95 757.34 315.08 756.83 315.94 756.56 317.35 757.07 318.4 758.01 319.69 759.72 322.23 760.12 323.25 760.19 324.62 759.18 325.55 758.94 326.65 759.92 327.78 760.9 328.02 761.95 328.37 762.38 329.11 762.26 330.4 761.52 331.14 759.48 333.82 758.16 335.42 756.75 336.27 754.96 337.58 752.61 338.43 748.09 340.69 746.03 341.72 744.61 342.57 742.07 343.51 740.29 344.64 739.06 344.36 737.84 343.41 737.56 344.45 736.81 348.21 734.27 349.62 732.48 350.38 729.85 350.94 728.34 351.03 726.08 351.6 723.45 352.26 721.85 352.44 720.53 352.92 716.58 354.04 715.74 354.89 714.98 356.68 714.51 358.37 714.04 355.27 712.92 354.7 710.66 355.74 708.96 355.36 709.34 353.95 710.66 351.97 708.12 351.97 707.08 353.86 704.54 353.67 704.17 353.01 704.17 351.6 703.89 350.56 701.91 349.72 699.93 349.72 699.65 347.93 698.05 347.84 696.55 347.46 694.39 346.99 692.6 346.05 690.43 346.05 689.31 346.14 687.8 345.39 686.39 345.48 684.04 347.08 682.91 347.08 681.5 346.99 680.46 345.86 679.62 344.73 679.52 343.41 681.12 343.13 681.97 342.47 682.16 341.53 680.93 340.88 679.99 339.84 680.28 338.05 680.46 337.21 680.37 335.33 680.09 334.48 679.34 333.26 678.96 332.79 677.08 331.47 674.82 331.47 673.03 331.47 672.94 330.25 672.09 328.65 671.15 328.55 669.46 328.37 667.3 328.37 666.63 327.44" style="fill:#8d5a99; fill-rule:evenodd; stroke-width:0px;"/></svg>