<?xml version="1.0" encoding="UTF-8"?><svg id="a" xmlns="http://www.w3.org/2000/svg" width="1920" height="1080" viewBox="0 0 1920 1080"><polygon points="870.36 401.61 874.06 399.49 876 397.2 877.23 394.21 878.82 392.62 879.7 390.86 881.11 387.33 884.64 387.86 886.05 390.33 888.51 391.38 891.34 392.09 893.1 392.97 895.92 392.97 899.45 391.38 901.74 391.91 904.03 390.33 905.97 388.92 908.44 388.04 912.49 387.86 914.08 386.8 914.96 384.33 914.61 381.86 914.61 380.9 914.41 380.13 914.22 378.49 914.03 375.59 915.28 373.75 917.79 370.86 919.63 369.51 922.62 368.25 925.03 368.25 927.35 367.96 930.15 367.96 933.24 367.86 934.59 367.96 935.66 368.25 936.81 368.64 937.78 369.41 939.23 369.41 941.26 368.73 941.84 368.44 942.41 368.06 944.83 367.86 946.76 367.86 949.56 367.38 951.2 368.06 952.26 369.02 954 369.7 955.35 369.89 955.93 371.05 955.93 372.98 955.45 375.11 955.06 376.46 954.87 378.58 954.77 380.32 954.87 381.19 955.16 382.35 957.19 382.73 959.51 382.73 960.76 382.73 963.85 383.22 965.2 383.41 965.2 384.86 964.91 386.11 962.59 386.79 961.24 386.89 959.41 387.75 959.6 389.01 960.08 389.98 960.47 390.84 960.08 391.91 958.64 393.55 958.35 394.22 957.57 394.32 956.9 394.42 956.13 395.67 955.93 396.54 955.64 397.51 955.16 399.53 954.1 401.95 952.17 405.04 951.59 405.71 951.2 406.58 951.49 408.03 953.33 408.61 955.16 408.61 956.7 408.61 958.54 409.19 959.12 412.09 959.99 412.47 961.63 413.63 962.69 413.83 964.53 413.83 966.46 413.54 969.35 413.73 970.13 414.6 971.63 417.21 969.46 417.65 967.59 418.51 967.59 420.24 969.03 421.1 971.48 422.26 971.34 424.42 971.34 425.14 971.19 426.29 970.76 427.3 969.18 427.74 968.17 428.17 968.17 429.18 969.32 430.19 975.23 433.07 976.82 434.37 978.11 435.81 979.99 436.38 979.99 438.55 979.7 439.84 979.12 440.71 977.97 441.43 976.1 440.85 973.79 440.85 971.05 440.85 967.59 441.43 965.43 441.86 963.99 442.29 962.55 442.29 961.54 443.01 960.24 443.3 959.37 443.59 957.64 444.02 956.2 444.74 955.77 444.89 954.91 444.89 952.46 444.89 951.3 444.02 950.01 443.45 947.7 443.3 945.54 443.01 944.24 443.01 941.21 443.01 939.19 443.01 938.04 442.58 938.04 439.7 937.03 438.4 935.16 437.25 932.56 436.24 930.83 435.95 928.24 435.52 926.65 435.95 922.62 436.53 920.6 436.38 918.58 435.95 917 435.52 915.12 435.52 911.81 435.52 909.5 434.94 905.61 434.8 904.02 434.8 902.58 435.09 901.28 435.09 899.84 434.94 898.69 434.08 894.65 432.92 892.2 432.2 891.63 428.31 891.63 427.3 891.63 425.43 891.63 423.12 890.76 422.69 889.46 422.26 888.02 421.97 886.29 421.1 884.27 420.1 881.54 416.92 881.54 416.2 881.82 414.47 881.1 413.32 879.95 412.89 878.8 412.17 878.08 411.74 877.07 411.3 875.05 409 874.91 405.83 872.31 403.66 870.72 403.42 870.36 401.61" style="fill:#8d5a99; fill-rule:evenodd; stroke-width:0px;"/></svg>