<?xml version="1.0" encoding="UTF-8"?><svg id="a" xmlns="http://www.w3.org/2000/svg" width="1920" height="1080" viewBox="0 0 1920 1080"><polygon points="946.92 318.72 946.75 316.68 948.37 315.66 950.23 315.32 952.02 314.22 953.2 313.03 954.73 312.02 956.26 310.49 956.68 307.94 958.38 307.18 959.65 304.46 961.01 304.04 962.46 303.95 964.41 303.87 965.6 302.68 967.21 301.32 968.4 302 967.97 304.38 968.57 305.48 969.24 305.57 970.09 305.82 970.32 307.67 971.03 308.08 971.73 308.49 972.38 309.73 974.43 310.32 976.2 310.55 977.02 311.61 978.43 312.72 979.07 313.66 979.72 314.49 980.07 315.37 980.6 316.25 983.3 316.6 984.77 317.13 985.18 319.01 987.15 322.15 989.08 324.29 989.94 325.9 990.37 327.07 992.08 328.25 994.22 329.22 995.94 330.29 997.54 332.32 997.76 334.04 997.97 336.28 998.4 337.78 999.15 340.35 1000.22 343.35 1000.22 346.14 1000.65 348.6 1000.65 350.42 1001.08 352.56 1002.36 355.03 1001.29 356.85 999.26 357.38 996.9 358.35 994.33 359.53 991.76 360.49 989.51 361.13 988.97 362.1 987.37 363.27 985.74 369.13 985.28 370.23 984.63 372.06 984.27 374.18 983.99 377.02 983.44 379.59 982.34 381.8 980.41 382.44 978.67 383.54 974.9 383.82 968.11 384 966.64 383.54 965.54 382.81 960.76 381.7 958.19 381.8 956.82 381.8 955.62 381.8 955.62 380.05 955.9 377.02 956.54 375.28 957.18 371.7 956.54 369.49 954.7 368.02 954.24 363.43 955.44 361.6 955.44 359.12 954.15 356.92 950.94 353.98 950.57 352.05 949.93 349.48 950.3 346.63 952.32 344.89 951.58 343.69 949.93 342.78 947.17 340.48 945.89 338.55 944.97 336.26 943.78 333.78 942.68 331.76 944.51 330.66 945.89 331.58 946.99 331.94 948.64 331.85 949.65 330.93 951.21 329.65 952.32 329.65 953.51 329.28 953.51 327.35 954.15 326.16 954.15 324.14 953.6 322.21 952.22 321.75 949.47 321.57 947.82 319.64 946.92 318.72" style="fill:#8d5a99; fill-rule:evenodd; stroke-width:0px;"/></svg>