<?xml version="1.0" encoding="UTF-8"?><svg id="a" xmlns="http://www.w3.org/2000/svg" width="1920" height="1080" viewBox="0 0 1920 1080"><polygon points="677.27 443.06 676.44 432.69 677.8 427.26 679.7 424.27 682 423.05 683.5 422.78 686.76 421.02 689.2 419.93 692.32 419.66 694.49 418.44 696.93 416.95 698.7 416.13 701.28 414.5 704.13 413.28 708.2 411.52 712.27 410.7 716.89 409.62 718.65 408.67 720.14 408.67 722.04 408.4 725.98 408.4 728.01 408.8 729.78 410.3 732.22 410.84 735.75 410.84 738.74 410.84 739.82 412.2 741.04 413.42 741.45 414.37 743.76 414.77 745.52 414.77 747.56 416.27 747.83 417.76 750.41 418.17 751.36 420.07 751.36 422.1 751.36 423.6 752.72 425.09 753.8 426.85 754.07 428.75 754.07 430.25 754.35 432.15 754.62 433.5 755.84 435 758.15 436.76 760.72 437.58 762.76 438.39 765.2 439.07 768.46 439.34 769.41 440.29 770.5 440.43 769.95 443 769.55 445.04 769.55 447.35 770.09 448.98 771.04 450.61 771.72 452.23 772.67 453.86 773.48 456.03 773.62 458.75 773.21 460.51 772.67 462.68 772.12 464.99 771.31 467.03 770.36 468.79 769 471.1 767.92 471.91 766.7 472.19 764.12 473.14 761.95 473.68 760.86 474.9 759.77 475.99 758.82 478.16 758.01 479.11 756.79 480.6 755.16 481.96 753.4 484.4 750.68 484.81 747.42 485.08 744.03 485.35 740.64 485.62 737.24 485.76 733.99 485.76 732.49 484.4 729.91 482.91 727.06 480.6 724.35 478.97 722.59 477.07 721.09 475.17 718.92 471.91 715.94 466.62 715.26 464.86 715.12 464.18 714.99 460.11 714.99 459.16 714.99 456.58 715.26 452.91 715.39 450.74 715.39 449.25 715.39 447.89 713.63 448.03 709.96 448.16 705.62 448.03 702.09 447.35 697.61 445.31 693.41 445.04 689.61 444.36 683.23 443.28 677.27 443.06" style="fill:#8d5a99; fill-rule:evenodd; stroke-width:0px;"/></svg>