<?xml version="1.0" encoding="UTF-8"?><svg id="a" xmlns="http://www.w3.org/2000/svg" width="1920" height="1080" viewBox="0 0 1920 1080"><polygon points="892.78 433.15 895.67 434.32 897.54 434.95 899.1 435.18 899.73 435.65 901.13 435.8 902.38 435.18 904.8 435.34 906.36 435.1 908.07 435.65 909.95 436.12 912.36 436.35 913.85 436.35 915.64 436.43 916.73 436.51 917.67 436.74 919.23 436.97 921.65 436.97 924.14 436.74 926.25 436.35 928.59 436.27 930.31 436.35 931.94 436.82 934.6 437.91 935.77 438.53 936 439.55 936.08 440.02 936.23 440.95 936.62 442.12 937.95 443.29 939.98 443.84 941.85 443.99 944.43 444.07 947.23 444.07 949.89 444.54 951.21 445.55 953.32 446.72 954.96 446.57 957.14 445.09 959.56 444.31 961.66 443.76 965.33 443.21 968.37 442.2 970.48 442.2 973.68 441.73 976.95 441.97 979.68 442.67 980.93 443.37 980.39 444.7 979.68 446.49 979.92 447.51 980 448.29 980.54 449.22 981.95 450 984.21 450.39 985.77 450.7 986.08 452.26 986 453.75 986.24 455.46 986.94 456.55 987.72 457.41 987.56 457.8 987.25 458.11 986.24 458.82 984.68 460.14 984.13 460.92 983.58 462.79 984.6 463.96 988.01 464.63 990.28 464.63 991.76 466.79 994.49 466.91 995.51 468.38 995.51 469.97 994.6 474.63 992.44 475.54 993.12 477.25 995.74 479.41 997.21 480.54 998.46 481.34 999.37 481.91 1000.74 482.25 1002.33 481.79 1006.53 481.68 1007.33 483.38 1007.9 485.54 1007.9 487.7 1007.9 489.41 1006.76 491.57 1004.49 490.32 1003.8 489.07 1003.12 487.93 1001.08 486.68 997.55 486.79 995.28 483.73 993.69 483.27 991.87 483.04 987.67 483.5 986.76 486.34 987.89 488.61 989.6 490.89 990.51 492.25 992.33 493.73 992.33 494.86 990.39 495.89 989.94 496.34 988.69 497.25 988.12 499.3 990.96 501 989.14 502.82 987.33 502.7 985.39 500.09 983.12 502.02 981.42 503.5 979.03 503.16 977.67 502.82 977.67 502.14 977.21 500.77 975.39 503.16 973.23 502.82 972.55 502.02 971.3 501.23 970.51 500.66 969.6 500.66 968.46 501.23 967.32 501.57 967.21 502.59 965.73 502.82 962.78 502.93 961.19 502.93 959.37 503.73 958.46 504.98 955.62 505.77 954.14 505.66 952.32 505.43 951.53 504.98 950.05 503.27 949.48 503.5 948.12 504.3 944.38 507.92 942.82 509.18 942.47 510.29 941.96 511.25 940.95 512.16 940.25 512.71 937.93 513.87 936.46 514.53 934.8 514.48 931.72 514.78 931.32 515.28 930.36 516.85 928.94 519.12 926.88 519.72 925.82 520.78 925.77 521.44 924.35 521.89 923.45 522.2 923.14 523 921.63 524.32 920.22 524.62 919.26 525.02 916.97 527.28 916.25 527.78 914.67 528.73 912.05 529.4 909.48 530.8 907.59 531.57 906.42 531.61 904.84 531.43 903.35 531.07 902.76 527.82 901.64 527.01 900.19 526.92 899.2 526.11 898.62 525.98 898.25 525.52 897.94 523.22 897.26 518.26 897.62 516.28 897.8 514.97 898.48 514.34 900.73 512.12 902.34 508.75 903.37 506.75 903.46 504.02 903.05 493.79 901.61 492.21 899.52 489.55 897.07 486.74 894.48 484.08 892.76 482.35 891.17 481.27 887.21 477.6 885.92 477.53 883.96 477.07 882.97 476.82 882.23 474.84 881.61 474.43 880.38 473.61 878.44 473.69 875.1 473.57 872.84 473.77 871.02 473.48 869.29 473.03 869.09 472.29 870.65 470.43 872.22 470.06 873.37 467.71 876.21 467.8 878.44 467.1 878.4 465.61 878.07 464.5 876.75 463.63 873.37 462.72 871.24 461.94 869.51 461.57 868.69 460.09 867.87 459.64 866.6 459.64 863.19 459.36 861.55 459.36 860.56 458.74 859.82 457.75 859.25 457.38 858.51 456.48 858.84 455.13 860.11 453.93 862 452.54 863.6 451.59 864.95 450.85 865.94 450.81 868.32 450.94 870.95 450.44 873 449.7 874.11 449.25 874.97 448.14 877.48 445.64 878.75 445.64 881.75 445.93 885.54 445.21 887.54 444.71 889.64 443.47 891.57 441.78 893 438.91 892.77 438.68 891.6 437.51 891.8 436.41 892.78 433.15" style="fill:#8d5a99; fill-rule:evenodd; stroke-width:0px;"/></svg>