<?xml version="1.0" encoding="UTF-8"?><svg id="a" xmlns="http://www.w3.org/2000/svg" width="1920" height="1080" viewBox="0 0 1920 1080"><polygon points="769.79 473.52 769.79 471.29 770.62 470.57 771.78 469.57 772.34 469.02 774.09 469.02 775.16 469.69 776.56 469.89 777.75 469.73 778.79 469.34 780.14 469.06 780.94 469.14 781.66 469.46 782.02 470.13 782.34 470.81 783.17 471.49 783.97 471.73 785.28 472.08 786.56 472.08 787.75 472.16 789.51 472.05 790.66 471.81 792.02 471.81 793.29 471.81 794.21 471.29 795.48 470.65 798.06 470.28 800.08 469.89 801.1 469.57 802.29 469 803.6 468.39 804.11 468.07 804.85 467.81 805.88 466.98 807.34 465.75 807.34 464.66 807.58 463.65 809.34 462.65 810.82 462.23 812.96 461.56 815.25 461.13 816.96 461.13 818.92 461.27 820.39 461.37 821.44 461.51 822.35 461.94 825.87 462.75 827.49 462.94 828.83 462.51 830.59 461.99 836.83 461.99 837.59 462.18 838.35 462.08 838.26 462.7 837.26 463.75 837.35 465.13 838.07 466.66 839.12 468.32 840.64 469.23 841.74 469.56 843.79 470.75 846.65 471.37 848.88 472.09 850.74 472.56 851.31 475.61 853.08 477.38 853.74 478.52 854.6 479.66 856.36 482.05 857.21 483.5 856.58 484.71 855.79 485.13 855.32 485.49 854.49 486.59 853.65 487.17 852.65 487.33 850.82 488.43 850.92 490.47 850.82 491.04 850.4 492.04 849.77 493.35 848.93 494.76 846.68 495.29 845.17 494.19 841.08 494.29 832.76 493.71 825.43 494.19 818.83 494.08 815.9 493.09 809.89 492.79 800.16 492.85 794.02 492.92 791.01 491.25 788.32 490.42 785.82 489.46 783.52 489.21 781.28 488.76 778.72 488.05 776.54 485.94 774.3 483.76 772 481.72 770.85 480.37 770.51 476.87 770.46 474.81 769.79 473.52" style="fill:#8d5a99; fill-rule:evenodd; stroke-width:0px;"/></svg>