<?xml version="1.0" encoding="UTF-8"?><svg id="a" xmlns="http://www.w3.org/2000/svg" width="1920" height="1080" viewBox="0 0 1920 1080"><path d="M2083.67,920.73l-2.79-7.17-9.36-10.95-1.79-1.59-9.56-8.17-5.78-7.97-4.98-9.16-3.78-9.16-2.99-12.75-1-10.76.6-13.34.8-10.16.8-10.76-1.82-3.75,6.89-4.02-3.19-15.14-9.96-10.36-11.95-18.32,6.37-33.06-3.59-10.76-21.11-7.97-21.11-4.38-14.34-3.19-17.13-3.19-12.35-18.72,7.17-17.53,26.69-19.52,12.35-18.72,6.37-45.01-31.07-7.97-15.14,1.59-19.52,2.39-21.11,2.39-11.15-2.79-7.17-3.98-7.17-5.58-11.55-7.17-8.37-3.19-.19-.13,5.27-1.27,17.13-9.56,18.32-7.97,22.71-12.75,10.76-14.74,11.15-21.91,7.97-45.81-13.94-9.96-21.51-11.55-23.1-25.1-17.13-9.56-16.73-10.76-5.18-12.35-13.15-9.16-22.31-10.76-19.92-6.77-23.9-1.99-52.98-14.74-11.95-11.15-16.73-3.58-11.55,6.37-9.96,7.97-15.54,3.19-23.1-1.99-25.1-2.39-25.1,3.19-21.11,11.95-30.67,20.32-6.37,9.16-2.24,3.02-1.81.38-3.32.69-3.15,1.54-6.51.15-17.53,1.2-21.11,5.18-20.32,9.16-16.73,1.59-18.32,4.38-4.38,4.38-2.39,7.17.4,8.37.8,9.16,2.79,7.57v5.18l.1.11v1.78l1.43,6.59h-30.8c-5.4,0-76.8-4.5-77.7-4.8-.9-.3-61.27-22.73-61.27-22.73l-9.03,17.05h0l-.4.56-31.17-7.14-20.32-7.57-4.38-17.13-2.39-21.11v-11.95l1.2-11.95,2.39-7.17,3.59-5.58,6.37,4.78-1.99,7.97,5.98-1.59.4-7.57,4.38-6.77,3.19-2.39-5.18-7.57-8.76-4.78-5.58-7.17-1.99-11.95-2.39-3.58-40.63-7.17-22.71-4.78-7.97-8.37-10.36-10.76-7.57-9.56-13.94-3.98-17.53-.8h-1.99l-29.88-11.55-17.13-8.37-20.71-5.58-23.9-2.39-21.91-1.2-14.74,5.58-12.35,1.99-15.93.8-18.72-.8-2.79-4.78,3.98-6.37-6.37-6.77-19.52.4-1.99,4.38-19.12,18.32-6.37,12.35-4.78,13.15-13.54,7.17-5.58,3.19-14.74,6.77h-12.35l-9.96,3.59-1.59,9.16v6.37l-5.98,5.98-4.78,3.98v6.77l-11.15,4.38-10.36-3.98-15.93-5.18-13.94,1.99-3.59,9.16,2.39,14.74,4.38,3.98,3.98,4.78-2.39,5.58,8.76,5.18,3.59,3.98-2.39,5.18-11.15,5.18-1.32,2.31-4.16-.52.4,6.37-1.2,4.78,2.79,4.78,2.39,4.38-1.99,1.59-11.15,9.56,1.59,5.18-3.98,2.79h-8.76l-4.78,4.38-6.77,1.99-4.78,3.19-7.97,3.19-7.57-3.19-8.76,2.39-3.59,7.57,1.2,2.39v5.18l3.58,3.98,1.99,4.38,1.2,4.38,5.58,9.16,2.79,1.99,3.98,2.79-.4,5.18-.8,4.38-4.78,5.58-3.19,9.56,6.37,4.38,7.57,3.19,13.15,2.39,5.58-2.79,11.15.8,9.16,2.39,17.53,2.79,11.15,3.98,5.18,5.18,8.37,7.57,9.56,4.78,9.96,9.56,8.85,10.94-.09.81-3.78,15.54,5.98,16.93,15.14,7.17,7.17,2.79,4.18,9.56,11.15,10.76,36.95,9.96,14.14.2,13.74,5.98,8.76,12.35,4.38,5.98,9.96,5.18,4.98,2.39,7.37,2.99,12.75,1.99,11.95,7.57,2.59,3.78,5.38,10.95,1.19,4.18,3.39,6.97,8.37,12.95,4.98,8.37,2.79,4.98,11.95,9.56,11.15,4.78,11.15,6.57,28.88,8.56,20.12,7.37,19.32,10.56,12.55,10.36,13.94,14.14,20.91,22.91,6.97,9.76,23.7,41.23,9.96,17.93,9.56,19.92,11.15,1.59,11.95-28.68,137.43,94.41,117.12,30.27,85.25-24.7,45.41,35.06,43.02,52.58,257.34,14.34,101.18,7.17,89.83,12.55,4.98-8.17,3.78-7.97,3.19-6.17,1.79-6.37,1-19.72-2.19-6.17-4.58-8.76-8.76-19.12-3.78-12.95,5.98-18.12,4.58-8.37,3.39-6.77,5.38-11.55,2.59-4.98,2.19-9.76-1.79-13.94Z" style="fill:#729b6f; fill-rule:evenodd; stroke-width:0px;"/></svg>