<?xml version="1.0" encoding="UTF-8"?><svg id="a" xmlns="http://www.w3.org/2000/svg" width="1920" height="1080" viewBox="0 0 1920 1080"><polygon points="1182 288.14 1175.63 293.96 1138.18 287.35 1115.47 282.57 1107.51 274.2 1097.15 263.44 1089.58 253.88 1075.64 249.9 1058.11 249.1 1056.12 249.1 1026.24 237.55 1009.11 229.19 988.4 223.61 964.5 221.22 942.59 220.02 927.85 225.6 915.5 227.59 899.56 228.39 880.84 227.59 878.05 222.81 882.04 216.44 875.66 209.67 856.14 210.06 854.15 214.45 835.03 232.77 828.66 245.12 823.88 258.27 810.33 265.44 804.76 268.62 790.02 275.39 777.67 275.39 767.71 278.98 766.12 288.14 766.12 294.52 760.14 300.49 755.36 304.47 755.36 311.25 744.21 315.63 733.85 311.64 717.92 306.47 703.97 308.46 700.39 317.62 702.78 332.36 707.16 336.34 711.14 341.12 708.75 346.7 717.52 351.88 721.1 355.86 718.71 361.04 707.56 366.22 706.24 368.53 702.08 368.01 702.48 374.39 701.28 379.17 704.07 383.95 706.46 388.33 704.47 389.92 693.32 399.48 694.91 404.66 690.93 407.45 682.16 407.45 677.38 411.83 670.61 413.82 665.83 417.01 657.86 420.2 650.29 417.01 641.53 419.4 637.95 426.97 639.14 429.36 639.14 434.54 642.73 438.52 644.72 442.9 645.91 447.28 651.49 456.45 654.28 458.44 658.26 461.23 657.86 466.41 657.07 470.79 652.29 476.36 649.1 485.92 655.47 490.31 663.04 493.49 676.19 495.88 681.76 493.1 692.92 493.89 702.08 496.28 719.61 499.07 730.76 503.05 735.94 508.23 744.31 515.8 753.87 520.58 763.83 530.14 772.68 541.08 772.59 541.89 768.81 557.43 774.78 574.36 789.92 581.53 797.09 584.32 798.89 588.44 797.19 592.88 792.01 599.26 785.64 603.24 774.88 607.22 761.34 610.01 743.01 612.8 730.26 617.58 713.14 625.15 696.8 627.94 690.03 627.54 664.93 633.51 656.17 637.5 643.42 646.26 628.68 659.81 615.94 681.32 603.59 694.86 592.04 713.19 578.09 748.24 562.16 786.48 554.59 800.82 545.83 815.16 538.66 843.05 533.48 862.57 535.07 888.86 536.27 907.98 533.88 922.72 161.81 1014.74 85.33 761.39 16.81 477.76 -150.5 229.19 -58.08 124.02 115.6 111.27 204.84 181.38 348.24 167.04 490.06 162.66 613.95 202.89 714.33 224.01 722.3 223.21 794.4 187.76 782.45 161.47 746.2 141.15 745.4 121.63 754.17 117.65 769.7 117.25 796.79 125.61 819.5 128.4 839.81 126.41 851.36 121.63 861.32 114.06 889.61 112.87 905.14 110.87 931.43 118.84 947.37 130 958.12 139.16 1001.54 171.82 1019.87 176.6 1041.78 179.79 1069.26 183.38 1089.98 190.55 1115.47 206.88 1129.02 213.65 1140.57 220.02 1151.72 226.8 1160.09 239.54 1167.26 253.09 1177.22 275.39 1182 288.14" style="fill:#729b6f; fill-rule:evenodd; stroke-width:0px;"/></svg>