<?xml version="1.0" encoding="UTF-8"?><svg id="a" xmlns="http://www.w3.org/2000/svg" width="1920" height="1080" viewBox="0 0 1920 1080"><path d="M2045.73,785.88l-9.96-10.36-11.95-18.32,6.37-33.06-3.58-10.76-21.11-7.97-21.11-4.38-14.34-3.19-17.13-3.19-12.35-18.72,7.17-17.53,26.69-19.52,12.35-18.72,6.37-45.01-31.07-7.97-15.14,1.59-19.52,2.39-21.11,2.39-11.15-2.79-7.17-3.98-7.17-5.58-11.55-7.17-8.36-3.19-13.15-8.76-7.57-11.55,2.39-20.71,5.18-21.51,9.96-40.23,3.19-31.87-.4-26.69-15.54-12.35h-29.88l-24.3,4.38-13.54,8.76-6.77,6.77-13.94,8.37-13.54,4.38-16.92,4.88-2.5-5.38-6.37-10.76-10.76-7.57-12.75-10.76-14.74-8.39-11.15-6.35-7.97-2.79-27.88-7.97-31.07-1.99-24.7-.4h0l-23.9,1.99-32.67,6.77-3.15,1.54-6.51.15-17.53,1.2-21.11,5.18-20.32,9.16-16.73,1.59-18.32,4.38-4.38,4.38-2.39,7.17.4,8.37.8,9.16,2.79,7.57v5.18l.1.11v1.78l1.43,6.59h-30.8c-5.4,0-76.8-4.5-77.7-4.8-.9-.3-61.27-22.73-61.27-22.73l-9.03,17.05h0l-3.98,5.58-8.37,10.76v4.68l-13.15,16.43-33.86,17.93-19.12,4.78-33.46,4.78-17.93,1.99-13.54,1.99-12.35,2.39-2.66,3.62-6.51.36-7.57,1.19-14.74-1.59-13.94-6.37-15.54-11.55-11.95,3.19-11.55,6.37-13.94,3.19-10.76-1.99-8.37-6.77-22.71-4.38-10.36.4-18.32,9.56-4.78-.8v-9.16l-3.19-3.98-5.98-3.58-2.79-4.38-7.17-1.2-7.57-2.79.4-1.19,2.39-7.17-2.79-1.99-2.79-1.99-4.38-5.58-4.78-4.38-.8-3.98-1.99-3.19-4.38-5.18-6.77-5.58-7.17-2.39-7.97-.4-5.18-3.19,2.39-6.77-1.19-5.98-6.37-2.79-9.96,1.99-19.12-3.19-19.12.8-11.55.4-16.73-5.58,3.59-6.77-1.2-3.98h-1.99v-5.98l-7.17-3.98-3.19-2.39-5.18-1.2-5.18-.4-6.37-2.79-3.19-3.98-10.36,3.19-9.56-1.2.4,6.37-1.2,4.78,2.79,4.78,2.39,4.38-1.99,1.59-11.15,9.56,1.59,5.18-3.98,2.79h-8.76l-4.78,4.38-6.77,1.99-4.78,3.19-7.97,3.19-7.57-3.19-8.76,2.39-3.59,7.57,1.2,2.39v5.18l3.59,3.98,1.99,4.38,1.2,4.38,5.58,9.16,2.79,1.99,3.98,2.79-.4,5.18-.8,4.38-4.78,5.58-3.19,9.56,6.37,4.38,7.57,3.19,13.15,2.39,5.58-2.79,11.15.8,9.16,2.39,17.53,2.79,11.15,3.98,5.18,5.18,8.37,7.57,9.56,4.78,9.96,9.56,20.32,25.1,8.37,11.95,17.53-2.79,20.71-.4,9.16,3.19,13.94,5.18,5.18,3.98,5.98,7.17,13.15,14.34,1.2.8,5.58,7.57,9.16,5.18,17.13,1.59,14.34,7.17,11.55,7.97,11.95,12.35,1.99,11.15,6.77,21.11,1.59,16.73,11.15,19.12,15.54,6.37,23.5,4.78,20.71,13.94,33.46,7.57,21.11-1.19,23.5.8,4.78,6.37,9.16,1.99,5.58,10.76,17.53,2.39,6.28-6.61,1.29,6.61.4,8.76.4,4.78,4.78,6.77,6.37,2.79h0l2.39-2.79,4.78.4,7.97,1.2.8-4.78h0s-2.79-7.97-2.79-7.97l-.8-4.78,1.99-1.59,3.19,1.96,1.99,1.23,2.79,2.79,4.86,6.37,1.52,1.99h0s3.19,1.99,3.19,1.99l15.14,15.54h0l8.76-1.99,16.33-2.79,11.55-6.37,11.95-7.97,7.17-5.58,11.15-3.98,24.3-6.37,10.36-4.38,15.54-5.18,14.74-4.38,17.13-3.19,11.95-1.2,15.14-1.59,14.34-.8,19.12-2.39,14.74-1.99,10.36-1.19,9.56-6.37,7.17-8.76,5.58-11.95,5.18-14.34,2.79-13.15-1.59-23.1-13.15-26.69-6.13-6.31,14.9.73,16.33,1.59,36.25,10.76,33.06,13.54,9.11,3.64,22.76,9.11,35.06,20.32,19.12,5.98,43.82,30.67,9.56,9.96h0s3.19,2.46,3.19,2.46l10.76,8.3,8.37,6.77,2.58-.83,9.77,27.92,17.53,25.49,28.68,33.46,19.12,9.56,31.87,3.19,39.83-7.97,28.68-11.15,116.32-6.37,36.25-21.11-3.19-15.14Z" style="fill:#729b6f; fill-rule:evenodd; stroke-width:0px;"/></svg>