<?xml version="1.0" encoding="UTF-8"?><svg id="a" xmlns="http://www.w3.org/2000/svg" width="1920" height="1080" viewBox="0 0 1920 1080"><path d="M1795.16,447.68l-8.37-14.34-10.76-11.55-18.72-4.78-30.27-1.59-.91-.52-2.58-5.55-6.37-10.76-10.76-7.57-12.75-10.76-25.89-14.74-7.97-2.79-27.88-7.97-31.07-1.99-24.7-.4-23.9,1.99-32.67,6.77-3.15,1.55-6.51.15-17.53,1.2-21.11,5.18-20.32,9.16-16.73,1.59-18.32,4.38-4.38,4.38-2.39,7.17.4,8.37.8,9.16,2.79,7.57v5.18l.1.11v1.78l1.43,6.59h-30.8c-5.4,0-76.8-4.5-77.7-4.8-.9-.3-61.27-22.73-61.27-22.73l-9.03,17.05-3.98,5.58-8.37,10.76v4.68l-13.15,16.43-33.86,17.93-19.12,4.78-33.46,4.78-17.93,1.99-13.54,1.99-12.35,2.39-4.38,5.98,4.38,21.91,1.19,6.37,15.14,30.67,3.98,11.55,2.79,14.34-1.59,18.72,3.19,8.37,8.37,9.16,7.97,2.39,13.94,7.17,13.94,14.74,6.77,11.95v13.94l-2.39,9.16,2.79,8.76.8,9.96,5.18,7.97-7.97,10.36-5.18,9.96.8,17.13,3.19,16.33.4,8.76.4,4.78,4.78,6.77,6.37,2.79,2.39-2.79,4.78.4,7.97,1.2.8-4.78-2.79-7.97-.8-4.78,1.99-1.59,5.18,3.19,2.79,2.79,6.37,8.37,3.19,1.99,15.14,15.54,8.76-1.99,16.33-2.79,11.55-6.37,11.95-7.97,7.17-5.58,11.15-3.98,24.3-6.37,10.36-4.38,15.54-5.18,14.74-4.38,17.13-3.19,11.95-1.2,15.14-1.59,14.34-.8,19.12-2.39,14.74-1.99,10.36-1.2,9.56-6.37,7.17-8.76,5.58-11.95,5.18-14.34,2.79-13.15-1.59-23.1-13.15-26.69-6.13-6.31,14.9.73,16.33,1.59,36.25,10.76,33.06,13.54,31.87,12.75,35.06,20.32,19.12,5.98,43.82,30.67,9.56,9.96,13.94,10.76,8.37,6.77,13.54-4.38,4.38-7.57,3.98-10.36,7.17-18.32,8.76-29.48-2.39-19.52,4.21-31.91,11.43-1.85,8.7-12.9-14.48-5.67,1.29-3.05,4.38-12.75,2.79-15.14,6.77-18.32,6.77-18.72,5.18-14.34,3.98-16.73.8-13.15.4-6.37,1.19-11.55,1.59-15.93-3.58-13.15Z" style="fill:#729b6f; fill-rule:evenodd; stroke-width:0px;"/></svg>