<?xml version="1.0" encoding="UTF-8"?><svg id="a" xmlns="http://www.w3.org/2000/svg" width="1920" height="1080" viewBox="0 0 1920 1080"><polygon points="1795.16 447.68 1786.8 433.34 1776.04 421.79 1757.32 417.01 1727.04 415.41 1726.14 414.89 1723.56 409.34 1717.19 398.58 1706.43 391.01 1693.68 380.26 1667.79 365.52 1659.82 362.73 1631.94 354.76 1600.87 352.77 1576.17 352.37 1552.27 354.37 1519.6 361.14 1516.45 362.68 1509.94 362.83 1492.41 364.03 1471.3 369.2 1450.99 378.37 1434.25 379.96 1415.93 384.34 1411.55 388.72 1409.16 395.89 1409.56 404.26 1410.35 413.42 1413.14 420.99 1413.14 426.17 1413.24 426.28 1413.24 428.06 1417.22 446.39 1412.44 454.35 1394.92 455.95 1355.88 460.73 1334.37 463.91 1328.89 464.41 1327.5 464.41 1318.33 463.22 1313.95 463.22 1302 462.02 1288.06 458.44 1270.53 450.87 1254.6 443.7 1246.63 435.33 1239.46 426.17 1235.87 424.18 1231.89 429.75 1223.53 440.51 1223.53 453.26 1224.72 459.23 1235.87 472.78 1248.22 477.16 1270.53 485.13 1292.44 494.29 1303.59 501.06 1309.33 506.24 1311.26 512.51 1321.63 518.61 1328.69 526.55 1351.8 557.63 1356.18 568.38 1360.16 579.54 1370.92 596.27 1384.06 610.21 1395.22 620.17 1430.67 624.95 1446.6 624.55 1470.9 625.74 1487.24 627.34 1523.49 638.09 1556.55 651.64 1588.42 664.38 1623.47 684.7 1642.59 690.68 1686.41 721.35 1695.97 731.31 1709.91 742.06 1718.28 748.84 1731.82 744.45 1736.21 736.89 1740.19 726.53 1747.36 708.2 1756.12 678.73 1753.73 659.21 1758.72 621.48 1778.07 612.55 1763.59 606.89 1764.89 603.84 1769.27 591.09 1772.06 575.95 1778.83 557.63 1785.6 538.9 1790.78 524.56 1794.76 507.83 1795.56 494.69 1795.96 488.31 1797.15 476.76 1798.75 460.83 1795.16 447.68" style="fill:#729b6f; fill-rule:evenodd; stroke-width:0px;"/></svg>