<?xml version="1.0" encoding="UTF-8"?><svg id="a" xmlns="http://www.w3.org/2000/svg" width="1920" height="1080" viewBox="0 0 1920 1080"><polygon points="1482.16 455.55 1471.4 457.54 1462.64 454.35 1454.27 441.61 1447.5 423.68 1451.08 402.17 1460.25 391.81 1480.96 380.26 1499.29 371.1 1519.6 361.14 1552.27 354.37 1576.17 352.37 1600.87 352.77 1631.94 354.76 1659.82 362.73 1667.79 365.52 1693.68 380.26 1706.43 391.01 1717.19 398.58 1723.56 409.34 1728.74 420.49 1729.53 426.07 1731.92 433.64 1736.7 441.21 1741.48 450.77 1746.66 457.14 1752.24 461.12 1757.02 463.52 1760.61 466.7 1763.39 471.08 1763 475.86 1762.2 479.85 1761.4 483.03 1761.8 486.22 1764.19 489.81 1765.39 493.39 1763.79 496.18 1752.24 496.58 1739.49 496.58 1725.15 494.19 1711.61 490.6 1694.48 484.23 1681.73 477.86 1666.59 473.87 1651.85 469.89 1641.1 467.5 1627.16 463.12 1609.23 459.93 1593.7 458.73 1580.55 458.34 1567.8 454.35 1553.46 453.16 1529.96 450.77 1516.41 449.17 1496.5 451.17 1482.16 455.55" style="fill:#729b6f; fill-rule:evenodd; opacity:.5; stroke-width:0px;"/></svg>